<?xml version="1.0" encoding="UTF-8" standalone="no"?><svg xmlns="http://www.w3.org/2000/svg" xmlns:xlink="http://www.w3.org/1999/xlink" contentStyleType="text/css" height="626px" preserveAspectRatio="none" style="width:882px;height:626px;background:#FFFFFF;" version="1.1" viewBox="0 0 882 626" width="882px" zoomAndPan="magnify"><defs/><g><text fill="#000000" font-family="sans-serif" font-size="14" font-weight="bold" lengthAdjust="spacing" textLength="575" x="155.25" y="27.9951">System Sequence Diagram (SSD) - Rank the candidates for a job opening</text><rect fill="#FFFFFF" height="394.375" style="stroke:#181818;stroke-width:1.0;" width="10" x="113" y="135.5781"/><rect fill="#FFFFFF" height="37.2813" style="stroke:#181818;stroke-width:1.0;" width="10" x="814" y="164.8594"/><rect fill="#FFFFFF" height="77.8438" style="stroke:#181818;stroke-width:1.0;" width="10" x="814" y="239.4219"/><rect fill="#FFFFFF" height="84.8438" style="stroke:#181818;stroke-width:1.0;" width="10" x="814" y="354.5469"/><rect fill="#FFFFFF" height="44.2813" style="stroke:#181818;stroke-width:1.0;" width="10" x="814" y="476.6719"/><rect fill="none" height="108.125" style="stroke:#000000;stroke-width:1.5;" width="866.5" x="10" y="254.4219"/><rect fill="none" height="108.125" style="stroke:#000000;stroke-width:1.5;" width="866.5" x="10" y="376.5469"/><line style="stroke:#181818;stroke-width:0.5;stroke-dasharray:5.0,5.0;" x1="118" x2="118" y1="125.5781" y2="538.9531"/><line style="stroke:#181818;stroke-width:0.5;stroke-dasharray:5.0,5.0;" x1="818.5" x2="818.5" y1="125.5781" y2="538.9531"/><text fill="#000000" font-family="sans-serif" font-size="20" lengthAdjust="spacing" textLength="190" x="20" y="120.8613">Customer Manager</text><ellipse cx="118" cy="50.7969" fill="#E3E3E3" rx="8" ry="8" style="stroke:#181818;stroke-width:0.5;"/><path d="M118,58.7969 L118,85.7969 M105,66.7969 L131,66.7969 M118,85.7969 L105,100.7969 M118,85.7969 L131,100.7969 " fill="none" style="stroke:#181818;stroke-width:0.5;"/><text fill="#000000" font-family="sans-serif" font-size="20" lengthAdjust="spacing" textLength="190" x="20" y="556.5176">Customer Manager</text><ellipse cx="118" cy="569.7344" fill="#E3E3E3" rx="8" ry="8" style="stroke:#181818;stroke-width:0.5;"/><path d="M118,577.7344 L118,604.7344 M105,585.7344 L131,585.7344 M118,604.7344 L105,619.7344 M118,604.7344 L131,619.7344 " fill="none" style="stroke:#181818;stroke-width:0.5;"/><rect fill="#E3E3E3" height="37.2813" rx="2.5" ry="2.5" style="stroke:#181818;stroke-width:0.5;" width="95" x="771.5" y="87.2969"/><text fill="#000000" font-family="sans-serif" font-size="20" lengthAdjust="spacing" textLength="81" x="778.5" y="112.8613">:System</text><rect fill="#E3E3E3" height="37.2813" rx="2.5" ry="2.5" style="stroke:#181818;stroke-width:0.5;" width="95" x="771.5" y="537.9531"/><text fill="#000000" font-family="sans-serif" font-size="20" lengthAdjust="spacing" textLength="81" x="778.5" y="563.5176">:System</text><rect fill="#FFFFFF" height="394.375" style="stroke:#181818;stroke-width:1.0;" width="10" x="113" y="135.5781"/><rect fill="#FFFFFF" height="37.2813" style="stroke:#181818;stroke-width:1.0;" width="10" x="814" y="164.8594"/><rect fill="#FFFFFF" height="77.8438" style="stroke:#181818;stroke-width:1.0;" width="10" x="814" y="239.4219"/><rect fill="#FFFFFF" height="84.8438" style="stroke:#181818;stroke-width:1.0;" width="10" x="814" y="354.5469"/><rect fill="#FFFFFF" height="44.2813" style="stroke:#181818;stroke-width:1.0;" width="10" x="814" y="476.6719"/><polygon fill="#181818" points="802,160.8594,812,164.8594,802,168.8594,806,164.8594" style="stroke:#181818;stroke-width:1.0;"/><line style="stroke:#181818;stroke-width:1.0;" x1="123" x2="808" y1="164.8594" y2="164.8594"/><text fill="#000000" font-family="sans-serif" font-size="20" font-weight="bold" lengthAdjust="spacing" textLength="14" x="130" y="158.1426">1</text><text fill="#000000" font-family="sans-serif" font-size="20" lengthAdjust="spacing" textLength="654" x="148" y="158.1426">Asks to show/edit the ranking of the candidates for a job opening</text><polygon fill="#181818" points="134,198.1406,124,202.1406,134,206.1406,130,202.1406" style="stroke:#181818;stroke-width:1.0;"/><line style="stroke:#181818;stroke-width:1.0;stroke-dasharray:2.0,2.0;" x1="128" x2="818" y1="202.1406" y2="202.1406"/><text fill="#000000" font-family="sans-serif" font-size="20" font-weight="bold" lengthAdjust="spacing" textLength="14" x="140" y="195.4238">2</text><text fill="#000000" font-family="sans-serif" font-size="20" lengthAdjust="spacing" textLength="537" x="158" y="195.4238">Provides a list of job openings and asks to choose one</text><polygon fill="#181818" points="802,235.4219,812,239.4219,802,243.4219,806,239.4219" style="stroke:#181818;stroke-width:1.0;"/><line style="stroke:#181818;stroke-width:1.0;" x1="123" x2="808" y1="239.4219" y2="239.4219"/><text fill="#000000" font-family="sans-serif" font-size="20" font-weight="bold" lengthAdjust="spacing" textLength="14" x="130" y="232.7051">3</text><text fill="#000000" font-family="sans-serif" font-size="20" lengthAdjust="spacing" textLength="215" x="148" y="232.7051">Selects a job opening</text><path d="M10,254.4219 L86,254.4219 L86,269.7031 L76,279.7031 L10,279.7031 L10,254.4219 " fill="#EEEEEE" style="stroke:#000000;stroke-width:1.5;"/><rect fill="none" height="108.125" style="stroke:#000000;stroke-width:1.5;" width="866.5" x="10" y="254.4219"/><text fill="#000000" font-family="sans-serif" font-size="20" font-weight="bold" lengthAdjust="spacing" textLength="31" x="25" y="273.9863">alt</text><text fill="#000000" font-family="sans-serif" font-size="20" font-weight="bold" lengthAdjust="spacing" textLength="490" x="101" y="274.9863">[if there's already a ranking in the system]</text><polygon fill="#181818" points="134,313.2656,124,317.2656,134,321.2656,130,317.2656" style="stroke:#181818;stroke-width:1.0;"/><line style="stroke:#181818;stroke-width:1.0;stroke-dasharray:2.0,2.0;" x1="128" x2="818" y1="317.2656" y2="317.2656"/><text fill="#000000" font-family="sans-serif" font-size="20" font-weight="bold" lengthAdjust="spacing" textLength="14" x="140" y="310.5488">4</text><text fill="#000000" font-family="sans-serif" font-size="20" lengthAdjust="spacing" textLength="298" x="158" y="310.5488">Asks if the CM wants to edit it</text><polygon fill="#181818" points="802,350.5469,812,354.5469,802,358.5469,806,354.5469" style="stroke:#181818;stroke-width:1.0;"/><line style="stroke:#181818;stroke-width:1.0;" x1="123" x2="808" y1="354.5469" y2="354.5469"/><text fill="#000000" font-family="sans-serif" font-size="20" font-weight="bold" lengthAdjust="spacing" textLength="14" x="130" y="347.8301">5</text><text fill="#000000" font-family="sans-serif" font-size="20" lengthAdjust="spacing" textLength="243" x="148" y="347.8301">asks to redo the ranking</text><path d="M10,376.5469 L104,376.5469 L104,391.8281 L94,401.8281 L10,401.8281 L10,376.5469 " fill="#EEEEEE" style="stroke:#000000;stroke-width:1.5;"/><rect fill="none" height="108.125" style="stroke:#000000;stroke-width:1.5;" width="866.5" x="10" y="376.5469"/><text fill="#000000" font-family="sans-serif" font-size="20" font-weight="bold" lengthAdjust="spacing" textLength="49" x="25" y="396.1113">loop</text><text fill="#000000" font-family="sans-serif" font-size="20" font-weight="bold" lengthAdjust="spacing" textLength="258" x="119" y="397.1113">[until CM asks to stop]</text><polygon fill="#181818" points="134,435.3906,124,439.3906,134,443.3906,130,439.3906" style="stroke:#181818;stroke-width:1.0;"/><line style="stroke:#181818;stroke-width:1.0;stroke-dasharray:2.0,2.0;" x1="128" x2="818" y1="439.3906" y2="439.3906"/><text fill="#000000" font-family="sans-serif" font-size="20" font-weight="bold" lengthAdjust="spacing" textLength="14" x="140" y="432.6738">6</text><text fill="#000000" font-family="sans-serif" font-size="20" lengthAdjust="spacing" textLength="276" x="158" y="432.6738">displays a list of candidates</text><polygon fill="#181818" points="802,472.6719,812,476.6719,802,480.6719,806,476.6719" style="stroke:#181818;stroke-width:1.0;"/><line style="stroke:#181818;stroke-width:1.0;" x1="123" x2="808" y1="476.6719" y2="476.6719"/><text fill="#000000" font-family="sans-serif" font-size="20" font-weight="bold" lengthAdjust="spacing" textLength="14" x="130" y="469.9551">7</text><text fill="#000000" font-family="sans-serif" font-size="20" lengthAdjust="spacing" textLength="518" x="148" y="469.9551">selects a candidate for rank number [iteration loop]</text><polygon fill="#181818" points="134,516.9531,124,520.9531,134,524.9531,130,520.9531" style="stroke:#181818;stroke-width:1.0;"/><line style="stroke:#181818;stroke-width:1.0;stroke-dasharray:2.0,2.0;" x1="128" x2="818" y1="520.9531" y2="520.9531"/><text fill="#000000" font-family="sans-serif" font-size="20" font-weight="bold" lengthAdjust="spacing" textLength="14" x="140" y="514.2363">8</text><text fill="#000000" font-family="sans-serif" font-size="20" lengthAdjust="spacing" textLength="237" x="158" y="514.2363">show operation success</text><!--SRC=[bL8zZzim3DtzAuWiROUWHSSC1OexT3kWE8z51vx49AnbqIVH5wI_lfGSvpoSqrQJB3- -3vAvupXWmZw8wyY3fpsEGRz9r9P_4tp-rEGP0hr4SSSaFO6caHP_1dGT7gZLSo18v1JZ8Im1-OXUJXmFiCUGgMcKrQ3jEIlrqDBpID4Ht3CU2lnzszv_W2qyOkn0ZmGEesUFIXdsaW3Xbpo131IDicbmL8bZ_qJ9xauDiBaRivhH10yOpLdQ0ERvtfWdPSS3HeNDRZ9H0TEral2BgLqh6h1p-O3jbzdu3hxcBeEA1PJJH_AirMuotoMixF_klZ1VzMO3S3aNdQr9pkex-9xaXRsH8GJEMbGMXFOSlOMPVBcZI2QGI1EffpUrtehMKh19vd-mMz-20jUuYTvPKKY4_cp5SoyurbxarvBLWBMf4ndSFS39vbJ3rFwohWHPop6t8f6NvNHMer3fNvXaWiW0OrGEnSbCPRirt8xWEGy1pyiPlMx1VmR8rq5SAUeUbHmmxJtyOAM4oXAhvPytmnN4RVjbdSl8BvHvT8xocky_]--></g></svg>