<?xml version="1.0" encoding="UTF-8" standalone="no"?><svg xmlns="http://www.w3.org/2000/svg" xmlns:xlink="http://www.w3.org/1999/xlink" contentStyleType="text/css" height="579px" preserveAspectRatio="none" style="width:882px;height:579px;background:#FFFFFF;" version="1.1" viewBox="0 0 882 579" width="882px" zoomAndPan="magnify"><defs/><g><text fill="#000000" font-family="sans-serif" font-size="14" font-weight="bold" lengthAdjust="spacing" textLength="575" x="155.25" y="27.9951">System Sequence Diagram (SSD) - Rank the candidates for a job opening</text><rect fill="#FFFFFF" height="346.8125" style="stroke:#181818;stroke-width:1.0;" width="10" x="113" y="135.5781"/><rect fill="#FFFFFF" height="37.2813" style="stroke:#181818;stroke-width:1.0;" width="10" x="814" y="164.8594"/><rect fill="#FFFFFF" height="77.8438" style="stroke:#181818;stroke-width:1.0;" width="10" x="814" y="239.4219"/><rect fill="#FFFFFF" height="44.2813" style="stroke:#181818;stroke-width:1.0;" width="10" x="814" y="354.5469"/><rect fill="#FFFFFF" height="37.2813" style="stroke:#181818;stroke-width:1.0;" width="10" x="814" y="436.1094"/><rect fill="none" height="108.125" style="stroke:#000000;stroke-width:1.5;" width="866.5" x="10" y="254.4219"/><line style="stroke:#181818;stroke-width:0.5;stroke-dasharray:5.0,5.0;" x1="118" x2="118" y1="125.5781" y2="491.3906"/><line style="stroke:#181818;stroke-width:0.5;stroke-dasharray:5.0,5.0;" x1="818.5" x2="818.5" y1="125.5781" y2="491.3906"/><text fill="#000000" font-family="sans-serif" font-size="20" lengthAdjust="spacing" textLength="190" x="20" y="120.8613">Customer Manager</text><ellipse cx="118" cy="50.7969" fill="#E3E3E3" rx="8" ry="8" style="stroke:#181818;stroke-width:0.5;"/><path d="M118,58.7969 L118,85.7969 M105,66.7969 L131,66.7969 M118,85.7969 L105,100.7969 M118,85.7969 L131,100.7969 " fill="none" style="stroke:#181818;stroke-width:0.5;"/><text fill="#000000" font-family="sans-serif" font-size="20" lengthAdjust="spacing" textLength="190" x="20" y="508.9551">Customer Manager</text><ellipse cx="118" cy="522.1719" fill="#E3E3E3" rx="8" ry="8" style="stroke:#181818;stroke-width:0.5;"/><path d="M118,530.1719 L118,557.1719 M105,538.1719 L131,538.1719 M118,557.1719 L105,572.1719 M118,557.1719 L131,572.1719 " fill="none" style="stroke:#181818;stroke-width:0.5;"/><rect fill="#E3E3E3" height="37.2813" rx="2.5" ry="2.5" style="stroke:#181818;stroke-width:0.5;" width="95" x="771.5" y="87.2969"/><text fill="#000000" font-family="sans-serif" font-size="20" lengthAdjust="spacing" textLength="81" x="778.5" y="112.8613">:System</text><rect fill="#E3E3E3" height="37.2813" rx="2.5" ry="2.5" style="stroke:#181818;stroke-width:0.5;" width="95" x="771.5" y="490.3906"/><text fill="#000000" font-family="sans-serif" font-size="20" lengthAdjust="spacing" textLength="81" x="778.5" y="515.9551">:System</text><rect fill="#FFFFFF" height="346.8125" style="stroke:#181818;stroke-width:1.0;" width="10" x="113" y="135.5781"/><rect fill="#FFFFFF" height="37.2813" style="stroke:#181818;stroke-width:1.0;" width="10" x="814" y="164.8594"/><rect fill="#FFFFFF" height="77.8438" style="stroke:#181818;stroke-width:1.0;" width="10" x="814" y="239.4219"/><rect fill="#FFFFFF" height="44.2813" style="stroke:#181818;stroke-width:1.0;" width="10" x="814" y="354.5469"/><rect fill="#FFFFFF" height="37.2813" style="stroke:#181818;stroke-width:1.0;" width="10" x="814" y="436.1094"/><polygon fill="#181818" points="802,160.8594,812,164.8594,802,168.8594,806,164.8594" style="stroke:#181818;stroke-width:1.0;"/><line style="stroke:#181818;stroke-width:1.0;" x1="123" x2="808" y1="164.8594" y2="164.8594"/><text fill="#000000" font-family="sans-serif" font-size="20" font-weight="bold" lengthAdjust="spacing" textLength="14" x="130" y="158.1426">1</text><text fill="#000000" font-family="sans-serif" font-size="20" lengthAdjust="spacing" textLength="654" x="148" y="158.1426">Asks to show/edit the ranking of the candidates for a job opening</text><polygon fill="#181818" points="134,198.1406,124,202.1406,134,206.1406,130,202.1406" style="stroke:#181818;stroke-width:1.0;"/><line style="stroke:#181818;stroke-width:1.0;stroke-dasharray:2.0,2.0;" x1="128" x2="818" y1="202.1406" y2="202.1406"/><text fill="#000000" font-family="sans-serif" font-size="20" font-weight="bold" lengthAdjust="spacing" textLength="14" x="140" y="195.4238">2</text><text fill="#000000" font-family="sans-serif" font-size="20" lengthAdjust="spacing" textLength="537" x="158" y="195.4238">Provides a list of job openings and asks to choose one</text><polygon fill="#181818" points="802,235.4219,812,239.4219,802,243.4219,806,239.4219" style="stroke:#181818;stroke-width:1.0;"/><line style="stroke:#181818;stroke-width:1.0;" x1="123" x2="808" y1="239.4219" y2="239.4219"/><text fill="#000000" font-family="sans-serif" font-size="20" font-weight="bold" lengthAdjust="spacing" textLength="14" x="130" y="232.7051">3</text><text fill="#000000" font-family="sans-serif" font-size="20" lengthAdjust="spacing" textLength="215" x="148" y="232.7051">Selects a job opening</text><path d="M10,254.4219 L86,254.4219 L86,269.7031 L76,279.7031 L10,279.7031 L10,254.4219 " fill="#EEEEEE" style="stroke:#000000;stroke-width:1.5;"/><rect fill="none" height="108.125" style="stroke:#000000;stroke-width:1.5;" width="866.5" x="10" y="254.4219"/><text fill="#000000" font-family="sans-serif" font-size="20" font-weight="bold" lengthAdjust="spacing" textLength="31" x="25" y="273.9863">alt</text><text fill="#000000" font-family="sans-serif" font-size="20" font-weight="bold" lengthAdjust="spacing" textLength="490" x="101" y="274.9863">[if there's already a ranking in the system]</text><polygon fill="#181818" points="134,313.2656,124,317.2656,134,321.2656,130,317.2656" style="stroke:#181818;stroke-width:1.0;"/><line style="stroke:#181818;stroke-width:1.0;stroke-dasharray:2.0,2.0;" x1="128" x2="818" y1="317.2656" y2="317.2656"/><text fill="#000000" font-family="sans-serif" font-size="20" font-weight="bold" lengthAdjust="spacing" textLength="14" x="140" y="310.5488">4</text><text fill="#000000" font-family="sans-serif" font-size="20" lengthAdjust="spacing" textLength="630" x="158" y="310.5488">Displays the current ranking and asks if the CM wants to edit it</text><polygon fill="#181818" points="802,350.5469,812,354.5469,802,358.5469,806,354.5469" style="stroke:#181818;stroke-width:1.0;"/><line style="stroke:#181818;stroke-width:1.0;" x1="123" x2="808" y1="354.5469" y2="354.5469"/><text fill="#000000" font-family="sans-serif" font-size="20" font-weight="bold" lengthAdjust="spacing" textLength="14" x="130" y="347.8301">5</text><text fill="#000000" font-family="sans-serif" font-size="20" lengthAdjust="spacing" textLength="243" x="148" y="347.8301">asks to redo the ranking</text><polygon fill="#181818" points="134,394.8281,124,398.8281,134,402.8281,130,398.8281" style="stroke:#181818;stroke-width:1.0;"/><line style="stroke:#181818;stroke-width:1.0;stroke-dasharray:2.0,2.0;" x1="128" x2="818" y1="398.8281" y2="398.8281"/><text fill="#000000" font-family="sans-serif" font-size="20" font-weight="bold" lengthAdjust="spacing" textLength="14" x="140" y="392.1113">6</text><text fill="#000000" font-family="sans-serif" font-size="20" lengthAdjust="spacing" textLength="276" x="158" y="392.1113">displays a list of candidates</text><polygon fill="#181818" points="802,432.1094,812,436.1094,802,440.1094,806,436.1094" style="stroke:#181818;stroke-width:1.0;"/><line style="stroke:#181818;stroke-width:1.0;" x1="123" x2="808" y1="436.1094" y2="436.1094"/><text fill="#000000" font-family="sans-serif" font-size="20" font-weight="bold" lengthAdjust="spacing" textLength="14" x="130" y="429.3926">7</text><text fill="#000000" font-family="sans-serif" font-size="20" lengthAdjust="spacing" textLength="269" x="148" y="429.3926">selects candidates in order</text><polygon fill="#181818" points="134,469.3906,124,473.3906,134,477.3906,130,473.3906" style="stroke:#181818;stroke-width:1.0;"/><line style="stroke:#181818;stroke-width:1.0;stroke-dasharray:2.0,2.0;" x1="128" x2="818" y1="473.3906" y2="473.3906"/><text fill="#000000" font-family="sans-serif" font-size="20" font-weight="bold" lengthAdjust="spacing" textLength="14" x="140" y="466.6738">8</text><text fill="#000000" font-family="sans-serif" font-size="20" lengthAdjust="spacing" textLength="237" x="158" y="466.6738">show operation success</text><!--SRC=[bPBFRjim3CRlVWeYbxM7OCEEEGmO6lHMeAYVW9MOHBKiUYBT87lwqdQK-53tZqwoJFBxVIIb2Qd3Z6rarv07JpliezvpqZhy9_Zzgv8I0YqdTeVCBO7cdcP_EdGDxgdMKoJ8v1JJFiu3v82UZo7jOOTHgAeqg8NM9r5geQP_FIL7i0su7y9lwdfx2sjumjI07WWS9XyyAWdiE0F22py3TvIiP5LXhvpwzfcotPrQmEgk5pNG30-OZ2ol0ANSAsFIu4A7IM6rcI36WEaw5WclfdR9gC3E-GFMVmhu1lvA8w1i1lduatpG4JSRzs2MTv_J3vKlUWK0pkUiipR9ehw1nyolmLinX1X41vLPGNjEtinCNEx0B0ISQ2hgwLsjzwpL56sIyWNSyIqgXD5kfX-M53EXFrbowKL8Oo_ach9eS1kaYtYIgNbzpcI3AdKkxYOrk7k0emroT3iE8EY2qoMZfLUPFC_7j-YL1eIe7vlmnSHrIjSz-2QXd4SnMoHh9sTlgxa4kGWshEempemQE87qpf4i4Rq1]--></g></svg>