<?xml version="1.0" encoding="UTF-8" standalone="no"?><svg xmlns="http://www.w3.org/2000/svg" xmlns:xlink="http://www.w3.org/1999/xlink" contentStyleType="text/css" height="524px" preserveAspectRatio="none" style="width:1155px;height:524px;background:#FFFFFF;" version="1.1" viewBox="0 0 1155 524" width="1155px" zoomAndPan="magnify"><defs/><g><text fill="#000000" font-family="sans-serif" font-size="14" font-weight="bold" lengthAdjust="spacing" textLength="197" x="472.25" y="22.9951">Domain Model - US1006b</text><!--cluster <<aggregate>> Candidate--><g id="cluster_&lt;&lt;aggregate&gt;&gt; Candidate"><path d="M327.5,237.5137 L595.5,237.5137 A3.75,3.75 0 0 1 598,240.0137 L605,266.7949 L740.5,266.7949 A2.5,2.5 0 0 1 743,269.2949 L743,515.0137 A2.5,2.5 0 0 1 740.5,517.5137 L327.5,517.5137 A2.5,2.5 0 0 1 325,515.0137 L325,240.0137 A2.5,2.5 0 0 1 327.5,237.5137 " fill="#EBF5FB" style="stroke:#000000;stroke-width:1.5;"/><line style="stroke:#000000;stroke-width:1.5;" x1="325" x2="605" y1="266.7949" y2="266.7949"/><text fill="#000000" font-family="sans-serif" font-size="20" font-weight="bold" lengthAdjust="spacing" textLength="267" x="329" y="258.0781">«aggregate» Candidate</text></g><!--cluster <<aggregate>> Application--><g id="cluster_&lt;&lt;aggregate&gt;&gt; Application"><path d="M8.5,44.5137 L288.5,44.5137 A3.75,3.75 0 0 1 291,47.0137 L298,73.7949 L298.5,73.7949 A2.5,2.5 0 0 1 301,76.2949 L301,361.5137 A2.5,2.5 0 0 1 298.5,364.0137 L8.5,364.0137 A2.5,2.5 0 0 1 6,361.5137 L6,47.0137 A2.5,2.5 0 0 1 8.5,44.5137 " fill="#EBF5FB" style="stroke:#000000;stroke-width:1.5;"/><line style="stroke:#000000;stroke-width:1.5;" x1="6" x2="298" y1="73.7949" y2="73.7949"/><text fill="#000000" font-family="sans-serif" font-size="20" font-weight="bold" lengthAdjust="spacing" textLength="279" x="10" y="65.0781">«aggregate» Application</text></g><!--class Candidate--><g id="elem_Candidate"><rect codeLine="21" fill="#FDEBD0" height="79.8438" id="Candidate" rx="2.5" ry="2.5" style="stroke:#181818;stroke-width:0.5;" width="137" x="570.5" y="279.5137"/><ellipse cx="586.5" cy="319.4355" fill="#ADD1B2" rx="12" ry="12" style="stroke:#181818;stroke-width:1.0;"/><path d="M591.2188,326.9355 L582.1406,326.9355 L582.1406,312.3574 L591.2188,312.3574 L591.2188,314.8887 L585.0156,314.8887 L585.0156,318.0449 L590.6406,318.0449 L590.6406,320.5762 L585.0156,320.5762 L585.0156,324.3887 L591.2188,324.3887 L591.2188,326.9355 Z " fill="#000000"/><text fill="#000000" font-family="sans-serif" font-size="20" font-style="italic" lengthAdjust="spacing" textLength="83" x="611.5" y="303.0781">«entity»</text><text fill="#000000" font-family="sans-serif" font-size="20" font-style="italic" lengthAdjust="spacing" textLength="64" x="621" y="326.3594">«root»</text><text fill="#000000" font-family="sans-serif" font-size="20" lengthAdjust="spacing" textLength="103" x="601.5" y="349.6406">Candidate</text></g><!--class FirstName--><g id="elem_FirstName"><rect codeLine="23" fill="#D6EAF8" height="56.5625" id="FirstName" rx="2.5" ry="2.5" style="stroke:#181818;stroke-width:0.5;" width="175" x="341.5" y="444.5137"/><ellipse cx="357.5" cy="472.7949" fill="#FF8B40" rx="12" ry="12" style="stroke:#181818;stroke-width:1.0;"/><path d="M357.5156,478.6387 L360.0781,466.4668 L362.9844,466.4668 L359.5156,481.0449 L355.5313,481.0449 L352.0625,466.4668 L354.9531,466.4668 L357.5156,478.6387 Z " fill="#000000"/><text fill="#000000" font-family="sans-serif" font-size="20" font-style="italic" lengthAdjust="spacing" textLength="145" x="370.5" y="468.0781">«valueObject»</text><text fill="#000000" font-family="sans-serif" font-size="20" lengthAdjust="spacing" textLength="103" x="391.5" y="491.3594">FirstName</text></g><!--class LastName--><g id="elem_LastName"><rect codeLine="24" fill="#D6EAF8" height="56.5625" id="LastName" rx="2.5" ry="2.5" style="stroke:#181818;stroke-width:0.5;" width="175" x="551.5" y="444.5137"/><ellipse cx="567.5" cy="472.7949" fill="#FF8B40" rx="12" ry="12" style="stroke:#181818;stroke-width:1.0;"/><path d="M567.5156,478.6387 L570.0781,466.4668 L572.9844,466.4668 L569.5156,481.0449 L565.5313,481.0449 L562.0625,466.4668 L564.9531,466.4668 L567.5156,478.6387 Z " fill="#000000"/><text fill="#000000" font-family="sans-serif" font-size="20" font-style="italic" lengthAdjust="spacing" textLength="145" x="580.5" y="468.0781">«valueObject»</text><text fill="#000000" font-family="sans-serif" font-size="20" lengthAdjust="spacing" textLength="100" x="603" y="491.3594">LastName</text></g><!--class Application--><g id="elem_Application"><rect codeLine="29" fill="#FDEBD0" height="79.8438" id="Application" rx="2.5" ry="2.5" style="stroke:#181818;stroke-width:0.5;" width="148" x="126" y="86.5137"/><ellipse cx="142" cy="126.4355" fill="#ADD1B2" rx="12" ry="12" style="stroke:#181818;stroke-width:1.0;"/><path d="M146.7188,133.9355 L137.6406,133.9355 L137.6406,119.3574 L146.7188,119.3574 L146.7188,121.8887 L140.5156,121.8887 L140.5156,125.0449 L146.1406,125.0449 L146.1406,127.5762 L140.5156,127.5762 L140.5156,131.3887 L146.7188,131.3887 L146.7188,133.9355 Z " fill="#000000"/><text fill="#000000" font-family="sans-serif" font-size="20" font-style="italic" lengthAdjust="spacing" textLength="83" x="172.5" y="110.0781">«entity»</text><text fill="#000000" font-family="sans-serif" font-size="20" font-style="italic" lengthAdjust="spacing" textLength="64" x="182" y="133.3594">«root»</text><text fill="#000000" font-family="sans-serif" font-size="20" lengthAdjust="spacing" textLength="114" x="157" y="156.6406">Application</text></g><!--class ApplicationNumber--><g id="elem_ApplicationNumber"><rect codeLine="31" fill="#D6EAF8" height="56.5625" id="ApplicationNumber" rx="2.5" ry="2.5" style="stroke:#181818;stroke-width:0.5;" width="229" x="55.5" y="291.0137"/><ellipse cx="71.5" cy="319.2949" fill="#FF8B40" rx="12" ry="12" style="stroke:#181818;stroke-width:1.0;"/><path d="M71.5156,325.1387 L74.0781,312.9668 L76.9844,312.9668 L73.5156,327.5449 L69.5313,327.5449 L66.0625,312.9668 L68.9531,312.9668 L71.5156,325.1387 Z " fill="#000000"/><text fill="#000000" font-family="sans-serif" font-size="20" font-style="italic" lengthAdjust="spacing" textLength="145" x="111.5" y="314.5781">«valueObject»</text><text fill="#000000" font-family="sans-serif" font-size="20" lengthAdjust="spacing" textLength="195" x="86.5" y="337.8594">ApplicationNumber</text></g><!--class PhoneNumber--><g id="elem_PhoneNumber"><rect codeLine="35" fill="#D6EAF8" height="56.5625" id="PhoneNumber" rx="2.5" ry="2.5" style="stroke:#181818;stroke-width:0.5;" width="177" x="761.5" y="444.5137"/><ellipse cx="777.5" cy="472.7949" fill="#FF8B40" rx="12" ry="12" style="stroke:#181818;stroke-width:1.0;"/><path d="M777.5156,478.6387 L780.0781,466.4668 L782.9844,466.4668 L779.5156,481.0449 L775.5313,481.0449 L772.0625,466.4668 L774.9531,466.4668 L777.5156,478.6387 Z " fill="#000000"/><text fill="#000000" font-family="sans-serif" font-size="20" font-style="italic" lengthAdjust="spacing" textLength="145" x="791.5" y="468.0781">«valueObject»</text><text fill="#000000" font-family="sans-serif" font-size="20" lengthAdjust="spacing" textLength="143" x="792.5" y="491.3594">PhoneNumber</text></g><!--class Email--><g id="elem_Email"><rect codeLine="36" fill="#D6EAF8" height="56.5625" id="Email" rx="2.5" ry="2.5" style="stroke:#181818;stroke-width:0.5;" width="175" x="973.5" y="444.5137"/><ellipse cx="989.5" cy="472.7949" fill="#FF8B40" rx="12" ry="12" style="stroke:#181818;stroke-width:1.0;"/><path d="M989.5156,478.6387 L992.0781,466.4668 L994.9844,466.4668 L991.5156,481.0449 L987.5313,481.0449 L984.0625,466.4668 L986.9531,466.4668 L989.5156,478.6387 Z " fill="#000000"/><text fill="#000000" font-family="sans-serif" font-size="20" font-style="italic" lengthAdjust="spacing" textLength="145" x="1002.5" y="468.0781">«valueObject»</text><text fill="#000000" font-family="sans-serif" font-size="20" lengthAdjust="spacing" textLength="57" x="1046.5" y="491.3594">Email</text></g><!--link Candidate to FirstName--><g id="link_Candidate_FirstName"><path codeLine="39" d="M584.92,359.5337 C549.68,384.9537 504.34,417.6637 471.65,441.2437 " fill="none" id="Candidate-to-FirstName" style="stroke:#000000;stroke-width:1.0;"/><polygon fill="#000000" points="467.32,444.3637,476.9633,442.3618,471.3809,441.4467,472.2961,435.8643,467.32,444.3637" style="stroke:#000000;stroke-width:1.0;"/><text fill="#000000" font-family="sans-serif" font-size="20" lengthAdjust="spacing" textLength="35" x="541" y="409.0781">has</text><text fill="#000000" font-family="sans-serif" font-size="20" lengthAdjust="spacing" textLength="13" x="562.6437" y="386.0206">1</text><text fill="#000000" font-family="sans-serif" font-size="20" lengthAdjust="spacing" textLength="13" x="460.8829" y="431.7213">1</text></g><!--link Candidate to LastName--><g id="link_Candidate_LastName"><path codeLine="40" d="M639,359.5337 C639,384.1437 639,415.5837 639,438.9737 " fill="none" id="Candidate-to-LastName" style="stroke:#000000;stroke-width:1.0;"/><polygon fill="#000000" points="639,444.1337,643,435.1337,639,439.1337,635,435.1337,639,444.1337" style="stroke:#000000;stroke-width:1.0;"/><text fill="#000000" font-family="sans-serif" font-size="20" lengthAdjust="spacing" textLength="35" x="640" y="409.0781">has</text><text fill="#000000" font-family="sans-serif" font-size="20" lengthAdjust="spacing" textLength="13" x="625.0047" y="386.0206">1</text><text fill="#000000" font-family="sans-serif" font-size="20" lengthAdjust="spacing" textLength="13" x="624.7203" y="431.8191">1</text></g><!--link Candidate to PhoneNumber--><g id="link_Candidate_PhoneNumber"><path codeLine="41" d="M693.34,359.5337 C728.75,384.9537 774.3,417.6637 807.15,441.2437 " fill="none" id="Candidate-to-PhoneNumber" style="stroke:#000000;stroke-width:1.0;"/><polygon fill="#000000" points="811.49,444.3637,806.4998,435.8726,807.4242,441.4534,801.8434,442.3779,811.49,444.3637" style="stroke:#000000;stroke-width:1.0;"/><text fill="#000000" font-family="sans-serif" font-size="20" lengthAdjust="spacing" textLength="35" x="770" y="409.0781">has</text><text fill="#000000" font-family="sans-serif" font-size="20" lengthAdjust="spacing" textLength="13" x="687.6655" y="386.0206">1</text><text fill="#000000" font-family="sans-serif" font-size="20" lengthAdjust="spacing" textLength="13" x="789.2067" y="431.7213">1</text></g><!--link Candidate to Email--><g id="link_Candidate_Email"><path codeLine="42" d="M707.74,345.1937 C781.9,371.8137 899.94,414.1937 978.92,442.5437 " fill="none" id="Candidate-to-Email" style="stroke:#000000;stroke-width:1.0;"/><polygon fill="#000000" points="984.06,444.3937,976.9323,437.5969,979.3519,442.7102,974.2387,445.1298,984.06,444.3937" style="stroke:#000000;stroke-width:1.0;"/><text fill="#000000" font-family="sans-serif" font-size="20" lengthAdjust="spacing" textLength="35" x="901" y="409.0781">has</text><text fill="#000000" font-family="sans-serif" font-size="20" lengthAdjust="spacing" textLength="13" x="715.4991" y="342.243">1</text><text fill="#000000" font-family="sans-serif" font-size="20" lengthAdjust="spacing" textLength="13" x="953.8505" y="431.7575">1</text></g><!--link Application to ApplicationNumber--><g id="link_Application_ApplicationNumber"><path codeLine="45" d="M193.86,166.6237 C188.34,201.7437 180.33,252.7137 175.15,285.7437 " fill="none" id="Application-to-ApplicationNumber" style="stroke:#000000;stroke-width:1.0;"/><polygon fill="#000000" points="174.34,290.8837,179.6836,282.6105,175.1132,285.9438,171.7799,281.3734,174.34,290.8837" style="stroke:#000000;stroke-width:1.0;"/><text fill="#000000" font-family="sans-serif" font-size="20" lengthAdjust="spacing" textLength="35" x="189" y="216.0781">has</text><text fill="#000000" font-family="sans-serif" font-size="20" lengthAdjust="spacing" textLength="13" x="179.0035" y="192.8005">1</text><text fill="#000000" font-family="sans-serif" font-size="20" lengthAdjust="spacing" textLength="13" x="160.8945" y="278.2454">1</text></g><!--link Application to Candidate--><g id="link_Application_Candidate"><path codeLine="46" d="M274.47,159.9137 C355.66,195.2337 484.76,251.4037 565.55,286.5537 " fill="none" id="Application-to-Candidate" style="stroke:#000000;stroke-width:1.0;"/><polygon fill="#000000" points="570.32,288.6337,563.6695,281.3693,565.7369,286.6348,560.4714,288.7022,570.32,288.6337" style="stroke:#000000;stroke-width:1.0;"/><text fill="#000000" font-family="sans-serif" font-size="20" lengthAdjust="spacing" textLength="47" x="407" y="216.0781">from</text><text fill="#000000" font-family="sans-serif" font-size="20" lengthAdjust="spacing" textLength="13" x="281.9344" y="157.5172">1</text><text fill="#000000" font-family="sans-serif" font-size="20" lengthAdjust="spacing" textLength="13" x="549.5671" y="279.8502">1</text></g><!--SRC=[bP9BJyCm48Jl_XMhzW18L4eHRqML6XgVU4aLtDraIKmTEx9TK47yTvoODWPAWLvIhR-Pp7XZvbpMJBDAg6oEEUJum1R2KYNjbByW74I4M6u5maHLZ4kuKZaA6C3TT1X5npD2IfuZO5NR9LHOpL0RicDMhd399TfbZQ2qBHKXtKacc37mIi3z4fRD2wqMChzGGkauVc9YWJUpHypiQ0JzoN4wfgURKQrKoz19caoYpOn1_SGpRAs6z21DDc7E8gLdwKbxDjPQFVjn8Xn7tiBijPkm0ZUdXtwQq2EQD98Tk60ovpcp2EEYq5YuVsGbxyKnMmrTjZNQ-p16wQv-6LZ4iHyvU5tyrRscWVrzKgwDlMPLmtw-n3ZUlTzt7UbfSXZjUM6dksJ_aBN5ndKjUCOiL_BtQW7yfLneytkzWBvUD1_Rd_8sWRt-jbGI_w7qgjHz-U9lRmeNhb6qIKt9QqEwUM_OWy5Wr3wxVPr3oNwYrjlP1eNTjd6-ZIU-xF5pul0aDFY-16_s4z_5E8S7hIho3W00]--></g></svg>