<?xml version="1.0" encoding="UTF-8" standalone="no"?><svg xmlns="http://www.w3.org/2000/svg" xmlns:xlink="http://www.w3.org/1999/xlink" contentStyleType="text/css" height="1997px" preserveAspectRatio="none" style="width:1381px;height:1997px;background:#FFFFFF;" version="1.1" viewBox="0 0 1381 1997" width="1381px" zoomAndPan="magnify"><defs/><g><text fill="#000000" font-family="sans-serif" font-size="14" font-weight="bold" lengthAdjust="spacing" textLength="439" x="472.5" y="27.9951">US1006b - SD - Display Candidate Data and Applications</text><rect fill="#FFFFFF" height="1756.5938" style="stroke:#181818;stroke-width:1.0;" width="10" x="113" y="135.5781"/><rect fill="#FFFFFF" height="191.9688" style="stroke:#181818;stroke-width:1.0;" width="10" x="305.5" y="234.7031"/><rect fill="#FFFFFF" height="255.8125" style="stroke:#181818;stroke-width:1.0;" width="10" x="305.5" y="487.2344"/><rect fill="#FFFFFF" height="1097.5625" style="stroke:#181818;stroke-width:1.0;" width="10" x="305.5" y="803.6094"/><rect fill="#FFFFFF" height="769.4688" style="stroke:#181818;stroke-width:1.0;" width="10" x="555.5" y="1031.8594"/><rect fill="#FFFFFF" height="610.0625" style="stroke:#181818;stroke-width:1.0;" width="10" x="560.5" y="1146.9844"/><rect fill="#FFFFFF" height="192.6875" style="stroke:#181818;stroke-width:1.0;" width="10" x="565.5" y="1267.1094"/><rect fill="#FFFFFF" height="37.2813" style="stroke:#181818;stroke-width:1.0;" width="10" x="788.5" y="1379.2344"/><rect fill="#FFFFFF" height="186.4063" style="stroke:#181818;stroke-width:1.0;" width="10" x="952.5" y="1527.3594"/><rect fill="#FFFFFF" height="111.8438" style="stroke:#181818;stroke-width:1.0;" width="10" x="1149" y="1564.6406"/><rect fill="#FFFFFF" height="37.2813" style="stroke:#181818;stroke-width:1.0;" width="10" x="1310" y="1601.9219"/><rect fill="none" height="298.0938" style="stroke:#000000;stroke-width:1.5;" width="635" x="10" y="587.0781"/><rect fill="none" height="910.1563" style="stroke:#000000;stroke-width:1.5;" width="1159" x="216" y="899.1719"/><line style="stroke:#181818;stroke-width:0.5;stroke-dasharray:5.0,5.0;" x1="118" x2="118" y1="125.5781" y2="1910.1719"/><line style="stroke:#181818;stroke-width:0.5;stroke-dasharray:5.0,5.0;" x1="310" x2="310" y1="125.5781" y2="1910.1719"/><line style="stroke:#181818;stroke-width:0.5;stroke-dasharray:5.0,5.0;" x1="560" x2="560" y1="125.5781" y2="1910.1719"/><line style="stroke:#181818;stroke-width:0.5;stroke-dasharray:5.0,5.0;" x1="793" x2="793" y1="125.5781" y2="1910.1719"/><line style="stroke:#181818;stroke-width:0.5;stroke-dasharray:5.0,5.0;" x1="957" x2="957" y1="125.5781" y2="1910.1719"/><line style="stroke:#181818;stroke-width:0.5;stroke-dasharray:5.0,5.0;" x1="1154" x2="1154" y1="125.5781" y2="1910.1719"/><line style="stroke:#181818;stroke-width:0.5;stroke-dasharray:5.0,5.0;" x1="1315" x2="1315" y1="125.5781" y2="1910.1719"/><text fill="#000000" font-family="sans-serif" font-size="20" lengthAdjust="spacing" text-decoration="underline" textLength="190" x="20" y="120.8613">Customer Manager</text><ellipse cx="118" cy="50.7969" fill="#E2E2F0" rx="8" ry="8" style="stroke:#181818;stroke-width:0.5;"/><path d="M118,58.7969 L118,85.7969 M105,66.7969 L131,66.7969 M118,85.7969 L105,100.7969 M118,85.7969 L131,100.7969 " fill="none" style="stroke:#181818;stroke-width:0.5;"/><text fill="#000000" font-family="sans-serif" font-size="20" lengthAdjust="spacing" text-decoration="underline" textLength="190" x="20" y="1927.7363">Customer Manager</text><ellipse cx="118" cy="1940.9531" fill="#E2E2F0" rx="8" ry="8" style="stroke:#181818;stroke-width:0.5;"/><path d="M118,1948.9531 L118,1975.9531 M105,1956.9531 L131,1956.9531 M118,1975.9531 L105,1990.9531 M118,1975.9531 L131,1990.9531 " fill="none" style="stroke:#181818;stroke-width:0.5;"/><rect fill="#E2E2F0" height="37.2813" rx="2.5" ry="2.5" style="stroke:#181818;stroke-width:0.5;" width="169" x="226" y="87.2969"/><text fill="#000000" font-family="sans-serif" font-size="20" lengthAdjust="spacing" text-decoration="underline" textLength="155" x="233" y="112.8613">RegisterRankUI</text><rect fill="#E2E2F0" height="37.2813" rx="2.5" ry="2.5" style="stroke:#181818;stroke-width:0.5;" width="169" x="226" y="1909.1719"/><text fill="#000000" font-family="sans-serif" font-size="20" lengthAdjust="spacing" text-decoration="underline" textLength="155" x="233" y="1934.7363">RegisterRankUI</text><rect fill="#E2E2F0" height="37.2813" rx="2.5" ry="2.5" style="stroke:#181818;stroke-width:0.5;" width="247" x="437" y="87.2969"/><text fill="#000000" font-family="sans-serif" font-size="20" lengthAdjust="spacing" text-decoration="underline" textLength="233" x="444" y="112.8613">RegisterRankController</text><rect fill="#E2E2F0" height="37.2813" rx="2.5" ry="2.5" style="stroke:#181818;stroke-width:0.5;" width="247" x="437" y="1909.1719"/><text fill="#000000" font-family="sans-serif" font-size="20" lengthAdjust="spacing" text-decoration="underline" textLength="233" x="444" y="1934.7363">RegisterRankController</text><rect fill="#E2E2F0" height="37.2813" rx="2.5" ry="2.5" style="stroke:#181818;stroke-width:0.5;" width="137" x="725" y="87.2969"/><text fill="#000000" font-family="sans-serif" font-size="20" lengthAdjust="spacing" text-decoration="underline" textLength="123" x="732" y="112.8613">RankBuilder</text><rect fill="#E2E2F0" height="37.2813" rx="2.5" ry="2.5" style="stroke:#181818;stroke-width:0.5;" width="137" x="725" y="1909.1719"/><text fill="#000000" font-family="sans-serif" font-size="20" lengthAdjust="spacing" text-decoration="underline" textLength="123" x="732" y="1934.7363">RankBuilder</text><rect fill="#E2E2F0" height="37.2813" rx="2.5" ry="2.5" style="stroke:#181818;stroke-width:0.5;" width="171" x="872" y="87.2969"/><text fill="#000000" font-family="sans-serif" font-size="20" lengthAdjust="spacing" text-decoration="underline" textLength="157" x="879" y="112.8613">RankRepository</text><rect fill="#E2E2F0" height="37.2813" rx="2.5" ry="2.5" style="stroke:#181818;stroke-width:0.5;" width="171" x="872" y="1909.1719"/><text fill="#000000" font-family="sans-serif" font-size="20" lengthAdjust="spacing" text-decoration="underline" textLength="157" x="879" y="1934.7363">RankRepository</text><rect fill="#E2E2F0" height="37.2813" rx="2.5" ry="2.5" style="stroke:#181818;stroke-width:0.5;" width="202" x="1053" y="87.2969"/><text fill="#000000" font-family="sans-serif" font-size="20" lengthAdjust="spacing" text-decoration="underline" textLength="188" x="1060" y="112.8613">JpaRankRepository</text><rect fill="#E2E2F0" height="37.2813" rx="2.5" ry="2.5" style="stroke:#181818;stroke-width:0.5;" width="202" x="1053" y="1909.1719"/><text fill="#000000" font-family="sans-serif" font-size="20" lengthAdjust="spacing" text-decoration="underline" textLength="188" x="1060" y="1934.7363">JpaRankRepository</text><text fill="#000000" font-family="sans-serif" font-size="20" lengthAdjust="spacing" text-decoration="underline" textLength="94" x="1265" y="120.8613">Database</text><path d="M1297,66.2969 C1297,56.2969 1315,56.2969 1315,56.2969 C1315,56.2969 1333,56.2969 1333,66.2969 L1333,92.2969 C1333,102.2969 1315,102.2969 1315,102.2969 C1315,102.2969 1297,102.2969 1297,92.2969 L1297,66.2969 " fill="#E2E2F0" style="stroke:#181818;stroke-width:1.5;"/><path d="M1297,66.2969 C1297,76.2969 1315,76.2969 1315,76.2969 C1315,76.2969 1333,76.2969 1333,66.2969 " fill="none" style="stroke:#181818;stroke-width:1.5;"/><text fill="#000000" font-family="sans-serif" font-size="20" lengthAdjust="spacing" text-decoration="underline" textLength="94" x="1265" y="1927.7363">Database</text><path d="M1297,1942.4531 C1297,1932.4531 1315,1932.4531 1315,1932.4531 C1315,1932.4531 1333,1932.4531 1333,1942.4531 L1333,1968.4531 C1333,1978.4531 1315,1978.4531 1315,1978.4531 C1315,1978.4531 1297,1978.4531 1297,1968.4531 L1297,1942.4531 " fill="#E2E2F0" style="stroke:#181818;stroke-width:1.5;"/><path d="M1297,1942.4531 C1297,1952.4531 1315,1952.4531 1315,1952.4531 C1315,1952.4531 1333,1952.4531 1333,1942.4531 " fill="none" style="stroke:#181818;stroke-width:1.5;"/><rect fill="#FFFFFF" height="1756.5938" style="stroke:#181818;stroke-width:1.0;" width="10" x="113" y="135.5781"/><rect fill="#FFFFFF" height="191.9688" style="stroke:#181818;stroke-width:1.0;" width="10" x="305.5" y="234.7031"/><rect fill="#FFFFFF" height="255.8125" style="stroke:#181818;stroke-width:1.0;" width="10" x="305.5" y="487.2344"/><rect fill="#FFFFFF" height="1097.5625" style="stroke:#181818;stroke-width:1.0;" width="10" x="305.5" y="803.6094"/><rect fill="#FFFFFF" height="769.4688" style="stroke:#181818;stroke-width:1.0;" width="10" x="555.5" y="1031.8594"/><rect fill="#FFFFFF" height="610.0625" style="stroke:#181818;stroke-width:1.0;" width="10" x="560.5" y="1146.9844"/><rect fill="#FFFFFF" height="192.6875" style="stroke:#181818;stroke-width:1.0;" width="10" x="565.5" y="1267.1094"/><rect fill="#FFFFFF" height="37.2813" style="stroke:#181818;stroke-width:1.0;" width="10" x="788.5" y="1379.2344"/><rect fill="#FFFFFF" height="186.4063" style="stroke:#181818;stroke-width:1.0;" width="10" x="952.5" y="1527.3594"/><rect fill="#FFFFFF" height="111.8438" style="stroke:#181818;stroke-width:1.0;" width="10" x="1149" y="1564.6406"/><rect fill="#FFFFFF" height="37.2813" style="stroke:#181818;stroke-width:1.0;" width="10" x="1310" y="1601.9219"/><polygon fill="#181818" points="293.5,230.7031,303.5,234.7031,293.5,238.7031,297.5,234.7031" style="stroke:#181818;stroke-width:1.0;"/><line style="stroke:#181818;stroke-width:1.0;" x1="123" x2="299.5" y1="234.7031" y2="234.7031"/><text fill="#000000" font-family="sans-serif" font-size="20" lengthAdjust="spacing" textLength="46" x="130" y="158.1426">Asks</text><text fill="#000000" font-family="sans-serif" font-size="20" lengthAdjust="spacing" textLength="6" x="176" y="158.1426"> </text><text fill="#000000" font-family="sans-serif" font-size="20" lengthAdjust="spacing" textLength="20" x="182" y="158.1426">to</text><text fill="#000000" font-family="sans-serif" font-size="20" lengthAdjust="spacing" textLength="6" x="202" y="158.1426"> </text><text fill="#000000" font-family="sans-serif" font-size="20" lengthAdjust="spacing" textLength="71" x="208" y="158.1426">display</text><text fill="#000000" font-family="sans-serif" font-size="20" lengthAdjust="spacing" textLength="33" x="130" y="181.4238">the</text><text fill="#000000" font-family="sans-serif" font-size="20" lengthAdjust="spacing" textLength="6" x="163" y="181.4238"> </text><text fill="#000000" font-family="sans-serif" font-size="20" lengthAdjust="spacing" textLength="86" x="169" y="181.4238">personal</text><text fill="#000000" font-family="sans-serif" font-size="20" lengthAdjust="spacing" textLength="45" x="130" y="204.7051">data</text><text fill="#000000" font-family="sans-serif" font-size="20" lengthAdjust="spacing" textLength="6" x="175" y="204.7051"> </text><text fill="#000000" font-family="sans-serif" font-size="20" lengthAdjust="spacing" textLength="19" x="181" y="204.7051">of</text><text fill="#000000" font-family="sans-serif" font-size="20" lengthAdjust="spacing" textLength="6" x="200" y="204.7051"> </text><text fill="#000000" font-family="sans-serif" font-size="20" lengthAdjust="spacing" textLength="12" x="206" y="204.7051">a</text><text fill="#000000" font-family="sans-serif" font-size="20" lengthAdjust="spacing" textLength="100" x="130" y="227.9863">candidate</text><rect fill="none" height="79.8438" style="stroke:#000000;stroke-width:1.5;" width="1351" x="17" y="242.7031"/><path d="M17,242.7031 L95,242.7031 L95,257.7031 L85,267.7031 L17,267.7031 L17,242.7031 " fill="#EEEEEE" style="stroke:#000000;stroke-width:2.0;"/><text fill="#000000" font-family="sans-serif" font-size="20" font-weight="bold" lengthAdjust="spacing" textLength="33" x="30" y="263.2676">ref</text><text fill="#000000" font-family="sans-serif" font-size="20" lengthAdjust="spacing" textLength="174" x="605.5" y="290.2676">List Job Openings</text><text fill="#000000" font-family="sans-serif" font-size="20" lengthAdjust="spacing" textLength="102" x="641.5" y="313.5488">(US 1003)</text><polygon fill="#181818" points="134,422.6719,124,426.6719,134,430.6719,130,426.6719" style="stroke:#181818;stroke-width:1.0;"/><line style="stroke:#181818;stroke-width:1.0;" x1="128" x2="309.5" y1="426.6719" y2="426.6719"/><text fill="#000000" font-family="sans-serif" font-size="20" lengthAdjust="spacing" textLength="65" x="140" y="350.1113">Shows</text><text fill="#000000" font-family="sans-serif" font-size="20" lengthAdjust="spacing" textLength="6" x="205" y="350.1113"> </text><text fill="#000000" font-family="sans-serif" font-size="20" lengthAdjust="spacing" textLength="30" x="211" y="350.1113">list</text><text fill="#000000" font-family="sans-serif" font-size="20" lengthAdjust="spacing" textLength="6" x="241" y="350.1113"> </text><text fill="#000000" font-family="sans-serif" font-size="20" lengthAdjust="spacing" textLength="19" x="247" y="350.1113">of</text><text fill="#000000" font-family="sans-serif" font-size="20" lengthAdjust="spacing" textLength="31" x="140" y="373.3926">Job</text><text fill="#000000" font-family="sans-serif" font-size="20" lengthAdjust="spacing" textLength="6" x="171" y="373.3926"> </text><text fill="#000000" font-family="sans-serif" font-size="20" lengthAdjust="spacing" textLength="96" x="177" y="373.3926">Openings</text><text fill="#000000" font-family="sans-serif" font-size="20" lengthAdjust="spacing" textLength="38" x="140" y="396.6738">and</text><text fill="#000000" font-family="sans-serif" font-size="20" lengthAdjust="spacing" textLength="6" x="178" y="396.6738"> </text><text fill="#000000" font-family="sans-serif" font-size="20" lengthAdjust="spacing" textLength="44" x="184" y="396.6738">asks</text><text fill="#000000" font-family="sans-serif" font-size="20" lengthAdjust="spacing" textLength="6" x="228" y="396.6738"> </text><text fill="#000000" font-family="sans-serif" font-size="20" lengthAdjust="spacing" textLength="20" x="234" y="396.6738">to</text><text fill="#000000" font-family="sans-serif" font-size="20" lengthAdjust="spacing" textLength="59" x="140" y="419.9551">select</text><text fill="#000000" font-family="sans-serif" font-size="20" lengthAdjust="spacing" textLength="6" x="199" y="419.9551"> </text><text fill="#000000" font-family="sans-serif" font-size="20" lengthAdjust="spacing" textLength="37" x="205" y="419.9551">one</text><polygon fill="#181818" points="293.5,483.2344,303.5,487.2344,293.5,491.2344,297.5,487.2344" style="stroke:#181818;stroke-width:1.0;"/><line style="stroke:#181818;stroke-width:1.0;" x1="123" x2="299.5" y1="487.2344" y2="487.2344"/><text fill="#000000" font-family="sans-serif" font-size="20" lengthAdjust="spacing" textLength="72" x="130" y="457.2363">Selects</text><text fill="#000000" font-family="sans-serif" font-size="20" lengthAdjust="spacing" textLength="6" x="202" y="457.2363"> </text><text fill="#000000" font-family="sans-serif" font-size="20" lengthAdjust="spacing" textLength="12" x="208" y="457.2363">a</text><text fill="#000000" font-family="sans-serif" font-size="20" lengthAdjust="spacing" textLength="6" x="220" y="457.2363"> </text><text fill="#000000" font-family="sans-serif" font-size="20" lengthAdjust="spacing" textLength="31" x="226" y="457.2363">Job</text><text fill="#000000" font-family="sans-serif" font-size="20" lengthAdjust="spacing" textLength="86" x="130" y="480.5176">Opening</text><rect fill="none" height="79.8438" style="stroke:#000000;stroke-width:1.5;" width="1351" x="17" y="495.2344"/><path d="M17,495.2344 L95,495.2344 L95,510.2344 L85,520.2344 L17,520.2344 L17,495.2344 " fill="#EEEEEE" style="stroke:#000000;stroke-width:2.0;"/><text fill="#000000" font-family="sans-serif" font-size="20" font-weight="bold" lengthAdjust="spacing" textLength="33" x="30" y="515.7988">ref</text><text fill="#000000" font-family="sans-serif" font-size="20" lengthAdjust="spacing" textLength="394" x="495.5" y="542.7988">Get List of Applications for Job Opening</text><text fill="#000000" font-family="sans-serif" font-size="20" lengthAdjust="spacing" textLength="102" x="641.5" y="566.0801">(US 1005)</text><path d="M10,587.0781 L104,587.0781 L104,602.3594 L94,612.3594 L10,612.3594 L10,587.0781 " fill="#EEEEEE" style="stroke:#000000;stroke-width:1.5;"/><rect fill="none" height="298.0938" style="stroke:#000000;stroke-width:1.5;" width="635" x="10" y="587.0781"/><text fill="#000000" font-family="sans-serif" font-size="20" font-weight="bold" lengthAdjust="spacing" textLength="49" x="25" y="606.6426">loop</text><text fill="#000000" font-family="sans-serif" font-size="20" font-weight="bold" lengthAdjust="spacing" textLength="521" x="119" y="607.6426">[for every application (until CM asks to stop)]</text><polygon fill="#181818" points="134,739.0469,124,743.0469,134,747.0469,130,743.0469" style="stroke:#181818;stroke-width:1.0;"/><line style="stroke:#181818;stroke-width:1.0;stroke-dasharray:2.0,2.0;" x1="128" x2="309.5" y1="743.0469" y2="743.0469"/><text fill="#000000" font-family="sans-serif" font-size="20" lengthAdjust="spacing" textLength="46" x="140" y="643.2051">Asks</text><text fill="#000000" font-family="sans-serif" font-size="20" lengthAdjust="spacing" textLength="6" x="186" y="643.2051"> </text><text fill="#000000" font-family="sans-serif" font-size="20" lengthAdjust="spacing" textLength="20" x="192" y="643.2051">to</text><text fill="#000000" font-family="sans-serif" font-size="20" lengthAdjust="spacing" textLength="6" x="212" y="643.2051"> </text><text fill="#000000" font-family="sans-serif" font-size="20" lengthAdjust="spacing" textLength="59" x="218" y="643.2051">select</text><text fill="#000000" font-family="sans-serif" font-size="20" lengthAdjust="spacing" textLength="112" x="140" y="666.4863">application</text><text fill="#000000" font-family="sans-serif" font-size="20" lengthAdjust="spacing" textLength="6" x="252" y="666.4863"> </text><text fill="#000000" font-family="sans-serif" font-size="20" lengthAdjust="spacing" textLength="27" x="258" y="666.4863">for</text><text fill="#000000" font-family="sans-serif" font-size="20" lengthAdjust="spacing" textLength="33" x="140" y="689.7676">the</text><text fill="#000000" font-family="sans-serif" font-size="20" lengthAdjust="spacing" textLength="6" x="173" y="689.7676"> </text><text fill="#000000" font-family="sans-serif" font-size="20" lengthAdjust="spacing" textLength="45" x="179" y="689.7676">rank</text><text fill="#000000" font-family="sans-serif" font-size="20" lengthAdjust="spacing" textLength="115" x="140" y="713.0488">nº[iteration</text><text fill="#000000" font-family="sans-serif" font-size="20" lengthAdjust="spacing" textLength="6" x="255" y="713.0488"> </text><text fill="#000000" font-family="sans-serif" font-size="20" lengthAdjust="spacing" textLength="19" x="261" y="713.0488">of</text><text fill="#000000" font-family="sans-serif" font-size="20" lengthAdjust="spacing" textLength="33" x="140" y="736.3301">the</text><text fill="#000000" font-family="sans-serif" font-size="20" lengthAdjust="spacing" textLength="6" x="173" y="736.3301"> </text><text fill="#000000" font-family="sans-serif" font-size="20" lengthAdjust="spacing" textLength="51" x="179" y="736.3301">loop]</text><polygon fill="#181818" points="293.5,799.6094,303.5,803.6094,293.5,807.6094,297.5,803.6094" style="stroke:#181818;stroke-width:1.0;"/><line style="stroke:#181818;stroke-width:1.0;" x1="123" x2="299.5" y1="803.6094" y2="803.6094"/><text fill="#000000" font-family="sans-serif" font-size="20" lengthAdjust="spacing" textLength="72" x="130" y="773.6113">Selects</text><text fill="#000000" font-family="sans-serif" font-size="20" lengthAdjust="spacing" textLength="6" x="202" y="773.6113"> </text><text fill="#000000" font-family="sans-serif" font-size="20" lengthAdjust="spacing" textLength="12" x="208" y="773.6113">a</text><text fill="#000000" font-family="sans-serif" font-size="20" lengthAdjust="spacing" textLength="100" x="130" y="796.8926">candidate</text><line style="stroke:#181818;stroke-width:1.0;stroke-dasharray:2.0,2.0;" x1="315.5" x2="357.5" y1="864.1719" y2="864.1719"/><line style="stroke:#181818;stroke-width:1.0;stroke-dasharray:2.0,2.0;" x1="357.5" x2="357.5" y1="864.1719" y2="877.1719"/><line style="stroke:#181818;stroke-width:1.0;stroke-dasharray:2.0,2.0;" x1="316.5" x2="357.5" y1="877.1719" y2="877.1719"/><polygon fill="#181818" points="326.5,873.1719,316.5,877.1719,326.5,881.1719,322.5,877.1719" style="stroke:#181818;stroke-width:1.0;"/><text fill="#000000" font-family="sans-serif" font-size="20" lengthAdjust="spacing" textLength="226" x="322.5" y="834.1738">saveToList(Application</text><text fill="#000000" font-family="sans-serif" font-size="20" lengthAdjust="spacing" textLength="120" x="322.5" y="857.4551">application)</text><path d="M216,899.1719 L310,899.1719 L310,914.4531 L300,924.4531 L216,924.4531 L216,899.1719 " fill="#EEEEEE" style="stroke:#000000;stroke-width:1.5;"/><rect fill="none" height="910.1563" style="stroke:#000000;stroke-width:1.5;" width="1159" x="216" y="899.1719"/><text fill="#000000" font-family="sans-serif" font-size="20" font-weight="bold" lengthAdjust="spacing" textLength="49" x="231" y="918.7363">loop</text><text fill="#000000" font-family="sans-serif" font-size="20" font-weight="bold" lengthAdjust="spacing" textLength="328" x="325" y="919.7363">[for every candidate ranked]</text><polygon fill="#181818" points="543.5,1027.8594,553.5,1031.8594,543.5,1035.8594,547.5,1031.8594" style="stroke:#181818;stroke-width:1.0;"/><line style="stroke:#181818;stroke-width:1.0;stroke-dasharray:2.0,2.0;" x1="315.5" x2="549.5" y1="1031.8594" y2="1031.8594"/><text fill="#000000" font-family="sans-serif" font-size="20" lengthAdjust="spacing" textLength="176" x="322.5" y="955.2988">setupRank(String</text><text fill="#000000" font-family="sans-serif" font-size="20" lengthAdjust="spacing" textLength="45" x="322.5" y="978.5801">rank</text><text fill="#000000" font-family="sans-serif" font-size="20" lengthAdjust="spacing" textLength="114" x="322.5" y="1001.8613">Application</text><text fill="#000000" font-family="sans-serif" font-size="20" lengthAdjust="spacing" textLength="120" x="322.5" y="1025.1426">application)</text><line style="stroke:#181818;stroke-width:1.0;" x1="565.5" x2="612.5" y1="1133.9844" y2="1133.9844"/><line style="stroke:#181818;stroke-width:1.0;" x1="612.5" x2="612.5" y1="1133.9844" y2="1146.9844"/><line style="stroke:#181818;stroke-width:1.0;" x1="571.5" x2="612.5" y1="1146.9844" y2="1146.9844"/><polygon fill="#181818" points="581.5,1142.9844,571.5,1146.9844,581.5,1150.9844,577.5,1146.9844" style="stroke:#181818;stroke-width:1.0;"/><text fill="#000000" font-family="sans-serif" font-size="20" lengthAdjust="spacing" textLength="197" x="577.5" y="1057.4238">registerRank(String</text><text fill="#000000" font-family="sans-serif" font-size="20" lengthAdjust="spacing" textLength="51" x="577.5" y="1080.7051">rank,</text><text fill="#000000" font-family="sans-serif" font-size="20" lengthAdjust="spacing" textLength="114" x="577.5" y="1103.9863">Application</text><text fill="#000000" font-family="sans-serif" font-size="20" lengthAdjust="spacing" textLength="120" x="577.5" y="1127.2676">application)</text><line style="stroke:#181818;stroke-width:1.0;" x1="570.5" x2="617.5" y1="1254.1094" y2="1254.1094"/><line style="stroke:#181818;stroke-width:1.0;" x1="617.5" x2="617.5" y1="1254.1094" y2="1267.1094"/><line style="stroke:#181818;stroke-width:1.0;" x1="576.5" x2="617.5" y1="1267.1094" y2="1267.1094"/><polygon fill="#181818" points="586.5,1263.1094,576.5,1267.1094,586.5,1271.1094,582.5,1267.1094" style="stroke:#181818;stroke-width:1.0;"/><text fill="#000000" font-family="sans-serif" font-size="20" lengthAdjust="spacing" textLength="204" x="582.5" y="1177.5488">doSetupRank(String</text><text fill="#000000" font-family="sans-serif" font-size="20" lengthAdjust="spacing" textLength="51" x="582.5" y="1200.8301">rank,</text><text fill="#000000" font-family="sans-serif" font-size="20" lengthAdjust="spacing" textLength="114" x="582.5" y="1224.1113">Application</text><text fill="#000000" font-family="sans-serif" font-size="20" lengthAdjust="spacing" textLength="120" x="582.5" y="1247.3926">application)</text><polygon fill="#181818" points="776.5,1375.2344,786.5,1379.2344,776.5,1383.2344,780.5,1379.2344" style="stroke:#181818;stroke-width:1.0;"/><line style="stroke:#181818;stroke-width:1.0;" x1="575.5" x2="782.5" y1="1379.2344" y2="1379.2344"/><text fill="#000000" font-family="sans-serif" font-size="20" lengthAdjust="spacing" textLength="183" x="582.5" y="1302.6738">createRank(String</text><text fill="#000000" font-family="sans-serif" font-size="20" lengthAdjust="spacing" textLength="51" x="582.5" y="1325.9551">rank,</text><text fill="#000000" font-family="sans-serif" font-size="20" lengthAdjust="spacing" textLength="114" x="582.5" y="1349.2363">Application</text><text fill="#000000" font-family="sans-serif" font-size="20" lengthAdjust="spacing" textLength="120" x="582.5" y="1372.5176">application)</text><polygon fill="#181818" points="586.5,1412.5156,576.5,1416.5156,586.5,1420.5156,582.5,1416.5156" style="stroke:#181818;stroke-width:1.0;"/><line style="stroke:#181818;stroke-width:1.0;stroke-dasharray:2.0,2.0;" x1="580.5" x2="792.5" y1="1416.5156" y2="1416.5156"/><text fill="#000000" font-family="sans-serif" font-size="20" lengthAdjust="spacing" textLength="45" x="592.5" y="1409.7988">rank</text><line style="stroke:#181818;stroke-width:1.0;stroke-dasharray:2.0,2.0;" x1="575.5" x2="617.5" y1="1458.7969" y2="1458.7969"/><line style="stroke:#181818;stroke-width:1.0;stroke-dasharray:2.0,2.0;" x1="617.5" x2="617.5" y1="1458.7969" y2="1471.7969"/><line style="stroke:#181818;stroke-width:1.0;stroke-dasharray:2.0,2.0;" x1="570.5" x2="617.5" y1="1471.7969" y2="1471.7969"/><polygon fill="#181818" points="580.5,1467.7969,570.5,1471.7969,580.5,1475.7969,576.5,1471.7969" style="stroke:#181818;stroke-width:1.0;"/><text fill="#000000" font-family="sans-serif" font-size="20" lengthAdjust="spacing" textLength="45" x="582.5" y="1452.0801">rank</text><polygon fill="#181818" points="940.5,1523.3594,950.5,1527.3594,940.5,1531.3594,944.5,1527.3594" style="stroke:#181818;stroke-width:1.0;"/><line style="stroke:#181818;stroke-width:1.0;" x1="570.5" x2="946.5" y1="1527.3594" y2="1527.3594"/><text fill="#000000" font-family="sans-serif" font-size="20" lengthAdjust="spacing" textLength="187" x="577.5" y="1497.3613">registerRank(Rank</text><text fill="#000000" font-family="sans-serif" font-size="20" lengthAdjust="spacing" textLength="53" x="577.5" y="1520.6426">rank)</text><polygon fill="#181818" points="1137,1560.6406,1147,1564.6406,1137,1568.6406,1141,1564.6406" style="stroke:#181818;stroke-width:1.0;"/><line style="stroke:#181818;stroke-width:1.0;" x1="962.5" x2="1143" y1="1564.6406" y2="1564.6406"/><text fill="#000000" font-family="sans-serif" font-size="20" lengthAdjust="spacing" textLength="112" x="969.5" y="1557.9238">save(Rank)</text><polygon fill="#181818" points="1298,1597.9219,1308,1601.9219,1298,1605.9219,1302,1601.9219" style="stroke:#181818;stroke-width:1.0;"/><line style="stroke:#181818;stroke-width:1.0;" x1="1159" x2="1304" y1="1601.9219" y2="1601.9219"/><text fill="#000000" font-family="sans-serif" font-size="20" lengthAdjust="spacing" textLength="128" x="1166" y="1595.2051">persist(rank)</text><polygon fill="#181818" points="1170,1635.2031,1160,1639.2031,1170,1643.2031,1166,1639.2031" style="stroke:#181818;stroke-width:1.0;"/><line style="stroke:#181818;stroke-width:1.0;stroke-dasharray:2.0,2.0;" x1="1164" x2="1314" y1="1639.2031" y2="1639.2031"/><text fill="#000000" font-family="sans-serif" font-size="20" lengthAdjust="spacing" textLength="45" x="1176" y="1632.4863">rank</text><polygon fill="#181818" points="973.5,1672.4844,963.5,1676.4844,973.5,1680.4844,969.5,1676.4844" style="stroke:#181818;stroke-width:1.0;"/><line style="stroke:#181818;stroke-width:1.0;stroke-dasharray:2.0,2.0;" x1="967.5" x2="1153" y1="1676.4844" y2="1676.4844"/><text fill="#000000" font-family="sans-serif" font-size="20" lengthAdjust="spacing" textLength="45" x="979.5" y="1669.7676">rank</text><polygon fill="#181818" points="581.5,1709.7656,571.5,1713.7656,581.5,1717.7656,577.5,1713.7656" style="stroke:#181818;stroke-width:1.0;"/><line style="stroke:#181818;stroke-width:1.0;stroke-dasharray:2.0,2.0;" x1="575.5" x2="956.5" y1="1713.7656" y2="1713.7656"/><text fill="#000000" font-family="sans-serif" font-size="20" lengthAdjust="spacing" textLength="45" x="587.5" y="1707.0488">rank</text><line style="stroke:#181818;stroke-width:1.0;stroke-dasharray:2.0,2.0;" x1="570.5" x2="612.5" y1="1756.0469" y2="1756.0469"/><line style="stroke:#181818;stroke-width:1.0;stroke-dasharray:2.0,2.0;" x1="612.5" x2="612.5" y1="1756.0469" y2="1769.0469"/><line style="stroke:#181818;stroke-width:1.0;stroke-dasharray:2.0,2.0;" x1="565.5" x2="612.5" y1="1769.0469" y2="1769.0469"/><polygon fill="#181818" points="575.5,1765.0469,565.5,1769.0469,575.5,1773.0469,571.5,1769.0469" style="stroke:#181818;stroke-width:1.0;"/><text fill="#000000" font-family="sans-serif" font-size="20" lengthAdjust="spacing" textLength="45" x="577.5" y="1749.3301">rank</text><polygon fill="#181818" points="326.5,1797.3281,316.5,1801.3281,326.5,1805.3281,322.5,1801.3281" style="stroke:#181818;stroke-width:1.0;"/><line style="stroke:#181818;stroke-width:1.0;stroke-dasharray:2.0,2.0;" x1="320.5" x2="559.5" y1="1801.3281" y2="1801.3281"/><text fill="#000000" font-family="sans-serif" font-size="20" lengthAdjust="spacing" textLength="45" x="332.5" y="1794.6113">rank</text><polygon fill="#181818" points="129,1888.1719,119,1892.1719,129,1896.1719,125,1892.1719" style="stroke:#181818;stroke-width:1.0;"/><line style="stroke:#181818;stroke-width:1.0;stroke-dasharray:2.0,2.0;" x1="123" x2="304.5" y1="1892.1719" y2="1892.1719"/><text fill="#000000" font-family="sans-serif" font-size="20" lengthAdjust="spacing" textLength="55" x="135" y="1838.8926">Show</text><text fill="#000000" font-family="sans-serif" font-size="20" lengthAdjust="spacing" textLength="96" x="135" y="1862.1738">operation</text><text fill="#000000" font-family="sans-serif" font-size="20" lengthAdjust="spacing" textLength="77" x="135" y="1885.4551">success</text><!--SRC=[dLPDZzCm4BtxLunwwagBr0KjXpqWRHE1Dg829VG47Bp9TDUgQnlRMIW_ZIE_Z77I9cwRx0S-HAqyy-QzDvDftLeemotVI5skiO8ALxoM_hrMlX2_4LxFc1TU8YoBYzdixIsyWYAbHogSaNmB2LULgBX7IBddGD_WsXWfIkw5LewvFJv8eT1l3OAs_bv75nl-QuFEyJjqeUB5vIowTFYZHbNYPswzA8NXoaEjAhG1ZZ5UUcrXajJEwmrQM715E7O2t46oOCn4QPCSxuJpQ7EkrikR9cPvCnwIa0TMIxc7EugaY7ajPBMxpkUdzpaQxGGntBOX-M58PlX0L4PXP2Y_vGvXaku-DLVfd8L3eiL3i9mK0fra0Q_UaHIuWcktTk0rLBls-7i4WzPfnIK4LD0hu53kkzRaTtZa1koEnHNe1t8qdSCvLRY2ZsGCPFeMFXbKGjsvRsgwB82cuirPbnOE4I4wHEeAYdlzqr7dAPFgnidDfF0TMuSIImfHBPyAZnb52eicbl9Zk1V8-82-bKA4uac55GrI1Dcfk-pLIQrD4uS4kGNUfyEqLbx8GBGJvRNfKuCfUrUk3sN7C04yzCpIN83w- -Uhe65ihuXlk0aSle_OD6hLOR_7p8fuDlcEF-0N7SoQHax5V7jzIEqCr1WRCAeht-Z2YiMEX4BeQnDUXMdXBNdVod-qPlyEzCfX1sUZbpX6F8SdPGp07a1NkXZY-WpaHz2x2lcSIfGMAUG_AnnKePK40uUgx8qFo2SnqLmD82JZoL7YW7rvVjoQy6XGpjYmJRG9JyZd0IjhmC9yDY2FU90DO8IJjK1fS3mio33aTX3g02uTjZISjBMrfJPex9578rWDiywl9ngKZLZqZ1OTPRwqhqc_9xg4ay1kAnolmF330DhiTvkhovB-0h0OOC7-0G00]--></g></svg>