<?xml version="1.0" encoding="UTF-8" standalone="no"?><svg xmlns="http://www.w3.org/2000/svg" xmlns:xlink="http://www.w3.org/1999/xlink" contentStyleType="text/css" height="2615px" preserveAspectRatio="none" style="width:2937px;height:2615px;background:#FFFFFF;" version="1.1" viewBox="0 0 2937 2615" width="2937px" zoomAndPan="magnify"><defs/><g><text fill="#000000" font-family="sans-serif" font-size="14" font-weight="bold" lengthAdjust="spacing" textLength="439" x="1246.75" y="27.9951">US1006b - SD - Display Candidate Data and Applications</text><rect fill="#FFFFFF" height="2374.5" style="stroke:#181818;stroke-width:1.0;" width="10" x="113" y="135.5781"/><rect fill="#FFFFFF" height="191.9688" style="stroke:#181818;stroke-width:1.0;" width="10" x="320.5" y="234.7031"/><rect fill="#FFFFFF" height="1016.5625" style="stroke:#181818;stroke-width:1.0;" width="10" x="320.5" y="487.2344"/><rect fill="#FFFFFF" height="914.1563" style="stroke:#181818;stroke-width:1.0;" width="10" x="320.5" y="1604.9219"/><rect fill="#FFFFFF" height="848.875" style="stroke:#181818;stroke-width:1.0;" width="10" x="703.5" y="547.7969"/><rect fill="#FFFFFF" height="549.7813" style="stroke:#181818;stroke-width:1.0;" width="10" x="703.5" y="1876.4531"/><rect fill="#FFFFFF" height="751.0313" style="stroke:#181818;stroke-width:1.0;" width="10" x="1086.5" y="608.3594"/><rect fill="#FFFFFF" height="405.375" style="stroke:#181818;stroke-width:1.0;" width="10" x="1086.5" y="1983.5781"/><rect fill="#FFFFFF" height="456.5" style="stroke:#181818;stroke-width:1.0;" width="10" x="1449.5" y="668.9219"/><rect fill="#FFFFFF" height="358.6563" style="stroke:#181818;stroke-width:1.0;" width="10" x="1812.5" y="729.4844"/><rect fill="#FFFFFF" height="111.8438" style="stroke:#181818;stroke-width:1.0;" width="10" x="2013.5" y="1203.2656"/><rect fill="#FFFFFF" height="37.2813" style="stroke:#181818;stroke-width:1.0;" width="10" x="2193.5" y="1240.5469"/><rect fill="#FFFFFF" height="37.2813" style="stroke:#181818;stroke-width:1.0;" width="10" x="2352" y="2090.7031"/><rect fill="#FFFFFF" height="186.4063" style="stroke:#181818;stroke-width:1.0;" width="10" x="2516" y="2165.2656"/><rect fill="#FFFFFF" height="111.8438" style="stroke:#181818;stroke-width:1.0;" width="10" x="2712.5" y="2202.5469"/><rect fill="#FFFFFF" height="97.8438" style="stroke:#181818;stroke-width:1.0;" width="10" x="2873.5" y="953.0156"/><rect fill="#FFFFFF" height="37.2813" style="stroke:#181818;stroke-width:1.0;" width="10" x="2873.5" y="2239.8281"/><rect fill="none" height="182.6875" style="stroke:#000000;stroke-width:1.5;" width="1332.5" x="956" y="1140.4219"/><rect fill="none" height="251.5313" style="stroke:#000000;stroke-width:1.5;" width="597.5" x="10" y="1518.7969"/><line style="stroke:#181818;stroke-width:0.5;stroke-dasharray:5.0,5.0;" x1="118" x2="118" y1="125.5781" y2="2528.0781"/><line style="stroke:#181818;stroke-width:0.5;stroke-dasharray:5.0,5.0;" x1="325" x2="325" y1="125.5781" y2="2528.0781"/><line style="stroke:#181818;stroke-width:0.5;stroke-dasharray:5.0,5.0;" x1="708" x2="708" y1="125.5781" y2="2528.0781"/><line style="stroke:#181818;stroke-width:0.5;stroke-dasharray:5.0,5.0;" x1="1091" x2="1091" y1="125.5781" y2="2528.0781"/><line style="stroke:#181818;stroke-width:0.5;stroke-dasharray:5.0,5.0;" x1="1454.5" x2="1454.5" y1="125.5781" y2="2528.0781"/><line style="stroke:#181818;stroke-width:0.5;stroke-dasharray:5.0,5.0;" x1="1817" x2="1817" y1="125.5781" y2="2528.0781"/><line style="stroke:#181818;stroke-width:0.5;stroke-dasharray:5.0,5.0;" x1="2018" x2="2018" y1="125.5781" y2="2528.0781"/><line style="stroke:#181818;stroke-width:0.5;stroke-dasharray:5.0,5.0;" x1="2198.5" x2="2198.5" y1="125.5781" y2="2528.0781"/><line style="stroke:#181818;stroke-width:0.5;stroke-dasharray:5.0,5.0;" x1="2356.5" x2="2356.5" y1="125.5781" y2="2528.0781"/><line style="stroke:#181818;stroke-width:0.5;stroke-dasharray:5.0,5.0;" x1="2520.5" x2="2520.5" y1="125.5781" y2="2528.0781"/><line style="stroke:#181818;stroke-width:0.5;stroke-dasharray:5.0,5.0;" x1="2717.5" x2="2717.5" y1="125.5781" y2="2528.0781"/><line style="stroke:#181818;stroke-width:0.5;stroke-dasharray:5.0,5.0;" x1="2878.5" x2="2878.5" y1="125.5781" y2="2528.0781"/><text fill="#000000" font-family="sans-serif" font-size="20" lengthAdjust="spacing" text-decoration="underline" textLength="190" x="20" y="120.8613">Customer Manager</text><ellipse cx="118" cy="50.7969" fill="#E2E2F0" rx="8" ry="8" style="stroke:#181818;stroke-width:0.5;"/><path d="M118,58.7969 L118,85.7969 M105,66.7969 L131,66.7969 M118,85.7969 L105,100.7969 M118,85.7969 L131,100.7969 " fill="none" style="stroke:#181818;stroke-width:0.5;"/><text fill="#000000" font-family="sans-serif" font-size="20" lengthAdjust="spacing" text-decoration="underline" textLength="190" x="20" y="2545.6426">Customer Manager</text><ellipse cx="118" cy="2558.8594" fill="#E2E2F0" rx="8" ry="8" style="stroke:#181818;stroke-width:0.5;"/><path d="M118,2566.8594 L118,2593.8594 M105,2574.8594 L131,2574.8594 M118,2593.8594 L105,2608.8594 M118,2593.8594 L131,2608.8594 " fill="none" style="stroke:#181818;stroke-width:0.5;"/><rect fill="#E2E2F0" height="37.2813" rx="2.5" ry="2.5" style="stroke:#181818;stroke-width:0.5;" width="199" x="226" y="87.2969"/><text fill="#000000" font-family="sans-serif" font-size="20" lengthAdjust="spacing" text-decoration="underline" textLength="185" x="233" y="112.8613">RankCandidatesUI</text><rect fill="#E2E2F0" height="37.2813" rx="2.5" ry="2.5" style="stroke:#181818;stroke-width:0.5;" width="199" x="226" y="2527.0781"/><text fill="#000000" font-family="sans-serif" font-size="20" lengthAdjust="spacing" text-decoration="underline" textLength="185" x="233" y="2552.6426">RankCandidatesUI</text><rect fill="#E2E2F0" height="37.2813" rx="2.5" ry="2.5" style="stroke:#181818;stroke-width:0.5;" width="277" x="570" y="87.2969"/><text fill="#000000" font-family="sans-serif" font-size="20" lengthAdjust="spacing" text-decoration="underline" textLength="263" x="577" y="112.8613">RankCandidatesController</text><rect fill="#E2E2F0" height="37.2813" rx="2.5" ry="2.5" style="stroke:#181818;stroke-width:0.5;" width="277" x="570" y="2527.0781"/><text fill="#000000" font-family="sans-serif" font-size="20" lengthAdjust="spacing" text-decoration="underline" textLength="263" x="577" y="2552.6426">RankCandidatesController</text><rect fill="#E2E2F0" height="37.2813" rx="2.5" ry="2.5" style="stroke:#181818;stroke-width:0.5;" width="251" x="966" y="87.2969"/><text fill="#000000" font-family="sans-serif" font-size="20" lengthAdjust="spacing" text-decoration="underline" textLength="237" x="973" y="112.8613">RankCandidatesService</text><rect fill="#E2E2F0" height="37.2813" rx="2.5" ry="2.5" style="stroke:#181818;stroke-width:0.5;" width="251" x="966" y="2527.0781"/><text fill="#000000" font-family="sans-serif" font-size="20" lengthAdjust="spacing" text-decoration="underline" textLength="237" x="973" y="2552.6426">RankCandidatesService</text><rect fill="#E2E2F0" height="37.2813" rx="2.5" ry="2.5" style="stroke:#181818;stroke-width:0.5;" width="234" x="1337.5" y="87.2969"/><text fill="#000000" font-family="sans-serif" font-size="20" lengthAdjust="spacing" text-decoration="underline" textLength="220" x="1344.5" y="112.8613">ApplicationRepository</text><rect fill="#E2E2F0" height="37.2813" rx="2.5" ry="2.5" style="stroke:#181818;stroke-width:0.5;" width="234" x="1337.5" y="2527.0781"/><text fill="#000000" font-family="sans-serif" font-size="20" lengthAdjust="spacing" text-decoration="underline" textLength="220" x="1344.5" y="2552.6426">ApplicationRepository</text><rect fill="#E2E2F0" height="37.2813" rx="2.5" ry="2.5" style="stroke:#181818;stroke-width:0.5;" width="265" x="1685" y="87.2969"/><text fill="#000000" font-family="sans-serif" font-size="20" lengthAdjust="spacing" text-decoration="underline" textLength="251" x="1692" y="112.8613">JpaApplicationRepository</text><rect fill="#E2E2F0" height="37.2813" rx="2.5" ry="2.5" style="stroke:#181818;stroke-width:0.5;" width="265" x="1685" y="2527.0781"/><text fill="#000000" font-family="sans-serif" font-size="20" lengthAdjust="spacing" text-decoration="underline" textLength="251" x="1692" y="2552.6426">JpaApplicationRepository</text><rect fill="#E2E2F0" height="37.2813" rx="2.5" ry="2.5" style="stroke:#181818;stroke-width:0.5;" width="117" x="1960" y="87.2969"/><text fill="#000000" font-family="sans-serif" font-size="20" lengthAdjust="spacing" text-decoration="underline" textLength="103" x="1967" y="112.8613">Candidate</text><rect fill="#E2E2F0" height="37.2813" rx="2.5" ry="2.5" style="stroke:#181818;stroke-width:0.5;" width="117" x="1960" y="2527.0781"/><text fill="#000000" font-family="sans-serif" font-size="20" lengthAdjust="spacing" text-decoration="underline" textLength="103" x="1967" y="2552.6426">Candidate</text><rect fill="#E2E2F0" height="37.2813" rx="2.5" ry="2.5" style="stroke:#181818;stroke-width:0.5;" width="160" x="2118.5" y="87.2969"/><text fill="#000000" font-family="sans-serif" font-size="20" lengthAdjust="spacing" text-decoration="underline" textLength="146" x="2125.5" y="112.8613">CandidateDTO</text><rect fill="#E2E2F0" height="37.2813" rx="2.5" ry="2.5" style="stroke:#181818;stroke-width:0.5;" width="160" x="2118.5" y="2527.0781"/><text fill="#000000" font-family="sans-serif" font-size="20" lengthAdjust="spacing" text-decoration="underline" textLength="146" x="2125.5" y="2552.6426">CandidateDTO</text><rect fill="#E2E2F0" height="37.2813" rx="2.5" ry="2.5" style="stroke:#181818;stroke-width:0.5;" width="137" x="2288.5" y="87.2969"/><text fill="#000000" font-family="sans-serif" font-size="20" lengthAdjust="spacing" text-decoration="underline" textLength="123" x="2295.5" y="112.8613">RankBuilder</text><rect fill="#E2E2F0" height="37.2813" rx="2.5" ry="2.5" style="stroke:#181818;stroke-width:0.5;" width="137" x="2288.5" y="2527.0781"/><text fill="#000000" font-family="sans-serif" font-size="20" lengthAdjust="spacing" text-decoration="underline" textLength="123" x="2295.5" y="2552.6426">RankBuilder</text><rect fill="#E2E2F0" height="37.2813" rx="2.5" ry="2.5" style="stroke:#181818;stroke-width:0.5;" width="171" x="2435.5" y="87.2969"/><text fill="#000000" font-family="sans-serif" font-size="20" lengthAdjust="spacing" text-decoration="underline" textLength="157" x="2442.5" y="112.8613">RankRepository</text><rect fill="#E2E2F0" height="37.2813" rx="2.5" ry="2.5" style="stroke:#181818;stroke-width:0.5;" width="171" x="2435.5" y="2527.0781"/><text fill="#000000" font-family="sans-serif" font-size="20" lengthAdjust="spacing" text-decoration="underline" textLength="157" x="2442.5" y="2552.6426">RankRepository</text><rect fill="#E2E2F0" height="37.2813" rx="2.5" ry="2.5" style="stroke:#181818;stroke-width:0.5;" width="202" x="2616.5" y="87.2969"/><text fill="#000000" font-family="sans-serif" font-size="20" lengthAdjust="spacing" text-decoration="underline" textLength="188" x="2623.5" y="112.8613">JpaRankRepository</text><rect fill="#E2E2F0" height="37.2813" rx="2.5" ry="2.5" style="stroke:#181818;stroke-width:0.5;" width="202" x="2616.5" y="2527.0781"/><text fill="#000000" font-family="sans-serif" font-size="20" lengthAdjust="spacing" text-decoration="underline" textLength="188" x="2623.5" y="2552.6426">JpaRankRepository</text><text fill="#000000" font-family="sans-serif" font-size="20" lengthAdjust="spacing" text-decoration="underline" textLength="94" x="2828.5" y="120.8613">Database</text><path d="M2860.5,66.2969 C2860.5,56.2969 2878.5,56.2969 2878.5,56.2969 C2878.5,56.2969 2896.5,56.2969 2896.5,66.2969 L2896.5,92.2969 C2896.5,102.2969 2878.5,102.2969 2878.5,102.2969 C2878.5,102.2969 2860.5,102.2969 2860.5,92.2969 L2860.5,66.2969 " fill="#E2E2F0" style="stroke:#181818;stroke-width:1.5;"/><path d="M2860.5,66.2969 C2860.5,76.2969 2878.5,76.2969 2878.5,76.2969 C2878.5,76.2969 2896.5,76.2969 2896.5,66.2969 " fill="none" style="stroke:#181818;stroke-width:1.5;"/><text fill="#000000" font-family="sans-serif" font-size="20" lengthAdjust="spacing" text-decoration="underline" textLength="94" x="2828.5" y="2545.6426">Database</text><path d="M2860.5,2560.3594 C2860.5,2550.3594 2878.5,2550.3594 2878.5,2550.3594 C2878.5,2550.3594 2896.5,2550.3594 2896.5,2560.3594 L2896.5,2586.3594 C2896.5,2596.3594 2878.5,2596.3594 2878.5,2596.3594 C2878.5,2596.3594 2860.5,2596.3594 2860.5,2586.3594 L2860.5,2560.3594 " fill="#E2E2F0" style="stroke:#181818;stroke-width:1.5;"/><path d="M2860.5,2560.3594 C2860.5,2570.3594 2878.5,2570.3594 2878.5,2570.3594 C2878.5,2570.3594 2896.5,2570.3594 2896.5,2560.3594 " fill="none" style="stroke:#181818;stroke-width:1.5;"/><rect fill="#FFFFFF" height="2374.5" style="stroke:#181818;stroke-width:1.0;" width="10" x="113" y="135.5781"/><rect fill="#FFFFFF" height="191.9688" style="stroke:#181818;stroke-width:1.0;" width="10" x="320.5" y="234.7031"/><rect fill="#FFFFFF" height="1016.5625" style="stroke:#181818;stroke-width:1.0;" width="10" x="320.5" y="487.2344"/><rect fill="#FFFFFF" height="914.1563" style="stroke:#181818;stroke-width:1.0;" width="10" x="320.5" y="1604.9219"/><rect fill="#FFFFFF" height="848.875" style="stroke:#181818;stroke-width:1.0;" width="10" x="703.5" y="547.7969"/><rect fill="#FFFFFF" height="549.7813" style="stroke:#181818;stroke-width:1.0;" width="10" x="703.5" y="1876.4531"/><rect fill="#FFFFFF" height="751.0313" style="stroke:#181818;stroke-width:1.0;" width="10" x="1086.5" y="608.3594"/><rect fill="#FFFFFF" height="405.375" style="stroke:#181818;stroke-width:1.0;" width="10" x="1086.5" y="1983.5781"/><rect fill="#FFFFFF" height="456.5" style="stroke:#181818;stroke-width:1.0;" width="10" x="1449.5" y="668.9219"/><rect fill="#FFFFFF" height="358.6563" style="stroke:#181818;stroke-width:1.0;" width="10" x="1812.5" y="729.4844"/><rect fill="#FFFFFF" height="111.8438" style="stroke:#181818;stroke-width:1.0;" width="10" x="2013.5" y="1203.2656"/><rect fill="#FFFFFF" height="37.2813" style="stroke:#181818;stroke-width:1.0;" width="10" x="2193.5" y="1240.5469"/><rect fill="#FFFFFF" height="37.2813" style="stroke:#181818;stroke-width:1.0;" width="10" x="2352" y="2090.7031"/><rect fill="#FFFFFF" height="186.4063" style="stroke:#181818;stroke-width:1.0;" width="10" x="2516" y="2165.2656"/><rect fill="#FFFFFF" height="111.8438" style="stroke:#181818;stroke-width:1.0;" width="10" x="2712.5" y="2202.5469"/><rect fill="#FFFFFF" height="97.8438" style="stroke:#181818;stroke-width:1.0;" width="10" x="2873.5" y="953.0156"/><rect fill="#FFFFFF" height="37.2813" style="stroke:#181818;stroke-width:1.0;" width="10" x="2873.5" y="2239.8281"/><polygon fill="#181818" points="308.5,230.7031,318.5,234.7031,308.5,238.7031,312.5,234.7031" style="stroke:#181818;stroke-width:1.0;"/><line style="stroke:#181818;stroke-width:1.0;" x1="123" x2="314.5" y1="234.7031" y2="234.7031"/><text fill="#000000" font-family="sans-serif" font-size="20" lengthAdjust="spacing" textLength="46" x="130" y="158.1426">Asks</text><text fill="#000000" font-family="sans-serif" font-size="20" lengthAdjust="spacing" textLength="6" x="176" y="158.1426"> </text><text fill="#000000" font-family="sans-serif" font-size="20" lengthAdjust="spacing" textLength="20" x="182" y="158.1426">to</text><text fill="#000000" font-family="sans-serif" font-size="20" lengthAdjust="spacing" textLength="6" x="202" y="158.1426"> </text><text fill="#000000" font-family="sans-serif" font-size="20" lengthAdjust="spacing" textLength="71" x="208" y="158.1426">display</text><text fill="#000000" font-family="sans-serif" font-size="20" lengthAdjust="spacing" textLength="33" x="130" y="181.4238">the</text><text fill="#000000" font-family="sans-serif" font-size="20" lengthAdjust="spacing" textLength="6" x="163" y="181.4238"> </text><text fill="#000000" font-family="sans-serif" font-size="20" lengthAdjust="spacing" textLength="86" x="169" y="181.4238">personal</text><text fill="#000000" font-family="sans-serif" font-size="20" lengthAdjust="spacing" textLength="45" x="130" y="204.7051">data</text><text fill="#000000" font-family="sans-serif" font-size="20" lengthAdjust="spacing" textLength="6" x="175" y="204.7051"> </text><text fill="#000000" font-family="sans-serif" font-size="20" lengthAdjust="spacing" textLength="19" x="181" y="204.7051">of</text><text fill="#000000" font-family="sans-serif" font-size="20" lengthAdjust="spacing" textLength="6" x="200" y="204.7051"> </text><text fill="#000000" font-family="sans-serif" font-size="20" lengthAdjust="spacing" textLength="12" x="206" y="204.7051">a</text><text fill="#000000" font-family="sans-serif" font-size="20" lengthAdjust="spacing" textLength="100" x="130" y="227.9863">candidate</text><rect fill="none" height="79.8438" style="stroke:#000000;stroke-width:1.5;" width="2914.5" x="17" y="242.7031"/><path d="M17,242.7031 L95,242.7031 L95,257.7031 L85,267.7031 L17,267.7031 L17,242.7031 " fill="#EEEEEE" style="stroke:#000000;stroke-width:2.0;"/><text fill="#000000" font-family="sans-serif" font-size="20" font-weight="bold" lengthAdjust="spacing" textLength="33" x="30" y="263.2676">ref</text><text fill="#000000" font-family="sans-serif" font-size="20" lengthAdjust="spacing" textLength="174" x="1387.25" y="290.2676">List Job Openings</text><text fill="#000000" font-family="sans-serif" font-size="20" lengthAdjust="spacing" textLength="102" x="1423.25" y="313.5488">(US 1003)</text><polygon fill="#181818" points="134,422.6719,124,426.6719,134,430.6719,130,426.6719" style="stroke:#181818;stroke-width:1.0;"/><line style="stroke:#181818;stroke-width:1.0;" x1="128" x2="324.5" y1="426.6719" y2="426.6719"/><text fill="#000000" font-family="sans-serif" font-size="20" lengthAdjust="spacing" textLength="65" x="140" y="350.1113">Shows</text><text fill="#000000" font-family="sans-serif" font-size="20" lengthAdjust="spacing" textLength="6" x="205" y="350.1113"> </text><text fill="#000000" font-family="sans-serif" font-size="20" lengthAdjust="spacing" textLength="30" x="211" y="350.1113">list</text><text fill="#000000" font-family="sans-serif" font-size="20" lengthAdjust="spacing" textLength="6" x="241" y="350.1113"> </text><text fill="#000000" font-family="sans-serif" font-size="20" lengthAdjust="spacing" textLength="19" x="247" y="350.1113">of</text><text fill="#000000" font-family="sans-serif" font-size="20" lengthAdjust="spacing" textLength="31" x="140" y="373.3926">Job</text><text fill="#000000" font-family="sans-serif" font-size="20" lengthAdjust="spacing" textLength="6" x="171" y="373.3926"> </text><text fill="#000000" font-family="sans-serif" font-size="20" lengthAdjust="spacing" textLength="96" x="177" y="373.3926">Openings</text><text fill="#000000" font-family="sans-serif" font-size="20" lengthAdjust="spacing" textLength="38" x="140" y="396.6738">and</text><text fill="#000000" font-family="sans-serif" font-size="20" lengthAdjust="spacing" textLength="6" x="178" y="396.6738"> </text><text fill="#000000" font-family="sans-serif" font-size="20" lengthAdjust="spacing" textLength="44" x="184" y="396.6738">asks</text><text fill="#000000" font-family="sans-serif" font-size="20" lengthAdjust="spacing" textLength="6" x="228" y="396.6738"> </text><text fill="#000000" font-family="sans-serif" font-size="20" lengthAdjust="spacing" textLength="20" x="234" y="396.6738">to</text><text fill="#000000" font-family="sans-serif" font-size="20" lengthAdjust="spacing" textLength="59" x="140" y="419.9551">select</text><text fill="#000000" font-family="sans-serif" font-size="20" lengthAdjust="spacing" textLength="6" x="199" y="419.9551"> </text><text fill="#000000" font-family="sans-serif" font-size="20" lengthAdjust="spacing" textLength="37" x="205" y="419.9551">one</text><polygon fill="#181818" points="308.5,483.2344,318.5,487.2344,308.5,491.2344,312.5,487.2344" style="stroke:#181818;stroke-width:1.0;"/><line style="stroke:#181818;stroke-width:1.0;" x1="123" x2="314.5" y1="487.2344" y2="487.2344"/><text fill="#000000" font-family="sans-serif" font-size="20" lengthAdjust="spacing" textLength="72" x="130" y="457.2363">Selects</text><text fill="#000000" font-family="sans-serif" font-size="20" lengthAdjust="spacing" textLength="6" x="202" y="457.2363"> </text><text fill="#000000" font-family="sans-serif" font-size="20" lengthAdjust="spacing" textLength="12" x="208" y="457.2363">a</text><text fill="#000000" font-family="sans-serif" font-size="20" lengthAdjust="spacing" textLength="6" x="220" y="457.2363"> </text><text fill="#000000" font-family="sans-serif" font-size="20" lengthAdjust="spacing" textLength="31" x="226" y="457.2363">Job</text><text fill="#000000" font-family="sans-serif" font-size="20" lengthAdjust="spacing" textLength="86" x="130" y="480.5176">Opening</text><polygon fill="#181818" points="691.5,543.7969,701.5,547.7969,691.5,551.7969,695.5,547.7969" style="stroke:#181818;stroke-width:1.0;"/><line style="stroke:#181818;stroke-width:1.0;stroke-dasharray:2.0,2.0;" x1="330.5" x2="697.5" y1="547.7969" y2="547.7969"/><text fill="#000000" font-family="sans-serif" font-size="20" lengthAdjust="spacing" textLength="334" x="337.5" y="517.7988">getCandidatesForJob(JobOpening</text><text fill="#000000" font-family="sans-serif" font-size="20" lengthAdjust="spacing" textLength="125" x="337.5" y="541.0801">jobOpening)</text><polygon fill="#181818" points="1074.5,604.3594,1084.5,608.3594,1074.5,612.3594,1078.5,608.3594" style="stroke:#181818;stroke-width:1.0;"/><line style="stroke:#181818;stroke-width:1.0;" x1="713.5" x2="1080.5" y1="608.3594" y2="608.3594"/><text fill="#000000" font-family="sans-serif" font-size="20" lengthAdjust="spacing" textLength="334" x="720.5" y="578.3613">getCandidatesForJob(JobOpening</text><text fill="#000000" font-family="sans-serif" font-size="20" lengthAdjust="spacing" textLength="125" x="720.5" y="601.6426">jobOpening)</text><polygon fill="#181818" points="1437.5,664.9219,1447.5,668.9219,1437.5,672.9219,1441.5,668.9219" style="stroke:#181818;stroke-width:1.0;"/><line style="stroke:#181818;stroke-width:1.0;" x1="1096.5" x2="1443.5" y1="668.9219" y2="668.9219"/><text fill="#000000" font-family="sans-serif" font-size="20" lengthAdjust="spacing" textLength="334" x="1103.5" y="638.9238">getCandidatesForJob(JobOpening</text><text fill="#000000" font-family="sans-serif" font-size="20" lengthAdjust="spacing" textLength="125" x="1103.5" y="662.2051">jobOpening)</text><polygon fill="#181818" points="1800.5,725.4844,1810.5,729.4844,1800.5,733.4844,1804.5,729.4844" style="stroke:#181818;stroke-width:1.0;"/><line style="stroke:#181818;stroke-width:1.0;" x1="1459.5" x2="1806.5" y1="729.4844" y2="729.4844"/><text fill="#000000" font-family="sans-serif" font-size="20" lengthAdjust="spacing" textLength="334" x="1466.5" y="699.4863">getCandidatesForJob(JobOpening</text><text fill="#000000" font-family="sans-serif" font-size="20" lengthAdjust="spacing" textLength="125" x="1466.5" y="722.7676">jobOpening)</text><polygon fill="#181818" points="2861.5,949.0156,2871.5,953.0156,2861.5,957.0156,2865.5,953.0156" style="stroke:#181818;stroke-width:1.0;"/><line style="stroke:#181818;stroke-width:1.0;" x1="1822.5" x2="2867.5" y1="953.0156" y2="953.0156"/><text fill="#000000" font-family="sans-serif" font-size="20" lengthAdjust="spacing" textLength="207" x="1829.5" y="760.0488">createQuery(SELECT</text><text fill="#000000" font-family="sans-serif" font-size="20" lengthAdjust="spacing" textLength="121" x="1829.5" y="783.3301">a.Candidate</text><text fill="#000000" font-family="sans-serif" font-size="20" lengthAdjust="spacing" textLength="59" x="1829.5" y="806.6113">FROM</text><text fill="#000000" font-family="sans-serif" font-size="20" lengthAdjust="spacing" textLength="114" x="1829.5" y="829.8926">Application</text><text fill="#000000" font-family="sans-serif" font-size="20" lengthAdjust="spacing" textLength="6" x="1943.5" y="829.8926"> </text><text fill="#000000" font-family="sans-serif" font-size="20" lengthAdjust="spacing" textLength="12" x="1949.5" y="829.8926">a</text><text fill="#000000" font-family="sans-serif" font-size="20" lengthAdjust="spacing" textLength="75" x="1829.5" y="853.1738">WHERE</text><text fill="#000000" font-family="sans-serif" font-size="20" lengthAdjust="spacing" textLength="135" x="1829.5" y="876.4551">a.jobOpening</text><text fill="#000000" font-family="sans-serif" font-size="20" lengthAdjust="spacing" textLength="17" x="1829.5" y="899.7363">=</text><text fill="#000000" font-family="sans-serif" font-size="20" lengthAdjust="spacing" textLength="140" x="1829.5" y="923.0176">:jobOpening",</text><text fill="#000000" font-family="sans-serif" font-size="20" lengthAdjust="spacing" textLength="163" x="1829.5" y="946.2988">candidate.class)</text><polygon fill="#181818" points="2861.5,1009.5781,2871.5,1013.5781,2861.5,1017.5781,2865.5,1013.5781" style="stroke:#181818;stroke-width:1.0;"/><line style="stroke:#181818;stroke-width:1.0;" x1="1822.5" x2="2867.5" y1="1013.5781" y2="1013.5781"/><text fill="#000000" font-family="sans-serif" font-size="20" lengthAdjust="spacing" textLength="285" x="1829.5" y="983.5801">setParameter("jobOpening",</text><text fill="#000000" font-family="sans-serif" font-size="20" lengthAdjust="spacing" textLength="125" x="1829.5" y="1006.8613">jobOpening)</text><polygon fill="#181818" points="1833.5,1046.8594,1823.5,1050.8594,1833.5,1054.8594,1829.5,1050.8594" style="stroke:#181818;stroke-width:1.0;"/><line style="stroke:#181818;stroke-width:1.0;stroke-dasharray:2.0,2.0;" x1="1827.5" x2="2877.5" y1="1050.8594" y2="1050.8594"/><text fill="#000000" font-family="sans-serif" font-size="20" lengthAdjust="spacing" textLength="214" x="1839.5" y="1044.1426">Iterable&lt;Candidate&gt;</text><polygon fill="#181818" points="1470.5,1084.1406,1460.5,1088.1406,1470.5,1092.1406,1466.5,1088.1406" style="stroke:#181818;stroke-width:1.0;"/><line style="stroke:#181818;stroke-width:1.0;stroke-dasharray:2.0,2.0;" x1="1464.5" x2="1816.5" y1="1088.1406" y2="1088.1406"/><text fill="#000000" font-family="sans-serif" font-size="20" lengthAdjust="spacing" textLength="214" x="1476.5" y="1081.4238">Iterable&lt;Candidate&gt;</text><polygon fill="#181818" points="1107.5,1121.4219,1097.5,1125.4219,1107.5,1129.4219,1103.5,1125.4219" style="stroke:#181818;stroke-width:1.0;"/><line style="stroke:#181818;stroke-width:1.0;stroke-dasharray:2.0,2.0;" x1="1101.5" x2="1453.5" y1="1125.4219" y2="1125.4219"/><text fill="#000000" font-family="sans-serif" font-size="20" lengthAdjust="spacing" textLength="214" x="1113.5" y="1118.7051">Iterable&lt;Candidate&gt;</text><path d="M956,1140.4219 L1050,1140.4219 L1050,1155.7031 L1040,1165.7031 L956,1165.7031 L956,1140.4219 " fill="#EEEEEE" style="stroke:#000000;stroke-width:1.5;"/><rect fill="none" height="182.6875" style="stroke:#000000;stroke-width:1.5;" width="1332.5" x="956" y="1140.4219"/><text fill="#000000" font-family="sans-serif" font-size="20" font-weight="bold" lengthAdjust="spacing" textLength="49" x="971" y="1159.9863">loop</text><text fill="#000000" font-family="sans-serif" font-size="20" font-weight="bold" lengthAdjust="spacing" textLength="235" x="1065" y="1160.9863">[for each Candidate]</text><polygon fill="#181818" points="2001.5,1199.2656,2011.5,1203.2656,2001.5,1207.2656,2005.5,1203.2656" style="stroke:#181818;stroke-width:1.0;"/><line style="stroke:#181818;stroke-width:1.0;" x1="1096.5" x2="2007.5" y1="1203.2656" y2="1203.2656"/><text fill="#000000" font-family="sans-serif" font-size="20" lengthAdjust="spacing" textLength="79" x="1103.5" y="1196.5488">toDTO()</text><polygon fill="#181818" points="2181.5,1236.5469,2191.5,1240.5469,2181.5,1244.5469,2185.5,1240.5469" style="stroke:#181818;stroke-width:1.0;"/><line style="stroke:#181818;stroke-width:1.0;stroke-dasharray:2.0,2.0;" x1="2023.5" x2="2187.5" y1="1240.5469" y2="1240.5469"/><text fill="#000000" font-family="sans-serif" font-size="20" lengthAdjust="spacing" textLength="63" x="2030.5" y="1233.8301">create</text><polygon fill="#181818" points="2034.5,1273.8281,2024.5,1277.8281,2034.5,1281.8281,2030.5,1277.8281" style="stroke:#181818;stroke-width:1.0;"/><line style="stroke:#181818;stroke-width:1.0;stroke-dasharray:2.0,2.0;" x1="2028.5" x2="2197.5" y1="1277.8281" y2="1277.8281"/><text fill="#000000" font-family="sans-serif" font-size="20" lengthAdjust="spacing" textLength="146" x="2040.5" y="1271.1113">CandidateDTO</text><polygon fill="#181818" points="1107.5,1311.1094,1097.5,1315.1094,1107.5,1319.1094,1103.5,1315.1094" style="stroke:#181818;stroke-width:1.0;"/><line style="stroke:#181818;stroke-width:1.0;stroke-dasharray:2.0,2.0;" x1="1101.5" x2="2017.5" y1="1315.1094" y2="1315.1094"/><text fill="#000000" font-family="sans-serif" font-size="20" lengthAdjust="spacing" textLength="146" x="1113.5" y="1308.3926">CandidateDTO</text><polygon fill="#181818" points="724.5,1355.3906,714.5,1359.3906,724.5,1363.3906,720.5,1359.3906" style="stroke:#181818;stroke-width:1.0;"/><line style="stroke:#181818;stroke-width:1.0;stroke-dasharray:2.0,2.0;" x1="718.5" x2="1090.5" y1="1359.3906" y2="1359.3906"/><text fill="#000000" font-family="sans-serif" font-size="20" lengthAdjust="spacing" textLength="257" x="730.5" y="1352.6738">Iterable&lt;CandidateDTO&gt;</text><polygon fill="#181818" points="341.5,1392.6719,331.5,1396.6719,341.5,1400.6719,337.5,1396.6719" style="stroke:#181818;stroke-width:1.0;"/><line style="stroke:#181818;stroke-width:1.0;stroke-dasharray:2.0,2.0;" x1="335.5" x2="707.5" y1="1396.6719" y2="1396.6719"/><text fill="#000000" font-family="sans-serif" font-size="20" lengthAdjust="spacing" textLength="257" x="347.5" y="1389.9551">Iterable&lt;CandidateDTO&gt;</text><polygon fill="#181818" points="134,1499.7969,124,1503.7969,134,1507.7969,130,1503.7969" style="stroke:#181818;stroke-width:1.0;"/><line style="stroke:#181818;stroke-width:1.0;stroke-dasharray:2.0,2.0;" x1="128" x2="324.5" y1="1503.7969" y2="1503.7969"/><text fill="#000000" font-family="sans-serif" font-size="20" lengthAdjust="spacing" textLength="83" x="140" y="1427.2363">Displays</text><text fill="#000000" font-family="sans-serif" font-size="20" lengthAdjust="spacing" textLength="103" x="140" y="1450.5176">Candidate</text><text fill="#000000" font-family="sans-serif" font-size="20" lengthAdjust="spacing" textLength="6" x="243" y="1450.5176"> </text><text fill="#000000" font-family="sans-serif" font-size="20" lengthAdjust="spacing" textLength="35" x="249" y="1450.5176">List</text><text fill="#000000" font-family="sans-serif" font-size="20" lengthAdjust="spacing" textLength="38" x="140" y="1473.7988">and</text><text fill="#000000" font-family="sans-serif" font-size="20" lengthAdjust="spacing" textLength="6" x="178" y="1473.7988"> </text><text fill="#000000" font-family="sans-serif" font-size="20" lengthAdjust="spacing" textLength="44" x="184" y="1473.7988">asks</text><text fill="#000000" font-family="sans-serif" font-size="20" lengthAdjust="spacing" textLength="6" x="228" y="1473.7988"> </text><text fill="#000000" font-family="sans-serif" font-size="20" lengthAdjust="spacing" textLength="20" x="234" y="1473.7988">to</text><text fill="#000000" font-family="sans-serif" font-size="20" lengthAdjust="spacing" textLength="53" x="140" y="1497.0801">order</text><text fill="#000000" font-family="sans-serif" font-size="20" lengthAdjust="spacing" textLength="6" x="193" y="1497.0801"> </text><text fill="#000000" font-family="sans-serif" font-size="20" lengthAdjust="spacing" textLength="14" x="199" y="1497.0801">it</text><path d="M10,1518.7969 L104,1518.7969 L104,1534.0781 L94,1544.0781 L10,1544.0781 L10,1518.7969 " fill="#EEEEEE" style="stroke:#000000;stroke-width:1.5;"/><rect fill="none" height="251.5313" style="stroke:#000000;stroke-width:1.5;" width="597.5" x="10" y="1518.7969"/><text fill="#000000" font-family="sans-serif" font-size="20" font-weight="bold" lengthAdjust="spacing" textLength="49" x="25" y="1538.3613">loop</text><text fill="#000000" font-family="sans-serif" font-size="20" font-weight="bold" lengthAdjust="spacing" textLength="242" x="119" y="1539.3613">[for every candidate]</text><polygon fill="#181818" points="308.5,1600.9219,318.5,1604.9219,308.5,1608.9219,312.5,1604.9219" style="stroke:#181818;stroke-width:1.0;"/><line style="stroke:#181818;stroke-width:1.0;" x1="123" x2="314.5" y1="1604.9219" y2="1604.9219"/><text fill="#000000" font-family="sans-serif" font-size="20" lengthAdjust="spacing" textLength="72" x="130" y="1574.9238">Selects</text><text fill="#000000" font-family="sans-serif" font-size="20" lengthAdjust="spacing" textLength="6" x="202" y="1574.9238"> </text><text fill="#000000" font-family="sans-serif" font-size="20" lengthAdjust="spacing" textLength="12" x="208" y="1574.9238">a</text><text fill="#000000" font-family="sans-serif" font-size="20" lengthAdjust="spacing" textLength="100" x="130" y="1598.2051">candidate</text><line style="stroke:#181818;stroke-width:1.0;stroke-dasharray:2.0,2.0;" x1="330.5" x2="372.5" y1="1665.4844" y2="1665.4844"/><line style="stroke:#181818;stroke-width:1.0;stroke-dasharray:2.0,2.0;" x1="372.5" x2="372.5" y1="1665.4844" y2="1678.4844"/><line style="stroke:#181818;stroke-width:1.0;stroke-dasharray:2.0,2.0;" x1="331.5" x2="372.5" y1="1678.4844" y2="1678.4844"/><polygon fill="#181818" points="341.5,1674.4844,331.5,1678.4844,341.5,1682.4844,337.5,1678.4844" style="stroke:#181818;stroke-width:1.0;"/><text fill="#000000" font-family="sans-serif" font-size="20" lengthAdjust="spacing" textLength="258" x="337.5" y="1635.4863">saveToList(CandidateDTO</text><text fill="#000000" font-family="sans-serif" font-size="20" lengthAdjust="spacing" textLength="151" x="337.5" y="1658.7676">candidateDTO)</text><polygon fill="#181818" points="134,1758.3281,124,1762.3281,134,1766.3281,130,1762.3281" style="stroke:#181818;stroke-width:1.0;"/><line style="stroke:#181818;stroke-width:1.0;stroke-dasharray:2.0,2.0;" x1="128" x2="319.5" y1="1762.3281" y2="1762.3281"/><text fill="#000000" font-family="sans-serif" font-size="20" lengthAdjust="spacing" textLength="46" x="140" y="1709.0488">Asks</text><text fill="#000000" font-family="sans-serif" font-size="20" lengthAdjust="spacing" textLength="6" x="186" y="1709.0488"> </text><text fill="#000000" font-family="sans-serif" font-size="20" lengthAdjust="spacing" textLength="27" x="192" y="1709.0488">for</text><text fill="#000000" font-family="sans-serif" font-size="20" lengthAdjust="spacing" textLength="6" x="219" y="1709.0488"> </text><text fill="#000000" font-family="sans-serif" font-size="20" lengthAdjust="spacing" textLength="33" x="225" y="1709.0488">the</text><text fill="#000000" font-family="sans-serif" font-size="20" lengthAdjust="spacing" textLength="44" x="140" y="1732.3301">next</text><text fill="#000000" font-family="sans-serif" font-size="20" lengthAdjust="spacing" textLength="6" x="184" y="1732.3301"> </text><text fill="#000000" font-family="sans-serif" font-size="20" lengthAdjust="spacing" textLength="100" x="190" y="1732.3301">candidate</text><text fill="#000000" font-family="sans-serif" font-size="20" lengthAdjust="spacing" textLength="19" x="140" y="1755.6113">in</text><text fill="#000000" font-family="sans-serif" font-size="20" lengthAdjust="spacing" textLength="6" x="159" y="1755.6113"> </text><text fill="#000000" font-family="sans-serif" font-size="20" lengthAdjust="spacing" textLength="33" x="165" y="1755.6113">the</text><text fill="#000000" font-family="sans-serif" font-size="20" lengthAdjust="spacing" textLength="6" x="198" y="1755.6113"> </text><text fill="#000000" font-family="sans-serif" font-size="20" lengthAdjust="spacing" textLength="45" x="204" y="1755.6113">rank</text><polygon fill="#181818" points="691.5,1872.4531,701.5,1876.4531,691.5,1880.4531,695.5,1876.4531" style="stroke:#181818;stroke-width:1.0;"/><line style="stroke:#181818;stroke-width:1.0;stroke-dasharray:2.0,2.0;" x1="330.5" x2="697.5" y1="1876.4531" y2="1876.4531"/><text fill="#000000" font-family="sans-serif" font-size="20" lengthAdjust="spacing" textLength="354" x="337.5" y="1799.8926">addRank(Iterable&lt;CandidateDTO&gt;</text><text fill="#000000" font-family="sans-serif" font-size="20" lengthAdjust="spacing" textLength="111" x="337.5" y="1823.1738">rankedList,</text><text fill="#000000" font-family="sans-serif" font-size="20" lengthAdjust="spacing" textLength="117" x="337.5" y="1846.4551">JobOpening</text><text fill="#000000" font-family="sans-serif" font-size="20" lengthAdjust="spacing" textLength="125" x="337.5" y="1869.7363">jobOpening)</text><polygon fill="#181818" points="1074.5,1979.5781,1084.5,1983.5781,1074.5,1987.5781,1078.5,1983.5781" style="stroke:#181818;stroke-width:1.0;"/><line style="stroke:#181818;stroke-width:1.0;" x1="713.5" x2="1080.5" y1="1983.5781" y2="1983.5781"/><text fill="#000000" font-family="sans-serif" font-size="20" lengthAdjust="spacing" textLength="354" x="720.5" y="1907.0176">addRank(Iterable&lt;CandidateDTO&gt;</text><text fill="#000000" font-family="sans-serif" font-size="20" lengthAdjust="spacing" textLength="111" x="720.5" y="1930.2988">rankedList,</text><text fill="#000000" font-family="sans-serif" font-size="20" lengthAdjust="spacing" textLength="117" x="720.5" y="1953.5801">JobOpening</text><text fill="#000000" font-family="sans-serif" font-size="20" lengthAdjust="spacing" textLength="125" x="720.5" y="1976.8613">jobOpening)</text><polygon fill="#181818" points="2340,2086.7031,2350,2090.7031,2340,2094.7031,2344,2090.7031" style="stroke:#181818;stroke-width:1.0;"/><line style="stroke:#181818;stroke-width:1.0;" x1="1096.5" x2="2346" y1="2090.7031" y2="2090.7031"/><text fill="#000000" font-family="sans-serif" font-size="20" lengthAdjust="spacing" textLength="379" x="1103.5" y="2014.1426">createRank(Iterable&lt;CandidateDTO&gt;</text><text fill="#000000" font-family="sans-serif" font-size="20" lengthAdjust="spacing" textLength="111" x="1103.5" y="2037.4238">rankedList,</text><text fill="#000000" font-family="sans-serif" font-size="20" lengthAdjust="spacing" textLength="117" x="1103.5" y="2060.7051">JobOpening</text><text fill="#000000" font-family="sans-serif" font-size="20" lengthAdjust="spacing" textLength="125" x="1103.5" y="2083.9863">jobOpening)</text><polygon fill="#181818" points="1107.5,2123.9844,1097.5,2127.9844,1107.5,2131.9844,1103.5,2127.9844" style="stroke:#181818;stroke-width:1.0;"/><line style="stroke:#181818;stroke-width:1.0;stroke-dasharray:2.0,2.0;" x1="1101.5" x2="2356" y1="2127.9844" y2="2127.9844"/><text fill="#000000" font-family="sans-serif" font-size="20" lengthAdjust="spacing" textLength="45" x="1113.5" y="2121.2676">rank</text><polygon fill="#181818" points="2504,2161.2656,2514,2165.2656,2504,2169.2656,2508,2165.2656" style="stroke:#181818;stroke-width:1.0;"/><line style="stroke:#181818;stroke-width:1.0;" x1="1096.5" x2="2510" y1="2165.2656" y2="2165.2656"/><text fill="#000000" font-family="sans-serif" font-size="20" lengthAdjust="spacing" textLength="106" x="1103.5" y="2158.5488">save(rank)</text><polygon fill="#181818" points="2700.5,2198.5469,2710.5,2202.5469,2700.5,2206.5469,2704.5,2202.5469" style="stroke:#181818;stroke-width:1.0;"/><line style="stroke:#181818;stroke-width:1.0;" x1="2526" x2="2706.5" y1="2202.5469" y2="2202.5469"/><text fill="#000000" font-family="sans-serif" font-size="20" lengthAdjust="spacing" textLength="112" x="2533" y="2195.8301">save(Rank)</text><polygon fill="#181818" points="2861.5,2235.8281,2871.5,2239.8281,2861.5,2243.8281,2865.5,2239.8281" style="stroke:#181818;stroke-width:1.0;"/><line style="stroke:#181818;stroke-width:1.0;" x1="2722.5" x2="2867.5" y1="2239.8281" y2="2239.8281"/><text fill="#000000" font-family="sans-serif" font-size="20" lengthAdjust="spacing" textLength="128" x="2729.5" y="2233.1113">persist(rank)</text><polygon fill="#181818" points="2733.5,2273.1094,2723.5,2277.1094,2733.5,2281.1094,2729.5,2277.1094" style="stroke:#181818;stroke-width:1.0;"/><line style="stroke:#181818;stroke-width:1.0;stroke-dasharray:2.0,2.0;" x1="2727.5" x2="2877.5" y1="2277.1094" y2="2277.1094"/><text fill="#000000" font-family="sans-serif" font-size="20" lengthAdjust="spacing" textLength="45" x="2739.5" y="2270.3926">rank</text><polygon fill="#181818" points="2537,2310.3906,2527,2314.3906,2537,2318.3906,2533,2314.3906" style="stroke:#181818;stroke-width:1.0;"/><line style="stroke:#181818;stroke-width:1.0;stroke-dasharray:2.0,2.0;" x1="2531" x2="2716.5" y1="2314.3906" y2="2314.3906"/><text fill="#000000" font-family="sans-serif" font-size="20" lengthAdjust="spacing" textLength="45" x="2543" y="2307.6738">rank</text><polygon fill="#181818" points="1107.5,2347.6719,1097.5,2351.6719,1107.5,2355.6719,1103.5,2351.6719" style="stroke:#181818;stroke-width:1.0;"/><line style="stroke:#181818;stroke-width:1.0;stroke-dasharray:2.0,2.0;" x1="1101.5" x2="2520" y1="2351.6719" y2="2351.6719"/><text fill="#000000" font-family="sans-serif" font-size="20" lengthAdjust="spacing" textLength="45" x="1113.5" y="2344.9551">rank</text><polygon fill="#181818" points="724.5,2384.9531,714.5,2388.9531,724.5,2392.9531,720.5,2388.9531" style="stroke:#181818;stroke-width:1.0;"/><line style="stroke:#181818;stroke-width:1.0;stroke-dasharray:2.0,2.0;" x1="718.5" x2="1090.5" y1="2388.9531" y2="2388.9531"/><text fill="#000000" font-family="sans-serif" font-size="20" lengthAdjust="spacing" textLength="45" x="730.5" y="2382.2363">rank</text><polygon fill="#181818" points="341.5,2422.2344,331.5,2426.2344,341.5,2430.2344,337.5,2426.2344" style="stroke:#181818;stroke-width:1.0;"/><line style="stroke:#181818;stroke-width:1.0;stroke-dasharray:2.0,2.0;" x1="335.5" x2="707.5" y1="2426.2344" y2="2426.2344"/><text fill="#000000" font-family="sans-serif" font-size="20" lengthAdjust="spacing" textLength="45" x="347.5" y="2419.5176">rank</text><polygon fill="#181818" points="129,2506.0781,119,2510.0781,129,2514.0781,125,2510.0781" style="stroke:#181818;stroke-width:1.0;"/><line style="stroke:#181818;stroke-width:1.0;stroke-dasharray:2.0,2.0;" x1="123" x2="319.5" y1="2510.0781" y2="2510.0781"/><text fill="#000000" font-family="sans-serif" font-size="20" lengthAdjust="spacing" textLength="55" x="135" y="2456.7988">Show</text><text fill="#000000" font-family="sans-serif" font-size="20" lengthAdjust="spacing" textLength="96" x="135" y="2480.0801">operation</text><text fill="#000000" font-family="sans-serif" font-size="20" lengthAdjust="spacing" textLength="77" x="135" y="2503.3613">success</text><!--SRC=[hLTHJzim47xFhpZrgKWKmQRjeM98j0MDYWgMKErbBoOvm6jgPxRBrltwdPqqSPgahHYMG6bzzzrtlijzhbvmaJ75bgcC5vX0WazibPfhAKp4_o9yE0qCDod2F3exFVty20E89lHlmdMMiZMCcKXumWp2X1a6z0akiopbCJDS2Xte3JwaNA1PPmXIcHVfRIpPdoLgpPvHsuXddqwzJOs_LYXYl6VAy9XdJ1XOYGILXGi25Xkfe3TUQIENg6361E6e7Z0DuraGP9vRBsHYKVBLynjdDR_PPJIcSr0oJJUGksmZLAyyHcSOrGsz8manaveJwxKp3Ek6qupji9tUNzRDo-1klsjpyd2NxzD3Cu7HYgT9aLyuQkvlasWoRh6QaXc5PezC8_GcnPFRcem2kwXo_DNs3PK9Q8rdCBYWQi0GBlL2Wv6G53rcNX0oL5eAbe951Va43E9DViw_nAE2Gh4KFe5yfRQOZE2O8WpXbci3K_a8TnaABfxr3z6VHq2j_V6eTBEBY10T8ZM4w4N-rjI-v4bnVMVNxgnWgp75c4n4pYV1RKPUXf6p9NyVhZCDoyMI8STdD5N3NKj5xdtwAn3WP_bOPLCTT2t1iIKJlGso1XlLlhOhij3Xsw5hy65ZowxGXQ3tuV-Yr2FPrmiwbej5CQcJXX0h98TlArJhVdHrUpL-07PIJSBhy6xcJq4gy_UlL-4L6LLau0iCgq-zuwgTJ-AKQNtKIQKaJ6yIx5WroXhDlHseQ53rUxN0-mveimXdK9tw3G6nnnJFoxmlEhszTs47vvnlqJg7mdlGdVKB7Mfq8AgF6BJYfL9cy4IwGvOlbG9s9kRUXyiX3GaQmFqzNTZTWldXs26-wS3zBU96VZVW-M1G0FfYSKWTTm97EV01g3vYmm15qZPRYb7Oh2K5gPVJGu-sXzzc5E-1yI36ZO5irQ6u26dl9kH4nfS6gKXWWPiEOQZwYRHglQLhdShHD6lJ3e-kyzVi5H-aPTZt4wxGwCDHcxTBrYcpPMebMU0VK_a15-vRHPU1eAYUoopOaZ2M9FR2q6y_UEUFYILu33kcU4jLIaLxdmWxH2uNk4e9tYbQNOsQWp8SbOEiFEMsgJLg8HiMjUzRpwwGJQqDdT1EA_UmuLw3c8RjUZtDWPmKsQkSxJ_L2dMemXLgb5Dh7CVXokEORKwe5SV3c7OSqI5L2OFsELPpQfrOthGgZHjpoNzDxOqL99rpVltGgpYc7rY1xpCB_W40]--></g></svg>