<?xml version="1.0" encoding="UTF-8" standalone="no"?><svg xmlns="http://www.w3.org/2000/svg" xmlns:xlink="http://www.w3.org/1999/xlink" contentStyleType="text/css" height="524px" preserveAspectRatio="none" style="width:2139px;height:524px;background:#FFFFFF;" version="1.1" viewBox="0 0 2139 524" width="2139px" zoomAndPan="magnify"><defs/><g><text fill="#000000" font-family="sans-serif" font-size="14" font-weight="bold" lengthAdjust="spacing" textLength="187" x="969.25" y="22.9951">Domain Model - US2002</text><!--cluster <<aggregate>> Application--><g id="cluster_&lt;&lt;aggregate&gt;&gt; Application"><path d="M8.5,44.5137 L288.5,44.5137 A3.75,3.75 0 0 1 291,47.0137 L298,73.7949 L1366.5,73.7949 A2.5,2.5 0 0 1 1369,76.2949 L1369,515.0137 A2.5,2.5 0 0 1 1366.5,517.5137 L8.5,517.5137 A2.5,2.5 0 0 1 6,515.0137 L6,47.0137 A2.5,2.5 0 0 1 8.5,44.5137 " fill="#EBF5FB" style="stroke:#000000;stroke-width:1.5;"/><line style="stroke:#000000;stroke-width:1.5;" x1="6" x2="298" y1="73.7949" y2="73.7949"/><text fill="#000000" font-family="sans-serif" font-size="20" font-weight="bold" lengthAdjust="spacing" textLength="279" x="10" y="65.0781">«aggregate» Application</text></g><!--cluster <<aggregate>> Candidate--><g id="cluster_&lt;&lt;aggregate&gt;&gt; Candidate"><path d="M1395.5,237.5137 L1663.5,237.5137 A3.75,3.75 0 0 1 1666,240.0137 L1673,266.7949 L1808.5,266.7949 A2.5,2.5 0 0 1 1811,269.2949 L1811,515.0137 A2.5,2.5 0 0 1 1808.5,517.5137 L1395.5,517.5137 A2.5,2.5 0 0 1 1393,515.0137 L1393,240.0137 A2.5,2.5 0 0 1 1395.5,237.5137 " fill="#EBF5FB" style="stroke:#000000;stroke-width:1.5;"/><line style="stroke:#000000;stroke-width:1.5;" x1="1393" x2="1673" y1="266.7949" y2="266.7949"/><text fill="#000000" font-family="sans-serif" font-size="20" font-weight="bold" lengthAdjust="spacing" textLength="267" x="1397" y="258.0781">«aggregate» Candidate</text></g><!--class Application--><g id="elem_Application"><rect codeLine="21" fill="#FDEBD0" height="79.8438" id="Application" rx="2.5" ry="2.5" style="stroke:#181818;stroke-width:0.5;" width="148" x="1040" y="86.5137"/><ellipse cx="1056" cy="126.4355" fill="#ADD1B2" rx="12" ry="12" style="stroke:#181818;stroke-width:1.0;"/><path d="M1060.7188,133.9355 L1051.6406,133.9355 L1051.6406,119.3574 L1060.7188,119.3574 L1060.7188,121.8887 L1054.5156,121.8887 L1054.5156,125.0449 L1060.1406,125.0449 L1060.1406,127.5762 L1054.5156,127.5762 L1054.5156,131.3887 L1060.7188,131.3887 L1060.7188,133.9355 Z " fill="#000000"/><text fill="#000000" font-family="sans-serif" font-size="20" font-style="italic" lengthAdjust="spacing" textLength="83" x="1086.5" y="110.0781">«entity»</text><text fill="#000000" font-family="sans-serif" font-size="20" font-style="italic" lengthAdjust="spacing" textLength="64" x="1096" y="133.3594">«root»</text><text fill="#000000" font-family="sans-serif" font-size="20" lengthAdjust="spacing" textLength="114" x="1071" y="156.6406">Application</text></g><!--class Result--><g id="elem_Result"><rect codeLine="22" fill="#FEF9E7" height="56.5625" id="Result" rx="2.5" ry="2.5" style="stroke:#181818;stroke-width:0.5;" width="113" x="745.5" y="291.0137"/><ellipse cx="761.5" cy="319.2949" fill="#ADD1B2" rx="12" ry="12" style="stroke:#181818;stroke-width:1.0;"/><path d="M766.2188,326.7949 L757.1406,326.7949 L757.1406,312.2168 L766.2188,312.2168 L766.2188,314.748 L760.0156,314.748 L760.0156,317.9043 L765.6406,317.9043 L765.6406,320.4355 L760.0156,320.4355 L760.0156,324.248 L766.2188,324.248 L766.2188,326.7949 Z " fill="#000000"/><text fill="#000000" font-family="sans-serif" font-size="20" font-style="italic" lengthAdjust="spacing" textLength="83" x="774.5" y="314.5781">«entity»</text><text fill="#000000" font-family="sans-serif" font-size="20" lengthAdjust="spacing" textLength="63" x="784.5" y="337.8594">Result</text></g><!--class ApplicationDate--><g id="elem_ApplicationDate"><rect codeLine="24" fill="#D6EAF8" height="56.5625" id="ApplicationDate" rx="2.5" ry="2.5" style="stroke:#181818;stroke-width:0.5;" width="195" x="893.5" y="291.0137"/><ellipse cx="909.5" cy="319.2949" fill="#FF8B40" rx="12" ry="12" style="stroke:#181818;stroke-width:1.0;"/><path d="M909.5156,325.1387 L912.0781,312.9668 L914.9844,312.9668 L911.5156,327.5449 L907.5313,327.5449 L904.0625,312.9668 L906.9531,312.9668 L909.5156,325.1387 Z " fill="#000000"/><text fill="#000000" font-family="sans-serif" font-size="20" font-style="italic" lengthAdjust="spacing" textLength="145" x="932.5" y="314.5781">«valueObject»</text><text fill="#000000" font-family="sans-serif" font-size="20" lengthAdjust="spacing" textLength="161" x="924.5" y="337.8594">ApplicationDate</text></g><!--class ApplicationNumber--><g id="elem_ApplicationNumber"><rect codeLine="25" fill="#D6EAF8" height="56.5625" id="ApplicationNumber" rx="2.5" ry="2.5" style="stroke:#181818;stroke-width:0.5;" width="229" x="1123.5" y="291.0137"/><ellipse cx="1139.5" cy="319.2949" fill="#FF8B40" rx="12" ry="12" style="stroke:#181818;stroke-width:1.0;"/><path d="M1139.5156,325.1387 L1142.0781,312.9668 L1144.9844,312.9668 L1141.5156,327.5449 L1137.5313,327.5449 L1134.0625,312.9668 L1136.9531,312.9668 L1139.5156,325.1387 Z " fill="#000000"/><text fill="#000000" font-family="sans-serif" font-size="20" font-style="italic" lengthAdjust="spacing" textLength="145" x="1179.5" y="314.5781">«valueObject»</text><text fill="#000000" font-family="sans-serif" font-size="20" lengthAdjust="spacing" textLength="195" x="1154.5" y="337.8594">ApplicationNumber</text></g><!--class Outcome--><g id="elem_Outcome"><rect codeLine="26" fill="#D6EAF8" height="56.5625" id="Outcome" rx="2.5" ry="2.5" style="stroke:#181818;stroke-width:0.5;" width="175" x="22.5" y="444.5137"/><ellipse cx="38.5" cy="472.7949" fill="#FF8B40" rx="12" ry="12" style="stroke:#181818;stroke-width:1.0;"/><path d="M38.5156,478.6387 L41.0781,466.4668 L43.9844,466.4668 L40.5156,481.0449 L36.5313,481.0449 L33.0625,466.4668 L35.9531,466.4668 L38.5156,478.6387 Z " fill="#000000"/><text fill="#000000" font-family="sans-serif" font-size="20" font-style="italic" lengthAdjust="spacing" textLength="145" x="51.5" y="468.0781">«valueObject»</text><text fill="#000000" font-family="sans-serif" font-size="20" lengthAdjust="spacing" textLength="92" x="78" y="491.3594">Outcome</text></g><!--class Justification--><g id="elem_Justification"><rect codeLine="27" fill="#D6EAF8" height="56.5625" id="Justification" rx="2.5" ry="2.5" style="stroke:#181818;stroke-width:0.5;" width="175" x="1177.5" y="444.5137"/><ellipse cx="1193.5" cy="472.7949" fill="#FF8B40" rx="12" ry="12" style="stroke:#181818;stroke-width:1.0;"/><path d="M1193.5156,478.6387 L1196.0781,466.4668 L1198.9844,466.4668 L1195.5156,481.0449 L1191.5313,481.0449 L1188.0625,466.4668 L1190.9531,466.4668 L1193.5156,478.6387 Z " fill="#000000"/><text fill="#000000" font-family="sans-serif" font-size="20" font-style="italic" lengthAdjust="spacing" textLength="145" x="1206.5" y="468.0781">«valueObject»</text><text fill="#000000" font-family="sans-serif" font-size="20" lengthAdjust="spacing" textLength="118" x="1220" y="491.3594">Justification</text></g><g id="elem_GMN9"><path d="M233,456.5137 L233,469.0137 L197.82,473.0137 L233,477.0137 L233,489.7949 A0,0 0 0 0 233,489.7949 L641,489.7949 A0,0 0 0 0 641,489.7949 L641,466.5137 L631,456.5137 L233,456.5137 A0,0 0 0 0 233,456.5137 " fill="#FEFFDD" style="stroke:#181818;stroke-width:0.5;"/><path d="M631,456.5137 L631,466.5137 L641,466.5137 L631,456.5137 " fill="#FEFFDD" style="stroke:#181818;stroke-width:0.5;"/><text fill="#000000" font-family="sans-serif" font-size="20" lengthAdjust="spacing" textLength="387" x="239" y="480.0781">Outcome can be Approved or Rejected</text></g><g id="elem_GMN12"><path d="M676,456.5137 L676,489.7949 A0,0 0 0 0 676,489.7949 L1142,489.7949 A0,0 0 0 0 1142,489.7949 L1142,477.0137 L1177.27,473.0137 L1142,469.0137 L1142,466.5137 L1132,456.5137 L676,456.5137 A0,0 0 0 0 676,456.5137 " fill="#FEFFDD" style="stroke:#181818;stroke-width:0.5;"/><path d="M1132,456.5137 L1132,466.5137 L1142,466.5137 L1132,456.5137 " fill="#FEFFDD" style="stroke:#181818;stroke-width:0.5;"/><text fill="#000000" font-family="sans-serif" font-size="20" lengthAdjust="spacing" textLength="445" x="682" y="480.0781">Rejected outcomes must have a justification</text></g><!--class Candidate--><g id="elem_Candidate"><rect codeLine="35" fill="#FDEBD0" height="79.8438" id="Candidate" rx="2.5" ry="2.5" style="stroke:#181818;stroke-width:0.5;" width="137" x="1638.5" y="279.5137"/><ellipse cx="1654.5" cy="319.4355" fill="#ADD1B2" rx="12" ry="12" style="stroke:#181818;stroke-width:1.0;"/><path d="M1659.2188,326.9355 L1650.1406,326.9355 L1650.1406,312.3574 L1659.2188,312.3574 L1659.2188,314.8887 L1653.0156,314.8887 L1653.0156,318.0449 L1658.6406,318.0449 L1658.6406,320.5762 L1653.0156,320.5762 L1653.0156,324.3887 L1659.2188,324.3887 L1659.2188,326.9355 Z " fill="#000000"/><text fill="#000000" font-family="sans-serif" font-size="20" font-style="italic" lengthAdjust="spacing" textLength="83" x="1679.5" y="303.0781">«entity»</text><text fill="#000000" font-family="sans-serif" font-size="20" font-style="italic" lengthAdjust="spacing" textLength="64" x="1689" y="326.3594">«root»</text><text fill="#000000" font-family="sans-serif" font-size="20" lengthAdjust="spacing" textLength="103" x="1669.5" y="349.6406">Candidate</text></g><!--class FirstName--><g id="elem_FirstName"><rect codeLine="37" fill="#D6EAF8" height="56.5625" id="FirstName" rx="2.5" ry="2.5" style="stroke:#181818;stroke-width:0.5;" width="175" x="1409.5" y="444.5137"/><ellipse cx="1425.5" cy="472.7949" fill="#FF8B40" rx="12" ry="12" style="stroke:#181818;stroke-width:1.0;"/><path d="M1425.5156,478.6387 L1428.0781,466.4668 L1430.9844,466.4668 L1427.5156,481.0449 L1423.5313,481.0449 L1420.0625,466.4668 L1422.9531,466.4668 L1425.5156,478.6387 Z " fill="#000000"/><text fill="#000000" font-family="sans-serif" font-size="20" font-style="italic" lengthAdjust="spacing" textLength="145" x="1438.5" y="468.0781">«valueObject»</text><text fill="#000000" font-family="sans-serif" font-size="20" lengthAdjust="spacing" textLength="103" x="1459.5" y="491.3594">FirstName</text></g><!--class LastName--><g id="elem_LastName"><rect codeLine="38" fill="#D6EAF8" height="56.5625" id="LastName" rx="2.5" ry="2.5" style="stroke:#181818;stroke-width:0.5;" width="175" x="1619.5" y="444.5137"/><ellipse cx="1635.5" cy="472.7949" fill="#FF8B40" rx="12" ry="12" style="stroke:#181818;stroke-width:1.0;"/><path d="M1635.5156,478.6387 L1638.0781,466.4668 L1640.9844,466.4668 L1637.5156,481.0449 L1633.5313,481.0449 L1630.0625,466.4668 L1632.9531,466.4668 L1635.5156,478.6387 Z " fill="#000000"/><text fill="#000000" font-family="sans-serif" font-size="20" font-style="italic" lengthAdjust="spacing" textLength="145" x="1648.5" y="468.0781">«valueObject»</text><text fill="#000000" font-family="sans-serif" font-size="20" lengthAdjust="spacing" textLength="100" x="1671" y="491.3594">LastName</text></g><!--class PhoneNumber--><g id="elem_PhoneNumber"><rect fill="#FEF9E7" height="34" id="PhoneNumber" rx="2.5" ry="2.5" style="stroke:#181818;stroke-width:0.5;" width="177" x="1829.5" y="456.0137"/><ellipse cx="1845.5" cy="473.0137" fill="#ADD1B2" rx="12" ry="12" style="stroke:#181818;stroke-width:1.0;"/><path d="M1848.5625,480.0918 Q1847.875,480.4512 1847.125,480.623 Q1846.375,480.7949 1845.5469,480.7949 Q1842.5938,480.7949 1841.0313,478.8574 Q1839.4844,476.9043 1839.4844,473.2324 Q1839.4844,469.5605 1841.0313,467.623 Q1842.5938,465.6699 1845.5469,465.6699 Q1846.375,465.6699 1847.125,465.8418 Q1847.8906,466.0137 1848.5625,466.373 L1848.5625,469.5762 Q1847.8125,468.8887 1847.1094,468.5762 Q1846.4219,468.2637 1845.6719,468.2637 Q1844.0938,468.2637 1843.2813,469.5137 Q1842.4844,470.7637 1842.4844,473.2324 Q1842.4844,475.7012 1843.2813,476.9512 Q1844.0938,478.2012 1845.6719,478.2012 Q1846.4219,478.2012 1847.1094,477.8887 Q1847.8125,477.5762 1848.5625,476.8887 L1848.5625,480.0918 Z " fill="#000000"/><text fill="#000000" font-family="sans-serif" font-size="20" lengthAdjust="spacing" textLength="143" x="1860.5" y="479.9375">PhoneNumber</text></g><!--class Email--><g id="elem_Email"><rect fill="#FEF9E7" height="34" id="Email" rx="2.5" ry="2.5" style="stroke:#181818;stroke-width:0.5;" width="91" x="2041.5" y="456.0137"/><ellipse cx="2057.5" cy="473.0137" fill="#ADD1B2" rx="12" ry="12" style="stroke:#181818;stroke-width:1.0;"/><path d="M2060.5625,480.0918 Q2059.875,480.4512 2059.125,480.623 Q2058.375,480.7949 2057.5469,480.7949 Q2054.5938,480.7949 2053.0313,478.8574 Q2051.4844,476.9043 2051.4844,473.2324 Q2051.4844,469.5605 2053.0313,467.623 Q2054.5938,465.6699 2057.5469,465.6699 Q2058.375,465.6699 2059.125,465.8418 Q2059.8906,466.0137 2060.5625,466.373 L2060.5625,469.5762 Q2059.8125,468.8887 2059.1094,468.5762 Q2058.4219,468.2637 2057.6719,468.2637 Q2056.0938,468.2637 2055.2813,469.5137 Q2054.4844,470.7637 2054.4844,473.2324 Q2054.4844,475.7012 2055.2813,476.9512 Q2056.0938,478.2012 2057.6719,478.2012 Q2058.4219,478.2012 2059.1094,477.8887 Q2059.8125,477.5762 2060.5625,476.8887 L2060.5625,480.0918 Z " fill="#000000"/><text fill="#000000" font-family="sans-serif" font-size="20" lengthAdjust="spacing" textLength="57" x="2072.5" y="479.9375">Email</text></g><!--link Application to ApplicationDate--><g id="link_Application_ApplicationDate"><path codeLine="42" d="M1088.81,166.6237 C1066.01,202.0337 1032.83,253.5537 1011.58,286.5537 " fill="none" id="Application-to-ApplicationDate" style="stroke:#000000;stroke-width:1.0;"/><polygon fill="#000000" points="1008.79,290.8837,1017.0215,285.4761,1011.4938,286.6778,1010.2921,281.15,1008.79,290.8837" style="stroke:#000000;stroke-width:1.0;"/><text fill="#000000" font-family="sans-serif" font-size="20" lengthAdjust="spacing" textLength="35" x="1069" y="216.0781">has</text><text fill="#000000" font-family="sans-serif" font-size="20" lengthAdjust="spacing" textLength="13" x="1071.1555" y="192.8005">1</text><text fill="#000000" font-family="sans-serif" font-size="20" lengthAdjust="spacing" textLength="13" x="998.1186" y="278.2454">1</text></g><!--link Application to ApplicationNumber--><g id="link_Application_ApplicationNumber"><path codeLine="43" d="M1139.39,166.6237 C1162.38,202.0337 1195.83,253.5537 1217.25,286.5537 " fill="none" id="Application-to-ApplicationNumber" style="stroke:#000000;stroke-width:1.0;"/><polygon fill="#000000" points="1220.06,290.8837,1218.5112,281.1574,1217.3361,286.6908,1211.8026,285.5157,1220.06,290.8837" style="stroke:#000000;stroke-width:1.0;"/><text fill="#000000" font-family="sans-serif" font-size="20" lengthAdjust="spacing" textLength="35" x="1174" y="216.0781">has</text><text fill="#000000" font-family="sans-serif" font-size="20" lengthAdjust="spacing" textLength="13" x="1129.1645" y="192.8005">1</text><text fill="#000000" font-family="sans-serif" font-size="20" lengthAdjust="spacing" textLength="13" x="1202.0192" y="278.2454">1</text></g><!--link Application to Result--><g id="link_Application_Result"><path codeLine="44" d="M1039.8,149.1737 C990.29,165.9637 925.45,192.6137 876,229.5137 C855.04,245.1537 836.26,267.8937 822.87,286.4737 " fill="none" id="Application-to-Result" style="stroke:#000000;stroke-width:1.0;"/><polygon fill="#000000" points="819.92,290.6137,828.3994,285.6038,822.8208,286.5411,821.8834,280.9625,819.92,290.6137" style="stroke:#000000;stroke-width:1.0;"/><text fill="#000000" font-family="sans-serif" font-size="20" lengthAdjust="spacing" textLength="35" x="925" y="216.0781">has</text><text fill="#000000" font-family="sans-serif" font-size="20" lengthAdjust="spacing" textLength="13" x="1019.1083" y="145.8227">1</text><text fill="#000000" font-family="sans-serif" font-size="20" lengthAdjust="spacing" textLength="38" x="781.7074" y="278.2951">0..1</text></g><!--link Application to Candidate--><g id="link_Application_Candidate"><path codeLine="45" d="M1188.2,151.4137 C1302.27,188.1537 1519.41,258.0937 1633.22,294.7537 " fill="none" id="Application-to-Candidate" style="stroke:#000000;stroke-width:1.0;"/><polygon fill="#000000" points="1638.23,296.3637,1630.903,289.7822,1633.4739,294.8211,1628.435,297.392,1638.23,296.3637" style="stroke:#000000;stroke-width:1.0;"/><text fill="#000000" font-family="sans-serif" font-size="20" lengthAdjust="spacing" textLength="35" x="1394" y="216.0781">has</text><text fill="#000000" font-family="sans-serif" font-size="20" lengthAdjust="spacing" textLength="13" x="1195.8917" y="148.2762">1</text><text fill="#000000" font-family="sans-serif" font-size="20" lengthAdjust="spacing" textLength="13" x="1617.4678" y="288.3774">1</text></g><!--link Result to Outcome--><g id="link_Result_Outcome"><path codeLine="48" d="M745.13,331.5837 C640.07,352.2437 408.61,398.7437 215,444.5137 C210.91,445.4837 206.74,446.4837 202.54,447.5137 " fill="none" id="Result-to-Outcome" style="stroke:#000000;stroke-width:1.0;"/><polygon fill="#000000" points="197.58,448.7437,207.2767,450.4683,202.4341,447.5444,205.3579,442.7018,197.58,448.7437" style="stroke:#000000;stroke-width:1.0;"/><text fill="#000000" font-family="sans-serif" font-size="20" lengthAdjust="spacing" textLength="35" x="458" y="409.0781">has</text><text fill="#000000" font-family="sans-serif" font-size="20" lengthAdjust="spacing" textLength="13" x="724.4068" y="327.2614">1</text><text fill="#000000" font-family="sans-serif" font-size="20" lengthAdjust="spacing" textLength="13" x="205.371" y="441.3757">1</text></g><!--link Result to Justification--><g id="link_Result_Justification"><path codeLine="49" d="M851.1,348.1637 C859.28,352.2537 867.78,356.2037 876,359.5137 C929.7,381.1637 1075.34,421.5337 1172.38,447.5637 " fill="none" id="Result-to-Justification" style="stroke:#000000;stroke-width:1.0;"/><polygon fill="#000000" points="1177.25,448.8737,1169.5994,442.6714,1172.4219,447.5738,1167.5196,450.3964,1177.25,448.8737" style="stroke:#000000;stroke-width:1.0;"/><text fill="#000000" font-family="sans-serif" font-size="20" lengthAdjust="spacing" textLength="90" x="1050" y="409.0781">can have</text><text fill="#000000" font-family="sans-serif" font-size="20" lengthAdjust="spacing" textLength="13" x="845.9544" y="374.197">1</text><text fill="#000000" font-family="sans-serif" font-size="20" lengthAdjust="spacing" textLength="13" x="1156.4449" y="441.5164">1</text></g><!--link Candidate to FirstName--><g id="link_Candidate_FirstName"><path codeLine="52" d="M1652.92,359.5337 C1617.68,384.9537 1572.34,417.6637 1539.65,441.2437 " fill="none" id="Candidate-to-FirstName" style="stroke:#000000;stroke-width:1.0;"/><polygon fill="#000000" points="1535.32,444.3637,1544.9633,442.3618,1539.3809,441.4467,1540.2961,435.8643,1535.32,444.3637" style="stroke:#000000;stroke-width:1.0;"/><text fill="#000000" font-family="sans-serif" font-size="20" lengthAdjust="spacing" textLength="35" x="1610" y="409.0781">has</text><text fill="#000000" font-family="sans-serif" font-size="20" lengthAdjust="spacing" textLength="13" x="1630.6437" y="386.0206">1</text><text fill="#000000" font-family="sans-serif" font-size="20" lengthAdjust="spacing" textLength="13" x="1528.8829" y="431.7213">1</text></g><!--link Candidate to LastName--><g id="link_Candidate_LastName"><path codeLine="53" d="M1707,359.5337 C1707,384.1437 1707,415.5837 1707,438.9737 " fill="none" id="Candidate-to-LastName" style="stroke:#000000;stroke-width:1.0;"/><polygon fill="#000000" points="1707,444.1337,1711,435.1337,1707,439.1337,1703,435.1337,1707,444.1337" style="stroke:#000000;stroke-width:1.0;"/><text fill="#000000" font-family="sans-serif" font-size="20" lengthAdjust="spacing" textLength="35" x="1708" y="409.0781">has</text><text fill="#000000" font-family="sans-serif" font-size="20" lengthAdjust="spacing" textLength="13" x="1693.0047" y="386.0206">1</text><text fill="#000000" font-family="sans-serif" font-size="20" lengthAdjust="spacing" textLength="13" x="1692.7203" y="431.8191">1</text></g><!--link Candidate to PhoneNumber--><g id="link_Candidate_PhoneNumber"><path codeLine="54" d="M1761.34,359.5337 C1803.06,389.4837 1858.86,429.5537 1891.37,452.8937 " fill="none" id="Candidate-to-PhoneNumber" style="stroke:#000000;stroke-width:1.0;"/><polygon fill="#000000" points="1895.61,455.9337,1890.6198,447.4426,1891.5442,453.0234,1885.9634,453.9479,1895.61,455.9337" style="stroke:#000000;stroke-width:1.0;"/><text fill="#000000" font-family="sans-serif" font-size="20" lengthAdjust="spacing" textLength="35" x="1838" y="409.0781">has</text><text fill="#000000" font-family="sans-serif" font-size="20" lengthAdjust="spacing" textLength="13" x="1755.6655" y="386.0206">1</text><text fill="#000000" font-family="sans-serif" font-size="20" lengthAdjust="spacing" textLength="13" x="1874.1236" y="443.1441">1</text></g><!--link Candidate to Email--><g id="link_Candidate_Email"><path codeLine="55" d="M1775.64,346.4837 C1840.05,371.0637 1938.95,409.3337 2024,444.5137 C2031.08,447.4437 2038.57,450.6337 2045.82,453.7637 " fill="none" id="Candidate-to-Email" style="stroke:#000000;stroke-width:1.0;"/><polygon fill="#000000" points="2050.79,455.9237,2044.1205,448.6767,2046.2017,453.9368,2040.9416,456.018,2050.79,455.9237" style="stroke:#000000;stroke-width:1.0;"/><text fill="#000000" font-family="sans-serif" font-size="20" lengthAdjust="spacing" textLength="35" x="1947" y="409.0781">has</text><text fill="#000000" font-family="sans-serif" font-size="20" lengthAdjust="spacing" textLength="13" x="1783.3888" y="343.666">1</text><text fill="#000000" font-family="sans-serif" font-size="20" lengthAdjust="spacing" textLength="13" x="2025.2439" y="443.1311">1</text></g><!--SRC=[bLJBRjim4BppAnRE8IbG1uhHHse81gnOEWHfKYHexxIqbXXJf41IBjmW_rxgBJcgK-jYOJapkpiSMM-PoAYYAPVX5YE8S4DpRW8fp1FxWp1p237CS8ILJ2aJy5r6o64AFvzcZZCZ964H0gQPsKEAwHgL9kUw4OKx9j3iCmIfJ289wKv2JhM65mBsyMYuZPNCHNGZkLIkkwCynuVrCuPciO2prHT_6LoFGvMK9IPO-TxA6STeL3iMOYbr5SnyRmnc9VpWc_-rF5ig9NzNPOzR77djpvxP2ernV7euyxtWS-0Lb7DOPXbd8JLC2bZ6iSAO6YIDmCHrQLEqq_N0areSXNL_Fv1ntQfe2UtwBwzzz2DgUuTze3ql0PNhFRMLxGo7XhlknQ-Fre_WsllaVEZatx3ly-B6J-G_v2QKwQbTRtDjsARpu7rkIHRIxgTOd1YGcwRrl9qXf0BMMAoavCx6trxV8nQQ67LqZfkIFHXXtW91Lc8QKWk0XEuGA3ptmLKMRgY8M5GO_cuIMkX13Zg9VwIWvrZ0b3Rtz6Idx-W9j3SXLyZB5vsmJ9F-oUHg0jFfelmzJE3SslPVw3fnH_3EvQLzhJ-1uxgTcnNEhbBpXblKnJwr2L15704CypelarP4OnY4OP-ktbVgxh5gDevgR-qOw4SY1Gui7CVvzg-UDwRy1G00]--></g></svg>