<?xml version="1.0" encoding="UTF-8" standalone="no"?><svg xmlns="http://www.w3.org/2000/svg" xmlns:xlink="http://www.w3.org/1999/xlink" contentStyleType="text/css" height="659px" preserveAspectRatio="none" style="width:1247px;height:659px;background:#FFFFFF;" version="1.1" viewBox="0 0 1247 659" width="1247px" zoomAndPan="magnify"><defs/><g><text fill="#000000" font-family="sans-serif" font-size="14" font-weight="bold" lengthAdjust="spacing" textLength="450" x="396.25" y="27.9951">System Sequence Diagram (SSD) - Register Job Openings</text><rect fill="#FFFFFF" height="427.375" style="stroke:#181818;stroke-width:1.0;" width="10" x="98" y="135.5781"/><rect fill="#FFFFFF" height="37.2813" style="stroke:#181818;stroke-width:1.0;" width="10" x="1186" y="164.8594"/><rect fill="#FFFFFF" height="37.2813" style="stroke:#181818;stroke-width:1.0;" width="10" x="1186" y="380.5469"/><line style="stroke:#181818;stroke-width:0.5;stroke-dasharray:5.0,5.0;" x1="103" x2="103" y1="125.5781" y2="571.9531"/><line style="stroke:#181818;stroke-width:0.5;stroke-dasharray:5.0,5.0;" x1="1190.5" x2="1190.5" y1="125.5781" y2="571.9531"/><text fill="#000000" font-family="sans-serif" font-size="20" lengthAdjust="spacing" textLength="190" x="5" y="120.8613">Customer Manager</text><ellipse cx="103" cy="50.7969" fill="#E3E3E3" rx="8" ry="8" style="stroke:#181818;stroke-width:0.5;"/><path d="M103,58.7969 L103,85.7969 M90,66.7969 L116,66.7969 M103,85.7969 L90,100.7969 M103,85.7969 L116,100.7969 " fill="none" style="stroke:#181818;stroke-width:0.5;"/><text fill="#000000" font-family="sans-serif" font-size="20" lengthAdjust="spacing" textLength="190" x="5" y="589.5176">Customer Manager</text><ellipse cx="103" cy="602.7344" fill="#E3E3E3" rx="8" ry="8" style="stroke:#181818;stroke-width:0.5;"/><path d="M103,610.7344 L103,637.7344 M90,618.7344 L116,618.7344 M103,637.7344 L90,652.7344 M103,637.7344 L116,652.7344 " fill="none" style="stroke:#181818;stroke-width:0.5;"/><rect fill="#E3E3E3" height="37.2813" rx="2.5" ry="2.5" style="stroke:#181818;stroke-width:0.5;" width="95" x="1143.5" y="87.2969"/><text fill="#000000" font-family="sans-serif" font-size="20" lengthAdjust="spacing" textLength="81" x="1150.5" y="112.8613">:System</text><rect fill="#E3E3E3" height="37.2813" rx="2.5" ry="2.5" style="stroke:#181818;stroke-width:0.5;" width="95" x="1143.5" y="570.9531"/><text fill="#000000" font-family="sans-serif" font-size="20" lengthAdjust="spacing" textLength="81" x="1150.5" y="596.5176">:System</text><rect fill="#FFFFFF" height="427.375" style="stroke:#181818;stroke-width:1.0;" width="10" x="98" y="135.5781"/><rect fill="#FFFFFF" height="37.2813" style="stroke:#181818;stroke-width:1.0;" width="10" x="1186" y="164.8594"/><rect fill="#FFFFFF" height="37.2813" style="stroke:#181818;stroke-width:1.0;" width="10" x="1186" y="380.5469"/><polygon fill="#181818" points="1174,160.8594,1184,164.8594,1174,168.8594,1178,164.8594" style="stroke:#181818;stroke-width:1.0;"/><line style="stroke:#181818;stroke-width:1.0;" x1="108" x2="1180" y1="164.8594" y2="164.8594"/><text fill="#000000" font-family="sans-serif" font-size="20" font-weight="bold" lengthAdjust="spacing" textLength="14" x="115" y="158.1426">1</text><text fill="#000000" font-family="sans-serif" font-size="20" lengthAdjust="spacing" textLength="280" x="133" y="158.1426">Asks to register job opening</text><polygon fill="#181818" points="119,198.1406,109,202.1406,119,206.1406,115,202.1406" style="stroke:#181818;stroke-width:1.0;"/><line style="stroke:#181818;stroke-width:1.0;stroke-dasharray:2.0,2.0;" x1="113" x2="1190" y1="202.1406" y2="202.1406"/><text fill="#000000" font-family="sans-serif" font-size="20" font-weight="bold" lengthAdjust="spacing" textLength="14" x="125" y="195.4238">2</text><text fill="#000000" font-family="sans-serif" font-size="20" lengthAdjust="spacing" textLength="424" x="143" y="195.4238">Asks for what Customer the job opening is</text><polygon fill="#181818" points="1179,235.4219,1189,239.4219,1179,243.4219,1183,239.4219" style="stroke:#181818;stroke-width:1.0;"/><line style="stroke:#181818;stroke-width:1.0;" x1="108" x2="1185" y1="239.4219" y2="239.4219"/><text fill="#000000" font-family="sans-serif" font-size="20" font-weight="bold" lengthAdjust="spacing" textLength="14" x="115" y="232.7051">3</text><text fill="#000000" font-family="sans-serif" font-size="20" lengthAdjust="spacing" textLength="182" x="133" y="232.7051">Provides company</text><polygon fill="#181818" points="119,272.7031,109,276.7031,119,280.7031,115,276.7031" style="stroke:#181818;stroke-width:1.0;"/><line style="stroke:#181818;stroke-width:1.0;stroke-dasharray:2.0,2.0;" x1="113" x2="1190" y1="276.7031" y2="276.7031"/><text fill="#000000" font-family="sans-serif" font-size="20" font-weight="bold" lengthAdjust="spacing" textLength="14" x="125" y="269.9863">4</text><text fill="#000000" font-family="sans-serif" font-size="20" lengthAdjust="spacing" textLength="1041" x="143" y="269.9863">Asks for information (Title or function, Contract Type, Mode, Address, Number of vacancies, Description)</text><path d="M778,289.7031 L778,345.7031 L1186,345.7031 L1186,299.7031 L1176,289.7031 L778,289.7031 " fill="#FAFAFA" style="stroke:#181818;stroke-width:0.5;"/><path d="M1176,289.7031 L1176,299.7031 L1186,299.7031 L1176,289.7031 " fill="#FAFAFA" style="stroke:#181818;stroke-width:0.5;"/><text fill="#000000" font-family="sans-serif" font-size="20" lengthAdjust="spacing" textLength="381" x="784" y="313.2676">The Costumer Manager has to provide</text><text fill="#000000" font-family="sans-serif" font-size="20" lengthAdjust="spacing" textLength="277" x="784" y="336.5488">all the information required</text><polygon fill="#181818" points="1174,376.5469,1184,380.5469,1174,384.5469,1178,380.5469" style="stroke:#181818;stroke-width:1.0;"/><line style="stroke:#181818;stroke-width:1.0;" x1="108" x2="1180" y1="380.5469" y2="380.5469"/><text fill="#000000" font-family="sans-serif" font-size="20" font-weight="bold" lengthAdjust="spacing" textLength="14" x="115" y="373.8301">5</text><text fill="#000000" font-family="sans-serif" font-size="20" lengthAdjust="spacing" textLength="207" x="133" y="373.8301">Provides information</text><polygon fill="#181818" points="119,413.8281,109,417.8281,119,421.8281,115,417.8281" style="stroke:#181818;stroke-width:1.0;"/><line style="stroke:#181818;stroke-width:1.0;stroke-dasharray:2.0,2.0;" x1="113" x2="1190" y1="417.8281" y2="417.8281"/><text fill="#000000" font-family="sans-serif" font-size="20" font-weight="bold" lengthAdjust="spacing" textLength="14" x="125" y="411.1113">6</text><text fill="#000000" font-family="sans-serif" font-size="20" lengthAdjust="spacing" textLength="385" x="143" y="411.1113">Asks to select one of the requirements</text><rect fill="none" height="56.5625" style="stroke:#000000;stroke-width:1.5;" width="1239.5" x="2" y="425.8281"/><path d="M2,425.8281 L80,425.8281 L80,440.8281 L70,450.8281 L2,450.8281 L2,425.8281 " fill="#EEEEEE" style="stroke:#000000;stroke-width:2.0;"/><text fill="#000000" font-family="sans-serif" font-size="20" font-weight="bold" lengthAdjust="spacing" textLength="33" x="15" y="446.3926">ref</text><text fill="#000000" font-family="sans-serif" font-size="20" lengthAdjust="spacing" textLength="308" x="467.75" y="473.3926">US1009 ➡️ Select Requirement</text><polygon fill="#181818" points="1174,512.6719,1184,516.6719,1174,520.6719,1178,516.6719" style="stroke:#181818;stroke-width:1.0;"/><line style="stroke:#181818;stroke-width:1.0;" x1="108" x2="1180" y1="516.6719" y2="516.6719"/><text fill="#000000" font-family="sans-serif" font-size="20" font-weight="bold" lengthAdjust="spacing" textLength="14" x="115" y="509.9551">7</text><text fill="#000000" font-family="sans-serif" font-size="20" lengthAdjust="spacing" textLength="320" x="133" y="509.9551">Selects one of the requirements</text><polygon fill="#181818" points="119,549.9531,109,553.9531,119,557.9531,115,553.9531" style="stroke:#181818;stroke-width:1.0;"/><line style="stroke:#181818;stroke-width:1.0;stroke-dasharray:2.0,2.0;" x1="113" x2="1185" y1="553.9531" y2="553.9531"/><text fill="#000000" font-family="sans-serif" font-size="20" font-weight="bold" lengthAdjust="spacing" textLength="14" x="125" y="547.2363">8</text><text fill="#000000" font-family="sans-serif" font-size="20" lengthAdjust="spacing" textLength="255" x="143" y="547.2363">Informs success or failure</text><!--SRC=[dPFDRjH03CVlynJMdbffLrguqGDIjIiaa0geMMvSt8cJJ3UP2MFFLijBy0P8l0NFmmlm2ZWVcqOLeBPp63aJ- - -VxHdUEzzYnAOETayvv5HWgkLDy9AvhmGlruPFBj047smLGqCWCT7iJujsZoLbSgm98bb1NzPp1wum3tVEbr1WpMICE57NxCX23MJq9P6t15k7PUT-bcNRSrZ1DPLEFIAy2pVmeIMl2cmC9Wa-DJSKrROI8YmsYKN18boXLvAu0EIJRPH1d7KjUe75nP2qTnZCNiGTK6YACA1h_83LwnFe1Lpoda625ZcItIfP6CZwe4bgr8PnJSOejLBLKu9Hjj12xYeKc8gHYkO9mB6Pj79wcEgVq1zZEBYS66nej0b7yqWOvtLlK5pmSBRh9wQdHVAsErh2Hgz9L0hO7LjQmbN8TR_CyqZCItZVJmX20GUqwAqZFTmIs-ZQBlvyekYM3rf8JONSO- -q-arWIREvGeLz_zkX9FZiiQxxFirXerue5oatp-xKJEslOtr41vMIgTR70C5JruQESYHho0jF6f4A20UD7CIMCwLFsOlr-XNy-lxZzyzl-b1wlUjxaITNE4ZmVvcULkpRlbKCdApLmVTN15sT8fa_]--></g></svg>