<?xml version="1.0" encoding="UTF-8" standalone="no"?><svg xmlns="http://www.w3.org/2000/svg" xmlns:xlink="http://www.w3.org/1999/xlink" contentStyleType="text/css" height="585px" preserveAspectRatio="none" style="width:1359px;height:585px;background:#FFFFFF;" version="1.1" viewBox="0 0 1359 585" width="1359px" zoomAndPan="magnify"><defs/><g><text fill="#000000" font-family="sans-serif" font-size="14" font-weight="bold" lengthAdjust="spacing" textLength="450" x="452.25" y="27.9951">System Sequence Diagram (SSD) - Register Job Openings</text><rect fill="#FFFFFF" height="352.8125" style="stroke:#181818;stroke-width:1.0;" width="10" x="98" y="135.5781"/><rect fill="#FFFFFF" height="37.2813" style="stroke:#181818;stroke-width:1.0;" width="10" x="1298" y="164.8594"/><rect fill="#FFFFFF" height="37.2813" style="stroke:#181818;stroke-width:1.0;" width="10" x="1298" y="305.9844"/><rect fill="#FFFFFF" height="46.2813" style="stroke:#181818;stroke-width:1.0;" width="10" x="1298" y="442.1094"/><line style="stroke:#181818;stroke-width:0.5;stroke-dasharray:5.0,5.0;" x1="103" x2="103" y1="125.5781" y2="497.3906"/><line style="stroke:#181818;stroke-width:0.5;stroke-dasharray:5.0,5.0;" x1="1302.5" x2="1302.5" y1="125.5781" y2="497.3906"/><text fill="#000000" font-family="sans-serif" font-size="20" lengthAdjust="spacing" textLength="190" x="5" y="120.8613">Costumer Manager</text><ellipse cx="103" cy="50.7969" fill="#E3E3E3" rx="8" ry="8" style="stroke:#181818;stroke-width:0.5;"/><path d="M103,58.7969 L103,85.7969 M90,66.7969 L116,66.7969 M103,85.7969 L90,100.7969 M103,85.7969 L116,100.7969 " fill="none" style="stroke:#181818;stroke-width:0.5;"/><text fill="#000000" font-family="sans-serif" font-size="20" lengthAdjust="spacing" textLength="190" x="5" y="514.9551">Costumer Manager</text><ellipse cx="103" cy="528.1719" fill="#E3E3E3" rx="8" ry="8" style="stroke:#181818;stroke-width:0.5;"/><path d="M103,536.1719 L103,563.1719 M90,544.1719 L116,544.1719 M103,563.1719 L90,578.1719 M103,563.1719 L116,578.1719 " fill="none" style="stroke:#181818;stroke-width:0.5;"/><rect fill="#E3E3E3" height="37.2813" rx="2.5" ry="2.5" style="stroke:#181818;stroke-width:0.5;" width="95" x="1255.5" y="87.2969"/><text fill="#000000" font-family="sans-serif" font-size="20" lengthAdjust="spacing" textLength="81" x="1262.5" y="112.8613">:System</text><rect fill="#E3E3E3" height="37.2813" rx="2.5" ry="2.5" style="stroke:#181818;stroke-width:0.5;" width="95" x="1255.5" y="496.3906"/><text fill="#000000" font-family="sans-serif" font-size="20" lengthAdjust="spacing" textLength="81" x="1262.5" y="521.9551">:System</text><rect fill="#FFFFFF" height="352.8125" style="stroke:#181818;stroke-width:1.0;" width="10" x="98" y="135.5781"/><rect fill="#FFFFFF" height="37.2813" style="stroke:#181818;stroke-width:1.0;" width="10" x="1298" y="164.8594"/><rect fill="#FFFFFF" height="37.2813" style="stroke:#181818;stroke-width:1.0;" width="10" x="1298" y="305.9844"/><rect fill="#FFFFFF" height="46.2813" style="stroke:#181818;stroke-width:1.0;" width="10" x="1298" y="442.1094"/><polygon fill="#181818" points="1286,160.8594,1296,164.8594,1286,168.8594,1290,164.8594" style="stroke:#181818;stroke-width:1.0;"/><line style="stroke:#181818;stroke-width:1.0;" x1="108" x2="1292" y1="164.8594" y2="164.8594"/><text fill="#000000" font-family="sans-serif" font-size="20" font-weight="bold" lengthAdjust="spacing" textLength="14" x="115" y="158.1426">1</text><text fill="#000000" font-family="sans-serif" font-size="20" lengthAdjust="spacing" textLength="280" x="133" y="158.1426">Asks to register job opening</text><polygon fill="#181818" points="119,198.1406,109,202.1406,119,206.1406,115,202.1406" style="stroke:#181818;stroke-width:1.0;"/><line style="stroke:#181818;stroke-width:1.0;stroke-dasharray:2.0,2.0;" x1="113" x2="1302" y1="202.1406" y2="202.1406"/><text fill="#000000" font-family="sans-serif" font-size="20" font-weight="bold" lengthAdjust="spacing" textLength="14" x="125" y="195.4238">2</text><text fill="#000000" font-family="sans-serif" font-size="20" lengthAdjust="spacing" textLength="1148" x="143" y="195.4238">Asks for information (Title or function, Contract Type, Mode, Address, Company, Number of vacancies, Description)</text><path d="M890,215.1406 L890,271.1406 L1298,271.1406 L1298,225.1406 L1288,215.1406 L890,215.1406 " fill="#FAFAFA" style="stroke:#181818;stroke-width:0.5;"/><path d="M1288,215.1406 L1288,225.1406 L1298,225.1406 L1288,215.1406 " fill="#FAFAFA" style="stroke:#181818;stroke-width:0.5;"/><text fill="#000000" font-family="sans-serif" font-size="20" lengthAdjust="spacing" textLength="381" x="896" y="238.7051">The Costumer Manager has to provide</text><text fill="#000000" font-family="sans-serif" font-size="20" lengthAdjust="spacing" textLength="277" x="896" y="261.9863">all the information required</text><polygon fill="#181818" points="1286,301.9844,1296,305.9844,1286,309.9844,1290,305.9844" style="stroke:#181818;stroke-width:1.0;"/><line style="stroke:#181818;stroke-width:1.0;" x1="108" x2="1292" y1="305.9844" y2="305.9844"/><text fill="#000000" font-family="sans-serif" font-size="20" font-weight="bold" lengthAdjust="spacing" textLength="14" x="115" y="299.2676">3</text><text fill="#000000" font-family="sans-serif" font-size="20" lengthAdjust="spacing" textLength="207" x="133" y="299.2676">Provides information</text><polygon fill="#181818" points="119,339.2656,109,343.2656,119,347.2656,115,343.2656" style="stroke:#181818;stroke-width:1.0;"/><line style="stroke:#181818;stroke-width:1.0;stroke-dasharray:2.0,2.0;" x1="113" x2="1302" y1="343.2656" y2="343.2656"/><text fill="#000000" font-family="sans-serif" font-size="20" font-weight="bold" lengthAdjust="spacing" textLength="14" x="125" y="336.5488">4</text><text fill="#000000" font-family="sans-serif" font-size="20" lengthAdjust="spacing" textLength="385" x="143" y="336.5488">Asks to select one of the requirements</text><rect fill="none" height="56.5625" style="stroke:#000000;stroke-width:1.5;" width="1351.5" x="2" y="351.2656"/><path d="M2,351.2656 L80,351.2656 L80,366.2656 L70,376.2656 L2,376.2656 L2,351.2656 " fill="#EEEEEE" style="stroke:#000000;stroke-width:2.0;"/><text fill="#000000" font-family="sans-serif" font-size="20" font-weight="bold" lengthAdjust="spacing" textLength="33" x="15" y="371.8301">ref</text><text fill="#000000" font-family="sans-serif" font-size="20" lengthAdjust="spacing" textLength="308" x="523.75" y="398.8301">US1009 ➡️ Select Requirement</text><polygon fill="#181818" points="1286,438.1094,1296,442.1094,1286,446.1094,1290,442.1094" style="stroke:#181818;stroke-width:1.0;"/><line style="stroke:#181818;stroke-width:1.0;" x1="108" x2="1292" y1="442.1094" y2="442.1094"/><text fill="#000000" font-family="sans-serif" font-size="20" font-weight="bold" lengthAdjust="spacing" textLength="14" x="115" y="435.3926">5</text><text fill="#000000" font-family="sans-serif" font-size="20" lengthAdjust="spacing" textLength="320" x="133" y="435.3926">Selects one of the requirements</text><polygon fill="#181818" points="119,475.3906,109,479.3906,119,483.3906,115,479.3906" style="stroke:#181818;stroke-width:1.0;"/><line style="stroke:#181818;stroke-width:1.0;stroke-dasharray:2.0,2.0;" x1="113" x2="1297" y1="479.3906" y2="479.3906"/><text fill="#000000" font-family="sans-serif" font-size="20" font-weight="bold" lengthAdjust="spacing" textLength="14" x="125" y="472.6738">6</text><text fill="#000000" font-family="sans-serif" font-size="20" lengthAdjust="spacing" textLength="255" x="143" y="472.6738">Informs success or failure</text><!--SRC=[bP9DRjH048NtFaLfLeaq8mtio08foWWfI04K3pisbNRPqqoxotIL1msNu0P8t8BpS06kGFbd72iAAEb5gztz-kjNpoLx7njCM0TsUogWe1BRe6yuQkw_4RnSPtAIGCsHtIvnJQ2ffTb9WswF5ULw30I9d6AimbmWEopuguyLb1Y4iaozcZG_Yb8DENrfAJg2ZSUgav_b-UOSLd1BbJT5WhTy1-yRYaQGBCDMERRr7ILRE-K4YoiMRMjJtc0q9sa1AATrPXxKEzzWL5XS38_sWc7PG_m1bQOR6TWOFs3r-cJq0YvbBw1iHOxEFfip7fprboRKo8PnJ8iHjJBgwO4HMreXFjfSetgESBRjGxBTiesksrh2bVsPP6_0zjZG4cwuiFcoA1A9TAUr5NbSmhi-7U0I3kWmEazskY5noJSTw7ooqut8vZTGgVTrRdS43pE57VQrDuaFlY3u5344K5FENIVxcJvHCMHOqCD0_XdjXm4hSzgZaJuXIdCf5AmHWIDrCNGkHsSrHPM9aQW4FjZD0RQSaJxcBzRhL_3xnyy_lxvRa_Qystl8ioiS4F9VJyyhzhgFIa1Qvwm3-bv17zf4sLy0]--></g></svg>