<?xml version="1.0" encoding="UTF-8" standalone="no"?><svg xmlns="http://www.w3.org/2000/svg" xmlns:xlink="http://www.w3.org/1999/xlink" contentStyleType="text/css" height="813px" preserveAspectRatio="none" style="width:3068px;height:813px;background:#FFFFFF;" version="1.1" viewBox="0 0 3068 813" width="3068px" zoomAndPan="magnify"><defs/><g><text fill="#000000" font-family="sans-serif" font-size="14" font-weight="bold" lengthAdjust="spacing" textLength="188" x="1433.25" y="22.9951">Class Diagram - US1001</text><!--class UI--><g id="elem_UI"><rect codeLine="13" fill="#FEF9E7" height="50" id="UI" rx="2.5" ry="2.5" style="stroke:#181818;stroke-width:0.5;" width="392" x="1778" y="55.7969"/><ellipse cx="1794" cy="72.7969" fill="#ADD1B2" rx="12" ry="12" style="stroke:#181818;stroke-width:1.0;"/><path d="M1797.0625,79.875 Q1796.375,80.2344 1795.625,80.4063 Q1794.875,80.5781 1794.0469,80.5781 Q1791.0938,80.5781 1789.5313,78.6406 Q1787.9844,76.6875 1787.9844,73.0156 Q1787.9844,69.3438 1789.5313,67.4063 Q1791.0938,65.4531 1794.0469,65.4531 Q1794.875,65.4531 1795.625,65.625 Q1796.3906,65.7969 1797.0625,66.1563 L1797.0625,69.3594 Q1796.3125,68.6719 1795.6094,68.3594 Q1794.9219,68.0469 1794.1719,68.0469 Q1792.5938,68.0469 1791.7813,69.2969 Q1790.9844,70.5469 1790.9844,73.0156 Q1790.9844,75.4844 1791.7813,76.7344 Q1792.5938,77.9844 1794.1719,77.9844 Q1794.9219,77.9844 1795.6094,77.6719 Q1796.3125,77.3594 1797.0625,76.6719 L1797.0625,79.875 Z " fill="#000000"/><text fill="#000000" font-family="sans-serif" font-size="20" lengthAdjust="spacing" textLength="358" x="1809" y="79.7207">RegisterCandidateAndCreateUserUI</text><line style="stroke:#181818;stroke-width:0.5;" x1="1779" x2="2169" y1="89.7969" y2="89.7969"/><line style="stroke:#181818;stroke-width:0.5;" x1="1779" x2="2169" y1="97.7969" y2="97.7969"/></g><!--class CandidateController--><g id="elem_CandidateController"><rect codeLine="15" fill="#FEF9E7" height="73.2813" id="CandidateController" rx="2.5" ry="2.5" style="stroke:#181818;stroke-width:0.5;" width="512" x="47" y="44.2969"/><ellipse cx="156" cy="61.2969" fill="#ADD1B2" rx="12" ry="12" style="stroke:#181818;stroke-width:1.0;"/><path d="M159.0625,68.375 Q158.375,68.7344 157.625,68.9063 Q156.875,69.0781 156.0469,69.0781 Q153.0938,69.0781 151.5313,67.1406 Q149.9844,65.1875 149.9844,61.5156 Q149.9844,57.8438 151.5313,55.9063 Q153.0938,53.9531 156.0469,53.9531 Q156.875,53.9531 157.625,54.125 Q158.3906,54.2969 159.0625,54.6563 L159.0625,57.8594 Q158.3125,57.1719 157.6094,56.8594 Q156.9219,56.5469 156.1719,56.5469 Q154.5938,56.5469 153.7813,57.7969 Q152.9844,59.0469 152.9844,61.5156 Q152.9844,63.9844 153.7813,65.2344 Q154.5938,66.4844 156.1719,66.4844 Q156.9219,66.4844 157.6094,66.1719 Q158.3125,65.8594 159.0625,65.1719 L159.0625,68.375 Z " fill="#000000"/><text fill="#000000" font-family="sans-serif" font-size="20" lengthAdjust="spacing" textLength="285" x="178" y="68.2207">RegisterCandidateController</text><line style="stroke:#181818;stroke-width:0.5;" x1="48" x2="558" y1="78.2969" y2="78.2969"/><line style="stroke:#181818;stroke-width:0.5;" x1="48" x2="558" y1="86.2969" y2="86.2969"/><ellipse cx="58" cy="103.4375" fill="#84BE84" rx="3" ry="3" style="stroke:#038048;stroke-width:1.0;"/><text fill="#000000" font-family="sans-serif" font-size="20" lengthAdjust="spacing" textLength="485" x="68" y="108.8613">addCandidate(name: String, email: String): void</text></g><!--class CandidateService--><g id="elem_CandidateService"><rect codeLine="19" fill="#FEF9E7" height="73.2813" id="CandidateService" rx="2.5" ry="2.5" style="stroke:#181818;stroke-width:0.5;" width="579" x="594.5" y="44.2969"/><ellipse cx="791.5" cy="61.2969" fill="#ADD1B2" rx="12" ry="12" style="stroke:#181818;stroke-width:1.0;"/><path d="M794.5625,68.375 Q793.875,68.7344 793.125,68.9063 Q792.375,69.0781 791.5469,69.0781 Q788.5938,69.0781 787.0313,67.1406 Q785.4844,65.1875 785.4844,61.5156 Q785.4844,57.8438 787.0313,55.9063 Q788.5938,53.9531 791.5469,53.9531 Q792.375,53.9531 793.125,54.125 Q793.8906,54.2969 794.5625,54.6563 L794.5625,57.8594 Q793.8125,57.1719 793.1094,56.8594 Q792.4219,56.5469 791.6719,56.5469 Q790.0938,56.5469 789.2813,57.7969 Q788.4844,59.0469 788.4844,61.5156 Q788.4844,63.9844 789.2813,65.2344 Q790.0938,66.4844 791.6719,66.4844 Q792.4219,66.4844 793.1094,66.1719 Q793.8125,65.8594 794.5625,65.1719 L794.5625,68.375 Z " fill="#000000"/><text fill="#000000" font-family="sans-serif" font-size="20" lengthAdjust="spacing" textLength="176" x="813.5" y="68.2207">CandidateService</text><line style="stroke:#181818;stroke-width:0.5;" x1="595.5" x2="1172.5" y1="78.2969" y2="78.2969"/><line style="stroke:#181818;stroke-width:0.5;" x1="595.5" x2="1172.5" y1="86.2969" y2="86.2969"/><ellipse cx="605.5" cy="103.4375" fill="#84BE84" rx="3" ry="3" style="stroke:#038048;stroke-width:1.0;"/><text fill="#000000" font-family="sans-serif" font-size="20" lengthAdjust="spacing" textLength="552" x="615.5" y="108.8613">addCandidate(name: String, email: String ): Candidate</text></g><!--class Candidate--><g id="elem_Candidate"><rect codeLine="23" fill="#FEF9E7" height="119.8438" id="Candidate" rx="2.5" ry="2.5" style="stroke:#181818;stroke-width:0.5;" width="592" x="7" y="177.2969"/><ellipse cx="247" cy="194.2969" fill="#ADD1B2" rx="12" ry="12" style="stroke:#181818;stroke-width:1.0;"/><path d="M250.0625,201.375 Q249.375,201.7344 248.625,201.9063 Q247.875,202.0781 247.0469,202.0781 Q244.0938,202.0781 242.5313,200.1406 Q240.9844,198.1875 240.9844,194.5156 Q240.9844,190.8438 242.5313,188.9063 Q244.0938,186.9531 247.0469,186.9531 Q247.875,186.9531 248.625,187.125 Q249.3906,187.2969 250.0625,187.6563 L250.0625,190.8594 Q249.3125,190.1719 248.6094,189.8594 Q247.9219,189.5469 247.1719,189.5469 Q245.5938,189.5469 244.7813,190.7969 Q243.9844,192.0469 243.9844,194.5156 Q243.9844,196.9844 244.7813,198.2344 Q245.5938,199.4844 247.1719,199.4844 Q247.9219,199.4844 248.6094,199.1719 Q249.3125,198.8594 250.0625,198.1719 L250.0625,201.375 Z " fill="#000000"/><text fill="#000000" font-family="sans-serif" font-size="20" lengthAdjust="spacing" textLength="103" x="269" y="201.2207">Candidate</text><line style="stroke:#181818;stroke-width:0.5;" x1="8" x2="598" y1="211.2969" y2="211.2969"/><rect fill="none" height="6" style="stroke:#C82930;stroke-width:1.0;" width="6" x="15" y="225.4375"/><text fill="#000000" font-family="sans-serif" font-size="20" lengthAdjust="spacing" textLength="131" x="28" y="233.8613">name: String</text><rect fill="none" height="6" style="stroke:#C82930;stroke-width:1.0;" width="6" x="15" y="248.7188"/><text fill="#000000" font-family="sans-serif" font-size="20" lengthAdjust="spacing" textLength="130" x="28" y="257.1426">email: String</text><line style="stroke:#181818;stroke-width:0.5;" x1="8" x2="598" y1="265.8594" y2="265.8594"/><ellipse cx="18" cy="283" fill="#84BE84" rx="3" ry="3" style="stroke:#038048;stroke-width:1.0;"/><text fill="#000000" font-family="sans-serif" font-size="20" lengthAdjust="spacing" textLength="565" x="28" y="288.4238">createCandidate(name: String, email: String): Customer</text></g><!--class CustomerRepository--><g id="elem_CustomerRepository"><rect codeLine="29" fill="#FEF9E7" height="73.2813" id="CustomerRepository" rx="2.5" ry="2.5" style="stroke:#181818;stroke-width:0.5;" width="402" x="1169" y="490.2969"/><ellipse cx="1264" cy="507.2969" fill="#ADD1B2" rx="12" ry="12" style="stroke:#181818;stroke-width:1.0;"/><path d="M1267.0625,514.375 Q1266.375,514.7344 1265.625,514.9063 Q1264.875,515.0781 1264.0469,515.0781 Q1261.0938,515.0781 1259.5313,513.1406 Q1257.9844,511.1875 1257.9844,507.5156 Q1257.9844,503.8438 1259.5313,501.9063 Q1261.0938,499.9531 1264.0469,499.9531 Q1264.875,499.9531 1265.625,500.125 Q1266.3906,500.2969 1267.0625,500.6563 L1267.0625,503.8594 Q1266.3125,503.1719 1265.6094,502.8594 Q1264.9219,502.5469 1264.1719,502.5469 Q1262.5938,502.5469 1261.7813,503.7969 Q1260.9844,505.0469 1260.9844,507.5156 Q1260.9844,509.9844 1261.7813,511.2344 Q1262.5938,512.4844 1264.1719,512.4844 Q1264.9219,512.4844 1265.6094,512.1719 Q1266.3125,511.8594 1267.0625,511.1719 L1267.0625,514.375 Z " fill="#000000"/><text fill="#000000" font-family="sans-serif" font-size="20" lengthAdjust="spacing" textLength="203" x="1286" y="514.2207">CustomerRepository</text><line style="stroke:#181818;stroke-width:0.5;" x1="1170" x2="1570" y1="524.2969" y2="524.2969"/><line style="stroke:#181818;stroke-width:0.5;" x1="1170" x2="1570" y1="532.2969" y2="532.2969"/><ellipse cx="1180" cy="549.4375" fill="#84BE84" rx="3" ry="3" style="stroke:#038048;stroke-width:1.0;"/><text fill="#000000" font-family="sans-serif" font-size="20" lengthAdjust="spacing" textLength="375" x="1190" y="554.8613">save(customer: Customer): Customer</text></g><!--class JpaCustomerRepository--><g id="elem_JpaCustomerRepository"><rect codeLine="33" fill="#FEF9E7" height="73.2813" id="JpaCustomerRepository" rx="2.5" ry="2.5" style="stroke:#181818;stroke-width:0.5;" width="402" x="1773" y="623.2969"/><ellipse cx="1852.5" cy="640.2969" fill="#ADD1B2" rx="12" ry="12" style="stroke:#181818;stroke-width:1.0;"/><path d="M1855.5625,647.375 Q1854.875,647.7344 1854.125,647.9063 Q1853.375,648.0781 1852.5469,648.0781 Q1849.5938,648.0781 1848.0313,646.1406 Q1846.4844,644.1875 1846.4844,640.5156 Q1846.4844,636.8438 1848.0313,634.9063 Q1849.5938,632.9531 1852.5469,632.9531 Q1853.375,632.9531 1854.125,633.125 Q1854.8906,633.2969 1855.5625,633.6563 L1855.5625,636.8594 Q1854.8125,636.1719 1854.1094,635.8594 Q1853.4219,635.5469 1852.6719,635.5469 Q1851.0938,635.5469 1850.2813,636.7969 Q1849.4844,638.0469 1849.4844,640.5156 Q1849.4844,642.9844 1850.2813,644.2344 Q1851.0938,645.4844 1852.6719,645.4844 Q1853.4219,645.4844 1854.1094,645.1719 Q1854.8125,644.8594 1855.5625,644.1719 L1855.5625,647.375 Z " fill="#000000"/><text fill="#000000" font-family="sans-serif" font-size="20" lengthAdjust="spacing" textLength="234" x="1874.5" y="647.2207">JpaCustomerRepository</text><line style="stroke:#181818;stroke-width:0.5;" x1="1774" x2="2174" y1="657.2969" y2="657.2969"/><line style="stroke:#181818;stroke-width:0.5;" x1="1774" x2="2174" y1="665.2969" y2="665.2969"/><ellipse cx="1784" cy="682.4375" fill="#84BE84" rx="3" ry="3" style="stroke:#038048;stroke-width:1.0;"/><text fill="#000000" font-family="sans-serif" font-size="20" lengthAdjust="spacing" textLength="375" x="1794" y="687.8613">save(customer: Customer): Customer</text></g><!--class CandidateUserController--><g id="elem_CandidateUserController"><rect codeLine="37" fill="#FEF9E7" height="73.2813" id="CandidateUserController" rx="2.5" ry="2.5" style="stroke:#181818;stroke-width:0.5;" width="954" x="634" y="200.7969"/><ellipse cx="941.5" cy="217.7969" fill="#ADD1B2" rx="12" ry="12" style="stroke:#181818;stroke-width:1.0;"/><path d="M944.5625,224.875 Q943.875,225.2344 943.125,225.4063 Q942.375,225.5781 941.5469,225.5781 Q938.5938,225.5781 937.0313,223.6406 Q935.4844,221.6875 935.4844,218.0156 Q935.4844,214.3438 937.0313,212.4063 Q938.5938,210.4531 941.5469,210.4531 Q942.375,210.4531 943.125,210.625 Q943.8906,210.7969 944.5625,211.1563 L944.5625,214.3594 Q943.8125,213.6719 943.1094,213.3594 Q942.4219,213.0469 941.6719,213.0469 Q940.0938,213.0469 939.2813,214.2969 Q938.4844,215.5469 938.4844,218.0156 Q938.4844,220.4844 939.2813,221.7344 Q940.0938,222.9844 941.6719,222.9844 Q942.4219,222.9844 943.1094,222.6719 Q943.8125,222.3594 944.5625,221.6719 L944.5625,224.875 Z " fill="#000000"/><text fill="#000000" font-family="sans-serif" font-size="20" lengthAdjust="spacing" textLength="330" x="963.5" y="224.7207">RegisterCandidateUserController</text><line style="stroke:#181818;stroke-width:0.5;" x1="635" x2="1587" y1="234.7969" y2="234.7969"/><line style="stroke:#181818;stroke-width:0.5;" x1="635" x2="1587" y1="242.7969" y2="242.7969"/><ellipse cx="645" cy="259.9375" fill="#84BE84" rx="3" ry="3" style="stroke:#038048;stroke-width:1.0;"/><text fill="#000000" font-family="sans-serif" font-size="20" lengthAdjust="spacing" textLength="927" x="655" y="265.3613">addCustomerUser(email: String, password: String, firstName: String, lastName: String): void</text></g><!--class ManagementService--><g id="elem_ManagementService"><rect codeLine="41" fill="#FEF9E7" height="73.2813" id="ManagementService" rx="2.5" ry="2.5" style="stroke:#181818;stroke-width:0.5;" width="1040" x="1782" y="357.2969"/><ellipse cx="2172.5" cy="374.2969" fill="#ADD1B2" rx="12" ry="12" style="stroke:#181818;stroke-width:1.0;"/><path d="M2175.5625,381.375 Q2174.875,381.7344 2174.125,381.9063 Q2173.375,382.0781 2172.5469,382.0781 Q2169.5938,382.0781 2168.0313,380.1406 Q2166.4844,378.1875 2166.4844,374.5156 Q2166.4844,370.8438 2168.0313,368.9063 Q2169.5938,366.9531 2172.5469,366.9531 Q2173.375,366.9531 2174.125,367.125 Q2174.8906,367.2969 2175.5625,367.6563 L2175.5625,370.8594 Q2174.8125,370.1719 2174.1094,369.8594 Q2173.4219,369.5469 2172.6719,369.5469 Q2171.0938,369.5469 2170.2813,370.7969 Q2169.4844,372.0469 2169.4844,374.5156 Q2169.4844,376.9844 2170.2813,378.2344 Q2171.0938,379.4844 2172.6719,379.4844 Q2173.4219,379.4844 2174.1094,379.1719 Q2174.8125,378.8594 2175.5625,378.1719 L2175.5625,381.375 Z " fill="#000000"/><text fill="#000000" font-family="sans-serif" font-size="20" lengthAdjust="spacing" textLength="250" x="2194.5" y="381.2207">UserManagementService</text><line style="stroke:#181818;stroke-width:0.5;" x1="1783" x2="2821" y1="391.2969" y2="391.2969"/><line style="stroke:#181818;stroke-width:0.5;" x1="1783" x2="2821" y1="399.2969" y2="399.2969"/><ellipse cx="1793" cy="416.4375" fill="#84BE84" rx="3" ry="3" style="stroke:#038048;stroke-width:1.0;"/><text fill="#000000" font-family="sans-serif" font-size="20" lengthAdjust="spacing" textLength="1013" x="1803" y="421.8613">registerNewCustomerUser(email: String, password: String, firstName: String, lastName: String): User</text></g><!--class Factory--><g id="elem_Factory"><rect codeLine="45" fill="#FEF9E7" height="73.2813" id="Factory" rx="2.5" ry="2.5" style="stroke:#181818;stroke-width:0.5;" width="1007" x="1772.5" y="490.2969"/><ellipse cx="2183" cy="507.2969" fill="#ADD1B2" rx="12" ry="12" style="stroke:#181818;stroke-width:1.0;"/><path d="M2186.0625,514.375 Q2185.375,514.7344 2184.625,514.9063 Q2183.875,515.0781 2183.0469,515.0781 Q2180.0938,515.0781 2178.5313,513.1406 Q2176.9844,511.1875 2176.9844,507.5156 Q2176.9844,503.8438 2178.5313,501.9063 Q2180.0938,499.9531 2183.0469,499.9531 Q2183.875,499.9531 2184.625,500.125 Q2185.3906,500.2969 2186.0625,500.6563 L2186.0625,503.8594 Q2185.3125,503.1719 2184.6094,502.8594 Q2183.9219,502.5469 2183.1719,502.5469 Q2181.5938,502.5469 2180.7813,503.7969 Q2179.9844,505.0469 2179.9844,507.5156 Q2179.9844,509.9844 2180.7813,511.2344 Q2181.5938,512.4844 2183.1719,512.4844 Q2183.9219,512.4844 2184.6094,512.1719 Q2185.3125,511.8594 2186.0625,511.1719 L2186.0625,514.375 Z " fill="#000000"/><text fill="#000000" font-family="sans-serif" font-size="20" lengthAdjust="spacing" textLength="177" x="2205" y="514.2207">UserTypesFactory</text><line style="stroke:#181818;stroke-width:0.5;" x1="1773.5" x2="2778.5" y1="524.2969" y2="524.2969"/><line style="stroke:#181818;stroke-width:0.5;" x1="1773.5" x2="2778.5" y1="532.2969" y2="532.2969"/><ellipse cx="1783.5" cy="549.4375" fill="#84BE84" rx="3" ry="3" style="stroke:#038048;stroke-width:1.0;"/><text fill="#000000" font-family="sans-serif" font-size="20" lengthAdjust="spacing" textLength="980" x="1793.5" y="554.8613">withRoleCustomerUser(email: String, password: String, firstName: String, lastName: String): User</text></g><!--class UserRepository--><g id="elem_UserRepository"><rect codeLine="49" fill="#FEF9E7" height="73.2813" id="UserRepository" rx="2.5" ry="2.5" style="stroke:#181818;stroke-width:0.5;" width="247" x="2814.5" y="490.2969"/><ellipse cx="2858.4" cy="507.2969" fill="#ADD1B2" rx="12" ry="12" style="stroke:#181818;stroke-width:1.0;"/><path d="M2861.4625,514.375 Q2860.775,514.7344 2860.025,514.9063 Q2859.275,515.0781 2858.4469,515.0781 Q2855.4938,515.0781 2853.9313,513.1406 Q2852.3844,511.1875 2852.3844,507.5156 Q2852.3844,503.8438 2853.9313,501.9063 Q2855.4938,499.9531 2858.4469,499.9531 Q2859.275,499.9531 2860.025,500.125 Q2860.7906,500.2969 2861.4625,500.6563 L2861.4625,503.8594 Q2860.7125,503.1719 2860.0094,502.8594 Q2859.3219,502.5469 2858.5719,502.5469 Q2856.9938,502.5469 2856.1813,503.7969 Q2855.3844,505.0469 2855.3844,507.5156 Q2855.3844,509.9844 2856.1813,511.2344 Q2856.9938,512.4844 2858.5719,512.4844 Q2859.3219,512.4844 2860.0094,512.1719 Q2860.7125,511.8594 2861.4625,511.1719 L2861.4625,514.375 Z " fill="#000000"/><text fill="#000000" font-family="sans-serif" font-size="20" lengthAdjust="spacing" textLength="151" x="2879.6" y="514.2207">UserRepository</text><line style="stroke:#181818;stroke-width:0.5;" x1="2815.5" x2="3060.5" y1="524.2969" y2="524.2969"/><line style="stroke:#181818;stroke-width:0.5;" x1="2815.5" x2="3060.5" y1="532.2969" y2="532.2969"/><ellipse cx="2825.5" cy="549.4375" fill="#84BE84" rx="3" ry="3" style="stroke:#038048;stroke-width:1.0;"/><text fill="#000000" font-family="sans-serif" font-size="20" lengthAdjust="spacing" textLength="220" x="2835.5" y="554.8613">save(user: User): User</text></g><!--class JpaUserRepository--><g id="elem_JpaUserRepository"><rect codeLine="53" fill="#FEF9E7" height="73.2813" id="JpaUserRepository" rx="2.5" ry="2.5" style="stroke:#181818;stroke-width:0.5;" width="247" x="2512.5" y="623.2969"/><ellipse cx="2542.45" cy="640.2969" fill="#ADD1B2" rx="12" ry="12" style="stroke:#181818;stroke-width:1.0;"/><path d="M2545.5125,647.375 Q2544.825,647.7344 2544.075,647.9063 Q2543.325,648.0781 2542.4969,648.0781 Q2539.5438,648.0781 2537.9813,646.1406 Q2536.4344,644.1875 2536.4344,640.5156 Q2536.4344,636.8438 2537.9813,634.9063 Q2539.5438,632.9531 2542.4969,632.9531 Q2543.325,632.9531 2544.075,633.125 Q2544.8406,633.2969 2545.5125,633.6563 L2545.5125,636.8594 Q2544.7625,636.1719 2544.0594,635.8594 Q2543.3719,635.5469 2542.6219,635.5469 Q2541.0438,635.5469 2540.2313,636.7969 Q2539.4344,638.0469 2539.4344,640.5156 Q2539.4344,642.9844 2540.2313,644.2344 Q2541.0438,645.4844 2542.6219,645.4844 Q2543.3719,645.4844 2544.0594,645.1719 Q2544.7625,644.8594 2545.5125,644.1719 L2545.5125,647.375 Z " fill="#000000"/><text fill="#000000" font-family="sans-serif" font-size="20" lengthAdjust="spacing" textLength="182" x="2560.55" y="647.2207">JpaUserRepository</text><line style="stroke:#181818;stroke-width:0.5;" x1="2513.5" x2="2758.5" y1="657.2969" y2="657.2969"/><line style="stroke:#181818;stroke-width:0.5;" x1="2513.5" x2="2758.5" y1="665.2969" y2="665.2969"/><ellipse cx="2523.5" cy="682.4375" fill="#84BE84" rx="3" ry="3" style="stroke:#038048;stroke-width:1.0;"/><text fill="#000000" font-family="sans-serif" font-size="20" lengthAdjust="spacing" textLength="220" x="2533.5" y="687.8613">save(user: User): User</text></g><!--class DB--><g id="elem_DB"><rect codeLine="57" fill="#FEF9E7" height="50" id="DB" rx="2.5" ry="2.5" style="stroke:#181818;stroke-width:0.5;" width="128" x="2090" y="756.2969"/><ellipse cx="2106" cy="773.2969" fill="#8BEBFF" rx="12" ry="12" style="stroke:#181818;stroke-width:1.0;"/><path d="M2106.2188,768.8125 L2106.2188,778.2031 L2107,778.2031 Q2108.7031,778.2031 2109.4219,777.1406 Q2110.1406,776.0625 2110.1406,773.4844 Q2110.1406,770.9375 2109.4219,769.875 Q2108.7031,768.8125 2107,768.8125 L2106.2188,768.8125 Z M2103.3438,766.2188 L2106.4219,766.2188 Q2110,766.2188 2111.5625,767.9219 Q2113.1406,769.625 2113.1406,773.4844 Q2113.1406,777.375 2111.5625,779.0938 Q2110,780.7969 2106.4219,780.7969 L2103.3438,780.7969 L2103.3438,766.2188 Z " fill="#000000"/><text fill="#000000" font-family="sans-serif" font-size="20" lengthAdjust="spacing" textLength="94" x="2121" y="780.2207">Database</text><line style="stroke:#181818;stroke-width:0.5;" x1="2091" x2="2217" y1="790.2969" y2="790.2969"/><line style="stroke:#181818;stroke-width:0.5;" x1="2091" x2="2217" y1="798.2969" y2="798.2969"/></g><!--class CustomerController--><g id="elem_CustomerController"><rect fill="#FEF9E7" height="50" id="CustomerController" rx="2.5" ry="2.5" style="stroke:#181818;stroke-width:0.5;" width="230" x="1623" y="212.2969"/><ellipse cx="1639" cy="229.2969" fill="#ADD1B2" rx="12" ry="12" style="stroke:#181818;stroke-width:1.0;"/><path d="M1642.0625,236.375 Q1641.375,236.7344 1640.625,236.9063 Q1639.875,237.0781 1639.0469,237.0781 Q1636.0938,237.0781 1634.5313,235.1406 Q1632.9844,233.1875 1632.9844,229.5156 Q1632.9844,225.8438 1634.5313,223.9063 Q1636.0938,221.9531 1639.0469,221.9531 Q1639.875,221.9531 1640.625,222.125 Q1641.3906,222.2969 1642.0625,222.6563 L1642.0625,225.8594 Q1641.3125,225.1719 1640.6094,224.8594 Q1639.9219,224.5469 1639.1719,224.5469 Q1637.5938,224.5469 1636.7813,225.7969 Q1635.9844,227.0469 1635.9844,229.5156 Q1635.9844,231.9844 1636.7813,233.2344 Q1637.5938,234.4844 1639.1719,234.4844 Q1639.9219,234.4844 1640.6094,234.1719 Q1641.3125,233.8594 1642.0625,233.1719 L1642.0625,236.375 Z " fill="#000000"/><text fill="#000000" font-family="sans-serif" font-size="20" lengthAdjust="spacing" textLength="196" x="1654" y="236.2207">CustomerController</text><line style="stroke:#181818;stroke-width:0.5;" x1="1624" x2="1852" y1="246.2969" y2="246.2969"/><line style="stroke:#181818;stroke-width:0.5;" x1="1624" x2="1852" y1="254.2969" y2="254.2969"/></g><!--class CustomerService--><g id="elem_CustomerService"><rect fill="#FEF9E7" height="50" id="CustomerService" rx="2.5" ry="2.5" style="stroke:#181818;stroke-width:0.5;" width="204" x="1543" y="368.7969"/><ellipse cx="1559" cy="385.7969" fill="#ADD1B2" rx="12" ry="12" style="stroke:#181818;stroke-width:1.0;"/><path d="M1562.0625,392.875 Q1561.375,393.2344 1560.625,393.4063 Q1559.875,393.5781 1559.0469,393.5781 Q1556.0938,393.5781 1554.5313,391.6406 Q1552.9844,389.6875 1552.9844,386.0156 Q1552.9844,382.3438 1554.5313,380.4063 Q1556.0938,378.4531 1559.0469,378.4531 Q1559.875,378.4531 1560.625,378.625 Q1561.3906,378.7969 1562.0625,379.1563 L1562.0625,382.3594 Q1561.3125,381.6719 1560.6094,381.3594 Q1559.9219,381.0469 1559.1719,381.0469 Q1557.5938,381.0469 1556.7813,382.2969 Q1555.9844,383.5469 1555.9844,386.0156 Q1555.9844,388.4844 1556.7813,389.7344 Q1557.5938,390.9844 1559.1719,390.9844 Q1559.9219,390.9844 1560.6094,390.6719 Q1561.3125,390.3594 1562.0625,389.6719 L1562.0625,392.875 Z " fill="#000000"/><text fill="#000000" font-family="sans-serif" font-size="20" lengthAdjust="spacing" textLength="170" x="1574" y="392.7207">CustomerService</text><line style="stroke:#181818;stroke-width:0.5;" x1="1544" x2="1746" y1="402.7969" y2="402.7969"/><line style="stroke:#181818;stroke-width:0.5;" x1="1544" x2="1746" y1="410.7969" y2="410.7969"/></g><!--class Customer--><g id="elem_Customer"><rect fill="#FEF9E7" height="50" id="Customer" rx="2.5" ry="2.5" style="stroke:#181818;stroke-width:0.5;" width="131" x="1606.5" y="501.7969"/><ellipse cx="1622.5" cy="518.7969" fill="#ADD1B2" rx="12" ry="12" style="stroke:#181818;stroke-width:1.0;"/><path d="M1625.5625,525.875 Q1624.875,526.2344 1624.125,526.4063 Q1623.375,526.5781 1622.5469,526.5781 Q1619.5938,526.5781 1618.0313,524.6406 Q1616.4844,522.6875 1616.4844,519.0156 Q1616.4844,515.3438 1618.0313,513.4063 Q1619.5938,511.4531 1622.5469,511.4531 Q1623.375,511.4531 1624.125,511.625 Q1624.8906,511.7969 1625.5625,512.1563 L1625.5625,515.3594 Q1624.8125,514.6719 1624.1094,514.3594 Q1623.4219,514.0469 1622.6719,514.0469 Q1621.0938,514.0469 1620.2813,515.2969 Q1619.4844,516.5469 1619.4844,519.0156 Q1619.4844,521.4844 1620.2813,522.7344 Q1621.0938,523.9844 1622.6719,523.9844 Q1623.4219,523.9844 1624.1094,523.6719 Q1624.8125,523.3594 1625.5625,522.6719 L1625.5625,525.875 Z " fill="#000000"/><text fill="#000000" font-family="sans-serif" font-size="20" lengthAdjust="spacing" textLength="97" x="1637.5" y="525.7207">Customer</text><line style="stroke:#181818;stroke-width:0.5;" x1="1607.5" x2="1736.5" y1="535.7969" y2="535.7969"/><line style="stroke:#181818;stroke-width:0.5;" x1="1607.5" x2="1736.5" y1="543.7969" y2="543.7969"/></g><!--class CustomerUserController--><g id="elem_CustomerUserController"><rect fill="#FEF9E7" height="50" id="CustomerUserController" rx="2.5" ry="2.5" style="stroke:#181818;stroke-width:0.5;" width="275" x="2072.5" y="212.2969"/><ellipse cx="2088.5" cy="229.2969" fill="#ADD1B2" rx="12" ry="12" style="stroke:#181818;stroke-width:1.0;"/><path d="M2091.5625,236.375 Q2090.875,236.7344 2090.125,236.9063 Q2089.375,237.0781 2088.5469,237.0781 Q2085.5938,237.0781 2084.0313,235.1406 Q2082.4844,233.1875 2082.4844,229.5156 Q2082.4844,225.8438 2084.0313,223.9063 Q2085.5938,221.9531 2088.5469,221.9531 Q2089.375,221.9531 2090.125,222.125 Q2090.8906,222.2969 2091.5625,222.6563 L2091.5625,225.8594 Q2090.8125,225.1719 2090.1094,224.8594 Q2089.4219,224.5469 2088.6719,224.5469 Q2087.0938,224.5469 2086.2813,225.7969 Q2085.4844,227.0469 2085.4844,229.5156 Q2085.4844,231.9844 2086.2813,233.2344 Q2087.0938,234.4844 2088.6719,234.4844 Q2089.4219,234.4844 2090.1094,234.1719 Q2090.8125,233.8594 2091.5625,233.1719 L2091.5625,236.375 Z " fill="#000000"/><text fill="#000000" font-family="sans-serif" font-size="20" lengthAdjust="spacing" textLength="241" x="2103.5" y="236.2207">CustomerUserController</text><line style="stroke:#181818;stroke-width:0.5;" x1="2073.5" x2="2346.5" y1="246.2969" y2="246.2969"/><line style="stroke:#181818;stroke-width:0.5;" x1="2073.5" x2="2346.5" y1="254.2969" y2="254.2969"/></g><!--link UI to CustomerController--><g id="link_UI_CustomerController"><path codeLine="60" d="M1937.12,105.9369 C1894.3,133.9769 1823.84,180.0969 1779.24,209.2969 " fill="none" id="UI-to-CustomerController" style="stroke:#000000;stroke-width:1.0;"/><polygon fill="#000000" points="1775,212.0669,1784.7201,210.4797,1779.1821,209.3264,1780.3354,203.7884,1775,212.0669" style="stroke:#000000;stroke-width:1.0;"/></g><!--link CustomerController to CustomerService--><g id="link_CustomerController_CustomerService"><path codeLine="61" d="M1723.47,262.4369 C1706.93,289.9069 1679.94,334.7469 1662.33,364.0169 " fill="none" id="CustomerController-to-CustomerService" style="stroke:#000000;stroke-width:1.0;"/><polygon fill="#000000" points="1659.58,368.5669,1667.6404,362.9074,1662.1525,364.2794,1660.7805,358.7915,1659.58,368.5669" style="stroke:#000000;stroke-width:1.0;"/></g><!--link CustomerService to Customer--><g id="link_CustomerService_Customer"><path codeLine="62" d="M1649.95,418.8269 C1654.45,440.6569 1661.11,472.9469 1665.93,496.3369 " fill="none" id="CustomerService-to-Customer" style="stroke:#000000;stroke-width:1.0;"/><polygon fill="#000000" points="1666.99,501.4769,1669.0827,491.8529,1665.9765,496.5807,1661.2487,493.4745,1666.99,501.4769" style="stroke:#000000;stroke-width:1.0;"/></g><!--link CustomerService to CustomerRepository--><g id="link_CustomerService_CustomerRepository"><path codeLine="63" d="M1594.56,418.8269 C1554.01,438.1369 1496.3,465.6369 1449.53,487.9069 " fill="none" id="CustomerService-to-CustomerRepository" style="stroke:#000000;stroke-width:1.0;"/><polygon fill="#000000" points="1444.76,490.1869,1454.6058,489.941,1449.2769,488.0428,1451.1752,482.7139,1444.76,490.1869" style="stroke:#000000;stroke-width:1.0;"/></g><!--link CustomerRepository to JpaCustomerRepository--><g id="link_CustomerRepository_JpaCustomerRepository"><path codeLine="64" d="M1533.85,563.3369 C1617.94,581.5669 1720.25,603.7569 1805.05,622.1569 " fill="none" id="CustomerRepository-to-JpaCustomerRepository" style="stroke:#000000;stroke-width:1.0;"/><polygon fill="#000000" points="1810.1,623.2469,1802.1657,617.4119,1805.2161,622.1758,1800.4521,625.2262,1810.1,623.2469" style="stroke:#000000;stroke-width:1.0;"/></g><!--link JpaCustomerRepository to DB--><g id="link_JpaCustomerRepository_DB"><path codeLine="65" d="M2027.52,696.3269 C2055.05,714.6069 2088.06,736.5169 2113.45,753.3769 " fill="none" id="JpaCustomerRepository-to-DB" style="stroke:#000000;stroke-width:1.0;"/><polygon fill="#000000" points="2117.78,756.2469,2112.5103,747.9264,2113.6197,753.4734,2108.0727,754.5828,2117.78,756.2469" style="stroke:#000000;stroke-width:1.0;"/></g><!--link UI to CustomerUserController--><g id="link_UI_CustomerUserController"><path codeLine="66" d="M2010.88,105.9369 C2053.7,133.9769 2124.16,180.0969 2168.76,209.2969 " fill="none" id="UI-to-CustomerUserController" style="stroke:#000000;stroke-width:1.0;"/><polygon fill="#000000" points="2173,212.0669,2167.6646,203.7884,2168.8179,209.3264,2163.2799,210.4797,2173,212.0669" style="stroke:#000000;stroke-width:1.0;"/></g><!--link CustomerUserController to ManagementService--><g id="link_CustomerUserController_ManagementService"><path codeLine="67" d="M2224.38,262.4369 C2238.72,286.5269 2261.01,323.9669 2278.04,352.5469 " fill="none" id="CustomerUserController-to-ManagementService" style="stroke:#000000;stroke-width:1.0;"/><polygon fill="#000000" points="2280.72,357.0569,2279.5578,347.2768,2278.1643,352.7594,2272.6818,351.3659,2280.72,357.0569" style="stroke:#000000;stroke-width:1.0;"/></g><!--link ManagementService to Factory--><g id="link_ManagementService_Factory"><path codeLine="68" d="M2294.9,430.5969 C2291.57,447.3469 2287.59,467.3869 2284.15,484.7469 " fill="none" id="ManagementService-to-Factory" style="stroke:#000000;stroke-width:1.0;"/><polygon fill="#000000" points="2283.1,490.0469,2288.7694,481.9934,2284.0696,485.1418,2280.9212,480.442,2283.1,490.0469" style="stroke:#000000;stroke-width:1.0;"/></g><!--link ManagementService to UserRepository--><g id="link_ManagementService_UserRepository"><path codeLine="69" d="M2499.74,430.3169 C2590.55,447.3069 2699.49,468.6369 2797,490.2969 C2801.07,491.2069 2805.21,492.1369 2809.38,493.0969 " fill="none" id="ManagementService-to-UserRepository" style="stroke:#000000;stroke-width:1.0;"/><polygon fill="#000000" points="2814.3,494.2369,2806.435,488.3088,2809.429,493.1084,2804.6294,496.1024,2814.3,494.2369" style="stroke:#000000;stroke-width:1.0;"/></g><!--link UserRepository to JpaUserRepository--><g id="link_UserRepository_JpaUserRepository"><path codeLine="70" d="M2855.88,563.4169 C2814.59,581.3269 2764.55,603.0369 2722.65,621.2069 " fill="none" id="UserRepository-to-JpaUserRepository" style="stroke:#000000;stroke-width:1.0;"/><polygon fill="#000000" points="2717.85,623.2969,2727.6984,623.3912,2722.4383,621.31,2724.5195,616.0499,2717.85,623.2969" style="stroke:#000000;stroke-width:1.0;"/></g><!--link JpaUserRepository to DB--><g id="link_JpaUserRepository_DB"><path codeLine="71" d="M2512.5,691.4169 C2420.52,714.2169 2298.31,744.5169 2222.97,763.1969 " fill="none" id="JpaUserRepository-to-DB" style="stroke:#000000;stroke-width:1.0;"/><polygon fill="#000000" points="2218.07,764.4169,2227.7714,766.1146,2222.9207,763.2042,2225.8311,758.3535,2218.07,764.4169" style="stroke:#000000;stroke-width:1.0;"/></g><!--SRC=[lLHTRvim57tthx3QbrHBf7GlswegKWX1ogJr8Im_u1Pkg1N7HhP9b5NxxpFW40oaQYTjFC6vn-T- -5pqZeaS5EovJ7QOqXItK70JIM5YzWlfvoaXXXcETC51Qneoo2oRJkWclfzExmdHPmMQL8nNGktJGUV6AFPS65mbKbJ2qmujXsG76SRcP7CfJ0o8Z6E7f5yWbKScChe5hhjHpWIQKuuqb_nKVbJnm0fdIXOYNKWk5RsDbj6tvPSgDbTA7ciuu9P7VXDITt6pnenfWse18cKf69nR0ONsPQDHRLOt53JThEZh6qSMTefASewgOW_WRbgV84sRw4Z07XzeR2SciZ75FJ1-_hnxe0V9qbQTpR4OrO4bw6Tou4VJK9kd8GubyxCu-KbRiKOyrRg6f1hYUxjT5Dh8FQfs4GvQOourCrATwcfwyBbh3GSS9IvyaHnM_vx3bGI3aR_AqJDAQQbhPl5ZxPjqmYLXvCrjRBT9wwDKwGNPCgNDapThMuo7zCrLIly0OVToZ_Q7q79O3pqNfbnlJtZy5mMMMfq2VzgLrn4apKMvztD5HsPUrfBZVogduneVyknIwD8g9Q6lPCqs8DP3twqNWe5dqFNbXG5zV1o5OthxDLW6KNGtcraXIxR_iybarbZsOZlIXpocCm7fV7kSDuENbiZ0afNCmVKZmqjPyiEWsuw_IMGOhaxqt4twVYzvpcbNelvLaSxDkPuwfFuDkrx-0000]--></g></svg>