<?xml version="1.0" encoding="UTF-8" standalone="no"?><svg xmlns="http://www.w3.org/2000/svg" xmlns:xlink="http://www.w3.org/1999/xlink" contentStyleType="text/css" height="1202px" preserveAspectRatio="none" style="width:4378px;height:1202px;background:#FFFFFF;" version="1.1" viewBox="0 0 4378 1202" width="4378px" zoomAndPan="magnify"><defs/><g><text fill="#000000" font-family="sans-serif" font-size="14" font-weight="bold" lengthAdjust="spacing" textLength="566" x="1907.5" y="27.9951">System Sequence Diagram (SSD) - List all applications for a Job Opening</text><rect fill="#FFFFFF" height="970.3125" style="stroke:#181818;stroke-width:1.0;" width="10" x="47.5" y="135.5781"/><rect fill="#FFFFFF" height="37.2813" style="stroke:#181818;stroke-width:1.0;" width="10" x="724.5" y="164.8594"/><rect fill="#FFFFFF" height="857.4688" style="stroke:#181818;stroke-width:1.0;" width="10" x="724.5" y="239.4219"/><rect fill="#FFFFFF" height="335.5313" style="stroke:#181818;stroke-width:1.0;" width="10" x="1177.5" y="276.7031"/><rect fill="#FFFFFF" height="37.2813" style="stroke:#181818;stroke-width:1.0;" width="10" x="1525.5" y="313.9844"/><rect fill="#FFFFFF" height="186.4063" style="stroke:#181818;stroke-width:1.0;" width="10" x="1705.5" y="388.5469"/><rect fill="#FFFFFF" height="111.8438" style="stroke:#181818;stroke-width:1.0;" width="10" x="1954" y="425.8281"/><rect fill="#FFFFFF" height="410.0938" style="stroke:#181818;stroke-width:1.0;" width="10" x="2218.5" y="649.5156"/><rect fill="#FFFFFF" height="335.5313" style="stroke:#181818;stroke-width:1.0;" width="10" x="2946.5" y="686.7969"/><rect fill="#FFFFFF" height="37.2813" style="stroke:#181818;stroke-width:1.0;" width="10" x="3641.5" y="724.0781"/><rect fill="#FFFFFF" height="186.4063" style="stroke:#181818;stroke-width:1.0;" width="10" x="3778" y="798.6406"/><rect fill="#FFFFFF" height="111.8438" style="stroke:#181818;stroke-width:1.0;" width="10" x="4039" y="835.9219"/><rect fill="#FFFFFF" height="37.2813" style="stroke:#181818;stroke-width:1.0;" width="10" x="4322" y="463.1094"/><rect fill="#FFFFFF" height="37.2813" style="stroke:#181818;stroke-width:1.0;" width="10" x="4322" y="873.2031"/><line style="stroke:#181818;stroke-width:0.5;stroke-dasharray:5.0,5.0;" x1="52" x2="52" y1="125.5781" y2="1114.8906"/><line style="stroke:#181818;stroke-width:0.5;stroke-dasharray:5.0,5.0;" x1="729.5" x2="729.5" y1="125.5781" y2="1114.8906"/><line style="stroke:#181818;stroke-width:0.5;stroke-dasharray:5.0,5.0;" x1="1182.5" x2="1182.5" y1="125.5781" y2="1114.8906"/><line style="stroke:#181818;stroke-width:0.5;stroke-dasharray:5.0,5.0;" x1="1530" x2="1530" y1="125.5781" y2="1114.8906"/><line style="stroke:#181818;stroke-width:0.5;stroke-dasharray:5.0,5.0;" x1="1710" x2="1710" y1="125.5781" y2="1114.8906"/><line style="stroke:#181818;stroke-width:0.5;stroke-dasharray:5.0,5.0;" x1="1959" x2="1959" y1="125.5781" y2="1114.8906"/><line style="stroke:#181818;stroke-width:0.5;stroke-dasharray:5.0,5.0;" x1="2223" x2="2223" y1="125.5781" y2="1114.8906"/><line style="stroke:#181818;stroke-width:0.5;stroke-dasharray:5.0,5.0;" x1="2951" x2="2951" y1="125.5781" y2="1114.8906"/><line style="stroke:#181818;stroke-width:0.5;stroke-dasharray:5.0,5.0;" x1="3646.5" x2="3646.5" y1="125.5781" y2="1114.8906"/><line style="stroke:#181818;stroke-width:0.5;stroke-dasharray:5.0,5.0;" x1="3782.5" x2="3782.5" y1="125.5781" y2="1114.8906"/><line style="stroke:#181818;stroke-width:0.5;stroke-dasharray:5.0,5.0;" x1="4044" x2="4044" y1="125.5781" y2="1114.8906"/><line style="stroke:#181818;stroke-width:0.5;stroke-dasharray:5.0,5.0;" x1="4327" x2="4327" y1="125.5781" y2="1114.8906"/><text fill="#000000" font-family="sans-serif" font-size="20" lengthAdjust="spacing" textLength="89" x="5" y="120.8613">Operator</text><ellipse cx="52.5" cy="50.7969" fill="#E3E3E3" rx="8" ry="8" style="stroke:#181818;stroke-width:0.5;"/><path d="M52.5,58.7969 L52.5,85.7969 M39.5,66.7969 L65.5,66.7969 M52.5,85.7969 L39.5,100.7969 M52.5,85.7969 L65.5,100.7969 " fill="none" style="stroke:#181818;stroke-width:0.5;"/><text fill="#000000" font-family="sans-serif" font-size="20" lengthAdjust="spacing" textLength="89" x="5" y="1132.4551">Operator</text><ellipse cx="52.5" cy="1145.6719" fill="#E3E3E3" rx="8" ry="8" style="stroke:#181818;stroke-width:0.5;"/><path d="M52.5,1153.6719 L52.5,1180.6719 M39.5,1161.6719 L65.5,1161.6719 M52.5,1180.6719 L39.5,1195.6719 M52.5,1180.6719 L65.5,1195.6719 " fill="none" style="stroke:#181818;stroke-width:0.5;"/><rect fill="#E3E3E3" height="37.2813" rx="2.5" ry="2.5" style="stroke:#181818;stroke-width:0.5;" width="332" x="563.5" y="87.2969"/><text fill="#000000" font-family="sans-serif" font-size="20" lengthAdjust="spacing" textLength="318" x="570.5" y="112.8613">RegisterCandidateCreateUserUI</text><rect fill="#E3E3E3" height="37.2813" rx="2.5" ry="2.5" style="stroke:#181818;stroke-width:0.5;" width="332" x="563.5" y="1113.8906"/><text fill="#000000" font-family="sans-serif" font-size="20" lengthAdjust="spacing" textLength="318" x="570.5" y="1139.4551">RegisterCandidateCreateUserUI</text><rect fill="#E3E3E3" height="37.2813" rx="2.5" ry="2.5" style="stroke:#181818;stroke-width:0.5;" width="410" x="977.5" y="87.2969"/><text fill="#000000" font-family="sans-serif" font-size="20" lengthAdjust="spacing" textLength="396" x="984.5" y="112.8613">RegisterCandidateCreateUserController</text><rect fill="#E3E3E3" height="37.2813" rx="2.5" ry="2.5" style="stroke:#181818;stroke-width:0.5;" width="410" x="977.5" y="1113.8906"/><text fill="#000000" font-family="sans-serif" font-size="20" lengthAdjust="spacing" textLength="396" x="984.5" y="1139.4551">RegisterCandidateCreateUserController</text><rect fill="#E3E3E3" height="37.2813" rx="2.5" ry="2.5" style="stroke:#181818;stroke-width:0.5;" width="117" x="1472" y="87.2969"/><text fill="#000000" font-family="sans-serif" font-size="20" lengthAdjust="spacing" textLength="103" x="1479" y="112.8613">Candidate</text><rect fill="#E3E3E3" height="37.2813" rx="2.5" ry="2.5" style="stroke:#181818;stroke-width:0.5;" width="117" x="1472" y="1113.8906"/><text fill="#000000" font-family="sans-serif" font-size="20" lengthAdjust="spacing" textLength="103" x="1479" y="1139.4551">Candidate</text><rect fill="#E3E3E3" height="37.2813" rx="2.5" ry="2.5" style="stroke:#181818;stroke-width:0.5;" width="223" x="1599" y="87.2969"/><text fill="#000000" font-family="sans-serif" font-size="20" lengthAdjust="spacing" textLength="209" x="1606" y="112.8613">CandidateRepository</text><rect fill="#E3E3E3" height="37.2813" rx="2.5" ry="2.5" style="stroke:#181818;stroke-width:0.5;" width="223" x="1599" y="1113.8906"/><text fill="#000000" font-family="sans-serif" font-size="20" lengthAdjust="spacing" textLength="209" x="1606" y="1139.4551">CandidateRepository</text><rect fill="#E3E3E3" height="37.2813" rx="2.5" ry="2.5" style="stroke:#181818;stroke-width:0.5;" width="254" x="1832" y="87.2969"/><text fill="#000000" font-family="sans-serif" font-size="20" lengthAdjust="spacing" textLength="240" x="1839" y="112.8613">JpaCandidateRepository</text><rect fill="#E3E3E3" height="37.2813" rx="2.5" ry="2.5" style="stroke:#181818;stroke-width:0.5;" width="254" x="1832" y="1113.8906"/><text fill="#000000" font-family="sans-serif" font-size="20" lengthAdjust="spacing" textLength="240" x="1839" y="1139.4551">JpaCandidateRepository</text><rect fill="#E3E3E3" height="37.2813" rx="2.5" ry="2.5" style="stroke:#181818;stroke-width:0.5;" width="255" x="2096" y="87.2969"/><text fill="#000000" font-family="sans-serif" font-size="20" lengthAdjust="spacing" textLength="241" x="2103" y="112.8613">CustomerUserController</text><rect fill="#E3E3E3" height="37.2813" rx="2.5" ry="2.5" style="stroke:#181818;stroke-width:0.5;" width="255" x="2096" y="1113.8906"/><text fill="#000000" font-family="sans-serif" font-size="20" lengthAdjust="spacing" textLength="241" x="2103" y="1139.4551">CustomerUserController</text><rect fill="#E3E3E3" height="37.2813" rx="2.5" ry="2.5" style="stroke:#181818;stroke-width:0.5;" width="219" x="2842" y="87.2969"/><text fill="#000000" font-family="sans-serif" font-size="20" lengthAdjust="spacing" textLength="205" x="2849" y="112.8613">ManagementService</text><rect fill="#E3E3E3" height="37.2813" rx="2.5" ry="2.5" style="stroke:#181818;stroke-width:0.5;" width="219" x="2842" y="1113.8906"/><text fill="#000000" font-family="sans-serif" font-size="20" lengthAdjust="spacing" textLength="205" x="2849" y="1139.4551">ManagementService</text><rect fill="#E3E3E3" height="37.2813" rx="2.5" ry="2.5" style="stroke:#181818;stroke-width:0.5;" width="88" x="3602.5" y="87.2969"/><text fill="#000000" font-family="sans-serif" font-size="20" lengthAdjust="spacing" textLength="74" x="3609.5" y="112.8613">Factory</text><rect fill="#E3E3E3" height="37.2813" rx="2.5" ry="2.5" style="stroke:#181818;stroke-width:0.5;" width="88" x="3602.5" y="1113.8906"/><text fill="#000000" font-family="sans-serif" font-size="20" lengthAdjust="spacing" textLength="74" x="3609.5" y="1139.4551">Factory</text><rect fill="#E3E3E3" height="37.2813" rx="2.5" ry="2.5" style="stroke:#181818;stroke-width:0.5;" width="165" x="3700.5" y="87.2969"/><text fill="#000000" font-family="sans-serif" font-size="20" lengthAdjust="spacing" textLength="151" x="3707.5" y="112.8613">UserRepository</text><rect fill="#E3E3E3" height="37.2813" rx="2.5" ry="2.5" style="stroke:#181818;stroke-width:0.5;" width="165" x="3700.5" y="1113.8906"/><text fill="#000000" font-family="sans-serif" font-size="20" lengthAdjust="spacing" textLength="151" x="3707.5" y="1139.4551">UserRepository</text><rect fill="#E3E3E3" height="37.2813" rx="2.5" ry="2.5" style="stroke:#181818;stroke-width:0.5;" width="196" x="3946" y="87.2969"/><text fill="#000000" font-family="sans-serif" font-size="20" lengthAdjust="spacing" textLength="182" x="3953" y="112.8613">JpaUserRepository</text><rect fill="#E3E3E3" height="37.2813" rx="2.5" ry="2.5" style="stroke:#181818;stroke-width:0.5;" width="196" x="3946" y="1113.8906"/><text fill="#000000" font-family="sans-serif" font-size="20" lengthAdjust="spacing" textLength="182" x="3953" y="1139.4551">JpaUserRepository</text><text fill="#000000" font-family="sans-serif" font-size="20" lengthAdjust="spacing" textLength="94" x="4277" y="120.8613">Database</text><path d="M4309,66.2969 C4309,56.2969 4327,56.2969 4327,56.2969 C4327,56.2969 4345,56.2969 4345,66.2969 L4345,92.2969 C4345,102.2969 4327,102.2969 4327,102.2969 C4327,102.2969 4309,102.2969 4309,92.2969 L4309,66.2969 " fill="#E3E3E3" style="stroke:#181818;stroke-width:1.5;"/><path d="M4309,66.2969 C4309,76.2969 4327,76.2969 4327,76.2969 C4327,76.2969 4345,76.2969 4345,66.2969 " fill="none" style="stroke:#181818;stroke-width:1.5;"/><text fill="#000000" font-family="sans-serif" font-size="20" lengthAdjust="spacing" textLength="94" x="4277" y="1132.4551">Database</text><path d="M4309,1147.1719 C4309,1137.1719 4327,1137.1719 4327,1137.1719 C4327,1137.1719 4345,1137.1719 4345,1147.1719 L4345,1173.1719 C4345,1183.1719 4327,1183.1719 4327,1183.1719 C4327,1183.1719 4309,1183.1719 4309,1173.1719 L4309,1147.1719 " fill="#E3E3E3" style="stroke:#181818;stroke-width:1.5;"/><path d="M4309,1147.1719 C4309,1157.1719 4327,1157.1719 4327,1157.1719 C4327,1157.1719 4345,1157.1719 4345,1147.1719 " fill="none" style="stroke:#181818;stroke-width:1.5;"/><rect fill="#FFFFFF" height="970.3125" style="stroke:#181818;stroke-width:1.0;" width="10" x="47.5" y="135.5781"/><rect fill="#FFFFFF" height="37.2813" style="stroke:#181818;stroke-width:1.0;" width="10" x="724.5" y="164.8594"/><rect fill="#FFFFFF" height="857.4688" style="stroke:#181818;stroke-width:1.0;" width="10" x="724.5" y="239.4219"/><rect fill="#FFFFFF" height="335.5313" style="stroke:#181818;stroke-width:1.0;" width="10" x="1177.5" y="276.7031"/><rect fill="#FFFFFF" height="37.2813" style="stroke:#181818;stroke-width:1.0;" width="10" x="1525.5" y="313.9844"/><rect fill="#FFFFFF" height="186.4063" style="stroke:#181818;stroke-width:1.0;" width="10" x="1705.5" y="388.5469"/><rect fill="#FFFFFF" height="111.8438" style="stroke:#181818;stroke-width:1.0;" width="10" x="1954" y="425.8281"/><rect fill="#FFFFFF" height="410.0938" style="stroke:#181818;stroke-width:1.0;" width="10" x="2218.5" y="649.5156"/><rect fill="#FFFFFF" height="335.5313" style="stroke:#181818;stroke-width:1.0;" width="10" x="2946.5" y="686.7969"/><rect fill="#FFFFFF" height="37.2813" style="stroke:#181818;stroke-width:1.0;" width="10" x="3641.5" y="724.0781"/><rect fill="#FFFFFF" height="186.4063" style="stroke:#181818;stroke-width:1.0;" width="10" x="3778" y="798.6406"/><rect fill="#FFFFFF" height="111.8438" style="stroke:#181818;stroke-width:1.0;" width="10" x="4039" y="835.9219"/><rect fill="#FFFFFF" height="37.2813" style="stroke:#181818;stroke-width:1.0;" width="10" x="4322" y="463.1094"/><rect fill="#FFFFFF" height="37.2813" style="stroke:#181818;stroke-width:1.0;" width="10" x="4322" y="873.2031"/><polygon fill="#181818" points="712.5,160.8594,722.5,164.8594,712.5,168.8594,716.5,164.8594" style="stroke:#181818;stroke-width:1.0;"/><line style="stroke:#181818;stroke-width:1.0;" x1="57.5" x2="718.5" y1="164.8594" y2="164.8594"/><text fill="#000000" font-family="sans-serif" font-size="20" font-weight="bold" lengthAdjust="spacing" textLength="14" x="64.5" y="158.1426">1</text><text fill="#000000" font-family="sans-serif" font-size="20" lengthAdjust="spacing" textLength="630" x="82.5" y="158.1426">Asks to register a candidate and create the corresponding user</text><polygon fill="#181818" points="68.5,198.1406,58.5,202.1406,68.5,206.1406,64.5,202.1406" style="stroke:#181818;stroke-width:1.0;"/><line style="stroke:#181818;stroke-width:1.0;" x1="62.5" x2="728.5" y1="202.1406" y2="202.1406"/><text fill="#000000" font-family="sans-serif" font-size="20" font-weight="bold" lengthAdjust="spacing" textLength="14" x="74.5" y="195.4238">2</text><text fill="#000000" font-family="sans-serif" font-size="20" lengthAdjust="spacing" textLength="258" x="92.5" y="195.4238">request data of candidate</text><polygon fill="#181818" points="712.5,235.4219,722.5,239.4219,712.5,243.4219,716.5,239.4219" style="stroke:#181818;stroke-width:1.0;"/><line style="stroke:#181818;stroke-width:1.0;" x1="57.5" x2="718.5" y1="239.4219" y2="239.4219"/><text fill="#000000" font-family="sans-serif" font-size="20" font-weight="bold" lengthAdjust="spacing" textLength="14" x="64.5" y="232.7051">3</text><text fill="#000000" font-family="sans-serif" font-size="20" lengthAdjust="spacing" textLength="118" x="82.5" y="232.7051">inserts data</text><polygon fill="#181818" points="1165.5,272.7031,1175.5,276.7031,1165.5,280.7031,1169.5,276.7031" style="stroke:#181818;stroke-width:1.0;"/><line style="stroke:#181818;stroke-width:1.0;" x1="734.5" x2="1171.5" y1="276.7031" y2="276.7031"/><text fill="#000000" font-family="sans-serif" font-size="20" font-weight="bold" lengthAdjust="spacing" textLength="14" x="741.5" y="269.9863">4</text><text fill="#000000" font-family="sans-serif" font-size="20" lengthAdjust="spacing" textLength="406" x="759.5" y="269.9863">RegisterCandidateAddUser(email,name)</text><polygon fill="#181818" points="1513.5,309.9844,1523.5,313.9844,1513.5,317.9844,1517.5,313.9844" style="stroke:#181818;stroke-width:1.0;"/><line style="stroke:#181818;stroke-width:1.0;" x1="1187.5" x2="1519.5" y1="313.9844" y2="313.9844"/><text fill="#000000" font-family="sans-serif" font-size="20" font-weight="bold" lengthAdjust="spacing" textLength="14" x="1194.5" y="307.2676">5</text><text fill="#000000" font-family="sans-serif" font-size="20" lengthAdjust="spacing" textLength="301" x="1212.5" y="307.2676">createCandidate(email,name)</text><polygon fill="#181818" points="1198.5,347.2656,1188.5,351.2656,1198.5,355.2656,1194.5,351.2656" style="stroke:#181818;stroke-width:1.0;"/><line style="stroke:#181818;stroke-width:1.0;" x1="1192.5" x2="1529.5" y1="351.2656" y2="351.2656"/><text fill="#000000" font-family="sans-serif" font-size="20" font-weight="bold" lengthAdjust="spacing" textLength="14" x="1204.5" y="344.5488">6</text><text fill="#000000" font-family="sans-serif" font-size="20" lengthAdjust="spacing" textLength="168" x="1222.5" y="344.5488">return candidate</text><polygon fill="#181818" points="1693.5,384.5469,1703.5,388.5469,1693.5,392.5469,1697.5,388.5469" style="stroke:#181818;stroke-width:1.0;"/><line style="stroke:#181818;stroke-width:1.0;" x1="1187.5" x2="1699.5" y1="388.5469" y2="388.5469"/><text fill="#000000" font-family="sans-serif" font-size="20" font-weight="bold" lengthAdjust="spacing" textLength="14" x="1194.5" y="381.8301">7</text><text fill="#000000" font-family="sans-serif" font-size="20" lengthAdjust="spacing" textLength="161" x="1212.5" y="381.8301">save(candidate)</text><polygon fill="#181818" points="1942,421.8281,1952,425.8281,1942,429.8281,1946,425.8281" style="stroke:#181818;stroke-width:1.0;"/><line style="stroke:#181818;stroke-width:1.0;" x1="1715.5" x2="1948" y1="425.8281" y2="425.8281"/><text fill="#000000" font-family="sans-serif" font-size="20" font-weight="bold" lengthAdjust="spacing" textLength="14" x="1722.5" y="419.1113">8</text><text fill="#000000" font-family="sans-serif" font-size="20" lengthAdjust="spacing" textLength="161" x="1740.5" y="419.1113">save(candidate)</text><polygon fill="#181818" points="4310,459.1094,4320,463.1094,4310,467.1094,4314,463.1094" style="stroke:#181818;stroke-width:1.0;"/><line style="stroke:#181818;stroke-width:1.0;" x1="1964" x2="4316" y1="463.1094" y2="463.1094"/><text fill="#000000" font-family="sans-serif" font-size="20" font-weight="bold" lengthAdjust="spacing" textLength="14" x="1971" y="456.3926">9</text><text fill="#000000" font-family="sans-serif" font-size="20" lengthAdjust="spacing" textLength="183" x="1989" y="456.3926">persist(candidate)</text><polygon fill="#181818" points="1975,496.3906,1965,500.3906,1975,504.3906,1971,500.3906" style="stroke:#181818;stroke-width:1.0;"/><line style="stroke:#181818;stroke-width:1.0;" x1="1969" x2="4326" y1="500.3906" y2="500.3906"/><text fill="#000000" font-family="sans-serif" font-size="20" font-weight="bold" lengthAdjust="spacing" textLength="28" x="1981" y="493.6738">10</text><text fill="#000000" font-family="sans-serif" font-size="20" lengthAdjust="spacing" textLength="168" x="2013" y="493.6738">return candidate</text><polygon fill="#181818" points="1726.5,533.6719,1716.5,537.6719,1726.5,541.6719,1722.5,537.6719" style="stroke:#181818;stroke-width:1.0;"/><line style="stroke:#181818;stroke-width:1.0;" x1="1720.5" x2="1958" y1="537.6719" y2="537.6719"/><text fill="#000000" font-family="sans-serif" font-size="20" font-weight="bold" lengthAdjust="spacing" textLength="28" x="1732.5" y="530.9551">11</text><text fill="#000000" font-family="sans-serif" font-size="20" lengthAdjust="spacing" textLength="168" x="1764.5" y="530.9551">return candidate</text><polygon fill="#181818" points="1198.5,570.9531,1188.5,574.9531,1198.5,578.9531,1194.5,574.9531" style="stroke:#181818;stroke-width:1.0;"/><line style="stroke:#181818;stroke-width:1.0;" x1="1192.5" x2="1709.5" y1="574.9531" y2="574.9531"/><text fill="#000000" font-family="sans-serif" font-size="20" font-weight="bold" lengthAdjust="spacing" textLength="28" x="1204.5" y="568.2363">12</text><text fill="#000000" font-family="sans-serif" font-size="20" lengthAdjust="spacing" textLength="168" x="1236.5" y="568.2363">return candidate</text><polygon fill="#181818" points="745.5,608.2344,735.5,612.2344,745.5,616.2344,741.5,612.2344" style="stroke:#181818;stroke-width:1.0;"/><line style="stroke:#181818;stroke-width:1.0;" x1="739.5" x2="1181.5" y1="612.2344" y2="612.2344"/><text fill="#000000" font-family="sans-serif" font-size="20" font-weight="bold" lengthAdjust="spacing" textLength="28" x="751.5" y="605.5176">13</text><text fill="#000000" font-family="sans-serif" font-size="20" lengthAdjust="spacing" textLength="168" x="783.5" y="605.5176">return candidate</text><polygon fill="#181818" points="2206.5,645.5156,2216.5,649.5156,2206.5,653.5156,2210.5,649.5156" style="stroke:#181818;stroke-width:1.0;"/><line style="stroke:#181818;stroke-width:1.0;" x1="734.5" x2="2212.5" y1="649.5156" y2="649.5156"/><text fill="#000000" font-family="sans-serif" font-size="20" font-weight="bold" lengthAdjust="spacing" textLength="28" x="741.5" y="642.7988">14</text><text fill="#000000" font-family="sans-serif" font-size="20" lengthAdjust="spacing" textLength="584" x="773.5" y="642.7988">addCustomerUser(email, password, first name, last name)</text><polygon fill="#181818" points="2934.5,682.7969,2944.5,686.7969,2934.5,690.7969,2938.5,686.7969" style="stroke:#181818;stroke-width:1.0;"/><line style="stroke:#181818;stroke-width:1.0;" x1="2228.5" x2="2940.5" y1="686.7969" y2="686.7969"/><text fill="#000000" font-family="sans-serif" font-size="20" font-weight="bold" lengthAdjust="spacing" textLength="28" x="2235.5" y="680.0801">15</text><text fill="#000000" font-family="sans-serif" font-size="20" lengthAdjust="spacing" textLength="667" x="2267.5" y="680.0801">registerNewCustomerUser(email, password, first name, last name)</text><polygon fill="#181818" points="3629.5,720.0781,3639.5,724.0781,3629.5,728.0781,3633.5,724.0781" style="stroke:#181818;stroke-width:1.0;"/><line style="stroke:#181818;stroke-width:1.0;" x1="2956.5" x2="3635.5" y1="724.0781" y2="724.0781"/><text fill="#000000" font-family="sans-serif" font-size="20" font-weight="bold" lengthAdjust="spacing" textLength="28" x="2963.5" y="717.3613">16</text><text fill="#000000" font-family="sans-serif" font-size="20" lengthAdjust="spacing" textLength="634" x="2995.5" y="717.3613">withRoleCustomerUser(email, password, first name, last name)</text><polygon fill="#181818" points="2967.5,757.3594,2957.5,761.3594,2967.5,765.3594,2963.5,761.3594" style="stroke:#181818;stroke-width:1.0;"/><line style="stroke:#181818;stroke-width:1.0;stroke-dasharray:2.0,2.0;" x1="2961.5" x2="3645.5" y1="761.3594" y2="761.3594"/><text fill="#000000" font-family="sans-serif" font-size="20" font-weight="bold" lengthAdjust="spacing" textLength="28" x="2973.5" y="754.6426">17</text><text fill="#000000" font-family="sans-serif" font-size="20" lengthAdjust="spacing" textLength="139" x="3005.5" y="754.6426">customerUser</text><polygon fill="#181818" points="3766,794.6406,3776,798.6406,3766,802.6406,3770,798.6406" style="stroke:#181818;stroke-width:1.0;"/><line style="stroke:#181818;stroke-width:1.0;" x1="2956.5" x2="3772" y1="798.6406" y2="798.6406"/><text fill="#000000" font-family="sans-serif" font-size="20" font-weight="bold" lengthAdjust="spacing" textLength="28" x="2963.5" y="791.9238">18</text><text fill="#000000" font-family="sans-serif" font-size="20" lengthAdjust="spacing" textLength="200" x="2995.5" y="791.9238">save(customerUser)</text><polygon fill="#181818" points="4027,831.9219,4037,835.9219,4027,839.9219,4031,835.9219" style="stroke:#181818;stroke-width:1.0;"/><line style="stroke:#181818;stroke-width:1.0;" x1="3788" x2="4033" y1="835.9219" y2="835.9219"/><text fill="#000000" font-family="sans-serif" font-size="20" font-weight="bold" lengthAdjust="spacing" textLength="28" x="3795" y="829.2051">19</text><text fill="#000000" font-family="sans-serif" font-size="20" lengthAdjust="spacing" textLength="200" x="3827" y="829.2051">save(customerUser)</text><polygon fill="#181818" points="4310,869.2031,4320,873.2031,4310,877.2031,4314,873.2031" style="stroke:#181818;stroke-width:1.0;"/><line style="stroke:#181818;stroke-width:1.0;" x1="4049" x2="4316" y1="873.2031" y2="873.2031"/><text fill="#000000" font-family="sans-serif" font-size="20" font-weight="bold" lengthAdjust="spacing" textLength="28" x="4056" y="866.4863">20</text><text fill="#000000" font-family="sans-serif" font-size="20" lengthAdjust="spacing" textLength="222" x="4088" y="866.4863">persist(customerUser)</text><polygon fill="#181818" points="4060,906.4844,4050,910.4844,4060,914.4844,4056,910.4844" style="stroke:#181818;stroke-width:1.0;"/><line style="stroke:#181818;stroke-width:1.0;stroke-dasharray:2.0,2.0;" x1="4054" x2="4326" y1="910.4844" y2="910.4844"/><text fill="#000000" font-family="sans-serif" font-size="20" font-weight="bold" lengthAdjust="spacing" textLength="28" x="4066" y="903.7676">21</text><text fill="#000000" font-family="sans-serif" font-size="20" lengthAdjust="spacing" textLength="113" x="4098" y="903.7676">return User</text><polygon fill="#181818" points="3799,943.7656,3789,947.7656,3799,951.7656,3795,947.7656" style="stroke:#181818;stroke-width:1.0;"/><line style="stroke:#181818;stroke-width:1.0;stroke-dasharray:2.0,2.0;" x1="3793" x2="4043" y1="947.7656" y2="947.7656"/><text fill="#000000" font-family="sans-serif" font-size="20" font-weight="bold" lengthAdjust="spacing" textLength="28" x="3805" y="941.0488">22</text><text fill="#000000" font-family="sans-serif" font-size="20" lengthAdjust="spacing" textLength="113" x="3837" y="941.0488">return User</text><polygon fill="#181818" points="2967.5,981.0469,2957.5,985.0469,2967.5,989.0469,2963.5,985.0469" style="stroke:#181818;stroke-width:1.0;"/><line style="stroke:#181818;stroke-width:1.0;stroke-dasharray:2.0,2.0;" x1="2961.5" x2="3782" y1="985.0469" y2="985.0469"/><text fill="#000000" font-family="sans-serif" font-size="20" font-weight="bold" lengthAdjust="spacing" textLength="28" x="2973.5" y="978.3301">23</text><text fill="#000000" font-family="sans-serif" font-size="20" lengthAdjust="spacing" textLength="113" x="3005.5" y="978.3301">return User</text><polygon fill="#181818" points="2239.5,1018.3281,2229.5,1022.3281,2239.5,1026.3281,2235.5,1022.3281" style="stroke:#181818;stroke-width:1.0;"/><line style="stroke:#181818;stroke-width:1.0;stroke-dasharray:2.0,2.0;" x1="2233.5" x2="2950.5" y1="1022.3281" y2="1022.3281"/><text fill="#000000" font-family="sans-serif" font-size="20" font-weight="bold" lengthAdjust="spacing" textLength="28" x="2245.5" y="1015.6113">24</text><text fill="#000000" font-family="sans-serif" font-size="20" lengthAdjust="spacing" textLength="113" x="2277.5" y="1015.6113">return User</text><polygon fill="#181818" points="745.5,1055.6094,735.5,1059.6094,745.5,1063.6094,741.5,1059.6094" style="stroke:#181818;stroke-width:1.0;"/><line style="stroke:#181818;stroke-width:1.0;stroke-dasharray:2.0,2.0;" x1="739.5" x2="2222.5" y1="1059.6094" y2="1059.6094"/><text fill="#000000" font-family="sans-serif" font-size="20" font-weight="bold" lengthAdjust="spacing" textLength="28" x="751.5" y="1052.8926">25</text><text fill="#000000" font-family="sans-serif" font-size="20" lengthAdjust="spacing" textLength="113" x="783.5" y="1052.8926">return User</text><polygon fill="#181818" points="68.5,1092.8906,58.5,1096.8906,68.5,1100.8906,64.5,1096.8906" style="stroke:#181818;stroke-width:1.0;"/><line style="stroke:#181818;stroke-width:1.0;stroke-dasharray:2.0,2.0;" x1="62.5" x2="728.5" y1="1096.8906" y2="1096.8906"/><text fill="#000000" font-family="sans-serif" font-size="20" font-weight="bold" lengthAdjust="spacing" textLength="28" x="74.5" y="1090.1738">26</text><text fill="#000000" font-family="sans-serif" font-size="20" lengthAdjust="spacing" textLength="255" x="106.5" y="1090.1738">Informs success or failure</text><!--SRC=[hLRRRjim37ttLn1vQe4M6FReXm5jWm8jTW4Qz0DOcKcqs98doGswhn_bsB9iAvSDoqCWY-JXyH59sUwagj5WLMgnem8AMcDJkaUjt4h-9lZyAREz2rHQQR4rkY9mfg78KgFOuOPMxgCaC2GSgaqPEzWj5delrGRMM5hACYSTkwu-hACALlIh8IK8bX8ttlrgjLfUmorybTO1bYLWNPTIe9DQMLXh0mZF-Wr-rAGODCkmSLerrHiPNWl73Wks6UJL0j32DrJCpsJCnaaXQrGE5Y-qONmo3wWAMQ2Z1qFy_sh9l3wrOGT-5qSzi6n6boKTaWwFOuGGsNg9_kc8qmlLsaf-aO_MtOJ7iVzpZST2VjOumMwiurCqASv9qpZy86P5N2DatgMWIE9eTnpqs1xBWL2t7ZluZ1FYuwtP-oOYPhiPwu5lQ0aMosxLEYxlsqAHxonNg8uC-DSzmEsNlZnpkBCx2qwp-8Upv_8BnmQy0D7M0BWjWT36aAqrcxdS6sRJmePaNKsrctq6pjMdpJa9TmFNlMSEUXqLI1jJK18gHLigpkviYtI2n8Z7SEWCCAlrkwBm-bvHXRAyKLZHzG0IqAF22SO8bxCCwkMTTY756Uo96lutW4tv6tADKQcOICM4TKnsQ3c6jFXELo4anJ3gq62C81YG6_8Y9D-uOTS7-U3bFSVoRBDyCgV3VOttcnmL4b-aIXpimwOwN0GoUe6n1dz_JYbTnmSL2lyYl5ILnesGd8GvO574fgvS-GgqTgzDSGDhQRXxVVtUG8dTyZhH9UbHExnRqZxCYcZKvc4oVQVzFx6RqvlFSuX-CwldrStr7FRIRLzqIVz7gFwwYFDtUt2RaiCFbIXpwl1xpEpa2utlahvb8-YKS9CBA6OzDlaCimihcMIMOtxFnMbcriFSYCP64dqwF63oypCaJRdhjv7OytboXc92xnHkX3bN8JkczB6kEOb_33nHAoS6nfaaypuxEm72g3iBVcx6zEDk-039uKdn1tPbmJP2aBN07zDhxjp6CBCZNo1-zmy0]--></g></svg>