<?xml version="1.0" encoding="UTF-8" standalone="no"?><svg xmlns="http://www.w3.org/2000/svg" xmlns:xlink="http://www.w3.org/1999/xlink" contentStyleType="text/css" height="465px" preserveAspectRatio="none" style="width:1521px;height:465px;background:#FFFFFF;" version="1.1" viewBox="0 0 1521 465" width="1521px" zoomAndPan="magnify"><defs/><g><!--cluster <<aggregate>> User--><g id="cluster_&lt;&lt;aggregate&gt;&gt; User"><path d="M8.5,178.2168 L212.5,178.2168 A3.75,3.75 0 0 1 215,180.7168 L222,207.498 L1511.5,207.498 A2.5,2.5 0 0 1 1514,209.998 L1514,455.7168 A2.5,2.5 0 0 1 1511.5,458.2168 L8.5,458.2168 A2.5,2.5 0 0 1 6,455.7168 L6,180.7168 A2.5,2.5 0 0 1 8.5,178.2168 " fill="none" style="stroke:#000000;stroke-width:1.5;"/><line style="stroke:#000000;stroke-width:1.5;" x1="6" x2="222" y1="207.498" y2="207.498"/><text fill="#000000" font-family="sans-serif" font-size="20" font-weight="bold" lengthAdjust="spacing" textLength="203" x="10" y="198.7813">«aggregate» User</text></g><!--cluster <<aggregate>> System Administrator--><g id="cluster_&lt;&lt;aggregate&gt;&gt; System Administrator"><path d="M74.5,7.2168 L475.5,7.2168 A3.75,3.75 0 0 1 478,9.7168 L485,36.498 L485.5,36.498 A2.5,2.5 0 0 1 488,38.998 L488,142.7168 A2.5,2.5 0 0 1 485.5,145.2168 L74.5,145.2168 A2.5,2.5 0 0 1 72,142.7168 L72,9.7168 A2.5,2.5 0 0 1 74.5,7.2168 " fill="none" style="stroke:#000000;stroke-width:1.5;"/><line style="stroke:#000000;stroke-width:1.5;" x1="72" x2="485" y1="36.498" y2="36.498"/><text fill="#000000" font-family="sans-serif" font-size="20" font-weight="bold" lengthAdjust="spacing" textLength="400" x="76" y="27.7813">«aggregate» System Administrator</text></g><!--cluster <<aggregate>> Customer Manager--><g id="cluster_&lt;&lt;aggregate&gt;&gt; Customer Manager"><path d="M514.5,7.2168 L883.5,7.2168 A3.75,3.75 0 0 1 886,9.7168 L893,36.498 L893.5,36.498 A2.5,2.5 0 0 1 896,38.998 L896,142.7168 A2.5,2.5 0 0 1 893.5,145.2168 L514.5,145.2168 A2.5,2.5 0 0 1 512,142.7168 L512,9.7168 A2.5,2.5 0 0 1 514.5,7.2168 " fill="none" style="stroke:#000000;stroke-width:1.5;"/><line style="stroke:#000000;stroke-width:1.5;" x1="512" x2="893" y1="36.498" y2="36.498"/><text fill="#000000" font-family="sans-serif" font-size="20" font-weight="bold" lengthAdjust="spacing" textLength="368" x="516" y="27.7813">«aggregate» Customer Manager</text></g><!--cluster <<aggregate>> Operator--><g id="cluster_&lt;&lt;aggregate&gt;&gt; Operator"><path d="M922.5,7.2168 L1177.5,7.2168 A3.75,3.75 0 0 1 1180,9.7168 L1187,36.498 L1187.5,36.498 A2.5,2.5 0 0 1 1190,38.998 L1190,142.7168 A2.5,2.5 0 0 1 1187.5,145.2168 L922.5,145.2168 A2.5,2.5 0 0 1 920,142.7168 L920,9.7168 A2.5,2.5 0 0 1 922.5,7.2168 " fill="none" style="stroke:#000000;stroke-width:1.5;"/><line style="stroke:#000000;stroke-width:1.5;" x1="920" x2="1187" y1="36.498" y2="36.498"/><text fill="#000000" font-family="sans-serif" font-size="20" font-weight="bold" lengthAdjust="spacing" textLength="254" x="924" y="27.7813">«aggregate» Operator</text></g><!--class User--><g id="elem_User"><rect codeLine="10" fill="#F5F5DC" height="79.8438" id="User" rx="2.5" ry="2.5" style="stroke:#181818;stroke-width:0.5;" width="113" x="645.5" y="220.2168"/><ellipse cx="661.5" cy="260.1387" fill="#ADD1B2" rx="12" ry="12" style="stroke:#181818;stroke-width:1.0;"/><path d="M666.2188,267.6387 L657.1406,267.6387 L657.1406,253.0605 L666.2188,253.0605 L666.2188,255.5918 L660.0156,255.5918 L660.0156,258.748 L665.6406,258.748 L665.6406,261.2793 L660.0156,261.2793 L660.0156,265.0918 L666.2188,265.0918 L666.2188,267.6387 Z " fill="#000000"/><text fill="#000000" font-family="sans-serif" font-size="20" font-style="italic" lengthAdjust="spacing" textLength="83" x="674.5" y="243.7813">«entity»</text><text fill="#000000" font-family="sans-serif" font-size="20" font-style="italic" lengthAdjust="spacing" textLength="64" x="684" y="267.0625">«root»</text><text fill="#000000" font-family="sans-serif" font-size="20" lengthAdjust="spacing" textLength="45" x="693.5" y="290.3438">User</text></g><!--class Email--><g id="elem_Email"><rect codeLine="12" fill="#F5F5DC" height="56.5625" id="Email" rx="2.5" ry="2.5" style="stroke:#181818;stroke-width:0.5;" width="177" x="21.5" y="385.2168"/><ellipse cx="37.5" cy="413.498" fill="#FF8B40" rx="12" ry="12" style="stroke:#181818;stroke-width:1.0;"/><path d="M37.5156,419.3418 L40.0781,407.1699 L42.9844,407.1699 L39.5156,421.748 L35.5313,421.748 L32.0625,407.1699 L34.9531,407.1699 L37.5156,419.3418 Z " fill="#000000"/><text fill="#000000" font-family="sans-serif" font-size="20" font-style="italic" lengthAdjust="spacing" textLength="147" x="50.5" y="408.7813">«value object»</text><text fill="#000000" font-family="sans-serif" font-size="20" lengthAdjust="spacing" textLength="57" x="95.5" y="432.0625">Email</text></g><!--class FullName--><g id="elem_FullName"><rect codeLine="13" fill="#F5F5DC" height="56.5625" id="FullName" rx="2.5" ry="2.5" style="stroke:#181818;stroke-width:0.5;" width="177" x="233.5" y="385.2168"/><ellipse cx="249.5" cy="413.498" fill="#FF8B40" rx="12" ry="12" style="stroke:#181818;stroke-width:1.0;"/><path d="M249.5156,419.3418 L252.0781,407.1699 L254.9844,407.1699 L251.5156,421.748 L247.5313,421.748 L244.0625,407.1699 L246.9531,407.1699 L249.5156,419.3418 Z " fill="#000000"/><text fill="#000000" font-family="sans-serif" font-size="20" font-style="italic" lengthAdjust="spacing" textLength="147" x="262.5" y="408.7813">«value object»</text><text fill="#000000" font-family="sans-serif" font-size="20" lengthAdjust="spacing" textLength="96" x="288" y="432.0625">FullName</text></g><!--class Password--><g id="elem_Password"><rect codeLine="14" fill="#F5F5DC" height="56.5625" id="Password" rx="2.5" ry="2.5" style="stroke:#181818;stroke-width:0.5;" width="177" x="445.5" y="385.2168"/><ellipse cx="461.5" cy="413.498" fill="#FF8B40" rx="12" ry="12" style="stroke:#181818;stroke-width:1.0;"/><path d="M461.5156,419.3418 L464.0781,407.1699 L466.9844,407.1699 L463.5156,421.748 L459.5313,421.748 L456.0625,407.1699 L458.9531,407.1699 L461.5156,419.3418 Z " fill="#000000"/><text fill="#000000" font-family="sans-serif" font-size="20" font-style="italic" lengthAdjust="spacing" textLength="147" x="474.5" y="408.7813">«value object»</text><text fill="#000000" font-family="sans-serif" font-size="20" lengthAdjust="spacing" textLength="94" x="501" y="432.0625">Password</text></g><!--class TaxPayerNumber--><g id="elem_TaxPayerNumber"><rect codeLine="15" fill="#F5F5DC" height="56.5625" id="TaxPayerNumber" rx="2.5" ry="2.5" style="stroke:#181818;stroke-width:0.5;" width="205" x="657.5" y="385.2168"/><ellipse cx="673.5" cy="413.498" fill="#FF8B40" rx="12" ry="12" style="stroke:#181818;stroke-width:1.0;"/><path d="M673.5156,419.3418 L676.0781,407.1699 L678.9844,407.1699 L675.5156,421.748 L671.5313,421.748 L668.0625,407.1699 L670.9531,407.1699 L673.5156,419.3418 Z " fill="#000000"/><text fill="#000000" font-family="sans-serif" font-size="20" font-style="italic" lengthAdjust="spacing" textLength="147" x="700.5" y="408.7813">«value object»</text><text fill="#000000" font-family="sans-serif" font-size="20" lengthAdjust="spacing" textLength="171" x="688.5" y="432.0625">TaxPayerNumber</text></g><!--class BirthDate--><g id="elem_BirthDate"><rect codeLine="16" fill="#F5F5DC" height="56.5625" id="BirthDate" rx="2.5" ry="2.5" style="stroke:#181818;stroke-width:0.5;" width="177" x="897.5" y="385.2168"/><ellipse cx="913.5" cy="413.498" fill="#FF8B40" rx="12" ry="12" style="stroke:#181818;stroke-width:1.0;"/><path d="M913.5156,419.3418 L916.0781,407.1699 L918.9844,407.1699 L915.5156,421.748 L911.5313,421.748 L908.0625,407.1699 L910.9531,407.1699 L913.5156,419.3418 Z " fill="#000000"/><text fill="#000000" font-family="sans-serif" font-size="20" font-style="italic" lengthAdjust="spacing" textLength="147" x="926.5" y="408.7813">«value object»</text><text fill="#000000" font-family="sans-serif" font-size="20" lengthAdjust="spacing" textLength="96" x="952" y="432.0625">BirthDate</text></g><!--class CreatedOn--><g id="elem_CreatedOn"><rect codeLine="17" fill="#F5F5DC" height="56.5625" id="CreatedOn" rx="2.5" ry="2.5" style="stroke:#181818;stroke-width:0.5;" width="177" x="1109.5" y="385.2168"/><ellipse cx="1125.5" cy="413.498" fill="#FF8B40" rx="12" ry="12" style="stroke:#181818;stroke-width:1.0;"/><path d="M1125.5156,419.3418 L1128.0781,407.1699 L1130.9844,407.1699 L1127.5156,421.748 L1123.5313,421.748 L1120.0625,407.1699 L1122.9531,407.1699 L1125.5156,419.3418 Z " fill="#000000"/><text fill="#000000" font-family="sans-serif" font-size="20" font-style="italic" lengthAdjust="spacing" textLength="147" x="1138.5" y="408.7813">«value object»</text><text fill="#000000" font-family="sans-serif" font-size="20" lengthAdjust="spacing" textLength="108" x="1158" y="432.0625">CreatedOn</text></g><!--class Active--><g id="elem_Active"><rect codeLine="18" fill="#F5F5DC" height="56.5625" id="Active" rx="2.5" ry="2.5" style="stroke:#181818;stroke-width:0.5;" width="177" x="1321.5" y="385.2168"/><ellipse cx="1337.5" cy="413.498" fill="#FF8B40" rx="12" ry="12" style="stroke:#181818;stroke-width:1.0;"/><path d="M1337.5156,419.3418 L1340.0781,407.1699 L1342.9844,407.1699 L1339.5156,421.748 L1335.5313,421.748 L1332.0625,407.1699 L1334.9531,407.1699 L1337.5156,419.3418 Z " fill="#000000"/><text fill="#000000" font-family="sans-serif" font-size="20" font-style="italic" lengthAdjust="spacing" textLength="147" x="1350.5" y="408.7813">«value object»</text><text fill="#000000" font-family="sans-serif" font-size="20" lengthAdjust="spacing" textLength="62" x="1393" y="432.0625">Active</text></g><!--class Admin--><g id="elem_Admin"><rect codeLine="22" fill="#F5F5DC" height="79.8438" id="Admin" rx="2.5" ry="2.5" style="stroke:#181818;stroke-width:0.5;" width="113" x="358.5" y="49.2168"/><ellipse cx="374.5" cy="89.1387" fill="#ADD1B2" rx="12" ry="12" style="stroke:#181818;stroke-width:1.0;"/><path d="M379.2188,96.6387 L370.1406,96.6387 L370.1406,82.0605 L379.2188,82.0605 L379.2188,84.5918 L373.0156,84.5918 L373.0156,87.748 L378.6406,87.748 L378.6406,90.2793 L373.0156,90.2793 L373.0156,94.0918 L379.2188,94.0918 L379.2188,96.6387 Z " fill="#000000"/><text fill="#000000" font-family="sans-serif" font-size="20" font-style="italic" lengthAdjust="spacing" textLength="83" x="387.5" y="72.7813">«entity»</text><text fill="#000000" font-family="sans-serif" font-size="20" font-style="italic" lengthAdjust="spacing" textLength="64" x="397" y="96.0625">«root»</text><text fill="#000000" font-family="sans-serif" font-size="20" lengthAdjust="spacing" textLength="66" x="396" y="119.3438">Admin</text></g><!--class CustomerManager--><g id="elem_CustomerManager"><rect codeLine="26" fill="#F5F5DC" height="79.8438" id="CustomerManager" rx="2.5" ry="2.5" style="stroke:#181818;stroke-width:0.5;" width="218" x="593" y="49.2168"/><ellipse cx="609" cy="89.1387" fill="#ADD1B2" rx="12" ry="12" style="stroke:#181818;stroke-width:1.0;"/><path d="M613.7188,96.6387 L604.6406,96.6387 L604.6406,82.0605 L613.7188,82.0605 L613.7188,84.5918 L607.5156,84.5918 L607.5156,87.748 L613.1406,87.748 L613.1406,90.2793 L607.5156,90.2793 L607.5156,94.0918 L613.7188,94.0918 L613.7188,96.6387 Z " fill="#000000"/><text fill="#000000" font-family="sans-serif" font-size="20" font-style="italic" lengthAdjust="spacing" textLength="83" x="674.5" y="72.7813">«entity»</text><text fill="#000000" font-family="sans-serif" font-size="20" font-style="italic" lengthAdjust="spacing" textLength="64" x="684" y="96.0625">«root»</text><text fill="#000000" font-family="sans-serif" font-size="20" lengthAdjust="spacing" textLength="184" x="624" y="119.3438">CustomerManager</text></g><!--class Operator--><g id="elem_Operator"><rect codeLine="30" fill="#F5F5DC" height="79.8438" id="Operator" rx="2.5" ry="2.5" style="stroke:#181818;stroke-width:0.5;" width="123" x="936.5" y="49.2168"/><ellipse cx="952.5" cy="89.1387" fill="#ADD1B2" rx="12" ry="12" style="stroke:#181818;stroke-width:1.0;"/><path d="M957.2188,96.6387 L948.1406,96.6387 L948.1406,82.0605 L957.2188,82.0605 L957.2188,84.5918 L951.0156,84.5918 L951.0156,87.748 L956.6406,87.748 L956.6406,90.2793 L951.0156,90.2793 L951.0156,94.0918 L957.2188,94.0918 L957.2188,96.6387 Z " fill="#000000"/><text fill="#000000" font-family="sans-serif" font-size="20" font-style="italic" lengthAdjust="spacing" textLength="83" x="970.5" y="72.7813">«entity»</text><text fill="#000000" font-family="sans-serif" font-size="20" font-style="italic" lengthAdjust="spacing" textLength="64" x="980" y="96.0625">«root»</text><text fill="#000000" font-family="sans-serif" font-size="20" lengthAdjust="spacing" textLength="89" x="967.5" y="119.3438">Operator</text></g><!--link User to Email--><g id="link_User_Email"><path codeLine="33" d="M645.38,261.0268 C519.1,261.7268 219.48,269.8768 142,330.2168 C126.73,342.1068 118.74,362.2768 114.56,379.6868 " fill="none" id="User-to-Email" style="stroke:#222222;stroke-width:1.0;"/><polygon fill="#222222" points="113.39,384.9968,119.225,377.0625,114.461,380.1129,111.4107,375.3489,113.39,384.9968" style="stroke:#222222;stroke-width:1.0;"/><text fill="#000000" font-family="sans-serif" font-size="20" lengthAdjust="spacing" textLength="167" x="143" y="349.7813">characterized by</text><text fill="#000000" font-family="sans-serif" font-size="20" lengthAdjust="spacing" textLength="13" x="99.7486" y="372.34">1</text></g><!--link User to FullName--><g id="link_User_FullName"><path codeLine="34" d="M645.5,263.7168 C552.37,269.1068 372.77,285.1868 331,330.2168 C318.84,343.3368 316.35,363.1268 317.02,380.0468 " fill="none" id="User-to-FullName" style="stroke:#222222;stroke-width:1.0;"/><polygon fill="#222222" points="317.33,385.1868,320.7822,375.9628,317.0297,380.1958,312.7967,376.4433,317.33,385.1868" style="stroke:#222222;stroke-width:1.0;"/><text fill="#000000" font-family="sans-serif" font-size="20" lengthAdjust="spacing" textLength="167" x="332" y="349.7813">characterized by</text><text fill="#000000" font-family="sans-serif" font-size="20" lengthAdjust="spacing" textLength="13" x="302.0262" y="372.5692">1</text></g><!--link User to Password--><g id="link_User_Password"><path codeLine="35" d="M645.43,265.3268 C601.82,271.8168 544.18,288.3368 515,330.2168 C504.87,344.7468 508.49,363.8868 515.16,380.0668 " fill="none" id="User-to-Password" style="stroke:#222222;stroke-width:1.0;"/><polygon fill="#222222" points="517.32,384.9868,517.3515,375.138,515.3039,380.4113,510.0306,378.3637,517.32,384.9868" style="stroke:#222222;stroke-width:1.0;"/><text fill="#000000" font-family="sans-serif" font-size="20" lengthAdjust="spacing" textLength="167" x="516" y="349.7813">characterized by</text><text fill="#000000" font-family="sans-serif" font-size="20" lengthAdjust="spacing" textLength="13" x="499.5391" y="372.3279">1</text></g><!--link User to TaxPayerNumber--><g id="link_User_TaxPayerNumber"><path codeLine="36" d="M693.39,300.5868 C691.42,317.9768 691.69,338.2768 699,355.2168 C703.16,364.8668 709.83,373.6368 717.25,381.2768 " fill="none" id="User-to-TaxPayerNumber" style="stroke:#222222;stroke-width:1.0;"/><polygon fill="#222222" points="720.95,384.9268,717.3588,375.756,717.3931,381.4128,711.7364,381.447,720.95,384.9268" style="stroke:#222222;stroke-width:1.0;"/><text fill="#000000" font-family="sans-serif" font-size="20" lengthAdjust="spacing" textLength="167" x="700" y="349.7813">characterized by</text><text fill="#000000" font-family="sans-serif" font-size="20" lengthAdjust="spacing" textLength="13" x="698.5553" y="372.2556">1</text></g><!--link User to BirthDate--><g id="link_User_BirthDate"><path codeLine="37" d="M758.69,280.3268 C792.51,292.6668 835.78,310.1468 872,330.2168 C879.74,334.5068 915.23,360.3668 944.58,381.9968 " fill="none" id="User-to-BirthDate" style="stroke:#222222;stroke-width:1.0;"/><polygon fill="#222222" points="948.86,385.1568,944.006,376.5872,944.8412,382.182,939.2463,383.0173,948.86,385.1568" style="stroke:#222222;stroke-width:1.0;"/><text fill="#000000" font-family="sans-serif" font-size="20" lengthAdjust="spacing" textLength="167" x="906" y="349.7813">characterized by</text><text fill="#000000" font-family="sans-serif" font-size="20" lengthAdjust="spacing" textLength="13" x="926.8593" y="372.533">1</text></g><!--link User to CreatedOn--><g id="link_User_CreatedOn"><path codeLine="38" d="M758.75,263.9268 C834.81,269.2368 972.76,284.8168 1081,330.2168 C1082.07,330.6668 1121.68,358.6468 1154.52,381.8968 " fill="none" id="User-to-CreatedOn" style="stroke:#222222;stroke-width:1.0;"/><polygon fill="#222222" points="1158.9,384.9968,1153.8703,376.5291,1154.8207,382.1055,1149.2443,383.0559,1158.9,384.9968" style="stroke:#222222;stroke-width:1.0;"/><text fill="#000000" font-family="sans-serif" font-size="20" lengthAdjust="spacing" textLength="167" x="1117" y="349.7813">characterized by</text><text fill="#000000" font-family="sans-serif" font-size="20" lengthAdjust="spacing" textLength="13" x="1136.495" y="372.34">1</text></g><!--link User to Active--><g id="link_User_Active"><path codeLine="39" d="M758.85,264.3968 C886.73,272.1168 1193.43,293.9168 1290,330.2168 C1321.19,341.9368 1352.07,363.4568 1374.69,381.5768 " fill="none" id="User-to-Active" style="stroke:#222222;stroke-width:1.0;"/><polygon fill="#222222" points="1378.82,384.9168,1374.3573,376.137,1374.9394,381.7638,1369.3126,382.3459,1378.82,384.9168" style="stroke:#222222;stroke-width:1.0;"/><text fill="#000000" font-family="sans-serif" font-size="20" lengthAdjust="spacing" textLength="167" x="1336" y="349.7813">characterized by</text><text fill="#000000" font-family="sans-serif" font-size="20" lengthAdjust="spacing" textLength="13" x="1358.4018" y="372.6179">1</text></g><!--link Admin to User--><g id="link_Admin_User"><path codeLine="41" d="M471.7,123.6068 C520.54,152.3668 590.87,193.7768 640.94,223.2568 " fill="none" id="Admin-to-User" style="stroke:#222222;stroke-width:1.0;"/><polygon fill="#222222" points="645.42,225.8968,639.7093,217.8726,641.1162,223.3517,635.6371,224.7587,645.42,225.8968" style="stroke:#222222;stroke-width:1.0;"/></g><!--link CustomerManager to User--><g id="link_CustomerManager_User"><path codeLine="42" d="M702,129.4168 C702,154.9168 702,188.2368 702,214.7368 " fill="none" id="CustomerManager-to-User" style="stroke:#222222;stroke-width:1.0;"/><polygon fill="#222222" points="702,219.9368,706,210.9368,702,214.9368,698,210.9368,702,219.9368" style="stroke:#222222;stroke-width:1.0;"/></g><!--link Operator to User--><g id="link_Operator_User"><path codeLine="43" d="M936.31,125.4368 C885.49,154.4568 813.8,195.3868 763.13,224.3168 " fill="none" id="Operator-to-User" style="stroke:#222222;stroke-width:1.0;"/><polygon fill="#222222" points="758.6,226.8968,768.4005,225.9219,762.9456,224.4238,764.4437,218.9689,758.6,226.8968" style="stroke:#222222;stroke-width:1.0;"/></g><!--SRC=[bPD1Jy9048Nl-oicvQA994Wy6DEG0Dh4Wq22UjzsnxBIxfBTALW9_zsbGC46hEsXQUTzRtQxyshdKYsuuMcYepaA4FZ1iuG2hMWgln6w7SRiWO4euTRsYOmCCyBdIAi2wh2P50YOBYW7Vf3jQJL5ccbXgxq6F9h7HcTA37MY3OGeOpo1-iRerKvgTOkBiONpy1Z1ytqUnmPZJjZhmPj5uy6QCN0NAf9krMqDV7_tvXZVDrgJUrXlTbon2NXAkKoSUFL-qmg2-y5TvngMFCaGTFY9qTvmv8CiIKOynGQMYRkjj14DBA_yQy9pDACi3OlF-Azn80tD7jsfDF0C3Jg36Ai6ddv4Sbc_oERYoAQv9NH35gbKqfBXf8iHdaomq2wDy7BdOMP9f-xKNhXoShNhGTwhpVkF5tXkjuVo7msBIBRRFV1klNtm7Y2QkRH7XCRzJGB2_3TLngqEB4DM1rQYLOSV0rL77cDKH-x3SmPZkvblmQs3LOTL2kLfbvKV]--></g></svg>