<?xml version="1.0" encoding="UTF-8" standalone="no"?><svg xmlns="http://www.w3.org/2000/svg" xmlns:xlink="http://www.w3.org/1999/xlink" contentStyleType="text/css" height="912px" preserveAspectRatio="none" style="width:2972px;height:912px;background:#FFFFFF;" version="1.1" viewBox="0 0 2972 912" width="2972px" zoomAndPan="magnify"><defs/><g><text fill="#000000" font-family="sans-serif" font-size="14" font-weight="bold" lengthAdjust="spacing" textLength="187" x="1385.75" y="22.9951">Domain Model - US1002</text><!--cluster <<aggregate>> Job Opening--><g id="cluster_&lt;&lt;aggregate&gt;&gt; Job Opening"><path d="M8.5,239.5137 L296.5,239.5137 A3.75,3.75 0 0 1 299,242.0137 L306,268.7949 L1885.5,268.7949 A2.5,2.5 0 0 1 1888,271.2949 L1888,556.5137 A2.5,2.5 0 0 1 1885.5,559.0137 L8.5,559.0137 A2.5,2.5 0 0 1 6,556.5137 L6,242.0137 A2.5,2.5 0 0 1 8.5,239.5137 " fill="#EBF5FB" style="stroke:#000000;stroke-width:1.5;"/><line style="stroke:#000000;stroke-width:1.5;" x1="6" x2="306" y1="268.7949" y2="268.7949"/><text fill="#000000" font-family="sans-serif" font-size="20" font-weight="bold" lengthAdjust="spacing" textLength="287" x="10" y="260.0781">«aggregate» Job Opening</text></g><!--cluster <<aggregate>> Rank--><g id="cluster_&lt;&lt;aggregate&gt;&gt; Rank"><path d="M957.5,44.5137 L1165.5,44.5137 A3.75,3.75 0 0 1 1168,47.0137 L1175,73.7949 L1175.5,73.7949 A2.5,2.5 0 0 1 1178,76.2949 L1178,180.0137 A2.5,2.5 0 0 1 1175.5,182.5137 L957.5,182.5137 A2.5,2.5 0 0 1 955,180.0137 L955,47.0137 A2.5,2.5 0 0 1 957.5,44.5137 " fill="#EBF5FB" style="stroke:#000000;stroke-width:1.5;"/><line style="stroke:#000000;stroke-width:1.5;" x1="955" x2="1175" y1="73.7949" y2="73.7949"/><text fill="#000000" font-family="sans-serif" font-size="20" font-weight="bold" lengthAdjust="spacing" textLength="207" x="959" y="65.0781">«aggregate» Rank</text></g><!--cluster <<aggregate>> Customer--><g id="cluster_&lt;&lt;aggregate&gt;&gt; Customer"><path d="M1914.5,432.5137 L2176.5,432.5137 A3.75,3.75 0 0 1 2179,435.0137 L2186,461.7949 L2346.5,461.7949 A2.5,2.5 0 0 1 2349,464.2949 L2349,749.5137 A2.5,2.5 0 0 1 2346.5,752.0137 L1914.5,752.0137 A2.5,2.5 0 0 1 1912,749.5137 L1912,435.0137 A2.5,2.5 0 0 1 1914.5,432.5137 " fill="#EBF5FB" style="stroke:#000000;stroke-width:1.5;"/><line style="stroke:#000000;stroke-width:1.5;" x1="1912" x2="2186" y1="461.7949" y2="461.7949"/><text fill="#000000" font-family="sans-serif" font-size="20" font-weight="bold" lengthAdjust="spacing" textLength="261" x="1916" y="453.0781">«aggregate» Customer</text></g><!--cluster <<aggregate>> Plugin--><g id="cluster_&lt;&lt;aggregate&gt;&gt; Plugin"><path d="M1200.5,625.5137 L1423.5,625.5137 A3.75,3.75 0 0 1 1426,628.0137 L1433,654.7949 L1885.5,654.7949 A2.5,2.5 0 0 1 1888,657.2949 L1888,903.0137 A2.5,2.5 0 0 1 1885.5,905.5137 L1200.5,905.5137 A2.5,2.5 0 0 1 1198,903.0137 L1198,628.0137 A2.5,2.5 0 0 1 1200.5,625.5137 " fill="#EBF5FB" style="stroke:#000000;stroke-width:1.5;"/><line style="stroke:#000000;stroke-width:1.5;" x1="1198" x2="1433" y1="654.7949" y2="654.7949"/><text fill="#000000" font-family="sans-serif" font-size="20" font-weight="bold" lengthAdjust="spacing" textLength="222" x="1202" y="646.0781">«aggregate» Plugin</text></g><!--class JobOpening--><g id="elem_JobOpening"><rect codeLine="21" fill="#FDEBD0" height="79.8438" id="JobOpening" rx="2.5" ry="2.5" style="stroke:#181818;stroke-width:0.5;" width="151" x="990.5" y="281.5137"/><ellipse cx="1006.5" cy="321.4355" fill="#ADD1B2" rx="12" ry="12" style="stroke:#181818;stroke-width:1.0;"/><path d="M1011.2188,328.9355 L1002.1406,328.9355 L1002.1406,314.3574 L1011.2188,314.3574 L1011.2188,316.8887 L1005.0156,316.8887 L1005.0156,320.0449 L1010.6406,320.0449 L1010.6406,322.5762 L1005.0156,322.5762 L1005.0156,326.3887 L1011.2188,326.3887 L1011.2188,328.9355 Z " fill="#000000"/><text fill="#000000" font-family="sans-serif" font-size="20" font-style="italic" lengthAdjust="spacing" textLength="83" x="1038.5" y="305.0781">«entity»</text><text fill="#000000" font-family="sans-serif" font-size="20" font-style="italic" lengthAdjust="spacing" textLength="64" x="1048" y="328.3594">«root»</text><text fill="#000000" font-family="sans-serif" font-size="20" lengthAdjust="spacing" textLength="117" x="1021.5" y="351.6406">JobOpening</text></g><!--class JobReference--><g id="elem_JobReference"><rect codeLine="23" fill="#D6EAF8" height="56.5625" id="JobReference" rx="2.5" ry="2.5" style="stroke:#181818;stroke-width:0.5;" width="175" x="22.5" y="486.0137"/><ellipse cx="38.5" cy="514.2949" fill="#FF8B40" rx="12" ry="12" style="stroke:#181818;stroke-width:1.0;"/><path d="M38.5156,520.1387 L41.0781,507.9668 L43.9844,507.9668 L40.5156,522.5449 L36.5313,522.5449 L33.0625,507.9668 L35.9531,507.9668 L38.5156,520.1387 Z " fill="#000000"/><text fill="#000000" font-family="sans-serif" font-size="20" font-style="italic" lengthAdjust="spacing" textLength="145" x="51.5" y="509.5781">«valueObject»</text><text fill="#000000" font-family="sans-serif" font-size="20" lengthAdjust="spacing" textLength="132" x="58" y="532.8594">JobReference</text></g><!--class TitleOrFunction--><g id="elem_TitleOrFunction"><rect codeLine="24" fill="#D6EAF8" height="56.5625" id="TitleOrFunction" rx="2.5" ry="2.5" style="stroke:#181818;stroke-width:0.5;" width="190" x="233" y="486.0137"/><ellipse cx="249" cy="514.2949" fill="#FF8B40" rx="12" ry="12" style="stroke:#181818;stroke-width:1.0;"/><path d="M249.0156,520.1387 L251.5781,507.9668 L254.4844,507.9668 L251.0156,522.5449 L247.0313,522.5449 L243.5625,507.9668 L246.4531,507.9668 L249.0156,520.1387 Z " fill="#000000"/><text fill="#000000" font-family="sans-serif" font-size="20" font-style="italic" lengthAdjust="spacing" textLength="145" x="269.5" y="509.5781">«valueObject»</text><text fill="#000000" font-family="sans-serif" font-size="20" lengthAdjust="spacing" textLength="156" x="264" y="532.8594">TitleOrFunction</text></g><!--class ContractType--><g id="elem_ContractType"><rect codeLine="25" fill="#D6EAF8" height="56.5625" id="ContractType" rx="2.5" ry="2.5" style="stroke:#181818;stroke-width:0.5;" width="175" x="458.5" y="486.0137"/><ellipse cx="474.5" cy="514.2949" fill="#FF8B40" rx="12" ry="12" style="stroke:#181818;stroke-width:1.0;"/><path d="M474.5156,520.1387 L477.0781,507.9668 L479.9844,507.9668 L476.5156,522.5449 L472.5313,522.5449 L469.0625,507.9668 L471.9531,507.9668 L474.5156,520.1387 Z " fill="#000000"/><text fill="#000000" font-family="sans-serif" font-size="20" font-style="italic" lengthAdjust="spacing" textLength="145" x="487.5" y="509.5781">«valueObject»</text><text fill="#000000" font-family="sans-serif" font-size="20" lengthAdjust="spacing" textLength="134" x="493" y="532.8594">ContractType</text></g><!--class Mode--><g id="elem_Mode"><rect codeLine="26" fill="#D6EAF8" height="56.5625" id="Mode" rx="2.5" ry="2.5" style="stroke:#181818;stroke-width:0.5;" width="175" x="668.5" y="486.0137"/><ellipse cx="684.5" cy="514.2949" fill="#FF8B40" rx="12" ry="12" style="stroke:#181818;stroke-width:1.0;"/><path d="M684.5156,520.1387 L687.0781,507.9668 L689.9844,507.9668 L686.5156,522.5449 L682.5313,522.5449 L679.0625,507.9668 L681.9531,507.9668 L684.5156,520.1387 Z " fill="#000000"/><text fill="#000000" font-family="sans-serif" font-size="20" font-style="italic" lengthAdjust="spacing" textLength="145" x="697.5" y="509.5781">«valueObject»</text><text fill="#000000" font-family="sans-serif" font-size="20" lengthAdjust="spacing" textLength="54" x="743" y="532.8594">Mode</text></g><!--class Company--><g id="elem_Company"><rect codeLine="27" fill="#D6EAF8" height="56.5625" id="Company" rx="2.5" ry="2.5" style="stroke:#181818;stroke-width:0.5;" width="175" x="878.5" y="486.0137"/><ellipse cx="894.5" cy="514.2949" fill="#FF8B40" rx="12" ry="12" style="stroke:#181818;stroke-width:1.0;"/><path d="M894.5156,520.1387 L897.0781,507.9668 L899.9844,507.9668 L896.5156,522.5449 L892.5313,522.5449 L889.0625,507.9668 L891.9531,507.9668 L894.5156,520.1387 Z " fill="#000000"/><text fill="#000000" font-family="sans-serif" font-size="20" font-style="italic" lengthAdjust="spacing" textLength="145" x="907.5" y="509.5781">«valueObject»</text><text fill="#000000" font-family="sans-serif" font-size="20" lengthAdjust="spacing" textLength="95" x="932.5" y="532.8594">Company</text></g><!--class NumberOfVacancies--><g id="elem_NumberOfVacancies"><rect codeLine="28" fill="#D6EAF8" height="56.5625" id="NumberOfVacancies" rx="2.5" ry="2.5" style="stroke:#181818;stroke-width:0.5;" width="239" x="1088.5" y="486.0137"/><ellipse cx="1104.5" cy="514.2949" fill="#FF8B40" rx="12" ry="12" style="stroke:#181818;stroke-width:1.0;"/><path d="M1104.5156,520.1387 L1107.0781,507.9668 L1109.9844,507.9668 L1106.5156,522.5449 L1102.5313,522.5449 L1099.0625,507.9668 L1101.9531,507.9668 L1104.5156,520.1387 Z " fill="#000000"/><text fill="#000000" font-family="sans-serif" font-size="20" font-style="italic" lengthAdjust="spacing" textLength="145" x="1149.5" y="509.5781">«valueObject»</text><text fill="#000000" font-family="sans-serif" font-size="20" lengthAdjust="spacing" textLength="205" x="1119.5" y="532.8594">NumberOfVacancies</text></g><!--class JobDescription--><g id="elem_JobDescription"><rect codeLine="29" fill="#D6EAF8" height="56.5625" id="JobDescription" rx="2.5" ry="2.5" style="stroke:#181818;stroke-width:0.5;" width="179" x="1362.5" y="486.0137"/><ellipse cx="1378.5" cy="514.2949" fill="#FF8B40" rx="12" ry="12" style="stroke:#181818;stroke-width:1.0;"/><path d="M1378.5156,520.1387 L1381.0781,507.9668 L1383.9844,507.9668 L1380.5156,522.5449 L1376.5313,522.5449 L1373.0625,507.9668 L1375.9531,507.9668 L1378.5156,520.1387 Z " fill="#000000"/><text fill="#000000" font-family="sans-serif" font-size="20" font-style="italic" lengthAdjust="spacing" textLength="145" x="1393.5" y="509.5781">«valueObject»</text><text fill="#000000" font-family="sans-serif" font-size="20" lengthAdjust="spacing" textLength="145" x="1393.5" y="532.8594">JobDescription</text></g><!--class RequirementSpecification--><g id="elem_RequirementSpecification"><rect codeLine="30" fill="#FEF9E7" height="56.5625" id="RequirementSpecification" rx="2.5" ry="2.5" style="stroke:#181818;stroke-width:0.5;" width="295" x="1576.5" y="486.0137"/><ellipse cx="1592.5" cy="514.2949" fill="#ADD1B2" rx="12" ry="12" style="stroke:#181818;stroke-width:1.0;"/><path d="M1597.2188,521.7949 L1588.1406,521.7949 L1588.1406,507.2168 L1597.2188,507.2168 L1597.2188,509.748 L1591.0156,509.748 L1591.0156,512.9043 L1596.6406,512.9043 L1596.6406,515.4355 L1591.0156,515.4355 L1591.0156,519.248 L1597.2188,519.248 L1597.2188,521.7949 Z " fill="#000000"/><text fill="#000000" font-family="sans-serif" font-size="20" font-style="italic" lengthAdjust="spacing" textLength="83" x="1696.5" y="509.5781">«entity»</text><text fill="#000000" font-family="sans-serif" font-size="20" lengthAdjust="spacing" textLength="261" x="1607.5" y="532.8594">RequirementSpecification</text></g><!--class Rank--><g id="elem_Rank"><rect codeLine="35" fill="#FDEBD0" height="79.8438" id="Rank" rx="2.5" ry="2.5" style="stroke:#181818;stroke-width:0.5;" width="113" x="1009.5" y="86.5137"/><ellipse cx="1025.5" cy="126.4355" fill="#ADD1B2" rx="12" ry="12" style="stroke:#181818;stroke-width:1.0;"/><path d="M1030.2188,133.9355 L1021.1406,133.9355 L1021.1406,119.3574 L1030.2188,119.3574 L1030.2188,121.8887 L1024.0156,121.8887 L1024.0156,125.0449 L1029.6406,125.0449 L1029.6406,127.5762 L1024.0156,127.5762 L1024.0156,131.3887 L1030.2188,131.3887 L1030.2188,133.9355 Z " fill="#000000"/><text fill="#000000" font-family="sans-serif" font-size="20" font-style="italic" lengthAdjust="spacing" textLength="83" x="1038.5" y="110.0781">«entity»</text><text fill="#000000" font-family="sans-serif" font-size="20" font-style="italic" lengthAdjust="spacing" textLength="64" x="1048" y="133.3594">«root»</text><text fill="#000000" font-family="sans-serif" font-size="20" lengthAdjust="spacing" textLength="51" x="1054.5" y="156.6406">Rank</text></g><!--class Customer--><g id="elem_Customer"><rect codeLine="40" fill="#FDEBD0" height="79.8438" id="Customer" rx="2.5" ry="2.5" style="stroke:#181818;stroke-width:0.5;" width="131" x="2194.5" y="474.5137"/><ellipse cx="2210.5" cy="514.4355" fill="#ADD1B2" rx="12" ry="12" style="stroke:#181818;stroke-width:1.0;"/><path d="M2215.2188,521.9355 L2206.1406,521.9355 L2206.1406,507.3574 L2215.2188,507.3574 L2215.2188,509.8887 L2209.0156,509.8887 L2209.0156,513.0449 L2214.6406,513.0449 L2214.6406,515.5762 L2209.0156,515.5762 L2209.0156,519.3887 L2215.2188,519.3887 L2215.2188,521.9355 Z " fill="#000000"/><text fill="#000000" font-family="sans-serif" font-size="20" font-style="italic" lengthAdjust="spacing" textLength="83" x="2232.5" y="498.0781">«entity»</text><text fill="#000000" font-family="sans-serif" font-size="20" font-style="italic" lengthAdjust="spacing" textLength="64" x="2242" y="521.3594">«root»</text><text fill="#000000" font-family="sans-serif" font-size="20" lengthAdjust="spacing" textLength="97" x="2225.5" y="544.6406">Customer</text></g><!--class CompanyName--><g id="elem_CompanyName"><rect codeLine="42" fill="#D6EAF8" height="56.5625" id="CompanyName" rx="2.5" ry="2.5" style="stroke:#181818;stroke-width:0.5;" width="188" x="1928" y="679.0137"/><ellipse cx="1944" cy="707.2949" fill="#FF8B40" rx="12" ry="12" style="stroke:#181818;stroke-width:1.0;"/><path d="M1944.0156,713.1387 L1946.5781,700.9668 L1949.4844,700.9668 L1946.0156,715.5449 L1942.0313,715.5449 L1938.5625,700.9668 L1941.4531,700.9668 L1944.0156,713.1387 Z " fill="#000000"/><text fill="#000000" font-family="sans-serif" font-size="20" font-style="italic" lengthAdjust="spacing" textLength="145" x="1963.5" y="702.5781">«valueObject»</text><text fill="#000000" font-family="sans-serif" font-size="20" lengthAdjust="spacing" textLength="154" x="1959" y="725.8594">CompanyName</text></g><!--class CustomerCode--><g id="elem_CustomerCode"><rect codeLine="43" fill="#D6EAF8" height="56.5625" id="CustomerCode" rx="2.5" ry="2.5" style="stroke:#181818;stroke-width:0.5;" width="182" x="2151" y="679.0137"/><ellipse cx="2167" cy="707.2949" fill="#FF8B40" rx="12" ry="12" style="stroke:#181818;stroke-width:1.0;"/><path d="M2167.0156,713.1387 L2169.5781,700.9668 L2172.4844,700.9668 L2169.0156,715.5449 L2165.0313,715.5449 L2161.5625,700.9668 L2164.4531,700.9668 L2167.0156,713.1387 Z " fill="#000000"/><text fill="#000000" font-family="sans-serif" font-size="20" font-style="italic" lengthAdjust="spacing" textLength="145" x="2183.5" y="702.5781">«valueObject»</text><text fill="#000000" font-family="sans-serif" font-size="20" lengthAdjust="spacing" textLength="148" x="2182" y="725.8594">CustomerCode</text></g><!--class Plugin--><g id="elem_Plugin"><rect codeLine="49" fill="#FDEBD0" height="79.8438" id="Plugin" rx="2.5" ry="2.5" style="stroke:#181818;stroke-width:0.5;" width="113" x="1574.5" y="667.5137"/><ellipse cx="1590.5" cy="707.4355" fill="#ADD1B2" rx="12" ry="12" style="stroke:#181818;stroke-width:1.0;"/><path d="M1595.2188,714.9355 L1586.1406,714.9355 L1586.1406,700.3574 L1595.2188,700.3574 L1595.2188,702.8887 L1589.0156,702.8887 L1589.0156,706.0449 L1594.6406,706.0449 L1594.6406,708.5762 L1589.0156,708.5762 L1589.0156,712.3887 L1595.2188,712.3887 L1595.2188,714.9355 Z " fill="#000000"/><text fill="#000000" font-family="sans-serif" font-size="20" font-style="italic" lengthAdjust="spacing" textLength="83" x="1603.5" y="691.0781">«entity»</text><text fill="#000000" font-family="sans-serif" font-size="20" font-style="italic" lengthAdjust="spacing" textLength="64" x="1613" y="714.3594">«root»</text><text fill="#000000" font-family="sans-serif" font-size="20" lengthAdjust="spacing" textLength="63" x="1613.5" y="737.6406">Plugin</text></g><!--class RequirementModel--><g id="elem_RequirementModel"><rect codeLine="50" fill="#FEF9E7" height="56.5625" id="RequirementModel" rx="2.5" ry="2.5" style="stroke:#181818;stroke-width:0.5;" width="225" x="1214.5" y="832.5137"/><ellipse cx="1230.5" cy="860.7949" fill="#ADD1B2" rx="12" ry="12" style="stroke:#181818;stroke-width:1.0;"/><path d="M1235.2188,868.2949 L1226.1406,868.2949 L1226.1406,853.7168 L1235.2188,853.7168 L1235.2188,856.248 L1229.0156,856.248 L1229.0156,859.4043 L1234.6406,859.4043 L1234.6406,861.9355 L1229.0156,861.9355 L1229.0156,865.748 L1235.2188,865.748 L1235.2188,868.2949 Z " fill="#000000"/><text fill="#000000" font-family="sans-serif" font-size="20" font-style="italic" lengthAdjust="spacing" textLength="83" x="1299.5" y="856.0781">«entity»</text><text fill="#000000" font-family="sans-serif" font-size="20" lengthAdjust="spacing" textLength="191" x="1245.5" y="879.3594">RequirementModel</text></g><!--class InterviewModel--><g id="elem_InterviewModel"><rect codeLine="51" fill="#FEF9E7" height="56.5625" id="InterviewModel" rx="2.5" ry="2.5" style="stroke:#181818;stroke-width:0.5;" width="187" x="1474.5" y="832.5137"/><ellipse cx="1490.5" cy="860.7949" fill="#ADD1B2" rx="12" ry="12" style="stroke:#181818;stroke-width:1.0;"/><path d="M1495.2188,868.2949 L1486.1406,868.2949 L1486.1406,853.7168 L1495.2188,853.7168 L1495.2188,856.248 L1489.0156,856.248 L1489.0156,859.4043 L1494.6406,859.4043 L1494.6406,861.9355 L1489.0156,861.9355 L1489.0156,865.748 L1495.2188,865.748 L1495.2188,868.2949 Z " fill="#000000"/><text fill="#000000" font-family="sans-serif" font-size="20" font-style="italic" lengthAdjust="spacing" textLength="83" x="1540.5" y="856.0781">«entity»</text><text fill="#000000" font-family="sans-serif" font-size="20" lengthAdjust="spacing" textLength="153" x="1505.5" y="879.3594">InterviewModel</text></g><!--class Description--><g id="elem_Description"><rect codeLine="53" fill="#D6EAF8" height="56.5625" id="Description" rx="2.5" ry="2.5" style="stroke:#181818;stroke-width:0.5;" width="175" x="1696.5" y="832.5137"/><ellipse cx="1712.5" cy="860.7949" fill="#FF8B40" rx="12" ry="12" style="stroke:#181818;stroke-width:1.0;"/><path d="M1712.5156,866.6387 L1715.0781,854.4668 L1717.9844,854.4668 L1714.5156,869.0449 L1710.5313,869.0449 L1707.0625,854.4668 L1709.9531,854.4668 L1712.5156,866.6387 Z " fill="#000000"/><text fill="#000000" font-family="sans-serif" font-size="20" font-style="italic" lengthAdjust="spacing" textLength="145" x="1725.5" y="856.0781">«valueObject»</text><text fill="#000000" font-family="sans-serif" font-size="20" lengthAdjust="spacing" textLength="114" x="1741" y="879.3594">Description</text></g><!--class Address--><g id="elem_Address"><rect codeLine="56" fill="#D6EAF8" height="56.5625" id="Address" rx="2.5" ry="2.5" style="stroke:#181818;stroke-width:0.5;" width="175" x="2790.5" y="679.0137"/><ellipse cx="2806.5" cy="707.2949" fill="#FF8B40" rx="12" ry="12" style="stroke:#181818;stroke-width:1.0;"/><path d="M2806.5156,713.1387 L2809.0781,700.9668 L2811.9844,700.9668 L2808.5156,715.5449 L2804.5313,715.5449 L2801.0625,700.9668 L2803.9531,700.9668 L2806.5156,713.1387 Z " fill="#000000"/><text fill="#000000" font-family="sans-serif" font-size="20" font-style="italic" lengthAdjust="spacing" textLength="145" x="2819.5" y="702.5781">«valueObject»</text><text fill="#000000" font-family="sans-serif" font-size="20" lengthAdjust="spacing" textLength="80" x="2852" y="725.8594">Address</text></g><!--class PhoneNumber--><g id="elem_PhoneNumber"><rect codeLine="58" fill="#D6EAF8" height="56.5625" id="PhoneNumber" rx="2.5" ry="2.5" style="stroke:#181818;stroke-width:0.5;" width="177" x="2368.5" y="679.0137"/><ellipse cx="2384.5" cy="707.2949" fill="#FF8B40" rx="12" ry="12" style="stroke:#181818;stroke-width:1.0;"/><path d="M2384.5156,713.1387 L2387.0781,700.9668 L2389.9844,700.9668 L2386.5156,715.5449 L2382.5313,715.5449 L2379.0625,700.9668 L2381.9531,700.9668 L2384.5156,713.1387 Z " fill="#000000"/><text fill="#000000" font-family="sans-serif" font-size="20" font-style="italic" lengthAdjust="spacing" textLength="145" x="2398.5" y="702.5781">«valueObject»</text><text fill="#000000" font-family="sans-serif" font-size="20" lengthAdjust="spacing" textLength="143" x="2399.5" y="725.8594">PhoneNumber</text></g><!--class Email--><g id="elem_Email"><rect codeLine="59" fill="#D6EAF8" height="56.5625" id="Email" rx="2.5" ry="2.5" style="stroke:#181818;stroke-width:0.5;" width="175" x="2580.5" y="679.0137"/><ellipse cx="2596.5" cy="707.2949" fill="#FF8B40" rx="12" ry="12" style="stroke:#181818;stroke-width:1.0;"/><path d="M2596.5156,713.1387 L2599.0781,700.9668 L2601.9844,700.9668 L2598.5156,715.5449 L2594.5313,715.5449 L2591.0625,700.9668 L2593.9531,700.9668 L2596.5156,713.1387 Z " fill="#000000"/><text fill="#000000" font-family="sans-serif" font-size="20" font-style="italic" lengthAdjust="spacing" textLength="145" x="2609.5" y="702.5781">«valueObject»</text><text fill="#000000" font-family="sans-serif" font-size="20" lengthAdjust="spacing" textLength="57" x="2653.5" y="725.8594">Email</text></g><!--link JobOpening to JobReference--><g id="link_JobOpening_JobReference"><path codeLine="63" d="M990.45,325.7437 C809.02,334.4137 353.58,361.9537 216,424.5137 C186.27,438.0337 158.22,462.2937 138.46,482.0737 " fill="none" id="JobOpening-to-JobReference" style="stroke:#000000;stroke-width:1.0;"/><polygon fill="#000000" points="134.61,485.9637,143.7808,482.3725,138.124,482.4068,138.0898,476.75,134.61,485.9637" style="stroke:#000000;stroke-width:1.0;"/><text fill="#000000" font-family="sans-serif" font-size="20" lengthAdjust="spacing" textLength="35" x="316" y="411.0781">has</text><text fill="#000000" font-family="sans-serif" font-size="20" lengthAdjust="spacing" textLength="13" x="969.3732" y="320.614">1</text><text fill="#000000" font-family="sans-serif" font-size="20" lengthAdjust="spacing" textLength="13" x="125.3452" y="473.3419">1</text></g><!--link JobOpening to TitleOrFunction--><g id="link_JobOpening_TitleOrFunction"><path codeLine="64" d="M990.28,322.5037 C869.01,325.1437 626.06,341.4637 441,424.5137 C410.11,438.3737 380.25,462.5137 358.99,482.1537 " fill="none" id="JobOpening-to-TitleOrFunction" style="stroke:#000000;stroke-width:1.0;"/><polygon fill="#000000" points="355.12,485.7637,364.4283,482.5457,358.7748,482.3516,358.969,476.6981,355.12,485.7637" style="stroke:#000000;stroke-width:1.0;"/><text fill="#000000" font-family="sans-serif" font-size="20" lengthAdjust="spacing" textLength="35" x="521" y="411.0781">has</text><text fill="#000000" font-family="sans-serif" font-size="20" lengthAdjust="spacing" textLength="13" x="969.4434" y="342.2794">1</text><text fill="#000000" font-family="sans-serif" font-size="20" lengthAdjust="spacing" textLength="13" x="346.3729" y="473.1007">1</text></g><!--link JobOpening to ContractType--><g id="link_JobOpening_ContractType"><path codeLine="65" d="M990.41,330.4937 C904.33,341.9337 761.35,368.1737 651,424.5137 C622.47,439.0837 595.02,462.8037 575.35,482.0837 " fill="none" id="JobOpening-to-ContractType" style="stroke:#000000;stroke-width:1.0;"/><polygon fill="#000000" points="571.52,485.8837,580.7195,482.3667,575.0627,482.3553,575.0741,476.6984,571.52,485.8837" style="stroke:#000000;stroke-width:1.0;"/><text fill="#000000" font-family="sans-serif" font-size="20" lengthAdjust="spacing" textLength="35" x="726" y="411.0781">has</text><text fill="#000000" font-family="sans-serif" font-size="20" lengthAdjust="spacing" textLength="13" x="969.5858" y="351.031">1</text><text fill="#000000" font-family="sans-serif" font-size="20" lengthAdjust="spacing" textLength="13" x="562.4429" y="473.2454">1</text></g><!--link JobOpening to Mode--><g id="link_JobOpening_Mode"><path codeLine="66" d="M990.08,354.9437 C950.36,373.2237 901.67,397.7337 861,424.5137 C835.18,441.5137 808.64,464.0637 788.7,482.2137 " fill="none" id="JobOpening-to-Mode" style="stroke:#000000;stroke-width:1.0;"/><polygon fill="#000000" points="784.81,485.7837,794.144,482.6409,788.4922,482.4012,788.732,476.7494,784.81,485.7837" style="stroke:#000000;stroke-width:1.0;"/><text fill="#000000" font-family="sans-serif" font-size="20" lengthAdjust="spacing" textLength="35" x="915" y="411.0781">has</text><text fill="#000000" font-family="sans-serif" font-size="20" lengthAdjust="spacing" textLength="13" x="969.4819" y="377.6703">1</text><text fill="#000000" font-family="sans-serif" font-size="20" lengthAdjust="spacing" textLength="13" x="776.4114" y="473.1248">1</text></g><!--link JobOpening to Address--><g id="link_JobOpening_Address"><path codeLine="67" d="M1141.9,325.8837 C1380.95,336.9137 2116.13,374.1537 2349,424.5137 C2553.61,468.7637 2625.56,457.5437 2792,584.5137 C2823.26,608.3637 2847.67,646.7937 2862.38,674.1437 " fill="none" id="JobOpening-to-Address" style="stroke:#000000;stroke-width:1.0;"/><polygon fill="#000000" points="2864.83,678.7837,2864.1571,668.9578,2862.4919,674.364,2857.0857,672.6988,2864.83,678.7837" style="stroke:#000000;stroke-width:1.0;"/><text fill="#000000" font-family="sans-serif" font-size="20" lengthAdjust="spacing" textLength="35" x="2766" y="521.5781">has</text><text fill="#000000" font-family="sans-serif" font-size="20" lengthAdjust="spacing" textLength="13" x="1149.4963" y="320.811">1</text><text fill="#000000" font-family="sans-serif" font-size="20" lengthAdjust="spacing" textLength="13" x="2847.7731" y="666.1248">1</text></g><!--link JobOpening to Company--><g id="link_JobOpening_Company"><path codeLine="68" d="M1045.52,361.6237 C1027.06,396.8937 1000.23,448.1337 982.95,481.1437 " fill="none" id="JobOpening-to-Company" style="stroke:#000000;stroke-width:1.0;"/><polygon fill="#000000" points="980.47,485.8837,988.1835,479.7598,982.7858,481.4523,981.0933,476.0546,980.47,485.8837" style="stroke:#000000;stroke-width:1.0;"/><text fill="#000000" font-family="sans-serif" font-size="20" lengthAdjust="spacing" textLength="35" x="1028" y="411.0781">has</text><text fill="#000000" font-family="sans-serif" font-size="20" lengthAdjust="spacing" textLength="13" x="1028.5573" y="387.8005">1</text><text fill="#000000" font-family="sans-serif" font-size="20" lengthAdjust="spacing" textLength="13" x="969.1138" y="473.2454">1</text></g><!--link JobOpening to NumberOfVacancies--><g id="link_JobOpening_NumberOfVacancies"><path codeLine="69" d="M1095.08,361.6237 C1121.4,397.0337 1159.71,448.5537 1184.24,481.5537 " fill="none" id="JobOpening-to-NumberOfVacancies" style="stroke:#000000;stroke-width:1.0;"/><polygon fill="#000000" points="1187.46,485.8837,1185.2984,476.275,1184.476,481.8717,1178.8793,481.0493,1187.46,485.8837" style="stroke:#000000;stroke-width:1.0;"/><text fill="#000000" font-family="sans-serif" font-size="20" lengthAdjust="spacing" textLength="35" x="1133" y="411.0781">has</text><text fill="#000000" font-family="sans-serif" font-size="20" lengthAdjust="spacing" textLength="13" x="1085.3964" y="387.8005">1</text><text fill="#000000" font-family="sans-serif" font-size="20" lengthAdjust="spacing" textLength="13" x="1168.883" y="473.2454">1</text></g><!--link JobOpening to JobDescription--><g id="link_JobOpening_JobDescription"><path codeLine="70" d="M1141.62,342.4637 C1199.56,359.5437 1280.3,387.2837 1345,424.5137 C1372.6,440.3937 1400.14,463.5137 1420.37,482.2137 " fill="none" id="JobOpening-to-JobDescription" style="stroke:#000000;stroke-width:1.0;"/><polygon fill="#000000" points="1424.06,485.6437,1420.1745,476.5937,1420.3915,482.2463,1414.7388,482.4633,1424.06,485.6437" style="stroke:#000000;stroke-width:1.0;"/><text fill="#000000" font-family="sans-serif" font-size="20" lengthAdjust="spacing" textLength="35" x="1324" y="411.0781">has</text><text fill="#000000" font-family="sans-serif" font-size="20" lengthAdjust="spacing" textLength="13" x="1149.4471" y="364.1419">1</text><text fill="#000000" font-family="sans-serif" font-size="20" lengthAdjust="spacing" textLength="13" x="1404.2796" y="473.331">1</text></g><!--link JobOpening to RequirementSpecification--><g id="link_JobOpening_RequirementSpecification"><path codeLine="71" d="M1141.78,331.2337 C1240.21,344.1237 1416.31,372.5337 1559,424.5137 C1600.54,439.6437 1644.44,463.7737 1676.51,483.0937 " fill="none" id="JobOpening-to-RequirementSpecification" style="stroke:#000000;stroke-width:1.0;"/><polygon fill="#000000" points="1681.16,485.9037,1675.54,477.8157,1676.8852,483.3103,1671.3906,484.6554,1681.16,485.9037" style="stroke:#000000;stroke-width:1.0;"/><text fill="#000000" font-family="sans-serif" font-size="20" lengthAdjust="spacing" textLength="35" x="1534" y="411.0781">has</text><text fill="#000000" font-family="sans-serif" font-size="20" lengthAdjust="spacing" textLength="13" x="1149.6223" y="351.8415">1</text><text fill="#000000" font-family="sans-serif" font-size="20" lengthAdjust="spacing" textLength="13" x="1657.9836" y="473.2696">1</text></g><!--link Plugin to Description--><g id="link_Plugin_Description"><path codeLine="75" d="M1670.4,747.5337 C1695.78,772.6637 1728.35,804.9137 1752.11,828.4337 " fill="none" id="Plugin-to-Description" style="stroke:#000000;stroke-width:1.0;"/><polygon fill="#000000" points="1755.84,832.1337,1752.2488,822.9629,1752.2831,828.6196,1746.6264,828.6539,1755.84,832.1337" style="stroke:#000000;stroke-width:1.0;"/><text fill="#000000" font-family="sans-serif" font-size="20" lengthAdjust="spacing" textLength="35" x="1726" y="797.0781">has</text><text fill="#000000" font-family="sans-serif" font-size="20" lengthAdjust="spacing" textLength="13" x="1662.4378" y="774.0206">1</text><text fill="#000000" font-family="sans-serif" font-size="20" lengthAdjust="spacing" textLength="13" x="1736.0163" y="819.8191">1</text></g><!--link Plugin to InterviewModel--><g id="link_Plugin_InterviewModel"><path codeLine="76" d="M1614.78,747.5337 C1605.53,769.7637 1593.96,797.5737 1584.65,819.9737 " fill="none" id="Plugin-to-InterviewModel" style="stroke:#000000;stroke-width:1.0;"/><polygon fill="#000000" points="1579.6,832.1337,1585.5959,828.1276,1584.2041,821.0521,1578.2082,825.0582,1579.6,832.1337" style="stroke:#000000;stroke-width:1.0;"/></g><!--link Plugin to RequirementModel--><g id="link_Plugin_RequirementModel"><path codeLine="77" d="M1574.18,736.8337 C1523.13,762.2737 1448.12,799.6537 1394.13,826.5537 " fill="none" id="Plugin-to-RequirementModel" style="stroke:#000000;stroke-width:1.0;"/><polygon fill="#000000" points="1382.26,832.4737,1389.4145,833.3751,1392.9984,827.1177,1385.8439,826.2162,1382.26,832.4737" style="stroke:#000000;stroke-width:1.0;"/></g><!--link JobOpening to Customer--><g id="link_JobOpening_Customer"><path codeLine="80" d="M1141.51,329.0437 C1286.81,342.2437 1615.08,375.0937 1888,424.5137 C1993.98,443.7037 2114.99,474.3037 2189.44,494.1537 " fill="none" id="JobOpening-to-Customer" style="stroke:#000000;stroke-width:1.0;"/><polygon fill="#000000" points="2194.28,495.4437,2186.6123,489.2626,2189.4484,494.1571,2184.5538,496.9932,2194.28,495.4437" style="stroke:#000000;stroke-width:1.0;"/><text fill="#000000" font-family="sans-serif" font-size="20" lengthAdjust="spacing" textLength="35" x="1822" y="411.0781">has</text><text fill="#000000" font-family="sans-serif" font-size="20" lengthAdjust="spacing" textLength="13" x="1149.5829" y="324.2389">1</text><text fill="#000000" font-family="sans-serif" font-size="20" lengthAdjust="spacing" textLength="13" x="2173.3809" y="487.6885">1</text></g><!--link RequirementSpecification to Plugin--><g id="link_RequirementSpecification_Plugin"><path codeLine="83" d="M1710.48,543.2837 C1695.24,574.5737 1670.28,625.8537 1652.39,662.5837 " fill="none" id="RequirementSpecification-to-Plugin" style="stroke:#000000;stroke-width:1.0;"/><polygon fill="#000000" points="1650.03,667.4437,1657.5602,661.0957,1652.2145,662.9461,1650.3641,657.6005,1650.03,667.4437" style="stroke:#000000;stroke-width:1.0;"/><text fill="#000000" font-family="sans-serif" font-size="20" lengthAdjust="spacing" textLength="45" x="1689" y="604.0781">uses</text><text fill="#000000" font-family="sans-serif" font-size="20" lengthAdjust="spacing" textLength="13" x="1693.9139" y="569.0852">1</text><text fill="#000000" font-family="sans-serif" font-size="20" lengthAdjust="spacing" textLength="13" x="1654.0988" y="654.824">1</text></g><!--link Rank to JobOpening--><g id="link_Rank_JobOpening"><path codeLine="86" d="M1066,166.5737 C1066,198.2537 1066,242.9137 1066,275.9837 " fill="none" id="Rank-to-JobOpening" style="stroke:#000000;stroke-width:1.0;"/><polygon fill="#000000" points="1066,281.1837,1070,272.1837,1066,276.1837,1062,272.1837,1066,281.1837" style="stroke:#000000;stroke-width:1.0;"/><text fill="#000000" font-family="sans-serif" font-size="20" lengthAdjust="spacing" textLength="27" x="1067" y="218.0781">for</text><text fill="#000000" font-family="sans-serif" font-size="20" lengthAdjust="spacing" textLength="13" x="1052.0047" y="193.0667">1</text><text fill="#000000" font-family="sans-serif" font-size="20" lengthAdjust="spacing" textLength="13" x="1052.0047" y="268.8452">1</text></g><!--link Customer to CustomerCode--><g id="link_Customer_CustomerCode"><path codeLine="89" d="M2256.31,554.6237 C2253,589.7437 2248.2,640.7137 2245.09,673.7437 " fill="none" id="Customer-to-CustomerCode" style="stroke:#000000;stroke-width:1.0;"/><polygon fill="#000000" points="2244.6,678.8837,2249.4051,670.2865,2245.0565,673.9046,2241.4385,669.556,2244.6,678.8837" style="stroke:#000000;stroke-width:1.0;"/><text fill="#000000" font-family="sans-serif" font-size="20" lengthAdjust="spacing" textLength="35" x="2254" y="604.0781">has</text><text fill="#000000" font-family="sans-serif" font-size="20" lengthAdjust="spacing" textLength="13" x="2241.8133" y="580.8005">1</text><text fill="#000000" font-family="sans-serif" font-size="20" lengthAdjust="spacing" textLength="13" x="2230.7956" y="666.2454">1</text></g><!--link Customer to CompanyName--><g id="link_Customer_CompanyName"><path codeLine="90" d="M2211.26,554.6237 C2166.78,590.3237 2101.89,642.3937 2060.82,675.3537 " fill="none" id="Customer-to-CompanyName" style="stroke:#000000;stroke-width:1.0;"/><polygon fill="#000000" points="2056.43,678.8837,2065.9532,676.3721,2060.3302,675.755,2060.9473,670.1319,2056.43,678.8837" style="stroke:#000000;stroke-width:1.0;"/><text fill="#000000" font-family="sans-serif" font-size="20" lengthAdjust="spacing" textLength="35" x="2170" y="604.0781">has</text><text fill="#000000" font-family="sans-serif" font-size="20" lengthAdjust="spacing" textLength="13" x="2190.1466" y="580.8005">1</text><text fill="#000000" font-family="sans-serif" font-size="20" lengthAdjust="spacing" textLength="13" x="2049.1906" y="666.2454">1</text></g><!--link Customer to Address--><g id="link_Customer_Address"><path codeLine="91" d="M2325.67,518.0937 C2426.59,524.3137 2623.75,545.4737 2773,617.5137 C2802.05,631.5337 2829.66,655.5237 2849.27,675.0637 " fill="none" id="Customer-to-Address" style="stroke:#000000;stroke-width:1.0;"/><polygon fill="#000000" points="2853.09,678.9037,2849.6102,669.69,2849.576,675.3468,2843.9192,675.3125,2853.09,678.9037" style="stroke:#000000;stroke-width:1.0;"/><text fill="#000000" font-family="sans-serif" font-size="20" lengthAdjust="spacing" textLength="35" x="2748" y="604.0781">has</text><text fill="#000000" font-family="sans-serif" font-size="20" lengthAdjust="spacing" textLength="13" x="2333.5636" y="512.8158">1</text><text fill="#000000" font-family="sans-serif" font-size="20" lengthAdjust="spacing" textLength="13" x="2833.6117" y="666.2696">1</text></g><!--link Customer to Email--><g id="link_Customer_Email"><path codeLine="92" d="M2325.64,529.9637 C2389.11,545.6537 2486.63,574.4037 2563,617.5137 C2590.51,633.0437 2617.6,656.2637 2637.38,675.0937 " fill="none" id="Customer-to-Email" style="stroke:#000000;stroke-width:1.0;"/><polygon fill="#000000" points="2641.23,678.7937,2637.5091,669.6747,2637.6236,675.3304,2631.9679,675.4449,2641.23,678.7937" style="stroke:#000000;stroke-width:1.0;"/><text fill="#000000" font-family="sans-serif" font-size="20" lengthAdjust="spacing" textLength="35" x="2548" y="604.0781">has</text><text fill="#000000" font-family="sans-serif" font-size="20" lengthAdjust="spacing" textLength="13" x="2333.5303" y="551.4997">1</text><text fill="#000000" font-family="sans-serif" font-size="20" lengthAdjust="spacing" textLength="13" x="2621.3681" y="666.1369">1</text></g><!--link Customer to PhoneNumber--><g id="link_Customer_PhoneNumber"><path codeLine="93" d="M2300.34,554.6237 C2337.16,590.3237 2390.87,642.3937 2424.86,675.3537 " fill="none" id="Customer-to-PhoneNumber" style="stroke:#000000;stroke-width:1.0;"/><polygon fill="#000000" points="2428.5,678.8837,2424.8348,669.7422,2424.9148,675.3985,2419.2585,675.4785,2428.5,678.8837" style="stroke:#000000;stroke-width:1.0;"/><text fill="#000000" font-family="sans-serif" font-size="20" lengthAdjust="spacing" textLength="35" x="2353" y="604.0781">has</text><text fill="#000000" font-family="sans-serif" font-size="20" lengthAdjust="spacing" textLength="13" x="2292.3103" y="580.8005">1</text><text fill="#000000" font-family="sans-serif" font-size="20" lengthAdjust="spacing" textLength="13" x="2408.2813" y="666.2454">1</text></g><!--SRC=[dLLTRzem57tFhx3e0ziq943xw524H22HDcsbWgxlnha4ZyJERASLg_RVvyG996a8PBmWx7FEzVKzFiWzPJ4ME0evsOEFVDZY95GUPsfD_m0Q3orBKHK2Ml08KuP-S1z2D40_rwFXS6nPE-e3WYXM1nH1j04XhRuiHD5toa0TOa1Sg1sthDCE2R6KwCL2-kDWiWy4JvW_vo4Njls4mmIMcrz0r7IARXQVt9btsmmLd6SOR-4wYs4pHe9ueWGogP4tTfqcc9PmlI_kvsnl9WH_DijEg77Mt_BPOxs20sW-FRfn7U-ZvwIKFlh6DsWP0wCiGBCW411W1LOXqBDjN2pgqvN0lLmScBxzGxfJgDYsMTFuO_SlkbQADfUgmIlOWW160DKlqxRVFBxNlNgtpeVXMyCzKH_IKI-5bp2YA6STsNFj6e69UaWdtesQsgfpjIZ6xD2HTPUa9brk7p71Z52G7VdwSXSWYQ1nfmlAvxY2tmaL4EcVwnW8tLA2SvtZL3KZiyuAi_rbpwIecbaouXcRPChpH2eUWRYiNY1h5Ou2bysOJ-aEHvtdcnUPNsiDNLStTnycWSwfYwqPNAsnd7ochUP1caIi3h24_CfK6Z_mV0wNVafjTtMNxjeGPxulG5xdvvnol-CCp8kuYcPOhluZ2AyhKqj00M5cTxcZiRHAeTORzT1WCCs-A_4rGJjy5bbFgrPm9PnQaLaMjIAAgxvGqEHJA-Xr7BN2Q-dJYZsNDOPKUYhLgUIBPQNN9NFGmEVFRF2kvl7wRlsj_9ShZf6J7xzVbaNLCAqAditSihmvyWGb4kGnV6iwwL9j6CL99sZBHILQgzpZSbDByvFVcd6b26s1LKtP234ljmLG3eJyely1]--></g></svg>