<?xml version="1.0" encoding="UTF-8" standalone="no"?><svg xmlns="http://www.w3.org/2000/svg" xmlns:xlink="http://www.w3.org/1999/xlink" contentStyleType="text/css" height="704px" preserveAspectRatio="none" style="width:1547px;height:704px;background:#FFFFFF;" version="1.1" viewBox="0 0 1547 704" width="1547px" zoomAndPan="magnify"><defs/><g><text fill="#000000" font-family="sans-serif" font-size="14" font-weight="bold" lengthAdjust="spacing" textLength="188" x="672.5" y="22.9951">Class Diagram - US1014</text><!--class UI--><g id="elem_UI"><rect codeLine="13" fill="#FEF9E7" height="50" id="UI" rx="2.5" ry="2.5" style="stroke:#181818;stroke-width:0.5;" width="218" x="642.5" y="44.2969"/><ellipse cx="658.5" cy="61.2969" fill="#ADD1B2" rx="12" ry="12" style="stroke:#181818;stroke-width:1.0;"/><path d="M661.5625,68.375 Q660.875,68.7344 660.125,68.9063 Q659.375,69.0781 658.5469,69.0781 Q655.5938,69.0781 654.0313,67.1406 Q652.4844,65.1875 652.4844,61.5156 Q652.4844,57.8438 654.0313,55.9063 Q655.5938,53.9531 658.5469,53.9531 Q659.375,53.9531 660.125,54.125 Q660.8906,54.2969 661.5625,54.6563 L661.5625,57.8594 Q660.8125,57.1719 660.1094,56.8594 Q659.4219,56.5469 658.6719,56.5469 Q657.0938,56.5469 656.2813,57.7969 Q655.4844,59.0469 655.4844,61.5156 Q655.4844,63.9844 656.2813,65.2344 Q657.0938,66.4844 658.6719,66.4844 Q659.4219,66.4844 660.1094,66.1719 Q660.8125,65.8594 661.5625,65.1719 L661.5625,68.375 Z " fill="#000000"/><text fill="#000000" font-family="sans-serif" font-size="20" lengthAdjust="spacing" textLength="184" x="673.5" y="68.2207">RecordInterviewUI</text><line style="stroke:#181818;stroke-width:0.5;" x1="643.5" x2="859.5" y1="78.2969" y2="78.2969"/><line style="stroke:#181818;stroke-width:0.5;" x1="643.5" x2="859.5" y1="86.2969" y2="86.2969"/></g><!--class Controller--><g id="elem_Controller"><rect codeLine="15" fill="#FEF9E7" height="96.5625" id="Controller" rx="2.5" ry="2.5" style="stroke:#181818;stroke-width:0.5;" width="522" x="490.5" y="154.2969"/><ellipse cx="616" cy="171.2969" fill="#ADD1B2" rx="12" ry="12" style="stroke:#181818;stroke-width:1.0;"/><path d="M619.0625,178.375 Q618.375,178.7344 617.625,178.9063 Q616.875,179.0781 616.0469,179.0781 Q613.0938,179.0781 611.5313,177.1406 Q609.9844,175.1875 609.9844,171.5156 Q609.9844,167.8438 611.5313,165.9063 Q613.0938,163.9531 616.0469,163.9531 Q616.875,163.9531 617.625,164.125 Q618.3906,164.2969 619.0625,164.6563 L619.0625,167.8594 Q618.3125,167.1719 617.6094,166.8594 Q616.9219,166.5469 616.1719,166.5469 Q614.5938,166.5469 613.7813,167.7969 Q612.9844,169.0469 612.9844,171.5156 Q612.9844,173.9844 613.7813,175.2344 Q614.5938,176.4844 616.1719,176.4844 Q616.9219,176.4844 617.6094,176.1719 Q618.3125,175.8594 619.0625,175.1719 L619.0625,178.375 Z " fill="#000000"/><text fill="#000000" font-family="sans-serif" font-size="20" lengthAdjust="spacing" textLength="262" x="638" y="178.2207">RecordInterviewController</text><line style="stroke:#181818;stroke-width:0.5;" x1="491.5" x2="1011.5" y1="188.2969" y2="188.2969"/><line style="stroke:#181818;stroke-width:0.5;" x1="491.5" x2="1011.5" y1="196.2969" y2="196.2969"/><ellipse cx="501.5" cy="213.4375" fill="#84BE84" rx="3" ry="3" style="stroke:#038048;stroke-width:1.0;"/><text fill="#000000" font-family="sans-serif" font-size="20" lengthAdjust="spacing" textLength="495" x="511.5" y="218.8613">createInterview(Application,Date,Time):Interview</text><ellipse cx="501.5" cy="236.7188" fill="#84BE84" rx="3" ry="3" style="stroke:#038048;stroke-width:1.0;"/><text fill="#000000" font-family="sans-serif" font-size="20" lengthAdjust="spacing" textLength="296" x="511.5" y="242.1426">saveInterview(Interview):void</text></g><!--class Interview--><g id="elem_Interview"><rect codeLine="23" fill="#FEF9E7" height="143.125" id="Interview" rx="2.5" ry="2.5" style="stroke:#181818;stroke-width:0.5;" width="421" x="7" y="311.2969"/><ellipse cx="166.5" cy="328.2969" fill="#D8BFD8" rx="12" ry="12" style="stroke:#181818;stroke-width:1.0;"/><path d="M171.2188,335.7969 L162.1406,335.7969 L162.1406,321.2188 L171.2188,321.2188 L171.2188,323.75 L165.0156,323.75 L165.0156,326.9063 L170.6406,326.9063 L170.6406,329.4375 L165.0156,329.4375 L165.0156,333.25 L171.2188,333.25 L171.2188,335.7969 Z " fill="#000000"/><text fill="#000000" font-family="sans-serif" font-size="20" lengthAdjust="spacing" textLength="93" x="188.5" y="335.2207">Interview</text><line style="stroke:#181818;stroke-width:0.5;" x1="8" x2="427" y1="345.2969" y2="345.2969"/><rect fill="none" height="6" style="stroke:#C82930;stroke-width:1.0;" width="6" x="15" y="359.4375"/><text fill="#000000" font-family="sans-serif" font-size="20" lengthAdjust="spacing" textLength="233" x="28" y="367.8613">application:Application</text><rect fill="none" height="6" style="stroke:#C82930;stroke-width:1.0;" width="6" x="15" y="382.7188"/><text fill="#000000" font-family="sans-serif" font-size="20" lengthAdjust="spacing" textLength="103" x="28" y="391.1426">time:Time</text><rect fill="none" height="6" style="stroke:#C82930;stroke-width:1.0;" width="6" x="15" y="406"/><text fill="#000000" font-family="sans-serif" font-size="20" lengthAdjust="spacing" textLength="99" x="28" y="414.4238">date:Date</text><line style="stroke:#181818;stroke-width:0.5;" x1="8" x2="427" y1="423.1406" y2="423.1406"/><ellipse cx="18" cy="440.2813" fill="#84BE84" rx="3" ry="3" style="stroke:#038048;stroke-width:1.0;"/><text fill="#000000" font-family="sans-serif" font-size="20" lengthAdjust="spacing" textLength="394" x="28" y="445.7051">create(application,time,date):Interview</text></g><!--class DB--><g id="elem_DB"><rect codeLine="30" fill="#FEF9E7" height="50" id="DB" rx="2.5" ry="2.5" style="stroke:#181818;stroke-width:0.5;" width="128" x="515.5" y="647.2969"/><ellipse cx="531.5" cy="664.2969" fill="#8BEBFF" rx="12" ry="12" style="stroke:#181818;stroke-width:1.0;"/><path d="M531.7188,659.8125 L531.7188,669.2031 L532.5,669.2031 Q534.2031,669.2031 534.9219,668.1406 Q535.6406,667.0625 535.6406,664.4844 Q535.6406,661.9375 534.9219,660.875 Q534.2031,659.8125 532.5,659.8125 L531.7188,659.8125 Z M528.8438,657.2188 L531.9219,657.2188 Q535.5,657.2188 537.0625,658.9219 Q538.6406,660.625 538.6406,664.4844 Q538.6406,668.375 537.0625,670.0938 Q535.5,671.7969 531.9219,671.7969 L528.8438,671.7969 L528.8438,657.2188 Z " fill="#000000"/><text fill="#000000" font-family="sans-serif" font-size="20" lengthAdjust="spacing" textLength="94" x="546.5" y="671.2207">Database</text><line style="stroke:#181818;stroke-width:0.5;" x1="516.5" x2="642.5" y1="681.2969" y2="681.2969"/><line style="stroke:#181818;stroke-width:0.5;" x1="516.5" x2="642.5" y1="689.2969" y2="689.2969"/></g><!--class InterviewRepository--><g id="elem_InterviewRepository"><rect codeLine="33" fill="#FEF9E7" height="73.2813" id="InterviewRepository" rx="2.5" ry="2.5" style="stroke:#181818;stroke-width:0.5;" width="233" x="463" y="346.2969"/><ellipse cx="479" cy="363.2969" fill="#FFFF99" rx="12" ry="12" style="stroke:#181818;stroke-width:1.0;"/><path d="M480.375,363.9063 Q480.8125,364 481.125,364.3281 Q481.4531,364.6406 481.9063,365.5469 L484.5469,370.7969 L481.375,370.7969 L479.625,367.1094 Q479.5469,366.9531 479.4219,366.6875 Q478.6406,365.0313 477.5938,365.0313 L476.6875,365.0313 L476.6875,370.7969 L473.7969,370.7969 L473.7969,356.2188 L477.9531,356.2188 Q480.7656,356.2188 481.9844,357.2188 Q483.2188,358.2031 483.2188,360.4531 Q483.2188,361.9531 482.4844,362.8438 Q481.7656,363.7344 480.375,363.9063 Z M476.6875,358.6406 L476.6875,362.6094 L478.0313,362.6094 Q479.2188,362.6094 479.7344,362.1563 Q480.25,361.6875 480.25,360.625 Q480.25,359.5625 479.7344,359.1094 Q479.2344,358.6406 478.0313,358.6406 L476.6875,358.6406 Z " fill="#000000"/><text fill="#000000" font-family="sans-serif" font-size="20" lengthAdjust="spacing" textLength="199" x="494" y="370.2207">InterviewRepository</text><line style="stroke:#181818;stroke-width:0.5;" x1="464" x2="695" y1="380.2969" y2="380.2969"/><line style="stroke:#181818;stroke-width:0.5;" x1="464" x2="695" y1="388.2969" y2="388.2969"/><ellipse cx="474" cy="405.4375" fill="#84BE84" rx="3" ry="3" style="stroke:#038048;stroke-width:1.0;"/><text fill="#000000" font-family="sans-serif" font-size="20" lengthAdjust="spacing" textLength="203" x="484" y="410.8613">save(interview):void</text></g><!--class JpaInterviewRepository--><g id="elem_JpaInterviewRepository"><rect codeLine="37" fill="#FEF9E7" height="73.2813" id="JpaInterviewRepository" rx="2.5" ry="2.5" style="stroke:#181818;stroke-width:0.5;" width="264" x="447.5" y="514.2969"/><ellipse cx="463.5" cy="531.2969" fill="#FFFF99" rx="12" ry="12" style="stroke:#181818;stroke-width:1.0;"/><path d="M464.875,531.9063 Q465.3125,532 465.625,532.3281 Q465.9531,532.6406 466.4063,533.5469 L469.0469,538.7969 L465.875,538.7969 L464.125,535.1094 Q464.0469,534.9531 463.9219,534.6875 Q463.1406,533.0313 462.0938,533.0313 L461.1875,533.0313 L461.1875,538.7969 L458.2969,538.7969 L458.2969,524.2188 L462.4531,524.2188 Q465.2656,524.2188 466.4844,525.2188 Q467.7188,526.2031 467.7188,528.4531 Q467.7188,529.9531 466.9844,530.8438 Q466.2656,531.7344 464.875,531.9063 Z M461.1875,526.6406 L461.1875,530.6094 L462.5313,530.6094 Q463.7188,530.6094 464.2344,530.1563 Q464.75,529.6875 464.75,528.625 Q464.75,527.5625 464.2344,527.1094 Q463.7344,526.6406 462.5313,526.6406 L461.1875,526.6406 Z " fill="#000000"/><text fill="#000000" font-family="sans-serif" font-size="20" lengthAdjust="spacing" textLength="230" x="478.5" y="538.2207">JpaInterviewRepository</text><line style="stroke:#181818;stroke-width:0.5;" x1="448.5" x2="710.5" y1="548.2969" y2="548.2969"/><line style="stroke:#181818;stroke-width:0.5;" x1="448.5" x2="710.5" y1="556.2969" y2="556.2969"/><ellipse cx="458.5" cy="573.4375" fill="#84BE84" rx="3" ry="3" style="stroke:#038048;stroke-width:1.0;"/><text fill="#000000" font-family="sans-serif" font-size="20" lengthAdjust="spacing" textLength="203" x="468.5" y="578.8613">save(interview):void</text></g><!--class ListApplicationService--><g id="elem_ListApplicationService"><rect codeLine="41" fill="#FEF9E7" height="73.2813" id="ListApplicationService" rx="2.5" ry="2.5" style="stroke:#181818;stroke-width:0.5;" width="387" x="731" y="346.2969"/><ellipse cx="809" cy="363.2969" fill="#90EE90" rx="12" ry="12" style="stroke:#181818;stroke-width:1.0;"/><path d="M808.4844,364.4063 Q806.2969,363.5625 805.5313,362.6563 Q804.7656,361.75 804.7656,360.2031 Q804.7656,358.2188 806.0313,357.0938 Q807.2969,355.9531 809.5156,355.9531 Q810.5156,355.9531 811.5156,356.1875 Q812.5313,356.4063 813.5156,356.8594 L813.5156,359.6719 Q812.5938,359.0156 811.625,358.6719 Q810.6719,358.3281 809.7344,358.3281 Q808.7031,358.3281 808.1406,358.75 Q807.5781,359.1719 807.5781,359.9531 Q807.5781,360.5625 807.9844,360.9688 Q808.3906,361.3594 809.6875,361.8281 L810.9219,362.2969 Q812.6875,362.9375 813.5156,364.0156 Q814.3438,365.0781 814.3438,366.6875 Q814.3438,368.9063 813.0313,370 Q811.7344,371.0781 809.0938,371.0781 Q808.0156,371.0781 806.9219,370.8125 Q805.8281,370.5625 804.8125,370.0469 L804.8125,367.0781 Q805.9688,367.8906 807.0469,368.2969 Q808.125,368.7031 809.1875,368.7031 Q810.25,368.7031 810.8281,368.2188 Q811.4219,367.7344 811.4219,366.8594 Q811.4219,366.2031 811.0313,365.7188 Q810.6406,365.2188 809.8906,364.9375 L808.4844,364.4063 Z " fill="#000000"/><text fill="#000000" font-family="sans-serif" font-size="20" lengthAdjust="spacing" textLength="222" x="831" y="370.2207">ListApplicationService</text><line style="stroke:#181818;stroke-width:0.5;" x1="732" x2="1117" y1="380.2969" y2="380.2969"/><line style="stroke:#181818;stroke-width:0.5;" x1="732" x2="1117" y1="388.2969" y2="388.2969"/><ellipse cx="742" cy="405.4375" fill="#84BE84" rx="3" ry="3" style="stroke:#038048;stroke-width:1.0;"/><text fill="#000000" font-family="sans-serif" font-size="20" lengthAdjust="spacing" textLength="360" x="752" y="410.8613">listApplications():List&lt;Application&gt;</text></g><!--class ListJobOpeningService--><g id="elem_ListJobOpeningService"><rect codeLine="45" fill="#FEF9E7" height="73.2813" id="ListJobOpeningService" rx="2.5" ry="2.5" style="stroke:#181818;stroke-width:0.5;" width="387" x="1153" y="346.2969"/><ellipse cx="1229.5" cy="363.2969" fill="#90EE90" rx="12" ry="12" style="stroke:#181818;stroke-width:1.0;"/><path d="M1228.9844,364.4063 Q1226.7969,363.5625 1226.0313,362.6563 Q1225.2656,361.75 1225.2656,360.2031 Q1225.2656,358.2188 1226.5313,357.0938 Q1227.7969,355.9531 1230.0156,355.9531 Q1231.0156,355.9531 1232.0156,356.1875 Q1233.0313,356.4063 1234.0156,356.8594 L1234.0156,359.6719 Q1233.0938,359.0156 1232.125,358.6719 Q1231.1719,358.3281 1230.2344,358.3281 Q1229.2031,358.3281 1228.6406,358.75 Q1228.0781,359.1719 1228.0781,359.9531 Q1228.0781,360.5625 1228.4844,360.9688 Q1228.8906,361.3594 1230.1875,361.8281 L1231.4219,362.2969 Q1233.1875,362.9375 1234.0156,364.0156 Q1234.8438,365.0781 1234.8438,366.6875 Q1234.8438,368.9063 1233.5313,370 Q1232.2344,371.0781 1229.5938,371.0781 Q1228.5156,371.0781 1227.4219,370.8125 Q1226.3281,370.5625 1225.3125,370.0469 L1225.3125,367.0781 Q1226.4688,367.8906 1227.5469,368.2969 Q1228.625,368.7031 1229.6875,368.7031 Q1230.75,368.7031 1231.3281,368.2188 Q1231.9219,367.7344 1231.9219,366.8594 Q1231.9219,366.2031 1231.5313,365.7188 Q1231.1406,365.2188 1230.3906,364.9375 L1228.9844,364.4063 Z " fill="#000000"/><text fill="#000000" font-family="sans-serif" font-size="20" lengthAdjust="spacing" textLength="225" x="1251.5" y="370.2207">ListJobOpeningService</text><line style="stroke:#181818;stroke-width:0.5;" x1="1154" x2="1539" y1="380.2969" y2="380.2969"/><line style="stroke:#181818;stroke-width:0.5;" x1="1154" x2="1539" y1="388.2969" y2="388.2969"/><ellipse cx="1164" cy="405.4375" fill="#84BE84" rx="3" ry="3" style="stroke:#038048;stroke-width:1.0;"/><text fill="#000000" font-family="sans-serif" font-size="20" lengthAdjust="spacing" textLength="360" x="1174" y="410.8613">listApplications():List&lt;Application&gt;</text></g><!--link UI to Controller--><g id="link_UI_Controller"><path codeLine="51" d="M751.5,94.4169 C751.5,109.6669 751.5,129.9869 751.5,148.8469 " fill="none" id="UI-to-Controller" style="stroke:#000000;stroke-width:1.0;"/><polygon fill="#000000" points="751.5,154.1269,755.5,145.1269,751.5,149.1269,747.5,145.1269,751.5,154.1269" style="stroke:#000000;stroke-width:1.0;"/></g><!--link Controller to InterviewRepository--><g id="link_Controller_InterviewRepository"><path codeLine="55" d="M705.41,251.4969 C678,279.8669 643.64,315.4169 617.74,342.2269 " fill="none" id="Controller-to-InterviewRepository" style="stroke:#000000;stroke-width:1.0;"/><polygon fill="#000000" points="613.98,346.1169,623.1215,342.4517,617.4652,342.5317,617.3852,336.8754,613.98,346.1169" style="stroke:#000000;stroke-width:1.0;"/></g><!--link Controller to Interview--><g id="link_Controller_Interview"><path codeLine="56" d="M608.75,251.3769 C554.81,269.3569 492.16,290.2469 433.02,309.9569 " fill="none" id="Controller-to-Interview" style="stroke:#000000;stroke-width:1.0;"/><polygon fill="#000000" points="428.04,311.6169,437.8413,312.5833,432.7863,310.0443,435.3252,304.9893,428.04,311.6169" style="stroke:#000000;stroke-width:1.0;"/></g><!--link Controller to ListApplicationService--><g id="link_Controller_ListApplicationService"><path codeLine="57" d="M797.86,251.4969 C825.43,279.8669 859.99,315.4169 886.04,342.2269 " fill="none" id="Controller-to-ListApplicationService" style="stroke:#000000;stroke-width:1.0;"/><polygon fill="#000000" points="889.82,346.1169,886.4148,336.8754,886.3348,342.5317,880.6785,342.4517,889.82,346.1169" style="stroke:#000000;stroke-width:1.0;"/></g><!--link Controller to ListJobOpeningService--><g id="link_Controller_ListJobOpeningService"><path codeLine="58" d="M928.39,251.3469 C993.68,269.4169 1068.16,290.6369 1135.5,311.2969 C1169.2,321.6369 1205.68,333.5669 1238.69,344.6369 " fill="none" id="Controller-to-ListJobOpeningService" style="stroke:#000000;stroke-width:1.0;"/><polygon fill="#000000" points="1243.53,346.2569,1236.2628,339.6095,1238.788,344.6715,1233.7261,347.1967,1243.53,346.2569" style="stroke:#000000;stroke-width:1.0;"/></g><!--link InterviewRepository to JpaInterviewRepository--><g id="link_InterviewRepository_JpaInterviewRepository"><path codeLine="63" d="M579.5,419.4069 C579.5,445.7769 579.5,481.7369 579.5,509.2169 " fill="none" id="InterviewRepository-to-JpaInterviewRepository" style="stroke:#000000;stroke-width:1.0;"/><polygon fill="#000000" points="579.5,514.2469,583.5,505.2469,579.5,509.2469,575.5,505.2469,579.5,514.2469" style="stroke:#000000;stroke-width:1.0;"/></g><!--link JpaInterviewRepository to DB--><g id="link_JpaInterviewRepository_DB"><path codeLine="64" d="M579.5,587.3269 C579.5,604.6369 579.5,625.2069 579.5,641.6569 " fill="none" id="JpaInterviewRepository-to-DB" style="stroke:#000000;stroke-width:1.0;"/><polygon fill="#000000" points="579.5,647.0669,583.5,638.0669,579.5,642.0669,575.5,638.0669,579.5,647.0669" style="stroke:#000000;stroke-width:1.0;"/></g><!--SRC=[hPBHQkCm44NVzHMYVQZ3Ek2MXOrD2CIn3IaB2_7c0nHxwegebf6KX6pfl-_8RXBLSTxg9qjpvixLbVIMrmrJx4t8OWibBU65xOJ9P6ro_W_eKq28uKO0NGYcDKqugv2cOxhE7uF7duJeam8jMkATKFnwktDZ5D_i32mBMRV2GGzhMB5b5UJcYBCK58RLbO0Uf5zPAG-yhkWB4xfV5Rm6Sso0Db8SxQAjnoXSARchouKKKj7xBCt2z5TRcoib3zrsB90Z7uHqfxXRGI5LkQmDg3s7mtfvHvccwoLzlyaiC3GbXG3LifVbPoO_2WKC8pZnthnf12-OuRBs4wpuV_aRZA8pq7LfjdTwpd-ZQ2zvQHsJaw5pZKwdNkhJ-sGIPybaD9jr1iRiCZ1oXdT5WyCZww1RbcWeigvSxvwZuDi6tsAkPJJqcGxsiWtJq8QHnDPJWfucSHfd6Nh2L3wkdA-WaPeRgOwMNo6VuHU6vpEqSNZyEeLEwBbXtwRrcslZf9HRgW2hbQDM6AHf65oqn5TQUwF82aoTlTbNxMUv-TD0ZS_vcwG9mVSv7i-SfqV8WxjmtgJb1gAwYVGBm-aCKLVdj4uVd953DsQRXo-JtBXZsv74AFqV]--></g></svg>