<?xml version="1.0" encoding="UTF-8" standalone="no"?><svg xmlns="http://www.w3.org/2000/svg" xmlns:xlink="http://www.w3.org/1999/xlink" contentStyleType="text/css" height="1423px" preserveAspectRatio="none" style="width:1582px;height:1423px;background:#FFFFFF;" version="1.1" viewBox="0 0 1582 1423" width="1582px" zoomAndPan="magnify"><defs/><g><text fill="#000000" font-family="sans-serif" font-size="14" font-weight="bold" lengthAdjust="spacing" textLength="225" x="676.25" y="27.9951">Sequence Diagram - US1005</text><rect fill="#FFFFFF" height="1181.9688" style="stroke:#181818;stroke-width:1.0;" width="10" x="98" y="135.5781"/><rect fill="#FFFFFF" height="168.6875" style="stroke:#181818;stroke-width:1.0;" width="10" x="305" y="188.1406"/><rect fill="#FFFFFF" height="168.6875" style="stroke:#181818;stroke-width:1.0;" width="10" x="305" y="417.3906"/><rect fill="#FFFFFF" height="83.8438" style="stroke:#181818;stroke-width:1.0;" width="10" x="305" y="646.6406"/><rect fill="#FFFFFF" height="503.2188" style="stroke:#181818;stroke-width:1.0;" width="10" x="305" y="814.3281"/><rect fill="#FFFFFF" height="358.8125" style="stroke:#181818;stroke-width:1.0;" width="10" x="616" y="874.8906"/><rect fill="#FFFFFF" height="37.2813" style="stroke:#181818;stroke-width:1.0;" width="10" x="927" y="935.4531"/><rect fill="#FFFFFF" height="186.4063" style="stroke:#181818;stroke-width:1.0;" width="10" x="1097" y="1010.0156"/><rect fill="#FFFFFF" height="111.8438" style="stroke:#181818;stroke-width:1.0;" width="10" x="1335.5" y="1047.2969"/><rect fill="#FFFFFF" height="37.2813" style="stroke:#181818;stroke-width:1.0;" width="10" x="1518.5" y="1084.5781"/><line style="stroke:#181818;stroke-width:0.5;stroke-dasharray:5.0,5.0;" x1="103" x2="103" y1="125.5781" y2="1335.5469"/><line style="stroke:#181818;stroke-width:0.5;stroke-dasharray:5.0,5.0;" x1="310" x2="310" y1="125.5781" y2="1335.5469"/><line style="stroke:#181818;stroke-width:0.5;stroke-dasharray:5.0,5.0;" x1="621" x2="621" y1="125.5781" y2="1335.5469"/><line style="stroke:#181818;stroke-width:0.5;stroke-dasharray:5.0,5.0;" x1="931.5" x2="931.5" y1="125.5781" y2="1335.5469"/><line style="stroke:#181818;stroke-width:0.5;stroke-dasharray:5.0,5.0;" x1="1101.5" x2="1101.5" y1="125.5781" y2="1335.5469"/><line style="stroke:#181818;stroke-width:0.5;stroke-dasharray:5.0,5.0;" x1="1340.5" x2="1340.5" y1="125.5781" y2="1335.5469"/><line style="stroke:#181818;stroke-width:0.5;stroke-dasharray:5.0,5.0;" x1="1523.5" x2="1523.5" y1="125.5781" y2="1335.5469"/><text fill="#000000" font-family="sans-serif" font-size="20" lengthAdjust="spacing" text-decoration="underline" textLength="190" x="5" y="120.8613">Customer Manager</text><ellipse cx="103" cy="50.7969" fill="#E2E2F0" rx="8" ry="8" style="stroke:#181818;stroke-width:0.5;"/><path d="M103,58.7969 L103,85.7969 M90,66.7969 L116,66.7969 M103,85.7969 L90,100.7969 M103,85.7969 L116,100.7969 " fill="none" style="stroke:#181818;stroke-width:0.5;"/><text fill="#000000" font-family="sans-serif" font-size="20" lengthAdjust="spacing" text-decoration="underline" textLength="190" x="5" y="1353.1113">Customer Manager</text><ellipse cx="103" cy="1366.3281" fill="#E2E2F0" rx="8" ry="8" style="stroke:#181818;stroke-width:0.5;"/><path d="M103,1374.3281 L103,1401.3281 M90,1382.3281 L116,1382.3281 M103,1401.3281 L90,1416.3281 M103,1401.3281 L116,1416.3281 " fill="none" style="stroke:#181818;stroke-width:0.5;"/><rect fill="#E2E2F0" height="37.2813" rx="2.5" ry="2.5" style="stroke:#181818;stroke-width:0.5;" width="198" x="211" y="87.2969"/><text fill="#000000" font-family="sans-serif" font-size="20" lengthAdjust="spacing" text-decoration="underline" textLength="184" x="218" y="112.8613">RecordInterviewUI</text><rect fill="#E2E2F0" height="37.2813" rx="2.5" ry="2.5" style="stroke:#181818;stroke-width:0.5;" width="198" x="211" y="1334.5469"/><text fill="#000000" font-family="sans-serif" font-size="20" lengthAdjust="spacing" text-decoration="underline" textLength="184" x="218" y="1360.1113">RecordInterviewUI</text><rect fill="#E2E2F0" height="37.2813" rx="2.5" ry="2.5" style="stroke:#181818;stroke-width:0.5;" width="276" x="483" y="87.2969"/><text fill="#000000" font-family="sans-serif" font-size="20" lengthAdjust="spacing" text-decoration="underline" textLength="262" x="490" y="112.8613">RecordInterviewController</text><rect fill="#E2E2F0" height="37.2813" rx="2.5" ry="2.5" style="stroke:#181818;stroke-width:0.5;" width="276" x="483" y="1334.5469"/><text fill="#000000" font-family="sans-serif" font-size="20" lengthAdjust="spacing" text-decoration="underline" textLength="262" x="490" y="1360.1113">RecordInterviewController</text><rect fill="#E2E2F0" height="37.2813" rx="2.5" ry="2.5" style="stroke:#181818;stroke-width:0.5;" width="107" x="878.5" y="87.2969"/><text fill="#000000" font-family="sans-serif" font-size="20" lengthAdjust="spacing" text-decoration="underline" textLength="93" x="885.5" y="112.8613">Interview</text><rect fill="#E2E2F0" height="37.2813" rx="2.5" ry="2.5" style="stroke:#181818;stroke-width:0.5;" width="107" x="878.5" y="1334.5469"/><text fill="#000000" font-family="sans-serif" font-size="20" lengthAdjust="spacing" text-decoration="underline" textLength="93" x="885.5" y="1360.1113">Interview</text><rect fill="#E2E2F0" height="37.2813" rx="2.5" ry="2.5" style="stroke:#181818;stroke-width:0.5;" width="213" x="995.5" y="87.2969"/><text fill="#000000" font-family="sans-serif" font-size="20" lengthAdjust="spacing" text-decoration="underline" textLength="199" x="1002.5" y="112.8613">InterviewRepository</text><rect fill="#E2E2F0" height="37.2813" rx="2.5" ry="2.5" style="stroke:#181818;stroke-width:0.5;" width="213" x="995.5" y="1334.5469"/><text fill="#000000" font-family="sans-serif" font-size="20" lengthAdjust="spacing" text-decoration="underline" textLength="199" x="1002.5" y="1360.1113">InterviewRepository</text><rect fill="#E2E2F0" height="37.2813" rx="2.5" ry="2.5" style="stroke:#181818;stroke-width:0.5;" width="244" x="1218.5" y="87.2969"/><text fill="#000000" font-family="sans-serif" font-size="20" lengthAdjust="spacing" text-decoration="underline" textLength="230" x="1225.5" y="112.8613">JpaInterviewRepository</text><rect fill="#E2E2F0" height="37.2813" rx="2.5" ry="2.5" style="stroke:#181818;stroke-width:0.5;" width="244" x="1218.5" y="1334.5469"/><text fill="#000000" font-family="sans-serif" font-size="20" lengthAdjust="spacing" text-decoration="underline" textLength="230" x="1225.5" y="1360.1113">JpaInterviewRepository</text><text fill="#000000" font-family="sans-serif" font-size="20" lengthAdjust="spacing" text-decoration="underline" textLength="94" x="1473.5" y="120.8613">Database</text><path d="M1505.5,66.2969 C1505.5,56.2969 1523.5,56.2969 1523.5,56.2969 C1523.5,56.2969 1541.5,56.2969 1541.5,66.2969 L1541.5,92.2969 C1541.5,102.2969 1523.5,102.2969 1523.5,102.2969 C1523.5,102.2969 1505.5,102.2969 1505.5,92.2969 L1505.5,66.2969 " fill="#E2E2F0" style="stroke:#181818;stroke-width:1.5;"/><path d="M1505.5,66.2969 C1505.5,76.2969 1523.5,76.2969 1523.5,76.2969 C1523.5,76.2969 1541.5,76.2969 1541.5,66.2969 " fill="none" style="stroke:#181818;stroke-width:1.5;"/><text fill="#000000" font-family="sans-serif" font-size="20" lengthAdjust="spacing" text-decoration="underline" textLength="94" x="1473.5" y="1353.1113">Database</text><path d="M1505.5,1367.8281 C1505.5,1357.8281 1523.5,1357.8281 1523.5,1357.8281 C1523.5,1357.8281 1541.5,1357.8281 1541.5,1367.8281 L1541.5,1393.8281 C1541.5,1403.8281 1523.5,1403.8281 1523.5,1403.8281 C1523.5,1403.8281 1505.5,1403.8281 1505.5,1393.8281 L1505.5,1367.8281 " fill="#E2E2F0" style="stroke:#181818;stroke-width:1.5;"/><path d="M1505.5,1367.8281 C1505.5,1377.8281 1523.5,1377.8281 1523.5,1377.8281 C1523.5,1377.8281 1541.5,1377.8281 1541.5,1367.8281 " fill="none" style="stroke:#181818;stroke-width:1.5;"/><rect fill="#FFFFFF" height="1181.9688" style="stroke:#181818;stroke-width:1.0;" width="10" x="98" y="135.5781"/><rect fill="#FFFFFF" height="168.6875" style="stroke:#181818;stroke-width:1.0;" width="10" x="305" y="188.1406"/><rect fill="#FFFFFF" height="168.6875" style="stroke:#181818;stroke-width:1.0;" width="10" x="305" y="417.3906"/><rect fill="#FFFFFF" height="83.8438" style="stroke:#181818;stroke-width:1.0;" width="10" x="305" y="646.6406"/><rect fill="#FFFFFF" height="503.2188" style="stroke:#181818;stroke-width:1.0;" width="10" x="305" y="814.3281"/><rect fill="#FFFFFF" height="358.8125" style="stroke:#181818;stroke-width:1.0;" width="10" x="616" y="874.8906"/><rect fill="#FFFFFF" height="37.2813" style="stroke:#181818;stroke-width:1.0;" width="10" x="927" y="935.4531"/><rect fill="#FFFFFF" height="186.4063" style="stroke:#181818;stroke-width:1.0;" width="10" x="1097" y="1010.0156"/><rect fill="#FFFFFF" height="111.8438" style="stroke:#181818;stroke-width:1.0;" width="10" x="1335.5" y="1047.2969"/><rect fill="#FFFFFF" height="37.2813" style="stroke:#181818;stroke-width:1.0;" width="10" x="1518.5" y="1084.5781"/><polygon fill="#181818" points="293,184.1406,303,188.1406,293,192.1406,297,188.1406" style="stroke:#181818;stroke-width:1.0;"/><line style="stroke:#181818;stroke-width:1.0;" x1="108" x2="299" y1="188.1406" y2="188.1406"/><text fill="#000000" font-family="sans-serif" font-size="20" lengthAdjust="spacing" textLength="46" x="115" y="158.1426">Asks</text><text fill="#000000" font-family="sans-serif" font-size="20" lengthAdjust="spacing" textLength="6" x="161" y="158.1426"> </text><text fill="#000000" font-family="sans-serif" font-size="20" lengthAdjust="spacing" textLength="20" x="167" y="158.1426">to</text><text fill="#000000" font-family="sans-serif" font-size="20" lengthAdjust="spacing" textLength="6" x="187" y="158.1426"> </text><text fill="#000000" font-family="sans-serif" font-size="20" lengthAdjust="spacing" textLength="64" x="193" y="158.1426">record</text><text fill="#000000" font-family="sans-serif" font-size="20" lengthAdjust="spacing" textLength="12" x="115" y="181.4238">a</text><text fill="#000000" font-family="sans-serif" font-size="20" lengthAdjust="spacing" textLength="6" x="127" y="181.4238"> </text><text fill="#000000" font-family="sans-serif" font-size="20" lengthAdjust="spacing" textLength="93" x="133" y="181.4238">interview</text><rect fill="none" height="56.5625" style="stroke:#000000;stroke-width:1.5;" width="1574.5" x="2" y="196.1406"/><path d="M2,196.1406 L80,196.1406 L80,211.1406 L70,221.1406 L2,221.1406 L2,196.1406 " fill="#EEEEEE" style="stroke:#000000;stroke-width:2.0;"/><text fill="#000000" font-family="sans-serif" font-size="20" font-weight="bold" lengthAdjust="spacing" textLength="33" x="15" y="216.7051">ref</text><text fill="#000000" font-family="sans-serif" font-size="20" lengthAdjust="spacing" textLength="283" x="647.75" y="243.7051">US1003 ➡️ List Job Openings</text><polygon fill="#181818" points="119,352.8281,109,356.8281,119,360.8281,115,356.8281" style="stroke:#181818;stroke-width:1.0;"/><line style="stroke:#181818;stroke-width:1.0;stroke-dasharray:2.0,2.0;" x1="113" x2="309" y1="356.8281" y2="356.8281"/><text fill="#000000" font-family="sans-serif" font-size="20" lengthAdjust="spacing" textLength="65" x="125" y="280.2676">Shows</text><text fill="#000000" font-family="sans-serif" font-size="20" lengthAdjust="spacing" textLength="6" x="190" y="280.2676"> </text><text fill="#000000" font-family="sans-serif" font-size="20" lengthAdjust="spacing" textLength="30" x="196" y="280.2676">list</text><text fill="#000000" font-family="sans-serif" font-size="20" lengthAdjust="spacing" textLength="6" x="226" y="280.2676"> </text><text fill="#000000" font-family="sans-serif" font-size="20" lengthAdjust="spacing" textLength="19" x="232" y="280.2676">of</text><text fill="#000000" font-family="sans-serif" font-size="20" lengthAdjust="spacing" textLength="31" x="125" y="303.5488">job</text><text fill="#000000" font-family="sans-serif" font-size="20" lengthAdjust="spacing" textLength="6" x="156" y="303.5488"> </text><text fill="#000000" font-family="sans-serif" font-size="20" lengthAdjust="spacing" textLength="92" x="162" y="303.5488">openings</text><text fill="#000000" font-family="sans-serif" font-size="20" lengthAdjust="spacing" textLength="38" x="125" y="326.8301">and</text><text fill="#000000" font-family="sans-serif" font-size="20" lengthAdjust="spacing" textLength="6" x="163" y="326.8301"> </text><text fill="#000000" font-family="sans-serif" font-size="20" lengthAdjust="spacing" textLength="44" x="169" y="326.8301">asks</text><text fill="#000000" font-family="sans-serif" font-size="20" lengthAdjust="spacing" textLength="6" x="213" y="326.8301"> </text><text fill="#000000" font-family="sans-serif" font-size="20" lengthAdjust="spacing" textLength="20" x="219" y="326.8301">to</text><text fill="#000000" font-family="sans-serif" font-size="20" lengthAdjust="spacing" textLength="59" x="125" y="350.1113">select</text><text fill="#000000" font-family="sans-serif" font-size="20" lengthAdjust="spacing" textLength="6" x="184" y="350.1113"> </text><text fill="#000000" font-family="sans-serif" font-size="20" lengthAdjust="spacing" textLength="37" x="190" y="350.1113">one</text><polygon fill="#181818" points="293,413.3906,303,417.3906,293,421.3906,297,417.3906" style="stroke:#181818;stroke-width:1.0;"/><line style="stroke:#181818;stroke-width:1.0;" x1="108" x2="299" y1="417.3906" y2="417.3906"/><text fill="#000000" font-family="sans-serif" font-size="20" lengthAdjust="spacing" textLength="69" x="115" y="387.3926">selects</text><text fill="#000000" font-family="sans-serif" font-size="20" lengthAdjust="spacing" textLength="6" x="184" y="387.3926"> </text><text fill="#000000" font-family="sans-serif" font-size="20" lengthAdjust="spacing" textLength="12" x="190" y="387.3926">a</text><text fill="#000000" font-family="sans-serif" font-size="20" lengthAdjust="spacing" textLength="6" x="202" y="387.3926"> </text><text fill="#000000" font-family="sans-serif" font-size="20" lengthAdjust="spacing" textLength="31" x="208" y="387.3926">job</text><text fill="#000000" font-family="sans-serif" font-size="20" lengthAdjust="spacing" textLength="82" x="115" y="410.6738">opening</text><rect fill="none" height="56.5625" style="stroke:#000000;stroke-width:1.5;" width="1574.5" x="2" y="425.3906"/><path d="M2,425.3906 L80,425.3906 L80,440.3906 L70,450.3906 L2,450.3906 L2,425.3906 " fill="#EEEEEE" style="stroke:#000000;stroke-width:2.0;"/><text fill="#000000" font-family="sans-serif" font-size="20" font-weight="bold" lengthAdjust="spacing" textLength="33" x="15" y="445.9551">ref</text><text fill="#000000" font-family="sans-serif" font-size="20" lengthAdjust="spacing" textLength="274" x="652.25" y="472.9551">US1005 ➡️ List Applications</text><polygon fill="#181818" points="119,582.0781,109,586.0781,119,590.0781,115,586.0781" style="stroke:#181818;stroke-width:1.0;"/><line style="stroke:#181818;stroke-width:1.0;stroke-dasharray:2.0,2.0;" x1="113" x2="309" y1="586.0781" y2="586.0781"/><text fill="#000000" font-family="sans-serif" font-size="20" lengthAdjust="spacing" textLength="65" x="125" y="509.5176">Shows</text><text fill="#000000" font-family="sans-serif" font-size="20" lengthAdjust="spacing" textLength="6" x="190" y="509.5176"> </text><text fill="#000000" font-family="sans-serif" font-size="20" lengthAdjust="spacing" textLength="30" x="196" y="509.5176">list</text><text fill="#000000" font-family="sans-serif" font-size="20" lengthAdjust="spacing" textLength="6" x="226" y="509.5176"> </text><text fill="#000000" font-family="sans-serif" font-size="20" lengthAdjust="spacing" textLength="19" x="232" y="509.5176">of</text><text fill="#000000" font-family="sans-serif" font-size="20" lengthAdjust="spacing" textLength="122" x="125" y="532.7988">applications</text><text fill="#000000" font-family="sans-serif" font-size="20" lengthAdjust="spacing" textLength="38" x="125" y="556.0801">and</text><text fill="#000000" font-family="sans-serif" font-size="20" lengthAdjust="spacing" textLength="6" x="163" y="556.0801"> </text><text fill="#000000" font-family="sans-serif" font-size="20" lengthAdjust="spacing" textLength="44" x="169" y="556.0801">asks</text><text fill="#000000" font-family="sans-serif" font-size="20" lengthAdjust="spacing" textLength="6" x="213" y="556.0801"> </text><text fill="#000000" font-family="sans-serif" font-size="20" lengthAdjust="spacing" textLength="20" x="219" y="556.0801">to</text><text fill="#000000" font-family="sans-serif" font-size="20" lengthAdjust="spacing" textLength="59" x="125" y="579.3613">select</text><text fill="#000000" font-family="sans-serif" font-size="20" lengthAdjust="spacing" textLength="6" x="184" y="579.3613"> </text><text fill="#000000" font-family="sans-serif" font-size="20" lengthAdjust="spacing" textLength="37" x="190" y="579.3613">one</text><path d="M320,512.2344 L320,568.2344 L717,568.2344 L717,522.2344 L707,512.2344 L320,512.2344 " fill="#FEFFDD" style="stroke:#181818;stroke-width:0.5;"/><path d="M707,512.2344 L707,522.2344 L717,522.2344 L707,512.2344 " fill="#FEFFDD" style="stroke:#181818;stroke-width:0.5;"/><text fill="#000000" font-family="sans-serif" font-size="20" lengthAdjust="spacing" textLength="368" x="326" y="535.7988">Should only return valid applications</text><text fill="#000000" font-family="sans-serif" font-size="20" lengthAdjust="spacing" textLength="370" x="332" y="559.0801">the interviewPhase need to be active</text><polygon fill="#181818" points="293,642.6406,303,646.6406,293,650.6406,297,646.6406" style="stroke:#181818;stroke-width:1.0;"/><line style="stroke:#181818;stroke-width:1.0;" x1="108" x2="299" y1="646.6406" y2="646.6406"/><text fill="#000000" font-family="sans-serif" font-size="20" lengthAdjust="spacing" textLength="69" x="115" y="616.6426">selects</text><text fill="#000000" font-family="sans-serif" font-size="20" lengthAdjust="spacing" textLength="6" x="184" y="616.6426"> </text><text fill="#000000" font-family="sans-serif" font-size="20" lengthAdjust="spacing" textLength="12" x="190" y="616.6426">a</text><text fill="#000000" font-family="sans-serif" font-size="20" lengthAdjust="spacing" textLength="112" x="115" y="639.9238">application</text><polygon fill="#181818" points="119,726.4844,109,730.4844,119,734.4844,115,730.4844" style="stroke:#181818;stroke-width:1.0;"/><line style="stroke:#181818;stroke-width:1.0;stroke-dasharray:2.0,2.0;" x1="113" x2="309" y1="730.4844" y2="730.4844"/><text fill="#000000" font-family="sans-serif" font-size="20" lengthAdjust="spacing" textLength="46" x="125" y="677.2051">Asks</text><text fill="#000000" font-family="sans-serif" font-size="20" lengthAdjust="spacing" textLength="6" x="171" y="677.2051"> </text><text fill="#000000" font-family="sans-serif" font-size="20" lengthAdjust="spacing" textLength="20" x="177" y="677.2051">to</text><text fill="#000000" font-family="sans-serif" font-size="20" lengthAdjust="spacing" textLength="6" x="197" y="677.2051"> </text><text fill="#000000" font-family="sans-serif" font-size="20" lengthAdjust="spacing" textLength="44" x="203" y="677.2051">type</text><text fill="#000000" font-family="sans-serif" font-size="20" lengthAdjust="spacing" textLength="33" x="125" y="700.4863">the</text><text fill="#000000" font-family="sans-serif" font-size="20" lengthAdjust="spacing" textLength="6" x="158" y="700.4863"> </text><text fill="#000000" font-family="sans-serif" font-size="20" lengthAdjust="spacing" textLength="93" x="164" y="700.4863">interview</text><text fill="#000000" font-family="sans-serif" font-size="20" lengthAdjust="spacing" textLength="45" x="125" y="723.7676">date</text><text fill="#000000" font-family="sans-serif" font-size="20" lengthAdjust="spacing" textLength="6" x="170" y="723.7676"> </text><text fill="#000000" font-family="sans-serif" font-size="20" lengthAdjust="spacing" textLength="38" x="176" y="723.7676">and</text><text fill="#000000" font-family="sans-serif" font-size="20" lengthAdjust="spacing" textLength="6" x="214" y="723.7676"> </text><text fill="#000000" font-family="sans-serif" font-size="20" lengthAdjust="spacing" textLength="46" x="220" y="723.7676">time</text><polygon fill="#181818" points="293,810.3281,303,814.3281,293,818.3281,297,814.3281" style="stroke:#181818;stroke-width:1.0;"/><line style="stroke:#181818;stroke-width:1.0;" x1="108" x2="299" y1="814.3281" y2="814.3281"/><text fill="#000000" font-family="sans-serif" font-size="20" lengthAdjust="spacing" textLength="54" x="115" y="761.0488">types</text><text fill="#000000" font-family="sans-serif" font-size="20" lengthAdjust="spacing" textLength="6" x="169" y="761.0488"> </text><text fill="#000000" font-family="sans-serif" font-size="20" lengthAdjust="spacing" textLength="33" x="175" y="761.0488">the</text><text fill="#000000" font-family="sans-serif" font-size="20" lengthAdjust="spacing" textLength="93" x="115" y="784.3301">interview</text><text fill="#000000" font-family="sans-serif" font-size="20" lengthAdjust="spacing" textLength="6" x="208" y="784.3301"> </text><text fill="#000000" font-family="sans-serif" font-size="20" lengthAdjust="spacing" textLength="45" x="214" y="784.3301">date</text><text fill="#000000" font-family="sans-serif" font-size="20" lengthAdjust="spacing" textLength="38" x="115" y="807.6113">and</text><text fill="#000000" font-family="sans-serif" font-size="20" lengthAdjust="spacing" textLength="6" x="153" y="807.6113"> </text><text fill="#000000" font-family="sans-serif" font-size="20" lengthAdjust="spacing" textLength="46" x="159" y="807.6113">time</text><polygon fill="#181818" points="604,870.8906,614,874.8906,604,878.8906,608,874.8906" style="stroke:#181818;stroke-width:1.0;"/><line style="stroke:#181818;stroke-width:1.0;stroke-dasharray:2.0,2.0;" x1="315" x2="610" y1="874.8906" y2="874.8906"/><text fill="#000000" font-family="sans-serif" font-size="20" lengthAdjust="spacing" textLength="282" x="322" y="844.8926">createInterview(application,</text><text fill="#000000" font-family="sans-serif" font-size="20" lengthAdjust="spacing" textLength="51" x="322" y="868.1738">date,</text><text fill="#000000" font-family="sans-serif" font-size="20" lengthAdjust="spacing" textLength="6" x="373" y="868.1738"> </text><text fill="#000000" font-family="sans-serif" font-size="20" lengthAdjust="spacing" textLength="54" x="379" y="868.1738">time)</text><polygon fill="#181818" points="915,931.4531,925,935.4531,915,939.4531,919,935.4531" style="stroke:#181818;stroke-width:1.0;"/><line style="stroke:#181818;stroke-width:1.0;" x1="626" x2="921" y1="935.4531" y2="935.4531"/><text fill="#000000" font-family="sans-serif" font-size="20" lengthAdjust="spacing" textLength="282" x="633" y="905.4551">createInterview(application,</text><text fill="#000000" font-family="sans-serif" font-size="20" lengthAdjust="spacing" textLength="51" x="633" y="928.7363">date,</text><text fill="#000000" font-family="sans-serif" font-size="20" lengthAdjust="spacing" textLength="6" x="684" y="928.7363"> </text><text fill="#000000" font-family="sans-serif" font-size="20" lengthAdjust="spacing" textLength="54" x="690" y="928.7363">time)</text><polygon fill="#181818" points="637,968.7344,627,972.7344,637,976.7344,633,972.7344" style="stroke:#181818;stroke-width:1.0;"/><line style="stroke:#181818;stroke-width:1.0;stroke-dasharray:2.0,2.0;" x1="631" x2="931" y1="972.7344" y2="972.7344"/><text fill="#000000" font-family="sans-serif" font-size="20" lengthAdjust="spacing" textLength="93" x="643" y="966.0176">Interview</text><polygon fill="#181818" points="1085,1006.0156,1095,1010.0156,1085,1014.0156,1089,1010.0156" style="stroke:#181818;stroke-width:1.0;"/><line style="stroke:#181818;stroke-width:1.0;" x1="626" x2="1091" y1="1010.0156" y2="1010.0156"/><text fill="#000000" font-family="sans-serif" font-size="20" lengthAdjust="spacing" textLength="154" x="633" y="1003.2988">save(Interview)</text><polygon fill="#181818" points="1323.5,1043.2969,1333.5,1047.2969,1323.5,1051.2969,1327.5,1047.2969" style="stroke:#181818;stroke-width:1.0;"/><line style="stroke:#181818;stroke-width:1.0;" x1="1107" x2="1329.5" y1="1047.2969" y2="1047.2969"/><text fill="#000000" font-family="sans-serif" font-size="20" lengthAdjust="spacing" textLength="154" x="1114" y="1040.5801">save(Interview)</text><polygon fill="#181818" points="1506.5,1080.5781,1516.5,1084.5781,1506.5,1088.5781,1510.5,1084.5781" style="stroke:#181818;stroke-width:1.0;"/><line style="stroke:#181818;stroke-width:1.0;" x1="1345.5" x2="1512.5" y1="1084.5781" y2="1084.5781"/><text fill="#000000" font-family="sans-serif" font-size="20" lengthAdjust="spacing" textLength="154" x="1352.5" y="1077.8613">save(Interview)</text><polygon fill="#181818" points="1356.5,1117.8594,1346.5,1121.8594,1356.5,1125.8594,1352.5,1121.8594" style="stroke:#181818;stroke-width:1.0;"/><line style="stroke:#181818;stroke-width:1.0;stroke-dasharray:2.0,2.0;" x1="1350.5" x2="1522.5" y1="1121.8594" y2="1121.8594"/><text fill="#000000" font-family="sans-serif" font-size="20" lengthAdjust="spacing" textLength="80" x="1362.5" y="1115.1426">boolean</text><polygon fill="#181818" points="1118,1155.1406,1108,1159.1406,1118,1163.1406,1114,1159.1406" style="stroke:#181818;stroke-width:1.0;"/><line style="stroke:#181818;stroke-width:1.0;stroke-dasharray:2.0,2.0;" x1="1112" x2="1339.5" y1="1159.1406" y2="1159.1406"/><text fill="#000000" font-family="sans-serif" font-size="20" lengthAdjust="spacing" textLength="80" x="1124" y="1152.4238">boolean</text><polygon fill="#181818" points="637,1192.4219,627,1196.4219,637,1200.4219,633,1196.4219" style="stroke:#181818;stroke-width:1.0;"/><line style="stroke:#181818;stroke-width:1.0;stroke-dasharray:2.0,2.0;" x1="631" x2="1101" y1="1196.4219" y2="1196.4219"/><text fill="#000000" font-family="sans-serif" font-size="20" lengthAdjust="spacing" textLength="80" x="643" y="1189.7051">boolean</text><polygon fill="#181818" points="326,1229.7031,316,1233.7031,326,1237.7031,322,1233.7031" style="stroke:#181818;stroke-width:1.0;"/><line style="stroke:#181818;stroke-width:1.0;stroke-dasharray:2.0,2.0;" x1="320" x2="620" y1="1233.7031" y2="1233.7031"/><text fill="#000000" font-family="sans-serif" font-size="20" lengthAdjust="spacing" textLength="80" x="332" y="1226.9863">boolean</text><polygon fill="#181818" points="114,1313.5469,104,1317.5469,114,1321.5469,110,1317.5469" style="stroke:#181818;stroke-width:1.0;"/><line style="stroke:#181818;stroke-width:1.0;stroke-dasharray:2.0,2.0;" x1="108" x2="309" y1="1317.5469" y2="1317.5469"/><text fill="#000000" font-family="sans-serif" font-size="20" lengthAdjust="spacing" textLength="76" x="120" y="1264.2676">Informs</text><text fill="#000000" font-family="sans-serif" font-size="20" lengthAdjust="spacing" textLength="6" x="196" y="1264.2676"> </text><text fill="#000000" font-family="sans-serif" font-size="20" lengthAdjust="spacing" textLength="13" x="202" y="1264.2676">if</text><text fill="#000000" font-family="sans-serif" font-size="20" lengthAdjust="spacing" textLength="6" x="215" y="1264.2676"> </text><text fill="#000000" font-family="sans-serif" font-size="20" lengthAdjust="spacing" textLength="33" x="221" y="1264.2676">the</text><text fill="#000000" font-family="sans-serif" font-size="20" lengthAdjust="spacing" textLength="93" x="120" y="1287.5488">interview</text><text fill="#000000" font-family="sans-serif" font-size="20" lengthAdjust="spacing" textLength="6" x="213" y="1287.5488"> </text><text fill="#000000" font-family="sans-serif" font-size="20" lengthAdjust="spacing" textLength="39" x="219" y="1287.5488">was</text><text fill="#000000" font-family="sans-serif" font-size="20" lengthAdjust="spacing" textLength="76" x="120" y="1310.8301">created</text><!--SRC=[dPNDRXen483l-nGZJga44cd5XKEb9AWIKQj6GTnwCRi3E7ZjhUs5qfVe6rJgM_Hv-W9zXOwT_V6Q1INbXEVdyynuPjRik2oOPhbGwGupo73DIc4_A6aN_3l2st6IM6u5mWA_bYXJX1bd6tA04ImNr-Fn94bC3G719TfZWQ2qtQf0aRDlEHh3DcWSzdeo3fIcGZymRNdA2oOjb393xN19mbAhD0pkIcDLZXe-CKaSFG1c8As4bIn9Ye0nUCHKwMmkBUeznyDoxdsMyujMTvIxLa9KDxJ7hbTZxwsQKtB6wX4BPJWbSlJsxR5hVr-mSowa2hmoPjcA6OJ1hFhdZMQtlbvypooU5YSImEWz5MCADsPdm2hGlX30WBVPD32g6j1FunhKddmZrf2kXkbpIxo3Fpz__Vtz0pvoO-5UhU1pWPBBZV68vHn6T7CSp1GMMtKmr4FafDRmH7wgyWCcAQugJ8C2KpAXtiWmZAytFU8-En0aPFvNPfDEPZT58NZAB5VoLPcnmEzSPWud5KMd-MPhFQ4K6Qd4aIArfPQmPu9d7TWN2NQBxVCzR5s7IAJ19leAmUVy-h85TtJATZRVkgFyBkY419dpTKbRdiUHd0t5SSn5KFoQLMZjz4uXrKW6pNXT1LaDFMteKM-yVyCBvX-gNojo0JR0LzxGkQNT7xMgaPpaSMeRLF5KsOssNI7qm6oFLur3JrJ1lgbrhSZHEZlf1S3k3glL7Qd3pcvVmA9LLyjeG4UdqQoK4iXaNvK2t-Zog4GN6FsvHApmtIwmUa3XirLx-WAWfqlxXzErprhft01VHmDrSDzJty5P4k5fgA993OxnP-OV]--></g></svg>