<?xml version="1.0" encoding="UTF-8" standalone="no"?><svg xmlns="http://www.w3.org/2000/svg" xmlns:xlink="http://www.w3.org/1999/xlink" contentStyleType="text/css" height="2243px" preserveAspectRatio="none" style="width:5223px;height:2243px;background:#FFFFFF;" version="1.1" viewBox="0 0 5223 2243" width="5223px" zoomAndPan="magnify"><defs/><g><text fill="#000000" font-family="sans-serif" font-size="14" font-weight="bold" lengthAdjust="spacing" textLength="494" x="2366" y="27.9951">EditJobOpeningUI Sequence Diagram (SSD) - Edit a Job Opening</text><rect fill="#FFFFFF" height="2011.5938" style="stroke:#181818;stroke-width:1.0;" width="10" x="113" y="135.5781"/><rect fill="#FFFFFF" height="37.2813" style="stroke:#181818;stroke-width:1.0;" width="10" x="800" y="164.8594"/><rect fill="#FFFFFF" height="323.8125" style="stroke:#181818;stroke-width:1.0;" width="10" x="800" y="239.4219"/><rect fill="#FFFFFF" height="1537.6563" style="stroke:#181818;stroke-width:1.0;" width="10" x="800" y="600.5156"/><rect fill="#FFFFFF" height="721.1875" style="stroke:#181818;stroke-width:1.0;" width="10" x="1549" y="661.0781"/><rect fill="#FFFFFF" height="298.25" style="stroke:#181818;stroke-width:1.0;" width="10" x="1549" y="1460.1094"/><rect fill="#FFFFFF" height="344.5313" style="stroke:#181818;stroke-width:1.0;" width="10" x="1549" y="1802.6406"/><rect fill="#FFFFFF" height="186.4063" style="stroke:#181818;stroke-width:1.0;" width="10" x="2267" y="1158.5781"/><rect fill="#FFFFFF" height="111.8438" style="stroke:#181818;stroke-width:1.0;" width="10" x="2529.5" y="1195.8594"/><rect fill="#FFFFFF" height="186.4063" style="stroke:#181818;stroke-width:1.0;" width="10" x="3386.5" y="1534.6719"/><rect fill="#FFFFFF" height="111.8438" style="stroke:#181818;stroke-width:1.0;" width="10" x="3742" y="1571.9531"/><rect fill="#FFFFFF" height="186.4063" style="stroke:#181818;stroke-width:1.0;" width="10" x="4388.5" y="1877.2031"/><rect fill="#FFFFFF" height="111.8438" style="stroke:#181818;stroke-width:1.0;" width="10" x="4782" y="1914.4844"/><rect fill="#FFFFFF" height="37.2813" style="stroke:#181818;stroke-width:1.0;" width="10" x="5152" y="1233.1406"/><rect fill="#FFFFFF" height="37.2813" style="stroke:#181818;stroke-width:1.0;" width="10" x="5152" y="1609.2344"/><rect fill="#FFFFFF" height="37.2813" style="stroke:#181818;stroke-width:1.0;" width="10" x="5152" y="1951.7656"/><rect fill="none" height="272.5313" style="stroke:#000000;stroke-width:1.5;" width="901" x="10" y="254.4219"/><rect fill="none" height="446.2188" style="stroke:#000000;stroke-width:1.5;" width="744.5" x="1409" y="676.0781"/><rect fill="none" height="369.0938" style="stroke:#000000;stroke-width:1.5;" width="4518" x="699" y="1397.2656"/><line style="stroke:#181818;stroke-width:0.5;stroke-dasharray:5.0,5.0;" x1="118" x2="118" y1="125.5781" y2="2156.1719"/><line style="stroke:#181818;stroke-width:0.5;stroke-dasharray:5.0,5.0;" x1="805" x2="805" y1="125.5781" y2="2156.1719"/><line style="stroke:#181818;stroke-width:0.5;stroke-dasharray:5.0,5.0;" x1="1554" x2="1554" y1="125.5781" y2="2156.1719"/><line style="stroke:#181818;stroke-width:0.5;stroke-dasharray:5.0,5.0;" x1="2077.5" x2="2077.5" y1="125.5781" y2="2156.1719"/><line style="stroke:#181818;stroke-width:0.5;stroke-dasharray:5.0,5.0;" x1="2271.5" x2="2271.5" y1="125.5781" y2="2156.1719"/><line style="stroke:#181818;stroke-width:0.5;stroke-dasharray:5.0,5.0;" x1="2534.5" x2="2534.5" y1="125.5781" y2="2156.1719"/><line style="stroke:#181818;stroke-width:0.5;stroke-dasharray:5.0,5.0;" x1="2830.5" x2="2830.5" y1="125.5781" y2="2156.1719"/><line style="stroke:#181818;stroke-width:0.5;stroke-dasharray:5.0,5.0;" x1="3104.5" x2="3104.5" y1="125.5781" y2="2156.1719"/><line style="stroke:#181818;stroke-width:0.5;stroke-dasharray:5.0,5.0;" x1="3391.5" x2="3391.5" y1="125.5781" y2="2156.1719"/><line style="stroke:#181818;stroke-width:0.5;stroke-dasharray:5.0,5.0;" x1="3746.5" x2="3746.5" y1="125.5781" y2="2156.1719"/><line style="stroke:#181818;stroke-width:0.5;stroke-dasharray:5.0,5.0;" x1="4068.5" x2="4068.5" y1="125.5781" y2="2156.1719"/><line style="stroke:#181818;stroke-width:0.5;stroke-dasharray:5.0,5.0;" x1="4393.5" x2="4393.5" y1="125.5781" y2="2156.1719"/><line style="stroke:#181818;stroke-width:0.5;stroke-dasharray:5.0,5.0;" x1="4786.5" x2="4786.5" y1="125.5781" y2="2156.1719"/><line style="stroke:#181818;stroke-width:0.5;stroke-dasharray:5.0,5.0;" x1="5157" x2="5157" y1="125.5781" y2="2156.1719"/><text fill="#000000" font-family="sans-serif" font-size="20" lengthAdjust="spacing" textLength="190" x="20" y="120.8613">Customer Manager</text><ellipse cx="118" cy="50.7969" fill="#E3E3E3" rx="8" ry="8" style="stroke:#181818;stroke-width:0.5;"/><path d="M118,58.7969 L118,85.7969 M105,66.7969 L131,66.7969 M118,85.7969 L105,100.7969 M118,85.7969 L131,100.7969 " fill="none" style="stroke:#181818;stroke-width:0.5;"/><text fill="#000000" font-family="sans-serif" font-size="20" lengthAdjust="spacing" textLength="190" x="20" y="2173.7363">Customer Manager</text><ellipse cx="118" cy="2186.9531" fill="#E3E3E3" rx="8" ry="8" style="stroke:#181818;stroke-width:0.5;"/><path d="M118,2194.9531 L118,2221.9531 M105,2202.9531 L131,2202.9531 M118,2221.9531 L105,2236.9531 M118,2221.9531 L131,2236.9531 " fill="none" style="stroke:#181818;stroke-width:0.5;"/><rect fill="#E3E3E3" height="37.2813" rx="2.5" ry="2.5" style="stroke:#181818;stroke-width:0.5;" width="192" x="709" y="87.2969"/><text fill="#000000" font-family="sans-serif" font-size="20" lengthAdjust="spacing" textLength="178" x="716" y="112.8613">EditJobOpeningUI</text><rect fill="#E3E3E3" height="37.2813" rx="2.5" ry="2.5" style="stroke:#181818;stroke-width:0.5;" width="192" x="709" y="2155.1719"/><text fill="#000000" font-family="sans-serif" font-size="20" lengthAdjust="spacing" textLength="178" x="716" y="2180.7363">EditJobOpeningUI</text><rect fill="#E3E3E3" height="37.2813" rx="2.5" ry="2.5" style="stroke:#181818;stroke-width:0.5;" width="270" x="1419" y="87.2969"/><text fill="#000000" font-family="sans-serif" font-size="20" lengthAdjust="spacing" textLength="256" x="1426" y="112.8613">EditJobOpeningController</text><rect fill="#E3E3E3" height="37.2813" rx="2.5" ry="2.5" style="stroke:#181818;stroke-width:0.5;" width="270" x="1419" y="2155.1719"/><text fill="#000000" font-family="sans-serif" font-size="20" lengthAdjust="spacing" textLength="256" x="1426" y="2180.7363">EditJobOpeningController</text><rect fill="#E3E3E3" height="37.2813" rx="2.5" ry="2.5" style="stroke:#181818;stroke-width:0.5;" width="131" x="2012.5" y="87.2969"/><text fill="#000000" font-family="sans-serif" font-size="20" lengthAdjust="spacing" textLength="117" x="2019.5" y="112.8613">JobOpening</text><rect fill="#E3E3E3" height="37.2813" rx="2.5" ry="2.5" style="stroke:#181818;stroke-width:0.5;" width="131" x="2012.5" y="2155.1719"/><text fill="#000000" font-family="sans-serif" font-size="20" lengthAdjust="spacing" textLength="117" x="2019.5" y="2180.7363">JobOpening</text><rect fill="#E3E3E3" height="37.2813" rx="2.5" ry="2.5" style="stroke:#181818;stroke-width:0.5;" width="237" x="2153.5" y="87.2969"/><text fill="#000000" font-family="sans-serif" font-size="20" lengthAdjust="spacing" textLength="223" x="2160.5" y="112.8613">JobOpeningRepository</text><rect fill="#E3E3E3" height="37.2813" rx="2.5" ry="2.5" style="stroke:#181818;stroke-width:0.5;" width="237" x="2153.5" y="2155.1719"/><text fill="#000000" font-family="sans-serif" font-size="20" lengthAdjust="spacing" textLength="223" x="2160.5" y="2180.7363">JobOpeningRepository</text><rect fill="#E3E3E3" height="37.2813" rx="2.5" ry="2.5" style="stroke:#181818;stroke-width:0.5;" width="268" x="2400.5" y="87.2969"/><text fill="#000000" font-family="sans-serif" font-size="20" lengthAdjust="spacing" textLength="254" x="2407.5" y="112.8613">JpaJobOpeningRepository</text><rect fill="#E3E3E3" height="37.2813" rx="2.5" ry="2.5" style="stroke:#181818;stroke-width:0.5;" width="268" x="2400.5" y="2155.1719"/><text fill="#000000" font-family="sans-serif" font-size="20" lengthAdjust="spacing" textLength="254" x="2407.5" y="2180.7363">JpaJobOpeningRepository</text><rect fill="#E3E3E3" height="37.2813" rx="2.5" ry="2.5" style="stroke:#181818;stroke-width:0.5;" width="304" x="2678.5" y="87.2969"/><text fill="#000000" font-family="sans-serif" font-size="20" lengthAdjust="spacing" textLength="290" x="2685.5" y="112.8613">OpenOrClosePhaseController</text><rect fill="#E3E3E3" height="37.2813" rx="2.5" ry="2.5" style="stroke:#181818;stroke-width:0.5;" width="304" x="2678.5" y="2155.1719"/><text fill="#000000" font-family="sans-serif" font-size="20" lengthAdjust="spacing" textLength="290" x="2685.5" y="2180.7363">OpenOrClosePhaseController</text><rect fill="#E3E3E3" height="37.2813" rx="2.5" ry="2.5" style="stroke:#181818;stroke-width:0.5;" width="224" x="2992.5" y="87.2969"/><text fill="#000000" font-family="sans-serif" font-size="20" lengthAdjust="spacing" textLength="210" x="2999.5" y="112.8613">JobOpeningInterview</text><rect fill="#E3E3E3" height="37.2813" rx="2.5" ry="2.5" style="stroke:#181818;stroke-width:0.5;" width="224" x="2992.5" y="2155.1719"/><text fill="#000000" font-family="sans-serif" font-size="20" lengthAdjust="spacing" textLength="210" x="2999.5" y="2180.7363">JobOpeningInterview</text><rect fill="#E3E3E3" height="37.2813" rx="2.5" ry="2.5" style="stroke:#181818;stroke-width:0.5;" width="330" x="3226.5" y="87.2969"/><text fill="#000000" font-family="sans-serif" font-size="20" lengthAdjust="spacing" textLength="316" x="3233.5" y="112.8613">JobOpeningInterviewRepository</text><rect fill="#E3E3E3" height="37.2813" rx="2.5" ry="2.5" style="stroke:#181818;stroke-width:0.5;" width="330" x="3226.5" y="2155.1719"/><text fill="#000000" font-family="sans-serif" font-size="20" lengthAdjust="spacing" textLength="316" x="3233.5" y="2180.7363">JobOpeningInterviewRepository</text><rect fill="#E3E3E3" height="37.2813" rx="2.5" ry="2.5" style="stroke:#181818;stroke-width:0.5;" width="361" x="3566.5" y="87.2969"/><text fill="#000000" font-family="sans-serif" font-size="20" lengthAdjust="spacing" textLength="347" x="3573.5" y="112.8613">JpaJobOpeningInterviewRepository</text><rect fill="#E3E3E3" height="37.2813" rx="2.5" ry="2.5" style="stroke:#181818;stroke-width:0.5;" width="361" x="3566.5" y="2155.1719"/><text fill="#000000" font-family="sans-serif" font-size="20" lengthAdjust="spacing" textLength="347" x="3573.5" y="2180.7363">JpaJobOpeningInterviewRepository</text><rect fill="#E3E3E3" height="37.2813" rx="2.5" ry="2.5" style="stroke:#181818;stroke-width:0.5;" width="262" x="3937.5" y="87.2969"/><text fill="#000000" font-family="sans-serif" font-size="20" lengthAdjust="spacing" textLength="248" x="3944.5" y="112.8613">JobOpeningRequirement</text><rect fill="#E3E3E3" height="37.2813" rx="2.5" ry="2.5" style="stroke:#181818;stroke-width:0.5;" width="262" x="3937.5" y="2155.1719"/><text fill="#000000" font-family="sans-serif" font-size="20" lengthAdjust="spacing" textLength="248" x="3944.5" y="2180.7363">JobOpeningRequirement</text><rect fill="#E3E3E3" height="37.2813" rx="2.5" ry="2.5" style="stroke:#181818;stroke-width:0.5;" width="368" x="4209.5" y="87.2969"/><text fill="#000000" font-family="sans-serif" font-size="20" lengthAdjust="spacing" textLength="354" x="4216.5" y="112.8613">JobOpeningRequirementRepository</text><rect fill="#E3E3E3" height="37.2813" rx="2.5" ry="2.5" style="stroke:#181818;stroke-width:0.5;" width="368" x="4209.5" y="2155.1719"/><text fill="#000000" font-family="sans-serif" font-size="20" lengthAdjust="spacing" textLength="354" x="4216.5" y="2180.7363">JobOpeningRequirementRepository</text><rect fill="#E3E3E3" height="37.2813" rx="2.5" ry="2.5" style="stroke:#181818;stroke-width:0.5;" width="399" x="4587.5" y="87.2969"/><text fill="#000000" font-family="sans-serif" font-size="20" lengthAdjust="spacing" textLength="385" x="4594.5" y="112.8613">JpaJobOpeningRequirementRepository</text><rect fill="#E3E3E3" height="37.2813" rx="2.5" ry="2.5" style="stroke:#181818;stroke-width:0.5;" width="399" x="4587.5" y="2155.1719"/><text fill="#000000" font-family="sans-serif" font-size="20" lengthAdjust="spacing" textLength="385" x="4594.5" y="2180.7363">JpaJobOpeningRequirementRepository</text><text fill="#000000" font-family="sans-serif" font-size="20" lengthAdjust="spacing" textLength="94" x="5107" y="120.8613">Database</text><path d="M5139,66.2969 C5139,56.2969 5157,56.2969 5157,56.2969 C5157,56.2969 5175,56.2969 5175,66.2969 L5175,92.2969 C5175,102.2969 5157,102.2969 5157,102.2969 C5157,102.2969 5139,102.2969 5139,92.2969 L5139,66.2969 " fill="#E3E3E3" style="stroke:#181818;stroke-width:1.5;"/><path d="M5139,66.2969 C5139,76.2969 5157,76.2969 5157,76.2969 C5157,76.2969 5175,76.2969 5175,66.2969 " fill="none" style="stroke:#181818;stroke-width:1.5;"/><text fill="#000000" font-family="sans-serif" font-size="20" lengthAdjust="spacing" textLength="94" x="5107" y="2173.7363">Database</text><path d="M5139,2188.4531 C5139,2178.4531 5157,2178.4531 5157,2178.4531 C5157,2178.4531 5175,2178.4531 5175,2188.4531 L5175,2214.4531 C5175,2224.4531 5157,2224.4531 5157,2224.4531 C5157,2224.4531 5139,2224.4531 5139,2214.4531 L5139,2188.4531 " fill="#E3E3E3" style="stroke:#181818;stroke-width:1.5;"/><path d="M5139,2188.4531 C5139,2198.4531 5157,2198.4531 5157,2198.4531 C5157,2198.4531 5175,2198.4531 5175,2188.4531 " fill="none" style="stroke:#181818;stroke-width:1.5;"/><rect fill="#FFFFFF" height="2011.5938" style="stroke:#181818;stroke-width:1.0;" width="10" x="113" y="135.5781"/><rect fill="#FFFFFF" height="37.2813" style="stroke:#181818;stroke-width:1.0;" width="10" x="800" y="164.8594"/><rect fill="#FFFFFF" height="323.8125" style="stroke:#181818;stroke-width:1.0;" width="10" x="800" y="239.4219"/><rect fill="#FFFFFF" height="1537.6563" style="stroke:#181818;stroke-width:1.0;" width="10" x="800" y="600.5156"/><rect fill="#FFFFFF" height="721.1875" style="stroke:#181818;stroke-width:1.0;" width="10" x="1549" y="661.0781"/><rect fill="#FFFFFF" height="298.25" style="stroke:#181818;stroke-width:1.0;" width="10" x="1549" y="1460.1094"/><rect fill="#FFFFFF" height="344.5313" style="stroke:#181818;stroke-width:1.0;" width="10" x="1549" y="1802.6406"/><rect fill="#FFFFFF" height="186.4063" style="stroke:#181818;stroke-width:1.0;" width="10" x="2267" y="1158.5781"/><rect fill="#FFFFFF" height="111.8438" style="stroke:#181818;stroke-width:1.0;" width="10" x="2529.5" y="1195.8594"/><rect fill="#FFFFFF" height="186.4063" style="stroke:#181818;stroke-width:1.0;" width="10" x="3386.5" y="1534.6719"/><rect fill="#FFFFFF" height="111.8438" style="stroke:#181818;stroke-width:1.0;" width="10" x="3742" y="1571.9531"/><rect fill="#FFFFFF" height="186.4063" style="stroke:#181818;stroke-width:1.0;" width="10" x="4388.5" y="1877.2031"/><rect fill="#FFFFFF" height="111.8438" style="stroke:#181818;stroke-width:1.0;" width="10" x="4782" y="1914.4844"/><rect fill="#FFFFFF" height="37.2813" style="stroke:#181818;stroke-width:1.0;" width="10" x="5152" y="1233.1406"/><rect fill="#FFFFFF" height="37.2813" style="stroke:#181818;stroke-width:1.0;" width="10" x="5152" y="1609.2344"/><rect fill="#FFFFFF" height="37.2813" style="stroke:#181818;stroke-width:1.0;" width="10" x="5152" y="1951.7656"/><polygon fill="#181818" points="788,160.8594,798,164.8594,788,168.8594,792,164.8594" style="stroke:#181818;stroke-width:1.0;"/><line style="stroke:#181818;stroke-width:1.0;" x1="123" x2="794" y1="164.8594" y2="164.8594"/><text fill="#000000" font-family="sans-serif" font-size="20" font-weight="bold" lengthAdjust="spacing" textLength="14" x="130" y="158.1426">1</text><text fill="#000000" font-family="sans-serif" font-size="20" lengthAdjust="spacing" textLength="260" x="148" y="158.1426">Asks to edit a job opening</text><polygon fill="#181818" points="134,198.1406,124,202.1406,134,206.1406,130,202.1406" style="stroke:#181818;stroke-width:1.0;"/><line style="stroke:#181818;stroke-width:1.0;stroke-dasharray:2.0,2.0;" x1="128" x2="804" y1="202.1406" y2="202.1406"/><text fill="#000000" font-family="sans-serif" font-size="20" font-weight="bold" lengthAdjust="spacing" textLength="14" x="140" y="195.4238">2</text><text fill="#000000" font-family="sans-serif" font-size="20" lengthAdjust="spacing" textLength="261" x="158" y="195.4238">Shows list of job openings</text><polygon fill="#181818" points="788,235.4219,798,239.4219,788,243.4219,792,239.4219" style="stroke:#181818;stroke-width:1.0;"/><line style="stroke:#181818;stroke-width:1.0;" x1="123" x2="794" y1="239.4219" y2="239.4219"/><text fill="#000000" font-family="sans-serif" font-size="20" font-weight="bold" lengthAdjust="spacing" textLength="14" x="130" y="232.7051">3</text><text fill="#000000" font-family="sans-serif" font-size="20" lengthAdjust="spacing" textLength="297" x="148" y="232.7051">Chooses a job opening to edit</text><path d="M10,254.4219 L104,254.4219 L104,269.7031 L94,279.7031 L10,279.7031 L10,254.4219 " fill="#EEEEEE" style="stroke:#000000;stroke-width:1.5;"/><rect fill="none" height="272.5313" style="stroke:#000000;stroke-width:1.5;" width="901" x="10" y="254.4219"/><text fill="#000000" font-family="sans-serif" font-size="20" font-weight="bold" lengthAdjust="spacing" textLength="49" x="25" y="273.9863">loop</text><text fill="#000000" font-family="sans-serif" font-size="20" font-weight="bold" lengthAdjust="spacing" textLength="673" x="119" y="274.9863">[until the Customer Manager is satisfied with the changes]</text><polygon fill="#181818" points="134,313.2656,124,317.2656,134,321.2656,130,317.2656" style="stroke:#181818;stroke-width:1.0;"/><line style="stroke:#181818;stroke-width:1.0;stroke-dasharray:2.0,2.0;" x1="128" x2="799" y1="317.2656" y2="317.2656"/><text fill="#000000" font-family="sans-serif" font-size="20" font-weight="bold" lengthAdjust="spacing" textLength="14" x="140" y="310.5488">4</text><text fill="#000000" font-family="sans-serif" font-size="20" lengthAdjust="spacing" textLength="355" x="158" y="310.5488">Shows list of job opening attributes</text><path d="M128,330.2656 L128,409.2656 L802,409.2656 L802,340.2656 L792,330.2656 L128,330.2656 " fill="#FAFAFA" style="stroke:#181818;stroke-width:0.5;"/><path d="M792,330.2656 L792,340.2656 L802,340.2656 L792,330.2656 " fill="#FAFAFA" style="stroke:#181818;stroke-width:0.5;"/><text fill="#000000" font-family="sans-serif" font-size="20" lengthAdjust="spacing" textLength="626" x="134" y="353.8301">Attributes are: Title or function, Contract Type, Mode, Address,</text><text fill="#000000" font-family="sans-serif" font-size="20" lengthAdjust="spacing" textLength="653" x="134" y="377.1113">Number of vacancies, Description and Requirement Specification</text><text fill="#000000" font-family="sans-serif" font-size="20" lengthAdjust="spacing" textLength="590" x="134" y="400.3926">depending on the phase that the recruitment process is in.</text><polygon fill="#181818" points="788,440.3906,798,444.3906,788,448.3906,792,444.3906" style="stroke:#181818;stroke-width:1.0;"/><line style="stroke:#181818;stroke-width:1.0;" x1="123" x2="794" y1="444.3906" y2="444.3906"/><text fill="#000000" font-family="sans-serif" font-size="20" font-weight="bold" lengthAdjust="spacing" textLength="14" x="130" y="437.6738">5</text><text fill="#000000" font-family="sans-serif" font-size="20" lengthAdjust="spacing" textLength="279" x="148" y="437.6738">Chooses an attribute to edit</text><polygon fill="#181818" points="134,477.6719,124,481.6719,134,485.6719,130,481.6719" style="stroke:#181818;stroke-width:1.0;"/><line style="stroke:#181818;stroke-width:1.0;stroke-dasharray:2.0,2.0;" x1="128" x2="799" y1="481.6719" y2="481.6719"/><text fill="#000000" font-family="sans-serif" font-size="20" font-weight="bold" lengthAdjust="spacing" textLength="14" x="140" y="474.9551">6</text><text fill="#000000" font-family="sans-serif" font-size="20" lengthAdjust="spacing" textLength="635" x="158" y="474.9551">Shows current value of chosen attribute and asks for new value</text><polygon fill="#181818" points="788,514.9531,798,518.9531,788,522.9531,792,518.9531" style="stroke:#181818;stroke-width:1.0;"/><line style="stroke:#181818;stroke-width:1.0;" x1="123" x2="794" y1="518.9531" y2="518.9531"/><text fill="#000000" font-family="sans-serif" font-size="20" font-weight="bold" lengthAdjust="spacing" textLength="14" x="130" y="512.2363">7</text><text fill="#000000" font-family="sans-serif" font-size="20" lengthAdjust="spacing" textLength="396" x="148" y="512.2363">Provides new value for chosen attribute</text><polygon fill="#181818" points="134,559.2344,124,563.2344,134,567.2344,130,563.2344" style="stroke:#181818;stroke-width:1.0;"/><line style="stroke:#181818;stroke-width:1.0;stroke-dasharray:2.0,2.0;" x1="128" x2="804" y1="563.2344" y2="563.2344"/><text fill="#000000" font-family="sans-serif" font-size="20" font-weight="bold" lengthAdjust="spacing" textLength="14" x="140" y="556.5176">8</text><text fill="#000000" font-family="sans-serif" font-size="20" lengthAdjust="spacing" textLength="245" x="158" y="556.5176">Asks to confirm changes</text><polygon fill="#181818" points="788,596.5156,798,600.5156,788,604.5156,792,600.5156" style="stroke:#181818;stroke-width:1.0;"/><line style="stroke:#181818;stroke-width:1.0;" x1="123" x2="794" y1="600.5156" y2="600.5156"/><text fill="#000000" font-family="sans-serif" font-size="20" font-weight="bold" lengthAdjust="spacing" textLength="14" x="130" y="593.7988">9</text><text fill="#000000" font-family="sans-serif" font-size="20" lengthAdjust="spacing" textLength="180" x="148" y="593.7988">Confirms changes</text><polygon fill="#181818" points="1537,657.0781,1547,661.0781,1537,665.0781,1541,661.0781" style="stroke:#181818;stroke-width:1.0;"/><line style="stroke:#181818;stroke-width:1.0;" x1="810" x2="1543" y1="661.0781" y2="661.0781"/><text fill="#000000" font-family="sans-serif" font-size="20" font-weight="bold" lengthAdjust="spacing" textLength="28" x="817" y="642.7207">10</text><text fill="#000000" font-family="sans-serif" font-size="20" lengthAdjust="spacing" textLength="624" x="849" y="631.0801">editJobOpening(titleOrFunction, contractType, mode, address,</text><text fill="#000000" font-family="sans-serif" font-size="20" lengthAdjust="spacing" textLength="530" x="849" y="654.3613">jobDescription, numberOfVacancies, theJobOpening)</text><path d="M1409,676.0781 L1485,676.0781 L1485,691.3594 L1475,701.3594 L1409,701.3594 L1409,676.0781 " fill="#EEEEEE" style="stroke:#000000;stroke-width:1.5;"/><rect fill="none" height="446.2188" style="stroke:#000000;stroke-width:1.5;" width="744.5" x="1409" y="676.0781"/><text fill="#000000" font-family="sans-serif" font-size="20" font-weight="bold" lengthAdjust="spacing" textLength="31" x="1424" y="695.6426">alt</text><text fill="#000000" font-family="sans-serif" font-size="20" font-weight="bold" lengthAdjust="spacing" textLength="329" x="1500" y="696.6426">[Title or function is updated]</text><polygon fill="#181818" points="2066,734.9219,2076,738.9219,2066,742.9219,2070,738.9219" style="stroke:#181818;stroke-width:1.0;"/><line style="stroke:#181818;stroke-width:1.0;" x1="1559" x2="2072" y1="738.9219" y2="738.9219"/><text fill="#000000" font-family="sans-serif" font-size="20" font-weight="bold" lengthAdjust="spacing" textLength="28" x="1566" y="732.2051">11</text><text fill="#000000" font-family="sans-serif" font-size="20" lengthAdjust="spacing" textLength="363" x="1598" y="732.2051">editTitleOrFunction(titleOrFunction)</text><line style="stroke:#000000;stroke-width:1.0;stroke-dasharray:2.0,2.0;" x1="1409" x2="2153.5" y1="747.9219" y2="747.9219"/><text fill="#000000" font-family="sans-serif" font-size="20" font-weight="bold" lengthAdjust="spacing" textLength="306" x="1414" y="766.4863">[Contract Type is updated]</text><polygon fill="#181818" points="2066,797.4844,2076,801.4844,2066,805.4844,2070,801.4844" style="stroke:#181818;stroke-width:1.0;"/><line style="stroke:#181818;stroke-width:1.0;" x1="1559" x2="2072" y1="801.4844" y2="801.4844"/><text fill="#000000" font-family="sans-serif" font-size="20" font-weight="bold" lengthAdjust="spacing" textLength="28" x="1566" y="794.7676">12</text><text fill="#000000" font-family="sans-serif" font-size="20" lengthAdjust="spacing" textLength="320" x="1598" y="794.7676">editContractType(contractType)</text><line style="stroke:#000000;stroke-width:1.0;stroke-dasharray:2.0,2.0;" x1="1409" x2="2153.5" y1="810.4844" y2="810.4844"/><text fill="#000000" font-family="sans-serif" font-size="20" font-weight="bold" lengthAdjust="spacing" textLength="207" x="1414" y="829.0488">[Mode is updated]</text><polygon fill="#181818" points="2066,860.0469,2076,864.0469,2066,868.0469,2070,864.0469" style="stroke:#181818;stroke-width:1.0;"/><line style="stroke:#181818;stroke-width:1.0;" x1="1559" x2="2072" y1="864.0469" y2="864.0469"/><text fill="#000000" font-family="sans-serif" font-size="20" font-weight="bold" lengthAdjust="spacing" textLength="28" x="1566" y="857.3301">13</text><text fill="#000000" font-family="sans-serif" font-size="20" lengthAdjust="spacing" textLength="166" x="1598" y="857.3301">editMode(mode)</text><line style="stroke:#000000;stroke-width:1.0;stroke-dasharray:2.0,2.0;" x1="1409" x2="2153.5" y1="873.0469" y2="873.0469"/><text fill="#000000" font-family="sans-serif" font-size="20" font-weight="bold" lengthAdjust="spacing" textLength="236" x="1414" y="891.6113">[Address is updated]</text><polygon fill="#181818" points="2066,922.6094,2076,926.6094,2066,930.6094,2070,926.6094" style="stroke:#181818;stroke-width:1.0;"/><line style="stroke:#181818;stroke-width:1.0;" x1="1559" x2="2072" y1="926.6094" y2="926.6094"/><text fill="#000000" font-family="sans-serif" font-size="20" font-weight="bold" lengthAdjust="spacing" textLength="28" x="1566" y="919.8926">14</text><text fill="#000000" font-family="sans-serif" font-size="20" lengthAdjust="spacing" textLength="213" x="1598" y="919.8926">editAddress(address)</text><line style="stroke:#000000;stroke-width:1.0;stroke-dasharray:2.0,2.0;" x1="1409" x2="2153.5" y1="935.6094" y2="935.6094"/><text fill="#000000" font-family="sans-serif" font-size="20" font-weight="bold" lengthAdjust="spacing" textLength="318" x="1414" y="954.1738">[Job Description is updated]</text><polygon fill="#181818" points="2066,985.1719,2076,989.1719,2066,993.1719,2070,989.1719" style="stroke:#181818;stroke-width:1.0;"/><line style="stroke:#181818;stroke-width:1.0;" x1="1559" x2="2072" y1="989.1719" y2="989.1719"/><text fill="#000000" font-family="sans-serif" font-size="20" font-weight="bold" lengthAdjust="spacing" textLength="28" x="1566" y="982.4551">15</text><text fill="#000000" font-family="sans-serif" font-size="20" lengthAdjust="spacing" textLength="345" x="1598" y="982.4551">editJobDescription(jobDescription)</text><line style="stroke:#000000;stroke-width:1.0;stroke-dasharray:2.0,2.0;" x1="1409" x2="2153.5" y1="998.1719" y2="998.1719"/><text fill="#000000" font-family="sans-serif" font-size="20" font-weight="bold" lengthAdjust="spacing" textLength="384" x="1414" y="1016.7363">[Number of vacancies is updated]</text><polygon fill="#181818" points="2066,1047.7344,2076,1051.7344,2066,1055.7344,2070,1051.7344" style="stroke:#181818;stroke-width:1.0;"/><line style="stroke:#181818;stroke-width:1.0;" x1="1559" x2="2072" y1="1051.7344" y2="1051.7344"/><text fill="#000000" font-family="sans-serif" font-size="20" font-weight="bold" lengthAdjust="spacing" textLength="28" x="1566" y="1045.0176">16</text><text fill="#000000" font-family="sans-serif" font-size="20" lengthAdjust="spacing" textLength="463" x="1598" y="1045.0176">editNumberOfVacancies(numberOfVacancies)</text><line style="stroke:#000000;stroke-width:1.0;stroke-dasharray:2.0,2.0;" x1="1409" x2="2153.5" y1="1060.7344" y2="1060.7344"/><text fill="#000000" font-family="sans-serif" font-size="20" font-weight="bold" lengthAdjust="spacing" textLength="276" x="1414" y="1079.2988">[Description is updated]</text><polygon fill="#181818" points="2066,1110.2969,2076,1114.2969,2066,1118.2969,2070,1114.2969" style="stroke:#181818;stroke-width:1.0;"/><line style="stroke:#181818;stroke-width:1.0;" x1="1559" x2="2072" y1="1114.2969" y2="1114.2969"/><text fill="#000000" font-family="sans-serif" font-size="20" font-weight="bold" lengthAdjust="spacing" textLength="28" x="1566" y="1107.5801">17</text><text fill="#000000" font-family="sans-serif" font-size="20" lengthAdjust="spacing" textLength="281" x="1598" y="1107.5801">editDescription(description)</text><polygon fill="#181818" points="2255,1154.5781,2265,1158.5781,2255,1162.5781,2259,1158.5781" style="stroke:#181818;stroke-width:1.0;"/><line style="stroke:#181818;stroke-width:1.0;" x1="1559" x2="2261" y1="1158.5781" y2="1158.5781"/><text fill="#000000" font-family="sans-serif" font-size="20" font-weight="bold" lengthAdjust="spacing" textLength="28" x="1566" y="1151.8613">18</text><text fill="#000000" font-family="sans-serif" font-size="20" lengthAdjust="spacing" textLength="178" x="1598" y="1151.8613">save(jobOpening)</text><polygon fill="#181818" points="2517.5,1191.8594,2527.5,1195.8594,2517.5,1199.8594,2521.5,1195.8594" style="stroke:#181818;stroke-width:1.0;"/><line style="stroke:#181818;stroke-width:1.0;" x1="2277" x2="2523.5" y1="1195.8594" y2="1195.8594"/><text fill="#000000" font-family="sans-serif" font-size="20" font-weight="bold" lengthAdjust="spacing" textLength="28" x="2284" y="1189.1426">19</text><text fill="#000000" font-family="sans-serif" font-size="20" lengthAdjust="spacing" textLength="178" x="2316" y="1189.1426">save(jobOpening)</text><polygon fill="#181818" points="5140,1229.1406,5150,1233.1406,5140,1237.1406,5144,1233.1406" style="stroke:#181818;stroke-width:1.0;"/><line style="stroke:#181818;stroke-width:1.0;" x1="2539.5" x2="5146" y1="1233.1406" y2="1233.1406"/><text fill="#000000" font-family="sans-serif" font-size="20" font-weight="bold" lengthAdjust="spacing" textLength="28" x="2546.5" y="1226.4238">20</text><text fill="#000000" font-family="sans-serif" font-size="20" lengthAdjust="spacing" textLength="178" x="2578.5" y="1226.4238">save(jobOpening)</text><polygon fill="#181818" points="2550.5,1266.4219,2540.5,1270.4219,2550.5,1274.4219,2546.5,1270.4219" style="stroke:#181818;stroke-width:1.0;"/><line style="stroke:#181818;stroke-width:1.0;stroke-dasharray:2.0,2.0;" x1="2544.5" x2="5156" y1="1270.4219" y2="1270.4219"/><text fill="#000000" font-family="sans-serif" font-size="20" font-weight="bold" lengthAdjust="spacing" textLength="28" x="2556.5" y="1263.7051">21</text><text fill="#000000" font-family="sans-serif" font-size="20" lengthAdjust="spacing" textLength="117" x="2588.5" y="1263.7051">JobOpening</text><polygon fill="#181818" points="2288,1303.7031,2278,1307.7031,2288,1311.7031,2284,1307.7031" style="stroke:#181818;stroke-width:1.0;"/><line style="stroke:#181818;stroke-width:1.0;stroke-dasharray:2.0,2.0;" x1="2282" x2="2533.5" y1="1307.7031" y2="1307.7031"/><text fill="#000000" font-family="sans-serif" font-size="20" font-weight="bold" lengthAdjust="spacing" textLength="28" x="2294" y="1300.9863">22</text><text fill="#000000" font-family="sans-serif" font-size="20" lengthAdjust="spacing" textLength="117" x="2326" y="1300.9863">jobOpening</text><polygon fill="#181818" points="1570,1340.9844,1560,1344.9844,1570,1348.9844,1566,1344.9844" style="stroke:#181818;stroke-width:1.0;"/><line style="stroke:#181818;stroke-width:1.0;stroke-dasharray:2.0,2.0;" x1="1564" x2="2271" y1="1344.9844" y2="1344.9844"/><text fill="#000000" font-family="sans-serif" font-size="20" font-weight="bold" lengthAdjust="spacing" textLength="28" x="1576" y="1338.2676">23</text><text fill="#000000" font-family="sans-serif" font-size="20" lengthAdjust="spacing" textLength="117" x="1608" y="1338.2676">jobOpening</text><polygon fill="#181818" points="821,1378.2656,811,1382.2656,821,1386.2656,817,1382.2656" style="stroke:#181818;stroke-width:1.0;"/><line style="stroke:#181818;stroke-width:1.0;stroke-dasharray:2.0,2.0;" x1="815" x2="1553" y1="1382.2656" y2="1382.2656"/><text fill="#000000" font-family="sans-serif" font-size="20" font-weight="bold" lengthAdjust="spacing" textLength="28" x="827" y="1375.5488">24</text><text fill="#000000" font-family="sans-serif" font-size="20" lengthAdjust="spacing" textLength="117" x="859" y="1375.5488">jobOpening</text><path d="M699,1397.2656 L775,1397.2656 L775,1412.5469 L765,1422.5469 L699,1422.5469 L699,1397.2656 " fill="#EEEEEE" style="stroke:#000000;stroke-width:1.5;"/><rect fill="none" height="369.0938" style="stroke:#000000;stroke-width:1.5;" width="4518" x="699" y="1397.2656"/><text fill="#000000" font-family="sans-serif" font-size="20" font-weight="bold" lengthAdjust="spacing" textLength="31" x="714" y="1416.8301">alt</text><text fill="#000000" font-family="sans-serif" font-size="20" font-weight="bold" lengthAdjust="spacing" textLength="391" x="790" y="1417.8301">[Job Opening has Interview Phase]</text><polygon fill="#181818" points="1537,1456.1094,1547,1460.1094,1537,1464.1094,1541,1460.1094" style="stroke:#181818;stroke-width:1.0;"/><line style="stroke:#181818;stroke-width:1.0;" x1="810" x2="1543" y1="1460.1094" y2="1460.1094"/><text fill="#000000" font-family="sans-serif" font-size="20" font-weight="bold" lengthAdjust="spacing" textLength="28" x="817" y="1453.3926">25</text><text fill="#000000" font-family="sans-serif" font-size="20" lengthAdjust="spacing" textLength="580" x="849" y="1453.3926">editJobOpeningInterview(jobOpeningInterview, interview)</text><polygon fill="#181818" points="3092.5,1493.3906,3102.5,1497.3906,3092.5,1501.3906,3096.5,1497.3906" style="stroke:#181818;stroke-width:1.0;"/><line style="stroke:#181818;stroke-width:1.0;" x1="1559" x2="3098.5" y1="1497.3906" y2="1497.3906"/><text fill="#000000" font-family="sans-serif" font-size="20" font-weight="bold" lengthAdjust="spacing" textLength="28" x="1566" y="1490.6738">26</text><text fill="#000000" font-family="sans-serif" font-size="20" lengthAdjust="spacing" textLength="211" x="1598" y="1490.6738">editPlugin(interview)</text><polygon fill="#181818" points="3374.5,1530.6719,3384.5,1534.6719,3374.5,1538.6719,3378.5,1534.6719" style="stroke:#181818;stroke-width:1.0;"/><line style="stroke:#181818;stroke-width:1.0;" x1="1559" x2="3380.5" y1="1534.6719" y2="1534.6719"/><text fill="#000000" font-family="sans-serif" font-size="20" font-weight="bold" lengthAdjust="spacing" textLength="28" x="1566" y="1527.9551">27</text><text fill="#000000" font-family="sans-serif" font-size="20" lengthAdjust="spacing" textLength="271" x="1598" y="1527.9551">save(jobOpeningInterview)</text><polygon fill="#181818" points="3730,1567.9531,3740,1571.9531,3730,1575.9531,3734,1571.9531" style="stroke:#181818;stroke-width:1.0;"/><line style="stroke:#181818;stroke-width:1.0;" x1="3396.5" x2="3736" y1="1571.9531" y2="1571.9531"/><text fill="#000000" font-family="sans-serif" font-size="20" font-weight="bold" lengthAdjust="spacing" textLength="28" x="3403.5" y="1565.2363">28</text><text fill="#000000" font-family="sans-serif" font-size="20" lengthAdjust="spacing" textLength="271" x="3435.5" y="1565.2363">save(jobOpeningInterview)</text><polygon fill="#181818" points="5140,1605.2344,5150,1609.2344,5140,1613.2344,5144,1609.2344" style="stroke:#181818;stroke-width:1.0;"/><line style="stroke:#181818;stroke-width:1.0;" x1="3752" x2="5146" y1="1609.2344" y2="1609.2344"/><text fill="#000000" font-family="sans-serif" font-size="20" font-weight="bold" lengthAdjust="spacing" textLength="28" x="3759" y="1602.5176">29</text><text fill="#000000" font-family="sans-serif" font-size="20" lengthAdjust="spacing" textLength="271" x="3791" y="1602.5176">save(jobOpeningInterview)</text><polygon fill="#181818" points="3763,1642.5156,3753,1646.5156,3763,1650.5156,3759,1646.5156" style="stroke:#181818;stroke-width:1.0;"/><line style="stroke:#181818;stroke-width:1.0;stroke-dasharray:2.0,2.0;" x1="3757" x2="5156" y1="1646.5156" y2="1646.5156"/><text fill="#000000" font-family="sans-serif" font-size="20" font-weight="bold" lengthAdjust="spacing" textLength="28" x="3769" y="1639.7988">30</text><text fill="#000000" font-family="sans-serif" font-size="20" lengthAdjust="spacing" textLength="210" x="3801" y="1639.7988">JobOpeningInterview</text><polygon fill="#181818" points="3407.5,1679.7969,3397.5,1683.7969,3407.5,1687.7969,3403.5,1683.7969" style="stroke:#181818;stroke-width:1.0;"/><line style="stroke:#181818;stroke-width:1.0;stroke-dasharray:2.0,2.0;" x1="3401.5" x2="3746" y1="1683.7969" y2="1683.7969"/><text fill="#000000" font-family="sans-serif" font-size="20" font-weight="bold" lengthAdjust="spacing" textLength="28" x="3413.5" y="1677.0801">31</text><text fill="#000000" font-family="sans-serif" font-size="20" lengthAdjust="spacing" textLength="210" x="3445.5" y="1677.0801">jobOpeningInterview</text><polygon fill="#181818" points="1570,1717.0781,1560,1721.0781,1570,1725.0781,1566,1721.0781" style="stroke:#181818;stroke-width:1.0;"/><line style="stroke:#181818;stroke-width:1.0;stroke-dasharray:2.0,2.0;" x1="1564" x2="3390.5" y1="1721.0781" y2="1721.0781"/><text fill="#000000" font-family="sans-serif" font-size="20" font-weight="bold" lengthAdjust="spacing" textLength="28" x="1576" y="1714.3613">32</text><text fill="#000000" font-family="sans-serif" font-size="20" lengthAdjust="spacing" textLength="210" x="1608" y="1714.3613">jobOpeningInterview</text><polygon fill="#181818" points="821,1754.3594,811,1758.3594,821,1762.3594,817,1758.3594" style="stroke:#181818;stroke-width:1.0;"/><line style="stroke:#181818;stroke-width:1.0;stroke-dasharray:2.0,2.0;" x1="815" x2="1553" y1="1758.3594" y2="1758.3594"/><text fill="#000000" font-family="sans-serif" font-size="20" font-weight="bold" lengthAdjust="spacing" textLength="28" x="827" y="1751.6426">33</text><text fill="#000000" font-family="sans-serif" font-size="20" lengthAdjust="spacing" textLength="210" x="859" y="1751.6426">jobOpeningInterview</text><polygon fill="#181818" points="1537,1798.6406,1547,1802.6406,1537,1806.6406,1541,1802.6406" style="stroke:#181818;stroke-width:1.0;"/><line style="stroke:#181818;stroke-width:1.0;" x1="810" x2="1543" y1="1802.6406" y2="1802.6406"/><text fill="#000000" font-family="sans-serif" font-size="20" font-weight="bold" lengthAdjust="spacing" textLength="28" x="817" y="1795.9238">34</text><text fill="#000000" font-family="sans-serif" font-size="20" lengthAdjust="spacing" textLength="688" x="849" y="1795.9238">editJobOpeningRequirement(jobOpeningRequirement, requirement)</text><polygon fill="#181818" points="4056.5,1835.9219,4066.5,1839.9219,4056.5,1843.9219,4060.5,1839.9219" style="stroke:#181818;stroke-width:1.0;"/><line style="stroke:#181818;stroke-width:1.0;" x1="1559" x2="4062.5" y1="1839.9219" y2="1839.9219"/><text fill="#000000" font-family="sans-serif" font-size="20" font-weight="bold" lengthAdjust="spacing" textLength="28" x="1566" y="1833.2051">35</text><text fill="#000000" font-family="sans-serif" font-size="20" lengthAdjust="spacing" textLength="243" x="1598" y="1833.2051">editPlugin(requirement)</text><polygon fill="#181818" points="4376.5,1873.2031,4386.5,1877.2031,4376.5,1881.2031,4380.5,1877.2031" style="stroke:#181818;stroke-width:1.0;"/><line style="stroke:#181818;stroke-width:1.0;" x1="1559" x2="4382.5" y1="1877.2031" y2="1877.2031"/><text fill="#000000" font-family="sans-serif" font-size="20" font-weight="bold" lengthAdjust="spacing" textLength="28" x="1566" y="1870.4863">36</text><text fill="#000000" font-family="sans-serif" font-size="20" lengthAdjust="spacing" textLength="309" x="1598" y="1870.4863">save(jobOpeningRequirement)</text><polygon fill="#181818" points="4770,1910.4844,4780,1914.4844,4770,1918.4844,4774,1914.4844" style="stroke:#181818;stroke-width:1.0;"/><line style="stroke:#181818;stroke-width:1.0;" x1="4398.5" x2="4776" y1="1914.4844" y2="1914.4844"/><text fill="#000000" font-family="sans-serif" font-size="20" font-weight="bold" lengthAdjust="spacing" textLength="28" x="4405.5" y="1907.7676">37</text><text fill="#000000" font-family="sans-serif" font-size="20" lengthAdjust="spacing" textLength="309" x="4437.5" y="1907.7676">save(jobOpeningRequirement)</text><polygon fill="#181818" points="5140,1947.7656,5150,1951.7656,5140,1955.7656,5144,1951.7656" style="stroke:#181818;stroke-width:1.0;"/><line style="stroke:#181818;stroke-width:1.0;" x1="4792" x2="5146" y1="1951.7656" y2="1951.7656"/><text fill="#000000" font-family="sans-serif" font-size="20" font-weight="bold" lengthAdjust="spacing" textLength="28" x="4799" y="1945.0488">38</text><text fill="#000000" font-family="sans-serif" font-size="20" lengthAdjust="spacing" textLength="309" x="4831" y="1945.0488">save(jobOpeningRequirement)</text><polygon fill="#181818" points="4803,1985.0469,4793,1989.0469,4803,1993.0469,4799,1989.0469" style="stroke:#181818;stroke-width:1.0;"/><line style="stroke:#181818;stroke-width:1.0;stroke-dasharray:2.0,2.0;" x1="4797" x2="5156" y1="1989.0469" y2="1989.0469"/><text fill="#000000" font-family="sans-serif" font-size="20" font-weight="bold" lengthAdjust="spacing" textLength="28" x="4809" y="1982.3301">39</text><text fill="#000000" font-family="sans-serif" font-size="20" lengthAdjust="spacing" textLength="248" x="4841" y="1982.3301">JobOpeningRequirement</text><polygon fill="#181818" points="4409.5,2022.3281,4399.5,2026.3281,4409.5,2030.3281,4405.5,2026.3281" style="stroke:#181818;stroke-width:1.0;"/><line style="stroke:#181818;stroke-width:1.0;stroke-dasharray:2.0,2.0;" x1="4403.5" x2="4786" y1="2026.3281" y2="2026.3281"/><text fill="#000000" font-family="sans-serif" font-size="20" font-weight="bold" lengthAdjust="spacing" textLength="28" x="4415.5" y="2019.6113">40</text><text fill="#000000" font-family="sans-serif" font-size="20" lengthAdjust="spacing" textLength="248" x="4447.5" y="2019.6113">jobOpeningRequirement</text><polygon fill="#181818" points="1570,2059.6094,1560,2063.6094,1570,2067.6094,1566,2063.6094" style="stroke:#181818;stroke-width:1.0;"/><line style="stroke:#181818;stroke-width:1.0;stroke-dasharray:2.0,2.0;" x1="1564" x2="4392.5" y1="2063.6094" y2="2063.6094"/><text fill="#000000" font-family="sans-serif" font-size="20" font-weight="bold" lengthAdjust="spacing" textLength="28" x="1576" y="2056.8926">41</text><text fill="#000000" font-family="sans-serif" font-size="20" lengthAdjust="spacing" textLength="248" x="1608" y="2056.8926">jobOpeningRequirement</text><polygon fill="#181818" points="821,2096.8906,811,2100.8906,821,2104.8906,817,2100.8906" style="stroke:#181818;stroke-width:1.0;"/><line style="stroke:#181818;stroke-width:1.0;stroke-dasharray:2.0,2.0;" x1="815" x2="1548" y1="2100.8906" y2="2100.8906"/><text fill="#000000" font-family="sans-serif" font-size="20" font-weight="bold" lengthAdjust="spacing" textLength="28" x="827" y="2094.1738">42</text><text fill="#000000" font-family="sans-serif" font-size="20" lengthAdjust="spacing" textLength="248" x="859" y="2094.1738">jobOpeningRequirement</text><polygon fill="#181818" points="134,2134.1719,124,2138.1719,134,2142.1719,130,2138.1719" style="stroke:#181818;stroke-width:1.0;"/><line style="stroke:#181818;stroke-width:1.0;stroke-dasharray:2.0,2.0;" x1="128" x2="804" y1="2138.1719" y2="2138.1719"/><text fill="#000000" font-family="sans-serif" font-size="20" font-weight="bold" lengthAdjust="spacing" textLength="28" x="140" y="2131.4551">43</text><text fill="#000000" font-family="sans-serif" font-size="20" lengthAdjust="spacing" textLength="357" x="172" y="2131.4551">Informs success or failure of update</text><!--SRC=[hLZ1Rjiu4BthAmOvEO2pA7hCeK0Qjq0Aj0dgx9vwOQIHnKGcLPAoaVtw7TAoH4cahDgRGo2BmpTlo3V3eVGR5nLJR5lAz0qpo31dTMc-Ic7M_5-4ZnyIVJI1hHGoBPJS8XXLepTIiVIDRN1jtai4XQbXObFw1hfWcTnpiO6SbHgJn713fbyoRhx9bySA1Otz_G1h_5sZI15Md6tinCLwlRg66sS93CWO6kiaORMHejw-eABdr4W5L_UrDiHFmNScY92w0gQFpmbHCJpb5HC6heQkdUNmvTIKUreZ9SkoSH8Rx4Dq5cvIzpDczXChgJd5zZwOq0qCfbOiFZiyrWUmmu_glfGQdmgcSH1dV3WMmeCmg7OSzuC8slSd9qON8M0niHfHl1D6yRtvNNE5MnHcj3djo8p94tiSi9dSxYZcIRCaOuQzq8R2rQfvSZDNdrroyHqps6PI0lJN_82RJ-CyleKx_QR1IC13uhvIuif6wYtSADsI4T0DeHyTtSAwa7iD9TS6PEvZwYJ32TXfglU593NhFiiZzocsfPGLrCBm4ao1C2m-m3LePhZEEPNMFJU5CqiBgewetHgU6oymOnH_gGtXE20XYQ7Ycy9PTWXthHqmXRVmxEekbSgy5XIO54jm6KnHmlDxXKluBZFwVvTb2hLU_X8_N8Mrg3kMCf5or4jOeKuLhom0C9619obOLvZodAVCZluI6HBbp78cMnj_PSi6FJ7ZVj9neMfktDHAoPIyseNZugyvCcltJdHBqcxT_2LEQwKiWHqhQxInfWN1-fWsIcOrdTFY2TmVJETGV59onpFYsCvo64CF2QtIoGGuPbKgHSxLjjNI9Ue_GEaMwu_IyrFqu2Dex0qjt9d_gBwsoaiRvHs4jtN2OwtmIEwUp9PmEEeVytyw6P9-Elph67FlYBAxnKepJWChkRgY6eYPCnehnukCekxUDt4-zuCR1dljK95wdtw-NUpttbl3XR-WdaURqXSxiY0BkqSUS5CbBiPkS1RDvdiURCFd5vjBFNthYMhHrvZdDr3rBlRzOoZWnKZI7eF_Cse_v6mKhyYI-OXTnq3OcktGhc6RWIw_ZbaOx3MF_8E8rbEuHuqvwpkCzBVW_SNmoVNgyvINdYVgYc3mHxDl9lbxpRu_polT0zGerVY6l8vzUFYdrYVgRQB63ppwtcAkua8Bdr2UY-WvvzLuMz-zUo9Gkm5jLm_kqX9f3FxWC6i1FQsqxvRKlJIFWvIOF9Zc9s4Npe7NKrblk5WCl9w1DvLm3sFqm5w7xayzKKyw7IRGkSJYPU4Klr7YHMY6YaM4oAdA4QiUuU135-WXMhocp0jlXZXUJz28bPqBzJ6t68r91IlJ59lporJV-PoQPS_WY-gHTm7p1EczNT95g_qnjrMUsn9qbxzUFUfvF0jlAkr_3j639q_eKqVel0kv71_dvn6RQbAc-0MQW0ZDK3KAqZYlYmc77VxUTLPl4mnhbYXU9qd4cv-BT36t2WqfHRgZ69VpAv3l-DGtXGUHItl_rtNgFhxOMp7ZPQtSXv33lMFo0yD_]--></g></svg>