<?xml version="1.0" encoding="UTF-8" standalone="no"?><svg xmlns="http://www.w3.org/2000/svg" xmlns:xlink="http://www.w3.org/1999/xlink" contentStyleType="text/css" height="1024px" preserveAspectRatio="none" style="width:4750px;height:1024px;background:#FFFFFF;" version="1.1" viewBox="0 0 4750 1024" width="4750px" zoomAndPan="magnify"><defs/><g><text fill="#000000" font-family="sans-serif" font-size="14" font-weight="bold" lengthAdjust="spacing" textLength="188" x="2274" y="22.9951">Class Diagram - US1001</text><!--class UI--><g id="elem_UI"><rect codeLine="13" fill="#FEF9E7" height="50" id="UI" rx="2.5" ry="2.5" style="stroke:#181818;stroke-width:0.5;" width="236" x="2397.5" y="44.2969"/><ellipse cx="2413.5" cy="61.2969" fill="#ADD1B2" rx="12" ry="12" style="stroke:#181818;stroke-width:1.0;"/><path d="M2416.5625,68.375 Q2415.875,68.7344 2415.125,68.9063 Q2414.375,69.0781 2413.5469,69.0781 Q2410.5938,69.0781 2409.0313,67.1406 Q2407.4844,65.1875 2407.4844,61.5156 Q2407.4844,57.8438 2409.0313,55.9063 Q2410.5938,53.9531 2413.5469,53.9531 Q2414.375,53.9531 2415.125,54.125 Q2415.8906,54.2969 2416.5625,54.6563 L2416.5625,57.8594 Q2415.8125,57.1719 2415.1094,56.8594 Q2414.4219,56.5469 2413.6719,56.5469 Q2412.0938,56.5469 2411.2813,57.7969 Q2410.4844,59.0469 2410.4844,61.5156 Q2410.4844,63.9844 2411.2813,65.2344 Q2412.0938,66.4844 2413.6719,66.4844 Q2414.4219,66.4844 2415.1094,66.1719 Q2415.8125,65.8594 2416.5625,65.1719 L2416.5625,68.375 Z " fill="#000000"/><text fill="#000000" font-family="sans-serif" font-size="20" lengthAdjust="spacing" textLength="202" x="2428.5" y="68.2207">ImportApplicationUI</text><line style="stroke:#181818;stroke-width:0.5;" x1="2398.5" x2="2632.5" y1="78.2969" y2="78.2969"/><line style="stroke:#181818;stroke-width:0.5;" x1="2398.5" x2="2632.5" y1="86.2969" y2="86.2969"/></g><!--class ApplicationController--><g id="elem_ApplicationController"><rect codeLine="15" fill="#FEF9E7" height="143.125" id="ApplicationController" rx="2.5" ry="2.5" style="stroke:#181818;stroke-width:0.5;" width="618" x="592.5" y="311.2969"/><ellipse cx="757" cy="328.2969" fill="#ADD1B2" rx="12" ry="12" style="stroke:#181818;stroke-width:1.0;"/><path d="M760.0625,335.375 Q759.375,335.7344 758.625,335.9063 Q757.875,336.0781 757.0469,336.0781 Q754.0938,336.0781 752.5313,334.1406 Q750.9844,332.1875 750.9844,328.5156 Q750.9844,324.8438 752.5313,322.9063 Q754.0938,320.9531 757.0469,320.9531 Q757.875,320.9531 758.625,321.125 Q759.3906,321.2969 760.0625,321.6563 L760.0625,324.8594 Q759.3125,324.1719 758.6094,323.8594 Q757.9219,323.5469 757.1719,323.5469 Q755.5938,323.5469 754.7813,324.7969 Q753.9844,326.0469 753.9844,328.5156 Q753.9844,330.9844 754.7813,332.2344 Q755.5938,333.4844 757.1719,333.4844 Q757.9219,333.4844 758.6094,333.1719 Q759.3125,332.8594 760.0625,332.1719 L760.0625,335.375 Z " fill="#000000"/><text fill="#000000" font-family="sans-serif" font-size="20" lengthAdjust="spacing" textLength="280" x="779" y="335.2207">ImportApplicationController</text><line style="stroke:#181818;stroke-width:0.5;" x1="593.5" x2="1209.5" y1="345.2969" y2="345.2969"/><line style="stroke:#181818;stroke-width:0.5;" x1="593.5" x2="1209.5" y1="353.2969" y2="353.2969"/><ellipse cx="603.5" cy="370.4375" fill="#84BE84" rx="3" ry="3" style="stroke:#038048;stroke-width:1.0;"/><text fill="#000000" font-family="sans-serif" font-size="20" lengthAdjust="spacing" textLength="419" x="613.5" y="375.8613">importCandidateInfo(folder):List&lt;String&gt;</text><ellipse cx="603.5" cy="393.7188" fill="#84BE84" rx="3" ry="3" style="stroke:#038048;stroke-width:1.0;"/><text fill="#000000" font-family="sans-serif" font-size="20" lengthAdjust="spacing" textLength="412" x="613.5" y="399.1426">importJobReference(folder):jobReference</text><ellipse cx="603.5" cy="417" fill="#84BE84" rx="3" ry="3" style="stroke:#038048;stroke-width:1.0;"/><text fill="#000000" font-family="sans-serif" font-size="20" lengthAdjust="spacing" textLength="324" x="613.5" y="422.4238">importFiles(folder):List&lt;String&gt;</text><ellipse cx="603.5" cy="440.2813" fill="#84BE84" rx="3" ry="3" style="stroke:#038048;stroke-width:1.0;"/><text fill="#000000" font-family="sans-serif" font-size="20" lengthAdjust="spacing" textLength="591" x="613.5" y="445.7051">registerApplication(candidate, jobReference, files):boolean</text></g><!--class ApplicationBuilder--><g id="elem_ApplicationBuilder"><rect codeLine="22" fill="#FEF9E7" height="73.2813" id="ApplicationBuilder" rx="2.5" ry="2.5" style="stroke:#181818;stroke-width:0.5;" width="497" x="13" y="572.7969"/><ellipse cx="164" cy="589.7969" fill="#ADD1B2" rx="12" ry="12" style="stroke:#181818;stroke-width:1.0;"/><path d="M167.0625,596.875 Q166.375,597.2344 165.625,597.4063 Q164.875,597.5781 164.0469,597.5781 Q161.0938,597.5781 159.5313,595.6406 Q157.9844,593.6875 157.9844,590.0156 Q157.9844,586.3438 159.5313,584.4063 Q161.0938,582.4531 164.0469,582.4531 Q164.875,582.4531 165.625,582.625 Q166.3906,582.7969 167.0625,583.1563 L167.0625,586.3594 Q166.3125,585.6719 165.6094,585.3594 Q164.9219,585.0469 164.1719,585.0469 Q162.5938,585.0469 161.7813,586.2969 Q160.9844,587.5469 160.9844,590.0156 Q160.9844,592.4844 161.7813,593.7344 Q162.5938,594.9844 164.1719,594.9844 Q164.9219,594.9844 165.6094,594.6719 Q166.3125,594.3594 167.0625,593.6719 L167.0625,596.875 Z " fill="#000000"/><text fill="#000000" font-family="sans-serif" font-size="20" lengthAdjust="spacing" textLength="186" x="186" y="596.7207">ApplicationBuilder</text><line style="stroke:#181818;stroke-width:0.5;" x1="14" x2="509" y1="606.7969" y2="606.7969"/><line style="stroke:#181818;stroke-width:0.5;" x1="14" x2="509" y1="614.7969" y2="614.7969"/><ellipse cx="24" cy="631.9375" fill="#84BE84" rx="3" ry="3" style="stroke:#038048;stroke-width:1.0;"/><text fill="#000000" font-family="sans-serif" font-size="20" lengthAdjust="spacing" textLength="470" x="34" y="637.3613">build(candidate, jobOpening, files):Application</text></g><!--class Application--><g id="elem_Application"><rect codeLine="26" fill="#FEF9E7" height="143.125" id="Application" rx="2.5" ry="2.5" style="stroke:#181818;stroke-width:0.5;" width="509" x="7" y="764.2969"/><ellipse cx="200" cy="781.2969" fill="#ADD1B2" rx="12" ry="12" style="stroke:#181818;stroke-width:1.0;"/><path d="M203.0625,788.375 Q202.375,788.7344 201.625,788.9063 Q200.875,789.0781 200.0469,789.0781 Q197.0938,789.0781 195.5313,787.1406 Q193.9844,785.1875 193.9844,781.5156 Q193.9844,777.8438 195.5313,775.9063 Q197.0938,773.9531 200.0469,773.9531 Q200.875,773.9531 201.625,774.125 Q202.3906,774.2969 203.0625,774.6563 L203.0625,777.8594 Q202.3125,777.1719 201.6094,776.8594 Q200.9219,776.5469 200.1719,776.5469 Q198.5938,776.5469 197.7813,777.7969 Q196.9844,779.0469 196.9844,781.5156 Q196.9844,783.9844 197.7813,785.2344 Q198.5938,786.4844 200.1719,786.4844 Q200.9219,786.4844 201.6094,786.1719 Q202.3125,785.8594 203.0625,785.1719 L203.0625,788.375 Z " fill="#000000"/><text fill="#000000" font-family="sans-serif" font-size="20" lengthAdjust="spacing" textLength="114" x="222" y="788.2207">Application</text><line style="stroke:#181818;stroke-width:0.5;" x1="8" x2="515" y1="798.2969" y2="798.2969"/><rect fill="none" height="6" style="stroke:#C82930;stroke-width:1.0;" width="6" x="15" y="812.4375"/><text fill="#000000" font-family="sans-serif" font-size="20" lengthAdjust="spacing" textLength="210" x="28" y="820.8613">candidate:Candidate</text><rect fill="none" height="6" style="stroke:#C82930;stroke-width:1.0;" width="6" x="15" y="835.7188"/><text fill="#000000" font-family="sans-serif" font-size="20" lengthAdjust="spacing" textLength="271" x="28" y="844.1426">jobReference:JobReference</text><rect fill="none" height="6" style="stroke:#C82930;stroke-width:1.0;" width="6" x="15" y="859"/><text fill="#000000" font-family="sans-serif" font-size="20" lengthAdjust="spacing" textLength="153" x="28" y="867.4238">files:List&lt;File&gt;</text><line style="stroke:#181818;stroke-width:0.5;" x1="8" x2="515" y1="876.1406" y2="876.1406"/><ellipse cx="18" cy="893.2813" fill="#84BE84" rx="3" ry="3" style="stroke:#038048;stroke-width:1.0;"/><text fill="#000000" font-family="sans-serif" font-size="20" lengthAdjust="spacing" textLength="482" x="28" y="898.7051">create(candidate, jobOpening, files):Application</text></g><!--class File--><g id="elem_File"><rect codeLine="33" fill="#FEF9E7" height="96.5625" id="File" rx="2.5" ry="2.5" style="stroke:#181818;stroke-width:0.5;" width="194" x="545.5" y="560.7969"/><ellipse cx="620" cy="577.7969" fill="#ADD1B2" rx="12" ry="12" style="stroke:#181818;stroke-width:1.0;"/><path d="M623.0625,584.875 Q622.375,585.2344 621.625,585.4063 Q620.875,585.5781 620.0469,585.5781 Q617.0938,585.5781 615.5313,583.6406 Q613.9844,581.6875 613.9844,578.0156 Q613.9844,574.3438 615.5313,572.4063 Q617.0938,570.4531 620.0469,570.4531 Q620.875,570.4531 621.625,570.625 Q622.3906,570.7969 623.0625,571.1563 L623.0625,574.3594 Q622.3125,573.6719 621.6094,573.3594 Q620.9219,573.0469 620.1719,573.0469 Q618.5938,573.0469 617.7813,574.2969 Q616.9844,575.5469 616.9844,578.0156 Q616.9844,580.4844 617.7813,581.7344 Q618.5938,582.9844 620.1719,582.9844 Q620.9219,582.9844 621.6094,582.6719 Q622.3125,582.3594 623.0625,581.6719 L623.0625,584.875 Z " fill="#000000"/><text fill="#000000" font-family="sans-serif" font-size="20" lengthAdjust="spacing" textLength="36" x="642" y="584.7207">File</text><line style="stroke:#181818;stroke-width:0.5;" x1="546.5" x2="738.5" y1="594.7969" y2="594.7969"/><rect fill="none" height="6" style="stroke:#C82930;stroke-width:1.0;" width="6" x="553.5" y="608.9375"/><text fill="#000000" font-family="sans-serif" font-size="20" lengthAdjust="spacing" textLength="114" x="566.5" y="617.3613">path:String</text><line style="stroke:#181818;stroke-width:0.5;" x1="546.5" x2="738.5" y1="626.0781" y2="626.0781"/><ellipse cx="556.5" cy="643.2188" fill="#84BE84" rx="3" ry="3" style="stroke:#038048;stroke-width:1.0;"/><text fill="#000000" font-family="sans-serif" font-size="20" lengthAdjust="spacing" textLength="167" x="566.5" y="648.6426">valueOf(file):File</text></g><!--class DB--><g id="elem_DB"><rect codeLine="101" fill="#FEF9E7" height="50" id="DB" rx="2.5" ry="2.5" style="stroke:#181818;stroke-width:0.5;" width="128" x="2386.5" y="967.2969"/><ellipse cx="2402.5" cy="984.2969" fill="#8BEBFF" rx="12" ry="12" style="stroke:#181818;stroke-width:1.0;"/><path d="M2402.7188,979.8125 L2402.7188,989.2031 L2403.5,989.2031 Q2405.2031,989.2031 2405.9219,988.1406 Q2406.6406,987.0625 2406.6406,984.4844 Q2406.6406,981.9375 2405.9219,980.875 Q2405.2031,979.8125 2403.5,979.8125 L2402.7188,979.8125 Z M2399.8438,977.2188 L2402.9219,977.2188 Q2406.5,977.2188 2408.0625,978.9219 Q2409.6406,980.625 2409.6406,984.4844 Q2409.6406,988.375 2408.0625,990.0938 Q2406.5,991.7969 2402.9219,991.7969 L2399.8438,991.7969 L2399.8438,977.2188 Z " fill="#000000"/><text fill="#000000" font-family="sans-serif" font-size="20" lengthAdjust="spacing" textLength="94" x="2417.5" y="991.2207">Database</text><line style="stroke:#181818;stroke-width:0.5;" x1="2387.5" x2="2513.5" y1="1001.2969" y2="1001.2969"/><line style="stroke:#181818;stroke-width:0.5;" x1="2387.5" x2="2513.5" y1="1009.2969" y2="1009.2969"/></g><!--class ApplicationRepository--><g id="elem_ApplicationRepository"><rect codeLine="40" fill="#FEF9E7" height="73.2813" id="ApplicationRepository" rx="2.5" ry="2.5" style="stroke:#181818;stroke-width:0.5;" width="254" x="774.5" y="572.7969"/><ellipse cx="790.5" cy="589.7969" fill="#ADD1B2" rx="12" ry="12" style="stroke:#181818;stroke-width:1.0;"/><path d="M793.5625,596.875 Q792.875,597.2344 792.125,597.4063 Q791.375,597.5781 790.5469,597.5781 Q787.5938,597.5781 786.0313,595.6406 Q784.4844,593.6875 784.4844,590.0156 Q784.4844,586.3438 786.0313,584.4063 Q787.5938,582.4531 790.5469,582.4531 Q791.375,582.4531 792.125,582.625 Q792.8906,582.7969 793.5625,583.1563 L793.5625,586.3594 Q792.8125,585.6719 792.1094,585.3594 Q791.4219,585.0469 790.6719,585.0469 Q789.0938,585.0469 788.2813,586.2969 Q787.4844,587.5469 787.4844,590.0156 Q787.4844,592.4844 788.2813,593.7344 Q789.0938,594.9844 790.6719,594.9844 Q791.4219,594.9844 792.1094,594.6719 Q792.8125,594.3594 793.5625,593.6719 L793.5625,596.875 Z " fill="#000000"/><text fill="#000000" font-family="sans-serif" font-size="20" lengthAdjust="spacing" textLength="220" x="805.5" y="596.7207">ApplicationRepository</text><line style="stroke:#181818;stroke-width:0.5;" x1="775.5" x2="1027.5" y1="606.7969" y2="606.7969"/><line style="stroke:#181818;stroke-width:0.5;" x1="775.5" x2="1027.5" y1="614.7969" y2="614.7969"/><ellipse cx="785.5" cy="631.9375" fill="#84BE84" rx="3" ry="3" style="stroke:#038048;stroke-width:1.0;"/><text fill="#000000" font-family="sans-serif" font-size="20" lengthAdjust="spacing" textLength="222" x="795.5" y="637.3613">save(application):void</text></g><!--class JpaApplicationRepository--><g id="elem_JpaApplicationRepository"><rect codeLine="44" fill="#FEF9E7" height="73.2813" id="JpaApplicationRepository" rx="2.5" ry="2.5" style="stroke:#181818;stroke-width:0.5;" width="285" x="917" y="799.2969"/><ellipse cx="933" cy="816.2969" fill="#ADD1B2" rx="12" ry="12" style="stroke:#181818;stroke-width:1.0;"/><path d="M936.0625,823.375 Q935.375,823.7344 934.625,823.9063 Q933.875,824.0781 933.0469,824.0781 Q930.0938,824.0781 928.5313,822.1406 Q926.9844,820.1875 926.9844,816.5156 Q926.9844,812.8438 928.5313,810.9063 Q930.0938,808.9531 933.0469,808.9531 Q933.875,808.9531 934.625,809.125 Q935.3906,809.2969 936.0625,809.6563 L936.0625,812.8594 Q935.3125,812.1719 934.6094,811.8594 Q933.9219,811.5469 933.1719,811.5469 Q931.5938,811.5469 930.7813,812.7969 Q929.9844,814.0469 929.9844,816.5156 Q929.9844,818.9844 930.7813,820.2344 Q931.5938,821.4844 933.1719,821.4844 Q933.9219,821.4844 934.6094,821.1719 Q935.3125,820.8594 936.0625,820.1719 L936.0625,823.375 Z " fill="#000000"/><text fill="#000000" font-family="sans-serif" font-size="20" lengthAdjust="spacing" textLength="251" x="948" y="823.2207">JpaApplicationRepository</text><line style="stroke:#181818;stroke-width:0.5;" x1="918" x2="1201" y1="833.2969" y2="833.2969"/><line style="stroke:#181818;stroke-width:0.5;" x1="918" x2="1201" y1="841.2969" y2="841.2969"/><ellipse cx="928" cy="858.4375" fill="#84BE84" rx="3" ry="3" style="stroke:#038048;stroke-width:1.0;"/><text fill="#000000" font-family="sans-serif" font-size="20" lengthAdjust="spacing" textLength="222" x="938" y="863.8613">save(application):void</text></g><!--class JobOpeningRepository--><g id="elem_JobOpeningRepository"><rect codeLine="48" fill="#FEF9E7" height="73.2813" id="JobOpeningRepository" rx="2.5" ry="2.5" style="stroke:#181818;stroke-width:0.5;" width="612" x="1063.5" y="572.7969"/><ellipse cx="1253.5" cy="589.7969" fill="#ADD1B2" rx="12" ry="12" style="stroke:#181818;stroke-width:1.0;"/><path d="M1256.5625,596.875 Q1255.875,597.2344 1255.125,597.4063 Q1254.375,597.5781 1253.5469,597.5781 Q1250.5938,597.5781 1249.0313,595.6406 Q1247.4844,593.6875 1247.4844,590.0156 Q1247.4844,586.3438 1249.0313,584.4063 Q1250.5938,582.4531 1253.5469,582.4531 Q1254.375,582.4531 1255.125,582.625 Q1255.8906,582.7969 1256.5625,583.1563 L1256.5625,586.3594 Q1255.8125,585.6719 1255.1094,585.3594 Q1254.4219,585.0469 1253.6719,585.0469 Q1252.0938,585.0469 1251.2813,586.2969 Q1250.4844,587.5469 1250.4844,590.0156 Q1250.4844,592.4844 1251.2813,593.7344 Q1252.0938,594.9844 1253.6719,594.9844 Q1254.4219,594.9844 1255.1094,594.6719 Q1255.8125,594.3594 1256.5625,593.6719 L1256.5625,596.875 Z " fill="#000000"/><text fill="#000000" font-family="sans-serif" font-size="20" lengthAdjust="spacing" textLength="223" x="1275.5" y="596.7207">JobOpeningRepository</text><line style="stroke:#181818;stroke-width:0.5;" x1="1064.5" x2="1674.5" y1="606.7969" y2="606.7969"/><line style="stroke:#181818;stroke-width:0.5;" x1="1064.5" x2="1674.5" y1="614.7969" y2="614.7969"/><ellipse cx="1074.5" cy="631.9375" fill="#84BE84" rx="3" ry="3" style="stroke:#038048;stroke-width:1.0;"/><text fill="#000000" font-family="sans-serif" font-size="20" lengthAdjust="spacing" textLength="585" x="1084.5" y="637.3613">findJobOpeningByJobReference(jobReference):JobOpening</text></g><!--class JpaJobOpeningRepository--><g id="elem_JpaJobOpeningRepository"><rect codeLine="51" fill="#FEF9E7" height="73.2813" id="JpaJobOpeningRepository" rx="2.5" ry="2.5" style="stroke:#181818;stroke-width:0.5;" width="612" x="1868.5" y="799.2969"/><ellipse cx="2043" cy="816.2969" fill="#ADD1B2" rx="12" ry="12" style="stroke:#181818;stroke-width:1.0;"/><path d="M2046.0625,823.375 Q2045.375,823.7344 2044.625,823.9063 Q2043.875,824.0781 2043.0469,824.0781 Q2040.0938,824.0781 2038.5313,822.1406 Q2036.9844,820.1875 2036.9844,816.5156 Q2036.9844,812.8438 2038.5313,810.9063 Q2040.0938,808.9531 2043.0469,808.9531 Q2043.875,808.9531 2044.625,809.125 Q2045.3906,809.2969 2046.0625,809.6563 L2046.0625,812.8594 Q2045.3125,812.1719 2044.6094,811.8594 Q2043.9219,811.5469 2043.1719,811.5469 Q2041.5938,811.5469 2040.7813,812.7969 Q2039.9844,814.0469 2039.9844,816.5156 Q2039.9844,818.9844 2040.7813,820.2344 Q2041.5938,821.4844 2043.1719,821.4844 Q2043.9219,821.4844 2044.6094,821.1719 Q2045.3125,820.8594 2046.0625,820.1719 L2046.0625,823.375 Z " fill="#000000"/><text fill="#000000" font-family="sans-serif" font-size="20" lengthAdjust="spacing" textLength="254" x="2065" y="823.2207">JpaJobOpeningRepository</text><line style="stroke:#181818;stroke-width:0.5;" x1="1869.5" x2="2479.5" y1="833.2969" y2="833.2969"/><line style="stroke:#181818;stroke-width:0.5;" x1="1869.5" x2="2479.5" y1="841.2969" y2="841.2969"/><ellipse cx="1879.5" cy="858.4375" fill="#84BE84" rx="3" ry="3" style="stroke:#038048;stroke-width:1.0;"/><text fill="#000000" font-family="sans-serif" font-size="20" lengthAdjust="spacing" textLength="585" x="1889.5" y="863.8613">findJobOpeningByJobReference(jobReference):JobOpening</text></g><!--class CandidateController--><g id="elem_CandidateController"><rect codeLine="55" fill="#FEF9E7" height="96.5625" id="CandidateController" rx="2.5" ry="2.5" style="stroke:#181818;stroke-width:0.5;" width="750" x="2140.5" y="154.2969"/><ellipse cx="2368.5" cy="171.2969" fill="#ADD1B2" rx="12" ry="12" style="stroke:#181818;stroke-width:1.0;"/><path d="M2371.5625,178.375 Q2370.875,178.7344 2370.125,178.9063 Q2369.375,179.0781 2368.5469,179.0781 Q2365.5938,179.0781 2364.0313,177.1406 Q2362.4844,175.1875 2362.4844,171.5156 Q2362.4844,167.8438 2364.0313,165.9063 Q2365.5938,163.9531 2368.5469,163.9531 Q2369.375,163.9531 2370.125,164.125 Q2370.8906,164.2969 2371.5625,164.6563 L2371.5625,167.8594 Q2370.8125,167.1719 2370.1094,166.8594 Q2369.4219,166.5469 2368.6719,166.5469 Q2367.0938,166.5469 2366.2813,167.7969 Q2365.4844,169.0469 2365.4844,171.5156 Q2365.4844,173.9844 2366.2813,175.2344 Q2367.0938,176.4844 2368.6719,176.4844 Q2369.4219,176.4844 2370.1094,176.1719 Q2370.8125,175.8594 2371.5625,175.1719 L2371.5625,178.375 Z " fill="#000000"/><text fill="#000000" font-family="sans-serif" font-size="20" lengthAdjust="spacing" textLength="285" x="2390.5" y="178.2207">RegisterCandidateController</text><line style="stroke:#181818;stroke-width:0.5;" x1="2141.5" x2="2889.5" y1="188.2969" y2="188.2969"/><line style="stroke:#181818;stroke-width:0.5;" x1="2141.5" x2="2889.5" y1="196.2969" y2="196.2969"/><ellipse cx="2151.5" cy="213.4375" fill="#84BE84" rx="3" ry="3" style="stroke:#038048;stroke-width:1.0;"/><text fill="#000000" font-family="sans-serif" font-size="20" lengthAdjust="spacing" textLength="723" x="2161.5" y="218.8613">registerCandidate(firstName, lastName,email,phoneNumber):Candidate</text><ellipse cx="2151.5" cy="236.7188" fill="#84BE84" rx="3" ry="3" style="stroke:#038048;stroke-width:1.0;"/><text fill="#000000" font-family="sans-serif" font-size="20" lengthAdjust="spacing" textLength="445" x="2161.5" y="242.1426">registerCandidateUser(candidate, user):void</text></g><!--class CandidateService--><g id="elem_CandidateService"><rect codeLine="60" fill="#FEF9E7" height="73.2813" id="CandidateService" rx="2.5" ry="2.5" style="stroke:#181818;stroke-width:0.5;" width="743" x="2144" y="346.2969"/><ellipse cx="2423" cy="363.2969" fill="#ADD1B2" rx="12" ry="12" style="stroke:#181818;stroke-width:1.0;"/><path d="M2426.0625,370.375 Q2425.375,370.7344 2424.625,370.9063 Q2423.875,371.0781 2423.0469,371.0781 Q2420.0938,371.0781 2418.5313,369.1406 Q2416.9844,367.1875 2416.9844,363.5156 Q2416.9844,359.8438 2418.5313,357.9063 Q2420.0938,355.9531 2423.0469,355.9531 Q2423.875,355.9531 2424.625,356.125 Q2425.3906,356.2969 2426.0625,356.6563 L2426.0625,359.8594 Q2425.3125,359.1719 2424.6094,358.8594 Q2423.9219,358.5469 2423.1719,358.5469 Q2421.5938,358.5469 2420.7813,359.7969 Q2419.9844,361.0469 2419.9844,363.5156 Q2419.9844,365.9844 2420.7813,367.2344 Q2421.5938,368.4844 2423.1719,368.4844 Q2423.9219,368.4844 2424.6094,368.1719 Q2425.3125,367.8594 2426.0625,367.1719 L2426.0625,370.375 Z " fill="#000000"/><text fill="#000000" font-family="sans-serif" font-size="20" lengthAdjust="spacing" textLength="176" x="2445" y="370.2207">CandidateService</text><line style="stroke:#181818;stroke-width:0.5;" x1="2145" x2="2886" y1="380.2969" y2="380.2969"/><line style="stroke:#181818;stroke-width:0.5;" x1="2145" x2="2886" y1="388.2969" y2="388.2969"/><ellipse cx="2155" cy="405.4375" fill="#84BE84" rx="3" ry="3" style="stroke:#038048;stroke-width:1.0;"/><text fill="#000000" font-family="sans-serif" font-size="20" lengthAdjust="spacing" textLength="716" x="2165" y="410.8613">addCandidateUser(email, password, first name, last name):SystemUser</text></g><!--class Candidate--><g id="elem_Candidate"><rect codeLine="64" fill="#FEF9E7" height="189.6875" id="Candidate" rx="2.5" ry="2.5" style="stroke:#181818;stroke-width:0.5;" width="1245" x="1710" y="514.2969"/><ellipse cx="2276.5" cy="531.2969" fill="#ADD1B2" rx="12" ry="12" style="stroke:#181818;stroke-width:1.0;"/><path d="M2279.5625,538.375 Q2278.875,538.7344 2278.125,538.9063 Q2277.375,539.0781 2276.5469,539.0781 Q2273.5938,539.0781 2272.0313,537.1406 Q2270.4844,535.1875 2270.4844,531.5156 Q2270.4844,527.8438 2272.0313,525.9063 Q2273.5938,523.9531 2276.5469,523.9531 Q2277.375,523.9531 2278.125,524.125 Q2278.8906,524.2969 2279.5625,524.6563 L2279.5625,527.8594 Q2278.8125,527.1719 2278.1094,526.8594 Q2277.4219,526.5469 2276.6719,526.5469 Q2275.0938,526.5469 2274.2813,527.7969 Q2273.4844,529.0469 2273.4844,531.5156 Q2273.4844,533.9844 2274.2813,535.2344 Q2275.0938,536.4844 2276.6719,536.4844 Q2277.4219,536.4844 2278.1094,536.1719 Q2278.8125,535.8594 2279.5625,535.1719 L2279.5625,538.375 Z " fill="#000000"/><text fill="#000000" font-family="sans-serif" font-size="20" lengthAdjust="spacing" textLength="103" x="2298.5" y="538.2207">Candidate</text><line style="stroke:#181818;stroke-width:0.5;" x1="1711" x2="2954" y1="548.2969" y2="548.2969"/><rect fill="none" height="6" style="stroke:#C82930;stroke-width:1.0;" width="6" x="1718" y="562.4375"/><text fill="#000000" font-family="sans-serif" font-size="20" lengthAdjust="spacing" textLength="225" x="1731" y="570.8613">companyName: String</text><rect fill="none" height="6" style="stroke:#C82930;stroke-width:1.0;" width="6" x="1718" y="585.7188"/><text fill="#000000" font-family="sans-serif" font-size="20" lengthAdjust="spacing" textLength="152" x="1731" y="594.1426">address: String</text><rect fill="none" height="6" style="stroke:#C82930;stroke-width:1.0;" width="6" x="1718" y="609"/><text fill="#000000" font-family="sans-serif" font-size="20" lengthAdjust="spacing" textLength="228" x="1731" y="617.4238">CandidateCode: String</text><rect fill="none" height="6" style="stroke:#C82930;stroke-width:1.0;" width="6" x="1718" y="632.2813"/><text fill="#000000" font-family="sans-serif" font-size="20" lengthAdjust="spacing" textLength="130" x="1731" y="640.7051">email: String</text><rect fill="none" height="6" style="stroke:#C82930;stroke-width:1.0;" width="6" x="1718" y="655.5625"/><text fill="#000000" font-family="sans-serif" font-size="20" lengthAdjust="spacing" textLength="137" x="1731" y="663.9863">phone: String</text><line style="stroke:#181818;stroke-width:0.5;" x1="1711" x2="2954" y1="672.7031" y2="672.7031"/><ellipse cx="1721" cy="689.8438" fill="#84BE84" rx="3" ry="3" style="stroke:#038048;stroke-width:1.0;"/><text fill="#000000" font-family="sans-serif" font-size="20" lengthAdjust="spacing" textLength="1218" x="1731" y="695.2676">createCandidate(companyName: String, address: String, CandidateCode: String, email: String, phone: String): Candidate</text></g><!--class CandidateRepository--><g id="elem_CandidateRepository"><rect codeLine="73" fill="#FEF9E7" height="73.2813" id="CandidateRepository" rx="2.5" ry="2.5" style="stroke:#181818;stroke-width:0.5;" width="423" x="2990" y="572.7969"/><ellipse cx="3092.5" cy="589.7969" fill="#ADD1B2" rx="12" ry="12" style="stroke:#181818;stroke-width:1.0;"/><path d="M3095.5625,596.875 Q3094.875,597.2344 3094.125,597.4063 Q3093.375,597.5781 3092.5469,597.5781 Q3089.5938,597.5781 3088.0313,595.6406 Q3086.4844,593.6875 3086.4844,590.0156 Q3086.4844,586.3438 3088.0313,584.4063 Q3089.5938,582.4531 3092.5469,582.4531 Q3093.375,582.4531 3094.125,582.625 Q3094.8906,582.7969 3095.5625,583.1563 L3095.5625,586.3594 Q3094.8125,585.6719 3094.1094,585.3594 Q3093.4219,585.0469 3092.6719,585.0469 Q3091.0938,585.0469 3090.2813,586.2969 Q3089.4844,587.5469 3089.4844,590.0156 Q3089.4844,592.4844 3090.2813,593.7344 Q3091.0938,594.9844 3092.6719,594.9844 Q3093.4219,594.9844 3094.1094,594.6719 Q3094.8125,594.3594 3095.5625,593.6719 L3095.5625,596.875 Z " fill="#000000"/><text fill="#000000" font-family="sans-serif" font-size="20" lengthAdjust="spacing" textLength="209" x="3114.5" y="596.7207">CandidateRepository</text><line style="stroke:#181818;stroke-width:0.5;" x1="2991" x2="3412" y1="606.7969" y2="606.7969"/><line style="stroke:#181818;stroke-width:0.5;" x1="2991" x2="3412" y1="614.7969" y2="614.7969"/><ellipse cx="3001" cy="631.9375" fill="#84BE84" rx="3" ry="3" style="stroke:#038048;stroke-width:1.0;"/><text fill="#000000" font-family="sans-serif" font-size="20" lengthAdjust="spacing" textLength="396" x="3011" y="637.3613">save(Candidate: Candidate): Candidate</text></g><!--class JpaCandidateRepository--><g id="elem_JpaCandidateRepository"><rect codeLine="77" fill="#FEF9E7" height="73.2813" id="JpaCandidateRepository" rx="2.5" ry="2.5" style="stroke:#181818;stroke-width:0.5;" width="423" x="2832" y="799.2969"/><ellipse cx="2919" cy="816.2969" fill="#ADD1B2" rx="12" ry="12" style="stroke:#181818;stroke-width:1.0;"/><path d="M2922.0625,823.375 Q2921.375,823.7344 2920.625,823.9063 Q2919.875,824.0781 2919.0469,824.0781 Q2916.0938,824.0781 2914.5313,822.1406 Q2912.9844,820.1875 2912.9844,816.5156 Q2912.9844,812.8438 2914.5313,810.9063 Q2916.0938,808.9531 2919.0469,808.9531 Q2919.875,808.9531 2920.625,809.125 Q2921.3906,809.2969 2922.0625,809.6563 L2922.0625,812.8594 Q2921.3125,812.1719 2920.6094,811.8594 Q2919.9219,811.5469 2919.1719,811.5469 Q2917.5938,811.5469 2916.7813,812.7969 Q2915.9844,814.0469 2915.9844,816.5156 Q2915.9844,818.9844 2916.7813,820.2344 Q2917.5938,821.4844 2919.1719,821.4844 Q2919.9219,821.4844 2920.6094,821.1719 Q2921.3125,820.8594 2922.0625,820.1719 L2922.0625,823.375 Z " fill="#000000"/><text fill="#000000" font-family="sans-serif" font-size="20" lengthAdjust="spacing" textLength="240" x="2941" y="823.2207">JpaCandidateRepository</text><line style="stroke:#181818;stroke-width:0.5;" x1="2833" x2="3254" y1="833.2969" y2="833.2969"/><line style="stroke:#181818;stroke-width:0.5;" x1="2833" x2="3254" y1="841.2969" y2="841.2969"/><ellipse cx="2843" cy="858.4375" fill="#84BE84" rx="3" ry="3" style="stroke:#038048;stroke-width:1.0;"/><text fill="#000000" font-family="sans-serif" font-size="20" lengthAdjust="spacing" textLength="396" x="2853" y="863.8613">save(Candidate: Candidate): Candidate</text></g><!--class CandidateUserController--><g id="elem_CandidateUserController"><rect codeLine="81" fill="#FEF9E7" height="73.2813" id="CandidateUserController" rx="2.5" ry="2.5" style="stroke:#181818;stroke-width:0.5;" width="960" x="3291.5" y="166.2969"/><ellipse cx="3602" cy="183.2969" fill="#ADD1B2" rx="12" ry="12" style="stroke:#181818;stroke-width:1.0;"/><path d="M3605.0625,190.375 Q3604.375,190.7344 3603.625,190.9063 Q3602.875,191.0781 3602.0469,191.0781 Q3599.0938,191.0781 3597.5313,189.1406 Q3595.9844,187.1875 3595.9844,183.5156 Q3595.9844,179.8438 3597.5313,177.9063 Q3599.0938,175.9531 3602.0469,175.9531 Q3602.875,175.9531 3603.625,176.125 Q3604.3906,176.2969 3605.0625,176.6563 L3605.0625,179.8594 Q3604.3125,179.1719 3603.6094,178.8594 Q3602.9219,178.5469 3602.1719,178.5469 Q3600.5938,178.5469 3599.7813,179.7969 Q3598.9844,181.0469 3598.9844,183.5156 Q3598.9844,185.9844 3599.7813,187.2344 Q3600.5938,188.4844 3602.1719,188.4844 Q3602.9219,188.4844 3603.6094,188.1719 Q3604.3125,187.8594 3605.0625,187.1719 L3605.0625,190.375 Z " fill="#000000"/><text fill="#000000" font-family="sans-serif" font-size="20" lengthAdjust="spacing" textLength="330" x="3624" y="190.2207">RegisterCandidateUserController</text><line style="stroke:#181818;stroke-width:0.5;" x1="3292.5" x2="4250.5" y1="200.2969" y2="200.2969"/><line style="stroke:#181818;stroke-width:0.5;" x1="3292.5" x2="4250.5" y1="208.2969" y2="208.2969"/><ellipse cx="3302.5" cy="225.4375" fill="#84BE84" rx="3" ry="3" style="stroke:#038048;stroke-width:1.0;"/><text fill="#000000" font-family="sans-serif" font-size="20" lengthAdjust="spacing" textLength="933" x="3312.5" y="230.8613">addCandidateUser(email: String, password: String, firstName: String, lastName: String): void</text></g><!--class ManagementService--><g id="elem_ManagementService"><rect codeLine="85" fill="#FEF9E7" height="73.2813" id="ManagementService" rx="2.5" ry="2.5" style="stroke:#181818;stroke-width:0.5;" width="1046" x="3431.5" y="346.2969"/><ellipse cx="3825" cy="363.2969" fill="#ADD1B2" rx="12" ry="12" style="stroke:#181818;stroke-width:1.0;"/><path d="M3828.0625,370.375 Q3827.375,370.7344 3826.625,370.9063 Q3825.875,371.0781 3825.0469,371.0781 Q3822.0938,371.0781 3820.5313,369.1406 Q3818.9844,367.1875 3818.9844,363.5156 Q3818.9844,359.8438 3820.5313,357.9063 Q3822.0938,355.9531 3825.0469,355.9531 Q3825.875,355.9531 3826.625,356.125 Q3827.3906,356.2969 3828.0625,356.6563 L3828.0625,359.8594 Q3827.3125,359.1719 3826.6094,358.8594 Q3825.9219,358.5469 3825.1719,358.5469 Q3823.5938,358.5469 3822.7813,359.7969 Q3821.9844,361.0469 3821.9844,363.5156 Q3821.9844,365.9844 3822.7813,367.2344 Q3823.5938,368.4844 3825.1719,368.4844 Q3825.9219,368.4844 3826.6094,368.1719 Q3827.3125,367.8594 3828.0625,367.1719 L3828.0625,370.375 Z " fill="#000000"/><text fill="#000000" font-family="sans-serif" font-size="20" lengthAdjust="spacing" textLength="250" x="3847" y="370.2207">UserManagementService</text><line style="stroke:#181818;stroke-width:0.5;" x1="3432.5" x2="4476.5" y1="380.2969" y2="380.2969"/><line style="stroke:#181818;stroke-width:0.5;" x1="3432.5" x2="4476.5" y1="388.2969" y2="388.2969"/><ellipse cx="3442.5" cy="405.4375" fill="#84BE84" rx="3" ry="3" style="stroke:#038048;stroke-width:1.0;"/><text fill="#000000" font-family="sans-serif" font-size="20" lengthAdjust="spacing" textLength="1019" x="3452.5" y="410.8613">registerNewCandidateUser(email: String, password: String, firstName: String, lastName: String): User</text></g><!--class Factory--><g id="elem_Factory"><rect codeLine="89" fill="#FEF9E7" height="73.2813" id="Factory" rx="2.5" ry="2.5" style="stroke:#181818;stroke-width:0.5;" width="1013" x="3448" y="572.7969"/><ellipse cx="3861.5" cy="589.7969" fill="#ADD1B2" rx="12" ry="12" style="stroke:#181818;stroke-width:1.0;"/><path d="M3864.5625,596.875 Q3863.875,597.2344 3863.125,597.4063 Q3862.375,597.5781 3861.5469,597.5781 Q3858.5938,597.5781 3857.0313,595.6406 Q3855.4844,593.6875 3855.4844,590.0156 Q3855.4844,586.3438 3857.0313,584.4063 Q3858.5938,582.4531 3861.5469,582.4531 Q3862.375,582.4531 3863.125,582.625 Q3863.8906,582.7969 3864.5625,583.1563 L3864.5625,586.3594 Q3863.8125,585.6719 3863.1094,585.3594 Q3862.4219,585.0469 3861.6719,585.0469 Q3860.0938,585.0469 3859.2813,586.2969 Q3858.4844,587.5469 3858.4844,590.0156 Q3858.4844,592.4844 3859.2813,593.7344 Q3860.0938,594.9844 3861.6719,594.9844 Q3862.4219,594.9844 3863.1094,594.6719 Q3863.8125,594.3594 3864.5625,593.6719 L3864.5625,596.875 Z " fill="#000000"/><text fill="#000000" font-family="sans-serif" font-size="20" lengthAdjust="spacing" textLength="177" x="3883.5" y="596.7207">UserTypesFactory</text><line style="stroke:#181818;stroke-width:0.5;" x1="3449" x2="4460" y1="606.7969" y2="606.7969"/><line style="stroke:#181818;stroke-width:0.5;" x1="3449" x2="4460" y1="614.7969" y2="614.7969"/><ellipse cx="3459" cy="631.9375" fill="#84BE84" rx="3" ry="3" style="stroke:#038048;stroke-width:1.0;"/><text fill="#000000" font-family="sans-serif" font-size="20" lengthAdjust="spacing" textLength="986" x="3469" y="637.3613">withRoleCandidateUser(email: String, password: String, firstName: String, lastName: String): User</text></g><!--class UserRepository--><g id="elem_UserRepository"><rect codeLine="93" fill="#FEF9E7" height="73.2813" id="UserRepository" rx="2.5" ry="2.5" style="stroke:#181818;stroke-width:0.5;" width="247" x="4496" y="572.7969"/><ellipse cx="4539.9" cy="589.7969" fill="#ADD1B2" rx="12" ry="12" style="stroke:#181818;stroke-width:1.0;"/><path d="M4542.9625,596.875 Q4542.275,597.2344 4541.525,597.4063 Q4540.775,597.5781 4539.9469,597.5781 Q4536.9938,597.5781 4535.4313,595.6406 Q4533.8844,593.6875 4533.8844,590.0156 Q4533.8844,586.3438 4535.4313,584.4063 Q4536.9938,582.4531 4539.9469,582.4531 Q4540.775,582.4531 4541.525,582.625 Q4542.2906,582.7969 4542.9625,583.1563 L4542.9625,586.3594 Q4542.2125,585.6719 4541.5094,585.3594 Q4540.8219,585.0469 4540.0719,585.0469 Q4538.4938,585.0469 4537.6813,586.2969 Q4536.8844,587.5469 4536.8844,590.0156 Q4536.8844,592.4844 4537.6813,593.7344 Q4538.4938,594.9844 4540.0719,594.9844 Q4540.8219,594.9844 4541.5094,594.6719 Q4542.2125,594.3594 4542.9625,593.6719 L4542.9625,596.875 Z " fill="#000000"/><text fill="#000000" font-family="sans-serif" font-size="20" lengthAdjust="spacing" textLength="151" x="4561.1" y="596.7207">UserRepository</text><line style="stroke:#181818;stroke-width:0.5;" x1="4497" x2="4742" y1="606.7969" y2="606.7969"/><line style="stroke:#181818;stroke-width:0.5;" x1="4497" x2="4742" y1="614.7969" y2="614.7969"/><ellipse cx="4507" cy="631.9375" fill="#84BE84" rx="3" ry="3" style="stroke:#038048;stroke-width:1.0;"/><text fill="#000000" font-family="sans-serif" font-size="20" lengthAdjust="spacing" textLength="220" x="4517" y="637.3613">save(user: User): User</text></g><!--class JpaUserRepository--><g id="elem_JpaUserRepository"><rect codeLine="97" fill="#FEF9E7" height="73.2813" id="JpaUserRepository" rx="2.5" ry="2.5" style="stroke:#181818;stroke-width:0.5;" width="247" x="3972" y="799.2969"/><ellipse cx="4001.95" cy="816.2969" fill="#ADD1B2" rx="12" ry="12" style="stroke:#181818;stroke-width:1.0;"/><path d="M4005.0125,823.375 Q4004.325,823.7344 4003.575,823.9063 Q4002.825,824.0781 4001.9969,824.0781 Q3999.0438,824.0781 3997.4813,822.1406 Q3995.9344,820.1875 3995.9344,816.5156 Q3995.9344,812.8438 3997.4813,810.9063 Q3999.0438,808.9531 4001.9969,808.9531 Q4002.825,808.9531 4003.575,809.125 Q4004.3406,809.2969 4005.0125,809.6563 L4005.0125,812.8594 Q4004.2625,812.1719 4003.5594,811.8594 Q4002.8719,811.5469 4002.1219,811.5469 Q4000.5438,811.5469 3999.7313,812.7969 Q3998.9344,814.0469 3998.9344,816.5156 Q3998.9344,818.9844 3999.7313,820.2344 Q4000.5438,821.4844 4002.1219,821.4844 Q4002.8719,821.4844 4003.5594,821.1719 Q4004.2625,820.8594 4005.0125,820.1719 L4005.0125,823.375 Z " fill="#000000"/><text fill="#000000" font-family="sans-serif" font-size="20" lengthAdjust="spacing" textLength="182" x="4020.05" y="823.2207">JpaUserRepository</text><line style="stroke:#181818;stroke-width:0.5;" x1="3973" x2="4218" y1="833.2969" y2="833.2969"/><line style="stroke:#181818;stroke-width:0.5;" x1="3973" x2="4218" y1="841.2969" y2="841.2969"/><ellipse cx="3983" cy="858.4375" fill="#84BE84" rx="3" ry="3" style="stroke:#038048;stroke-width:1.0;"/><text fill="#000000" font-family="sans-serif" font-size="20" lengthAdjust="spacing" textLength="220" x="3993" y="863.8613">save(user: User): User</text></g><!--link UI to CandidateController--><g id="link_UI_CandidateController"><path codeLine="104" d="M2515.5,94.4169 C2515.5,109.6669 2515.5,129.9869 2515.5,148.8469 " fill="none" id="UI-to-CandidateController" style="stroke:#000000;stroke-width:1.0;"/><polygon fill="#000000" points="2515.5,154.1269,2519.5,145.1269,2515.5,149.1269,2511.5,145.1269,2515.5,154.1269" style="stroke:#000000;stroke-width:1.0;"/></g><!--link CandidateController to CandidateService--><g id="link_CandidateController_CandidateService"><path codeLine="105" d="M2515.5,251.4969 C2515.5,279.3969 2515.5,314.2569 2515.5,340.8969 " fill="none" id="CandidateController-to-CandidateService" style="stroke:#000000;stroke-width:1.0;"/><polygon fill="#000000" points="2515.5,346.1169,2519.5,337.1169,2515.5,341.1169,2511.5,337.1169,2515.5,346.1169" style="stroke:#000000;stroke-width:1.0;"/></g><!--link CandidateService to Candidate--><g id="link_CandidateService_Candidate"><path codeLine="106" d="M2486.5,419.3669 C2466.46,443.9669 2438.74,477.9669 2412.34,510.3469 " fill="none" id="CandidateService-to-Candidate" style="stroke:#000000;stroke-width:1.0;"/><polygon fill="#000000" points="2409.13,514.2869,2417.9098,509.8242,2412.283,510.4063,2411.7009,504.7795,2409.13,514.2869" style="stroke:#000000;stroke-width:1.0;"/></g><!--link CandidateService to CandidateRepository--><g id="link_CandidateService_CandidateRepository"><path codeLine="107" d="M2654.99,419.3069 C2746.15,443.5669 2867.36,477.8269 2972.5,514.2969 C3020.88,531.0769 3073.84,552.5969 3116.63,570.8169 " fill="none" id="CandidateService-to-CandidateRepository" style="stroke:#000000;stroke-width:1.0;"/><polygon fill="#000000" points="3121.26,572.7969,3114.5444,565.5926,3116.6591,570.8394,3111.4124,572.954,3121.26,572.7969" style="stroke:#000000;stroke-width:1.0;"/></g><!--link CandidateRepository to JpaCandidateRepository--><g id="link_CandidateRepository_JpaCandidateRepository"><path codeLine="108" d="M3176.46,645.8669 C3147.95,686.3869 3101.45,752.4469 3071.69,794.7469 " fill="none" id="CandidateRepository-to-JpaCandidateRepository" style="stroke:#000000;stroke-width:1.0;"/><polygon fill="#000000" points="3068.68,799.0169,3077.1276,793.9535,3071.555,794.9261,3070.5824,789.3535,3068.68,799.0169" style="stroke:#000000;stroke-width:1.0;"/></g><!--link JpaCandidateRepository to DB--><g id="link_JpaCandidateRepository_DB"><path codeLine="109" d="M2907.08,872.3369 C2786.13,903.8569 2614.41,948.5869 2519.78,973.2469 " fill="none" id="JpaCandidateRepository-to-DB" style="stroke:#000000;stroke-width:1.0;"/><polygon fill="#000000" points="2514.78,974.5469,2524.5007,976.1304,2519.6161,973.2772,2522.4693,968.3926,2514.78,974.5469" style="stroke:#000000;stroke-width:1.0;"/></g><!--link UI to CandidateUserController--><g id="link_UI_CandidateUserController"><path codeLine="110" d="M2633.66,82.6669 C2813.5,101.4969 3162.9,138.0769 3427.3,165.7569 " fill="none" id="UI-to-CandidateUserController" style="stroke:#000000;stroke-width:1.0;"/><polygon fill="#000000" points="3432.36,166.2869,3423.8333,161.3578,3427.388,165.7582,3422.9875,169.3129,3432.36,166.2869" style="stroke:#000000;stroke-width:1.0;"/></g><!--link CandidateUserController to ManagementService--><g id="link_CandidateUserController_ManagementService"><path codeLine="111" d="M3808.09,239.3869 C3838.76,269.2269 3882.49,311.7569 3914.17,342.5669 " fill="none" id="CandidateUserController-to-ManagementService" style="stroke:#000000;stroke-width:1.0;"/><polygon fill="#000000" points="3917.97,346.2669,3914.3048,337.1254,3914.3848,342.7817,3908.7285,342.8617,3917.97,346.2669" style="stroke:#000000;stroke-width:1.0;"/></g><!--link ManagementService to Factory--><g id="link_ManagementService_Factory"><path codeLine="112" d="M3954.5,419.3669 C3954.5,459.6469 3954.5,525.1469 3954.5,567.4769 " fill="none" id="ManagementService-to-Factory" style="stroke:#000000;stroke-width:1.0;"/><polygon fill="#000000" points="3954.5,572.5169,3958.5,563.5169,3954.5,567.5169,3950.5,563.5169,3954.5,572.5169" style="stroke:#000000;stroke-width:1.0;"/></g><!--link ManagementService to UserRepository--><g id="link_ManagementService_UserRepository"><path codeLine="113" d="M4166.53,419.2969 C4264.13,439.9669 4379.88,470.7269 4478.5,514.2969 C4511.2,528.7469 4544.62,550.6469 4570.71,569.6869 " fill="none" id="ManagementService-to-UserRepository" style="stroke:#000000;stroke-width:1.0;"/><polygon fill="#000000" points="4574.83,572.7069,4569.9273,564.165,4570.7944,569.755,4565.2043,570.622,4574.83,572.7069" style="stroke:#000000;stroke-width:1.0;"/></g><!--link UserRepository to JpaUserRepository--><g id="link_UserRepository_JpaUserRepository"><path codeLine="114" d="M4572.75,645.9369 C4546.15,665.0569 4511.61,687.9669 4478.5,704.2969 C4396.97,744.5069 4300,777.4169 4224.03,800.1169 " fill="none" id="UserRepository-to-JpaUserRepository" style="stroke:#000000;stroke-width:1.0;"/><polygon fill="#000000" points="4219.06,801.6069,4228.8271,802.8734,4223.8523,800.1806,4226.5451,795.2058,4219.06,801.6069" style="stroke:#000000;stroke-width:1.0;"/></g><!--link JpaUserRepository to DB--><g id="link_JpaUserRepository_DB"><path codeLine="115" d="M3971.86,848.4069 C3646.27,878.9869 2772.92,961.0169 2520.01,984.7669 " fill="none" id="JpaUserRepository-to-DB" style="stroke:#000000;stroke-width:1.0;"/><polygon fill="#000000" points="2514.88,985.2469,2524.2166,988.3819,2519.8578,984.7762,2523.4635,980.4174,2514.88,985.2469" style="stroke:#000000;stroke-width:1.0;"/></g><!--link UI to ApplicationController--><g id="link_UI_ApplicationController"><path codeLine="118" d="M2397.47,93.0769 C2151.54,140.5369 1577.13,251.3969 1215.93,321.1069 " fill="none" id="UI-to-ApplicationController" style="stroke:#000000;stroke-width:1.0;"/><polygon fill="#000000" points="1210.9,322.0869,1220.4925,324.3194,1215.8104,321.1448,1218.9851,316.4627,1210.9,322.0869" style="stroke:#000000;stroke-width:1.0;"/></g><!--link ApplicationController to JobOpeningRepository--><g id="link_ApplicationController_JobOpeningRepository"><path codeLine="122" d="M1048.61,454.3669 C1128.7,492.7869 1224.61,538.7969 1290.59,570.4469 " fill="none" id="ApplicationController-to-JobOpeningRepository" style="stroke:#000000;stroke-width:1.0;"/><polygon fill="#000000" points="1295.29,572.6969,1288.8941,565.2074,1290.7786,570.5411,1285.4449,572.4256,1295.29,572.6969" style="stroke:#000000;stroke-width:1.0;"/></g><!--link ApplicationController to ApplicationRepository--><g id="link_ApplicationController_ApplicationRepository"><path codeLine="123" d="M901.5,454.5269 C901.5,491.6969 901.5,535.9569 901.5,567.4169 " fill="none" id="ApplicationController-to-ApplicationRepository" style="stroke:#000000;stroke-width:1.0;"/><polygon fill="#000000" points="901.5,572.7469,905.5,563.7469,901.5,567.7469,897.5,563.7469,901.5,572.7469" style="stroke:#000000;stroke-width:1.0;"/></g><!--link ApplicationController to File--><g id="link_ApplicationController_File"><path codeLine="124" d="M819.91,454.5269 C781.42,487.8769 736.37,526.9369 701.29,557.3369 " fill="none" id="ApplicationController-to-File" style="stroke:#000000;stroke-width:1.0;"/><polygon fill="#000000" points="697.5,560.6269,706.925,557.7688,701.2832,557.3577,701.6943,551.7158,697.5,560.6269" style="stroke:#000000;stroke-width:1.0;"/></g><!--link ApplicationController to ApplicationBuilder--><g id="link_ApplicationController_ApplicationBuilder"><path codeLine="125" d="M698.61,454.4269 C643.12,473.7869 582.98,494.8169 527.5,514.2969 C474.56,532.8869 415.73,553.6669 366.88,570.9469 " fill="none" id="ApplicationController-to-ApplicationBuilder" style="stroke:#000000;stroke-width:1.0;"/><polygon fill="#000000" points="361.89,572.7169,371.7093,573.4795,366.6026,571.0461,369.036,565.9393,361.89,572.7169" style="stroke:#000000;stroke-width:1.0;"/></g><!--link ApplicationBuilder to Application--><g id="link_ApplicationBuilder_Application"><path codeLine="126" d="M261.5,645.8669 C261.5,676.1569 261.5,720.7269 261.5,758.9569 " fill="none" id="ApplicationBuilder-to-Application" style="stroke:#000000;stroke-width:1.0;"/><polygon fill="#000000" points="261.5,764.0669,265.5,755.0669,261.5,759.0669,257.5,755.0669,261.5,764.0669" style="stroke:#000000;stroke-width:1.0;"/></g><!--link JobOpeningRepository to JpaJobOpeningRepository--><g id="link_JobOpeningRepository_JpaJobOpeningRepository"><path codeLine="131" d="M1489.75,645.8769 C1550.47,663.6869 1625.31,685.4269 1692.5,704.2969 C1807.92,736.7169 1939.3,772.1869 2035.71,797.9569 " fill="none" id="JobOpeningRepository-to-JpaJobOpeningRepository" style="stroke:#000000;stroke-width:1.0;"/><polygon fill="#000000" points="2040.56,799.2569,2032.8923,793.0758,2035.7284,797.9703,2030.8338,800.8064,2040.56,799.2569" style="stroke:#000000;stroke-width:1.0;"/></g><!--link ApplicationRepository to JpaApplicationRepository--><g id="link_ApplicationRepository_JpaApplicationRepository"><path codeLine="132" d="M926.54,645.8669 C955.05,686.3869 1001.55,752.4469 1031.31,794.7469 " fill="none" id="ApplicationRepository-to-JpaApplicationRepository" style="stroke:#000000;stroke-width:1.0;"/><polygon fill="#000000" points="1034.32,799.0169,1032.4176,789.3535,1031.445,794.9261,1025.8724,793.9535,1034.32,799.0169" style="stroke:#000000;stroke-width:1.0;"/></g><!--link JpaApplicationRepository to DB--><g id="link_JpaApplicationRepository_DB"><path codeLine="133" d="M1202.15,852.6369 C1497.06,885.3969 2164.4,959.5169 2381.12,983.5869 " fill="none" id="JpaApplicationRepository-to-DB" style="stroke:#000000;stroke-width:1.0;"/><polygon fill="#000000" points="2386.15,984.1469,2377.6515,979.1694,2381.1811,983.59,2376.7605,987.1196,2386.15,984.1469" style="stroke:#000000;stroke-width:1.0;"/></g><!--link JpaJobOpeningRepository to DB--><g id="link_JpaJobOpeningRepository_DB"><path codeLine="134" d="M2238.17,872.4369 C2288.34,900.5269 2357.2,939.0669 2402.73,964.5569 " fill="none" id="JpaJobOpeningRepository-to-DB" style="stroke:#000000;stroke-width:1.0;"/><polygon fill="#000000" points="2407.34,967.1369,2401.4458,959.2465,2402.9787,964.6917,2397.5335,966.2246,2407.34,967.1369" style="stroke:#000000;stroke-width:1.0;"/></g><!--SRC=[lLRRJXin47ttLrZmGA8c4lIbxGeX4K8aK0jIKZx0sPq45yTUsGvHYlhljVTgUxs1jg9vsioSEJDpFBDhzKHvJYJPC94-GOOpM94jqpF1zOB-1Fpn525DDGDynOXIU4h9sg3n63yipavFpn1IDGDE2yGBmkONM2-rbdIvrN2J2buGdmQmdAHFP0qBlJUv9AIQy3M30AGUIIPsbA_nYZ0LUXdbeFSvu5omlVrJ-2U6U2t5bcTNWWc9ZsVNio_NdmhVfPHYLvedpE3GBuJABevkDhcG-ZBF6Ks9fe8_t1nXel333NuvWBeomad16CW27VLK4dsWHV0LuHdDY966hyHW9LW6SfXyfKgVBuneV7tXec_5SWuhaC1JQC0_7ACBdb46wW2bXBMnWNIg7AHrEIFiqexmof8DawKG30XlbNA29rjgKrNjBUs_WEy-1sxoDsnES9Inf1et94cZLkbmIqnkGnd6HPQoSQj5rNOgmH3yGMMcjB8oIrALb1Fzc9HgbgpucR0jtAy6bc2OM6WJTpGbcYo9Wc8efXDyVZwOZl3nvydrP3ORNboOaOYrFuTSAAg5t5UQAl8C0z82Xicpe5aRUvkJVmflTEY4hYZFMlTaxmsYUmp3f8Kr0fYwte6xLdTUpN4p7C4MHkpr3iemr1oVLFgERCnO6FRo2JQ4ib7-A3ZSRJTBkqt-87Pv7XH8TyIsoaRvSXyrw0N8Pvg2Nsrbh4ibMUQpbrMPDwTIEo4pExgcTCoRsel7ORBOcyesDYIMsi-9wuqJcvpmlUq-mSwOZqqL4fJoZOx0MO0lYlHDXOwUgLh9zX0YwKSuI3t2qRGZxAKq-hZfXaaR5LEZdKrVbzQEtLrg_0vjJmgp0drPugw_JJIFZMBVHlY-mwFcI5gDN6jfjgOrrTlZI1-ClwN-HhZvx6_0t3US7UXOmtszWzsxL1XiYVtxtLmfr8oapN5LptL9EweVv-QZ-B_g2OR7Dtb3Ozyv9KMNoSnSXAnZVJFVsxvmvlOq7b_4NiWezfBsiDKaeCxxqKEzucuxGx6LizZuDgAU9RKHqqcdCN-lKD- -sPZEhAFkz5jSDNOzNl_OK72ALLy1g7lQLJVDGKNlhmYTzDZZrzqYUUJhVm0UlSGSm1UthJVHLNTKr3M5IAC2Ed7LYhHG2_jQUzs8U8TzZlfWUbArv_OR]--></g></svg>