<?xml version="1.0" encoding="UTF-8" standalone="no"?><svg xmlns="http://www.w3.org/2000/svg" xmlns:xlink="http://www.w3.org/1999/xlink" contentStyleType="text/css" height="907px" preserveAspectRatio="none" style="width:2573px;height:907px;background:#FFFFFF;" version="1.1" viewBox="0 0 2573 907" width="2573px" zoomAndPan="magnify"><defs/><g><text fill="#000000" font-family="sans-serif" font-size="14" font-weight="bold" lengthAdjust="spacing" textLength="188" x="1185.75" y="22.9951">Class Diagram - US1001</text><!--class UI--><g id="elem_UI"><rect codeLine="13" fill="#FEF9E7" height="50" id="UI" rx="2.5" ry="2.5" style="stroke:#181818;stroke-width:0.5;" width="252" x="1607.5" y="44.2969"/><ellipse cx="1623.5" cy="61.2969" fill="#ADD1B2" rx="12" ry="12" style="stroke:#181818;stroke-width:1.0;"/><path d="M1626.5625,68.375 Q1625.875,68.7344 1625.125,68.9063 Q1624.375,69.0781 1623.5469,69.0781 Q1620.5938,69.0781 1619.0313,67.1406 Q1617.4844,65.1875 1617.4844,61.5156 Q1617.4844,57.8438 1619.0313,55.9063 Q1620.5938,53.9531 1623.5469,53.9531 Q1624.375,53.9531 1625.125,54.125 Q1625.8906,54.2969 1626.5625,54.6563 L1626.5625,57.8594 Q1625.8125,57.1719 1625.1094,56.8594 Q1624.4219,56.5469 1623.6719,56.5469 Q1622.0938,56.5469 1621.2813,57.7969 Q1620.4844,59.0469 1620.4844,61.5156 Q1620.4844,63.9844 1621.2813,65.2344 Q1622.0938,66.4844 1623.6719,66.4844 Q1624.4219,66.4844 1625.1094,66.1719 Q1625.8125,65.8594 1626.5625,65.1719 L1626.5625,68.375 Z " fill="#000000"/><text fill="#000000" font-family="sans-serif" font-size="20" lengthAdjust="spacing" textLength="218" x="1638.5" y="68.2207">RegisterApplicationUI</text><line style="stroke:#181818;stroke-width:0.5;" x1="1608.5" x2="1858.5" y1="78.2969" y2="78.2969"/><line style="stroke:#181818;stroke-width:0.5;" x1="1608.5" x2="1858.5" y1="86.2969" y2="86.2969"/></g><!--class ApplicationController--><g id="elem_ApplicationController"><rect codeLine="15" fill="#FEF9E7" height="73.2813" id="ApplicationController" rx="2.5" ry="2.5" style="stroke:#181818;stroke-width:0.5;" width="330" x="1407.5" y="154.2969"/><ellipse cx="1423.5" cy="171.2969" fill="#ADD1B2" rx="12" ry="12" style="stroke:#181818;stroke-width:1.0;"/><path d="M1426.5625,178.375 Q1425.875,178.7344 1425.125,178.9063 Q1424.375,179.0781 1423.5469,179.0781 Q1420.5938,179.0781 1419.0313,177.1406 Q1417.4844,175.1875 1417.4844,171.5156 Q1417.4844,167.8438 1419.0313,165.9063 Q1420.5938,163.9531 1423.5469,163.9531 Q1424.375,163.9531 1425.125,164.125 Q1425.8906,164.2969 1426.5625,164.6563 L1426.5625,167.8594 Q1425.8125,167.1719 1425.1094,166.8594 Q1424.4219,166.5469 1423.6719,166.5469 Q1422.0938,166.5469 1421.2813,167.7969 Q1420.4844,169.0469 1420.4844,171.5156 Q1420.4844,173.9844 1421.2813,175.2344 Q1422.0938,176.4844 1423.6719,176.4844 Q1424.4219,176.4844 1425.1094,176.1719 Q1425.8125,175.8594 1426.5625,175.1719 L1426.5625,178.375 Z " fill="#000000"/><text fill="#000000" font-family="sans-serif" font-size="20" lengthAdjust="spacing" textLength="296" x="1438.5" y="178.2207">RegisterApplicationController</text><line style="stroke:#181818;stroke-width:0.5;" x1="1408.5" x2="1736.5" y1="188.2969" y2="188.2969"/><line style="stroke:#181818;stroke-width:0.5;" x1="1408.5" x2="1736.5" y1="196.2969" y2="196.2969"/><ellipse cx="1418.5" cy="213.4375" fill="#84BE84" rx="3" ry="3" style="stroke:#038048;stroke-width:1.0;"/><text fill="#000000" font-family="sans-serif" font-size="20" lengthAdjust="spacing" textLength="223" x="1428.5" y="218.8613">addApplication(): void</text></g><!--class ImportFilesController--><g id="elem_ImportFilesController"><rect codeLine="19" fill="#FEF9E7" height="73.2813" id="ImportFilesController" rx="2.5" ry="2.5" style="stroke:#181818;stroke-width:0.5;" width="246" x="1872.5" y="154.2969"/><ellipse cx="1888.5" cy="171.2969" fill="#ADD1B2" rx="12" ry="12" style="stroke:#181818;stroke-width:1.0;"/><path d="M1891.5625,178.375 Q1890.875,178.7344 1890.125,178.9063 Q1889.375,179.0781 1888.5469,179.0781 Q1885.5938,179.0781 1884.0313,177.1406 Q1882.4844,175.1875 1882.4844,171.5156 Q1882.4844,167.8438 1884.0313,165.9063 Q1885.5938,163.9531 1888.5469,163.9531 Q1889.375,163.9531 1890.125,164.125 Q1890.8906,164.2969 1891.5625,164.6563 L1891.5625,167.8594 Q1890.8125,167.1719 1890.1094,166.8594 Q1889.4219,166.5469 1888.6719,166.5469 Q1887.0938,166.5469 1886.2813,167.7969 Q1885.4844,169.0469 1885.4844,171.5156 Q1885.4844,173.9844 1886.2813,175.2344 Q1887.0938,176.4844 1888.6719,176.4844 Q1889.4219,176.4844 1890.1094,176.1719 Q1890.8125,175.8594 1891.5625,175.1719 L1891.5625,178.375 Z " fill="#000000"/><text fill="#000000" font-family="sans-serif" font-size="20" lengthAdjust="spacing" textLength="212" x="1903.5" y="178.2207">ImportFilesController</text><line style="stroke:#181818;stroke-width:0.5;" x1="1873.5" x2="2117.5" y1="188.2969" y2="188.2969"/><line style="stroke:#181818;stroke-width:0.5;" x1="1873.5" x2="2117.5" y1="196.2969" y2="196.2969"/><ellipse cx="1883.5" cy="213.4375" fill="#84BE84" rx="3" ry="3" style="stroke:#038048;stroke-width:1.0;"/><text fill="#000000" font-family="sans-serif" font-size="20" lengthAdjust="spacing" textLength="184" x="1893.5" y="218.8613">importFiles(): void</text></g><!--class ApplicationService--><g id="elem_ApplicationService"><rect codeLine="24" fill="#FEF9E7" height="73.2813" id="ApplicationService" rx="2.5" ry="2.5" style="stroke:#181818;stroke-width:0.5;" width="322" x="1211.5" y="310.7969"/><ellipse cx="1274.5" cy="327.7969" fill="#ADD1B2" rx="12" ry="12" style="stroke:#181818;stroke-width:1.0;"/><path d="M1277.5625,334.875 Q1276.875,335.2344 1276.125,335.4063 Q1275.375,335.5781 1274.5469,335.5781 Q1271.5938,335.5781 1270.0313,333.6406 Q1268.4844,331.6875 1268.4844,328.0156 Q1268.4844,324.3438 1270.0313,322.4063 Q1271.5938,320.4531 1274.5469,320.4531 Q1275.375,320.4531 1276.125,320.625 Q1276.8906,320.7969 1277.5625,321.1563 L1277.5625,324.3594 Q1276.8125,323.6719 1276.1094,323.3594 Q1275.4219,323.0469 1274.6719,323.0469 Q1273.0938,323.0469 1272.2813,324.2969 Q1271.4844,325.5469 1271.4844,328.0156 Q1271.4844,330.4844 1272.2813,331.7344 Q1273.0938,332.9844 1274.6719,332.9844 Q1275.4219,332.9844 1276.1094,332.6719 Q1276.8125,332.3594 1277.5625,331.6719 L1277.5625,334.875 Z " fill="#000000"/><text fill="#000000" font-family="sans-serif" font-size="20" lengthAdjust="spacing" textLength="187" x="1296.5" y="334.7207">ApplicationService</text><line style="stroke:#181818;stroke-width:0.5;" x1="1212.5" x2="1532.5" y1="344.7969" y2="344.7969"/><line style="stroke:#181818;stroke-width:0.5;" x1="1212.5" x2="1532.5" y1="352.7969" y2="352.7969"/><ellipse cx="1222.5" cy="369.9375" fill="#84BE84" rx="3" ry="3" style="stroke:#038048;stroke-width:1.0;"/><text fill="#000000" font-family="sans-serif" font-size="20" lengthAdjust="spacing" textLength="295" x="1232.5" y="375.3613">addApplication(): Application</text></g><!--class Application--><g id="elem_Application"><rect codeLine="28" fill="#FEF9E7" height="189.6875" id="Application" rx="2.5" ry="2.5" style="stroke:#181818;stroke-width:0.5;" width="347" x="7" y="467.2969"/><ellipse cx="119" cy="484.2969" fill="#ADD1B2" rx="12" ry="12" style="stroke:#181818;stroke-width:1.0;"/><path d="M122.0625,491.375 Q121.375,491.7344 120.625,491.9063 Q119.875,492.0781 119.0469,492.0781 Q116.0938,492.0781 114.5313,490.1406 Q112.9844,488.1875 112.9844,484.5156 Q112.9844,480.8438 114.5313,478.9063 Q116.0938,476.9531 119.0469,476.9531 Q119.875,476.9531 120.625,477.125 Q121.3906,477.2969 122.0625,477.6563 L122.0625,480.8594 Q121.3125,480.1719 120.6094,479.8594 Q119.9219,479.5469 119.1719,479.5469 Q117.5938,479.5469 116.7813,480.7969 Q115.9844,482.0469 115.9844,484.5156 Q115.9844,486.9844 116.7813,488.2344 Q117.5938,489.4844 119.1719,489.4844 Q119.9219,489.4844 120.6094,489.1719 Q121.3125,488.8594 122.0625,488.1719 L122.0625,491.375 Z " fill="#000000"/><text fill="#000000" font-family="sans-serif" font-size="20" lengthAdjust="spacing" textLength="114" x="141" y="491.2207">Application</text><line style="stroke:#181818;stroke-width:0.5;" x1="8" x2="353" y1="501.2969" y2="501.2969"/><rect fill="none" height="6" style="stroke:#C82930;stroke-width:1.0;" width="6" x="15" y="515.4375"/><text fill="#000000" font-family="sans-serif" font-size="20" lengthAdjust="spacing" textLength="225" x="28" y="523.8613">companyName: String</text><rect fill="none" height="6" style="stroke:#C82930;stroke-width:1.0;" width="6" x="15" y="538.7188"/><text fill="#000000" font-family="sans-serif" font-size="20" lengthAdjust="spacing" textLength="152" x="28" y="547.1426">address: String</text><rect fill="none" height="6" style="stroke:#C82930;stroke-width:1.0;" width="6" x="15" y="562"/><text fill="#000000" font-family="sans-serif" font-size="20" lengthAdjust="spacing" textLength="239" x="28" y="570.4238">ApplicationCode: String</text><rect fill="none" height="6" style="stroke:#C82930;stroke-width:1.0;" width="6" x="15" y="585.2813"/><text fill="#000000" font-family="sans-serif" font-size="20" lengthAdjust="spacing" textLength="130" x="28" y="593.7051">email: String</text><rect fill="none" height="6" style="stroke:#C82930;stroke-width:1.0;" width="6" x="15" y="608.5625"/><text fill="#000000" font-family="sans-serif" font-size="20" lengthAdjust="spacing" textLength="137" x="28" y="616.9863">phone: String</text><line style="stroke:#181818;stroke-width:0.5;" x1="8" x2="353" y1="625.7031" y2="625.7031"/><ellipse cx="18" cy="642.8438" fill="#84BE84" rx="3" ry="3" style="stroke:#038048;stroke-width:1.0;"/><text fill="#000000" font-family="sans-serif" font-size="20" lengthAdjust="spacing" textLength="320" x="28" y="648.2676">createApplication(): Application</text></g><!--class File--><g id="elem_File"><rect codeLine="37" fill="#FEF9E7" height="119.8438" id="File" rx="2.5" ry="2.5" style="stroke:#181818;stroke-width:0.5;" width="191" x="1900" y="287.2969"/><ellipse cx="1973" cy="304.2969" fill="#ADD1B2" rx="12" ry="12" style="stroke:#181818;stroke-width:1.0;"/><path d="M1976.0625,311.375 Q1975.375,311.7344 1974.625,311.9063 Q1973.875,312.0781 1973.0469,312.0781 Q1970.0938,312.0781 1968.5313,310.1406 Q1966.9844,308.1875 1966.9844,304.5156 Q1966.9844,300.8438 1968.5313,298.9063 Q1970.0938,296.9531 1973.0469,296.9531 Q1973.875,296.9531 1974.625,297.125 Q1975.3906,297.2969 1976.0625,297.6563 L1976.0625,300.8594 Q1975.3125,300.1719 1974.6094,299.8594 Q1973.9219,299.5469 1973.1719,299.5469 Q1971.5938,299.5469 1970.7813,300.7969 Q1969.9844,302.0469 1969.9844,304.5156 Q1969.9844,306.9844 1970.7813,308.2344 Q1971.5938,309.4844 1973.1719,309.4844 Q1973.9219,309.4844 1974.6094,309.1719 Q1975.3125,308.8594 1976.0625,308.1719 L1976.0625,311.375 Z " fill="#000000"/><text fill="#000000" font-family="sans-serif" font-size="20" lengthAdjust="spacing" textLength="36" x="1995" y="311.2207">File</text><line style="stroke:#181818;stroke-width:0.5;" x1="1901" x2="2090" y1="321.2969" y2="321.2969"/><rect fill="none" height="6" style="stroke:#C82930;stroke-width:1.0;" width="6" x="1908" y="335.4375"/><text fill="#000000" font-family="sans-serif" font-size="20" lengthAdjust="spacing" textLength="164" x="1921" y="343.8613">fileName: String</text><rect fill="none" height="6" style="stroke:#C82930;stroke-width:1.0;" width="6" x="1908" y="358.7188"/><text fill="#000000" font-family="sans-serif" font-size="20" lengthAdjust="spacing" textLength="150" x="1921" y="367.1426">filePath: String</text><line style="stroke:#181818;stroke-width:0.5;" x1="1901" x2="2090" y1="375.8594" y2="375.8594"/><ellipse cx="1911" cy="393" fill="#84BE84" rx="3" ry="3" style="stroke:#038048;stroke-width:1.0;"/><text fill="#000000" font-family="sans-serif" font-size="20" lengthAdjust="spacing" textLength="164" x="1921" y="398.4238">createFile(): File</text></g><!--class Candidate--><g id="elem_Candidate"><rect codeLine="43" fill="#FEF9E7" height="166.4063" id="Candidate" rx="2.5" ry="2.5" style="stroke:#181818;stroke-width:0.5;" width="736" x="389.5" y="479.2969"/><ellipse cx="701.5" cy="496.2969" fill="#ADD1B2" rx="12" ry="12" style="stroke:#181818;stroke-width:1.0;"/><path d="M704.5625,503.375 Q703.875,503.7344 703.125,503.9063 Q702.375,504.0781 701.5469,504.0781 Q698.5938,504.0781 697.0313,502.1406 Q695.4844,500.1875 695.4844,496.5156 Q695.4844,492.8438 697.0313,490.9063 Q698.5938,488.9531 701.5469,488.9531 Q702.375,488.9531 703.125,489.125 Q703.8906,489.2969 704.5625,489.6563 L704.5625,492.8594 Q703.8125,492.1719 703.1094,491.8594 Q702.4219,491.5469 701.6719,491.5469 Q700.0938,491.5469 699.2813,492.7969 Q698.4844,494.0469 698.4844,496.5156 Q698.4844,498.9844 699.2813,500.2344 Q700.0938,501.4844 701.6719,501.4844 Q702.4219,501.4844 703.1094,501.1719 Q703.8125,500.8594 704.5625,500.1719 L704.5625,503.375 Z " fill="#000000"/><text fill="#000000" font-family="sans-serif" font-size="20" lengthAdjust="spacing" textLength="103" x="723.5" y="503.2207">Candidate</text><line style="stroke:#181818;stroke-width:0.5;" x1="390.5" x2="1124.5" y1="513.2969" y2="513.2969"/><rect fill="none" height="6" style="stroke:#C82930;stroke-width:1.0;" width="6" x="397.5" y="527.4375"/><text fill="#000000" font-family="sans-serif" font-size="20" lengthAdjust="spacing" textLength="172" x="410.5" y="535.8613">firstName: String</text><rect fill="none" height="6" style="stroke:#C82930;stroke-width:1.0;" width="6" x="397.5" y="550.7188"/><text fill="#000000" font-family="sans-serif" font-size="20" lengthAdjust="spacing" textLength="169" x="410.5" y="559.1426">lastName: String</text><rect fill="none" height="6" style="stroke:#C82930;stroke-width:1.0;" width="6" x="397.5" y="574"/><text fill="#000000" font-family="sans-serif" font-size="20" lengthAdjust="spacing" textLength="300" x="410.5" y="582.4238">phoneNumber: PhoneNumber</text><rect fill="none" height="6" style="stroke:#C82930;stroke-width:1.0;" width="6" x="397.5" y="597.2813"/><text fill="#000000" font-family="sans-serif" font-size="20" lengthAdjust="spacing" textLength="126" x="410.5" y="605.7051">email: Email</text><line style="stroke:#181818;stroke-width:0.5;" x1="390.5" x2="1124.5" y1="614.4219" y2="614.4219"/><ellipse cx="400.5" cy="631.5625" fill="#84BE84" rx="3" ry="3" style="stroke:#038048;stroke-width:1.0;"/><text fill="#000000" font-family="sans-serif" font-size="20" lengthAdjust="spacing" textLength="709" x="410.5" y="636.9863">createCandidate(firstName,lastName,phoneNumber,email): Candidate</text></g><!--class FileRepository--><g id="elem_FileRepository"><rect codeLine="50" fill="#FEF9E7" height="73.2813" id="FileRepository" rx="2.5" ry="2.5" style="stroke:#181818;stroke-width:0.5;" width="222" x="2176.5" y="310.7969"/><ellipse cx="2213.2" cy="327.7969" fill="#ADD1B2" rx="12" ry="12" style="stroke:#181818;stroke-width:1.0;"/><path d="M2216.2625,334.875 Q2215.575,335.2344 2214.825,335.4063 Q2214.075,335.5781 2213.2469,335.5781 Q2210.2938,335.5781 2208.7313,333.6406 Q2207.1844,331.6875 2207.1844,328.0156 Q2207.1844,324.3438 2208.7313,322.4063 Q2210.2938,320.4531 2213.2469,320.4531 Q2214.075,320.4531 2214.825,320.625 Q2215.5906,320.7969 2216.2625,321.1563 L2216.2625,324.3594 Q2215.5125,323.6719 2214.8094,323.3594 Q2214.1219,323.0469 2213.3719,323.0469 Q2211.7938,323.0469 2210.9813,324.2969 Q2210.1844,325.5469 2210.1844,328.0156 Q2210.1844,330.4844 2210.9813,331.7344 Q2211.7938,332.9844 2213.3719,332.9844 Q2214.1219,332.9844 2214.8094,332.6719 Q2215.5125,332.3594 2216.2625,331.6719 L2216.2625,334.875 Z " fill="#000000"/><text fill="#000000" font-family="sans-serif" font-size="20" lengthAdjust="spacing" textLength="142" x="2232.8" y="334.7207">FileRepository</text><line style="stroke:#181818;stroke-width:0.5;" x1="2177.5" x2="2397.5" y1="344.7969" y2="344.7969"/><line style="stroke:#181818;stroke-width:0.5;" x1="2177.5" x2="2397.5" y1="352.7969" y2="352.7969"/><ellipse cx="2187.5" cy="369.9375" fill="#84BE84" rx="3" ry="3" style="stroke:#038048;stroke-width:1.0;"/><text fill="#000000" font-family="sans-serif" font-size="20" lengthAdjust="spacing" textLength="195" x="2197.5" y="375.3613">save(File: File): File</text></g><!--class CandidateRepository--><g id="elem_CandidateRepository"><rect codeLine="53" fill="#FEF9E7" height="73.2813" id="CandidateRepository" rx="2.5" ry="2.5" style="stroke:#181818;stroke-width:0.5;" width="423" x="1161" y="525.7969"/><ellipse cx="1263.5" cy="542.7969" fill="#ADD1B2" rx="12" ry="12" style="stroke:#181818;stroke-width:1.0;"/><path d="M1266.5625,549.875 Q1265.875,550.2344 1265.125,550.4063 Q1264.375,550.5781 1263.5469,550.5781 Q1260.5938,550.5781 1259.0313,548.6406 Q1257.4844,546.6875 1257.4844,543.0156 Q1257.4844,539.3438 1259.0313,537.4063 Q1260.5938,535.4531 1263.5469,535.4531 Q1264.375,535.4531 1265.125,535.625 Q1265.8906,535.7969 1266.5625,536.1563 L1266.5625,539.3594 Q1265.8125,538.6719 1265.1094,538.3594 Q1264.4219,538.0469 1263.6719,538.0469 Q1262.0938,538.0469 1261.2813,539.2969 Q1260.4844,540.5469 1260.4844,543.0156 Q1260.4844,545.4844 1261.2813,546.7344 Q1262.0938,547.9844 1263.6719,547.9844 Q1264.4219,547.9844 1265.1094,547.6719 Q1265.8125,547.3594 1266.5625,546.6719 L1266.5625,549.875 Z " fill="#000000"/><text fill="#000000" font-family="sans-serif" font-size="20" lengthAdjust="spacing" textLength="209" x="1285.5" y="549.7207">CandidateRepository</text><line style="stroke:#181818;stroke-width:0.5;" x1="1162" x2="1583" y1="559.7969" y2="559.7969"/><line style="stroke:#181818;stroke-width:0.5;" x1="1162" x2="1583" y1="567.7969" y2="567.7969"/><ellipse cx="1172" cy="584.9375" fill="#84BE84" rx="3" ry="3" style="stroke:#038048;stroke-width:1.0;"/><text fill="#000000" font-family="sans-serif" font-size="20" lengthAdjust="spacing" textLength="396" x="1182" y="590.3613">save(Candidate: Candidate): Candidate</text></g><!--class ApplicationRepository--><g id="elem_ApplicationRepository"><rect codeLine="56" fill="#FEF9E7" height="73.2813" id="ApplicationRepository" rx="2.5" ry="2.5" style="stroke:#181818;stroke-width:0.5;" width="456" x="1619.5" y="525.7969"/><ellipse cx="1733" cy="542.7969" fill="#ADD1B2" rx="12" ry="12" style="stroke:#181818;stroke-width:1.0;"/><path d="M1736.0625,549.875 Q1735.375,550.2344 1734.625,550.4063 Q1733.875,550.5781 1733.0469,550.5781 Q1730.0938,550.5781 1728.5313,548.6406 Q1726.9844,546.6875 1726.9844,543.0156 Q1726.9844,539.3438 1728.5313,537.4063 Q1730.0938,535.4531 1733.0469,535.4531 Q1733.875,535.4531 1734.625,535.625 Q1735.3906,535.7969 1736.0625,536.1563 L1736.0625,539.3594 Q1735.3125,538.6719 1734.6094,538.3594 Q1733.9219,538.0469 1733.1719,538.0469 Q1731.5938,538.0469 1730.7813,539.2969 Q1729.9844,540.5469 1729.9844,543.0156 Q1729.9844,545.4844 1730.7813,546.7344 Q1731.5938,547.9844 1733.1719,547.9844 Q1733.9219,547.9844 1734.6094,547.6719 Q1735.3125,547.3594 1736.0625,546.6719 L1736.0625,549.875 Z " fill="#000000"/><text fill="#000000" font-family="sans-serif" font-size="20" lengthAdjust="spacing" textLength="220" x="1755" y="549.7207">ApplicationRepository</text><line style="stroke:#181818;stroke-width:0.5;" x1="1620.5" x2="2074.5" y1="559.7969" y2="559.7969"/><line style="stroke:#181818;stroke-width:0.5;" x1="1620.5" x2="2074.5" y1="567.7969" y2="567.7969"/><ellipse cx="1630.5" cy="584.9375" fill="#84BE84" rx="3" ry="3" style="stroke:#038048;stroke-width:1.0;"/><text fill="#000000" font-family="sans-serif" font-size="20" lengthAdjust="spacing" textLength="429" x="1640.5" y="590.3613">save(Application: Application): Application</text></g><!--class JpaFileRepository--><g id="elem_JpaFileRepository"><rect codeLine="59" fill="#FEF9E7" height="73.2813" id="JpaFileRepository" rx="2.5" ry="2.5" style="stroke:#181818;stroke-width:0.5;" width="456" x="2110.5" y="717.2969"/><ellipse cx="2247.5" cy="734.2969" fill="#ADD1B2" rx="12" ry="12" style="stroke:#181818;stroke-width:1.0;"/><path d="M2250.5625,741.375 Q2249.875,741.7344 2249.125,741.9063 Q2248.375,742.0781 2247.5469,742.0781 Q2244.5938,742.0781 2243.0313,740.1406 Q2241.4844,738.1875 2241.4844,734.5156 Q2241.4844,730.8438 2243.0313,728.9063 Q2244.5938,726.9531 2247.5469,726.9531 Q2248.375,726.9531 2249.125,727.125 Q2249.8906,727.2969 2250.5625,727.6563 L2250.5625,730.8594 Q2249.8125,730.1719 2249.1094,729.8594 Q2248.4219,729.5469 2247.6719,729.5469 Q2246.0938,729.5469 2245.2813,730.7969 Q2244.4844,732.0469 2244.4844,734.5156 Q2244.4844,736.9844 2245.2813,738.2344 Q2246.0938,739.4844 2247.6719,739.4844 Q2248.4219,739.4844 2249.1094,739.1719 Q2249.8125,738.8594 2250.5625,738.1719 L2250.5625,741.375 Z " fill="#000000"/><text fill="#000000" font-family="sans-serif" font-size="20" lengthAdjust="spacing" textLength="173" x="2269.5" y="741.2207">JpaFileRepository</text><line style="stroke:#181818;stroke-width:0.5;" x1="2111.5" x2="2565.5" y1="751.2969" y2="751.2969"/><line style="stroke:#181818;stroke-width:0.5;" x1="2111.5" x2="2565.5" y1="759.2969" y2="759.2969"/><ellipse cx="2121.5" cy="776.4375" fill="#84BE84" rx="3" ry="3" style="stroke:#038048;stroke-width:1.0;"/><text fill="#000000" font-family="sans-serif" font-size="20" lengthAdjust="spacing" textLength="429" x="2131.5" y="781.8613">save(Application: Application): Application</text></g><!--class JpaCandidateRepository--><g id="elem_JpaCandidateRepository"><rect codeLine="62" fill="#FEF9E7" height="73.2813" id="JpaCandidateRepository" rx="2.5" ry="2.5" style="stroke:#181818;stroke-width:0.5;" width="456" x="1128.5" y="717.2969"/><ellipse cx="1232" cy="734.2969" fill="#ADD1B2" rx="12" ry="12" style="stroke:#181818;stroke-width:1.0;"/><path d="M1235.0625,741.375 Q1234.375,741.7344 1233.625,741.9063 Q1232.875,742.0781 1232.0469,742.0781 Q1229.0938,742.0781 1227.5313,740.1406 Q1225.9844,738.1875 1225.9844,734.5156 Q1225.9844,730.8438 1227.5313,728.9063 Q1229.0938,726.9531 1232.0469,726.9531 Q1232.875,726.9531 1233.625,727.125 Q1234.3906,727.2969 1235.0625,727.6563 L1235.0625,730.8594 Q1234.3125,730.1719 1233.6094,729.8594 Q1232.9219,729.5469 1232.1719,729.5469 Q1230.5938,729.5469 1229.7813,730.7969 Q1228.9844,732.0469 1228.9844,734.5156 Q1228.9844,736.9844 1229.7813,738.2344 Q1230.5938,739.4844 1232.1719,739.4844 Q1232.9219,739.4844 1233.6094,739.1719 Q1234.3125,738.8594 1235.0625,738.1719 L1235.0625,741.375 Z " fill="#000000"/><text fill="#000000" font-family="sans-serif" font-size="20" lengthAdjust="spacing" textLength="240" x="1254" y="741.2207">JpaCandidateRepository</text><line style="stroke:#181818;stroke-width:0.5;" x1="1129.5" x2="1583.5" y1="751.2969" y2="751.2969"/><line style="stroke:#181818;stroke-width:0.5;" x1="1129.5" x2="1583.5" y1="759.2969" y2="759.2969"/><ellipse cx="1139.5" cy="776.4375" fill="#84BE84" rx="3" ry="3" style="stroke:#038048;stroke-width:1.0;"/><text fill="#000000" font-family="sans-serif" font-size="20" lengthAdjust="spacing" textLength="429" x="1149.5" y="781.8613">save(Application: Application): Application</text></g><!--class JpaApplicationRepository--><g id="elem_JpaApplicationRepository"><rect codeLine="65" fill="#FEF9E7" height="73.2813" id="JpaApplicationRepository" rx="2.5" ry="2.5" style="stroke:#181818;stroke-width:0.5;" width="456" x="1619.5" y="717.2969"/><ellipse cx="1717.5" cy="734.2969" fill="#ADD1B2" rx="12" ry="12" style="stroke:#181818;stroke-width:1.0;"/><path d="M1720.5625,741.375 Q1719.875,741.7344 1719.125,741.9063 Q1718.375,742.0781 1717.5469,742.0781 Q1714.5938,742.0781 1713.0313,740.1406 Q1711.4844,738.1875 1711.4844,734.5156 Q1711.4844,730.8438 1713.0313,728.9063 Q1714.5938,726.9531 1717.5469,726.9531 Q1718.375,726.9531 1719.125,727.125 Q1719.8906,727.2969 1720.5625,727.6563 L1720.5625,730.8594 Q1719.8125,730.1719 1719.1094,729.8594 Q1718.4219,729.5469 1717.6719,729.5469 Q1716.0938,729.5469 1715.2813,730.7969 Q1714.4844,732.0469 1714.4844,734.5156 Q1714.4844,736.9844 1715.2813,738.2344 Q1716.0938,739.4844 1717.6719,739.4844 Q1718.4219,739.4844 1719.1094,739.1719 Q1719.8125,738.8594 1720.5625,738.1719 L1720.5625,741.375 Z " fill="#000000"/><text fill="#000000" font-family="sans-serif" font-size="20" lengthAdjust="spacing" textLength="251" x="1739.5" y="741.2207">JpaApplicationRepository</text><line style="stroke:#181818;stroke-width:0.5;" x1="1620.5" x2="2074.5" y1="751.2969" y2="751.2969"/><line style="stroke:#181818;stroke-width:0.5;" x1="1620.5" x2="2074.5" y1="759.2969" y2="759.2969"/><ellipse cx="1630.5" cy="776.4375" fill="#84BE84" rx="3" ry="3" style="stroke:#038048;stroke-width:1.0;"/><text fill="#000000" font-family="sans-serif" font-size="20" lengthAdjust="spacing" textLength="429" x="1640.5" y="781.8613">save(Application: Application): Application</text></g><!--class DB--><g id="elem_DB"><rect codeLine="69" fill="#FEF9E7" height="50" id="DB" rx="2.5" ry="2.5" style="stroke:#181818;stroke-width:0.5;" width="128" x="1783.5" y="850.2969"/><ellipse cx="1799.5" cy="867.2969" fill="#8BEBFF" rx="12" ry="12" style="stroke:#181818;stroke-width:1.0;"/><path d="M1799.7188,862.8125 L1799.7188,872.2031 L1800.5,872.2031 Q1802.2031,872.2031 1802.9219,871.1406 Q1803.6406,870.0625 1803.6406,867.4844 Q1803.6406,864.9375 1802.9219,863.875 Q1802.2031,862.8125 1800.5,862.8125 L1799.7188,862.8125 Z M1796.8438,860.2188 L1799.9219,860.2188 Q1803.5,860.2188 1805.0625,861.9219 Q1806.6406,863.625 1806.6406,867.4844 Q1806.6406,871.375 1805.0625,873.0938 Q1803.5,874.7969 1799.9219,874.7969 L1796.8438,874.7969 L1796.8438,860.2188 Z " fill="#000000"/><text fill="#000000" font-family="sans-serif" font-size="20" lengthAdjust="spacing" textLength="94" x="1814.5" y="874.2207">Database</text><line style="stroke:#181818;stroke-width:0.5;" x1="1784.5" x2="1910.5" y1="884.2969" y2="884.2969"/><line style="stroke:#181818;stroke-width:0.5;" x1="1784.5" x2="1910.5" y1="892.2969" y2="892.2969"/></g><!--link UI to ApplicationController--><g id="link_UI_ApplicationController"><path codeLine="72" d="M1700.92,94.4769 C1679.12,110.6569 1649.94,132.3169 1624.91,150.8969 " fill="none" id="UI-to-ApplicationController" style="stroke:#000000;stroke-width:1.0;"/><polygon fill="#000000" points="1620.61,154.0869,1630.2224,151.9416,1624.627,151.1097,1625.4589,145.5144,1620.61,154.0869" style="stroke:#000000;stroke-width:1.0;"/></g><!--link UI to ImportFilesController--><g id="link_UI_ImportFilesController"><path codeLine="73" d="M1786.2,94.3369 C1822.46,110.8769 1871.36,133.1769 1912.78,152.0669 " fill="none" id="UI-to-ImportFilesController" style="stroke:#000000;stroke-width:1.0;"/><polygon fill="#000000" points="1917.53,154.2369,1910.9919,146.8712,1912.9782,152.1679,1907.6815,154.1541,1917.53,154.2369" style="stroke:#000000;stroke-width:1.0;"/></g><!--link ImportFilesController to File--><g id="link_ImportFilesController_File"><path codeLine="76" d="M1995.5,227.6269 C1995.5,243.7669 1995.5,263.3169 1995.5,281.8569 " fill="none" id="ImportFilesController-to-File" style="stroke:#000000;stroke-width:1.0;"/><polygon fill="#000000" points="1995.5,287.0569,1999.5,278.0569,1995.5,282.0569,1991.5,278.0569,1995.5,287.0569" style="stroke:#000000;stroke-width:1.0;"/></g><!--link ImportFilesController to FileRepository--><g id="link_ImportFilesController_FileRepository"><path codeLine="77" d="M2062.86,227.4369 C2108.62,251.6569 2169.09,283.6469 2215.76,308.3369 " fill="none" id="ImportFilesController-to-FileRepository" style="stroke:#000000;stroke-width:1.0;"/><polygon fill="#000000" points="2220.23,310.7069,2214.1555,302.9544,2215.8135,308.3628,2210.4051,310.0208,2220.23,310.7069" style="stroke:#000000;stroke-width:1.0;"/></g><!--link FileRepository to JpaFileRepository--><g id="link_FileRepository_JpaFileRepository"><path codeLine="78" d="M2291.98,383.8369 C2301.44,458.8269 2323.37,632.8169 2333.37,712.1069 " fill="none" id="FileRepository-to-JpaFileRepository" style="stroke:#000000;stroke-width:1.0;"/><polygon fill="#000000" points="2334.01,717.1869,2336.8461,707.7552,2333.381,712.2266,2328.9096,708.7615,2334.01,717.1869" style="stroke:#000000;stroke-width:1.0;"/></g><!--link JpaFileRepository to DB--><g id="link_JpaFileRepository_DB"><path codeLine="79" d="M2192.51,790.3269 C2101.28,812.5369 1987.97,840.1069 1916.67,857.4669 " fill="none" id="JpaFileRepository-to-DB" style="stroke:#000000;stroke-width:1.0;"/><polygon fill="#000000" points="1911.61,858.6969,1921.3007,860.4549,1916.4682,857.5144,1919.4087,852.6819,1911.61,858.6969" style="stroke:#000000;stroke-width:1.0;"/></g><!--link ApplicationService to Candidate--><g id="link_ApplicationService_Candidate"><path codeLine="82" d="M1269.91,383.8269 C1196.06,409.4069 1093.26,445.0069 999.11,477.6169 " fill="none" id="ApplicationService-to-Candidate" style="stroke:#000000;stroke-width:1.0;"/><polygon fill="#000000" points="994.35,479.2669,1004.162,480.1181,999.0775,477.6387,1001.5569,472.5542,994.35,479.2669" style="stroke:#000000;stroke-width:1.0;"/></g><!--link ApplicationService to CandidateRepository--><g id="link_ApplicationService_CandidateRepository"><path codeLine="83" d="M1372.5,383.9469 C1372.5,421.5769 1372.5,480.8069 1372.5,520.3269 " fill="none" id="ApplicationService-to-CandidateRepository" style="stroke:#000000;stroke-width:1.0;"/><polygon fill="#000000" points="1372.5,525.5269,1376.5,516.5269,1372.5,520.5269,1368.5,516.5269,1372.5,525.5269" style="stroke:#000000;stroke-width:1.0;"/></g><!--link CandidateRepository to JpaCandidateRepository--><g id="link_CandidateRepository_JpaCandidateRepository"><path codeLine="84" d="M1369.49,598.9369 C1366.78,630.9969 1362.81,678.0869 1359.97,711.7169 " fill="none" id="CandidateRepository-to-JpaCandidateRepository" style="stroke:#000000;stroke-width:1.0;"/><polygon fill="#000000" points="1359.52,716.9869,1364.2515,708.349,1359.934,712.004,1356.279,707.6865,1359.52,716.9869" style="stroke:#000000;stroke-width:1.0;"/></g><!--link JpaCandidateRepository to DB--><g id="link_JpaCandidateRepository_DB"><path codeLine="85" d="M1502.49,790.3269 C1593.72,812.5369 1707.03,840.1069 1778.33,857.4669 " fill="none" id="JpaCandidateRepository-to-DB" style="stroke:#000000;stroke-width:1.0;"/><polygon fill="#000000" points="1783.39,858.6969,1775.5913,852.6819,1778.5318,857.5144,1773.6993,860.4549,1783.39,858.6969" style="stroke:#000000;stroke-width:1.0;"/></g><!--link ApplicationController to ApplicationService--><g id="link_ApplicationController_ApplicationService"><path codeLine="87" d="M1526.36,227.4369 C1495.45,251.3169 1454.75,282.7569 1422.97,307.3069 " fill="none" id="ApplicationController-to-ApplicationService" style="stroke:#000000;stroke-width:1.0;"/><polygon fill="#000000" points="1418.75,310.5669,1428.3176,308.23,1422.7067,307.51,1423.4267,301.8992,1418.75,310.5669" style="stroke:#000000;stroke-width:1.0;"/></g><!--link ApplicationService to Application--><g id="link_ApplicationService_Application"><path codeLine="88" d="M1211.38,350.7869 C1010.73,357.6469 659.29,382.0969 371.5,467.2969 C367.36,468.5269 363.2,469.8269 359.03,471.2169 " fill="none" id="ApplicationService-to-Application" style="stroke:#000000;stroke-width:1.0;"/><polygon fill="#000000" points="354.14,472.8669,363.9464,473.7802,358.8777,471.2686,361.3892,466.1999,354.14,472.8669" style="stroke:#000000;stroke-width:1.0;"/></g><!--link ApplicationService to ApplicationRepository--><g id="link_ApplicationService_ApplicationRepository"><path codeLine="89" d="M1451.74,383.8269 C1537.96,422.4969 1675.25,484.0569 1763.36,523.5669 " fill="none" id="ApplicationService-to-ApplicationRepository" style="stroke:#000000;stroke-width:1.0;"/><polygon fill="#000000" points="1768.04,525.6669,1761.4636,518.3353,1763.4775,523.6216,1758.1912,525.6354,1768.04,525.6669" style="stroke:#000000;stroke-width:1.0;"/></g><!--link ApplicationRepository to JpaApplicationRepository--><g id="link_ApplicationRepository_JpaApplicationRepository"><path codeLine="90" d="M1847.5,598.9369 C1847.5,630.9969 1847.5,678.0869 1847.5,711.7169 " fill="none" id="ApplicationRepository-to-JpaApplicationRepository" style="stroke:#000000;stroke-width:1.0;"/><polygon fill="#000000" points="1847.5,716.9869,1851.5,707.9869,1847.5,711.9869,1843.5,707.9869,1847.5,716.9869" style="stroke:#000000;stroke-width:1.0;"/></g><!--link JpaApplicationRepository to DB--><g id="link_JpaApplicationRepository_DB"><path codeLine="91" d="M1847.5,790.3269 C1847.5,807.6369 1847.5,828.2069 1847.5,844.6569 " fill="none" id="JpaApplicationRepository-to-DB" style="stroke:#000000;stroke-width:1.0;"/><polygon fill="#000000" points="1847.5,850.0669,1851.5,841.0669,1847.5,845.0669,1843.5,841.0669,1847.5,850.0669" style="stroke:#000000;stroke-width:1.0;"/></g><!--SRC=[hLLDR-8m4BtxLrZjOQaA4jtBRb5LYG2Hs4DL5V43XcG85euTsOQAhVQ_h_D5dE2mhRHS83DlthpdcHYzPo831IcNqHvZ6kCM3jo4KfWL-utq-vWGmmn7EkEWDPqpI2oQZkXwzJ0UFn2YQmOQ5OWFGksd4vqQezZcO70PIL4GZpkm3A8z9BWo9zjBOMH091mx8Bs3MBupaT0jSDtDSYRGd3AacUId_A781vOuKV8WufdaKj7RS14-BduKkQbIyhqC1zpYo1z2IXStRvWmRL1Diuop20oJOhsyeQ3fUaa_hk9czl2Kv1nLWVTcgcEwXpXsyeEx2JrA5ZSwbcacbGaPHzqKLxMioPqB7GSExmhLaKNObLE5-xKuZtxYBcD5DOface4ulK2A4xgoinT9cR0z56hT3hPEAEvKO0gCjqFPJeeswZvI20O_8py_hrhcrlw-r9X7Ny7iV1towfmw_suuPo1Y5jjqGwoqkMIsO4-qiFDoI3Ue9lIrUMZvN-HVhf9ppy6vsR3c7pgKmuB0IZuNMDtDKRnX9ZKpKftgDT1mn46UAbqsPZjUUohFUQUZjxipdHug1z4QviLeIy9V6Lnnz7MoVpdzEkD_j5o_Z7Cmi05TljlpW3uz3UP3UlipM0HXUFVyRDajsDvPez6p_oggazwhXf1lPRnO0asyeAAyM9BhwSOpwGmgHroCZrmEDCVD0okgldQTlV9SR3dyym2dis_qbKOVl6TPAhMDM7U4_h-5pfGgdNtIU_Xw88vW_o9M3lqblUjRkVmB]--></g></svg>