<?xml version="1.0" encoding="UTF-8" standalone="no"?><svg xmlns="http://www.w3.org/2000/svg" xmlns:xlink="http://www.w3.org/1999/xlink" contentStyleType="text/css" height="2164px" preserveAspectRatio="none" style="width:3367px;height:2164px;background:#FFFFFF;" version="1.1" viewBox="0 0 3367 2164" width="3367px" zoomAndPan="magnify"><defs/><g><text fill="#000000" font-family="sans-serif" font-size="14" font-weight="bold" lengthAdjust="spacing" textLength="225" x="1572.5" y="27.9951">Sequence Diagram - US1001</text><rect fill="#FFFFFF" height="1922.875" style="stroke:#181818;stroke-width:1.0;" width="10" x="47.5" y="135.5781"/><rect fill="#FFFFFF" height="83.8438" style="stroke:#181818;stroke-width:1.0;" width="10" x="224.5" y="211.4219"/><rect fill="#FFFFFF" height="1702.625" style="stroke:#181818;stroke-width:1.0;" width="10" x="224.5" y="355.8281"/><rect fill="#FFFFFF" height="1039" style="stroke:#181818;stroke-width:1.0;" width="10" x="505.5" y="433.6719"/><rect fill="#FFFFFF" height="450.6563" style="stroke:#181818;stroke-width:1.0;" width="10" x="778.5" y="1509.9531"/><rect fill="#FFFFFF" height="451.9375" style="stroke:#181818;stroke-width:1.0;" width="10" x="1021.5" y="470.9531"/><rect fill="#FFFFFF" height="451.9375" style="stroke:#181818;stroke-width:1.0;" width="10" x="1021.5" y="960.1719"/><rect fill="#FFFFFF" height="376.0938" style="stroke:#181818;stroke-width:1.0;" width="10" x="1021.5" y="1547.2344"/><rect fill="#FFFFFF" height="60.5625" style="stroke:#181818;stroke-width:1.0;" width="10" x="1562.5" y="508.2344"/><rect fill="#FFFFFF" height="60.5625" style="stroke:#181818;stroke-width:1.0;" width="10" x="1695" y="997.4531"/><rect fill="#FFFFFF" height="37.2813" style="stroke:#181818;stroke-width:1.0;" width="10" x="1794" y="1625.0781"/><rect fill="#FFFFFF" height="256.25" style="stroke:#181818;stroke-width:1.0;" width="10" x="1946" y="1095.2969"/><rect fill="#FFFFFF" height="186.4063" style="stroke:#181818;stroke-width:1.0;" width="10" x="2151" y="1699.6406"/><rect fill="#FFFFFF" height="158.4063" style="stroke:#181818;stroke-width:1.0;" width="10" x="2371.5" y="1132.5781"/><rect fill="#FFFFFF" height="111.8438" style="stroke:#181818;stroke-width:1.0;" width="10" x="2607.5" y="1736.9219"/><rect fill="#FFFFFF" height="256.25" style="stroke:#181818;stroke-width:1.0;" width="10" x="2822.5" y="606.0781"/><rect fill="#FFFFFF" height="158.4063" style="stroke:#181818;stroke-width:1.0;" width="10" x="3071" y="643.3594"/><rect fill="#FFFFFF" height="60.5625" style="stroke:#181818;stroke-width:1.0;" width="10" x="3286" y="680.6406"/><rect fill="#FFFFFF" height="60.5625" style="stroke:#181818;stroke-width:1.0;" width="10" x="3286" y="1169.8594"/><rect fill="#FFFFFF" height="37.2813" style="stroke:#181818;stroke-width:1.0;" width="10" x="3286" y="1774.2031"/><rect fill="none" height="1604.7813" style="stroke:#000000;stroke-width:1.5;" width="3267.5" x="93.5" y="370.8281"/><rect fill="none" height="406.375" style="stroke:#000000;stroke-width:1.5;" width="3247.5" x="103.5" y="1562.2344"/><line style="stroke:#181818;stroke-width:0.5;stroke-dasharray:5.0,5.0;" x1="52" x2="52" y1="125.5781" y2="2076.4531"/><line style="stroke:#181818;stroke-width:0.5;stroke-dasharray:5.0,5.0;" x1="229.5" x2="229.5" y1="125.5781" y2="2076.4531"/><line style="stroke:#181818;stroke-width:0.5;stroke-dasharray:5.0,5.0;" x1="510.5" x2="510.5" y1="125.5781" y2="2076.4531"/><line style="stroke:#181818;stroke-width:0.5;stroke-dasharray:5.0,5.0;" x1="783.5" x2="783.5" y1="125.5781" y2="2076.4531"/><line style="stroke:#181818;stroke-width:0.5;stroke-dasharray:5.0,5.0;" x1="1026" x2="1026" y1="125.5781" y2="2076.4531"/><line style="stroke:#181818;stroke-width:0.5;stroke-dasharray:5.0,5.0;" x1="1567" x2="1567" y1="125.5781" y2="2076.4531"/><line style="stroke:#181818;stroke-width:0.5;stroke-dasharray:5.0,5.0;" x1="1700" x2="1700" y1="125.5781" y2="2076.4531"/><line style="stroke:#181818;stroke-width:0.5;stroke-dasharray:5.0,5.0;" x1="1799" x2="1799" y1="125.5781" y2="2076.4531"/><line style="stroke:#181818;stroke-width:0.5;stroke-dasharray:5.0,5.0;" x1="1951" x2="1951" y1="125.5781" y2="2076.4531"/><line style="stroke:#181818;stroke-width:0.5;stroke-dasharray:5.0,5.0;" x1="2156" x2="2156" y1="125.5781" y2="2076.4531"/><line style="stroke:#181818;stroke-width:0.5;stroke-dasharray:5.0,5.0;" x1="2376" x2="2376" y1="125.5781" y2="2076.4531"/><line style="stroke:#181818;stroke-width:0.5;stroke-dasharray:5.0,5.0;" x1="2612" x2="2612" y1="125.5781" y2="2076.4531"/><line style="stroke:#181818;stroke-width:0.5;stroke-dasharray:5.0,5.0;" x1="2827" x2="2827" y1="125.5781" y2="2076.4531"/><line style="stroke:#181818;stroke-width:0.5;stroke-dasharray:5.0,5.0;" x1="3076" x2="3076" y1="125.5781" y2="2076.4531"/><line style="stroke:#181818;stroke-width:0.5;stroke-dasharray:5.0,5.0;" x1="3291" x2="3291" y1="125.5781" y2="2076.4531"/><text fill="#000000" font-family="sans-serif" font-size="20" lengthAdjust="spacing" text-decoration="underline" textLength="89" x="5" y="120.8613">Operator</text><ellipse cx="52.5" cy="50.7969" fill="#E2E2F0" rx="8" ry="8" style="stroke:#181818;stroke-width:0.5;"/><path d="M52.5,58.7969 L52.5,85.7969 M39.5,66.7969 L65.5,66.7969 M52.5,85.7969 L39.5,100.7969 M52.5,85.7969 L65.5,100.7969 " fill="none" style="stroke:#181818;stroke-width:0.5;"/><text fill="#000000" font-family="sans-serif" font-size="20" lengthAdjust="spacing" text-decoration="underline" textLength="89" x="5" y="2094.0176">Operator</text><ellipse cx="52.5" cy="2107.2344" fill="#E2E2F0" rx="8" ry="8" style="stroke:#181818;stroke-width:0.5;"/><path d="M52.5,2115.2344 L52.5,2142.2344 M39.5,2123.2344 L65.5,2123.2344 M52.5,2142.2344 L39.5,2157.2344 M52.5,2142.2344 L65.5,2157.2344 " fill="none" style="stroke:#181818;stroke-width:0.5;"/><rect fill="#E2E2F0" height="37.2813" rx="2.5" ry="2.5" style="stroke:#181818;stroke-width:0.5;" width="232" x="113.5" y="87.2969"/><text fill="#000000" font-family="sans-serif" font-size="20" lengthAdjust="spacing" text-decoration="underline" textLength="218" x="120.5" y="112.8613">RegisterApplicationUI</text><rect fill="#E2E2F0" height="37.2813" rx="2.5" ry="2.5" style="stroke:#181818;stroke-width:0.5;" width="232" x="113.5" y="2075.4531"/><text fill="#000000" font-family="sans-serif" font-size="20" lengthAdjust="spacing" text-decoration="underline" textLength="218" x="120.5" y="2101.0176">RegisterApplicationUI</text><rect fill="#E2E2F0" height="37.2813" rx="2.5" ry="2.5" style="stroke:#181818;stroke-width:0.5;" width="310" x="355.5" y="87.2969"/><text fill="#000000" font-family="sans-serif" font-size="20" lengthAdjust="spacing" text-decoration="underline" textLength="296" x="362.5" y="112.8613">RegisterApplicationController</text><rect fill="#E2E2F0" height="37.2813" rx="2.5" ry="2.5" style="stroke:#181818;stroke-width:0.5;" width="310" x="355.5" y="2075.4531"/><text fill="#000000" font-family="sans-serif" font-size="20" lengthAdjust="spacing" text-decoration="underline" textLength="296" x="362.5" y="2101.0176">RegisterApplicationController</text><rect fill="#E2E2F0" height="37.2813" rx="2.5" ry="2.5" style="stroke:#181818;stroke-width:0.5;" width="216" x="675.5" y="87.2969"/><text fill="#000000" font-family="sans-serif" font-size="20" lengthAdjust="spacing" text-decoration="underline" textLength="202" x="682.5" y="112.8613">ImportFileController</text><rect fill="#E2E2F0" height="37.2813" rx="2.5" ry="2.5" style="stroke:#181818;stroke-width:0.5;" width="216" x="675.5" y="2075.4531"/><text fill="#000000" font-family="sans-serif" font-size="20" lengthAdjust="spacing" text-decoration="underline" textLength="202" x="682.5" y="2101.0176">ImportFileController</text><rect fill="#E2E2F0" height="37.2813" rx="2.5" ry="2.5" style="stroke:#181818;stroke-width:0.5;" width="201" x="926" y="87.2969"/><text fill="#000000" font-family="sans-serif" font-size="20" lengthAdjust="spacing" text-decoration="underline" textLength="187" x="933" y="112.8613">ApplicationService</text><rect fill="#E2E2F0" height="37.2813" rx="2.5" ry="2.5" style="stroke:#181818;stroke-width:0.5;" width="201" x="926" y="2075.4531"/><text fill="#000000" font-family="sans-serif" font-size="20" lengthAdjust="spacing" text-decoration="underline" textLength="187" x="933" y="2101.0176">ApplicationService</text><rect fill="#E2E2F0" height="37.2813" rx="2.5" ry="2.5" style="stroke:#181818;stroke-width:0.5;" width="117" x="1509" y="87.2969"/><text fill="#000000" font-family="sans-serif" font-size="20" lengthAdjust="spacing" text-decoration="underline" textLength="103" x="1516" y="112.8613">Candidate</text><rect fill="#E2E2F0" height="37.2813" rx="2.5" ry="2.5" style="stroke:#181818;stroke-width:0.5;" width="117" x="1509" y="2075.4531"/><text fill="#000000" font-family="sans-serif" font-size="20" lengthAdjust="spacing" text-decoration="underline" textLength="103" x="1516" y="2101.0176">Candidate</text><rect fill="#E2E2F0" height="37.2813" rx="2.5" ry="2.5" style="stroke:#181818;stroke-width:0.5;" width="128" x="1636" y="87.2969"/><text fill="#000000" font-family="sans-serif" font-size="20" lengthAdjust="spacing" text-decoration="underline" textLength="114" x="1643" y="112.8613">Application</text><rect fill="#E2E2F0" height="37.2813" rx="2.5" ry="2.5" style="stroke:#181818;stroke-width:0.5;" width="128" x="1636" y="2075.4531"/><text fill="#000000" font-family="sans-serif" font-size="20" lengthAdjust="spacing" text-decoration="underline" textLength="114" x="1643" y="2101.0176">Application</text><rect fill="#E2E2F0" height="37.2813" rx="2.5" ry="2.5" style="stroke:#181818;stroke-width:0.5;" width="50" x="1774" y="87.2969"/><text fill="#000000" font-family="sans-serif" font-size="20" lengthAdjust="spacing" text-decoration="underline" textLength="36" x="1781" y="112.8613">File</text><rect fill="#E2E2F0" height="37.2813" rx="2.5" ry="2.5" style="stroke:#181818;stroke-width:0.5;" width="50" x="1774" y="2075.4531"/><text fill="#000000" font-family="sans-serif" font-size="20" lengthAdjust="spacing" text-decoration="underline" textLength="36" x="1781" y="2101.0176">File</text><rect fill="#E2E2F0" height="37.2813" rx="2.5" ry="2.5" style="stroke:#181818;stroke-width:0.5;" width="234" x="1834" y="87.2969"/><text fill="#000000" font-family="sans-serif" font-size="20" lengthAdjust="spacing" text-decoration="underline" textLength="220" x="1841" y="112.8613">ApplicationRepository</text><rect fill="#E2E2F0" height="37.2813" rx="2.5" ry="2.5" style="stroke:#181818;stroke-width:0.5;" width="234" x="1834" y="2075.4531"/><text fill="#000000" font-family="sans-serif" font-size="20" lengthAdjust="spacing" text-decoration="underline" textLength="220" x="1841" y="2101.0176">ApplicationRepository</text><rect fill="#E2E2F0" height="37.2813" rx="2.5" ry="2.5" style="stroke:#181818;stroke-width:0.5;" width="156" x="2078" y="87.2969"/><text fill="#000000" font-family="sans-serif" font-size="20" lengthAdjust="spacing" text-decoration="underline" textLength="142" x="2085" y="112.8613">FileRepository</text><rect fill="#E2E2F0" height="37.2813" rx="2.5" ry="2.5" style="stroke:#181818;stroke-width:0.5;" width="156" x="2078" y="2075.4531"/><text fill="#000000" font-family="sans-serif" font-size="20" lengthAdjust="spacing" text-decoration="underline" textLength="142" x="2085" y="2101.0176">FileRepository</text><rect fill="#E2E2F0" height="37.2813" rx="2.5" ry="2.5" style="stroke:#181818;stroke-width:0.5;" width="265" x="2244" y="87.2969"/><text fill="#000000" font-family="sans-serif" font-size="20" lengthAdjust="spacing" text-decoration="underline" textLength="251" x="2251" y="112.8613">JpaApplicationRepository</text><rect fill="#E2E2F0" height="37.2813" rx="2.5" ry="2.5" style="stroke:#181818;stroke-width:0.5;" width="265" x="2244" y="2075.4531"/><text fill="#000000" font-family="sans-serif" font-size="20" lengthAdjust="spacing" text-decoration="underline" textLength="251" x="2251" y="2101.0176">JpaApplicationRepository</text><rect fill="#E2E2F0" height="37.2813" rx="2.5" ry="2.5" style="stroke:#181818;stroke-width:0.5;" width="187" x="2519" y="87.2969"/><text fill="#000000" font-family="sans-serif" font-size="20" lengthAdjust="spacing" text-decoration="underline" textLength="173" x="2526" y="112.8613">JpaFileRepository</text><rect fill="#E2E2F0" height="37.2813" rx="2.5" ry="2.5" style="stroke:#181818;stroke-width:0.5;" width="187" x="2519" y="2075.4531"/><text fill="#000000" font-family="sans-serif" font-size="20" lengthAdjust="spacing" text-decoration="underline" textLength="173" x="2526" y="2101.0176">JpaFileRepository</text><rect fill="#E2E2F0" height="37.2813" rx="2.5" ry="2.5" style="stroke:#181818;stroke-width:0.5;" width="223" x="2716" y="87.2969"/><text fill="#000000" font-family="sans-serif" font-size="20" lengthAdjust="spacing" text-decoration="underline" textLength="209" x="2723" y="112.8613">CandidateRepository</text><rect fill="#E2E2F0" height="37.2813" rx="2.5" ry="2.5" style="stroke:#181818;stroke-width:0.5;" width="223" x="2716" y="2075.4531"/><text fill="#000000" font-family="sans-serif" font-size="20" lengthAdjust="spacing" text-decoration="underline" textLength="209" x="2723" y="2101.0176">CandidateRepository</text><rect fill="#E2E2F0" height="37.2813" rx="2.5" ry="2.5" style="stroke:#181818;stroke-width:0.5;" width="254" x="2949" y="87.2969"/><text fill="#000000" font-family="sans-serif" font-size="20" lengthAdjust="spacing" text-decoration="underline" textLength="240" x="2956" y="112.8613">JpaCandidateRepository</text><rect fill="#E2E2F0" height="37.2813" rx="2.5" ry="2.5" style="stroke:#181818;stroke-width:0.5;" width="254" x="2949" y="2075.4531"/><text fill="#000000" font-family="sans-serif" font-size="20" lengthAdjust="spacing" text-decoration="underline" textLength="240" x="2956" y="2101.0176">JpaCandidateRepository</text><text fill="#000000" font-family="sans-serif" font-size="20" lengthAdjust="spacing" text-decoration="underline" textLength="94" x="3241" y="120.8613">Database</text><path d="M3273,66.2969 C3273,56.2969 3291,56.2969 3291,56.2969 C3291,56.2969 3309,56.2969 3309,66.2969 L3309,92.2969 C3309,102.2969 3291,102.2969 3291,102.2969 C3291,102.2969 3273,102.2969 3273,92.2969 L3273,66.2969 " fill="#E2E2F0" style="stroke:#181818;stroke-width:1.5;"/><path d="M3273,66.2969 C3273,76.2969 3291,76.2969 3291,76.2969 C3291,76.2969 3309,76.2969 3309,66.2969 " fill="none" style="stroke:#181818;stroke-width:1.5;"/><text fill="#000000" font-family="sans-serif" font-size="20" lengthAdjust="spacing" text-decoration="underline" textLength="94" x="3241" y="2094.0176">Database</text><path d="M3273,2108.7344 C3273,2098.7344 3291,2098.7344 3291,2098.7344 C3291,2098.7344 3309,2098.7344 3309,2108.7344 L3309,2134.7344 C3309,2144.7344 3291,2144.7344 3291,2144.7344 C3291,2144.7344 3273,2144.7344 3273,2134.7344 L3273,2108.7344 " fill="#E2E2F0" style="stroke:#181818;stroke-width:1.5;"/><path d="M3273,2108.7344 C3273,2118.7344 3291,2118.7344 3291,2118.7344 C3291,2118.7344 3309,2118.7344 3309,2108.7344 " fill="none" style="stroke:#181818;stroke-width:1.5;"/><rect fill="#FFFFFF" height="1922.875" style="stroke:#181818;stroke-width:1.0;" width="10" x="47.5" y="135.5781"/><rect fill="#FFFFFF" height="83.8438" style="stroke:#181818;stroke-width:1.0;" width="10" x="224.5" y="211.4219"/><rect fill="#FFFFFF" height="1702.625" style="stroke:#181818;stroke-width:1.0;" width="10" x="224.5" y="355.8281"/><rect fill="#FFFFFF" height="1039" style="stroke:#181818;stroke-width:1.0;" width="10" x="505.5" y="433.6719"/><rect fill="#FFFFFF" height="450.6563" style="stroke:#181818;stroke-width:1.0;" width="10" x="778.5" y="1509.9531"/><rect fill="#FFFFFF" height="451.9375" style="stroke:#181818;stroke-width:1.0;" width="10" x="1021.5" y="470.9531"/><rect fill="#FFFFFF" height="451.9375" style="stroke:#181818;stroke-width:1.0;" width="10" x="1021.5" y="960.1719"/><rect fill="#FFFFFF" height="376.0938" style="stroke:#181818;stroke-width:1.0;" width="10" x="1021.5" y="1547.2344"/><rect fill="#FFFFFF" height="60.5625" style="stroke:#181818;stroke-width:1.0;" width="10" x="1562.5" y="508.2344"/><rect fill="#FFFFFF" height="60.5625" style="stroke:#181818;stroke-width:1.0;" width="10" x="1695" y="997.4531"/><rect fill="#FFFFFF" height="37.2813" style="stroke:#181818;stroke-width:1.0;" width="10" x="1794" y="1625.0781"/><rect fill="#FFFFFF" height="256.25" style="stroke:#181818;stroke-width:1.0;" width="10" x="1946" y="1095.2969"/><rect fill="#FFFFFF" height="186.4063" style="stroke:#181818;stroke-width:1.0;" width="10" x="2151" y="1699.6406"/><rect fill="#FFFFFF" height="158.4063" style="stroke:#181818;stroke-width:1.0;" width="10" x="2371.5" y="1132.5781"/><rect fill="#FFFFFF" height="111.8438" style="stroke:#181818;stroke-width:1.0;" width="10" x="2607.5" y="1736.9219"/><rect fill="#FFFFFF" height="256.25" style="stroke:#181818;stroke-width:1.0;" width="10" x="2822.5" y="606.0781"/><rect fill="#FFFFFF" height="158.4063" style="stroke:#181818;stroke-width:1.0;" width="10" x="3071" y="643.3594"/><rect fill="#FFFFFF" height="60.5625" style="stroke:#181818;stroke-width:1.0;" width="10" x="3286" y="680.6406"/><rect fill="#FFFFFF" height="60.5625" style="stroke:#181818;stroke-width:1.0;" width="10" x="3286" y="1169.8594"/><rect fill="#FFFFFF" height="37.2813" style="stroke:#181818;stroke-width:1.0;" width="10" x="3286" y="1774.2031"/><polygon fill="#181818" points="212.5,207.4219,222.5,211.4219,212.5,215.4219,216.5,211.4219" style="stroke:#181818;stroke-width:1.0;"/><line style="stroke:#181818;stroke-width:1.0;" x1="57.5" x2="218.5" y1="211.4219" y2="211.4219"/><text fill="#000000" font-family="sans-serif" font-size="20" lengthAdjust="spacing" textLength="46" x="64.5" y="158.1426">Asks</text><text fill="#000000" font-family="sans-serif" font-size="20" lengthAdjust="spacing" textLength="6" x="110.5" y="158.1426"> </text><text fill="#000000" font-family="sans-serif" font-size="20" lengthAdjust="spacing" textLength="20" x="116.5" y="158.1426">to</text><text fill="#000000" font-family="sans-serif" font-size="20" lengthAdjust="spacing" textLength="6" x="136.5" y="158.1426"> </text><text fill="#000000" font-family="sans-serif" font-size="20" lengthAdjust="spacing" textLength="67" x="142.5" y="158.1426">import</text><text fill="#000000" font-family="sans-serif" font-size="20" lengthAdjust="spacing" textLength="45" x="64.5" y="181.4238">data</text><text fill="#000000" font-family="sans-serif" font-size="20" lengthAdjust="spacing" textLength="6" x="109.5" y="181.4238"> </text><text fill="#000000" font-family="sans-serif" font-size="20" lengthAdjust="spacing" textLength="71" x="115.5" y="181.4238">related</text><text fill="#000000" font-family="sans-serif" font-size="20" lengthAdjust="spacing" textLength="6" x="186.5" y="181.4238"> </text><text fill="#000000" font-family="sans-serif" font-size="20" lengthAdjust="spacing" textLength="20" x="192.5" y="181.4238">to</text><text fill="#000000" font-family="sans-serif" font-size="20" lengthAdjust="spacing" textLength="124" x="64.5" y="204.7051">Applications</text><polygon fill="#181818" points="68.5,291.2656,58.5,295.2656,68.5,299.2656,64.5,295.2656" style="stroke:#181818;stroke-width:1.0;"/><line style="stroke:#181818;stroke-width:1.0;stroke-dasharray:2.0,2.0;" x1="62.5" x2="228.5" y1="295.2656" y2="295.2656"/><text fill="#000000" font-family="sans-serif" font-size="20" lengthAdjust="spacing" textLength="82" x="74.5" y="241.9863">Request</text><text fill="#000000" font-family="sans-serif" font-size="20" lengthAdjust="spacing" textLength="6" x="156.5" y="241.9863"> </text><text fill="#000000" font-family="sans-serif" font-size="20" lengthAdjust="spacing" textLength="33" x="162.5" y="241.9863">the</text><text fill="#000000" font-family="sans-serif" font-size="20" lengthAdjust="spacing" textLength="46" x="74.5" y="265.2676">path</text><text fill="#000000" font-family="sans-serif" font-size="20" lengthAdjust="spacing" textLength="6" x="120.5" y="265.2676"> </text><text fill="#000000" font-family="sans-serif" font-size="20" lengthAdjust="spacing" textLength="19" x="126.5" y="265.2676">of</text><text fill="#000000" font-family="sans-serif" font-size="20" lengthAdjust="spacing" textLength="6" x="145.5" y="265.2676"> </text><text fill="#000000" font-family="sans-serif" font-size="20" lengthAdjust="spacing" textLength="33" x="151.5" y="265.2676">the</text><text fill="#000000" font-family="sans-serif" font-size="20" lengthAdjust="spacing" textLength="68" x="74.5" y="288.5488">shared</text><text fill="#000000" font-family="sans-serif" font-size="20" lengthAdjust="spacing" textLength="6" x="142.5" y="288.5488"> </text><text fill="#000000" font-family="sans-serif" font-size="20" lengthAdjust="spacing" textLength="58" x="148.5" y="288.5488">folder</text><polygon fill="#181818" points="212.5,351.8281,222.5,355.8281,212.5,359.8281,216.5,355.8281" style="stroke:#181818;stroke-width:1.0;"/><line style="stroke:#181818;stroke-width:1.0;" x1="57.5" x2="218.5" y1="355.8281" y2="355.8281"/><text fill="#000000" font-family="sans-serif" font-size="20" lengthAdjust="spacing" textLength="84" x="64.5" y="325.8301">Provides</text><text fill="#000000" font-family="sans-serif" font-size="20" lengthAdjust="spacing" textLength="117" x="64.5" y="349.1113">information</text><path d="M93.5,370.8281 L187.5,370.8281 L187.5,386.1094 L177.5,396.1094 L93.5,396.1094 L93.5,370.8281 " fill="#EEEEEE" style="stroke:#000000;stroke-width:1.5;"/><rect fill="none" height="1604.7813" style="stroke:#000000;stroke-width:1.5;" width="3267.5" x="93.5" y="370.8281"/><text fill="#000000" font-family="sans-serif" font-size="20" font-weight="bold" lengthAdjust="spacing" textLength="49" x="108.5" y="390.3926">loop</text><text fill="#000000" font-family="sans-serif" font-size="20" font-weight="bold" lengthAdjust="spacing" textLength="404" x="202.5" y="391.3926">[for each candidateID in the folder]</text><polygon fill="#181818" points="493.5,429.6719,503.5,433.6719,493.5,437.6719,497.5,433.6719" style="stroke:#181818;stroke-width:1.0;"/><line style="stroke:#181818;stroke-width:1.0;" x1="234.5" x2="499.5" y1="433.6719" y2="433.6719"/><text fill="#000000" font-family="sans-serif" font-size="20" lengthAdjust="spacing" textLength="207" x="241.5" y="426.9551">registerApplication()</text><polygon fill="#181818" points="1009.5,466.9531,1019.5,470.9531,1009.5,474.9531,1013.5,470.9531" style="stroke:#181818;stroke-width:1.0;"/><line style="stroke:#181818;stroke-width:1.0;" x1="515.5" x2="1015.5" y1="470.9531" y2="470.9531"/><text fill="#000000" font-family="sans-serif" font-size="20" lengthAdjust="spacing" textLength="487" x="522.5" y="464.2363">addCandidate(firstName,lastName,email,phone)</text><polygon fill="#181818" points="1550.5,504.2344,1560.5,508.2344,1550.5,512.2344,1554.5,508.2344" style="stroke:#181818;stroke-width:1.0;"/><line style="stroke:#181818;stroke-width:1.0;" x1="1031.5" x2="1556.5" y1="508.2344" y2="508.2344"/><text fill="#000000" font-family="sans-serif" font-size="20" lengthAdjust="spacing" textLength="512" x="1038.5" y="501.5176">createCandidate(firstName,lastName,email,phone)</text><polygon fill="#181818" points="1042.5,564.7969,1032.5,568.7969,1042.5,572.7969,1038.5,568.7969" style="stroke:#181818;stroke-width:1.0;"/><line style="stroke:#181818;stroke-width:1.0;stroke-dasharray:2.0,2.0;" x1="1036.5" x2="1566.5" y1="568.7969" y2="568.7969"/><text fill="#000000" font-family="sans-serif" font-size="20" lengthAdjust="spacing" textLength="62" x="1048.5" y="538.7988">return</text><text fill="#000000" font-family="sans-serif" font-size="20" lengthAdjust="spacing" textLength="103" x="1048.5" y="562.0801">Candidate</text><polygon fill="#181818" points="2810.5,602.0781,2820.5,606.0781,2810.5,610.0781,2814.5,606.0781" style="stroke:#181818;stroke-width:1.0;"/><line style="stroke:#181818;stroke-width:1.0;" x1="1031.5" x2="2816.5" y1="606.0781" y2="606.0781"/><text fill="#000000" font-family="sans-serif" font-size="20" lengthAdjust="spacing" textLength="164" x="1038.5" y="599.3613">save(Candidate)</text><polygon fill="#181818" points="3059,639.3594,3069,643.3594,3059,647.3594,3063,643.3594" style="stroke:#181818;stroke-width:1.0;"/><line style="stroke:#181818;stroke-width:1.0;" x1="2832.5" x2="3065" y1="643.3594" y2="643.3594"/><text fill="#000000" font-family="sans-serif" font-size="20" lengthAdjust="spacing" textLength="164" x="2839.5" y="636.6426">save(Candidate)</text><polygon fill="#181818" points="3274,676.6406,3284,680.6406,3274,684.6406,3278,680.6406" style="stroke:#181818;stroke-width:1.0;"/><line style="stroke:#181818;stroke-width:1.0;" x1="3081" x2="3280" y1="680.6406" y2="680.6406"/><text fill="#000000" font-family="sans-serif" font-size="20" lengthAdjust="spacing" textLength="186" x="3088" y="673.9238">persist(Candidate)</text><polygon fill="#181818" points="3092,737.2031,3082,741.2031,3092,745.2031,3088,741.2031" style="stroke:#181818;stroke-width:1.0;"/><line style="stroke:#181818;stroke-width:1.0;stroke-dasharray:2.0,2.0;" x1="3086" x2="3290" y1="741.2031" y2="741.2031"/><text fill="#000000" font-family="sans-serif" font-size="20" lengthAdjust="spacing" textLength="62" x="3098" y="711.2051">return</text><text fill="#000000" font-family="sans-serif" font-size="20" lengthAdjust="spacing" textLength="103" x="3098" y="734.4863">Candidate</text><polygon fill="#181818" points="2843.5,797.7656,2833.5,801.7656,2843.5,805.7656,2839.5,801.7656" style="stroke:#181818;stroke-width:1.0;"/><line style="stroke:#181818;stroke-width:1.0;stroke-dasharray:2.0,2.0;" x1="2837.5" x2="3075" y1="801.7656" y2="801.7656"/><text fill="#000000" font-family="sans-serif" font-size="20" lengthAdjust="spacing" textLength="62" x="2849.5" y="771.7676">return</text><text fill="#000000" font-family="sans-serif" font-size="20" lengthAdjust="spacing" textLength="103" x="2849.5" y="795.0488">Candidate</text><polygon fill="#181818" points="1042.5,858.3281,1032.5,862.3281,1042.5,866.3281,1038.5,862.3281" style="stroke:#181818;stroke-width:1.0;"/><line style="stroke:#181818;stroke-width:1.0;stroke-dasharray:2.0,2.0;" x1="1036.5" x2="2826.5" y1="862.3281" y2="862.3281"/><text fill="#000000" font-family="sans-serif" font-size="20" lengthAdjust="spacing" textLength="62" x="1048.5" y="832.3301">return</text><text fill="#000000" font-family="sans-serif" font-size="20" lengthAdjust="spacing" textLength="103" x="1048.5" y="855.6113">Candidate</text><polygon fill="#181818" points="526.5,918.8906,516.5,922.8906,526.5,926.8906,522.5,922.8906" style="stroke:#181818;stroke-width:1.0;"/><line style="stroke:#181818;stroke-width:1.0;stroke-dasharray:2.0,2.0;" x1="520.5" x2="1025.5" y1="922.8906" y2="922.8906"/><text fill="#000000" font-family="sans-serif" font-size="20" lengthAdjust="spacing" textLength="62" x="532.5" y="892.8926">return</text><text fill="#000000" font-family="sans-serif" font-size="20" lengthAdjust="spacing" textLength="103" x="532.5" y="916.1738">Candidate</text><polygon fill="#181818" points="1009.5,956.1719,1019.5,960.1719,1009.5,964.1719,1013.5,960.1719" style="stroke:#181818;stroke-width:1.0;"/><line style="stroke:#181818;stroke-width:1.0;" x1="515.5" x2="1015.5" y1="960.1719" y2="960.1719"/><text fill="#000000" font-family="sans-serif" font-size="20" lengthAdjust="spacing" textLength="458" x="522.5" y="953.4551">addApplication(candidate,applicationID,date)</text><polygon fill="#181818" points="1683,993.4531,1693,997.4531,1683,1001.4531,1687,997.4531" style="stroke:#181818;stroke-width:1.0;"/><line style="stroke:#181818;stroke-width:1.0;" x1="1031.5" x2="1689" y1="997.4531" y2="997.4531"/><text fill="#000000" font-family="sans-serif" font-size="20" lengthAdjust="spacing" textLength="483" x="1038.5" y="990.7363">createApplication(candidate,applicationID,date)</text><polygon fill="#181818" points="1042.5,1054.0156,1032.5,1058.0156,1042.5,1062.0156,1038.5,1058.0156" style="stroke:#181818;stroke-width:1.0;"/><line style="stroke:#181818;stroke-width:1.0;stroke-dasharray:2.0,2.0;" x1="1036.5" x2="1699" y1="1058.0156" y2="1058.0156"/><text fill="#000000" font-family="sans-serif" font-size="20" lengthAdjust="spacing" textLength="62" x="1048.5" y="1028.0176">return</text><text fill="#000000" font-family="sans-serif" font-size="20" lengthAdjust="spacing" textLength="111" x="1048.5" y="1051.2988">(true/false)</text><polygon fill="#181818" points="1934,1091.2969,1944,1095.2969,1934,1099.2969,1938,1095.2969" style="stroke:#181818;stroke-width:1.0;"/><line style="stroke:#181818;stroke-width:1.0;" x1="1031.5" x2="1940" y1="1095.2969" y2="1095.2969"/><text fill="#000000" font-family="sans-serif" font-size="20" lengthAdjust="spacing" textLength="175" x="1038.5" y="1088.5801">save(Application)</text><polygon fill="#181818" points="2359.5,1128.5781,2369.5,1132.5781,2359.5,1136.5781,2363.5,1132.5781" style="stroke:#181818;stroke-width:1.0;"/><line style="stroke:#181818;stroke-width:1.0;" x1="1956" x2="2365.5" y1="1132.5781" y2="1132.5781"/><text fill="#000000" font-family="sans-serif" font-size="20" lengthAdjust="spacing" textLength="175" x="1963" y="1125.8613">save(Application)</text><polygon fill="#181818" points="3274,1165.8594,3284,1169.8594,3274,1173.8594,3278,1169.8594" style="stroke:#181818;stroke-width:1.0;"/><line style="stroke:#181818;stroke-width:1.0;" x1="2381.5" x2="3280" y1="1169.8594" y2="1169.8594"/><text fill="#000000" font-family="sans-serif" font-size="20" lengthAdjust="spacing" textLength="197" x="2388.5" y="1163.1426">persist(Application)</text><polygon fill="#181818" points="2392.5,1226.4219,2382.5,1230.4219,2392.5,1234.4219,2388.5,1230.4219" style="stroke:#181818;stroke-width:1.0;"/><line style="stroke:#181818;stroke-width:1.0;stroke-dasharray:2.0,2.0;" x1="2386.5" x2="3290" y1="1230.4219" y2="1230.4219"/><text fill="#000000" font-family="sans-serif" font-size="20" lengthAdjust="spacing" textLength="62" x="2398.5" y="1200.4238">return</text><text fill="#000000" font-family="sans-serif" font-size="20" lengthAdjust="spacing" textLength="111" x="2398.5" y="1223.7051">(true/false)</text><polygon fill="#181818" points="1967,1286.9844,1957,1290.9844,1967,1294.9844,1963,1290.9844" style="stroke:#181818;stroke-width:1.0;"/><line style="stroke:#181818;stroke-width:1.0;stroke-dasharray:2.0,2.0;" x1="1961" x2="2375.5" y1="1290.9844" y2="1290.9844"/><text fill="#000000" font-family="sans-serif" font-size="20" lengthAdjust="spacing" textLength="62" x="1973" y="1260.9863">return</text><text fill="#000000" font-family="sans-serif" font-size="20" lengthAdjust="spacing" textLength="111" x="1973" y="1284.2676">(true/false)</text><polygon fill="#181818" points="1042.5,1347.5469,1032.5,1351.5469,1042.5,1355.5469,1038.5,1351.5469" style="stroke:#181818;stroke-width:1.0;"/><line style="stroke:#181818;stroke-width:1.0;stroke-dasharray:2.0,2.0;" x1="1036.5" x2="1950" y1="1351.5469" y2="1351.5469"/><text fill="#000000" font-family="sans-serif" font-size="20" lengthAdjust="spacing" textLength="62" x="1048.5" y="1321.5488">return</text><text fill="#000000" font-family="sans-serif" font-size="20" lengthAdjust="spacing" textLength="111" x="1048.5" y="1344.8301">(true/false)</text><polygon fill="#181818" points="526.5,1408.1094,516.5,1412.1094,526.5,1416.1094,522.5,1412.1094" style="stroke:#181818;stroke-width:1.0;"/><line style="stroke:#181818;stroke-width:1.0;stroke-dasharray:2.0,2.0;" x1="520.5" x2="1025.5" y1="1412.1094" y2="1412.1094"/><text fill="#000000" font-family="sans-serif" font-size="20" lengthAdjust="spacing" textLength="62" x="532.5" y="1382.1113">return</text><text fill="#000000" font-family="sans-serif" font-size="20" lengthAdjust="spacing" textLength="111" x="532.5" y="1405.3926">(true/false)</text><polygon fill="#181818" points="245.5,1468.6719,235.5,1472.6719,245.5,1476.6719,241.5,1472.6719" style="stroke:#181818;stroke-width:1.0;"/><line style="stroke:#181818;stroke-width:1.0;stroke-dasharray:2.0,2.0;" x1="239.5" x2="509.5" y1="1472.6719" y2="1472.6719"/><text fill="#000000" font-family="sans-serif" font-size="20" lengthAdjust="spacing" textLength="62" x="251.5" y="1442.6738">return</text><text fill="#000000" font-family="sans-serif" font-size="20" lengthAdjust="spacing" textLength="111" x="251.5" y="1465.9551">(true/false)</text><polygon fill="#181818" points="766.5,1505.9531,776.5,1509.9531,766.5,1513.9531,770.5,1509.9531" style="stroke:#181818;stroke-width:1.0;"/><line style="stroke:#181818;stroke-width:1.0;" x1="234.5" x2="772.5" y1="1509.9531" y2="1509.9531"/><text fill="#000000" font-family="sans-serif" font-size="20" lengthAdjust="spacing" textLength="129" x="241.5" y="1503.2363">importFiles()</text><polygon fill="#181818" points="1009.5,1543.2344,1019.5,1547.2344,1009.5,1551.2344,1013.5,1547.2344" style="stroke:#181818;stroke-width:1.0;"/><line style="stroke:#181818;stroke-width:1.0;" x1="788.5" x2="1015.5" y1="1547.2344" y2="1547.2344"/><text fill="#000000" font-family="sans-serif" font-size="20" lengthAdjust="spacing" textLength="129" x="795.5" y="1540.5176">importFiles()</text><path d="M103.5,1562.2344 L197.5,1562.2344 L197.5,1577.5156 L187.5,1587.5156 L103.5,1587.5156 L103.5,1562.2344 " fill="#EEEEEE" style="stroke:#000000;stroke-width:1.5;"/><rect fill="none" height="406.375" style="stroke:#000000;stroke-width:1.5;" width="3247.5" x="103.5" y="1562.2344"/><text fill="#000000" font-family="sans-serif" font-size="20" font-weight="bold" lengthAdjust="spacing" textLength="49" x="118.5" y="1581.7988">loop</text><text fill="#000000" font-family="sans-serif" font-size="20" font-weight="bold" lengthAdjust="spacing" textLength="466" x="212.5" y="1582.7988">[for each file related to the candidateID]</text><polygon fill="#181818" points="1782,1621.0781,1792,1625.0781,1782,1629.0781,1786,1625.0781" style="stroke:#181818;stroke-width:1.0;"/><line style="stroke:#181818;stroke-width:1.0;" x1="1031.5" x2="1788" y1="1625.0781" y2="1625.0781"/><text fill="#000000" font-family="sans-serif" font-size="20" lengthAdjust="spacing" textLength="115" x="1038.5" y="1618.3613">createFile()</text><polygon fill="#181818" points="1042.5,1658.3594,1032.5,1662.3594,1042.5,1666.3594,1038.5,1662.3594" style="stroke:#181818;stroke-width:1.0;"/><line style="stroke:#181818;stroke-width:1.0;stroke-dasharray:2.0,2.0;" x1="1036.5" x2="1798" y1="1662.3594" y2="1662.3594"/><text fill="#000000" font-family="sans-serif" font-size="20" lengthAdjust="spacing" textLength="62" x="1048.5" y="1655.6426">return</text><text fill="#000000" font-family="sans-serif" font-size="20" lengthAdjust="spacing" textLength="6" x="1110.5" y="1655.6426"> </text><text fill="#000000" font-family="sans-serif" font-size="20" lengthAdjust="spacing" textLength="36" x="1116.5" y="1655.6426">File</text><polygon fill="#181818" points="2139,1695.6406,2149,1699.6406,2139,1703.6406,2143,1699.6406" style="stroke:#181818;stroke-width:1.0;"/><line style="stroke:#181818;stroke-width:1.0;" x1="1031.5" x2="2145" y1="1699.6406" y2="1699.6406"/><text fill="#000000" font-family="sans-serif" font-size="20" lengthAdjust="spacing" textLength="97" x="1038.5" y="1692.9238">save(File)</text><polygon fill="#181818" points="2595.5,1732.9219,2605.5,1736.9219,2595.5,1740.9219,2599.5,1736.9219" style="stroke:#181818;stroke-width:1.0;"/><line style="stroke:#181818;stroke-width:1.0;" x1="2161" x2="2601.5" y1="1736.9219" y2="1736.9219"/><text fill="#000000" font-family="sans-serif" font-size="20" lengthAdjust="spacing" textLength="97" x="2168" y="1730.2051">save(File)</text><polygon fill="#181818" points="3274,1770.2031,3284,1774.2031,3274,1778.2031,3278,1774.2031" style="stroke:#181818;stroke-width:1.0;"/><line style="stroke:#181818;stroke-width:1.0;" x1="2617.5" x2="3280" y1="1774.2031" y2="1774.2031"/><text fill="#000000" font-family="sans-serif" font-size="20" lengthAdjust="spacing" textLength="119" x="2624.5" y="1767.4863">persist(File)</text><polygon fill="#181818" points="2628.5,1807.4844,2618.5,1811.4844,2628.5,1815.4844,2624.5,1811.4844" style="stroke:#181818;stroke-width:1.0;"/><line style="stroke:#181818;stroke-width:1.0;stroke-dasharray:2.0,2.0;" x1="2622.5" x2="3290" y1="1811.4844" y2="1811.4844"/><text fill="#000000" font-family="sans-serif" font-size="20" lengthAdjust="spacing" textLength="62" x="2634.5" y="1804.7676">return</text><text fill="#000000" font-family="sans-serif" font-size="20" lengthAdjust="spacing" textLength="6" x="2696.5" y="1804.7676"> </text><text fill="#000000" font-family="sans-serif" font-size="20" lengthAdjust="spacing" textLength="36" x="2702.5" y="1804.7676">File</text><polygon fill="#181818" points="2172,1844.7656,2162,1848.7656,2172,1852.7656,2168,1848.7656" style="stroke:#181818;stroke-width:1.0;"/><line style="stroke:#181818;stroke-width:1.0;stroke-dasharray:2.0,2.0;" x1="2166" x2="2611.5" y1="1848.7656" y2="1848.7656"/><text fill="#000000" font-family="sans-serif" font-size="20" lengthAdjust="spacing" textLength="62" x="2178" y="1842.0488">return</text><text fill="#000000" font-family="sans-serif" font-size="20" lengthAdjust="spacing" textLength="6" x="2240" y="1842.0488"> </text><text fill="#000000" font-family="sans-serif" font-size="20" lengthAdjust="spacing" textLength="36" x="2246" y="1842.0488">File</text><polygon fill="#181818" points="1042.5,1882.0469,1032.5,1886.0469,1042.5,1890.0469,1038.5,1886.0469" style="stroke:#181818;stroke-width:1.0;"/><line style="stroke:#181818;stroke-width:1.0;stroke-dasharray:2.0,2.0;" x1="1036.5" x2="2155" y1="1886.0469" y2="1886.0469"/><text fill="#000000" font-family="sans-serif" font-size="20" lengthAdjust="spacing" textLength="62" x="1048.5" y="1879.3301">return</text><text fill="#000000" font-family="sans-serif" font-size="20" lengthAdjust="spacing" textLength="6" x="1110.5" y="1879.3301"> </text><text fill="#000000" font-family="sans-serif" font-size="20" lengthAdjust="spacing" textLength="36" x="1116.5" y="1879.3301">File</text><polygon fill="#181818" points="799.5,1919.3281,789.5,1923.3281,799.5,1927.3281,795.5,1923.3281" style="stroke:#181818;stroke-width:1.0;"/><line style="stroke:#181818;stroke-width:1.0;stroke-dasharray:2.0,2.0;" x1="793.5" x2="1025.5" y1="1923.3281" y2="1923.3281"/><text fill="#000000" font-family="sans-serif" font-size="20" lengthAdjust="spacing" textLength="62" x="805.5" y="1916.6113">return</text><text fill="#000000" font-family="sans-serif" font-size="20" lengthAdjust="spacing" textLength="6" x="867.5" y="1916.6113"> </text><text fill="#000000" font-family="sans-serif" font-size="20" lengthAdjust="spacing" textLength="36" x="873.5" y="1916.6113">File</text><polygon fill="#181818" points="245.5,1956.6094,235.5,1960.6094,245.5,1964.6094,241.5,1960.6094" style="stroke:#181818;stroke-width:1.0;"/><line style="stroke:#181818;stroke-width:1.0;stroke-dasharray:2.0,2.0;" x1="239.5" x2="782.5" y1="1960.6094" y2="1960.6094"/><text fill="#000000" font-family="sans-serif" font-size="20" lengthAdjust="spacing" textLength="62" x="251.5" y="1953.8926">return</text><text fill="#000000" font-family="sans-serif" font-size="20" lengthAdjust="spacing" textLength="6" x="313.5" y="1953.8926"> </text><text fill="#000000" font-family="sans-serif" font-size="20" lengthAdjust="spacing" textLength="36" x="319.5" y="1953.8926">File</text><polygon fill="#181818" points="63.5,2054.4531,53.5,2058.4531,63.5,2062.4531,59.5,2058.4531" style="stroke:#181818;stroke-width:1.0;"/><line style="stroke:#181818;stroke-width:1.0;stroke-dasharray:2.0,2.0;" x1="57.5" x2="228.5" y1="2058.4531" y2="2058.4531"/><text fill="#000000" font-family="sans-serif" font-size="20" lengthAdjust="spacing" textLength="76" x="69.5" y="2005.1738">Informs</text><text fill="#000000" font-family="sans-serif" font-size="20" lengthAdjust="spacing" textLength="77" x="69.5" y="2028.4551">success</text><text fill="#000000" font-family="sans-serif" font-size="20" lengthAdjust="spacing" textLength="6" x="146.5" y="2028.4551"> </text><text fill="#000000" font-family="sans-serif" font-size="20" lengthAdjust="spacing" textLength="20" x="152.5" y="2028.4551">or</text><text fill="#000000" font-family="sans-serif" font-size="20" lengthAdjust="spacing" textLength="64" x="69.5" y="2051.7363">failure</text><!--SRC=[hLV1Rfmm4Btp5QESjj96tLJgXKEa92WIFRHHLli1BWnPAu2fRLPDlxus1TOO6xD9kQpNzhmtuvbviiKhhHl2ILMox1LpoB4WRIaVMIttz0_2brqKIIfBX3t-Qh7E419ANfG1NCDXVxFRtKIH642Wf3NAjmQ1SNbana95VbSe17b1eM5llkwCHT53Fn4kQKORKajewnovXeiYaad6uKU3dAX153N6jgjdVA528hzhcf9cH59M7z8h808EQN3dWmgJix94tbauLwOWQTMeq1vfYPRjT6fYPC3kaPzeXfFb1rBdD2SIVKQJUSqpTSdO-OmD4rGTqfiTptbbXkPP-jQGiBtQj00nHkQtTcrHVybF8X2kadxKHPFSTwL0JsgtKGt32AvlLSfZk1El0YG3scKAD1XmB9LHhgUDcCGPJjKAgE-GmhM26I1ZUDQLAIJ88q93v15OqOt5aN25Lx1ILMcKemaqy-Y9inFDKG2j2yQhVpcTSPUCDGgGWm8xGZQSIveeiuwp9niTlNNNQwoYdHNwvbDdfh-HrrtjO7pE7HPnNz4na3mVaxafA1VoEwbmMv9-W1MXvROviXgNdHbwnED9lwpT6FbYo3YgtmyuSEv2atUSxUh25JP7sVBQOMuKnNmn4C-v6M8Gv8IRSMN9SwE5d36SrpMPk_bMy7cwrgHqRz6ioNqCgZs4Ab0NoOH8DJnONtBV9SBdkpSPLa8iP9-xlfIioNdWb7ny7oun1vUhs9RK8yosqAsNQeOfKgFeRSbvDassda9ybsOOiuDg_1yNVDoXj6uaR_5pGKfX4BZF-hBmParjh2s7ukbgvuvUIjxFwxrdM1tgPJSbnKcrNbGyKInbAgWi7h_zkLfP5wlERHNv1oeoJBjUSIwW3RIxAJpz7Uno3WC4Z3lNz9uFSN_FrDF2TSkotWMcnnQK9oa1_8LJcTue2uLWNeJrbTAuPQxG5kt3e9bwx0jt5cIeu2P6HZPcO7w_PgAZ9pt-UOfskjJhsYNOyyUG9GLp1bExfgZhHSjsqNMeGPMoNNCSQo1Poz4xyDzP49T9phJ7WWG1ZR4xTYekIrux903hl6lHoFoZj4PzitTeshqS1OWsor08K4rTgDTCoz5-V1f_npVoNm00]--></g></svg>