<?xml version="1.0" encoding="UTF-8" standalone="no"?><svg xmlns="http://www.w3.org/2000/svg" xmlns:xlink="http://www.w3.org/1999/xlink" contentStyleType="text/css" height="792px" preserveAspectRatio="none" style="width:441px;height:792px;background:#FFFFFF;" version="1.1" viewBox="0 0 441 792" width="441px" zoomAndPan="magnify"><defs/><g><text fill="#000000" font-family="sans-serif" font-size="14" font-weight="bold" lengthAdjust="spacing" textLength="280" x="79" y="32.9951">Top 20 Words US - Activity Diagram</text><ellipse cx="220.5" cy="57.2969" fill="#222222" rx="10" ry="10" style="stroke:#222222;stroke-width:1.0;"/><rect fill="#F1F1F1" height="43.2813" rx="12.5" ry="12.5" style="stroke:#181818;stroke-width:0.5;" width="419" x="11" y="87.2969"/><text fill="#000000" font-family="sans-serif" font-size="20" lengthAdjust="spacing" textLength="399" x="21" y="115.8613">DisplayCandidateApplicationsController</text><rect fill="#F1F1F1" height="43.2813" rx="12.5" ry="12.5" style="stroke:#181818;stroke-width:0.5;" width="216" x="112.5" y="194.5781"/><text fill="#000000" font-family="sans-serif" font-size="20" lengthAdjust="spacing" textLength="196" x="122.5" y="223.1426">GetNextApplication</text><rect fill="#555555" height="6" rx="2.5" ry="2.5" style="stroke:#555555;stroke-width:1.0;" width="216" x="112.5" y="257.8594"/><rect fill="#F1F1F1" height="43.2813" rx="12.5" ry="12.5" style="stroke:#181818;stroke-width:0.5;" width="186" x="126.5" y="283.8594"/><text fill="#000000" font-family="sans-serif" font-size="20" lengthAdjust="spacing" textLength="166" x="136.5" y="312.4238">Application.start</text><rect fill="#F1F1F1" height="43.2813" rx="12.5" ry="12.5" style="stroke:#181818;stroke-width:0.5;" width="92" x="173.5" y="391.1406"/><text fill="#000000" font-family="sans-serif" font-size="20" lengthAdjust="spacing" textLength="72" x="183.5" y="419.7051">GetFile</text><rect fill="#555555" height="6" rx="2.5" ry="2.5" style="stroke:#555555;stroke-width:1.0;" width="136" x="151.5" y="468.7813"/><rect fill="#F1F1F1" height="43.2813" rx="12.5" ry="12.5" style="stroke:#181818;stroke-width:0.5;" width="108" x="165.5" y="494.7813"/><text fill="#000000" font-family="sans-serif" font-size="20" lengthAdjust="spacing" textLength="88" x="175.5" y="523.3457">File.start</text><rect fill="#555555" height="6" rx="2.5" ry="2.5" style="stroke:#555555;stroke-width:1.0;" width="136" x="151.5" y="558.0625"/><polygon fill="#F1F1F1" points="219.5,347.1406,231.5,359.1406,219.5,371.1406,207.5,359.1406,219.5,347.1406" style="stroke:#181818;stroke-width:0.5;"/><polygon fill="#F1F1F1" points="160.5,584.0625,278.5,584.0625,290.5,596.0625,278.5,608.0625,160.5,608.0625,148.5,596.0625,160.5,584.0625" style="stroke:#181818;stroke-width:0.5;"/><text fill="#000000" font-family="sans-serif" font-size="20" lengthAdjust="spacing" textLength="118" x="160.5" y="602.9863">for each file</text><rect fill="#555555" height="6" rx="2.5" ry="2.5" style="stroke:#555555;stroke-width:1.0;" width="216" x="112.5" y="628.0625"/><rect fill="#F1F1F1" height="43.2813" rx="12.5" ry="12.5" style="stroke:#181818;stroke-width:0.5;" width="183" x="129" y="654.0625"/><text fill="#000000" font-family="sans-serif" font-size="20" lengthAdjust="spacing" textLength="157" x="145" y="682.627">Application.join</text><polygon fill="#F1F1F1" points="220.5,150.5781,232.5,162.5781,220.5,174.5781,208.5,162.5781,220.5,150.5781" style="stroke:#181818;stroke-width:0.5;"/><polygon fill="#F1F1F1" points="121,717.3438,320,717.3438,332,729.3438,320,741.3438,121,741.3438,109,729.3438,121,717.3438" style="stroke:#181818;stroke-width:0.5;"/><text fill="#000000" font-family="sans-serif" font-size="20" lengthAdjust="spacing" textLength="199" x="121" y="736.2676">for each application</text><ellipse cx="220.5" cy="771.3438" fill="none" rx="10" ry="10" style="stroke:#222222;stroke-width:1.5;"/><line style="stroke:#222222;stroke-width:2.5;" x1="214.3128" x2="226.6872" y1="765.1566" y2="777.5309"/><line style="stroke:#222222;stroke-width:2.5;" x1="226.6872" x2="214.3128" y1="765.1566" y2="777.5309"/><line style="stroke:#181818;stroke-width:1.0;" x1="220.5" x2="220.5" y1="67.2969" y2="87.2969"/><polygon fill="#181818" points="216.5,77.2969,220.5,87.2969,224.5,77.2969,220.5,81.2969" style="stroke:#181818;stroke-width:1.0;"/><line style="stroke:#181818;stroke-width:1.0;" x1="219.5" x2="219.5" y1="474.7813" y2="494.7813"/><polygon fill="#181818" points="215.5,484.7813,219.5,494.7813,223.5,484.7813,219.5,488.7813" style="stroke:#181818;stroke-width:1.0;"/><line style="stroke:#181818;stroke-width:1.0;" x1="219.5" x2="219.5" y1="538.0625" y2="558.0625"/><polygon fill="#181818" points="215.5,548.0625,219.5,558.0625,223.5,548.0625,219.5,552.0625" style="stroke:#181818;stroke-width:1.0;"/><line style="stroke:#181818;stroke-width:1.0;" x1="219.5" x2="219.5" y1="434.4219" y2="468.7813"/><polygon fill="#181818" points="215.5,458.7813,219.5,468.7813,223.5,458.7813,219.5,462.7813" style="stroke:#181818;stroke-width:1.0;"/><line style="stroke:#181818;stroke-width:1.0;" x1="219.5" x2="219.5" y1="371.1406" y2="391.1406"/><polygon fill="#181818" points="215.5,381.1406,219.5,391.1406,223.5,381.1406,219.5,385.1406" style="stroke:#181818;stroke-width:1.0;"/><line style="stroke:#181818;stroke-width:1.0;" x1="290.5" x2="302.5" y1="596.0625" y2="596.0625"/><polygon fill="#181818" points="298.5,487.2813,302.5,477.2813,306.5,487.2813,302.5,483.2813" style="stroke:#181818;stroke-width:1.0;"/><line style="stroke:#181818;stroke-width:1.0;" x1="302.5" x2="302.5" y1="359.1406" y2="596.0625"/><line style="stroke:#181818;stroke-width:1.0;" x1="302.5" x2="231.5" y1="359.1406" y2="359.1406"/><polygon fill="#181818" points="241.5,355.1406,231.5,359.1406,241.5,363.1406,237.5,359.1406" style="stroke:#181818;stroke-width:1.0;"/><line style="stroke:#181818;stroke-width:1.0;" x1="219.5" x2="219.5" y1="564.0625" y2="584.0625"/><polygon fill="#181818" points="215.5,574.0625,219.5,584.0625,223.5,574.0625,219.5,578.0625" style="stroke:#181818;stroke-width:1.0;"/><line style="stroke:#181818;stroke-width:1.0;" x1="219.5" x2="219.5" y1="327.1406" y2="347.1406"/><polygon fill="#181818" points="215.5,337.1406,219.5,347.1406,223.5,337.1406,219.5,341.1406" style="stroke:#181818;stroke-width:1.0;"/><line style="stroke:#181818;stroke-width:1.0;" x1="219.5" x2="219.5" y1="263.8594" y2="283.8594"/><polygon fill="#181818" points="215.5,273.8594,219.5,283.8594,223.5,273.8594,219.5,277.8594" style="stroke:#181818;stroke-width:1.0;"/><line style="stroke:#181818;stroke-width:1.0;" x1="219.5" x2="219.5" y1="608.0625" y2="628.0625"/><polygon fill="#181818" points="215.5,618.0625,219.5,628.0625,223.5,618.0625,219.5,622.0625" style="stroke:#181818;stroke-width:1.0;"/><line style="stroke:#181818;stroke-width:1.0;" x1="220.5" x2="220.5" y1="237.8594" y2="257.8594"/><polygon fill="#181818" points="216.5,247.8594,220.5,257.8594,224.5,247.8594,220.5,251.8594" style="stroke:#181818;stroke-width:1.0;"/><line style="stroke:#181818;stroke-width:1.0;" x1="220.5" x2="220.5" y1="634.0625" y2="654.0625"/><polygon fill="#181818" points="216.5,644.0625,220.5,654.0625,224.5,644.0625,220.5,648.0625" style="stroke:#181818;stroke-width:1.0;"/><line style="stroke:#181818;stroke-width:1.0;" x1="220.5" x2="220.5" y1="174.5781" y2="194.5781"/><polygon fill="#181818" points="216.5,184.5781,220.5,194.5781,224.5,184.5781,220.5,188.5781" style="stroke:#181818;stroke-width:1.0;"/><line style="stroke:#181818;stroke-width:1.0;" x1="332" x2="344" y1="729.3438" y2="729.3438"/><polygon fill="#181818" points="340,448.7813,344,438.7813,348,448.7813,344,444.7813" style="stroke:#181818;stroke-width:1.0;"/><line style="stroke:#181818;stroke-width:1.0;" x1="344" x2="344" y1="162.5781" y2="729.3438"/><line style="stroke:#181818;stroke-width:1.0;" x1="344" x2="232.5" y1="162.5781" y2="162.5781"/><polygon fill="#181818" points="242.5,158.5781,232.5,162.5781,242.5,166.5781,238.5,162.5781" style="stroke:#181818;stroke-width:1.0;"/><line style="stroke:#181818;stroke-width:1.0;" x1="220.5" x2="220.5" y1="697.3438" y2="717.3438"/><polygon fill="#181818" points="216.5,707.3438,220.5,717.3438,224.5,707.3438,220.5,711.3438" style="stroke:#181818;stroke-width:1.0;"/><line style="stroke:#181818;stroke-width:1.0;" x1="220.5" x2="220.5" y1="130.5781" y2="150.5781"/><polygon fill="#181818" points="216.5,140.5781,220.5,150.5781,224.5,140.5781,220.5,144.5781" style="stroke:#181818;stroke-width:1.0;"/><line style="stroke:#181818;stroke-width:1.0;" x1="220.5" x2="220.5" y1="741.3438" y2="761.3438"/><polygon fill="#181818" points="216.5,751.3438,220.5,761.3438,224.5,751.3438,220.5,755.3438" style="stroke:#181818;stroke-width:1.0;"/><!--SRC=[TOwnRW8n38PtFuN7ChIgEd8J0i76GX6pTV61kP14YMcXJrzp76ear4on_y-VNNe9YJATV6nxTkYuexFNPGowaH_6ZtS05VMCdp5PXRkONS7j1bznrgfyYLvn8RGt1K1HoWg8quMKvEawf-34aV8i9IyjgSHGvkREqNlEZQ6P4zDjngPMh6k-Q0KtGz35t0yVOwhmRLZNZ4abkgkMulaHLWOBRybZUEnoS3Lqb-7tmSWNwoDJUy3EgWayuLEiZpf66Sw6_opq1qzWVEQ3Nm00]--></g></svg>