<?xml version="1.0" encoding="UTF-8" standalone="no"?><svg xmlns="http://www.w3.org/2000/svg" xmlns:xlink="http://www.w3.org/1999/xlink" contentStyleType="text/css" height="940px" preserveAspectRatio="none" style="width:489px;height:940px;background:#FFFFFF;" version="1.1" viewBox="0 0 489 940" width="489px" zoomAndPan="magnify"><defs/><g><text fill="#000000" font-family="sans-serif" font-size="14" font-weight="bold" lengthAdjust="spacing" textLength="446" x="20" y="32.9951">Top 20 Words US - Activity Diagram - Application Domain</text><ellipse cx="243.5" cy="57.2969" fill="#222222" rx="10" ry="10" style="stroke:#222222;stroke-width:1.0;"/><rect fill="#F1F1F1" height="43.2813" rx="12.5" ry="12.5" style="stroke:#181818;stroke-width:0.5;" width="190" x="148.5" y="151.3613"/><text fill="#000000" font-family="sans-serif" font-size="20" lengthAdjust="spacing" textLength="170" x="158.5" y="179.9258">new Thread(File)</text><rect fill="#F1F1F1" height="43.2813" rx="12.5" ry="12.5" style="stroke:#181818;stroke-width:0.5;" width="124" x="181.5" y="218.502"/><text fill="#000000" font-family="sans-serif" font-size="20" lengthAdjust="spacing" textLength="104" x="191.5" y="247.0664">File.start()</text><polygon fill="#F1F1F1" points="182.5,87.2969,304.5,87.2969,316.5,99.2969,304.5,111.2969,182.5,111.2969,170.5,99.2969,182.5,87.2969" style="stroke:#181818;stroke-width:0.5;"/><text fill="#000000" font-family="sans-serif" font-size="20" lengthAdjust="spacing" textLength="36" x="247.5" y="129.8613">File</text><text fill="#000000" font-family="sans-serif" font-size="20" lengthAdjust="spacing" textLength="122" x="182.5" y="106.2207">Foreach File</text><rect fill="#F1F1F1" height="43.2813" rx="12.5" ry="12.5" style="stroke:#181818;stroke-width:0.5;" width="149" x="169" y="367.8477"/><text fill="#000000" font-family="sans-serif" font-size="20" lengthAdjust="spacing" textLength="129" x="179" y="396.4121">Thread.join()</text><polygon fill="#F1F1F1" points="165.5,303.7832,321.5,303.7832,333.5,315.7832,321.5,327.7832,165.5,327.7832,153.5,315.7832,165.5,303.7832" style="stroke:#181818;stroke-width:0.5;"/><text fill="#000000" font-family="sans-serif" font-size="20" lengthAdjust="spacing" textLength="70" x="247.5" y="346.3477">Thread</text><text fill="#000000" font-family="sans-serif" font-size="20" lengthAdjust="spacing" textLength="156" x="165.5" y="322.707">Foreach Thread</text><rect fill="#F1F1F1" height="43.2813" rx="12.5" ry="12.5" style="stroke:#181818;stroke-width:0.5;" width="174" x="156.5" y="517.1934"/><text fill="#000000" font-family="sans-serif" font-size="20" lengthAdjust="spacing" textLength="154" x="166.5" y="545.7578">File.getWords()</text><rect fill="#F1F1F1" height="43.2813" rx="12.5" ry="12.5" style="stroke:#181818;stroke-width:0.5;" width="342" x="72.5" y="584.334"/><text fill="#000000" font-family="sans-serif" font-size="20" lengthAdjust="spacing" textLength="322" x="82.5" y="612.8984">synchronized addWordsToMap()</text><polygon fill="#F1F1F1" points="182.5,453.1289,304.5,453.1289,316.5,465.1289,304.5,477.1289,182.5,477.1289,170.5,465.1289,182.5,453.1289" style="stroke:#181818;stroke-width:0.5;"/><text fill="#000000" font-family="sans-serif" font-size="20" lengthAdjust="spacing" textLength="36" x="247.5" y="495.6934">File</text><text fill="#000000" font-family="sans-serif" font-size="20" lengthAdjust="spacing" textLength="122" x="182.5" y="472.0527">Foreach File</text><rect fill="#F1F1F1" height="43.2813" rx="12.5" ry="12.5" style="stroke:#181818;stroke-width:0.5;" width="89" x="199" y="733.6797"/><text fill="#000000" font-family="sans-serif" font-size="20" lengthAdjust="spacing" textLength="69" x="209" y="762.2441">order()</text><rect fill="#F1F1F1" height="43.2813" rx="12.5" ry="12.5" style="stroke:#181818;stroke-width:0.5;" width="132" x="177.5" y="800.8203"/><text fill="#000000" font-family="sans-serif" font-size="20" lengthAdjust="spacing" textLength="112" x="187.5" y="829.3848">getTop20()</text><polygon fill="#F1F1F1" points="138,669.6152,349,669.6152,361,681.6152,349,693.6152,138,693.6152,126,681.6152,138,669.6152" style="stroke:#181818;stroke-width:0.5;"/><text fill="#000000" font-family="sans-serif" font-size="20" lengthAdjust="spacing" textLength="52" x="247.5" y="712.1797">entry</text><text fill="#000000" font-family="sans-serif" font-size="20" lengthAdjust="spacing" textLength="211" x="138" y="688.5391">Foreach entry in Map</text><rect fill="#F1F1F1" height="43.2813" rx="12.5" ry="12.5" style="stroke:#181818;stroke-width:0.5;" width="232" x="127.5" y="886.1016"/><text fill="#000000" font-family="sans-serif" font-size="20" lengthAdjust="spacing" textLength="212" x="137.5" y="914.666">Return Top 20 Words</text><line style="stroke:#181818;stroke-width:1.0;" x1="243.5" x2="243.5" y1="194.6426" y2="218.502"/><polygon fill="#181818" points="239.5,208.502,243.5,218.502,247.5,208.502,243.5,212.502" style="stroke:#181818;stroke-width:1.0;"/><line style="stroke:#181818;stroke-width:1.0;" x1="243.5" x2="243.5" y1="111.2969" y2="151.3613"/><polygon fill="#181818" points="239.5,141.3613,243.5,151.3613,247.5,141.3613,243.5,145.3613" style="stroke:#181818;stroke-width:1.0;"/><line style="stroke:#181818;stroke-width:1.0;" x1="243.5" x2="243.5" y1="261.7832" y2="271.7832"/><line style="stroke:#181818;stroke-width:1.0;" x1="243.5" x2="350.5" y1="271.7832" y2="271.7832"/><polygon fill="#181818" points="346.5,198.502,350.5,188.502,354.5,198.502,350.5,194.502" style="stroke:#181818;stroke-width:1.0;"/><line style="stroke:#181818;stroke-width:1.0;" x1="350.5" x2="350.5" y1="99.2969" y2="271.7832"/><line style="stroke:#181818;stroke-width:1.0;" x1="350.5" x2="316.5" y1="99.2969" y2="99.2969"/><polygon fill="#181818" points="326.5,95.2969,316.5,99.2969,326.5,103.2969,322.5,99.2969" style="stroke:#181818;stroke-width:1.0;"/><line style="stroke:#181818;stroke-width:1.0;" x1="170.5" x2="136.5" y1="99.2969" y2="99.2969"/><polygon fill="#181818" points="132.5,184.502,136.5,194.502,140.5,184.502,136.5,188.502" style="stroke:#181818;stroke-width:1.0;"/><line style="stroke:#181818;stroke-width:1.0;" x1="136.5" x2="136.5" y1="99.2969" y2="283.7832"/><line style="stroke:#181818;stroke-width:1.0;" x1="136.5" x2="243.5" y1="283.7832" y2="283.7832"/><line style="stroke:#181818;stroke-width:1.0;" x1="243.5" x2="243.5" y1="283.7832" y2="303.7832"/><polygon fill="#181818" points="239.5,293.7832,243.5,303.7832,247.5,293.7832,243.5,297.7832" style="stroke:#181818;stroke-width:1.0;"/><line style="stroke:#181818;stroke-width:1.0;" x1="243.5" x2="243.5" y1="67.2969" y2="87.2969"/><polygon fill="#181818" points="239.5,77.2969,243.5,87.2969,247.5,77.2969,243.5,81.2969" style="stroke:#181818;stroke-width:1.0;"/><line style="stroke:#181818;stroke-width:1.0;" x1="243.5" x2="243.5" y1="327.7832" y2="367.8477"/><polygon fill="#181818" points="239.5,357.8477,243.5,367.8477,247.5,357.8477,243.5,361.8477" style="stroke:#181818;stroke-width:1.0;"/><line style="stroke:#181818;stroke-width:1.0;" x1="243.5" x2="243.5" y1="411.1289" y2="421.1289"/><line style="stroke:#181818;stroke-width:1.0;" x1="243.5" x2="345.5" y1="421.1289" y2="421.1289"/><polygon fill="#181818" points="341.5,375.8477,345.5,365.8477,349.5,375.8477,345.5,371.8477" style="stroke:#181818;stroke-width:1.0;"/><line style="stroke:#181818;stroke-width:1.0;" x1="345.5" x2="345.5" y1="315.7832" y2="421.1289"/><line style="stroke:#181818;stroke-width:1.0;" x1="345.5" x2="333.5" y1="315.7832" y2="315.7832"/><polygon fill="#181818" points="343.5,311.7832,333.5,315.7832,343.5,319.7832,339.5,315.7832" style="stroke:#181818;stroke-width:1.0;"/><line style="stroke:#181818;stroke-width:1.0;" x1="153.5" x2="141.5" y1="315.7832" y2="315.7832"/><polygon fill="#181818" points="137.5,361.8477,141.5,371.8477,145.5,361.8477,141.5,365.8477" style="stroke:#181818;stroke-width:1.0;"/><line style="stroke:#181818;stroke-width:1.0;" x1="141.5" x2="141.5" y1="315.7832" y2="433.1289"/><line style="stroke:#181818;stroke-width:1.0;" x1="141.5" x2="243.5" y1="433.1289" y2="433.1289"/><line style="stroke:#181818;stroke-width:1.0;" x1="243.5" x2="243.5" y1="433.1289" y2="453.1289"/><polygon fill="#181818" points="239.5,443.1289,243.5,453.1289,247.5,443.1289,243.5,447.1289" style="stroke:#181818;stroke-width:1.0;"/><line style="stroke:#181818;stroke-width:1.0;" x1="243.5" x2="243.5" y1="560.4746" y2="584.334"/><polygon fill="#181818" points="239.5,574.334,243.5,584.334,247.5,574.334,243.5,578.334" style="stroke:#181818;stroke-width:1.0;"/><line style="stroke:#181818;stroke-width:1.0;" x1="243.5" x2="243.5" y1="477.1289" y2="517.1934"/><polygon fill="#181818" points="239.5,507.1934,243.5,517.1934,247.5,507.1934,243.5,511.1934" style="stroke:#181818;stroke-width:1.0;"/><line style="stroke:#181818;stroke-width:1.0;" x1="243.5" x2="243.5" y1="627.6152" y2="637.6152"/><line style="stroke:#181818;stroke-width:1.0;" x1="243.5" x2="426.5" y1="637.6152" y2="637.6152"/><polygon fill="#181818" points="422.5,564.334,426.5,554.334,430.5,564.334,426.5,560.334" style="stroke:#181818;stroke-width:1.0;"/><line style="stroke:#181818;stroke-width:1.0;" x1="426.5" x2="426.5" y1="465.1289" y2="637.6152"/><line style="stroke:#181818;stroke-width:1.0;" x1="426.5" x2="316.5" y1="465.1289" y2="465.1289"/><polygon fill="#181818" points="326.5,461.1289,316.5,465.1289,326.5,469.1289,322.5,465.1289" style="stroke:#181818;stroke-width:1.0;"/><line style="stroke:#181818;stroke-width:1.0;" x1="170.5" x2="60.5" y1="465.1289" y2="465.1289"/><polygon fill="#181818" points="56.5,550.334,60.5,560.334,64.5,550.334,60.5,554.334" style="stroke:#181818;stroke-width:1.0;"/><line style="stroke:#181818;stroke-width:1.0;" x1="60.5" x2="60.5" y1="465.1289" y2="649.6152"/><line style="stroke:#181818;stroke-width:1.0;" x1="60.5" x2="243.5" y1="649.6152" y2="649.6152"/><line style="stroke:#181818;stroke-width:1.0;" x1="243.5" x2="243.5" y1="649.6152" y2="669.6152"/><polygon fill="#181818" points="239.5,659.6152,243.5,669.6152,247.5,659.6152,243.5,663.6152" style="stroke:#181818;stroke-width:1.0;"/><line style="stroke:#181818;stroke-width:1.0;" x1="243.5" x2="243.5" y1="776.9609" y2="800.8203"/><polygon fill="#181818" points="239.5,790.8203,243.5,800.8203,247.5,790.8203,243.5,794.8203" style="stroke:#181818;stroke-width:1.0;"/><line style="stroke:#181818;stroke-width:1.0;" x1="243.5" x2="243.5" y1="693.6152" y2="733.6797"/><polygon fill="#181818" points="239.5,723.6797,243.5,733.6797,247.5,723.6797,243.5,727.6797" style="stroke:#181818;stroke-width:1.0;"/><line style="stroke:#181818;stroke-width:1.0;" x1="243.5" x2="243.5" y1="844.1016" y2="854.1016"/><line style="stroke:#181818;stroke-width:1.0;" x1="243.5" x2="373" y1="854.1016" y2="854.1016"/><polygon fill="#181818" points="369,780.8203,373,770.8203,377,780.8203,373,776.8203" style="stroke:#181818;stroke-width:1.0;"/><line style="stroke:#181818;stroke-width:1.0;" x1="373" x2="373" y1="681.6152" y2="854.1016"/><line style="stroke:#181818;stroke-width:1.0;" x1="373" x2="361" y1="681.6152" y2="681.6152"/><polygon fill="#181818" points="371,677.6152,361,681.6152,371,685.6152,367,681.6152" style="stroke:#181818;stroke-width:1.0;"/><line style="stroke:#181818;stroke-width:1.0;" x1="126" x2="114" y1="681.6152" y2="681.6152"/><polygon fill="#181818" points="110,766.8203,114,776.8203,118,766.8203,114,770.8203" style="stroke:#181818;stroke-width:1.0;"/><line style="stroke:#181818;stroke-width:1.0;" x1="114" x2="114" y1="681.6152" y2="866.1016"/><line style="stroke:#181818;stroke-width:1.0;" x1="114" x2="243.5" y1="866.1016" y2="866.1016"/><line style="stroke:#181818;stroke-width:1.0;" x1="243.5" x2="243.5" y1="866.1016" y2="886.1016"/><polygon fill="#181818" points="239.5,876.1016,243.5,886.1016,247.5,876.1016,243.5,880.1016" style="stroke:#181818;stroke-width:1.0;"/><!--SRC=[XP4nRm8n38Nt_0gFnr246CjK2TtMfLpLEKfSpYKuKMAAZbzVNm98RGUsbsVdUuvJ3iJ9PdiCqHtGWyTFUmhIHvOTNH3MAsE4920CCUa9FcBs1Tvty0GlJkYRP88jsRqYPYkbGCuAHOPjF5fYOuhOB0RWF5B0heyPhHkXryC2g41NbT66PyOp3AFMVJCtipchPMLqrK3sbMJ-8TlL1htg6T3ayYiIFoBy7GhWDi0UfRwy4TGj4xinHzObUR3Ur-eGNsrw588iUG9YqDuMLfrhcc8mtrCqLlU-NjsCExLMtr1EcN_zpCRy0000]--></g></svg>