<?xml version="1.0" encoding="UTF-8" standalone="no"?><svg xmlns="http://www.w3.org/2000/svg" xmlns:xlink="http://www.w3.org/1999/xlink" contentStyleType="text/css" height="570px" preserveAspectRatio="none" style="width:580px;height:570px;background:#FFFFFF;" version="1.1" viewBox="0 0 580 570" width="580px" zoomAndPan="magnify"><defs/><g><text fill="#000000" font-family="sans-serif" font-size="14" font-weight="bold" lengthAdjust="spacing" textLength="537" x="20" y="32.9951">Top 20 Words US - Activity Diagram - Display Candidate Applications</text><ellipse cx="290" cy="57.2969" fill="#222222" rx="10" ry="10" style="stroke:#222222;stroke-width:1.0;"/><rect fill="#F1F1F1" height="43.2813" rx="12.5" ry="12.5" style="stroke:#181818;stroke-width:0.5;" width="419" x="80.5" y="87.2969"/><text fill="#000000" font-family="sans-serif" font-size="20" lengthAdjust="spacing" textLength="399" x="90.5" y="115.8613">DisplayCandidateApplicationsController</text><rect fill="#F1F1F1" height="43.2813" rx="12.5" ry="12.5" style="stroke:#181818;stroke-width:0.5;" width="268" x="156" y="214.6426"/><text fill="#000000" font-family="sans-serif" font-size="20" lengthAdjust="spacing" textLength="248" x="166" y="243.207">new Thread(Application)</text><rect fill="#F1F1F1" height="43.2813" rx="12.5" ry="12.5" style="stroke:#181818;stroke-width:0.5;" width="202" x="189" y="281.7832"/><text fill="#000000" font-family="sans-serif" font-size="20" lengthAdjust="spacing" textLength="182" x="199" y="310.3477">Application.start()</text><polygon fill="#F1F1F1" points="187.5,150.5781,392.5,150.5781,404.5,162.5781,392.5,174.5781,187.5,174.5781,175.5,162.5781,187.5,150.5781" style="stroke:#181818;stroke-width:0.5;"/><text fill="#000000" font-family="sans-serif" font-size="20" lengthAdjust="spacing" textLength="34" x="294" y="193.1426">Yes</text><text fill="#000000" font-family="sans-serif" font-size="20" lengthAdjust="spacing" textLength="205" x="187.5" y="169.502">Is there Applications</text><rect fill="#F1F1F1" height="43.2813" rx="12.5" ry="12.5" style="stroke:#181818;stroke-width:0.5;" width="149" x="215.5" y="431.1289"/><text fill="#000000" font-family="sans-serif" font-size="20" lengthAdjust="spacing" textLength="129" x="225.5" y="459.6934">Thread.join()</text><polygon fill="#F1F1F1" points="209.5,367.0645,370.5,367.0645,382.5,379.0645,370.5,391.0645,209.5,391.0645,197.5,379.0645,209.5,367.0645" style="stroke:#181818;stroke-width:0.5;"/><text fill="#000000" font-family="sans-serif" font-size="20" lengthAdjust="spacing" textLength="34" x="294" y="409.6289">Yes</text><text fill="#000000" font-family="sans-serif" font-size="20" lengthAdjust="spacing" textLength="161" x="209.5" y="385.9883">Is there Threads</text><rect fill="#F1F1F1" height="43.2813" rx="12.5" ry="12.5" style="stroke:#181818;stroke-width:0.5;" width="250" x="165" y="516.4102"/><text fill="#000000" font-family="sans-serif" font-size="20" lengthAdjust="spacing" textLength="230" x="175" y="544.9746">Print the Top 20 Words</text><line style="stroke:#181818;stroke-width:1.0;" x1="290" x2="290" y1="67.2969" y2="87.2969"/><polygon fill="#181818" points="286,77.2969,290,87.2969,294,77.2969,290,81.2969" style="stroke:#181818;stroke-width:1.0;"/><line style="stroke:#181818;stroke-width:1.0;" x1="290" x2="290" y1="257.9238" y2="281.7832"/><polygon fill="#181818" points="286,271.7832,290,281.7832,294,271.7832,290,275.7832" style="stroke:#181818;stroke-width:1.0;"/><line style="stroke:#181818;stroke-width:1.0;" x1="290" x2="290" y1="174.5781" y2="214.6426"/><polygon fill="#181818" points="286,204.6426,290,214.6426,294,204.6426,290,208.6426" style="stroke:#181818;stroke-width:1.0;"/><line style="stroke:#181818;stroke-width:1.0;" x1="290" x2="290" y1="325.0645" y2="335.0645"/><line style="stroke:#181818;stroke-width:1.0;" x1="290" x2="436" y1="335.0645" y2="335.0645"/><polygon fill="#181818" points="432,261.7832,436,251.7832,440,261.7832,436,257.7832" style="stroke:#181818;stroke-width:1.0;"/><line style="stroke:#181818;stroke-width:1.0;" x1="436" x2="436" y1="162.5781" y2="335.0645"/><line style="stroke:#181818;stroke-width:1.0;" x1="436" x2="404.5" y1="162.5781" y2="162.5781"/><polygon fill="#181818" points="414.5,158.5781,404.5,162.5781,414.5,166.5781,410.5,162.5781" style="stroke:#181818;stroke-width:1.0;"/><line style="stroke:#181818;stroke-width:1.0;" x1="175.5" x2="144" y1="162.5781" y2="162.5781"/><polygon fill="#181818" points="140,247.7832,144,257.7832,148,247.7832,144,251.7832" style="stroke:#181818;stroke-width:1.0;"/><line style="stroke:#181818;stroke-width:1.0;" x1="144" x2="144" y1="162.5781" y2="347.0645"/><line style="stroke:#181818;stroke-width:1.0;" x1="144" x2="290" y1="347.0645" y2="347.0645"/><line style="stroke:#181818;stroke-width:1.0;" x1="290" x2="290" y1="347.0645" y2="367.0645"/><polygon fill="#181818" points="286,357.0645,290,367.0645,294,357.0645,290,361.0645" style="stroke:#181818;stroke-width:1.0;"/><line style="stroke:#181818;stroke-width:1.0;" x1="290" x2="290" y1="130.5781" y2="150.5781"/><polygon fill="#181818" points="286,140.5781,290,150.5781,294,140.5781,290,144.5781" style="stroke:#181818;stroke-width:1.0;"/><line style="stroke:#181818;stroke-width:1.0;" x1="290" x2="290" y1="391.0645" y2="431.1289"/><polygon fill="#181818" points="286,421.1289,290,431.1289,294,421.1289,290,425.1289" style="stroke:#181818;stroke-width:1.0;"/><line style="stroke:#181818;stroke-width:1.0;" x1="290" x2="290" y1="474.4102" y2="484.4102"/><line style="stroke:#181818;stroke-width:1.0;" x1="290" x2="394.5" y1="484.4102" y2="484.4102"/><polygon fill="#181818" points="390.5,439.1289,394.5,429.1289,398.5,439.1289,394.5,435.1289" style="stroke:#181818;stroke-width:1.0;"/><line style="stroke:#181818;stroke-width:1.0;" x1="394.5" x2="394.5" y1="379.0645" y2="484.4102"/><line style="stroke:#181818;stroke-width:1.0;" x1="394.5" x2="382.5" y1="379.0645" y2="379.0645"/><polygon fill="#181818" points="392.5,375.0645,382.5,379.0645,392.5,383.0645,388.5,379.0645" style="stroke:#181818;stroke-width:1.0;"/><line style="stroke:#181818;stroke-width:1.0;" x1="197.5" x2="185.5" y1="379.0645" y2="379.0645"/><polygon fill="#181818" points="181.5,425.1289,185.5,435.1289,189.5,425.1289,185.5,429.1289" style="stroke:#181818;stroke-width:1.0;"/><line style="stroke:#181818;stroke-width:1.0;" x1="185.5" x2="185.5" y1="379.0645" y2="496.4102"/><line style="stroke:#181818;stroke-width:1.0;" x1="185.5" x2="290" y1="496.4102" y2="496.4102"/><line style="stroke:#181818;stroke-width:1.0;" x1="290" x2="290" y1="496.4102" y2="516.4102"/><polygon fill="#181818" points="286,506.4102,290,516.4102,294,506.4102,290,510.4102" style="stroke:#181818;stroke-width:1.0;"/><!--SRC=[PP312i8m38RlVOeSjuCY7hUJA88tOOfu36jqqTgMDYhpwUscoDHZVhvyVqWyi_KOy69SVIODcWvuDR9qLYf-44mdIWcB8TWudoROkQ0ZR2iOmQmMlh6qi60y9aMA5XozmHRcQ3Lh58APzuPh57OsAXK5WoY0uWr-k24sJ-N16KEXJEYzOKFPAe8q5BvzEN24R4ynLvtJqXqsJI3KsO3AEqan2CRz4LcVazMzN_qNlKp3ZgHvXUEJO_ihADQ1hNJBNwygrHC0]--></g></svg>