<?xml version="1.0" encoding="UTF-8" standalone="no"?><svg xmlns="http://www.w3.org/2000/svg" xmlns:xlink="http://www.w3.org/1999/xlink" contentStyleType="text/css" height="1264px" preserveAspectRatio="none" style="width:964px;height:1264px;background:#FFFFFF;" version="1.1" viewBox="0 0 964 1264" width="964px" zoomAndPan="magnify"><defs/><g><text fill="#000000" font-family="sans-serif" font-size="14" font-weight="bold" lengthAdjust="spacing" textLength="386" x="287.5" y="32.9951">Top 20 Words US - Activity Diagram - File Domain</text><ellipse cx="492.5" cy="57.2969" fill="#222222" rx="10" ry="10" style="stroke:#222222;stroke-width:1.0;"/><rect fill="#F1F1F1" height="136.4063" rx="12.5" ry="12.5" style="stroke:#181818;stroke-width:0.5;" width="694" x="145.5" y="87.2969"/><text fill="#000000" font-family="sans-serif" font-size="20" lengthAdjust="spacing" textLength="211" x="155.5" y="115.8613">getTextFromFile(file)</text><text fill="#000000" font-family="sans-serif" font-size="20" lengthAdjust="spacing" textLength="260" x="155.5" y="139.1426">:getLengthFromText(text)</text><text fill="#000000" font-family="sans-serif" font-size="20" lengthAdjust="spacing" textLength="526" x="155.5" y="162.4238">:numberOfThreads = length / LENGTH_PER_THREAD</text><text fill="#000000" font-family="sans-serif" font-size="20" lengthAdjust="spacing" textLength="674" x="155.5" y="185.7051">:numberOfThreads = Math.min(numberOfThreads, MAX_THREADS)</text><text fill="#000000" font-family="sans-serif" font-size="20" lengthAdjust="spacing" textLength="540" x="155.5" y="208.9863">:numberOfThreads = Math.max(numberOfThreads, 1)</text><polygon fill="#F1F1F1" points="303,248.2012,682,248.2012,694,260.2012,682,272.2012,303,272.2012,291,260.2012,303,248.2012" style="stroke:#181818;stroke-width:0.5;"/><text fill="#000000" font-family="sans-serif" font-size="20" lengthAdjust="spacing" textLength="379" x="303" y="267.125">numberOfThreads == MAX_THREADS</text><text fill="#000000" font-family="sans-serif" font-size="20" lengthAdjust="spacing" textLength="33" x="258" y="255.4844">yes</text><text fill="#000000" font-family="sans-serif" font-size="20" lengthAdjust="spacing" textLength="25" x="694" y="255.4844">no</text><rect fill="#F1F1F1" height="43.2813" rx="12.5" ry="12.5" style="stroke:#181818;stroke-width:0.5;" width="482" x="11" y="282.2012"/><text fill="#000000" font-family="sans-serif" font-size="20" lengthAdjust="spacing" textLength="462" x="21" y="310.7656">lengthPerThread = length / numberOfThreads</text><rect fill="#F1F1F1" height="43.2813" rx="12.5" ry="12.5" style="stroke:#181818;stroke-width:0.5;" width="440" x="513" y="282.2012"/><text fill="#000000" font-family="sans-serif" font-size="20" lengthAdjust="spacing" textLength="420" x="523" y="310.7656">lengthPerThread = LENGTH_PER_THREAD</text><polygon fill="#F1F1F1" points="492.5,331.4824,504.5,343.4824,492.5,355.4824,480.5,343.4824,492.5,331.4824" style="stroke:#181818;stroke-width:0.5;"/><rect fill="#F1F1F1" height="43.2813" rx="12.5" ry="12.5" style="stroke:#181818;stroke-width:0.5;" width="395" x="295" y="439.5469"/><text fill="#000000" font-family="sans-serif" font-size="20" lengthAdjust="spacing" textLength="375" x="305" y="468.1113">divideTheText(text, lengthPerThread)</text><rect fill="#F1F1F1" height="43.2813" rx="12.5" ry="12.5" style="stroke:#181818;stroke-width:0.5;" width="511" x="237" y="502.8281"/><text fill="#000000" font-family="sans-serif" font-size="20" lengthAdjust="spacing" textLength="491" x="247" y="531.3926">FilePartition filePart = new FilePartition(textPart)</text><rect fill="#F1F1F1" height="43.2813" rx="12.5" ry="12.5" style="stroke:#181818;stroke-width:0.5;" width="396" x="294.5" y="566.1094"/><text fill="#000000" font-family="sans-serif" font-size="20" lengthAdjust="spacing" textLength="376" x="304.5" y="594.6738">Thread thread = new Thread(filePart)</text><rect fill="#F1F1F1" height="43.2813" rx="12.5" ry="12.5" style="stroke:#181818;stroke-width:0.5;" width="154" x="415.5" y="629.3906"/><text fill="#000000" font-family="sans-serif" font-size="20" lengthAdjust="spacing" textLength="134" x="425.5" y="657.9551">thread.start()</text><rect fill="#F1F1F1" height="43.2813" rx="12.5" ry="12.5" style="stroke:#181818;stroke-width:0.5;" width="216" x="384.5" y="692.6719"/><text fill="#000000" font-family="sans-serif" font-size="20" lengthAdjust="spacing" textLength="196" x="394.5" y="721.2363">numberOfThreads--</text><polygon fill="#F1F1F1" points="380.5,375.4824,604.5,375.4824,616.5,387.4824,604.5,399.4824,380.5,399.4824,368.5,387.4824,380.5,375.4824" style="stroke:#181818;stroke-width:0.5;"/><text fill="#000000" font-family="sans-serif" font-size="20" lengthAdjust="spacing" textLength="33" x="496.5" y="418.0469">yes</text><text fill="#000000" font-family="sans-serif" font-size="20" lengthAdjust="spacing" textLength="224" x="380.5" y="394.4063">numberOfThreads &gt; 0</text><rect fill="#F1F1F1" height="43.2813" rx="12.5" ry="12.5" style="stroke:#181818;stroke-width:0.5;" width="145" x="420" y="842.0176"/><text fill="#000000" font-family="sans-serif" font-size="20" lengthAdjust="spacing" textLength="125" x="430" y="870.582">thread.join()</text><polygon fill="#F1F1F1" points="414.5,777.9531,570.5,777.9531,582.5,789.9531,570.5,801.9531,414.5,801.9531,402.5,789.9531,414.5,777.9531" style="stroke:#181818;stroke-width:0.5;"/><text fill="#000000" font-family="sans-serif" font-size="20" lengthAdjust="spacing" textLength="70" x="496.5" y="820.5176">Thread</text><text fill="#000000" font-family="sans-serif" font-size="20" lengthAdjust="spacing" textLength="156" x="414.5" y="796.877">Foreach Thread</text><rect fill="#F1F1F1" height="43.2813" rx="12.5" ry="12.5" style="stroke:#181818;stroke-width:0.5;" width="417" x="284" y="1062.6445"/><text fill="#000000" font-family="sans-serif" font-size="20" lengthAdjust="spacing" textLength="397" x="294" y="1091.209">synchronized addToMap(Word,number)</text><polygon fill="#F1F1F1" points="423,991.3633,562,991.3633,574,1003.3633,562,1015.3633,423,1015.3633,411,1003.3633,423,991.3633" style="stroke:#181818;stroke-width:0.5;"/><text fill="#000000" font-family="sans-serif" font-size="20" lengthAdjust="spacing" textLength="53" x="496.5" y="1033.9277">Word</text><text fill="#000000" font-family="sans-serif" font-size="20" lengthAdjust="spacing" textLength="139" x="423" y="1010.2871">Foreach Word</text><polygon fill="#F1F1F1" points="389,927.2988,596,927.2988,608,939.2988,596,951.2988,389,951.2988,377,939.2988,389,927.2988" style="stroke:#181818;stroke-width:0.5;"/><text fill="#000000" font-family="sans-serif" font-size="20" lengthAdjust="spacing" textLength="121" x="496.5" y="969.8633">FilePartition</text><text fill="#000000" font-family="sans-serif" font-size="20" lengthAdjust="spacing" textLength="207" x="389" y="946.2227">Foreach FilePartition</text><rect fill="#F1F1F1" height="43.2813" rx="12.5" ry="12.5" style="stroke:#181818;stroke-width:0.5;" width="136" x="424.5" y="1169.9258"/><text fill="#000000" font-family="sans-serif" font-size="20" lengthAdjust="spacing" textLength="116" x="434.5" y="1198.4902">Return Map</text><ellipse cx="492.5" cy="1243.207" fill="none" rx="10" ry="10" style="stroke:#222222;stroke-width:1.5;"/><line style="stroke:#222222;stroke-width:2.5;" x1="486.3128" x2="498.6872" y1="1237.0198" y2="1249.3942"/><line style="stroke:#222222;stroke-width:2.5;" x1="498.6872" x2="486.3128" y1="1237.0198" y2="1249.3942"/><line style="stroke:#181818;stroke-width:1.0;" x1="492.5" x2="492.5" y1="67.2969" y2="87.2969"/><polygon fill="#181818" points="488.5,77.2969,492.5,87.2969,496.5,77.2969,492.5,81.2969" style="stroke:#181818;stroke-width:1.0;"/><line style="stroke:#181818;stroke-width:1.0;" x1="291" x2="252" y1="260.2012" y2="260.2012"/><line style="stroke:#181818;stroke-width:1.0;" x1="252" x2="252" y1="260.2012" y2="282.2012"/><polygon fill="#181818" points="248,272.2012,252,282.2012,256,272.2012,252,276.2012" style="stroke:#181818;stroke-width:1.0;"/><line style="stroke:#181818;stroke-width:1.0;" x1="694" x2="733" y1="260.2012" y2="260.2012"/><line style="stroke:#181818;stroke-width:1.0;" x1="733" x2="733" y1="260.2012" y2="282.2012"/><polygon fill="#181818" points="729,272.2012,733,282.2012,737,272.2012,733,276.2012" style="stroke:#181818;stroke-width:1.0;"/><line style="stroke:#181818;stroke-width:1.0;" x1="252" x2="252" y1="325.4824" y2="343.4824"/><line style="stroke:#181818;stroke-width:1.0;" x1="252" x2="480.5" y1="343.4824" y2="343.4824"/><polygon fill="#181818" points="470.5,339.4824,480.5,343.4824,470.5,347.4824,474.5,343.4824" style="stroke:#181818;stroke-width:1.0;"/><line style="stroke:#181818;stroke-width:1.0;" x1="733" x2="733" y1="325.4824" y2="343.4824"/><line style="stroke:#181818;stroke-width:1.0;" x1="733" x2="504.5" y1="343.4824" y2="343.4824"/><polygon fill="#181818" points="514.5,339.4824,504.5,343.4824,514.5,347.4824,510.5,343.4824" style="stroke:#181818;stroke-width:1.0;"/><line style="stroke:#181818;stroke-width:1.0;" x1="492.5" x2="492.5" y1="223.7031" y2="248.2012"/><polygon fill="#181818" points="488.5,238.2012,492.5,248.2012,496.5,238.2012,492.5,242.2012" style="stroke:#181818;stroke-width:1.0;"/><line style="stroke:#181818;stroke-width:1.0;" x1="492.5" x2="492.5" y1="482.8281" y2="502.8281"/><polygon fill="#181818" points="488.5,492.8281,492.5,502.8281,496.5,492.8281,492.5,496.8281" style="stroke:#181818;stroke-width:1.0;"/><line style="stroke:#181818;stroke-width:1.0;" x1="492.5" x2="492.5" y1="546.1094" y2="566.1094"/><polygon fill="#181818" points="488.5,556.1094,492.5,566.1094,496.5,556.1094,492.5,560.1094" style="stroke:#181818;stroke-width:1.0;"/><line style="stroke:#181818;stroke-width:1.0;" x1="492.5" x2="492.5" y1="609.3906" y2="629.3906"/><polygon fill="#181818" points="488.5,619.3906,492.5,629.3906,496.5,619.3906,492.5,623.3906" style="stroke:#181818;stroke-width:1.0;"/><line style="stroke:#181818;stroke-width:1.0;" x1="492.5" x2="492.5" y1="672.6719" y2="692.6719"/><polygon fill="#181818" points="488.5,682.6719,492.5,692.6719,496.5,682.6719,492.5,686.6719" style="stroke:#181818;stroke-width:1.0;"/><line style="stroke:#181818;stroke-width:1.0;" x1="492.5" x2="492.5" y1="399.4824" y2="439.5469"/><polygon fill="#181818" points="488.5,429.5469,492.5,439.5469,496.5,429.5469,492.5,433.5469" style="stroke:#181818;stroke-width:1.0;"/><line style="stroke:#181818;stroke-width:1.0;" x1="492.5" x2="492.5" y1="735.9531" y2="745.9531"/><line style="stroke:#181818;stroke-width:1.0;" x1="492.5" x2="760" y1="745.9531" y2="745.9531"/><polygon fill="#181818" points="756,574.1094,760,564.1094,764,574.1094,760,570.1094" style="stroke:#181818;stroke-width:1.0;"/><line style="stroke:#181818;stroke-width:1.0;" x1="760" x2="760" y1="387.4824" y2="745.9531"/><line style="stroke:#181818;stroke-width:1.0;" x1="760" x2="616.5" y1="387.4824" y2="387.4824"/><polygon fill="#181818" points="626.5,383.4824,616.5,387.4824,626.5,391.4824,622.5,387.4824" style="stroke:#181818;stroke-width:1.0;"/><line style="stroke:#181818;stroke-width:1.0;" x1="368.5" x2="225" y1="387.4824" y2="387.4824"/><polygon fill="#181818" points="221,560.1094,225,570.1094,229,560.1094,225,564.1094" style="stroke:#181818;stroke-width:1.0;"/><line style="stroke:#181818;stroke-width:1.0;" x1="225" x2="225" y1="387.4824" y2="757.9531"/><line style="stroke:#181818;stroke-width:1.0;" x1="225" x2="492.5" y1="757.9531" y2="757.9531"/><line style="stroke:#181818;stroke-width:1.0;" x1="492.5" x2="492.5" y1="757.9531" y2="777.9531"/><polygon fill="#181818" points="488.5,767.9531,492.5,777.9531,496.5,767.9531,492.5,771.9531" style="stroke:#181818;stroke-width:1.0;"/><line style="stroke:#181818;stroke-width:1.0;" x1="492.5" x2="492.5" y1="355.4824" y2="375.4824"/><polygon fill="#181818" points="488.5,365.4824,492.5,375.4824,496.5,365.4824,492.5,369.4824" style="stroke:#181818;stroke-width:1.0;"/><line style="stroke:#181818;stroke-width:1.0;" x1="492.5" x2="492.5" y1="801.9531" y2="842.0176"/><polygon fill="#181818" points="488.5,832.0176,492.5,842.0176,496.5,832.0176,492.5,836.0176" style="stroke:#181818;stroke-width:1.0;"/><line style="stroke:#181818;stroke-width:1.0;" x1="492.5" x2="492.5" y1="885.2988" y2="895.2988"/><line style="stroke:#181818;stroke-width:1.0;" x1="492.5" x2="594.5" y1="895.2988" y2="895.2988"/><polygon fill="#181818" points="590.5,850.0176,594.5,840.0176,598.5,850.0176,594.5,846.0176" style="stroke:#181818;stroke-width:1.0;"/><line style="stroke:#181818;stroke-width:1.0;" x1="594.5" x2="594.5" y1="789.9531" y2="895.2988"/><line style="stroke:#181818;stroke-width:1.0;" x1="594.5" x2="582.5" y1="789.9531" y2="789.9531"/><polygon fill="#181818" points="592.5,785.9531,582.5,789.9531,592.5,793.9531,588.5,789.9531" style="stroke:#181818;stroke-width:1.0;"/><line style="stroke:#181818;stroke-width:1.0;" x1="402.5" x2="390.5" y1="789.9531" y2="789.9531"/><polygon fill="#181818" points="386.5,836.0176,390.5,846.0176,394.5,836.0176,390.5,840.0176" style="stroke:#181818;stroke-width:1.0;"/><line style="stroke:#181818;stroke-width:1.0;" x1="390.5" x2="390.5" y1="789.9531" y2="907.2988"/><line style="stroke:#181818;stroke-width:1.0;" x1="390.5" x2="492.5" y1="907.2988" y2="907.2988"/><line style="stroke:#181818;stroke-width:1.0;" x1="492.5" x2="492.5" y1="907.2988" y2="927.2988"/><polygon fill="#181818" points="488.5,917.2988,492.5,927.2988,496.5,917.2988,492.5,921.2988" style="stroke:#181818;stroke-width:1.0;"/><line style="stroke:#181818;stroke-width:1.0;" x1="492.5" x2="492.5" y1="1015.3633" y2="1062.6445"/><polygon fill="#181818" points="488.5,1052.6445,492.5,1062.6445,496.5,1052.6445,492.5,1056.6445" style="stroke:#181818;stroke-width:1.0;"/><line style="stroke:#181818;stroke-width:1.0;" x1="492.5" x2="492.5" y1="1105.9258" y2="1115.9258"/><line style="stroke:#181818;stroke-width:1.0;" x1="492.5" x2="713" y1="1115.9258" y2="1115.9258"/><polygon fill="#181818" points="709,1070.6445,713,1060.6445,717,1070.6445,713,1066.6445" style="stroke:#181818;stroke-width:1.0;"/><line style="stroke:#181818;stroke-width:1.0;" x1="713" x2="713" y1="1003.3633" y2="1115.9258"/><line style="stroke:#181818;stroke-width:1.0;" x1="713" x2="574" y1="1003.3633" y2="1003.3633"/><polygon fill="#181818" points="584,999.3633,574,1003.3633,584,1007.3633,580,1003.3633" style="stroke:#181818;stroke-width:1.0;"/><line style="stroke:#181818;stroke-width:1.0;" x1="411" x2="272" y1="1003.3633" y2="1003.3633"/><polygon fill="#181818" points="268,1056.6445,272,1066.6445,276,1056.6445,272,1060.6445" style="stroke:#181818;stroke-width:1.0;"/><line style="stroke:#181818;stroke-width:1.0;" x1="272" x2="272" y1="1003.3633" y2="1127.9258"/><line style="stroke:#181818;stroke-width:1.0;" x1="272" x2="725" y1="1127.9258" y2="1127.9258"/><line style="stroke:#181818;stroke-width:1.0;" x1="725" x2="725" y1="939.2988" y2="1127.9258"/><line style="stroke:#181818;stroke-width:1.0;" x1="725" x2="608" y1="939.2988" y2="939.2988"/><polygon fill="#181818" points="618,935.2988,608,939.2988,618,943.2988,614,939.2988" style="stroke:#181818;stroke-width:1.0;"/><line style="stroke:#181818;stroke-width:1.0;" x1="492.5" x2="492.5" y1="951.2988" y2="991.3633"/><polygon fill="#181818" points="488.5,981.3633,492.5,991.3633,496.5,981.3633,492.5,985.3633" style="stroke:#181818;stroke-width:1.0;"/><line style="stroke:#181818;stroke-width:1.0;" x1="377" x2="248" y1="939.2988" y2="939.2988"/><polygon fill="#181818" points="244,1033.0039,248,1043.0039,252,1033.0039,248,1037.0039" style="stroke:#181818;stroke-width:1.0;"/><line style="stroke:#181818;stroke-width:1.0;" x1="248" x2="248" y1="939.2988" y2="1149.9258"/><line style="stroke:#181818;stroke-width:1.0;" x1="248" x2="492.5" y1="1149.9258" y2="1149.9258"/><line style="stroke:#181818;stroke-width:1.0;" x1="492.5" x2="492.5" y1="1149.9258" y2="1169.9258"/><polygon fill="#181818" points="488.5,1159.9258,492.5,1169.9258,496.5,1159.9258,492.5,1163.9258" style="stroke:#181818;stroke-width:1.0;"/><line style="stroke:#181818;stroke-width:1.0;" x1="492.5" x2="492.5" y1="1213.207" y2="1233.207"/><polygon fill="#181818" points="488.5,1223.207,492.5,1233.207,496.5,1223.207,492.5,1227.207" style="stroke:#181818;stroke-width:1.0;"/><!--SRC=[VLF9Rjim4BtpA-Oe0NQsOumKC62xESIjOQjeRW5ZZYms4cbGuoRkrtT8AeeM93eGvCnxRrRLBzeSfPDLQVSlg41XBaybhQoXdVw7S7Cb16ag4J9xv1VyjaxLy6i7KvZlIV_LT8Q5bWUMODDACt9XAwcD43L9HmBukpqWPVX6AsSh3qboFjBMzO3cG8LtUb12V3HESwgUqVtCiyAXvBXtK0OiNCB3yiVtxFvfizm-PVVRvNpn6MCjgRYej4a6hWcivuyDTvT-pPPlO_PrEXE1fND8HiIxdZfGWGQICzOnK0WMIzcWYwHkSGEvMI1XMID7ibzAZDhIS8tYDCCr7A-57yCmwszmbOAkXuag7hF2hC1sF1COH4vd7t0_uGsFNfEs1lBcnRaPV8MUCsZvLvVUb4Bl5NbMj2NlMbrun5s4PKkwZa5nqsdRYL2ywFHXPHcoBvemiGNDVHJeZ-LLwiHfzSPolLgZQj_KYlHv_X-By73xIA4-cttXhE4_Ku5KAhDhUGoWIQpsixn6XjijqiaPNkyZRx7lXM2_-0y0]--></g></svg>