<?xml version="1.0" encoding="UTF-8" standalone="no"?><svg xmlns="http://www.w3.org/2000/svg" xmlns:xlink="http://www.w3.org/1999/xlink" contentStyleType="text/css" height="791px" preserveAspectRatio="none" style="width:860px;height:791px;background:#FFFFFF;" version="1.1" viewBox="0 0 860 791" width="860px" zoomAndPan="magnify"><defs/><g><text fill="#000000" font-family="sans-serif" font-size="14" font-weight="bold" lengthAdjust="spacing" textLength="412" x="225.75" y="27.9951">System Sequence Diagram (SSD) - List Job Openings</text><rect fill="#FFFFFF" height="559.0625" style="stroke:#181818;stroke-width:1.0;" width="10" x="133" y="135.5781"/><rect fill="#FFFFFF" height="37.2813" style="stroke:#181818;stroke-width:1.0;" width="10" x="772" y="164.8594"/><rect fill="#FFFFFF" height="37.2813" style="stroke:#181818;stroke-width:1.0;" width="10" x="772" y="346.5469"/><rect fill="#FFFFFF" height="169.4063" style="stroke:#181818;stroke-width:1.0;" width="10" x="772" y="502.2344"/><rect fill="none" height="402.9375" style="stroke:#000000;stroke-width:1.5;" width="844.5" x="10" y="283.7031"/><rect fill="none" height="280.8125" style="stroke:#000000;stroke-width:1.5;" width="824.5" x="20" y="398.8281"/><rect fill="none" height="195.9688" style="stroke:#000000;stroke-width:1.5;" width="804.5" x="30" y="439.3906"/><line style="stroke:#181818;stroke-width:0.5;stroke-dasharray:5.0,5.0;" x1="138" x2="138" y1="125.5781" y2="703.6406"/><line style="stroke:#181818;stroke-width:0.5;stroke-dasharray:5.0,5.0;" x1="776.5" x2="776.5" y1="125.5781" y2="703.6406"/><text fill="#000000" font-family="sans-serif" font-size="20" lengthAdjust="spacing" textLength="190" x="40" y="120.8613">Customer Manager</text><ellipse cx="138" cy="50.7969" fill="#E3E3E3" rx="8" ry="8" style="stroke:#181818;stroke-width:0.5;"/><path d="M138,58.7969 L138,85.7969 M125,66.7969 L151,66.7969 M138,85.7969 L125,100.7969 M138,85.7969 L151,100.7969 " fill="none" style="stroke:#181818;stroke-width:0.5;"/><text fill="#000000" font-family="sans-serif" font-size="20" lengthAdjust="spacing" textLength="190" x="40" y="721.2051">Customer Manager</text><ellipse cx="138" cy="734.4219" fill="#E3E3E3" rx="8" ry="8" style="stroke:#181818;stroke-width:0.5;"/><path d="M138,742.4219 L138,769.4219 M125,750.4219 L151,750.4219 M138,769.4219 L125,784.4219 M138,769.4219 L151,784.4219 " fill="none" style="stroke:#181818;stroke-width:0.5;"/><rect fill="#E3E3E3" height="37.2813" rx="2.5" ry="2.5" style="stroke:#181818;stroke-width:0.5;" width="95" x="729.5" y="87.2969"/><text fill="#000000" font-family="sans-serif" font-size="20" lengthAdjust="spacing" textLength="81" x="736.5" y="112.8613">:System</text><rect fill="#E3E3E3" height="37.2813" rx="2.5" ry="2.5" style="stroke:#181818;stroke-width:0.5;" width="95" x="729.5" y="702.6406"/><text fill="#000000" font-family="sans-serif" font-size="20" lengthAdjust="spacing" textLength="81" x="736.5" y="728.2051">:System</text><rect fill="#FFFFFF" height="559.0625" style="stroke:#181818;stroke-width:1.0;" width="10" x="133" y="135.5781"/><rect fill="#FFFFFF" height="37.2813" style="stroke:#181818;stroke-width:1.0;" width="10" x="772" y="164.8594"/><rect fill="#FFFFFF" height="37.2813" style="stroke:#181818;stroke-width:1.0;" width="10" x="772" y="346.5469"/><rect fill="#FFFFFF" height="169.4063" style="stroke:#181818;stroke-width:1.0;" width="10" x="772" y="502.2344"/><polygon fill="#181818" points="760,160.8594,770,164.8594,760,168.8594,764,164.8594" style="stroke:#181818;stroke-width:1.0;"/><line style="stroke:#181818;stroke-width:1.0;" x1="143" x2="766" y1="164.8594" y2="164.8594"/><text fill="#000000" font-family="sans-serif" font-size="20" font-weight="bold" lengthAdjust="spacing" textLength="14" x="150" y="158.1426">1</text><text fill="#000000" font-family="sans-serif" font-size="20" lengthAdjust="spacing" textLength="293" x="168" y="158.1426">Asks for a list of job openings</text><polygon fill="#181818" points="154,198.1406,144,202.1406,154,206.1406,150,202.1406" style="stroke:#181818;stroke-width:1.0;"/><line style="stroke:#181818;stroke-width:1.0;stroke-dasharray:2.0,2.0;" x1="148" x2="776" y1="202.1406" y2="202.1406"/><text fill="#000000" font-family="sans-serif" font-size="20" font-weight="bold" lengthAdjust="spacing" textLength="14" x="160" y="195.4238">2</text><text fill="#000000" font-family="sans-serif" font-size="20" lengthAdjust="spacing" textLength="587" x="178" y="195.4238">Displays list of job openings and provides a filtering option</text><path d="M208,215.1406 L208,271.1406 L772,271.1406 L772,225.1406 L762,215.1406 L208,215.1406 " fill="#FAFAFA" style="stroke:#181818;stroke-width:0.5;"/><path d="M762,215.1406 L762,225.1406 L772,225.1406 L762,215.1406 " fill="#FAFAFA" style="stroke:#181818;stroke-width:0.5;"/><text fill="#000000" font-family="sans-serif" font-size="20" lengthAdjust="spacing" textLength="476" x="214" y="238.7051">By default, the system displays all job openings</text><text fill="#000000" font-family="sans-serif" font-size="20" lengthAdjust="spacing" textLength="543" x="214" y="261.9863">associated with the customer manager without filters.</text><path d="M10,283.7031 L104,283.7031 L104,298.9844 L94,308.9844 L10,308.9844 L10,283.7031 " fill="#EEEEEE" style="stroke:#000000;stroke-width:1.5;"/><rect fill="none" height="402.9375" style="stroke:#000000;stroke-width:1.5;" width="844.5" x="10" y="283.7031"/><text fill="#000000" font-family="sans-serif" font-size="20" font-weight="bold" lengthAdjust="spacing" textLength="49" x="25" y="303.2676">loop</text><text fill="#000000" font-family="sans-serif" font-size="20" font-weight="bold" lengthAdjust="spacing" textLength="372" x="119" y="304.2676">[While there are filters to apply]</text><polygon fill="#181818" points="760,342.5469,770,346.5469,760,350.5469,764,346.5469" style="stroke:#181818;stroke-width:1.0;"/><line style="stroke:#181818;stroke-width:1.0;" x1="143" x2="766" y1="346.5469" y2="346.5469"/><text fill="#000000" font-family="sans-serif" font-size="20" font-weight="bold" lengthAdjust="spacing" textLength="14" x="150" y="339.8301">3</text><text fill="#000000" font-family="sans-serif" font-size="20" lengthAdjust="spacing" textLength="360" x="168" y="339.8301">Asks to filter the list of job openings</text><polygon fill="#181818" points="154,379.8281,144,383.8281,154,387.8281,150,383.8281" style="stroke:#181818;stroke-width:1.0;"/><line style="stroke:#181818;stroke-width:1.0;stroke-dasharray:2.0,2.0;" x1="148" x2="776" y1="383.8281" y2="383.8281"/><text fill="#000000" font-family="sans-serif" font-size="20" font-weight="bold" lengthAdjust="spacing" textLength="14" x="160" y="377.1113">4</text><text fill="#000000" font-family="sans-serif" font-size="20" lengthAdjust="spacing" textLength="255" x="178" y="377.1113">Displays the filter options</text><path d="M20,398.8281 L103,398.8281 L103,414.1094 L93,424.1094 L20,424.1094 L20,398.8281 " fill="#EEEEEE" style="stroke:#000000;stroke-width:1.5;"/><rect fill="none" height="280.8125" style="stroke:#000000;stroke-width:1.5;" width="824.5" x="20" y="398.8281"/><text fill="#000000" font-family="sans-serif" font-size="20" font-weight="bold" lengthAdjust="spacing" textLength="38" x="35" y="418.3926">opt</text><text fill="#000000" font-family="sans-serif" font-size="20" font-weight="bold" lengthAdjust="spacing" textLength="300" x="118" y="419.3926">[Optionally applies filters]</text><path d="M30,439.3906 L106,439.3906 L106,454.6719 L96,464.6719 L30,464.6719 L30,439.3906 " fill="#EEEEEE" style="stroke:#000000;stroke-width:1.5;"/><rect fill="none" height="195.9688" style="stroke:#000000;stroke-width:1.5;" width="804.5" x="30" y="439.3906"/><text fill="#000000" font-family="sans-serif" font-size="20" font-weight="bold" lengthAdjust="spacing" textLength="31" x="45" y="458.9551">alt</text><text fill="#000000" font-family="sans-serif" font-size="20" font-weight="bold" lengthAdjust="spacing" textLength="290" x="121" y="459.9551">["Filter by active status"]</text><polygon fill="#181818" points="760,498.2344,770,502.2344,760,506.2344,764,502.2344" style="stroke:#181818;stroke-width:1.0;"/><line style="stroke:#181818;stroke-width:1.0;" x1="143" x2="766" y1="502.2344" y2="502.2344"/><text fill="#000000" font-family="sans-serif" font-size="20" font-weight="bold" lengthAdjust="spacing" textLength="14" x="150" y="495.5176">5</text><text fill="#000000" font-family="sans-serif" font-size="20" lengthAdjust="spacing" textLength="326" x="168" y="495.5176">Inputs active status filter criteria</text><line style="stroke:#000000;stroke-width:1.0;stroke-dasharray:2.0,2.0;" x1="30" x2="834.5" y1="511.2344" y2="511.2344"/><text fill="#000000" font-family="sans-serif" font-size="20" font-weight="bold" lengthAdjust="spacing" textLength="248" x="35" y="529.7988">["Filter by customer"]</text><polygon fill="#181818" points="760,560.7969,770,564.7969,760,568.7969,764,564.7969" style="stroke:#181818;stroke-width:1.0;"/><line style="stroke:#181818;stroke-width:1.0;" x1="143" x2="766" y1="564.7969" y2="564.7969"/><text fill="#000000" font-family="sans-serif" font-size="20" font-weight="bold" lengthAdjust="spacing" textLength="14" x="150" y="558.0801">6</text><text fill="#000000" font-family="sans-serif" font-size="20" lengthAdjust="spacing" textLength="293" x="168" y="558.0801">Inputs customer filter criteria</text><line style="stroke:#000000;stroke-width:1.0;stroke-dasharray:2.0,2.0;" x1="30" x2="834.5" y1="573.7969" y2="573.7969"/><text fill="#000000" font-family="sans-serif" font-size="20" font-weight="bold" lengthAdjust="spacing" textLength="193" x="35" y="592.3613">["Filter by date"]</text><polygon fill="#181818" points="760,623.3594,770,627.3594,760,631.3594,764,627.3594" style="stroke:#181818;stroke-width:1.0;"/><line style="stroke:#181818;stroke-width:1.0;" x1="143" x2="766" y1="627.3594" y2="627.3594"/><text fill="#000000" font-family="sans-serif" font-size="20" font-weight="bold" lengthAdjust="spacing" textLength="14" x="150" y="620.6426">7</text><text fill="#000000" font-family="sans-serif" font-size="20" lengthAdjust="spacing" textLength="244" x="168" y="620.6426">Inputs date filter criteria</text><polygon fill="#181818" points="154,667.6406,144,671.6406,154,675.6406,150,671.6406" style="stroke:#181818;stroke-width:1.0;"/><line style="stroke:#181818;stroke-width:1.0;stroke-dasharray:2.0,2.0;" x1="148" x2="776" y1="671.6406" y2="671.6406"/><text fill="#000000" font-family="sans-serif" font-size="20" font-weight="bold" lengthAdjust="spacing" textLength="14" x="160" y="664.9238">8</text><text fill="#000000" font-family="sans-serif" font-size="20" lengthAdjust="spacing" textLength="396" x="178" y="664.9238">Displays the filtered list of job openings</text><!--SRC=[bLF1ZjCm4BtxAqOzWKGHujW34h1Q2GJYa0CNBbDxqfWwjh4dkmfVppY9etPfn18fYXE_UU_D6oUVhO-Oi7T1dyc0eHO7n_V1SsD_4xnzetA5G1zyq5qAFG6dWIvs8kepdgZXqH4aqep-v2u1kKCJ7gq_GOikar9iMQ3Dc9bwQEZNG5uJt5ay5VYBfhbx2NluOZF3vt24Rv6yL6UbSE3WX_v8ITQQGuBTno6pc4hm5RsuI3l0NDTAzDbg6z4px0wpu0IObnE9VK2cjK8j2zY_gmOFy3wVCxIYXk2AgT32J_4Lgg-LPQ45kPRYlV1KoeEqcAF3CT-a0VG6OWeFrf2yG6iTKognXSWsU6NegP3oGLuSjHFPwlV3M6Vv2hWZoFE6gUhetBNo3uyv1ss5si2ZvMugqpNQVccWx8I15sVvjL8kX0ZVEolZb8f4W78lsy01C4OtJdbivYgekM3Il9blgR-LyRzpBfGB-npYJFPtakMh8EIi5PG4D4xUhKnYQMTLH2U7wNucFOwpCScOaOUyMr5RFN_oSU1yNLKjwcJBnF6APAjnab_fqaUTrhCjhEFTKd-gOCJ5izaBU9lPc_yUe9pCpSEnFLDHAWzL5Fy0]--></g></svg>