<?xml version="1.0" encoding="UTF-8" standalone="no"?><svg xmlns="http://www.w3.org/2000/svg" xmlns:xlink="http://www.w3.org/1999/xlink" contentStyleType="text/css" height="857px" preserveAspectRatio="none" style="width:860px;height:857px;background:#FFFFFF;" version="1.1" viewBox="0 0 860 857" width="860px" zoomAndPan="magnify"><defs/><g><text fill="#000000" font-family="sans-serif" font-size="14" font-weight="bold" lengthAdjust="spacing" textLength="412" x="225.75" y="27.9951">System Sequence Diagram (SSD) - List Job Openings</text><rect fill="#FFFFFF" height="625.625" style="stroke:#181818;stroke-width:1.0;" width="10" x="133" y="135.5781"/><rect fill="#FFFFFF" height="37.2813" style="stroke:#181818;stroke-width:1.0;" width="10" x="772" y="164.8594"/><rect fill="#FFFFFF" height="37.2813" style="stroke:#181818;stroke-width:1.0;" width="10" x="772" y="387.1094"/><rect fill="#FFFFFF" height="169.4063" style="stroke:#181818;stroke-width:1.0;" width="10" x="772" y="568.7969"/><rect fill="none" height="469.5" style="stroke:#000000;stroke-width:1.5;" width="844.5" x="10" y="283.7031"/><rect fill="none" height="421.9375" style="stroke:#000000;stroke-width:1.5;" width="824.5" x="20" y="324.2656"/><rect fill="none" height="195.9688" style="stroke:#000000;stroke-width:1.5;" width="804.5" x="30" y="505.9531"/><line style="stroke:#181818;stroke-width:0.5;stroke-dasharray:5.0,5.0;" x1="138" x2="138" y1="125.5781" y2="770.2031"/><line style="stroke:#181818;stroke-width:0.5;stroke-dasharray:5.0,5.0;" x1="776.5" x2="776.5" y1="125.5781" y2="770.2031"/><text fill="#000000" font-family="sans-serif" font-size="20" lengthAdjust="spacing" textLength="190" x="40" y="120.8613">Customer Manager</text><ellipse cx="138" cy="50.7969" fill="#E3E3E3" rx="8" ry="8" style="stroke:#181818;stroke-width:0.5;"/><path d="M138,58.7969 L138,85.7969 M125,66.7969 L151,66.7969 M138,85.7969 L125,100.7969 M138,85.7969 L151,100.7969 " fill="none" style="stroke:#181818;stroke-width:0.5;"/><text fill="#000000" font-family="sans-serif" font-size="20" lengthAdjust="spacing" textLength="190" x="40" y="787.7676">Customer Manager</text><ellipse cx="138" cy="800.9844" fill="#E3E3E3" rx="8" ry="8" style="stroke:#181818;stroke-width:0.5;"/><path d="M138,808.9844 L138,835.9844 M125,816.9844 L151,816.9844 M138,835.9844 L125,850.9844 M138,835.9844 L151,850.9844 " fill="none" style="stroke:#181818;stroke-width:0.5;"/><rect fill="#E3E3E3" height="37.2813" rx="2.5" ry="2.5" style="stroke:#181818;stroke-width:0.5;" width="95" x="729.5" y="87.2969"/><text fill="#000000" font-family="sans-serif" font-size="20" lengthAdjust="spacing" textLength="81" x="736.5" y="112.8613">:System</text><rect fill="#E3E3E3" height="37.2813" rx="2.5" ry="2.5" style="stroke:#181818;stroke-width:0.5;" width="95" x="729.5" y="769.2031"/><text fill="#000000" font-family="sans-serif" font-size="20" lengthAdjust="spacing" textLength="81" x="736.5" y="794.7676">:System</text><rect fill="#FFFFFF" height="625.625" style="stroke:#181818;stroke-width:1.0;" width="10" x="133" y="135.5781"/><rect fill="#FFFFFF" height="37.2813" style="stroke:#181818;stroke-width:1.0;" width="10" x="772" y="164.8594"/><rect fill="#FFFFFF" height="37.2813" style="stroke:#181818;stroke-width:1.0;" width="10" x="772" y="387.1094"/><rect fill="#FFFFFF" height="169.4063" style="stroke:#181818;stroke-width:1.0;" width="10" x="772" y="568.7969"/><polygon fill="#181818" points="760,160.8594,770,164.8594,760,168.8594,764,164.8594" style="stroke:#181818;stroke-width:1.0;"/><line style="stroke:#181818;stroke-width:1.0;" x1="143" x2="766" y1="164.8594" y2="164.8594"/><text fill="#000000" font-family="sans-serif" font-size="20" font-weight="bold" lengthAdjust="spacing" textLength="14" x="150" y="158.1426">1</text><text fill="#000000" font-family="sans-serif" font-size="20" lengthAdjust="spacing" textLength="293" x="168" y="158.1426">Asks for a list of job openings</text><polygon fill="#181818" points="154,198.1406,144,202.1406,154,206.1406,150,202.1406" style="stroke:#181818;stroke-width:1.0;"/><line style="stroke:#181818;stroke-width:1.0;stroke-dasharray:2.0,2.0;" x1="148" x2="776" y1="202.1406" y2="202.1406"/><text fill="#000000" font-family="sans-serif" font-size="20" font-weight="bold" lengthAdjust="spacing" textLength="14" x="160" y="195.4238">2</text><text fill="#000000" font-family="sans-serif" font-size="20" lengthAdjust="spacing" textLength="587" x="178" y="195.4238">Displays list of job openings and provides a filtering option</text><path d="M208,215.1406 L208,271.1406 L772,271.1406 L772,225.1406 L762,215.1406 L208,215.1406 " fill="#FAFAFA" style="stroke:#181818;stroke-width:0.5;"/><path d="M762,215.1406 L762,225.1406 L772,225.1406 L762,215.1406 " fill="#FAFAFA" style="stroke:#181818;stroke-width:0.5;"/><text fill="#000000" font-family="sans-serif" font-size="20" lengthAdjust="spacing" textLength="476" x="214" y="238.7051">By default, the system displays all job openings</text><text fill="#000000" font-family="sans-serif" font-size="20" lengthAdjust="spacing" textLength="543" x="214" y="261.9863">associated with the customer manager without filters.</text><path d="M10,283.7031 L93,283.7031 L93,298.9844 L83,308.9844 L10,308.9844 L10,283.7031 " fill="#EEEEEE" style="stroke:#000000;stroke-width:1.5;"/><rect fill="none" height="469.5" style="stroke:#000000;stroke-width:1.5;" width="844.5" x="10" y="283.7031"/><text fill="#000000" font-family="sans-serif" font-size="20" font-weight="bold" lengthAdjust="spacing" textLength="38" x="25" y="303.2676">opt</text><text fill="#000000" font-family="sans-serif" font-size="20" font-weight="bold" lengthAdjust="spacing" textLength="300" x="108" y="304.2676">[Optionally applies filters]</text><path d="M20,324.2656 L114,324.2656 L114,339.5469 L104,349.5469 L20,349.5469 L20,324.2656 " fill="#EEEEEE" style="stroke:#000000;stroke-width:1.5;"/><rect fill="none" height="421.9375" style="stroke:#000000;stroke-width:1.5;" width="824.5" x="20" y="324.2656"/><text fill="#000000" font-family="sans-serif" font-size="20" font-weight="bold" lengthAdjust="spacing" textLength="49" x="35" y="343.8301">loop</text><text fill="#000000" font-family="sans-serif" font-size="20" font-weight="bold" lengthAdjust="spacing" textLength="372" x="129" y="344.8301">[While there are filters to apply]</text><polygon fill="#181818" points="760,383.1094,770,387.1094,760,391.1094,764,387.1094" style="stroke:#181818;stroke-width:1.0;"/><line style="stroke:#181818;stroke-width:1.0;" x1="143" x2="766" y1="387.1094" y2="387.1094"/><text fill="#000000" font-family="sans-serif" font-size="20" font-weight="bold" lengthAdjust="spacing" textLength="14" x="150" y="380.3926">3</text><text fill="#000000" font-family="sans-serif" font-size="20" lengthAdjust="spacing" textLength="360" x="168" y="380.3926">Asks to filter the list of job openings</text><polygon fill="#181818" points="154,420.3906,144,424.3906,154,428.3906,150,424.3906" style="stroke:#181818;stroke-width:1.0;"/><line style="stroke:#181818;stroke-width:1.0;stroke-dasharray:2.0,2.0;" x1="148" x2="776" y1="424.3906" y2="424.3906"/><text fill="#000000" font-family="sans-serif" font-size="20" font-weight="bold" lengthAdjust="spacing" textLength="14" x="160" y="417.6738">4</text><text fill="#000000" font-family="sans-serif" font-size="20" lengthAdjust="spacing" textLength="255" x="178" y="417.6738">Displays the filter options</text><path d="M383,437.3906 L383,493.3906 L772,493.3906 L772,447.3906 L762,437.3906 L383,437.3906 " fill="#FAFAFA" style="stroke:#181818;stroke-width:0.5;"/><path d="M762,437.3906 L762,447.3906 L772,447.3906 L762,437.3906 " fill="#FAFAFA" style="stroke:#181818;stroke-width:0.5;"/><text fill="#000000" font-family="sans-serif" font-size="20" lengthAdjust="spacing" textLength="362" x="389" y="460.9551">The System should display the state</text><text fill="#000000" font-family="sans-serif" font-size="20" lengthAdjust="spacing" textLength="279" x="389" y="484.2363">of each filter (active or not).</text><path d="M30,505.9531 L106,505.9531 L106,521.2344 L96,531.2344 L30,531.2344 L30,505.9531 " fill="#EEEEEE" style="stroke:#000000;stroke-width:1.5;"/><rect fill="none" height="195.9688" style="stroke:#000000;stroke-width:1.5;" width="804.5" x="30" y="505.9531"/><text fill="#000000" font-family="sans-serif" font-size="20" font-weight="bold" lengthAdjust="spacing" textLength="31" x="45" y="525.5176">alt</text><text fill="#000000" font-family="sans-serif" font-size="20" font-weight="bold" lengthAdjust="spacing" textLength="290" x="121" y="526.5176">["Filter by active status"]</text><polygon fill="#181818" points="760,564.7969,770,568.7969,760,572.7969,764,568.7969" style="stroke:#181818;stroke-width:1.0;"/><line style="stroke:#181818;stroke-width:1.0;" x1="143" x2="766" y1="568.7969" y2="568.7969"/><text fill="#000000" font-family="sans-serif" font-size="20" font-weight="bold" lengthAdjust="spacing" textLength="14" x="150" y="562.0801">5</text><text fill="#000000" font-family="sans-serif" font-size="20" lengthAdjust="spacing" textLength="326" x="168" y="562.0801">Inputs active status filter criteria</text><line style="stroke:#000000;stroke-width:1.0;stroke-dasharray:2.0,2.0;" x1="30" x2="834.5" y1="577.7969" y2="577.7969"/><text fill="#000000" font-family="sans-serif" font-size="20" font-weight="bold" lengthAdjust="spacing" textLength="248" x="35" y="596.3613">["Filter by customer"]</text><polygon fill="#181818" points="760,627.3594,770,631.3594,760,635.3594,764,631.3594" style="stroke:#181818;stroke-width:1.0;"/><line style="stroke:#181818;stroke-width:1.0;" x1="143" x2="766" y1="631.3594" y2="631.3594"/><text fill="#000000" font-family="sans-serif" font-size="20" font-weight="bold" lengthAdjust="spacing" textLength="14" x="150" y="624.6426">6</text><text fill="#000000" font-family="sans-serif" font-size="20" lengthAdjust="spacing" textLength="293" x="168" y="624.6426">Inputs customer filter criteria</text><line style="stroke:#000000;stroke-width:1.0;stroke-dasharray:2.0,2.0;" x1="30" x2="834.5" y1="640.3594" y2="640.3594"/><text fill="#000000" font-family="sans-serif" font-size="20" font-weight="bold" lengthAdjust="spacing" textLength="193" x="35" y="658.9238">["Filter by date"]</text><polygon fill="#181818" points="760,689.9219,770,693.9219,760,697.9219,764,693.9219" style="stroke:#181818;stroke-width:1.0;"/><line style="stroke:#181818;stroke-width:1.0;" x1="143" x2="766" y1="693.9219" y2="693.9219"/><text fill="#000000" font-family="sans-serif" font-size="20" font-weight="bold" lengthAdjust="spacing" textLength="14" x="150" y="687.2051">7</text><text fill="#000000" font-family="sans-serif" font-size="20" lengthAdjust="spacing" textLength="244" x="168" y="687.2051">Inputs date filter criteria</text><polygon fill="#181818" points="154,734.2031,144,738.2031,154,742.2031,150,738.2031" style="stroke:#181818;stroke-width:1.0;"/><line style="stroke:#181818;stroke-width:1.0;stroke-dasharray:2.0,2.0;" x1="148" x2="776" y1="738.2031" y2="738.2031"/><text fill="#000000" font-family="sans-serif" font-size="20" font-weight="bold" lengthAdjust="spacing" textLength="14" x="160" y="731.4863">8</text><text fill="#000000" font-family="sans-serif" font-size="20" lengthAdjust="spacing" textLength="396" x="178" y="731.4863">Displays the filtered list of job openings</text><!--SRC=[bLDDRzGm4BtxLupsr4fiXJZk0GceAe5078B4fPVPUB8nwzZ6dhGAlvvn4gUx9LiLIr5i-SrxRpwSZiO5ZDXPNnz9WwO6Uyjttd5b_X2yUwjIWK3ddQ_Rw3i2ZZsTt0IiZtYWYWTB4AbcT0Tx2aWjQlzet04Qj8cKOiC2hOR4r455ltjoDS6jmKE6NrNLxJLiuQj935_y7hu7SXATbCAUlUkxFKNPr-mZR3xrYSLKX6_en4NS0AQoLwBFfZO17SDcDmcEW6axafW7P5eYrBo1xVjYS0SVqZ518se8Dflo3VmINxxuMbXcMf0r1s-5fr3k9CKKB0vfbGRGQGZHFnXDSe36MAQOo-O36- -KfkT2odavM6f6iiNlnw7qyWrmIv2c2rtKqTfpvNk7AVdQ2BM6HyFj65QNqdPp0ld6zpmxIpTAYJDfJtOdd0DW2DQ8-Ham5i9w7-1dQwJZGXe9KBuP0Ep7c654vdMn_8ASWaPhgsqe76ljAElbjcJgMMMg-HFflyKlD-iz-D4k4vwaQ5QNyayTuKnqxoH2UDiYUZLg4CYe2UlrpLDALWRuRWBj1vXXcQLFcxC4rmhusOMUqtbKaQoZoLE6PoINKYLvlgS-oeIysi8oKfVKdojeSV5gzWo-pEoq-jyfaDVmugIj3uKevP_AYdy1]--></g></svg>