<?xml version="1.0" encoding="UTF-8" standalone="no"?><svg xmlns="http://www.w3.org/2000/svg" xmlns:xlink="http://www.w3.org/1999/xlink" contentStyleType="text/css" height="860px" preserveAspectRatio="none" style="width:1438px;height:860px;background:#FFFFFF;" version="1.1" viewBox="0 0 1438 860" width="1438px" zoomAndPan="magnify"><defs/><g><text fill="#000000" font-family="sans-serif" font-size="14" font-weight="bold" lengthAdjust="spacing" textLength="198" x="613" y="22.9951">Class Diagram - US1006b</text><!--class UI--><g id="elem_UI"><rect codeLine="13" fill="#FEF9E7" height="50" id="UI" rx="2.5" ry="2.5" style="stroke:#181818;stroke-width:0.5;" width="278" x="593" y="44.2969"/><ellipse cx="609" cy="61.2969" fill="#ADD1B2" rx="12" ry="12" style="stroke:#181818;stroke-width:1.0;"/><path d="M612.0625,68.375 Q611.375,68.7344 610.625,68.9063 Q609.875,69.0781 609.0469,69.0781 Q606.0938,69.0781 604.5313,67.1406 Q602.9844,65.1875 602.9844,61.5156 Q602.9844,57.8438 604.5313,55.9063 Q606.0938,53.9531 609.0469,53.9531 Q609.875,53.9531 610.625,54.125 Q611.3906,54.2969 612.0625,54.6563 L612.0625,57.8594 Q611.3125,57.1719 610.6094,56.8594 Q609.9219,56.5469 609.1719,56.5469 Q607.5938,56.5469 606.7813,57.7969 Q605.9844,59.0469 605.9844,61.5156 Q605.9844,63.9844 606.7813,65.2344 Q607.5938,66.4844 609.1719,66.4844 Q609.9219,66.4844 610.6094,66.1719 Q611.3125,65.8594 612.0625,65.1719 L612.0625,68.375 Z " fill="#000000"/><text fill="#000000" font-family="sans-serif" font-size="20" lengthAdjust="spacing" textLength="244" x="624" y="68.2207">DisplayCandidateDataUI</text><line style="stroke:#181818;stroke-width:0.5;" x1="594" x2="870" y1="78.2969" y2="78.2969"/><line style="stroke:#181818;stroke-width:0.5;" x1="594" x2="870" y1="86.2969" y2="86.2969"/></g><!--class DisplayCandidateApplicationsController--><g id="elem_DisplayCandidateApplicationsController"><rect codeLine="15" fill="#FEF9E7" height="73.2813" id="DisplayCandidateApplicationsController" rx="2.5" ry="2.5" style="stroke:#181818;stroke-width:0.5;" width="809" x="327.5" y="154.2969"/><ellipse cx="528" cy="171.2969" fill="#ADD1B2" rx="12" ry="12" style="stroke:#181818;stroke-width:1.0;"/><path d="M531.0625,178.375 Q530.375,178.7344 529.625,178.9063 Q528.875,179.0781 528.0469,179.0781 Q525.0938,179.0781 523.5313,177.1406 Q521.9844,175.1875 521.9844,171.5156 Q521.9844,167.8438 523.5313,165.9063 Q525.0938,163.9531 528.0469,163.9531 Q528.875,163.9531 529.625,164.125 Q530.3906,164.2969 531.0625,164.6563 L531.0625,167.8594 Q530.3125,167.1719 529.6094,166.8594 Q528.9219,166.5469 528.1719,166.5469 Q526.5938,166.5469 525.7813,167.7969 Q524.9844,169.0469 524.9844,171.5156 Q524.9844,173.9844 525.7813,175.2344 Q526.5938,176.4844 528.1719,176.4844 Q528.9219,176.4844 529.6094,176.1719 Q530.3125,175.8594 531.0625,175.1719 L531.0625,178.375 Z " fill="#000000"/><text fill="#000000" font-family="sans-serif" font-size="20" lengthAdjust="spacing" textLength="399" x="550" y="178.2207">DisplayCandidateApplicationsController</text><line style="stroke:#181818;stroke-width:0.5;" x1="328.5" x2="1135.5" y1="188.2969" y2="188.2969"/><line style="stroke:#181818;stroke-width:0.5;" x1="328.5" x2="1135.5" y1="196.2969" y2="196.2969"/><ellipse cx="338.5" cy="213.4375" fill="#84BE84" rx="3" ry="3" style="stroke:#038048;stroke-width:1.0;"/><text fill="#000000" font-family="sans-serif" font-size="20" lengthAdjust="spacing" textLength="782" x="348.5" y="218.8613">findApplicationsFromCandidate(Candidate candidate): List&lt;ApplicationDTO&gt;</text></g><!--class DisplayCandidateApplicationsService--><g id="elem_DisplayCandidateApplicationsService"><rect codeLine="19" fill="#FEF9E7" height="73.2813" id="DisplayCandidateApplicationsService" rx="2.5" ry="2.5" style="stroke:#181818;stroke-width:0.5;" width="809" x="327.5" y="287.2969"/><ellipse cx="541" cy="304.2969" fill="#ADD1B2" rx="12" ry="12" style="stroke:#181818;stroke-width:1.0;"/><path d="M544.0625,311.375 Q543.375,311.7344 542.625,311.9063 Q541.875,312.0781 541.0469,312.0781 Q538.0938,312.0781 536.5313,310.1406 Q534.9844,308.1875 534.9844,304.5156 Q534.9844,300.8438 536.5313,298.9063 Q538.0938,296.9531 541.0469,296.9531 Q541.875,296.9531 542.625,297.125 Q543.3906,297.2969 544.0625,297.6563 L544.0625,300.8594 Q543.3125,300.1719 542.6094,299.8594 Q541.9219,299.5469 541.1719,299.5469 Q539.5938,299.5469 538.7813,300.7969 Q537.9844,302.0469 537.9844,304.5156 Q537.9844,306.9844 538.7813,308.2344 Q539.5938,309.4844 541.1719,309.4844 Q541.9219,309.4844 542.6094,309.1719 Q543.3125,308.8594 544.0625,308.1719 L544.0625,311.375 Z " fill="#000000"/><text fill="#000000" font-family="sans-serif" font-size="20" lengthAdjust="spacing" textLength="373" x="563" y="311.2207">DisplayCandidateApplicationsService</text><line style="stroke:#181818;stroke-width:0.5;" x1="328.5" x2="1135.5" y1="321.2969" y2="321.2969"/><line style="stroke:#181818;stroke-width:0.5;" x1="328.5" x2="1135.5" y1="329.2969" y2="329.2969"/><ellipse cx="338.5" cy="346.4375" fill="#84BE84" rx="3" ry="3" style="stroke:#038048;stroke-width:1.0;"/><text fill="#000000" font-family="sans-serif" font-size="20" lengthAdjust="spacing" textLength="782" x="348.5" y="351.8613">findApplicationsFromCandidate(Candidate candidate): List&lt;ApplicationDTO&gt;</text></g><!--class Application--><g id="elem_Application"><rect codeLine="23" fill="#FEF9E7" height="166.4063" id="Application" rx="2.5" ry="2.5" style="stroke:#181818;stroke-width:0.5;" width="428" x="202" y="420.2969"/><ellipse cx="354.5" cy="437.2969" fill="#ADD1B2" rx="12" ry="12" style="stroke:#181818;stroke-width:1.0;"/><path d="M357.5625,444.375 Q356.875,444.7344 356.125,444.9063 Q355.375,445.0781 354.5469,445.0781 Q351.5938,445.0781 350.0313,443.1406 Q348.4844,441.1875 348.4844,437.5156 Q348.4844,433.8438 350.0313,431.9063 Q351.5938,429.9531 354.5469,429.9531 Q355.375,429.9531 356.125,430.125 Q356.8906,430.2969 357.5625,430.6563 L357.5625,433.8594 Q356.8125,433.1719 356.1094,432.8594 Q355.4219,432.5469 354.6719,432.5469 Q353.0938,432.5469 352.2813,433.7969 Q351.4844,435.0469 351.4844,437.5156 Q351.4844,439.9844 352.2813,441.2344 Q353.0938,442.4844 354.6719,442.4844 Q355.4219,442.4844 356.1094,442.1719 Q356.8125,441.8594 357.5625,441.1719 L357.5625,444.375 Z " fill="#000000"/><text fill="#000000" font-family="sans-serif" font-size="20" lengthAdjust="spacing" textLength="114" x="376.5" y="444.2207">Application</text><line style="stroke:#181818;stroke-width:0.5;" x1="203" x2="629" y1="454.2969" y2="454.2969"/><rect fill="none" height="6" style="stroke:#C82930;stroke-width:1.0;" width="6" x="210" y="468.4375"/><text fill="#000000" font-family="sans-serif" font-size="20" lengthAdjust="spacing" textLength="333" x="223" y="476.8613">applicationDate: ApplicationDate</text><rect fill="none" height="6" style="stroke:#C82930;stroke-width:1.0;" width="6" x="210" y="491.7188"/><text fill="#000000" font-family="sans-serif" font-size="20" lengthAdjust="spacing" textLength="401" x="223" y="500.1426">applicationNumber: ApplicationNumber</text><rect fill="none" height="6" style="stroke:#C82930;stroke-width:1.0;" width="6" x="210" y="515"/><text fill="#000000" font-family="sans-serif" font-size="20" lengthAdjust="spacing" textLength="133" x="223" y="523.4238">result: Result</text><rect fill="none" height="6" style="stroke:#C82930;stroke-width:1.0;" width="6" x="210" y="538.2813"/><text fill="#000000" font-family="sans-serif" font-size="20" lengthAdjust="spacing" textLength="247" x="223" y="546.7051">jobOpening: JobOpening</text><line style="stroke:#181818;stroke-width:0.5;" x1="203" x2="629" y1="555.4219" y2="555.4219"/><ellipse cx="213" cy="572.5625" fill="#84BE84" rx="3" ry="3" style="stroke:#038048;stroke-width:1.0;"/><text fill="#000000" font-family="sans-serif" font-size="20" lengthAdjust="spacing" textLength="249" x="223" y="577.9863">toDTO(): ApplicationDTO</text></g><!--class ApplicationDTO--><g id="elem_ApplicationDTO"><rect codeLine="31" fill="#FEF9E7" height="73.2813" id="ApplicationDTO" rx="2.5" ry="2.5" style="stroke:#181818;stroke-width:0.5;" width="274" x="7" y="658.2969"/><ellipse cx="61" cy="675.2969" fill="#ADD1B2" rx="12" ry="12" style="stroke:#181818;stroke-width:1.0;"/><path d="M64.0625,682.375 Q63.375,682.7344 62.625,682.9063 Q61.875,683.0781 61.0469,683.0781 Q58.0938,683.0781 56.5313,681.1406 Q54.9844,679.1875 54.9844,675.5156 Q54.9844,671.8438 56.5313,669.9063 Q58.0938,667.9531 61.0469,667.9531 Q61.875,667.9531 62.625,668.125 Q63.3906,668.2969 64.0625,668.6563 L64.0625,671.8594 Q63.3125,671.1719 62.6094,670.8594 Q61.9219,670.5469 61.1719,670.5469 Q59.5938,670.5469 58.7813,671.7969 Q57.9844,673.0469 57.9844,675.5156 Q57.9844,677.9844 58.7813,679.2344 Q59.5938,680.4844 61.1719,680.4844 Q61.9219,680.4844 62.6094,680.1719 Q63.3125,679.8594 64.0625,679.1719 L64.0625,682.375 Z " fill="#000000"/><text fill="#000000" font-family="sans-serif" font-size="20" lengthAdjust="spacing" textLength="157" x="83" y="682.2207">ApplicationDTO</text><line style="stroke:#181818;stroke-width:0.5;" x1="8" x2="280" y1="692.2969" y2="692.2969"/><rect fill="none" height="6" style="stroke:#C82930;stroke-width:1.0;" width="6" x="15" y="706.4375"/><text fill="#000000" font-family="sans-serif" font-size="20" lengthAdjust="spacing" textLength="247" x="28" y="714.8613">jobOpening: JobOpening</text><line style="stroke:#181818;stroke-width:0.5;" x1="8" x2="280" y1="723.5781" y2="723.5781"/></g><!--class ApplicationRepository--><g id="elem_ApplicationRepository"><rect codeLine="35" fill="#FEF9E7" height="73.2813" id="ApplicationRepository" rx="2.5" ry="2.5" style="stroke:#181818;stroke-width:0.5;" width="766" x="665" y="466.7969"/><ellipse cx="933.5" cy="483.7969" fill="#ADD1B2" rx="12" ry="12" style="stroke:#181818;stroke-width:1.0;"/><path d="M936.5625,490.875 Q935.875,491.2344 935.125,491.4063 Q934.375,491.5781 933.5469,491.5781 Q930.5938,491.5781 929.0313,489.6406 Q927.4844,487.6875 927.4844,484.0156 Q927.4844,480.3438 929.0313,478.4063 Q930.5938,476.4531 933.5469,476.4531 Q934.375,476.4531 935.125,476.625 Q935.8906,476.7969 936.5625,477.1563 L936.5625,480.3594 Q935.8125,479.6719 935.1094,479.3594 Q934.4219,479.0469 933.6719,479.0469 Q932.0938,479.0469 931.2813,480.2969 Q930.4844,481.5469 930.4844,484.0156 Q930.4844,486.4844 931.2813,487.7344 Q932.0938,488.9844 933.6719,488.9844 Q934.4219,488.9844 935.1094,488.6719 Q935.8125,488.3594 936.5625,487.6719 L936.5625,490.875 Z " fill="#000000"/><text fill="#000000" font-family="sans-serif" font-size="20" lengthAdjust="spacing" textLength="220" x="955.5" y="490.7207">ApplicationRepository</text><line style="stroke:#181818;stroke-width:0.5;" x1="666" x2="1430" y1="500.7969" y2="500.7969"/><line style="stroke:#181818;stroke-width:0.5;" x1="666" x2="1430" y1="508.7969" y2="508.7969"/><ellipse cx="676" cy="525.9375" fill="#84BE84" rx="3" ry="3" style="stroke:#038048;stroke-width:1.0;"/><text fill="#000000" font-family="sans-serif" font-size="20" lengthAdjust="spacing" textLength="739" x="686" y="531.3613">findApplicationsFromCandidate(Candidate candidate): List&lt;Application&gt;</text></g><!--class JpaApplicationRepository--><g id="elem_JpaApplicationRepository"><rect codeLine="39" fill="#FEF9E7" height="73.2813" id="JpaApplicationRepository" rx="2.5" ry="2.5" style="stroke:#181818;stroke-width:0.5;" width="766" x="665" y="658.2969"/><ellipse cx="918" cy="675.2969" fill="#ADD1B2" rx="12" ry="12" style="stroke:#181818;stroke-width:1.0;"/><path d="M921.0625,682.375 Q920.375,682.7344 919.625,682.9063 Q918.875,683.0781 918.0469,683.0781 Q915.0938,683.0781 913.5313,681.1406 Q911.9844,679.1875 911.9844,675.5156 Q911.9844,671.8438 913.5313,669.9063 Q915.0938,667.9531 918.0469,667.9531 Q918.875,667.9531 919.625,668.125 Q920.3906,668.2969 921.0625,668.6563 L921.0625,671.8594 Q920.3125,671.1719 919.6094,670.8594 Q918.9219,670.5469 918.1719,670.5469 Q916.5938,670.5469 915.7813,671.7969 Q914.9844,673.0469 914.9844,675.5156 Q914.9844,677.9844 915.7813,679.2344 Q916.5938,680.4844 918.1719,680.4844 Q918.9219,680.4844 919.6094,680.1719 Q920.3125,679.8594 921.0625,679.1719 L921.0625,682.375 Z " fill="#000000"/><text fill="#000000" font-family="sans-serif" font-size="20" lengthAdjust="spacing" textLength="251" x="940" y="682.2207">JpaApplicationRepository</text><line style="stroke:#181818;stroke-width:0.5;" x1="666" x2="1430" y1="692.2969" y2="692.2969"/><line style="stroke:#181818;stroke-width:0.5;" x1="666" x2="1430" y1="700.2969" y2="700.2969"/><ellipse cx="676" cy="717.4375" fill="#84BE84" rx="3" ry="3" style="stroke:#038048;stroke-width:1.0;"/><text fill="#000000" font-family="sans-serif" font-size="20" lengthAdjust="spacing" textLength="739" x="686" y="722.8613">findApplicationsFromCandidate(Candidate candidate): List&lt;Application&gt;</text></g><!--class DB--><g id="elem_DB"><rect codeLine="43" fill="#FEF9E7" height="50" id="DB" rx="2.5" ry="2.5" style="stroke:#181818;stroke-width:0.5;" width="128" x="984" y="803.2969"/><ellipse cx="1000" cy="820.2969" fill="#8BEBFF" rx="12" ry="12" style="stroke:#181818;stroke-width:1.0;"/><path d="M1000.2188,815.8125 L1000.2188,825.2031 L1001,825.2031 Q1002.7031,825.2031 1003.4219,824.1406 Q1004.1406,823.0625 1004.1406,820.4844 Q1004.1406,817.9375 1003.4219,816.875 Q1002.7031,815.8125 1001,815.8125 L1000.2188,815.8125 Z M997.3438,813.2188 L1000.4219,813.2188 Q1004,813.2188 1005.5625,814.9219 Q1007.1406,816.625 1007.1406,820.4844 Q1007.1406,824.375 1005.5625,826.0938 Q1004,827.7969 1000.4219,827.7969 L997.3438,827.7969 L997.3438,813.2188 Z " fill="#000000"/><text fill="#000000" font-family="sans-serif" font-size="20" lengthAdjust="spacing" textLength="94" x="1015" y="827.2207">Database</text><line style="stroke:#181818;stroke-width:0.5;" x1="985" x2="1111" y1="837.2969" y2="837.2969"/><line style="stroke:#181818;stroke-width:0.5;" x1="985" x2="1111" y1="845.2969" y2="845.2969"/></g><!--class Result--><g id="elem_Result"><rect codeLine="46" fill="#FEF9E7" height="96.5625" id="Result" rx="2.5" ry="2.5" style="stroke:#181818;stroke-width:0.5;" width="276" x="316" y="646.2969"/><ellipse cx="418" cy="663.2969" fill="#ADD1B2" rx="12" ry="12" style="stroke:#181818;stroke-width:1.0;"/><path d="M421.0625,670.375 Q420.375,670.7344 419.625,670.9063 Q418.875,671.0781 418.0469,671.0781 Q415.0938,671.0781 413.5313,669.1406 Q411.9844,667.1875 411.9844,663.5156 Q411.9844,659.8438 413.5313,657.9063 Q415.0938,655.9531 418.0469,655.9531 Q418.875,655.9531 419.625,656.125 Q420.3906,656.2969 421.0625,656.6563 L421.0625,659.8594 Q420.3125,659.1719 419.6094,658.8594 Q418.9219,658.5469 418.1719,658.5469 Q416.5938,658.5469 415.7813,659.7969 Q414.9844,661.0469 414.9844,663.5156 Q414.9844,665.9844 415.7813,667.2344 Q416.5938,668.4844 418.1719,668.4844 Q418.9219,668.4844 419.6094,668.1719 Q420.3125,667.8594 421.0625,667.1719 L421.0625,670.375 Z " fill="#000000"/><text fill="#000000" font-family="sans-serif" font-size="20" lengthAdjust="spacing" textLength="63" x="440" y="670.2207">Result</text><line style="stroke:#181818;stroke-width:0.5;" x1="317" x2="591" y1="680.2969" y2="680.2969"/><rect fill="none" height="6" style="stroke:#C82930;stroke-width:1.0;" width="6" x="324" y="694.4375"/><text fill="#000000" font-family="sans-serif" font-size="20" lengthAdjust="spacing" textLength="193" x="337" y="702.8613">outcome: Outcome</text><rect fill="none" height="6" style="stroke:#C82930;stroke-width:1.0;" width="6" x="324" y="717.7188"/><text fill="#000000" font-family="sans-serif" font-size="20" lengthAdjust="spacing" textLength="249" x="337" y="726.1426">justification: Justification</text><line style="stroke:#181818;stroke-width:0.5;" x1="317" x2="591" y1="734.8594" y2="734.8594"/></g><!--link UI to DisplayCandidateApplicationsController--><g id="link_UI_DisplayCandidateApplicationsController"><path codeLine="51" d="M732,94.4769 C732,110.0669 732,130.7269 732,148.8269 " fill="none" id="UI-to-DisplayCandidateApplicationsController" style="stroke:#000000;stroke-width:1.0;"/><polygon fill="#000000" points="732,153.8569,736,144.8569,732,148.8569,728,144.8569,732,153.8569" style="stroke:#000000;stroke-width:1.0;"/></g><!--link DisplayCandidateApplicationsController to DisplayCandidateApplicationsService--><g id="link_DisplayCandidateApplicationsController_DisplayCandidateApplicationsService"><path codeLine="52" d="M732,227.5969 C732,244.3469 732,264.3869 732,281.7469 " fill="none" id="DisplayCandidateApplicationsController-to-DisplayCandidateApplicationsService" style="stroke:#000000;stroke-width:1.0;"/><polygon fill="#000000" points="732,287.0469,736,278.0469,732,282.0469,728,278.0469,732,287.0469" style="stroke:#000000;stroke-width:1.0;"/></g><!--link DisplayCandidateApplicationsService to ApplicationRepository--><g id="link_DisplayCandidateApplicationsService_ApplicationRepository"><path codeLine="53" d="M795.57,360.5069 C849.03,390.5369 925.29,433.3669 979.97,464.0869 " fill="none" id="DisplayCandidateApplicationsService-to-ApplicationRepository" style="stroke:#000000;stroke-width:1.0;"/><polygon fill="#000000" points="984.53,466.6469,978.6358,458.7565,980.1687,464.2017,974.7235,465.7346,984.53,466.6469" style="stroke:#000000;stroke-width:1.0;"/></g><!--link DisplayCandidateApplicationsService to Application--><g id="link_DisplayCandidateApplicationsService_Application"><path codeLine="54" d="M668.43,360.5069 C638.9,377.0869 602.42,397.5769 566.47,417.7769 " fill="none" id="DisplayCandidateApplicationsService-to-Application" style="stroke:#000000;stroke-width:1.0;"/><polygon fill="#000000" points="562.08,420.2369,571.8865,419.3246,566.4413,417.7917,567.9742,412.3465,562.08,420.2369" style="stroke:#000000;stroke-width:1.0;"/></g><!--link ApplicationRepository to JpaApplicationRepository--><g id="link_ApplicationRepository_JpaApplicationRepository"><path codeLine="55" d="M1048,539.9369 C1048,571.9969 1048,619.0869 1048,652.7169 " fill="none" id="ApplicationRepository-to-JpaApplicationRepository" style="stroke:#000000;stroke-width:1.0;"/><polygon fill="#000000" points="1048,657.9869,1052,648.9869,1048,652.9869,1044,648.9869,1048,657.9869" style="stroke:#000000;stroke-width:1.0;"/></g><!--link JpaApplicationRepository to DB--><g id="link_JpaApplicationRepository_DB"><path codeLine="56" d="M1048,731.3869 C1048,752.1869 1048,778.1469 1048,797.8069 " fill="none" id="JpaApplicationRepository-to-DB" style="stroke:#000000;stroke-width:1.0;"/><polygon fill="#000000" points="1048,802.9169,1052,793.9169,1048,797.9169,1044,793.9169,1048,802.9169" style="stroke:#000000;stroke-width:1.0;"/></g><!--link Application to ApplicationDTO--><g id="link_Application_ApplicationDTO"><path codeLine="57" d="M298.28,586.3169 C263.79,610.3369 227.71,635.4769 199.12,655.3969 " fill="none" id="Application-to-ApplicationDTO" style="stroke:#000000;stroke-width:1.0;"/><polygon fill="#000000" points="194.96,658.2969,204.6339,656.4488,199.0668,655.4449,200.0707,649.8778,194.96,658.2969" style="stroke:#000000;stroke-width:1.0;"/></g><!--link Application to Result--><g id="link_Application_Result"><path codeLine="58" d="M432.45,586.3169 C436.15,604.8069 440,623.9569 443.39,640.8769 " fill="none" id="Application-to-Result" style="stroke:#000000;stroke-width:1.0;"/><polygon fill="#000000" points="444.43,646.0569,446.5765,636.4448,443.4439,641.1551,438.7336,638.0225,444.43,646.0569" style="stroke:#000000;stroke-width:1.0;"/></g><!--SRC=[jLFRRjim37tNLn3jIu8rGBQ7RGs2074S0ocA1MYQ3w1bnTEYI88aht2B_VlaIrBNZL6ZQFrYNWuFIP6qUour6Zm8HVSiWOJjC1CkKj9j-2E3RsD277U2mKAWjH1oJ3qQHh3TV1sFlyU4s2C5q1BoHC1_BUlSESFZpB4LLR9a7hTW6kaUKxPnkKzc67KeKy5Q8FiR4_N0PGex5BRj5Lmobsi6MecyK4f_u8bJepAPB9HG1YwZPNIz_57wviQeXyeS28yZ_mYfkhW8kTK2ymNAX2VeM8WEjwiBG0lR5Jnr0-TQ2qxHSINjmh-ZKK8mKmRsWzOl-6N7PT94H4OTJg63amJqA0qdSCkjcpQ2mllrZFIhTSFCNqxPcuNMk4-iik4fgsdeTTOHDe8zvwI9AGolKB-oGypC2rnbgf26MR_s4xWh_vNjZuhNcac_RHEuESbLrqxvcWV3btdlr-URy8vs7zvqRAKZpLccEwQLvKwPl4tuxFd8mJIdSgEnkv8kvsSLKrnZZBRUrW2cqq5u1PS_WsKGHSFPpETz1bT3BQ6LU7nwbJcg3dvxrfLG3oIpZk_gf7ucJRLWzUS_6irw7ZFfUVDlCTPNH_fSPi5rTXhlYIRdvrgWkePEEhUXx39eKhRJ5KVKTjT7-Hy0]--></g></svg>