<?xml version="1.0" encoding="UTF-8" standalone="no"?><svg xmlns="http://www.w3.org/2000/svg" xmlns:xlink="http://www.w3.org/1999/xlink" contentStyleType="text/css" height="1697px" preserveAspectRatio="none" style="width:2908px;height:1697px;background:#FFFFFF;" version="1.1" viewBox="0 0 2908 1697" width="2908px" zoomAndPan="magnify"><defs/><g><text fill="#000000" font-family="sans-serif" font-size="14" font-weight="bold" lengthAdjust="spacing" textLength="439" x="1232" y="27.9951">US1006b - SD - Display Candidate Data and Applications</text><rect fill="#FFFFFF" height="1455.7813" style="stroke:#181818;stroke-width:1.0;" width="10" x="98" y="135.5781"/><rect fill="#FFFFFF" height="191.9688" style="stroke:#181818;stroke-width:1.0;" width="10" x="335" y="234.7031"/><rect fill="#FFFFFF" height="1104.125" style="stroke:#181818;stroke-width:1.0;" width="10" x="335" y="487.2344"/><rect fill="#FFFFFF" height="875.875" style="stroke:#181818;stroke-width:1.0;" width="10" x="680.5" y="631.6406"/><rect fill="#FFFFFF" height="778.0313" style="stroke:#181818;stroke-width:1.0;" width="10" x="1138.5" y="692.2031"/><rect fill="#FFFFFF" height="483.5" style="stroke:#181818;stroke-width:1.0;" width="10" x="1596.5" y="752.7656"/><rect fill="#FFFFFF" height="385.6563" style="stroke:#181818;stroke-width:1.0;" width="10" x="2054.5" y="813.3281"/><rect fill="#FFFFFF" height="111.8438" style="stroke:#181818;stroke-width:1.0;" width="10" x="2507.5" y="1314.1094"/><rect fill="#FFFFFF" height="37.2813" style="stroke:#181818;stroke-width:1.0;" width="10" x="2698.5" y="1351.3906"/><rect fill="#FFFFFF" height="97.8438" style="stroke:#181818;stroke-width:1.0;" width="10" x="2844" y="1063.8594"/><rect fill="none" height="182.6875" style="stroke:#000000;stroke-width:1.5;" width="1859" x="940" y="1251.2656"/><line style="stroke:#181818;stroke-width:0.5;stroke-dasharray:5.0,5.0;" x1="103" x2="103" y1="125.5781" y2="1609.3594"/><line style="stroke:#181818;stroke-width:0.5;stroke-dasharray:5.0,5.0;" x1="340" x2="340" y1="125.5781" y2="1609.3594"/><line style="stroke:#181818;stroke-width:0.5;stroke-dasharray:5.0,5.0;" x1="685" x2="685" y1="125.5781" y2="1609.3594"/><line style="stroke:#181818;stroke-width:0.5;stroke-dasharray:5.0,5.0;" x1="1143" x2="1143" y1="125.5781" y2="1609.3594"/><line style="stroke:#181818;stroke-width:0.5;stroke-dasharray:5.0,5.0;" x1="1601.5" x2="1601.5" y1="125.5781" y2="1609.3594"/><line style="stroke:#181818;stroke-width:0.5;stroke-dasharray:5.0,5.0;" x1="2059" x2="2059" y1="125.5781" y2="1609.3594"/><line style="stroke:#181818;stroke-width:0.5;stroke-dasharray:5.0,5.0;" x1="2512.5" x2="2512.5" y1="125.5781" y2="1609.3594"/><line style="stroke:#181818;stroke-width:0.5;stroke-dasharray:5.0,5.0;" x1="2703" x2="2703" y1="125.5781" y2="1609.3594"/><line style="stroke:#181818;stroke-width:0.5;stroke-dasharray:5.0,5.0;" x1="2849" x2="2849" y1="125.5781" y2="1609.3594"/><text fill="#000000" font-family="sans-serif" font-size="20" lengthAdjust="spacing" text-decoration="underline" textLength="190" x="5" y="120.8613">Customer Manager</text><ellipse cx="103" cy="50.7969" fill="#E2E2F0" rx="8" ry="8" style="stroke:#181818;stroke-width:0.5;"/><path d="M103,58.7969 L103,85.7969 M90,66.7969 L116,66.7969 M103,85.7969 L90,100.7969 M103,85.7969 L116,100.7969 " fill="none" style="stroke:#181818;stroke-width:0.5;"/><text fill="#000000" font-family="sans-serif" font-size="20" lengthAdjust="spacing" text-decoration="underline" textLength="190" x="5" y="1626.9238">Customer Manager</text><ellipse cx="103" cy="1640.1406" fill="#E2E2F0" rx="8" ry="8" style="stroke:#181818;stroke-width:0.5;"/><path d="M103,1648.1406 L103,1675.1406 M90,1656.1406 L116,1656.1406 M103,1675.1406 L90,1690.1406 M103,1675.1406 L116,1690.1406 " fill="none" style="stroke:#181818;stroke-width:0.5;"/><rect fill="#E2E2F0" height="37.2813" rx="2.5" ry="2.5" style="stroke:#181818;stroke-width:0.5;" width="258" x="211" y="87.2969"/><text fill="#000000" font-family="sans-serif" font-size="20" lengthAdjust="spacing" text-decoration="underline" textLength="244" x="218" y="112.8613">DisplayCandidateDataUI</text><rect fill="#E2E2F0" height="37.2813" rx="2.5" ry="2.5" style="stroke:#181818;stroke-width:0.5;" width="258" x="211" y="1608.3594"/><text fill="#000000" font-family="sans-serif" font-size="20" lengthAdjust="spacing" text-decoration="underline" textLength="244" x="218" y="1633.9238">DisplayCandidateDataUI</text><rect fill="#E2E2F0" height="37.2813" rx="2.5" ry="2.5" style="stroke:#181818;stroke-width:0.5;" width="413" x="479" y="87.2969"/><text fill="#000000" font-family="sans-serif" font-size="20" lengthAdjust="spacing" text-decoration="underline" textLength="399" x="486" y="112.8613">DisplayCandidateApplicationsController</text><rect fill="#E2E2F0" height="37.2813" rx="2.5" ry="2.5" style="stroke:#181818;stroke-width:0.5;" width="413" x="479" y="1608.3594"/><text fill="#000000" font-family="sans-serif" font-size="20" lengthAdjust="spacing" text-decoration="underline" textLength="399" x="486" y="1633.9238">DisplayCandidateApplicationsController</text><rect fill="#E2E2F0" height="37.2813" rx="2.5" ry="2.5" style="stroke:#181818;stroke-width:0.5;" width="387" x="950" y="87.2969"/><text fill="#000000" font-family="sans-serif" font-size="20" lengthAdjust="spacing" text-decoration="underline" textLength="373" x="957" y="112.8613">DisplayCandidateApplicationsService</text><rect fill="#E2E2F0" height="37.2813" rx="2.5" ry="2.5" style="stroke:#181818;stroke-width:0.5;" width="387" x="950" y="1608.3594"/><text fill="#000000" font-family="sans-serif" font-size="20" lengthAdjust="spacing" text-decoration="underline" textLength="373" x="957" y="1633.9238">DisplayCandidateApplicationsService</text><rect fill="#E2E2F0" height="37.2813" rx="2.5" ry="2.5" style="stroke:#181818;stroke-width:0.5;" width="234" x="1484.5" y="87.2969"/><text fill="#000000" font-family="sans-serif" font-size="20" lengthAdjust="spacing" text-decoration="underline" textLength="220" x="1491.5" y="112.8613">ApplicationRepository</text><rect fill="#E2E2F0" height="37.2813" rx="2.5" ry="2.5" style="stroke:#181818;stroke-width:0.5;" width="234" x="1484.5" y="1608.3594"/><text fill="#000000" font-family="sans-serif" font-size="20" lengthAdjust="spacing" text-decoration="underline" textLength="220" x="1491.5" y="1633.9238">ApplicationRepository</text><rect fill="#E2E2F0" height="37.2813" rx="2.5" ry="2.5" style="stroke:#181818;stroke-width:0.5;" width="265" x="1927" y="87.2969"/><text fill="#000000" font-family="sans-serif" font-size="20" lengthAdjust="spacing" text-decoration="underline" textLength="251" x="1934" y="112.8613">JpaApplicationRepository</text><rect fill="#E2E2F0" height="37.2813" rx="2.5" ry="2.5" style="stroke:#181818;stroke-width:0.5;" width="265" x="1927" y="1608.3594"/><text fill="#000000" font-family="sans-serif" font-size="20" lengthAdjust="spacing" text-decoration="underline" textLength="251" x="1934" y="1633.9238">JpaApplicationRepository</text><rect fill="#E2E2F0" height="37.2813" rx="2.5" ry="2.5" style="stroke:#181818;stroke-width:0.5;" width="128" x="2448.5" y="87.2969"/><text fill="#000000" font-family="sans-serif" font-size="20" lengthAdjust="spacing" text-decoration="underline" textLength="114" x="2455.5" y="112.8613">Application</text><rect fill="#E2E2F0" height="37.2813" rx="2.5" ry="2.5" style="stroke:#181818;stroke-width:0.5;" width="128" x="2448.5" y="1608.3594"/><text fill="#000000" font-family="sans-serif" font-size="20" lengthAdjust="spacing" text-decoration="underline" textLength="114" x="2455.5" y="1633.9238">Application</text><rect fill="#E2E2F0" height="37.2813" rx="2.5" ry="2.5" style="stroke:#181818;stroke-width:0.5;" width="171" x="2618" y="87.2969"/><text fill="#000000" font-family="sans-serif" font-size="20" lengthAdjust="spacing" text-decoration="underline" textLength="157" x="2625" y="112.8613">ApplicationDTO</text><rect fill="#E2E2F0" height="37.2813" rx="2.5" ry="2.5" style="stroke:#181818;stroke-width:0.5;" width="171" x="2618" y="1608.3594"/><text fill="#000000" font-family="sans-serif" font-size="20" lengthAdjust="spacing" text-decoration="underline" textLength="157" x="2625" y="1633.9238">ApplicationDTO</text><text fill="#000000" font-family="sans-serif" font-size="20" lengthAdjust="spacing" text-decoration="underline" textLength="94" x="2799" y="120.8613">Database</text><path d="M2831,66.2969 C2831,56.2969 2849,56.2969 2849,56.2969 C2849,56.2969 2867,56.2969 2867,66.2969 L2867,92.2969 C2867,102.2969 2849,102.2969 2849,102.2969 C2849,102.2969 2831,102.2969 2831,92.2969 L2831,66.2969 " fill="#E2E2F0" style="stroke:#181818;stroke-width:1.5;"/><path d="M2831,66.2969 C2831,76.2969 2849,76.2969 2849,76.2969 C2849,76.2969 2867,76.2969 2867,66.2969 " fill="none" style="stroke:#181818;stroke-width:1.5;"/><text fill="#000000" font-family="sans-serif" font-size="20" lengthAdjust="spacing" text-decoration="underline" textLength="94" x="2799" y="1626.9238">Database</text><path d="M2831,1641.6406 C2831,1631.6406 2849,1631.6406 2849,1631.6406 C2849,1631.6406 2867,1631.6406 2867,1641.6406 L2867,1667.6406 C2867,1677.6406 2849,1677.6406 2849,1677.6406 C2849,1677.6406 2831,1677.6406 2831,1667.6406 L2831,1641.6406 " fill="#E2E2F0" style="stroke:#181818;stroke-width:1.5;"/><path d="M2831,1641.6406 C2831,1651.6406 2849,1651.6406 2849,1651.6406 C2849,1651.6406 2867,1651.6406 2867,1641.6406 " fill="none" style="stroke:#181818;stroke-width:1.5;"/><rect fill="#FFFFFF" height="1455.7813" style="stroke:#181818;stroke-width:1.0;" width="10" x="98" y="135.5781"/><rect fill="#FFFFFF" height="191.9688" style="stroke:#181818;stroke-width:1.0;" width="10" x="335" y="234.7031"/><rect fill="#FFFFFF" height="1104.125" style="stroke:#181818;stroke-width:1.0;" width="10" x="335" y="487.2344"/><rect fill="#FFFFFF" height="875.875" style="stroke:#181818;stroke-width:1.0;" width="10" x="680.5" y="631.6406"/><rect fill="#FFFFFF" height="778.0313" style="stroke:#181818;stroke-width:1.0;" width="10" x="1138.5" y="692.2031"/><rect fill="#FFFFFF" height="483.5" style="stroke:#181818;stroke-width:1.0;" width="10" x="1596.5" y="752.7656"/><rect fill="#FFFFFF" height="385.6563" style="stroke:#181818;stroke-width:1.0;" width="10" x="2054.5" y="813.3281"/><rect fill="#FFFFFF" height="111.8438" style="stroke:#181818;stroke-width:1.0;" width="10" x="2507.5" y="1314.1094"/><rect fill="#FFFFFF" height="37.2813" style="stroke:#181818;stroke-width:1.0;" width="10" x="2698.5" y="1351.3906"/><rect fill="#FFFFFF" height="97.8438" style="stroke:#181818;stroke-width:1.0;" width="10" x="2844" y="1063.8594"/><polygon fill="#181818" points="323,230.7031,333,234.7031,323,238.7031,327,234.7031" style="stroke:#181818;stroke-width:1.0;"/><line style="stroke:#181818;stroke-width:1.0;" x1="108" x2="329" y1="234.7031" y2="234.7031"/><text fill="#000000" font-family="sans-serif" font-size="20" lengthAdjust="spacing" textLength="46" x="115" y="158.1426">Asks</text><text fill="#000000" font-family="sans-serif" font-size="20" lengthAdjust="spacing" textLength="6" x="161" y="158.1426"> </text><text fill="#000000" font-family="sans-serif" font-size="20" lengthAdjust="spacing" textLength="20" x="167" y="158.1426">to</text><text fill="#000000" font-family="sans-serif" font-size="20" lengthAdjust="spacing" textLength="6" x="187" y="158.1426"> </text><text fill="#000000" font-family="sans-serif" font-size="20" lengthAdjust="spacing" textLength="71" x="193" y="158.1426">display</text><text fill="#000000" font-family="sans-serif" font-size="20" lengthAdjust="spacing" textLength="33" x="115" y="181.4238">the</text><text fill="#000000" font-family="sans-serif" font-size="20" lengthAdjust="spacing" textLength="6" x="148" y="181.4238"> </text><text fill="#000000" font-family="sans-serif" font-size="20" lengthAdjust="spacing" textLength="86" x="154" y="181.4238">personal</text><text fill="#000000" font-family="sans-serif" font-size="20" lengthAdjust="spacing" textLength="45" x="115" y="204.7051">data</text><text fill="#000000" font-family="sans-serif" font-size="20" lengthAdjust="spacing" textLength="6" x="160" y="204.7051"> </text><text fill="#000000" font-family="sans-serif" font-size="20" lengthAdjust="spacing" textLength="19" x="166" y="204.7051">of</text><text fill="#000000" font-family="sans-serif" font-size="20" lengthAdjust="spacing" textLength="6" x="185" y="204.7051"> </text><text fill="#000000" font-family="sans-serif" font-size="20" lengthAdjust="spacing" textLength="12" x="191" y="204.7051">a</text><text fill="#000000" font-family="sans-serif" font-size="20" lengthAdjust="spacing" textLength="100" x="115" y="227.9863">candidate</text><rect fill="none" height="79.8438" style="stroke:#000000;stroke-width:1.5;" width="2900" x="2" y="242.7031"/><path d="M2,242.7031 L80,242.7031 L80,257.7031 L70,267.7031 L2,267.7031 L2,242.7031 " fill="#EEEEEE" style="stroke:#000000;stroke-width:2.0;"/><text fill="#000000" font-family="sans-serif" font-size="20" font-weight="bold" lengthAdjust="spacing" textLength="33" x="15" y="263.2676">ref</text><text fill="#000000" font-family="sans-serif" font-size="20" lengthAdjust="spacing" textLength="151" x="1376.5" y="290.2676">List candidates</text><text fill="#000000" font-family="sans-serif" font-size="20" lengthAdjust="spacing" textLength="113" x="1395.5" y="313.5488">(US 2000c)</text><polygon fill="#181818" points="119,422.6719,109,426.6719,119,430.6719,115,426.6719" style="stroke:#181818;stroke-width:1.0;"/><line style="stroke:#181818;stroke-width:1.0;" x1="113" x2="339" y1="426.6719" y2="426.6719"/><text fill="#000000" font-family="sans-serif" font-size="20" lengthAdjust="spacing" textLength="65" x="125" y="350.1113">Shows</text><text fill="#000000" font-family="sans-serif" font-size="20" lengthAdjust="spacing" textLength="6" x="190" y="350.1113"> </text><text fill="#000000" font-family="sans-serif" font-size="20" lengthAdjust="spacing" textLength="30" x="196" y="350.1113">list</text><text fill="#000000" font-family="sans-serif" font-size="20" lengthAdjust="spacing" textLength="6" x="226" y="350.1113"> </text><text fill="#000000" font-family="sans-serif" font-size="20" lengthAdjust="spacing" textLength="19" x="232" y="350.1113">of</text><text fill="#000000" font-family="sans-serif" font-size="20" lengthAdjust="spacing" textLength="110" x="125" y="373.3926">candidates</text><text fill="#000000" font-family="sans-serif" font-size="20" lengthAdjust="spacing" textLength="38" x="125" y="396.6738">and</text><text fill="#000000" font-family="sans-serif" font-size="20" lengthAdjust="spacing" textLength="6" x="163" y="396.6738"> </text><text fill="#000000" font-family="sans-serif" font-size="20" lengthAdjust="spacing" textLength="44" x="169" y="396.6738">asks</text><text fill="#000000" font-family="sans-serif" font-size="20" lengthAdjust="spacing" textLength="6" x="213" y="396.6738"> </text><text fill="#000000" font-family="sans-serif" font-size="20" lengthAdjust="spacing" textLength="20" x="219" y="396.6738">to</text><text fill="#000000" font-family="sans-serif" font-size="20" lengthAdjust="spacing" textLength="59" x="125" y="419.9551">select</text><text fill="#000000" font-family="sans-serif" font-size="20" lengthAdjust="spacing" textLength="6" x="184" y="419.9551"> </text><text fill="#000000" font-family="sans-serif" font-size="20" lengthAdjust="spacing" textLength="37" x="190" y="419.9551">one</text><polygon fill="#181818" points="323,483.2344,333,487.2344,323,491.2344,327,487.2344" style="stroke:#181818;stroke-width:1.0;"/><line style="stroke:#181818;stroke-width:1.0;" x1="108" x2="329" y1="487.2344" y2="487.2344"/><text fill="#000000" font-family="sans-serif" font-size="20" lengthAdjust="spacing" textLength="72" x="115" y="457.2363">Selects</text><text fill="#000000" font-family="sans-serif" font-size="20" lengthAdjust="spacing" textLength="6" x="187" y="457.2363"> </text><text fill="#000000" font-family="sans-serif" font-size="20" lengthAdjust="spacing" textLength="12" x="193" y="457.2363">a</text><text fill="#000000" font-family="sans-serif" font-size="20" lengthAdjust="spacing" textLength="100" x="115" y="480.5176">candidate</text><polygon fill="#181818" points="119,567.0781,109,571.0781,119,575.0781,115,571.0781" style="stroke:#181818;stroke-width:1.0;"/><line style="stroke:#181818;stroke-width:1.0;" x1="113" x2="334" y1="571.0781" y2="571.0781"/><text fill="#000000" font-family="sans-serif" font-size="20" lengthAdjust="spacing" textLength="83" x="125" y="517.7988">Displays</text><text fill="#000000" font-family="sans-serif" font-size="20" lengthAdjust="spacing" textLength="103" x="125" y="541.0801">Candidate</text><text fill="#000000" font-family="sans-serif" font-size="20" lengthAdjust="spacing" textLength="47" x="125" y="564.3613">Data</text><polygon fill="#181818" points="668.5,627.6406,678.5,631.6406,668.5,635.6406,672.5,631.6406" style="stroke:#181818;stroke-width:1.0;"/><line style="stroke:#181818;stroke-width:1.0;" x1="345" x2="674.5" y1="631.6406" y2="631.6406"/><text fill="#000000" font-family="sans-serif" font-size="20" lengthAdjust="spacing" textLength="268" x="352" y="601.6426">getApplications(Candidate</text><text fill="#000000" font-family="sans-serif" font-size="20" lengthAdjust="spacing" textLength="108" x="352" y="624.9238">candidate)</text><polygon fill="#181818" points="1126.5,688.2031,1136.5,692.2031,1126.5,696.2031,1130.5,692.2031" style="stroke:#181818;stroke-width:1.0;"/><line style="stroke:#181818;stroke-width:1.0;" x1="690.5" x2="1132.5" y1="692.2031" y2="692.2031"/><text fill="#000000" font-family="sans-serif" font-size="20" lengthAdjust="spacing" textLength="429" x="697.5" y="662.2051">findApplicationsFromCandidate(Candidate</text><text fill="#000000" font-family="sans-serif" font-size="20" lengthAdjust="spacing" textLength="108" x="697.5" y="685.4863">candidate)</text><polygon fill="#181818" points="1584.5,748.7656,1594.5,752.7656,1584.5,756.7656,1588.5,752.7656" style="stroke:#181818;stroke-width:1.0;"/><line style="stroke:#181818;stroke-width:1.0;" x1="1148.5" x2="1590.5" y1="752.7656" y2="752.7656"/><text fill="#000000" font-family="sans-serif" font-size="20" lengthAdjust="spacing" textLength="429" x="1155.5" y="722.7676">findApplicationsFromCandidate(Candidate</text><text fill="#000000" font-family="sans-serif" font-size="20" lengthAdjust="spacing" textLength="108" x="1155.5" y="746.0488">candidate)</text><polygon fill="#181818" points="2042.5,809.3281,2052.5,813.3281,2042.5,817.3281,2046.5,813.3281" style="stroke:#181818;stroke-width:1.0;"/><line style="stroke:#181818;stroke-width:1.0;" x1="1606.5" x2="2048.5" y1="813.3281" y2="813.3281"/><text fill="#000000" font-family="sans-serif" font-size="20" lengthAdjust="spacing" textLength="429" x="1613.5" y="783.3301">findApplicationsFromCandidate(Candidate</text><text fill="#000000" font-family="sans-serif" font-size="20" lengthAdjust="spacing" textLength="108" x="1613.5" y="806.6113">candidate)</text><line style="stroke:#181818;stroke-width:1.0;" x1="2064.5" x2="2106.5" y1="873.8906" y2="873.8906"/><line style="stroke:#181818;stroke-width:1.0;" x1="2106.5" x2="2106.5" y1="873.8906" y2="886.8906"/><line style="stroke:#181818;stroke-width:1.0;" x1="2065.5" x2="2106.5" y1="886.8906" y2="886.8906"/><polygon fill="#181818" points="2075.5,882.8906,2065.5,886.8906,2075.5,890.8906,2071.5,886.8906" style="stroke:#181818;stroke-width:1.0;"/><text fill="#000000" font-family="sans-serif" font-size="20" lengthAdjust="spacing" textLength="429" x="2071.5" y="843.8926">findApplicationsFromCandidate(Candidate</text><text fill="#000000" font-family="sans-serif" font-size="20" lengthAdjust="spacing" textLength="108" x="2071.5" y="867.1738">candidate)</text><polygon fill="#181818" points="2832,1059.8594,2842,1063.8594,2832,1067.8594,2836,1063.8594" style="stroke:#181818;stroke-width:1.0;"/><line style="stroke:#181818;stroke-width:1.0;" x1="2064.5" x2="2838" y1="1063.8594" y2="1063.8594"/><text fill="#000000" font-family="sans-serif" font-size="20" lengthAdjust="spacing" textLength="207" x="2071.5" y="917.4551">createQuery(SELECT</text><text fill="#000000" font-family="sans-serif" font-size="20" lengthAdjust="spacing" textLength="12" x="2071.5" y="940.7363">a</text><text fill="#000000" font-family="sans-serif" font-size="20" lengthAdjust="spacing" textLength="6" x="2083.5" y="940.7363"> </text><text fill="#000000" font-family="sans-serif" font-size="20" lengthAdjust="spacing" textLength="59" x="2089.5" y="940.7363">FROM</text><text fill="#000000" font-family="sans-serif" font-size="20" lengthAdjust="spacing" textLength="114" x="2071.5" y="964.0176">Application</text><text fill="#000000" font-family="sans-serif" font-size="20" lengthAdjust="spacing" textLength="6" x="2185.5" y="964.0176"> </text><text fill="#000000" font-family="sans-serif" font-size="20" lengthAdjust="spacing" textLength="12" x="2191.5" y="964.0176">a</text><text fill="#000000" font-family="sans-serif" font-size="20" lengthAdjust="spacing" textLength="75" x="2071.5" y="987.2988">WHERE</text><text fill="#000000" font-family="sans-serif" font-size="20" lengthAdjust="spacing" textLength="118" x="2071.5" y="1010.5801">a.candidate</text><text fill="#000000" font-family="sans-serif" font-size="20" lengthAdjust="spacing" textLength="6" x="2189.5" y="1010.5801"> </text><text fill="#000000" font-family="sans-serif" font-size="20" lengthAdjust="spacing" textLength="17" x="2195.5" y="1010.5801">=</text><text fill="#000000" font-family="sans-serif" font-size="20" lengthAdjust="spacing" textLength="123" x="2071.5" y="1033.8613">:candidate",</text><text fill="#000000" font-family="sans-serif" font-size="20" lengthAdjust="spacing" textLength="175" x="2071.5" y="1057.1426">application.class)</text><polygon fill="#181818" points="2832,1120.4219,2842,1124.4219,2832,1128.4219,2836,1124.4219" style="stroke:#181818;stroke-width:1.0;"/><line style="stroke:#181818;stroke-width:1.0;" x1="2064.5" x2="2838" y1="1124.4219" y2="1124.4219"/><text fill="#000000" font-family="sans-serif" font-size="20" lengthAdjust="spacing" textLength="268" x="2071.5" y="1094.4238">setParameter("candidate",</text><text fill="#000000" font-family="sans-serif" font-size="20" lengthAdjust="spacing" textLength="108" x="2071.5" y="1117.7051">candidate)</text><polygon fill="#181818" points="2075.5,1157.7031,2065.5,1161.7031,2075.5,1165.7031,2071.5,1161.7031" style="stroke:#181818;stroke-width:1.0;"/><line style="stroke:#181818;stroke-width:1.0;stroke-dasharray:2.0,2.0;" x1="2069.5" x2="2848" y1="1161.7031" y2="1161.7031"/><text fill="#000000" font-family="sans-serif" font-size="20" lengthAdjust="spacing" textLength="225" x="2081.5" y="1154.9863">Iterable&lt;Application&gt;</text><polygon fill="#181818" points="1617.5,1194.9844,1607.5,1198.9844,1617.5,1202.9844,1613.5,1198.9844" style="stroke:#181818;stroke-width:1.0;"/><line style="stroke:#181818;stroke-width:1.0;stroke-dasharray:2.0,2.0;" x1="1611.5" x2="2058.5" y1="1198.9844" y2="1198.9844"/><text fill="#000000" font-family="sans-serif" font-size="20" lengthAdjust="spacing" textLength="225" x="1623.5" y="1192.2676">Iterable&lt;Application&gt;</text><polygon fill="#181818" points="1159.5,1232.2656,1149.5,1236.2656,1159.5,1240.2656,1155.5,1236.2656" style="stroke:#181818;stroke-width:1.0;"/><line style="stroke:#181818;stroke-width:1.0;stroke-dasharray:2.0,2.0;" x1="1153.5" x2="1600.5" y1="1236.2656" y2="1236.2656"/><text fill="#000000" font-family="sans-serif" font-size="20" lengthAdjust="spacing" textLength="225" x="1165.5" y="1229.5488">Iterable&lt;Application&gt;</text><path d="M940,1251.2656 L1034,1251.2656 L1034,1266.5469 L1024,1276.5469 L940,1276.5469 L940,1251.2656 " fill="#EEEEEE" style="stroke:#000000;stroke-width:1.5;"/><rect fill="none" height="182.6875" style="stroke:#000000;stroke-width:1.5;" width="1859" x="940" y="1251.2656"/><text fill="#000000" font-family="sans-serif" font-size="20" font-weight="bold" lengthAdjust="spacing" textLength="49" x="955" y="1270.8301">loop</text><text fill="#000000" font-family="sans-serif" font-size="20" font-weight="bold" lengthAdjust="spacing" textLength="247" x="1049" y="1271.8301">[for each Application]</text><polygon fill="#181818" points="2495.5,1310.1094,2505.5,1314.1094,2495.5,1318.1094,2499.5,1314.1094" style="stroke:#181818;stroke-width:1.0;"/><line style="stroke:#181818;stroke-width:1.0;" x1="1148.5" x2="2501.5" y1="1314.1094" y2="1314.1094"/><text fill="#000000" font-family="sans-serif" font-size="20" lengthAdjust="spacing" textLength="79" x="1155.5" y="1307.3926">toDTO()</text><polygon fill="#181818" points="2686.5,1347.3906,2696.5,1351.3906,2686.5,1355.3906,2690.5,1351.3906" style="stroke:#181818;stroke-width:1.0;"/><line style="stroke:#181818;stroke-width:1.0;stroke-dasharray:2.0,2.0;" x1="2517.5" x2="2692.5" y1="1351.3906" y2="1351.3906"/><text fill="#000000" font-family="sans-serif" font-size="20" lengthAdjust="spacing" textLength="63" x="2524.5" y="1344.6738">create</text><polygon fill="#181818" points="2528.5,1384.6719,2518.5,1388.6719,2528.5,1392.6719,2524.5,1388.6719" style="stroke:#181818;stroke-width:1.0;"/><line style="stroke:#181818;stroke-width:1.0;stroke-dasharray:2.0,2.0;" x1="2522.5" x2="2702.5" y1="1388.6719" y2="1388.6719"/><text fill="#000000" font-family="sans-serif" font-size="20" lengthAdjust="spacing" textLength="157" x="2534.5" y="1381.9551">ApplicationDTO</text><polygon fill="#181818" points="1159.5,1421.9531,1149.5,1425.9531,1159.5,1429.9531,1155.5,1425.9531" style="stroke:#181818;stroke-width:1.0;"/><line style="stroke:#181818;stroke-width:1.0;stroke-dasharray:2.0,2.0;" x1="1153.5" x2="2511.5" y1="1425.9531" y2="1425.9531"/><text fill="#000000" font-family="sans-serif" font-size="20" lengthAdjust="spacing" textLength="157" x="1165.5" y="1419.2363">ApplicationDTO</text><polygon fill="#181818" points="701.5,1466.2344,691.5,1470.2344,701.5,1474.2344,697.5,1470.2344" style="stroke:#181818;stroke-width:1.0;"/><line style="stroke:#181818;stroke-width:1.0;stroke-dasharray:2.0,2.0;" x1="695.5" x2="1142.5" y1="1470.2344" y2="1470.2344"/><text fill="#000000" font-family="sans-serif" font-size="20" lengthAdjust="spacing" textLength="268" x="707.5" y="1463.5176">Iterable&lt;ApplicationDTO&gt;</text><polygon fill="#181818" points="356,1503.5156,346,1507.5156,356,1511.5156,352,1507.5156" style="stroke:#181818;stroke-width:1.0;"/><line style="stroke:#181818;stroke-width:1.0;stroke-dasharray:2.0,2.0;" x1="350" x2="684.5" y1="1507.5156" y2="1507.5156"/><text fill="#000000" font-family="sans-serif" font-size="20" lengthAdjust="spacing" textLength="268" x="362" y="1500.7988">Iterable&lt;ApplicationDTO&gt;</text><polygon fill="#181818" points="114,1587.3594,104,1591.3594,114,1595.3594,110,1591.3594" style="stroke:#181818;stroke-width:1.0;"/><line style="stroke:#181818;stroke-width:1.0;stroke-dasharray:2.0,2.0;" x1="108" x2="339" y1="1591.3594" y2="1591.3594"/><text fill="#000000" font-family="sans-serif" font-size="20" lengthAdjust="spacing" textLength="83" x="120" y="1538.0801">Displays</text><text fill="#000000" font-family="sans-serif" font-size="20" lengthAdjust="spacing" textLength="114" x="120" y="1561.3613">Application</text><text fill="#000000" font-family="sans-serif" font-size="20" lengthAdjust="spacing" textLength="35" x="120" y="1584.6426">List</text><!--SRC=[jLNTRzem47_FNt7YYKcbefEs1zHLee5ghOhQnKLxsOkR7CKYs9bjkh6_VcSJ4eSIGFkuXoY9V_UxJz-PXP05rtoPgtI16MGuuwlStYXfcVY5yBuVMM5pX2cxwFS_FaCFs8WU8s6AdAyXvZ8J6RS88suvq1SCYo8NART2IHEPBJ_aGg9T5mXAsxaA3fRyvnADuIzedCMB3_tWqE3t5SeK7xcs8XK5bnPMCaFjwAA8frPfwCGhOzKIDKou91xT0MuWdaHH4QXrIfyhbvt7qrkFdTuUXeOnnPGRhV9yQ-PqJORwLQJerLXJBO0bM2WZAAwr1oPDu5t13s3l7eUjl1xHVZnwUjWWw2KYp_apDqZnb6_-R7GTEQ6iYrTNSqenaCGJw5rH3c40GxCmO1LaPN_OEKA1sYZ9St2ie6R08Tscn-jNV5G6A4NZ3DGhbNHq3MTaOG3tmjXQqNoJtIcZ_kptqtULbXFoWxmXdmR0vkg7eSuZHJ9Rw_e-vQMh1dDC2I0tpcIuwquG7lDOSr84WHzbKvYTwx8B9UGBsh1ZkhL2PR2Ejgv38m6n8sD4DXCo2zbkj5fMX8Uf6_IiyTi9SoQIlpVnnbIozpZnvgYv_uT5TsUWHRpDVsuxPARs7a2gaS1VLgZNNJQ-7yTFr64toSCa7ARqw-ldSJ86VbxnmoSOL1-TC-0r_3pDkJ7j3bG9e4iD1wJXg47xwEOoMjJTJcZvX92T44klpkSjqV3d72-3CAzQzOERUS3dZRzbUvvk821lxOZ4yx8_vjqBo9KgO4PRZ83piDwj4VhBDnpGxA9HtJtItkszlScI6_VR1ZpUAtuvj1DUzdebONEnd5BIWzHiGtqIRyZv1e0ospVCokcxhwnafbdPW9_jpjtjdZXA5934ZJNmPcM44y2jm3rBAYIR_0O0]--></g></svg>