<?xml version="1.0" encoding="UTF-8" standalone="no"?><svg xmlns="http://www.w3.org/2000/svg" xmlns:xlink="http://www.w3.org/1999/xlink" contentStyleType="text/css" height="1569px" preserveAspectRatio="none" style="width:2119px;height:1569px;background:#FFFFFF;" version="1.1" viewBox="0 0 2119 1569" width="2119px" zoomAndPan="magnify"><defs/><g><text fill="#000000" font-family="sans-serif" font-size="14" font-weight="bold" lengthAdjust="spacing" textLength="439" x="841.75" y="27.9951">US1006b - SD - Display Candidate Data and Applications</text><rect fill="#FFFFFF" height="1327.9375" style="stroke:#181818;stroke-width:1.0;" width="10" x="98" y="135.5781"/><rect fill="#FFFFFF" height="191.9688" style="stroke:#181818;stroke-width:1.0;" width="10" x="335" y="234.7031"/><rect fill="#FFFFFF" height="976.2813" style="stroke:#181818;stroke-width:1.0;" width="10" x="335" y="487.2344"/><rect fill="#FFFFFF" height="748.0313" style="stroke:#181818;stroke-width:1.0;" width="10" x="680.5" y="631.6406"/><rect fill="#FFFFFF" height="626.9063" style="stroke:#181818;stroke-width:1.0;" width="10" x="1138.5" y="692.2031"/><rect fill="#FFFFFF" height="505.7813" style="stroke:#181818;stroke-width:1.0;" width="10" x="1596.5" y="752.7656"/><line style="stroke:#181818;stroke-width:0.5;stroke-dasharray:5.0,5.0;" x1="103" x2="103" y1="125.5781" y2="1481.5156"/><line style="stroke:#181818;stroke-width:0.5;stroke-dasharray:5.0,5.0;" x1="340" x2="340" y1="125.5781" y2="1481.5156"/><line style="stroke:#181818;stroke-width:0.5;stroke-dasharray:5.0,5.0;" x1="685" x2="685" y1="125.5781" y2="1481.5156"/><line style="stroke:#181818;stroke-width:0.5;stroke-dasharray:5.0,5.0;" x1="1143.5" x2="1143.5" y1="125.5781" y2="1481.5156"/><line style="stroke:#181818;stroke-width:0.5;stroke-dasharray:5.0,5.0;" x1="1601" x2="1601" y1="125.5781" y2="1481.5156"/><line style="stroke:#181818;stroke-width:0.5;stroke-dasharray:5.0,5.0;" x1="2054.5" x2="2054.5" y1="125.5781" y2="1481.5156"/><text fill="#000000" font-family="sans-serif" font-size="20" lengthAdjust="spacing" text-decoration="underline" textLength="190" x="5" y="120.8613">Customer Manager</text><ellipse cx="103" cy="50.7969" fill="#E2E2F0" rx="8" ry="8" style="stroke:#181818;stroke-width:0.5;"/><path d="M103,58.7969 L103,85.7969 M90,66.7969 L116,66.7969 M103,85.7969 L90,100.7969 M103,85.7969 L116,100.7969 " fill="none" style="stroke:#181818;stroke-width:0.5;"/><text fill="#000000" font-family="sans-serif" font-size="20" lengthAdjust="spacing" text-decoration="underline" textLength="190" x="5" y="1499.0801">Customer Manager</text><ellipse cx="103" cy="1512.2969" fill="#E2E2F0" rx="8" ry="8" style="stroke:#181818;stroke-width:0.5;"/><path d="M103,1520.2969 L103,1547.2969 M90,1528.2969 L116,1528.2969 M103,1547.2969 L90,1562.2969 M103,1547.2969 L116,1562.2969 " fill="none" style="stroke:#181818;stroke-width:0.5;"/><rect fill="#E2E2F0" height="37.2813" rx="2.5" ry="2.5" style="stroke:#181818;stroke-width:0.5;" width="258" x="211" y="87.2969"/><text fill="#000000" font-family="sans-serif" font-size="20" lengthAdjust="spacing" text-decoration="underline" textLength="244" x="218" y="112.8613">DisplayCandidateDataUI</text><rect fill="#E2E2F0" height="37.2813" rx="2.5" ry="2.5" style="stroke:#181818;stroke-width:0.5;" width="258" x="211" y="1480.5156"/><text fill="#000000" font-family="sans-serif" font-size="20" lengthAdjust="spacing" text-decoration="underline" textLength="244" x="218" y="1506.0801">DisplayCandidateDataUI</text><rect fill="#E2E2F0" height="37.2813" rx="2.5" ry="2.5" style="stroke:#181818;stroke-width:0.5;" width="413" x="479" y="87.2969"/><text fill="#000000" font-family="sans-serif" font-size="20" lengthAdjust="spacing" text-decoration="underline" textLength="399" x="486" y="112.8613">DisplayCandidateApplicationsController</text><rect fill="#E2E2F0" height="37.2813" rx="2.5" ry="2.5" style="stroke:#181818;stroke-width:0.5;" width="413" x="479" y="1480.5156"/><text fill="#000000" font-family="sans-serif" font-size="20" lengthAdjust="spacing" text-decoration="underline" textLength="399" x="486" y="1506.0801">DisplayCandidateApplicationsController</text><rect fill="#E2E2F0" height="37.2813" rx="2.5" ry="2.5" style="stroke:#181818;stroke-width:0.5;" width="234" x="1026.5" y="87.2969"/><text fill="#000000" font-family="sans-serif" font-size="20" lengthAdjust="spacing" text-decoration="underline" textLength="220" x="1033.5" y="112.8613">ApplicationRepository</text><rect fill="#E2E2F0" height="37.2813" rx="2.5" ry="2.5" style="stroke:#181818;stroke-width:0.5;" width="234" x="1026.5" y="1480.5156"/><text fill="#000000" font-family="sans-serif" font-size="20" lengthAdjust="spacing" text-decoration="underline" textLength="220" x="1033.5" y="1506.0801">ApplicationRepository</text><rect fill="#E2E2F0" height="37.2813" rx="2.5" ry="2.5" style="stroke:#181818;stroke-width:0.5;" width="199" x="1502" y="87.2969"/><text fill="#000000" font-family="sans-serif" font-size="20" lengthAdjust="spacing" text-decoration="underline" textLength="185" x="1509" y="112.8613">JpaBaseRepository</text><rect fill="#E2E2F0" height="37.2813" rx="2.5" ry="2.5" style="stroke:#181818;stroke-width:0.5;" width="199" x="1502" y="1480.5156"/><text fill="#000000" font-family="sans-serif" font-size="20" lengthAdjust="spacing" text-decoration="underline" textLength="185" x="1509" y="1506.0801">JpaBaseRepository</text><text fill="#000000" font-family="sans-serif" font-size="20" lengthAdjust="spacing" text-decoration="underline" textLength="122" x="1990.5" y="120.8613">H2Database</text><path d="M2036.5,66.2969 C2036.5,56.2969 2054.5,56.2969 2054.5,56.2969 C2054.5,56.2969 2072.5,56.2969 2072.5,66.2969 L2072.5,92.2969 C2072.5,102.2969 2054.5,102.2969 2054.5,102.2969 C2054.5,102.2969 2036.5,102.2969 2036.5,92.2969 L2036.5,66.2969 " fill="#E2E2F0" style="stroke:#181818;stroke-width:1.5;"/><path d="M2036.5,66.2969 C2036.5,76.2969 2054.5,76.2969 2054.5,76.2969 C2054.5,76.2969 2072.5,76.2969 2072.5,66.2969 " fill="none" style="stroke:#181818;stroke-width:1.5;"/><text fill="#000000" font-family="sans-serif" font-size="20" lengthAdjust="spacing" text-decoration="underline" textLength="122" x="1990.5" y="1499.0801">H2Database</text><path d="M2036.5,1513.7969 C2036.5,1503.7969 2054.5,1503.7969 2054.5,1503.7969 C2054.5,1503.7969 2072.5,1503.7969 2072.5,1513.7969 L2072.5,1539.7969 C2072.5,1549.7969 2054.5,1549.7969 2054.5,1549.7969 C2054.5,1549.7969 2036.5,1549.7969 2036.5,1539.7969 L2036.5,1513.7969 " fill="#E2E2F0" style="stroke:#181818;stroke-width:1.5;"/><path d="M2036.5,1513.7969 C2036.5,1523.7969 2054.5,1523.7969 2054.5,1523.7969 C2054.5,1523.7969 2072.5,1523.7969 2072.5,1513.7969 " fill="none" style="stroke:#181818;stroke-width:1.5;"/><rect fill="#FFFFFF" height="1327.9375" style="stroke:#181818;stroke-width:1.0;" width="10" x="98" y="135.5781"/><rect fill="#FFFFFF" height="191.9688" style="stroke:#181818;stroke-width:1.0;" width="10" x="335" y="234.7031"/><rect fill="#FFFFFF" height="976.2813" style="stroke:#181818;stroke-width:1.0;" width="10" x="335" y="487.2344"/><rect fill="#FFFFFF" height="748.0313" style="stroke:#181818;stroke-width:1.0;" width="10" x="680.5" y="631.6406"/><rect fill="#FFFFFF" height="626.9063" style="stroke:#181818;stroke-width:1.0;" width="10" x="1138.5" y="692.2031"/><rect fill="#FFFFFF" height="505.7813" style="stroke:#181818;stroke-width:1.0;" width="10" x="1596.5" y="752.7656"/><polygon fill="#181818" points="323,230.7031,333,234.7031,323,238.7031,327,234.7031" style="stroke:#181818;stroke-width:1.0;"/><line style="stroke:#181818;stroke-width:1.0;" x1="108" x2="329" y1="234.7031" y2="234.7031"/><text fill="#000000" font-family="sans-serif" font-size="20" lengthAdjust="spacing" textLength="46" x="115" y="158.1426">Asks</text><text fill="#000000" font-family="sans-serif" font-size="20" lengthAdjust="spacing" textLength="6" x="161" y="158.1426"> </text><text fill="#000000" font-family="sans-serif" font-size="20" lengthAdjust="spacing" textLength="20" x="167" y="158.1426">to</text><text fill="#000000" font-family="sans-serif" font-size="20" lengthAdjust="spacing" textLength="6" x="187" y="158.1426"> </text><text fill="#000000" font-family="sans-serif" font-size="20" lengthAdjust="spacing" textLength="71" x="193" y="158.1426">display</text><text fill="#000000" font-family="sans-serif" font-size="20" lengthAdjust="spacing" textLength="33" x="115" y="181.4238">the</text><text fill="#000000" font-family="sans-serif" font-size="20" lengthAdjust="spacing" textLength="6" x="148" y="181.4238"> </text><text fill="#000000" font-family="sans-serif" font-size="20" lengthAdjust="spacing" textLength="86" x="154" y="181.4238">personal</text><text fill="#000000" font-family="sans-serif" font-size="20" lengthAdjust="spacing" textLength="45" x="115" y="204.7051">data</text><text fill="#000000" font-family="sans-serif" font-size="20" lengthAdjust="spacing" textLength="6" x="160" y="204.7051"> </text><text fill="#000000" font-family="sans-serif" font-size="20" lengthAdjust="spacing" textLength="19" x="166" y="204.7051">of</text><text fill="#000000" font-family="sans-serif" font-size="20" lengthAdjust="spacing" textLength="6" x="185" y="204.7051"> </text><text fill="#000000" font-family="sans-serif" font-size="20" lengthAdjust="spacing" textLength="12" x="191" y="204.7051">a</text><text fill="#000000" font-family="sans-serif" font-size="20" lengthAdjust="spacing" textLength="100" x="115" y="227.9863">candidate</text><rect fill="none" height="79.8438" style="stroke:#000000;stroke-width:1.5;" width="470" x="2" y="242.7031"/><path d="M2,242.7031 L80,242.7031 L80,257.7031 L70,267.7031 L2,267.7031 L2,242.7031 " fill="#EEEEEE" style="stroke:#000000;stroke-width:2.0;"/><text fill="#000000" font-family="sans-serif" font-size="20" font-weight="bold" lengthAdjust="spacing" textLength="33" x="15" y="263.2676">ref</text><text fill="#000000" font-family="sans-serif" font-size="20" lengthAdjust="spacing" textLength="151" x="161.5" y="290.2676">List candidates</text><text fill="#000000" font-family="sans-serif" font-size="20" lengthAdjust="spacing" textLength="113" x="180.5" y="313.5488">(US 2000c)</text><polygon fill="#181818" points="119,422.6719,109,426.6719,119,430.6719,115,426.6719" style="stroke:#181818;stroke-width:1.0;"/><line style="stroke:#181818;stroke-width:1.0;" x1="113" x2="339" y1="426.6719" y2="426.6719"/><text fill="#000000" font-family="sans-serif" font-size="20" lengthAdjust="spacing" textLength="65" x="125" y="350.1113">Shows</text><text fill="#000000" font-family="sans-serif" font-size="20" lengthAdjust="spacing" textLength="6" x="190" y="350.1113"> </text><text fill="#000000" font-family="sans-serif" font-size="20" lengthAdjust="spacing" textLength="30" x="196" y="350.1113">list</text><text fill="#000000" font-family="sans-serif" font-size="20" lengthAdjust="spacing" textLength="6" x="226" y="350.1113"> </text><text fill="#000000" font-family="sans-serif" font-size="20" lengthAdjust="spacing" textLength="19" x="232" y="350.1113">of</text><text fill="#000000" font-family="sans-serif" font-size="20" lengthAdjust="spacing" textLength="110" x="125" y="373.3926">candidates</text><text fill="#000000" font-family="sans-serif" font-size="20" lengthAdjust="spacing" textLength="38" x="125" y="396.6738">and</text><text fill="#000000" font-family="sans-serif" font-size="20" lengthAdjust="spacing" textLength="6" x="163" y="396.6738"> </text><text fill="#000000" font-family="sans-serif" font-size="20" lengthAdjust="spacing" textLength="44" x="169" y="396.6738">asks</text><text fill="#000000" font-family="sans-serif" font-size="20" lengthAdjust="spacing" textLength="6" x="213" y="396.6738"> </text><text fill="#000000" font-family="sans-serif" font-size="20" lengthAdjust="spacing" textLength="20" x="219" y="396.6738">to</text><text fill="#000000" font-family="sans-serif" font-size="20" lengthAdjust="spacing" textLength="59" x="125" y="419.9551">select</text><text fill="#000000" font-family="sans-serif" font-size="20" lengthAdjust="spacing" textLength="6" x="184" y="419.9551"> </text><text fill="#000000" font-family="sans-serif" font-size="20" lengthAdjust="spacing" textLength="37" x="190" y="419.9551">one</text><polygon fill="#181818" points="323,483.2344,333,487.2344,323,491.2344,327,487.2344" style="stroke:#181818;stroke-width:1.0;"/><line style="stroke:#181818;stroke-width:1.0;" x1="108" x2="329" y1="487.2344" y2="487.2344"/><text fill="#000000" font-family="sans-serif" font-size="20" lengthAdjust="spacing" textLength="72" x="115" y="457.2363">Selects</text><text fill="#000000" font-family="sans-serif" font-size="20" lengthAdjust="spacing" textLength="6" x="187" y="457.2363"> </text><text fill="#000000" font-family="sans-serif" font-size="20" lengthAdjust="spacing" textLength="12" x="193" y="457.2363">a</text><text fill="#000000" font-family="sans-serif" font-size="20" lengthAdjust="spacing" textLength="100" x="115" y="480.5176">candidate</text><polygon fill="#181818" points="119,567.0781,109,571.0781,119,575.0781,115,571.0781" style="stroke:#181818;stroke-width:1.0;"/><line style="stroke:#181818;stroke-width:1.0;" x1="113" x2="334" y1="571.0781" y2="571.0781"/><text fill="#000000" font-family="sans-serif" font-size="20" lengthAdjust="spacing" textLength="83" x="125" y="517.7988">Displays</text><text fill="#000000" font-family="sans-serif" font-size="20" lengthAdjust="spacing" textLength="103" x="125" y="541.0801">Candidate</text><text fill="#000000" font-family="sans-serif" font-size="20" lengthAdjust="spacing" textLength="47" x="125" y="564.3613">Data</text><polygon fill="#181818" points="668.5,627.6406,678.5,631.6406,668.5,635.6406,672.5,631.6406" style="stroke:#181818;stroke-width:1.0;"/><line style="stroke:#181818;stroke-width:1.0;" x1="345" x2="674.5" y1="631.6406" y2="631.6406"/><text fill="#000000" font-family="sans-serif" font-size="20" lengthAdjust="spacing" textLength="268" x="352" y="601.6426">getApplications(Candidate</text><text fill="#000000" font-family="sans-serif" font-size="20" lengthAdjust="spacing" textLength="108" x="352" y="624.9238">candidate)</text><polygon fill="#181818" points="1126.5,688.2031,1136.5,692.2031,1126.5,696.2031,1130.5,692.2031" style="stroke:#181818;stroke-width:1.0;"/><line style="stroke:#181818;stroke-width:1.0;" x1="690.5" x2="1132.5" y1="692.2031" y2="692.2031"/><text fill="#000000" font-family="sans-serif" font-size="20" lengthAdjust="spacing" textLength="429" x="697.5" y="662.2051">findApplicationsFromCandidate(Candidate</text><text fill="#000000" font-family="sans-serif" font-size="20" lengthAdjust="spacing" textLength="108" x="697.5" y="685.4863">candidate)</text><polygon fill="#181818" points="1584.5,748.7656,1594.5,752.7656,1584.5,756.7656,1588.5,752.7656" style="stroke:#181818;stroke-width:1.0;"/><line style="stroke:#181818;stroke-width:1.0;" x1="1148.5" x2="1590.5" y1="752.7656" y2="752.7656"/><text fill="#000000" font-family="sans-serif" font-size="20" lengthAdjust="spacing" textLength="429" x="1155.5" y="722.7676">findApplicationsFromCandidate(Candidate</text><text fill="#000000" font-family="sans-serif" font-size="20" lengthAdjust="spacing" textLength="108" x="1155.5" y="746.0488">candidate)</text><line style="stroke:#181818;stroke-width:1.0;" x1="1606.5" x2="1648.5" y1="813.3281" y2="813.3281"/><line style="stroke:#181818;stroke-width:1.0;" x1="1648.5" x2="1648.5" y1="813.3281" y2="826.3281"/><line style="stroke:#181818;stroke-width:1.0;" x1="1607.5" x2="1648.5" y1="826.3281" y2="826.3281"/><polygon fill="#181818" points="1617.5,822.3281,1607.5,826.3281,1617.5,830.3281,1613.5,826.3281" style="stroke:#181818;stroke-width:1.0;"/><text fill="#000000" font-family="sans-serif" font-size="20" lengthAdjust="spacing" textLength="429" x="1613.5" y="783.3301">findApplicationsFromCandidate(Candidate</text><text fill="#000000" font-family="sans-serif" font-size="20" lengthAdjust="spacing" textLength="108" x="1613.5" y="806.6113">candidate)</text><polygon fill="#181818" points="2042.5,999.2969,2052.5,1003.2969,2042.5,1007.2969,2046.5,1003.2969" style="stroke:#181818;stroke-width:1.0;"/><line style="stroke:#181818;stroke-width:1.0;" x1="1606.5" x2="2048.5" y1="1003.2969" y2="1003.2969"/><text fill="#000000" font-family="sans-serif" font-size="20" lengthAdjust="spacing" textLength="207" x="1613.5" y="856.8926">createQuery(SELECT</text><text fill="#000000" font-family="sans-serif" font-size="20" lengthAdjust="spacing" textLength="12" x="1613.5" y="880.1738">a</text><text fill="#000000" font-family="sans-serif" font-size="20" lengthAdjust="spacing" textLength="6" x="1625.5" y="880.1738"> </text><text fill="#000000" font-family="sans-serif" font-size="20" lengthAdjust="spacing" textLength="59" x="1631.5" y="880.1738">FROM</text><text fill="#000000" font-family="sans-serif" font-size="20" lengthAdjust="spacing" textLength="114" x="1613.5" y="903.4551">Application</text><text fill="#000000" font-family="sans-serif" font-size="20" lengthAdjust="spacing" textLength="6" x="1727.5" y="903.4551"> </text><text fill="#000000" font-family="sans-serif" font-size="20" lengthAdjust="spacing" textLength="12" x="1733.5" y="903.4551">a</text><text fill="#000000" font-family="sans-serif" font-size="20" lengthAdjust="spacing" textLength="75" x="1613.5" y="926.7363">WHERE</text><text fill="#000000" font-family="sans-serif" font-size="20" lengthAdjust="spacing" textLength="118" x="1613.5" y="950.0176">a.candidate</text><text fill="#000000" font-family="sans-serif" font-size="20" lengthAdjust="spacing" textLength="6" x="1731.5" y="950.0176"> </text><text fill="#000000" font-family="sans-serif" font-size="20" lengthAdjust="spacing" textLength="17" x="1737.5" y="950.0176">=</text><text fill="#000000" font-family="sans-serif" font-size="20" lengthAdjust="spacing" textLength="123" x="1613.5" y="973.2988">:candidate",</text><text fill="#000000" font-family="sans-serif" font-size="20" lengthAdjust="spacing" textLength="175" x="1613.5" y="996.5801">application.class)</text><polygon fill="#181818" points="2042.5,1059.8594,2052.5,1063.8594,2042.5,1067.8594,2046.5,1063.8594" style="stroke:#181818;stroke-width:1.0;"/><line style="stroke:#181818;stroke-width:1.0;" x1="1606.5" x2="2048.5" y1="1063.8594" y2="1063.8594"/><text fill="#000000" font-family="sans-serif" font-size="20" lengthAdjust="spacing" textLength="268" x="1613.5" y="1033.8613">setParameter("candidate",</text><text fill="#000000" font-family="sans-serif" font-size="20" lengthAdjust="spacing" textLength="108" x="1613.5" y="1057.1426">candidate)</text><polygon fill="#181818" points="1617.5,1120.4219,1607.5,1124.4219,1617.5,1128.4219,1613.5,1124.4219" style="stroke:#181818;stroke-width:1.0;"/><line style="stroke:#181818;stroke-width:1.0;" x1="1611.5" x2="2053.5" y1="1124.4219" y2="1124.4219"/><text fill="#000000" font-family="sans-serif" font-size="20" lengthAdjust="spacing" textLength="62" x="1623.5" y="1094.4238">return</text><text fill="#000000" font-family="sans-serif" font-size="20" lengthAdjust="spacing" textLength="183" x="1623.5" y="1117.7051">List&lt;Application&gt;</text><line style="stroke:#181818;stroke-width:1.0;" x1="1606.5" x2="1648.5" y1="1184.9844" y2="1184.9844"/><line style="stroke:#181818;stroke-width:1.0;" x1="1648.5" x2="1648.5" y1="1184.9844" y2="1197.9844"/><line style="stroke:#181818;stroke-width:1.0;" x1="1607.5" x2="1648.5" y1="1197.9844" y2="1197.9844"/><polygon fill="#181818" points="1617.5,1193.9844,1607.5,1197.9844,1617.5,1201.9844,1613.5,1197.9844" style="stroke:#181818;stroke-width:1.0;"/><text fill="#000000" font-family="sans-serif" font-size="20" lengthAdjust="spacing" textLength="62" x="1613.5" y="1154.9863">return</text><text fill="#000000" font-family="sans-serif" font-size="20" lengthAdjust="spacing" textLength="183" x="1613.5" y="1178.2676">List&lt;Application&gt;</text><polygon fill="#181818" points="1159.5,1254.5469,1149.5,1258.5469,1159.5,1262.5469,1155.5,1258.5469" style="stroke:#181818;stroke-width:1.0;"/><line style="stroke:#181818;stroke-width:1.0;" x1="1153.5" x2="1600.5" y1="1258.5469" y2="1258.5469"/><text fill="#000000" font-family="sans-serif" font-size="20" lengthAdjust="spacing" textLength="62" x="1165.5" y="1228.5488">return</text><text fill="#000000" font-family="sans-serif" font-size="20" lengthAdjust="spacing" textLength="183" x="1165.5" y="1251.8301">List&lt;Application&gt;</text><polygon fill="#181818" points="701.5,1315.1094,691.5,1319.1094,701.5,1323.1094,697.5,1319.1094" style="stroke:#181818;stroke-width:1.0;"/><line style="stroke:#181818;stroke-width:1.0;" x1="695.5" x2="1142.5" y1="1319.1094" y2="1319.1094"/><text fill="#000000" font-family="sans-serif" font-size="20" lengthAdjust="spacing" textLength="62" x="707.5" y="1289.1113">return</text><text fill="#000000" font-family="sans-serif" font-size="20" lengthAdjust="spacing" textLength="183" x="707.5" y="1312.3926">List&lt;Application&gt;</text><polygon fill="#181818" points="356,1375.6719,346,1379.6719,356,1383.6719,352,1379.6719" style="stroke:#181818;stroke-width:1.0;"/><line style="stroke:#181818;stroke-width:1.0;" x1="350" x2="684.5" y1="1379.6719" y2="1379.6719"/><text fill="#000000" font-family="sans-serif" font-size="20" lengthAdjust="spacing" textLength="62" x="362" y="1349.6738">return</text><text fill="#000000" font-family="sans-serif" font-size="20" lengthAdjust="spacing" textLength="183" x="362" y="1372.9551">List&lt;Application&gt;</text><polygon fill="#181818" points="114,1459.5156,104,1463.5156,114,1467.5156,110,1463.5156" style="stroke:#181818;stroke-width:1.0;"/><line style="stroke:#181818;stroke-width:1.0;" x1="108" x2="339" y1="1463.5156" y2="1463.5156"/><text fill="#000000" font-family="sans-serif" font-size="20" lengthAdjust="spacing" textLength="83" x="120" y="1410.2363">Displays</text><text fill="#000000" font-family="sans-serif" font-size="20" lengthAdjust="spacing" textLength="114" x="120" y="1433.5176">Application</text><text fill="#000000" font-family="sans-serif" font-size="20" lengthAdjust="spacing" textLength="35" x="120" y="1456.7988">List</text><!--SRC=[hLHBRzf04BxxLumuKIc9d4Zj0RMHm0ObKL1JkwYNNYRs45QONNTtdPR- -iuwnbvJHEXZ3WXxlyUyrcOjP8aQDuNArfH3Jaki2ZjJqgRY9y5L65XX2u95UXc6xnxX7DAOVs9XoWAt4A7CHOwM84QBm4ymBij2P6Y5aYOmEtqeX2IxBGcKjYlb7MpmnuQCmISopl7oRUWT6lfMaSpe0RKLcIXHMgXaJjh91G5cLcaOH9MnQaCQvYXPHmy03KJp82Wzsg39kKtPPRouhR6Bs-DGlwQ8UwDLKUni-amFcL2fZE04jpKmwGFlIfoWeNtGtSCuO4Tyv3COt5p5pV_wD9u4BhXgyUnwpYK2HpI7yskk0KOmDci3La7UpCUk24hIHaaimEc2MW92jYkivhTwt0PeGjCIr3Etb6NFs644zyBOZcY-ok4YvVq8m-nDotB11Cw6Snf1kbBV3K-UYMpRSUizmIPLGmLb390loUIqduvNNbfZpKaLU7aqupHxwxeFPUGJMN_MmuxG6dRLTdFeDI1oOWcBBONCVRMPLfjMyBXqJpxflNQHr1QyA__kqdTowmS7elRwhvw-QZnXpKmJ0pzLfBV3T7e_ZJxpc6V9nxd_HU5NNswcoHJmejM63p1g7mPdW1ty8YlGc1FC3Ta7zy4XIteuyDLUAO7PNLiqsKhB-gQyzvA-FgMbVyVz4w9timxEETbTWfCKVRNVrx- -hQ_gU1hHqNlhRu2JE_2byBNclm00]--></g></svg>