<?xml version="1.0" encoding="UTF-8" standalone="no"?><svg xmlns="http://www.w3.org/2000/svg" xmlns:xlink="http://www.w3.org/1999/xlink" contentStyleType="text/css" height="524px" preserveAspectRatio="none" style="width:4215px;height:524px;background:#FFFFFF;" version="1.1" viewBox="0 0 4215 524" width="4215px" zoomAndPan="magnify"><defs/><g><text fill="#000000" font-family="sans-serif" font-size="14" font-weight="bold" lengthAdjust="spacing" textLength="187" x="2007.25" y="22.9951">Domain Model - US1010</text><!--cluster <<aggregate>> RecruitmentProcess--><g id="cluster_&lt;&lt;aggregate&gt;&gt; RecruitmentProcess"><path d="M8.5,44.5137 L390.5,44.5137 A3.75,3.75 0 0 1 393,47.0137 L400,73.7949 L2092.5,73.7949 A2.5,2.5 0 0 1 2095,76.2949 L2095,515.0137 A2.5,2.5 0 0 1 2092.5,517.5137 L8.5,517.5137 A2.5,2.5 0 0 1 6,515.0137 L6,47.0137 A2.5,2.5 0 0 1 8.5,44.5137 " fill="#EBF5FB" style="stroke:#000000;stroke-width:1.5;"/><line style="stroke:#000000;stroke-width:1.5;" x1="6" x2="400" y1="73.7949" y2="73.7949"/><text fill="#000000" font-family="sans-serif" font-size="20" font-weight="bold" lengthAdjust="spacing" textLength="381" x="10" y="65.0781">«aggregate» RecruitmentProcess</text></g><!--cluster <<aggregate>> Job Opening--><g id="cluster_&lt;&lt;aggregate&gt;&gt; Job Opening"><path d="M2121.5,237.5137 L2409.5,237.5137 A3.75,3.75 0 0 1 2412,240.0137 L2419,266.7949 L3788.5,266.7949 A2.5,2.5 0 0 1 3791,269.2949 L3791,515.0137 A2.5,2.5 0 0 1 3788.5,517.5137 L2121.5,517.5137 A2.5,2.5 0 0 1 2119,515.0137 L2119,240.0137 A2.5,2.5 0 0 1 2121.5,237.5137 " fill="#EBF5FB" style="stroke:#000000;stroke-width:1.5;"/><line style="stroke:#000000;stroke-width:1.5;" x1="2119" x2="2419" y1="266.7949" y2="266.7949"/><text fill="#000000" font-family="sans-serif" font-size="20" font-weight="bold" lengthAdjust="spacing" textLength="287" x="2123" y="258.0781">«aggregate» Job Opening</text></g><!--class RecruitmentProcess--><g id="elem_RecruitmentProcess"><rect codeLine="21" fill="#FDEBD0" height="79.8438" id="RecruitmentProcess" rx="2.5" ry="2.5" style="stroke:#181818;stroke-width:0.5;" width="234" x="1553" y="86.5137"/><ellipse cx="1569" cy="126.4355" fill="#ADD1B2" rx="12" ry="12" style="stroke:#181818;stroke-width:1.0;"/><path d="M1573.7188,133.9355 L1564.6406,133.9355 L1564.6406,119.3574 L1573.7188,119.3574 L1573.7188,121.8887 L1567.5156,121.8887 L1567.5156,125.0449 L1573.1406,125.0449 L1573.1406,127.5762 L1567.5156,127.5762 L1567.5156,131.3887 L1573.7188,131.3887 L1573.7188,133.9355 Z " fill="#000000"/><text fill="#000000" font-family="sans-serif" font-size="20" font-style="italic" lengthAdjust="spacing" textLength="83" x="1642.5" y="110.0781">«entity»</text><text fill="#000000" font-family="sans-serif" font-size="20" font-style="italic" lengthAdjust="spacing" textLength="64" x="1652" y="133.3594">«root»</text><text fill="#000000" font-family="sans-serif" font-size="20" lengthAdjust="spacing" textLength="200" x="1584" y="156.6406">RecruitmentProcess</text></g><!--class Phase--><g id="elem_Phase"><rect codeLine="22" fill="#FEF9E7" height="56.5625" id="Phase" rx="2.5" ry="2.5" style="stroke:#181818;stroke-width:0.5;" width="113" x="1322.5" y="291.0137"/><ellipse cx="1338.5" cy="319.2949" fill="#ADD1B2" rx="12" ry="12" style="stroke:#181818;stroke-width:1.0;"/><path d="M1343.2188,326.7949 L1334.1406,326.7949 L1334.1406,312.2168 L1343.2188,312.2168 L1343.2188,314.748 L1337.0156,314.748 L1337.0156,317.9043 L1342.6406,317.9043 L1342.6406,320.4355 L1337.0156,320.4355 L1337.0156,324.248 L1343.2188,324.248 L1343.2188,326.7949 Z " fill="#000000"/><text fill="#000000" font-family="sans-serif" font-size="20" font-style="italic" lengthAdjust="spacing" textLength="83" x="1351.5" y="314.5781">«entity»</text><text fill="#000000" font-family="sans-serif" font-size="20" lengthAdjust="spacing" textLength="59" x="1363.5" y="337.8594">Phase</text></g><!--class ApplicationPhase--><g id="elem_ApplicationPhase"><rect codeLine="23" fill="#FEF9E7" height="56.5625" id="ApplicationPhase" rx="2.5" ry="2.5" style="stroke:#181818;stroke-width:0.5;" width="207" x="598.5" y="444.5137"/><ellipse cx="614.5" cy="472.7949" fill="#ADD1B2" rx="12" ry="12" style="stroke:#181818;stroke-width:1.0;"/><path d="M619.2188,480.2949 L610.1406,480.2949 L610.1406,465.7168 L619.2188,465.7168 L619.2188,468.248 L613.0156,468.248 L613.0156,471.4043 L618.6406,471.4043 L618.6406,473.9355 L613.0156,473.9355 L613.0156,477.748 L619.2188,477.748 L619.2188,480.2949 Z " fill="#000000"/><text fill="#000000" font-family="sans-serif" font-size="20" font-style="italic" lengthAdjust="spacing" textLength="83" x="674.5" y="468.0781">«entity»</text><text fill="#000000" font-family="sans-serif" font-size="20" lengthAdjust="spacing" textLength="173" x="629.5" y="491.3594">ApplicationPhase</text></g><!--class ScreeningPhase--><g id="elem_ScreeningPhase"><rect codeLine="24" fill="#FEF9E7" height="56.5625" id="ScreeningPhase" rx="2.5" ry="2.5" style="stroke:#181818;stroke-width:0.5;" width="194" x="841" y="444.5137"/><ellipse cx="857" cy="472.7949" fill="#ADD1B2" rx="12" ry="12" style="stroke:#181818;stroke-width:1.0;"/><path d="M861.7188,480.2949 L852.6406,480.2949 L852.6406,465.7168 L861.7188,465.7168 L861.7188,468.248 L855.5156,468.248 L855.5156,471.4043 L861.1406,471.4043 L861.1406,473.9355 L855.5156,473.9355 L855.5156,477.748 L861.7188,477.748 L861.7188,480.2949 Z " fill="#000000"/><text fill="#000000" font-family="sans-serif" font-size="20" font-style="italic" lengthAdjust="spacing" textLength="83" x="910.5" y="468.0781">«entity»</text><text fill="#000000" font-family="sans-serif" font-size="20" lengthAdjust="spacing" textLength="160" x="872" y="491.3594">ScreeningPhase</text></g><!--class InterviewPhase--><g id="elem_InterviewPhase"><rect codeLine="25" fill="#FEF9E7" height="56.5625" id="InterviewPhase" rx="2.5" ry="2.5" style="stroke:#181818;stroke-width:0.5;" width="186" x="1070" y="444.5137"/><ellipse cx="1086" cy="472.7949" fill="#ADD1B2" rx="12" ry="12" style="stroke:#181818;stroke-width:1.0;"/><path d="M1090.7188,480.2949 L1081.6406,480.2949 L1081.6406,465.7168 L1090.7188,465.7168 L1090.7188,468.248 L1084.5156,468.248 L1084.5156,471.4043 L1090.1406,471.4043 L1090.1406,473.9355 L1084.5156,473.9355 L1084.5156,477.748 L1090.7188,477.748 L1090.7188,480.2949 Z " fill="#000000"/><text fill="#000000" font-family="sans-serif" font-size="20" font-style="italic" lengthAdjust="spacing" textLength="83" x="1135.5" y="468.0781">«entity»</text><text fill="#000000" font-family="sans-serif" font-size="20" lengthAdjust="spacing" textLength="152" x="1101" y="491.3594">InterviewPhase</text></g><!--class AnalysisPhase--><g id="elem_AnalysisPhase"><rect codeLine="26" fill="#FEF9E7" height="56.5625" id="AnalysisPhase" rx="2.5" ry="2.5" style="stroke:#181818;stroke-width:0.5;" width="175" x="1291.5" y="444.5137"/><ellipse cx="1307.5" cy="472.7949" fill="#ADD1B2" rx="12" ry="12" style="stroke:#181818;stroke-width:1.0;"/><path d="M1312.2188,480.2949 L1303.1406,480.2949 L1303.1406,465.7168 L1312.2188,465.7168 L1312.2188,468.248 L1306.0156,468.248 L1306.0156,471.4043 L1311.6406,471.4043 L1311.6406,473.9355 L1306.0156,473.9355 L1306.0156,477.748 L1312.2188,477.748 L1312.2188,480.2949 Z " fill="#000000"/><text fill="#000000" font-family="sans-serif" font-size="20" font-style="italic" lengthAdjust="spacing" textLength="83" x="1351.5" y="468.0781">«entity»</text><text fill="#000000" font-family="sans-serif" font-size="20" lengthAdjust="spacing" textLength="141" x="1322.5" y="491.3594">AnalysisPhase</text></g><!--class ResultPhase--><g id="elem_ResultPhase"><rect codeLine="27" fill="#FEF9E7" height="56.5625" id="ResultPhase" rx="2.5" ry="2.5" style="stroke:#181818;stroke-width:0.5;" width="156" x="1502" y="444.5137"/><ellipse cx="1518" cy="472.7949" fill="#ADD1B2" rx="12" ry="12" style="stroke:#181818;stroke-width:1.0;"/><path d="M1522.7188,480.2949 L1513.6406,480.2949 L1513.6406,465.7168 L1522.7188,465.7168 L1522.7188,468.248 L1516.5156,468.248 L1516.5156,471.4043 L1522.1406,471.4043 L1522.1406,473.9355 L1516.5156,473.9355 L1516.5156,477.748 L1522.7188,477.748 L1522.7188,480.2949 Z " fill="#000000"/><text fill="#000000" font-family="sans-serif" font-size="20" font-style="italic" lengthAdjust="spacing" textLength="83" x="1552.5" y="468.0781">«entity»</text><text fill="#000000" font-family="sans-serif" font-size="20" lengthAdjust="spacing" textLength="122" x="1533" y="491.3594">ResultPhase</text></g><!--class InitialDate--><g id="elem_InitialDate"><rect codeLine="29" fill="#D6EAF8" height="56.5625" id="InitialDate" rx="2.5" ry="2.5" style="stroke:#181818;stroke-width:0.5;" width="175" x="1693.5" y="444.5137"/><ellipse cx="1709.5" cy="472.7949" fill="#FF8B40" rx="12" ry="12" style="stroke:#181818;stroke-width:1.0;"/><path d="M1709.5156,478.6387 L1712.0781,466.4668 L1714.9844,466.4668 L1711.5156,481.0449 L1707.5313,481.0449 L1704.0625,466.4668 L1706.9531,466.4668 L1709.5156,478.6387 Z " fill="#000000"/><text fill="#000000" font-family="sans-serif" font-size="20" font-style="italic" lengthAdjust="spacing" textLength="145" x="1722.5" y="468.0781">«valueObject»</text><text fill="#000000" font-family="sans-serif" font-size="20" lengthAdjust="spacing" textLength="104" x="1743" y="491.3594">InitialDate</text></g><!--class FinalDate--><g id="elem_FinalDate"><rect codeLine="30" fill="#D6EAF8" height="56.5625" id="FinalDate" rx="2.5" ry="2.5" style="stroke:#181818;stroke-width:0.5;" width="175" x="1903.5" y="444.5137"/><ellipse cx="1919.5" cy="472.7949" fill="#FF8B40" rx="12" ry="12" style="stroke:#181818;stroke-width:1.0;"/><path d="M1919.5156,478.6387 L1922.0781,466.4668 L1924.9844,466.4668 L1921.5156,481.0449 L1917.5313,481.0449 L1914.0625,466.4668 L1916.9531,466.4668 L1919.5156,478.6387 Z " fill="#000000"/><text fill="#000000" font-family="sans-serif" font-size="20" font-style="italic" lengthAdjust="spacing" textLength="145" x="1932.5" y="468.0781">«valueObject»</text><text fill="#000000" font-family="sans-serif" font-size="20" lengthAdjust="spacing" textLength="96" x="1957" y="491.3594">FinalDate</text></g><!--class State--><g id="elem_State"><rect codeLine="31" fill="#D6EAF8" height="56.5625" id="State" rx="2.5" ry="2.5" style="stroke:#181818;stroke-width:0.5;" width="175" x="22.5" y="444.5137"/><ellipse cx="38.5" cy="472.7949" fill="#FF8B40" rx="12" ry="12" style="stroke:#181818;stroke-width:1.0;"/><path d="M38.5156,478.6387 L41.0781,466.4668 L43.9844,466.4668 L40.5156,481.0449 L36.5313,481.0449 L33.0625,466.4668 L35.9531,466.4668 L38.5156,478.6387 Z " fill="#000000"/><text fill="#000000" font-family="sans-serif" font-size="20" font-style="italic" lengthAdjust="spacing" textLength="145" x="51.5" y="468.0781">«valueObject»</text><text fill="#000000" font-family="sans-serif" font-size="20" lengthAdjust="spacing" textLength="53" x="97.5" y="491.3594">State</text></g><g id="elem_GMN13"><path d="M232.5,456.5137 L232.5,469.0137 L197.75,473.0137 L232.5,477.0137 L232.5,489.7949 A0,0 0 0 0 232.5,489.7949 L563.5,489.7949 A0,0 0 0 0 563.5,489.7949 L563.5,466.5137 L553.5,456.5137 L232.5,456.5137 A0,0 0 0 0 232.5,456.5137 " fill="#FEFFDD" style="stroke:#181818;stroke-width:0.5;"/><path d="M553.5,456.5137 L553.5,466.5137 L563.5,466.5137 L553.5,456.5137 " fill="#FEFFDD" style="stroke:#181818;stroke-width:0.5;"/><text fill="#000000" font-family="sans-serif" font-size="20" lengthAdjust="spacing" textLength="310" x="238.5" y="480.0781">State can be Opened or Closed</text></g><!--class JobOpening--><g id="elem_JobOpening"><rect codeLine="40" fill="#FDEBD0" height="79.8438" id="JobOpening" rx="2.5" ry="2.5" style="stroke:#181818;stroke-width:0.5;" width="151" x="2893.5" y="279.5137"/><ellipse cx="2909.5" cy="319.4355" fill="#ADD1B2" rx="12" ry="12" style="stroke:#181818;stroke-width:1.0;"/><path d="M2914.2188,326.9355 L2905.1406,326.9355 L2905.1406,312.3574 L2914.2188,312.3574 L2914.2188,314.8887 L2908.0156,314.8887 L2908.0156,318.0449 L2913.6406,318.0449 L2913.6406,320.5762 L2908.0156,320.5762 L2908.0156,324.3887 L2914.2188,324.3887 L2914.2188,326.9355 Z " fill="#000000"/><text fill="#000000" font-family="sans-serif" font-size="20" font-style="italic" lengthAdjust="spacing" textLength="83" x="2941.5" y="303.0781">«entity»</text><text fill="#000000" font-family="sans-serif" font-size="20" font-style="italic" lengthAdjust="spacing" textLength="64" x="2951" y="326.3594">«root»</text><text fill="#000000" font-family="sans-serif" font-size="20" lengthAdjust="spacing" textLength="117" x="2924.5" y="349.6406">JobOpening</text></g><!--class JobReference--><g id="elem_JobReference"><rect codeLine="42" fill="#D6EAF8" height="56.5625" id="JobReference" rx="2.5" ry="2.5" style="stroke:#181818;stroke-width:0.5;" width="175" x="2135.5" y="444.5137"/><ellipse cx="2151.5" cy="472.7949" fill="#FF8B40" rx="12" ry="12" style="stroke:#181818;stroke-width:1.0;"/><path d="M2151.5156,478.6387 L2154.0781,466.4668 L2156.9844,466.4668 L2153.5156,481.0449 L2149.5313,481.0449 L2146.0625,466.4668 L2148.9531,466.4668 L2151.5156,478.6387 Z " fill="#000000"/><text fill="#000000" font-family="sans-serif" font-size="20" font-style="italic" lengthAdjust="spacing" textLength="145" x="2164.5" y="468.0781">«valueObject»</text><text fill="#000000" font-family="sans-serif" font-size="20" lengthAdjust="spacing" textLength="132" x="2171" y="491.3594">JobReference</text></g><!--class TitleOrFunction--><g id="elem_TitleOrFunction"><rect codeLine="43" fill="#D6EAF8" height="56.5625" id="TitleOrFunction" rx="2.5" ry="2.5" style="stroke:#181818;stroke-width:0.5;" width="190" x="2346" y="444.5137"/><ellipse cx="2362" cy="472.7949" fill="#FF8B40" rx="12" ry="12" style="stroke:#181818;stroke-width:1.0;"/><path d="M2362.0156,478.6387 L2364.5781,466.4668 L2367.4844,466.4668 L2364.0156,481.0449 L2360.0313,481.0449 L2356.5625,466.4668 L2359.4531,466.4668 L2362.0156,478.6387 Z " fill="#000000"/><text fill="#000000" font-family="sans-serif" font-size="20" font-style="italic" lengthAdjust="spacing" textLength="145" x="2382.5" y="468.0781">«valueObject»</text><text fill="#000000" font-family="sans-serif" font-size="20" lengthAdjust="spacing" textLength="156" x="2377" y="491.3594">TitleOrFunction</text></g><!--class ContractType--><g id="elem_ContractType"><rect codeLine="44" fill="#D6EAF8" height="56.5625" id="ContractType" rx="2.5" ry="2.5" style="stroke:#181818;stroke-width:0.5;" width="175" x="2571.5" y="444.5137"/><ellipse cx="2587.5" cy="472.7949" fill="#FF8B40" rx="12" ry="12" style="stroke:#181818;stroke-width:1.0;"/><path d="M2587.5156,478.6387 L2590.0781,466.4668 L2592.9844,466.4668 L2589.5156,481.0449 L2585.5313,481.0449 L2582.0625,466.4668 L2584.9531,466.4668 L2587.5156,478.6387 Z " fill="#000000"/><text fill="#000000" font-family="sans-serif" font-size="20" font-style="italic" lengthAdjust="spacing" textLength="145" x="2600.5" y="468.0781">«valueObject»</text><text fill="#000000" font-family="sans-serif" font-size="20" lengthAdjust="spacing" textLength="134" x="2606" y="491.3594">ContractType</text></g><!--class Mode--><g id="elem_Mode"><rect codeLine="45" fill="#D6EAF8" height="56.5625" id="Mode" rx="2.5" ry="2.5" style="stroke:#181818;stroke-width:0.5;" width="175" x="2781.5" y="444.5137"/><ellipse cx="2797.5" cy="472.7949" fill="#FF8B40" rx="12" ry="12" style="stroke:#181818;stroke-width:1.0;"/><path d="M2797.5156,478.6387 L2800.0781,466.4668 L2802.9844,466.4668 L2799.5156,481.0449 L2795.5313,481.0449 L2792.0625,466.4668 L2794.9531,466.4668 L2797.5156,478.6387 Z " fill="#000000"/><text fill="#000000" font-family="sans-serif" font-size="20" font-style="italic" lengthAdjust="spacing" textLength="145" x="2810.5" y="468.0781">«valueObject»</text><text fill="#000000" font-family="sans-serif" font-size="20" lengthAdjust="spacing" textLength="54" x="2856" y="491.3594">Mode</text></g><!--class NumberOfVacancies--><g id="elem_NumberOfVacancies"><rect codeLine="46" fill="#D6EAF8" height="56.5625" id="NumberOfVacancies" rx="2.5" ry="2.5" style="stroke:#181818;stroke-width:0.5;" width="239" x="2991.5" y="444.5137"/><ellipse cx="3007.5" cy="472.7949" fill="#FF8B40" rx="12" ry="12" style="stroke:#181818;stroke-width:1.0;"/><path d="M3007.5156,478.6387 L3010.0781,466.4668 L3012.9844,466.4668 L3009.5156,481.0449 L3005.5313,481.0449 L3002.0625,466.4668 L3004.9531,466.4668 L3007.5156,478.6387 Z " fill="#000000"/><text fill="#000000" font-family="sans-serif" font-size="20" font-style="italic" lengthAdjust="spacing" textLength="145" x="3052.5" y="468.0781">«valueObject»</text><text fill="#000000" font-family="sans-serif" font-size="20" lengthAdjust="spacing" textLength="205" x="3022.5" y="491.3594">NumberOfVacancies</text></g><!--class JobDescription--><g id="elem_JobDescription"><rect codeLine="47" fill="#D6EAF8" height="56.5625" id="JobDescription" rx="2.5" ry="2.5" style="stroke:#181818;stroke-width:0.5;" width="179" x="3265.5" y="444.5137"/><ellipse cx="3281.5" cy="472.7949" fill="#FF8B40" rx="12" ry="12" style="stroke:#181818;stroke-width:1.0;"/><path d="M3281.5156,478.6387 L3284.0781,466.4668 L3286.9844,466.4668 L3283.5156,481.0449 L3279.5313,481.0449 L3276.0625,466.4668 L3278.9531,466.4668 L3281.5156,478.6387 Z " fill="#000000"/><text fill="#000000" font-family="sans-serif" font-size="20" font-style="italic" lengthAdjust="spacing" textLength="145" x="3296.5" y="468.0781">«valueObject»</text><text fill="#000000" font-family="sans-serif" font-size="20" lengthAdjust="spacing" textLength="145" x="3296.5" y="491.3594">JobDescription</text></g><!--class RequirementSpecification--><g id="elem_RequirementSpecification"><rect codeLine="48" fill="#FEF9E7" height="56.5625" id="RequirementSpecification" rx="2.5" ry="2.5" style="stroke:#181818;stroke-width:0.5;" width="295" x="3479.5" y="444.5137"/><ellipse cx="3495.5" cy="472.7949" fill="#ADD1B2" rx="12" ry="12" style="stroke:#181818;stroke-width:1.0;"/><path d="M3500.2188,480.2949 L3491.1406,480.2949 L3491.1406,465.7168 L3500.2188,465.7168 L3500.2188,468.248 L3494.0156,468.248 L3494.0156,471.4043 L3499.6406,471.4043 L3499.6406,473.9355 L3494.0156,473.9355 L3494.0156,477.748 L3500.2188,477.748 L3500.2188,480.2949 Z " fill="#000000"/><text fill="#000000" font-family="sans-serif" font-size="20" font-style="italic" lengthAdjust="spacing" textLength="83" x="3599.5" y="468.0781">«entity»</text><text fill="#000000" font-family="sans-serif" font-size="20" lengthAdjust="spacing" textLength="261" x="3510.5" y="491.3594">RequirementSpecification</text></g><!--class CompanyName--><g id="elem_CompanyName"><rect codeLine="36" fill="#D6EAF8" height="56.5625" id="CompanyName" rx="2.5" ry="2.5" style="stroke:#181818;stroke-width:0.5;" width="188" x="3810" y="444.5137"/><ellipse cx="3826" cy="472.7949" fill="#FF8B40" rx="12" ry="12" style="stroke:#181818;stroke-width:1.0;"/><path d="M3826.0156,478.6387 L3828.5781,466.4668 L3831.4844,466.4668 L3828.0156,481.0449 L3824.0313,481.0449 L3820.5625,466.4668 L3823.4531,466.4668 L3826.0156,478.6387 Z " fill="#000000"/><text fill="#000000" font-family="sans-serif" font-size="20" font-style="italic" lengthAdjust="spacing" textLength="145" x="3845.5" y="468.0781">«valueObject»</text><text fill="#000000" font-family="sans-serif" font-size="20" lengthAdjust="spacing" textLength="154" x="3841" y="491.3594">CompanyName</text></g><!--class Address--><g id="elem_Address"><rect codeLine="51" fill="#D6EAF8" height="56.5625" id="Address" rx="2.5" ry="2.5" style="stroke:#181818;stroke-width:0.5;" width="175" x="4033.5" y="444.5137"/><ellipse cx="4049.5" cy="472.7949" fill="#FF8B40" rx="12" ry="12" style="stroke:#181818;stroke-width:1.0;"/><path d="M4049.5156,478.6387 L4052.0781,466.4668 L4054.9844,466.4668 L4051.5156,481.0449 L4047.5313,481.0449 L4044.0625,466.4668 L4046.9531,466.4668 L4049.5156,478.6387 Z " fill="#000000"/><text fill="#000000" font-family="sans-serif" font-size="20" font-style="italic" lengthAdjust="spacing" textLength="145" x="4062.5" y="468.0781">«valueObject»</text><text fill="#000000" font-family="sans-serif" font-size="20" lengthAdjust="spacing" textLength="80" x="4095" y="491.3594">Address</text></g><!--link JobOpening to JobReference--><g id="link_JobOpening_JobReference"><path codeLine="54" d="M2893.12,333.2937 C2772.75,353.9937 2530.86,397.3237 2328,444.5137 C2323.91,445.4637 2319.74,446.4637 2315.53,447.4837 " fill="none" id="JobOpening-to-JobReference" style="stroke:#000000;stroke-width:1.0;"/><polygon fill="#000000" points="2310.57,448.6937,2320.2619,450.4452,2315.4274,447.5079,2318.3646,442.6734,2310.57,448.6937" style="stroke:#000000;stroke-width:1.0;"/><text fill="#000000" font-family="sans-serif" font-size="20" lengthAdjust="spacing" textLength="35" x="2575" y="409.0781">has</text><text fill="#000000" font-family="sans-serif" font-size="20" lengthAdjust="spacing" textLength="13" x="2872.5256" y="329.0885">1</text><text fill="#000000" font-family="sans-serif" font-size="20" lengthAdjust="spacing" textLength="13" x="2318.3602" y="441.3215">1</text></g><!--link JobOpening to TitleOrFunction--><g id="link_JobOpening_TitleOrFunction"><path codeLine="55" d="M2893.35,342.2237 C2800.72,368.7937 2643.54,413.8937 2541.01,443.3137 " fill="none" id="JobOpening-to-TitleOrFunction" style="stroke:#000000;stroke-width:1.0;"/><polygon fill="#000000" points="2536.17,444.7037,2545.9253,446.0582,2540.9749,443.3207,2543.7124,438.3703,2536.17,444.7037" style="stroke:#000000;stroke-width:1.0;"/><text fill="#000000" font-family="sans-serif" font-size="20" lengthAdjust="spacing" textLength="35" x="2722" y="409.0781">has</text><text fill="#000000" font-family="sans-serif" font-size="20" lengthAdjust="spacing" textLength="13" x="2872.5201" y="364.0696">1</text><text fill="#000000" font-family="sans-serif" font-size="20" lengthAdjust="spacing" textLength="13" x="2543.9541" y="437.2477">1</text></g><!--link JobOpening to ContractType--><g id="link_JobOpening_ContractType"><path codeLine="56" d="M2893.17,357.5737 C2840.03,383.5437 2769.93,417.8037 2720.32,442.0437 " fill="none" id="JobOpening-to-ContractType" style="stroke:#000000;stroke-width:1.0;"/><polygon fill="#000000" points="2715.58,444.3637,2725.4223,444.0043,2720.0719,442.1676,2721.9086,436.8172,2715.58,444.3637" style="stroke:#000000;stroke-width:1.0;"/><text fill="#000000" font-family="sans-serif" font-size="20" lengthAdjust="spacing" textLength="35" x="2824" y="409.0781">has</text><text fill="#000000" font-family="sans-serif" font-size="20" lengthAdjust="spacing" textLength="13" x="2879.5207" y="385.9383">1</text><text fill="#000000" font-family="sans-serif" font-size="20" lengthAdjust="spacing" textLength="13" x="2712.909" y="431.7213">1</text></g><!--link JobOpening to Mode--><g id="link_JobOpening_Mode"><path codeLine="57" d="M2943.25,359.5337 C2926.79,384.4537 2905.72,416.3837 2890.23,439.8537 " fill="none" id="JobOpening-to-Mode" style="stroke:#000000;stroke-width:1.0;"/><polygon fill="#000000" points="2887.41,444.1337,2895.7096,438.8311,2890.167,439.9625,2889.0356,434.4199,2887.41,444.1337" style="stroke:#000000;stroke-width:1.0;"/><text fill="#000000" font-family="sans-serif" font-size="20" lengthAdjust="spacing" textLength="35" x="2922" y="409.0781">has</text><text fill="#000000" font-family="sans-serif" font-size="20" lengthAdjust="spacing" textLength="13" x="2925.3117" y="386.0206">1</text><text fill="#000000" font-family="sans-serif" font-size="20" lengthAdjust="spacing" textLength="13" x="2876.7548" y="431.8191">1</text></g><!--link JobOpening to Address--><g id="link_JobOpening_Address"><path codeLine="58" d="M3044.62,324.9937 C3217.93,336.2337 3656.6,370.2037 4016,444.5137 C4020.05,445.3537 4024.17,446.2437 4028.32,447.1837 " fill="none" id="JobOpening-to-Address" style="stroke:#000000;stroke-width:1.0;"/><polygon fill="#000000" points="4033.22,448.3037,4025.3385,442.3976,4028.3459,447.1888,4023.5547,450.1961,4033.22,448.3037" style="stroke:#000000;stroke-width:1.0;"/><text fill="#000000" font-family="sans-serif" font-size="20" lengthAdjust="spacing" textLength="35" x="3847" y="409.0781">has</text><text fill="#000000" font-family="sans-serif" font-size="20" lengthAdjust="spacing" textLength="13" x="3052.4471" y="345.1974">1</text><text fill="#000000" font-family="sans-serif" font-size="20" lengthAdjust="spacing" textLength="13" x="4012.4124" y="440.8992">1</text></g><!--link JobOpening to CompanyName--><g id="link_JobOpening_CompanyName"><path codeLine="59" d="M3044.75,329.6537 C3190.13,347.6837 3518.05,390.8237 3791,444.5137 C3795.51,445.4037 3800.11,446.3437 3804.75,447.3337 " fill="none" id="JobOpening-to-CompanyName" style="stroke:#000000;stroke-width:1.0;"/><polygon fill="#000000" points="3809.8,448.4237,3801.8333,442.6331,3804.9102,447.3799,3800.1633,450.4568,3809.8,448.4237" style="stroke:#000000;stroke-width:1.0;"/><text fill="#000000" font-family="sans-serif" font-size="20" lengthAdjust="spacing" textLength="35" x="3612" y="409.0781">has</text><text fill="#000000" font-family="sans-serif" font-size="20" lengthAdjust="spacing" textLength="13" x="3052.5895" y="325.1093">1</text><text fill="#000000" font-family="sans-serif" font-size="20" lengthAdjust="spacing" textLength="13" x="3789.0902" y="441.2525">1</text></g><!--link JobOpening to NumberOfVacancies--><g id="link_JobOpening_NumberOfVacancies"><path codeLine="60" d="M3005.57,359.5337 C3029.13,384.6637 3059.35,416.9137 3081.4,440.4337 " fill="none" id="JobOpening-to-NumberOfVacancies" style="stroke:#000000;stroke-width:1.0;"/><polygon fill="#000000" points="3084.86,444.1337,3081.6239,434.8317,3081.4408,440.4855,3075.7869,440.3024,3084.86,444.1337" style="stroke:#000000;stroke-width:1.0;"/><text fill="#000000" font-family="sans-serif" font-size="20" lengthAdjust="spacing" textLength="35" x="3057" y="409.0781">has</text><text fill="#000000" font-family="sans-serif" font-size="20" lengthAdjust="spacing" textLength="13" x="2997.1745" y="386.0206">1</text><text fill="#000000" font-family="sans-serif" font-size="20" lengthAdjust="spacing" textLength="13" x="3065.434" y="431.8191">1</text></g><!--link JobOpening to JobDescription--><g id="link_JobOpening_JobDescription"><path codeLine="61" d="M3044.8,350.2637 C3112.88,376.9837 3212.26,415.9937 3280.07,442.6037 " fill="none" id="JobOpening-to-JobDescription" style="stroke:#000000;stroke-width:1.0;"/><polygon fill="#000000" points="3284.9,444.4937,3277.9845,437.4811,3280.2459,442.6663,3275.0607,444.9277,3284.9,444.4937" style="stroke:#000000;stroke-width:1.0;"/><text fill="#000000" font-family="sans-serif" font-size="20" lengthAdjust="spacing" textLength="35" x="3208" y="409.0781">has</text><text fill="#000000" font-family="sans-serif" font-size="20" lengthAdjust="spacing" textLength="13" x="3052.387" y="372.7432">1</text><text fill="#000000" font-family="sans-serif" font-size="20" lengthAdjust="spacing" textLength="13" x="3256.1013" y="431.8781">1</text></g><!--link JobOpening to RequirementSpecification--><g id="link_JobOpening_RequirementSpecification"><path codeLine="62" d="M3044.8,337.9637 C3156.66,363.7237 3367.2,412.1937 3502.09,443.2537 " fill="none" id="JobOpening-to-RequirementSpecification" style="stroke:#000000;stroke-width:1.0;"/><polygon fill="#000000" points="3507.26,444.4437,3499.3785,438.5376,3502.3859,443.3288,3497.5947,446.3361,3507.26,444.4437" style="stroke:#000000;stroke-width:1.0;"/><text fill="#000000" font-family="sans-serif" font-size="20" lengthAdjust="spacing" textLength="35" x="3377" y="409.0781">has</text><text fill="#000000" font-family="sans-serif" font-size="20" lengthAdjust="spacing" textLength="13" x="3052.1569" y="365.3902">1</text><text fill="#000000" font-family="sans-serif" font-size="20" lengthAdjust="spacing" textLength="13" x="3468.223" y="431.8178">1</text></g><!--link RecruitmentProcess to Phase--><g id="link_RecruitmentProcess_Phase"><path codeLine="65" d="M1610.41,166.6237 C1555.69,202.5437 1475.72,255.0337 1425.56,287.9537 " fill="none" id="RecruitmentProcess-to-Phase" style="stroke:#000000;stroke-width:1.0;"/><polygon fill="#000000" points="1421.1,290.8837,1430.8201,289.2965,1425.2821,288.1432,1426.4354,282.6052,1421.1,290.8837" style="stroke:#000000;stroke-width:1.0;"/><text fill="#000000" font-family="sans-serif" font-size="20" lengthAdjust="spacing" textLength="35" x="1561" y="216.0781">has</text><text fill="#000000" font-family="sans-serif" font-size="20" lengthAdjust="spacing" textLength="13" x="1587.703" y="192.8005">1</text><text fill="#000000" font-family="sans-serif" font-size="20" lengthAdjust="spacing" textLength="10" x="1418.7519" y="278.2454">*</text></g><!--link RecruitmentProcess to JobOpening--><g id="link_RecruitmentProcess_JobOpening"><path codeLine="66" d="M1787.28,144.7537 C2047.19,182.9737 2666.16,273.9837 2888.08,306.6137 " fill="none" id="RecruitmentProcess-to-JobOpening" style="stroke:#000000;stroke-width:1.0;"/><polygon fill="#000000" points="2893.25,307.3737,2884.9273,302.1075,2888.3031,306.6466,2883.764,310.0224,2893.25,307.3737" style="stroke:#000000;stroke-width:1.0;"/><text fill="#000000" font-family="sans-serif" font-size="20" lengthAdjust="spacing" textLength="27" x="2282" y="216.0781">for</text><text fill="#000000" font-family="sans-serif" font-size="20" lengthAdjust="spacing" textLength="13" x="1794.8228" y="140.7422">1</text><text fill="#000000" font-family="sans-serif" font-size="20" lengthAdjust="spacing" textLength="13" x="2872.4105" y="300.7058">1</text></g><!--link Phase to State--><g id="link_Phase_State"><path codeLine="69" d="M1322.24,323.5337 C1152.81,333.1937 636.29,367.3537 215,444.5137 C210.94,445.2537 206.8,446.0737 202.63,446.9537 " fill="none" id="Phase-to-State" style="stroke:#000000;stroke-width:1.0;"/><polygon fill="#000000" points="197.72,448.0037,207.3567,450.0368,202.6098,446.9599,205.6867,442.2131,197.72,448.0037" style="stroke:#000000;stroke-width:1.0;"/><text fill="#000000" font-family="sans-serif" font-size="20" lengthAdjust="spacing" textLength="35" x="566" y="409.0781">has</text><text fill="#000000" font-family="sans-serif" font-size="20" lengthAdjust="spacing" textLength="13" x="1301.5302" y="318.2303">1</text><text fill="#000000" font-family="sans-serif" font-size="20" lengthAdjust="spacing" textLength="13" x="205.5226" y="440.5744">1</text></g><!--link Phase to InitialDate--><g id="link_Phase_InitialDate"><path codeLine="70" d="M1435.74,341.8937 C1505.53,368.1937 1624.33,412.9737 1702.75,442.5237 " fill="none" id="Phase-to-InitialDate" style="stroke:#000000;stroke-width:1.0;"/><polygon fill="#000000" points="1707.86,444.4437,1700.8375,437.5382,1703.1784,442.6881,1698.0285,445.0289,1707.86,444.4437" style="stroke:#000000;stroke-width:1.0;"/><text fill="#000000" font-family="sans-serif" font-size="20" lengthAdjust="spacing" textLength="35" x="1629" y="409.0781">has</text><text fill="#000000" font-family="sans-serif" font-size="20" lengthAdjust="spacing" textLength="13" x="1443.4474" y="338.8279">1</text><text fill="#000000" font-family="sans-serif" font-size="20" lengthAdjust="spacing" textLength="13" x="1678.4342" y="431.8178">1</text></g><!--link Phase to FinalDate--><g id="link_Phase_FinalDate"><path codeLine="71" d="M1435.73,333.4337 C1495,347.0237 1590.66,369.2237 1673,389.5137 C1767.93,412.9037 1791.38,419.9037 1886,444.5137 C1890.06,445.5737 1894.22,446.6537 1898.41,447.7437 " fill="none" id="Phase-to-FinalDate" style="stroke:#000000;stroke-width:1.0;"/><polygon fill="#000000" points="1903.35,449.0337,1895.6438,442.9007,1898.5104,447.7774,1893.6337,450.644,1903.35,449.0337" style="stroke:#000000;stroke-width:1.0;"/><text fill="#000000" font-family="sans-serif" font-size="20" lengthAdjust="spacing" textLength="35" x="1770" y="409.0781">has</text><text fill="#000000" font-family="sans-serif" font-size="20" lengthAdjust="spacing" textLength="13" x="1443.4362" y="355.14">1</text><text fill="#000000" font-family="sans-serif" font-size="20" lengthAdjust="spacing" textLength="13" x="1882.5532" y="441.6897">1</text></g><!--reverse link Phase to ApplicationPhase--><g id="link_Phase_ApplicationPhase"><path codeLine="72" d="M1302.76,336.9437 C1238.73,350.7937 1144.84,371.2237 1063,389.5137 C976.26,408.8937 877.92,431.4037 805.81,448.0137 " fill="none" id="Phase-backto-ApplicationPhase" style="stroke:#000000;stroke-width:1.0;"/><polygon fill="none" points="1301.42,330.0737,1322.45,332.6837,1304.38,343.7537,1301.42,330.0737" style="stroke:#000000;stroke-width:1.0;"/><text fill="#000000" font-family="sans-serif" font-size="20" lengthAdjust="spacing" textLength="34" x="1064" y="409.0781">is a</text></g><!--reverse link Phase to ScreeningPhase--><g id="link_Phase_ScreeningPhase"><path codeLine="73" d="M1303.33,346.5137 C1223.93,373.7837 1099.6,416.5037 1018.45,444.3737 " fill="none" id="Phase-backto-ScreeningPhase" style="stroke:#000000;stroke-width:1.0;"/><polygon fill="none" points="1301.06,339.8837,1322.25,340.0137,1305.61,353.1237,1301.06,339.8837" style="stroke:#000000;stroke-width:1.0;"/><text fill="#000000" font-family="sans-serif" font-size="20" lengthAdjust="spacing" textLength="34" x="1173" y="409.0781">is a</text></g><!--reverse link Phase to InterviewPhase--><g id="link_Phase_InterviewPhase"><path codeLine="74" d="M1322.88,359.8737 C1285.05,386.4037 1236.09,420.7537 1202.37,444.4037 " fill="none" id="Phase-backto-InterviewPhase" style="stroke:#000000;stroke-width:1.0;"/><polygon fill="none" points="1318.99,354.0537,1339.38,348.3037,1327.03,365.5137,1318.99,354.0537" style="stroke:#000000;stroke-width:1.0;"/><text fill="#000000" font-family="sans-serif" font-size="20" lengthAdjust="spacing" textLength="34" x="1279" y="409.0781">is a</text></g><!--reverse link Phase to AnalysisPhase--><g id="link_Phase_AnalysisPhase"><path codeLine="75" d="M1379,368.3537 C1379,393.4037 1379,423.2037 1379,444.4037 " fill="none" id="Phase-backto-AnalysisPhase" style="stroke:#000000;stroke-width:1.0;"/><polygon fill="none" points="1372,368.3037,1379,348.3037,1386,368.3037,1372,368.3037" style="stroke:#000000;stroke-width:1.0;"/><text fill="#000000" font-family="sans-serif" font-size="20" lengthAdjust="spacing" textLength="34" x="1380" y="409.0781">is a</text></g><!--reverse link Phase to ResultPhase--><g id="link_Phase_ResultPhase"><path codeLine="76" d="M1432.18,360.5937 C1467.24,387.0237 1512.27,420.9637 1543.37,444.4037 " fill="none" id="Phase-backto-ResultPhase" style="stroke:#000000;stroke-width:1.0;"/><polygon fill="none" points="1427.62,365.9337,1415.87,348.3037,1436.05,354.7537,1427.62,365.9337" style="stroke:#000000;stroke-width:1.0;"/><text fill="#000000" font-family="sans-serif" font-size="20" lengthAdjust="spacing" textLength="34" x="1505" y="409.0781">is a</text></g><!--SRC=[dPNVRzem4CVVyrUSw4EtQKXGxKU78YG2HEgqbQfqVJVE4RmcTcOxdLZN_trEJ6WIGcZ60qY-p_VEt9tlr0FZ2P4aZWHzm002N9CqqhxWUid-85mC74Sp7I7CH4mOX-yYm0Zwy6Cv70oDSSC218mJlOKOunLAvPohmYbyOnprDa4GKc-4uxnOQ4IKWYS7pCSZz26K8kN1L4H2kkuZYL9Sh7uYrUCndCq-pIV-PJCgXSWPVpRtPeDcHg5yP1HpLqF_OkurOSR5tFyo_vpR9bAAt_ROYmpdF9VldfWJ4cBpxU5ixlaVVI-JdCCjKfao7IFNDr9GDFzv4eOIGwBHAVpqN9SKX-QIXvhUBfGvOIRH3KvTrzgCV9-Jf-Uow6P359QvgdcI916ZH3F1Jv1BAX4vu-49xehhBE_u-rHaJgAjOke4TelADEOnAF-oFNN5cMOacfbaGhsLNFVD_NjJQV_I-p1u-oAtIf_n_z8jzMirkOWBGqiMRZI8jHMFTZueuR12M2J8pMCqpJIDXC8WwoKRQYhYXF3jDObV6V0SlefLxj1Kx7JlbU1QqnbBuUL8ivKoOk1RNAD4JhicyowRDWlffvncpTXHFJM3InAgxxAXqqsQJRQEakiqctYBzJqnXQCCLKUzITCC5PKiwVHNzo_YLyeaPcDWcI1bwztxhJsFVUzCWa3QMT6vRoH6kMkrOOboIgtG6_QWtn_dlvMYZy2yr6DalSQjSAMahMHUmLQYIC69W2zlh1KyB7yhNgjsAtkijbPKNInGB85gbHgsn3x2kzvk7rX_RQYzU7774Qo5pE9RUJMYFIihTyCjYt5eB0tgOyX-8blWO4drqwJ_TsmlCmAcW3YrzTH0r1PJ0r5TIGr0UHarc9r_]--></g></svg>