<?xml version="1.0" encoding="UTF-8" standalone="no"?><svg xmlns="http://www.w3.org/2000/svg" xmlns:xlink="http://www.w3.org/1999/xlink" contentStyleType="text/css" height="472px" preserveAspectRatio="none" style="width:696px;height:472px;background:#FFFFFF;" version="1.1" viewBox="0 0 696 472" width="696px" zoomAndPan="magnify"><defs/><g><text fill="#000000" font-family="sans-serif" font-size="14" font-weight="bold" lengthAdjust="spacing" textLength="464" x="115" y="27.9951">System Sequence Diagram (SSD) - Enable Or Disable Users</text><rect fill="#FFFFFF" height="239.9688" style="stroke:#181818;stroke-width:1.0;" width="10" x="47.5" y="135.5781"/><rect fill="#FFFFFF" height="37.2813" style="stroke:#181818;stroke-width:1.0;" width="10" x="637.5" y="164.8594"/><rect fill="#FFFFFF" height="127.125" style="stroke:#181818;stroke-width:1.0;" width="10" x="637.5" y="239.4219"/><line style="stroke:#181818;stroke-width:0.5;stroke-dasharray:5.0,5.0;" x1="52" x2="52" y1="125.5781" y2="384.5469"/><line style="stroke:#181818;stroke-width:0.5;stroke-dasharray:5.0,5.0;" x1="642" x2="642" y1="125.5781" y2="384.5469"/><text fill="#000000" font-family="sans-serif" font-size="20" lengthAdjust="spacing" textLength="89" x="5" y="120.8613">Operator</text><ellipse cx="52.5" cy="50.7969" fill="#E3E3E3" rx="8" ry="8" style="stroke:#181818;stroke-width:0.5;"/><path d="M52.5,58.7969 L52.5,85.7969 M39.5,66.7969 L65.5,66.7969 M52.5,85.7969 L39.5,100.7969 M52.5,85.7969 L65.5,100.7969 " fill="none" style="stroke:#181818;stroke-width:0.5;"/><text fill="#000000" font-family="sans-serif" font-size="20" lengthAdjust="spacing" textLength="89" x="5" y="402.1113">Operator</text><ellipse cx="52.5" cy="415.3281" fill="#E3E3E3" rx="8" ry="8" style="stroke:#181818;stroke-width:0.5;"/><path d="M52.5,423.3281 L52.5,450.3281 M39.5,431.3281 L65.5,431.3281 M52.5,450.3281 L39.5,465.3281 M52.5,450.3281 L65.5,465.3281 " fill="none" style="stroke:#181818;stroke-width:0.5;"/><rect fill="#E3E3E3" height="37.2813" rx="2.5" ry="2.5" style="stroke:#181818;stroke-width:0.5;" width="95" x="595" y="87.2969"/><text fill="#000000" font-family="sans-serif" font-size="20" lengthAdjust="spacing" textLength="81" x="602" y="112.8613">:System</text><rect fill="#E3E3E3" height="37.2813" rx="2.5" ry="2.5" style="stroke:#181818;stroke-width:0.5;" width="95" x="595" y="383.5469"/><text fill="#000000" font-family="sans-serif" font-size="20" lengthAdjust="spacing" textLength="81" x="602" y="409.1113">:System</text><rect fill="#FFFFFF" height="239.9688" style="stroke:#181818;stroke-width:1.0;" width="10" x="47.5" y="135.5781"/><rect fill="#FFFFFF" height="37.2813" style="stroke:#181818;stroke-width:1.0;" width="10" x="637.5" y="164.8594"/><rect fill="#FFFFFF" height="127.125" style="stroke:#181818;stroke-width:1.0;" width="10" x="637.5" y="239.4219"/><polygon fill="#181818" points="625.5,160.8594,635.5,164.8594,625.5,168.8594,629.5,164.8594" style="stroke:#181818;stroke-width:1.0;"/><line style="stroke:#181818;stroke-width:1.0;" x1="57.5" x2="631.5" y1="164.8594" y2="164.8594"/><text fill="#000000" font-family="sans-serif" font-size="20" font-weight="bold" lengthAdjust="spacing" textLength="14" x="64.5" y="158.1426">1</text><text fill="#000000" font-family="sans-serif" font-size="20" lengthAdjust="spacing" textLength="543" x="82.5" y="158.1426">Asks to import data related to candidates applications</text><polygon fill="#181818" points="68.5,198.1406,58.5,202.1406,68.5,206.1406,64.5,202.1406" style="stroke:#181818;stroke-width:1.0;"/><line style="stroke:#181818;stroke-width:1.0;stroke-dasharray:2.0,2.0;" x1="62.5" x2="641.5" y1="202.1406" y2="202.1406"/><text fill="#000000" font-family="sans-serif" font-size="20" font-weight="bold" lengthAdjust="spacing" textLength="14" x="74.5" y="195.4238">2</text><text fill="#000000" font-family="sans-serif" font-size="20" lengthAdjust="spacing" textLength="385" x="92.5" y="195.4238">Requests the path of the shared folder</text><polygon fill="#181818" points="625.5,235.4219,635.5,239.4219,625.5,243.4219,629.5,239.4219" style="stroke:#181818;stroke-width:1.0;"/><line style="stroke:#181818;stroke-width:1.0;" x1="57.5" x2="631.5" y1="239.4219" y2="239.4219"/><text fill="#000000" font-family="sans-serif" font-size="20" font-weight="bold" lengthAdjust="spacing" textLength="14" x="64.5" y="232.7051">3</text><text fill="#000000" font-family="sans-serif" font-size="20" lengthAdjust="spacing" textLength="207" x="82.5" y="232.7051">Provides information</text><path d="M366,252.4219 L366,331.4219 L632,331.4219 L632,262.4219 L622,252.4219 L366,252.4219 " fill="#FAFAFA" style="stroke:#181818;stroke-width:0.5;"/><path d="M622,252.4219 L622,262.4219 L632,262.4219 L622,252.4219 " fill="#FAFAFA" style="stroke:#181818;stroke-width:0.5;"/><text fill="#000000" font-family="sans-serif" font-size="20" lengthAdjust="spacing" textLength="245" x="372" y="275.9863">The system imports only</text><text fill="#000000" font-family="sans-serif" font-size="20" lengthAdjust="spacing" textLength="230" x="378" y="299.2676">the path of the file and</text><text fill="#000000" font-family="sans-serif" font-size="20" lengthAdjust="spacing" textLength="164" x="378" y="322.5488">not the file itself</text><polygon fill="#181818" points="68.5,362.5469,58.5,366.5469,68.5,370.5469,64.5,366.5469" style="stroke:#181818;stroke-width:1.0;"/><line style="stroke:#181818;stroke-width:1.0;stroke-dasharray:2.0,2.0;" x1="62.5" x2="641.5" y1="366.5469" y2="366.5469"/><text fill="#000000" font-family="sans-serif" font-size="20" font-weight="bold" lengthAdjust="spacing" textLength="14" x="74.5" y="359.8301">4</text><text fill="#000000" font-family="sans-serif" font-size="20" lengthAdjust="spacing" textLength="482" x="92.5" y="359.8301">Informs that the data was imported successfully</text><!--SRC=[XL4zJmCn3DtlLrYTOAY463iW8HKafY8EDXOtSTgekVY8VQtAhyTtro-98Z8vzijxpo-oYRd5WarYjo4FdW9sIPyvQns_2UxlAZb2eE7CRbsu8T3IqSMaHRV15TMwJmI5d69UfKk0hD7pBkOL14n2LQLH3LhlHQc1chuwoevW7d7Lms_gUduBKtZAk3JOejX4Xl93g4XLOQUSksP9nMgdN63HKa4hAXFKw6ABMM4o6nKcW78G6_1nYqhd9nNOETvW-d3qDOD7sGWeGsnQBWeU5Ms_PAzzttQOVRGc2M3RfkXG8sSP-4uoHrqud0Fvr7HEcZDuwpCGDRKrMPww1Wv3RT4LKmkSl6tR4tYwodrrWTV2s-ZDNyo1IpFuksOFJlOoMpDHqDx0YUUzTp9UnYm4EAVzP_xbDqJx9il5HaPrRaKLIk6_65u6ctqAEBuT8j_PzusobeHqpf58w5BQ_v773m00]--></g></svg>