<?xml version="1.0" encoding="UTF-8" standalone="no"?><svg xmlns="http://www.w3.org/2000/svg" xmlns:xlink="http://www.w3.org/1999/xlink" contentStyleType="text/css" height="790px" preserveAspectRatio="none" style="width:879px;height:790px;background:#FFFFFF;" version="1.1" viewBox="0 0 879 790" width="879px" zoomAndPan="magnify"><defs/><g><text fill="#000000" font-family="sans-serif" font-size="14" font-weight="bold" lengthAdjust="spacing" textLength="188" x="338.5" y="22.9951">Class Diagram - US1003</text><!--class UI--><g id="elem_UI"><rect codeLine="13" fill="#FEF9E7" height="50" id="UI" rx="2.5" ry="2.5" style="stroke:#181818;stroke-width:0.5;" width="193" x="375" y="44.2969"/><ellipse cx="391" cy="61.2969" fill="#ADD1B2" rx="12" ry="12" style="stroke:#181818;stroke-width:1.0;"/><path d="M394.0625,68.375 Q393.375,68.7344 392.625,68.9063 Q391.875,69.0781 391.0469,69.0781 Q388.0938,69.0781 386.5313,67.1406 Q384.9844,65.1875 384.9844,61.5156 Q384.9844,57.8438 386.5313,55.9063 Q388.0938,53.9531 391.0469,53.9531 Q391.875,53.9531 392.625,54.125 Q393.3906,54.2969 394.0625,54.6563 L394.0625,57.8594 Q393.3125,57.1719 392.6094,56.8594 Q391.9219,56.5469 391.1719,56.5469 Q389.5938,56.5469 388.7813,57.7969 Q387.9844,59.0469 387.9844,61.5156 Q387.9844,63.9844 388.7813,65.2344 Q389.5938,66.4844 391.1719,66.4844 Q391.9219,66.4844 392.6094,66.1719 Q393.3125,65.8594 394.0625,65.1719 L394.0625,68.375 Z " fill="#000000"/><text fill="#000000" font-family="sans-serif" font-size="20" lengthAdjust="spacing" textLength="159" x="406" y="68.2207">ListCandidateUI</text><line style="stroke:#181818;stroke-width:0.5;" x1="376" x2="567" y1="78.2969" y2="78.2969"/><line style="stroke:#181818;stroke-width:0.5;" x1="376" x2="567" y1="86.2969" y2="86.2969"/></g><!--class ListCandidateController--><g id="elem_ListCandidateController"><rect codeLine="15" fill="#FEF9E7" height="73.2813" id="ListCandidateController" rx="2.5" ry="2.5" style="stroke:#181818;stroke-width:0.5;" width="236" x="353.5" y="154.2969"/><ellipse cx="369.5" cy="171.2969" fill="#ADD1B2" rx="12" ry="12" style="stroke:#181818;stroke-width:1.0;"/><path d="M372.5625,178.375 Q371.875,178.7344 371.125,178.9063 Q370.375,179.0781 369.5469,179.0781 Q366.5938,179.0781 365.0313,177.1406 Q363.4844,175.1875 363.4844,171.5156 Q363.4844,167.8438 365.0313,165.9063 Q366.5938,163.9531 369.5469,163.9531 Q370.375,163.9531 371.125,164.125 Q371.8906,164.2969 372.5625,164.6563 L372.5625,167.8594 Q371.8125,167.1719 371.1094,166.8594 Q370.4219,166.5469 369.6719,166.5469 Q368.0938,166.5469 367.2813,167.7969 Q366.4844,169.0469 366.4844,171.5156 Q366.4844,173.9844 367.2813,175.2344 Q368.0938,176.4844 369.6719,176.4844 Q370.4219,176.4844 371.1094,176.1719 Q371.8125,175.8594 372.5625,175.1719 L372.5625,178.375 Z " fill="#000000"/><text fill="#000000" font-family="sans-serif" font-size="20" lengthAdjust="spacing" textLength="202" x="384.5" y="178.2207">CandidateController</text><line style="stroke:#181818;stroke-width:0.5;" x1="354.5" x2="588.5" y1="188.2969" y2="188.2969"/><line style="stroke:#181818;stroke-width:0.5;" x1="354.5" x2="588.5" y1="196.2969" y2="196.2969"/><ellipse cx="364.5" cy="213.4375" fill="#84BE84" rx="3" ry="3" style="stroke:#038048;stroke-width:1.0;"/><text fill="#000000" font-family="sans-serif" font-size="20" lengthAdjust="spacing" textLength="208" x="374.5" y="218.8613">allCandidates(): void</text></g><!--class CandidateService--><g id="elem_CandidateService"><rect codeLine="19" fill="#FEF9E7" height="73.2813" id="CandidateService" rx="2.5" ry="2.5" style="stroke:#181818;stroke-width:0.5;" width="464" x="239.5" y="287.2969"/><ellipse cx="379" cy="304.2969" fill="#ADD1B2" rx="12" ry="12" style="stroke:#181818;stroke-width:1.0;"/><path d="M382.0625,311.375 Q381.375,311.7344 380.625,311.9063 Q379.875,312.0781 379.0469,312.0781 Q376.0938,312.0781 374.5313,310.1406 Q372.9844,308.1875 372.9844,304.5156 Q372.9844,300.8438 374.5313,298.9063 Q376.0938,296.9531 379.0469,296.9531 Q379.875,296.9531 380.625,297.125 Q381.3906,297.2969 382.0625,297.6563 L382.0625,300.8594 Q381.3125,300.1719 380.6094,299.8594 Q379.9219,299.5469 379.1719,299.5469 Q377.5938,299.5469 376.7813,300.7969 Q375.9844,302.0469 375.9844,304.5156 Q375.9844,306.9844 376.7813,308.2344 Q377.5938,309.4844 379.1719,309.4844 Q379.9219,309.4844 380.6094,309.1719 Q381.3125,308.8594 382.0625,308.1719 L382.0625,311.375 Z " fill="#000000"/><text fill="#000000" font-family="sans-serif" font-size="20" lengthAdjust="spacing" textLength="176" x="401" y="311.2207">CandidateService</text><line style="stroke:#181818;stroke-width:0.5;" x1="240.5" x2="702.5" y1="321.2969" y2="321.2969"/><line style="stroke:#181818;stroke-width:0.5;" x1="240.5" x2="702.5" y1="329.2969" y2="329.2969"/><ellipse cx="250.5" cy="346.4375" fill="#84BE84" rx="3" ry="3" style="stroke:#038048;stroke-width:1.0;"/><text fill="#000000" font-family="sans-serif" font-size="20" lengthAdjust="spacing" textLength="437" x="260.5" y="351.8613">allJobOpenings(): Iterable&lt;CandidateDTO&gt;</text></g><!--class Candidate--><g id="elem_Candidate"><rect codeLine="23" fill="#FEF9E7" height="119.8438" id="Candidate" rx="2.5" ry="2.5" style="stroke:#181818;stroke-width:0.5;" width="279" x="133" y="420.2969"/><ellipse cx="216.5" cy="437.2969" fill="#ADD1B2" rx="12" ry="12" style="stroke:#181818;stroke-width:1.0;"/><path d="M219.5625,444.375 Q218.875,444.7344 218.125,444.9063 Q217.375,445.0781 216.5469,445.0781 Q213.5938,445.0781 212.0313,443.1406 Q210.4844,441.1875 210.4844,437.5156 Q210.4844,433.8438 212.0313,431.9063 Q213.5938,429.9531 216.5469,429.9531 Q217.375,429.9531 218.125,430.125 Q218.8906,430.2969 219.5625,430.6563 L219.5625,433.8594 Q218.8125,433.1719 218.1094,432.8594 Q217.4219,432.5469 216.6719,432.5469 Q215.0938,432.5469 214.2813,433.7969 Q213.4844,435.0469 213.4844,437.5156 Q213.4844,439.9844 214.2813,441.2344 Q215.0938,442.4844 216.6719,442.4844 Q217.4219,442.4844 218.1094,442.1719 Q218.8125,441.8594 219.5625,441.1719 L219.5625,444.375 Z " fill="#000000"/><text fill="#000000" font-family="sans-serif" font-size="20" lengthAdjust="spacing" textLength="103" x="238.5" y="444.2207">Candidate</text><line style="stroke:#181818;stroke-width:0.5;" x1="134" x2="411" y1="454.2969" y2="454.2969"/><rect fill="none" height="6" style="stroke:#C82930;stroke-width:1.0;" width="6" x="141" y="468.4375"/><text fill="#000000" font-family="sans-serif" font-size="20" lengthAdjust="spacing" textLength="128" x="154" y="476.8613">name: string</text><rect fill="none" height="6" style="stroke:#C82930;stroke-width:1.0;" width="6" x="141" y="491.7188"/><text fill="#000000" font-family="sans-serif" font-size="20" lengthAdjust="spacing" textLength="126" x="154" y="500.1426">email: Email</text><line style="stroke:#181818;stroke-width:0.5;" x1="134" x2="411" y1="508.8594" y2="508.8594"/><ellipse cx="144" cy="526" fill="#84BE84" rx="3" ry="3" style="stroke:#038048;stroke-width:1.0;"/><text fill="#000000" font-family="sans-serif" font-size="20" lengthAdjust="spacing" textLength="252" x="154" y="531.4238">toDTO(): JobOpeningDTO</text></g><!--class CandidateDTO--><g id="elem_CandidateDTO"><rect codeLine="29" fill="#FEF9E7" height="73.2813" id="CandidateDTO" rx="2.5" ry="2.5" style="stroke:#181818;stroke-width:0.5;" width="481" x="7" y="600.2969"/><ellipse cx="170" cy="617.2969" fill="#ADD1B2" rx="12" ry="12" style="stroke:#181818;stroke-width:1.0;"/><path d="M173.0625,624.375 Q172.375,624.7344 171.625,624.9063 Q170.875,625.0781 170.0469,625.0781 Q167.0938,625.0781 165.5313,623.1406 Q163.9844,621.1875 163.9844,617.5156 Q163.9844,613.8438 165.5313,611.9063 Q167.0938,609.9531 170.0469,609.9531 Q170.875,609.9531 171.625,610.125 Q172.3906,610.2969 173.0625,610.6563 L173.0625,613.8594 Q172.3125,613.1719 171.6094,612.8594 Q170.9219,612.5469 170.1719,612.5469 Q168.5938,612.5469 167.7813,613.7969 Q166.9844,615.0469 166.9844,617.5156 Q166.9844,619.9844 167.7813,621.2344 Q168.5938,622.4844 170.1719,622.4844 Q170.9219,622.4844 171.6094,622.1719 Q172.3125,621.8594 173.0625,621.1719 L173.0625,624.375 Z " fill="#000000"/><text fill="#000000" font-family="sans-serif" font-size="20" lengthAdjust="spacing" textLength="146" x="192" y="624.2207">CandidateDTO</text><line style="stroke:#181818;stroke-width:0.5;" x1="8" x2="487" y1="634.2969" y2="634.2969"/><line style="stroke:#181818;stroke-width:0.5;" x1="8" x2="487" y1="642.2969" y2="642.2969"/><ellipse cx="18" cy="659.4375" fill="#84BE84" rx="3" ry="3" style="stroke:#038048;stroke-width:1.0;"/><text fill="#000000" font-family="sans-serif" font-size="20" lengthAdjust="spacing" textLength="454" x="28" y="664.8613">create(candidate: Candidate): CandidateDTO</text></g><!--class CandidateRepository--><g id="elem_CandidateRepository"><rect codeLine="33" fill="#FEF9E7" height="73.2813" id="CandidateRepository" rx="2.5" ry="2.5" style="stroke:#181818;stroke-width:0.5;" width="349" x="497" y="443.7969"/><ellipse cx="562.5" cy="460.7969" fill="#ADD1B2" rx="12" ry="12" style="stroke:#181818;stroke-width:1.0;"/><path d="M565.5625,467.875 Q564.875,468.2344 564.125,468.4063 Q563.375,468.5781 562.5469,468.5781 Q559.5938,468.5781 558.0313,466.6406 Q556.4844,464.6875 556.4844,461.0156 Q556.4844,457.3438 558.0313,455.4063 Q559.5938,453.4531 562.5469,453.4531 Q563.375,453.4531 564.125,453.625 Q564.8906,453.7969 565.5625,454.1563 L565.5625,457.3594 Q564.8125,456.6719 564.1094,456.3594 Q563.4219,456.0469 562.6719,456.0469 Q561.0938,456.0469 560.2813,457.2969 Q559.4844,458.5469 559.4844,461.0156 Q559.4844,463.4844 560.2813,464.7344 Q561.0938,465.9844 562.6719,465.9844 Q563.4219,465.9844 564.1094,465.6719 Q564.8125,465.3594 565.5625,464.6719 L565.5625,467.875 Z " fill="#000000"/><text fill="#000000" font-family="sans-serif" font-size="20" lengthAdjust="spacing" textLength="209" x="584.5" y="467.7207">CandidateRepository</text><line style="stroke:#181818;stroke-width:0.5;" x1="498" x2="845" y1="477.7969" y2="477.7969"/><line style="stroke:#181818;stroke-width:0.5;" x1="498" x2="845" y1="485.7969" y2="485.7969"/><ellipse cx="508" cy="502.9375" fill="#84BE84" rx="3" ry="3" style="stroke:#038048;stroke-width:1.0;"/><text fill="#000000" font-family="sans-serif" font-size="20" lengthAdjust="spacing" textLength="322" x="518" y="508.3613">findAll(): Iterable&lt;JobOpening&gt;</text></g><!--class JpaCandidateRepository--><g id="elem_JpaCandidateRepository"><rect codeLine="37" fill="#FEF9E7" height="73.2813" id="JpaCandidateRepository" rx="2.5" ry="2.5" style="stroke:#181818;stroke-width:0.5;" width="349" x="523" y="600.2969"/><ellipse cx="573" cy="617.2969" fill="#ADD1B2" rx="12" ry="12" style="stroke:#181818;stroke-width:1.0;"/><path d="M576.0625,624.375 Q575.375,624.7344 574.625,624.9063 Q573.875,625.0781 573.0469,625.0781 Q570.0938,625.0781 568.5313,623.1406 Q566.9844,621.1875 566.9844,617.5156 Q566.9844,613.8438 568.5313,611.9063 Q570.0938,609.9531 573.0469,609.9531 Q573.875,609.9531 574.625,610.125 Q575.3906,610.2969 576.0625,610.6563 L576.0625,613.8594 Q575.3125,613.1719 574.6094,612.8594 Q573.9219,612.5469 573.1719,612.5469 Q571.5938,612.5469 570.7813,613.7969 Q569.9844,615.0469 569.9844,617.5156 Q569.9844,619.9844 570.7813,621.2344 Q571.5938,622.4844 573.1719,622.4844 Q573.9219,622.4844 574.6094,622.1719 Q575.3125,621.8594 576.0625,621.1719 L576.0625,624.375 Z " fill="#000000"/><text fill="#000000" font-family="sans-serif" font-size="20" lengthAdjust="spacing" textLength="240" x="595" y="624.2207">JpaCandidateRepository</text><line style="stroke:#181818;stroke-width:0.5;" x1="524" x2="871" y1="634.2969" y2="634.2969"/><line style="stroke:#181818;stroke-width:0.5;" x1="524" x2="871" y1="642.2969" y2="642.2969"/><ellipse cx="534" cy="659.4375" fill="#84BE84" rx="3" ry="3" style="stroke:#038048;stroke-width:1.0;"/><text fill="#000000" font-family="sans-serif" font-size="20" lengthAdjust="spacing" textLength="322" x="544" y="664.8613">findAll(): Iterable&lt;JobOpening&gt;</text></g><!--class DB--><g id="elem_DB"><rect codeLine="41" fill="#FEF9E7" height="50" id="DB" rx="2.5" ry="2.5" style="stroke:#181818;stroke-width:0.5;" width="128" x="633.5" y="733.2969"/><ellipse cx="649.5" cy="750.2969" fill="#8BEBFF" rx="12" ry="12" style="stroke:#181818;stroke-width:1.0;"/><path d="M649.7188,745.8125 L649.7188,755.2031 L650.5,755.2031 Q652.2031,755.2031 652.9219,754.1406 Q653.6406,753.0625 653.6406,750.4844 Q653.6406,747.9375 652.9219,746.875 Q652.2031,745.8125 650.5,745.8125 L649.7188,745.8125 Z M646.8438,743.2188 L649.9219,743.2188 Q653.5,743.2188 655.0625,744.9219 Q656.6406,746.625 656.6406,750.4844 Q656.6406,754.375 655.0625,756.0938 Q653.5,757.7969 649.9219,757.7969 L646.8438,757.7969 L646.8438,743.2188 Z " fill="#000000"/><text fill="#000000" font-family="sans-serif" font-size="20" lengthAdjust="spacing" textLength="94" x="664.5" y="757.2207">Database</text><line style="stroke:#181818;stroke-width:0.5;" x1="634.5" x2="760.5" y1="767.2969" y2="767.2969"/><line style="stroke:#181818;stroke-width:0.5;" x1="634.5" x2="760.5" y1="775.2969" y2="775.2969"/></g><!--link UI to ListCandidateController--><g id="link_UI_ListCandidateController"><path codeLine="43" d="M471.5,94.4769 C471.5,110.0669 471.5,130.7269 471.5,148.8269 " fill="none" id="UI-to-ListCandidateController" style="stroke:#000000;stroke-width:1.0;"/><polygon fill="#000000" points="471.5,153.8569,475.5,144.8569,471.5,148.8569,467.5,144.8569,471.5,153.8569" style="stroke:#000000;stroke-width:1.0;"/></g><!--link ListCandidateController to CandidateService--><g id="link_ListCandidateController_CandidateService"><path codeLine="44" d="M471.5,227.5969 C471.5,244.3469 471.5,264.3869 471.5,281.7469 " fill="none" id="ListCandidateController-to-CandidateService" style="stroke:#000000;stroke-width:1.0;"/><polygon fill="#000000" points="471.5,287.0469,475.5,278.0469,471.5,282.0469,467.5,278.0469,471.5,287.0469" style="stroke:#000000;stroke-width:1.0;"/></g><!--link CandidateService to Candidate--><g id="link_CandidateService_Candidate"><path codeLine="45" d="M425.35,360.6269 C403.85,377.3169 377.65,397.6569 353.05,416.7569 " fill="none" id="CandidateService-to-Candidate" style="stroke:#000000;stroke-width:1.0;"/><polygon fill="#000000" points="348.8,420.0569,358.3623,417.6984,352.7498,416.9911,353.4571,411.3787,348.8,420.0569" style="stroke:#000000;stroke-width:1.0;"/></g><!--link Candidate to CandidateDTO--><g id="link_Candidate_CandidateDTO"><path codeLine="46" d="M262.91,540.5869 C259.96,558.7869 256.79,578.3969 254.09,595.0569 " fill="none" id="Candidate-to-CandidateDTO" style="stroke:#000000;stroke-width:1.0;"/><polygon fill="#000000" points="253.27,600.1369,258.6566,591.8916,254.0689,595.2011,250.7593,590.6134,253.27,600.1369" style="stroke:#000000;stroke-width:1.0;"/></g><!--link CandidateService to CandidateRepository--><g id="link_CandidateService_CandidateRepository"><path codeLine="47" d="M517.64,360.4369 C548.55,384.3169 589.25,415.7569 621.03,440.3069 " fill="none" id="CandidateService-to-CandidateRepository" style="stroke:#000000;stroke-width:1.0;"/><polygon fill="#000000" points="625.25,443.5669,620.5733,434.8992,621.2933,440.51,615.6824,441.23,625.25,443.5669" style="stroke:#000000;stroke-width:1.0;"/></g><!--link CandidateRepository to JpaCandidateRepository--><g id="link_CandidateRepository_JpaCandidateRepository"><path codeLine="48" d="M677.53,517.1269 C681.45,540.4369 686.57,570.8769 690.65,595.0869 " fill="none" id="CandidateRepository-to-JpaCandidateRepository" style="stroke:#000000;stroke-width:1.0;"/><polygon fill="#000000" points="691.5,600.1569,693.9525,590.6183,690.6711,595.2261,686.0633,591.9446,691.5,600.1569" style="stroke:#000000;stroke-width:1.0;"/></g><!--link JpaCandidateRepository to DB--><g id="link_JpaCandidateRepository_DB"><path codeLine="49" d="M697.5,673.3269 C697.5,690.6369 697.5,711.2069 697.5,727.6569 " fill="none" id="JpaCandidateRepository-to-DB" style="stroke:#000000;stroke-width:1.0;"/><polygon fill="#000000" points="697.5,733.0669,701.5,724.0669,697.5,728.0669,693.5,724.0669,697.5,733.0669" style="stroke:#000000;stroke-width:1.0;"/></g><!--SRC=[bLBHRjf047o_hrZ12wX1eib3MWiXOOmbeaX8eNp0OY_kYUNEkZiIaQZ_thCTC7PCfVh5yipipDruxLwg70qUM2TxIY6b7HxPnLgvjNmdk1yBuQHZWZcZjH19pBmQHh1PVn-F7uImPmT8IiM70F-qq9bpHcwFZfQ9LgNnk2NBCTbZHcjtybc64eSgOsg9x6zCzPjK6UoGRPjbgSYTSe9SywduAFdG6sT67rKwrwmDzED5_7FnM78pO_HR1OViTUAF4DKjUi_IkZcgLAReQBFi0LhOBE6ZLbpOkI_BQ6OofQenMNEVnNn3vWjh1yC0NhLCHOVjciohJAZqR8DNPazwkyf9-L9AjwKZWrkcoMKa-hMQTlatZJyTHmeF583rlqjb5K87b1p0edXLgKvxpoAiplP0LuQ7cp4UE9yzCUI1GNAcWber31eJNSulb6ihdJQdPa2DdtDsKgKpvaOvzS6lgtdAyPP_D_N_4H4wtAAjoez2c4m6qHtqVuIBC8w7qscvO7xFHgFfhKKIjnQic6alYlYoEGrLJJVnelH_JzObYAvY2crtP-96bSL458g_]--></g></svg>