<?xml version="1.0" encoding="UTF-8" standalone="no"?><svg xmlns="http://www.w3.org/2000/svg" xmlns:xlink="http://www.w3.org/1999/xlink" contentStyleType="text/css" height="993px" preserveAspectRatio="none" style="width:1876px;height:993px;background:#FFFFFF;" version="1.1" viewBox="0 0 1876 993" width="1876px" zoomAndPan="magnify"><defs/><g><text fill="#000000" font-family="sans-serif" font-size="14" font-weight="bold" lengthAdjust="spacing" textLength="234" x="822.75" y="27.9951">Sequence Diagram - US2000c</text><rect fill="#FFFFFF" height="752.4688" style="stroke:#181818;stroke-width:1.0;" width="10" x="47.5" y="135.5781"/><rect fill="#FFFFFF" height="699.9063" style="stroke:#181818;stroke-width:1.0;" width="10" x="211.5" y="188.1406"/><rect fill="#FFFFFF" height="602.0625" style="stroke:#181818;stroke-width:1.0;" width="10" x="502.5" y="225.4219"/><rect fill="#FFFFFF" height="527.5" style="stroke:#181818;stroke-width:1.0;" width="10" x="793.5" y="262.7031"/><rect fill="#FFFFFF" height="256.25" style="stroke:#181818;stroke-width:1.0;" width="10" x="1041.5" y="299.9844"/><rect fill="#FFFFFF" height="181.6875" style="stroke:#181818;stroke-width:1.0;" width="10" x="1300" y="337.2656"/><rect fill="#FFFFFF" height="111.8438" style="stroke:#181818;stroke-width:1.0;" width="10" x="1500.5" y="634.0781"/><rect fill="#FFFFFF" height="37.2813" style="stroke:#181818;stroke-width:1.0;" width="10" x="1680.5" y="671.3594"/><rect fill="#FFFFFF" height="37.2813" style="stroke:#181818;stroke-width:1.0;" width="10" x="1820.5" y="444.3906"/><rect fill="none" height="182.6875" style="stroke:#000000;stroke-width:1.5;" width="1104.5" x="671" y="571.2344"/><line style="stroke:#181818;stroke-width:0.5;stroke-dasharray:5.0,5.0;" x1="52" x2="52" y1="125.5781" y2="906.0469"/><line style="stroke:#181818;stroke-width:0.5;stroke-dasharray:5.0,5.0;" x1="216" x2="216" y1="125.5781" y2="906.0469"/><line style="stroke:#181818;stroke-width:0.5;stroke-dasharray:5.0,5.0;" x1="507" x2="507" y1="125.5781" y2="906.0469"/><line style="stroke:#181818;stroke-width:0.5;stroke-dasharray:5.0,5.0;" x1="798" x2="798" y1="125.5781" y2="906.0469"/><line style="stroke:#181818;stroke-width:0.5;stroke-dasharray:5.0,5.0;" x1="1046" x2="1046" y1="125.5781" y2="906.0469"/><line style="stroke:#181818;stroke-width:0.5;stroke-dasharray:5.0,5.0;" x1="1305" x2="1305" y1="125.5781" y2="906.0469"/><line style="stroke:#181818;stroke-width:0.5;stroke-dasharray:5.0,5.0;" x1="1505" x2="1505" y1="125.5781" y2="906.0469"/><line style="stroke:#181818;stroke-width:0.5;stroke-dasharray:5.0,5.0;" x1="1685.5" x2="1685.5" y1="125.5781" y2="906.0469"/><line style="stroke:#181818;stroke-width:0.5;stroke-dasharray:5.0,5.0;" x1="1825.5" x2="1825.5" y1="125.5781" y2="906.0469"/><text fill="#000000" font-family="sans-serif" font-size="20" lengthAdjust="spacing" text-decoration="underline" textLength="89" x="5" y="120.8613">Operator</text><ellipse cx="52.5" cy="50.7969" fill="#E2E2F0" rx="8" ry="8" style="stroke:#181818;stroke-width:0.5;"/><path d="M52.5,58.7969 L52.5,85.7969 M39.5,66.7969 L65.5,66.7969 M52.5,85.7969 L39.5,100.7969 M52.5,85.7969 L65.5,100.7969 " fill="none" style="stroke:#181818;stroke-width:0.5;"/><text fill="#000000" font-family="sans-serif" font-size="20" lengthAdjust="spacing" text-decoration="underline" textLength="89" x="5" y="923.6113">Operator</text><ellipse cx="52.5" cy="936.8281" fill="#E2E2F0" rx="8" ry="8" style="stroke:#181818;stroke-width:0.5;"/><path d="M52.5,944.8281 L52.5,971.8281 M39.5,952.8281 L65.5,952.8281 M52.5,971.8281 L39.5,986.8281 M52.5,971.8281 L65.5,986.8281 " fill="none" style="stroke:#181818;stroke-width:0.5;"/><rect fill="#E2E2F0" height="37.2813" rx="2.5" ry="2.5" style="stroke:#181818;stroke-width:0.5;" width="183" x="125" y="87.2969"/><text fill="#000000" font-family="sans-serif" font-size="20" lengthAdjust="spacing" text-decoration="underline" textLength="169" x="132" y="112.8613">ListCandidatesUI</text><rect fill="#E2E2F0" height="37.2813" rx="2.5" ry="2.5" style="stroke:#181818;stroke-width:0.5;" width="183" x="125" y="905.0469"/><text fill="#000000" font-family="sans-serif" font-size="20" lengthAdjust="spacing" text-decoration="underline" textLength="169" x="132" y="930.6113">ListCandidatesUI</text><rect fill="#E2E2F0" height="37.2813" rx="2.5" ry="2.5" style="stroke:#181818;stroke-width:0.5;" width="261" x="377" y="87.2969"/><text fill="#000000" font-family="sans-serif" font-size="20" lengthAdjust="spacing" text-decoration="underline" textLength="247" x="384" y="112.8613">ListCandidatesController</text><rect fill="#E2E2F0" height="37.2813" rx="2.5" ry="2.5" style="stroke:#181818;stroke-width:0.5;" width="261" x="377" y="905.0469"/><text fill="#000000" font-family="sans-serif" font-size="20" lengthAdjust="spacing" text-decoration="underline" textLength="247" x="384" y="930.6113">ListCandidatesController</text><rect fill="#E2E2F0" height="37.2813" rx="2.5" ry="2.5" style="stroke:#181818;stroke-width:0.5;" width="235" x="681" y="87.2969"/><text fill="#000000" font-family="sans-serif" font-size="20" lengthAdjust="spacing" text-decoration="underline" textLength="221" x="688" y="112.8613">ListCandidatesService</text><rect fill="#E2E2F0" height="37.2813" rx="2.5" ry="2.5" style="stroke:#181818;stroke-width:0.5;" width="235" x="681" y="905.0469"/><text fill="#000000" font-family="sans-serif" font-size="20" lengthAdjust="spacing" text-decoration="underline" textLength="221" x="688" y="930.6113">ListCandidatesService</text><rect fill="#E2E2F0" height="37.2813" rx="2.5" ry="2.5" style="stroke:#181818;stroke-width:0.5;" width="233" x="930" y="87.2969"/><text fill="#000000" font-family="sans-serif" font-size="20" lengthAdjust="spacing" text-decoration="underline" textLength="219" x="937" y="112.8613">CandidatesRepository</text><rect fill="#E2E2F0" height="37.2813" rx="2.5" ry="2.5" style="stroke:#181818;stroke-width:0.5;" width="233" x="930" y="905.0469"/><text fill="#000000" font-family="sans-serif" font-size="20" lengthAdjust="spacing" text-decoration="underline" textLength="219" x="937" y="930.6113">CandidatesRepository</text><rect fill="#E2E2F0" height="37.2813" rx="2.5" ry="2.5" style="stroke:#181818;stroke-width:0.5;" width="264" x="1173" y="87.2969"/><text fill="#000000" font-family="sans-serif" font-size="20" lengthAdjust="spacing" text-decoration="underline" textLength="250" x="1180" y="112.8613">JpaCandidatesRepository</text><rect fill="#E2E2F0" height="37.2813" rx="2.5" ry="2.5" style="stroke:#181818;stroke-width:0.5;" width="264" x="1173" y="905.0469"/><text fill="#000000" font-family="sans-serif" font-size="20" lengthAdjust="spacing" text-decoration="underline" textLength="250" x="1180" y="930.6113">JpaCandidatesRepository</text><rect fill="#E2E2F0" height="37.2813" rx="2.5" ry="2.5" style="stroke:#181818;stroke-width:0.5;" width="117" x="1447" y="87.2969"/><text fill="#000000" font-family="sans-serif" font-size="20" lengthAdjust="spacing" text-decoration="underline" textLength="103" x="1454" y="112.8613">Candidate</text><rect fill="#E2E2F0" height="37.2813" rx="2.5" ry="2.5" style="stroke:#181818;stroke-width:0.5;" width="117" x="1447" y="905.0469"/><text fill="#000000" font-family="sans-serif" font-size="20" lengthAdjust="spacing" text-decoration="underline" textLength="103" x="1454" y="930.6113">Candidate</text><rect fill="#E2E2F0" height="37.2813" rx="2.5" ry="2.5" style="stroke:#181818;stroke-width:0.5;" width="160" x="1605.5" y="87.2969"/><text fill="#000000" font-family="sans-serif" font-size="20" lengthAdjust="spacing" text-decoration="underline" textLength="146" x="1612.5" y="112.8613">CandidateDTO</text><rect fill="#E2E2F0" height="37.2813" rx="2.5" ry="2.5" style="stroke:#181818;stroke-width:0.5;" width="160" x="1605.5" y="905.0469"/><text fill="#000000" font-family="sans-serif" font-size="20" lengthAdjust="spacing" text-decoration="underline" textLength="146" x="1612.5" y="930.6113">CandidateDTO</text><text fill="#000000" font-family="sans-serif" font-size="20" lengthAdjust="spacing" text-decoration="underline" textLength="94" x="1775.5" y="120.8613">Database</text><path d="M1807.5,66.2969 C1807.5,56.2969 1825.5,56.2969 1825.5,56.2969 C1825.5,56.2969 1843.5,56.2969 1843.5,66.2969 L1843.5,92.2969 C1843.5,102.2969 1825.5,102.2969 1825.5,102.2969 C1825.5,102.2969 1807.5,102.2969 1807.5,92.2969 L1807.5,66.2969 " fill="#E2E2F0" style="stroke:#181818;stroke-width:1.5;"/><path d="M1807.5,66.2969 C1807.5,76.2969 1825.5,76.2969 1825.5,76.2969 C1825.5,76.2969 1843.5,76.2969 1843.5,66.2969 " fill="none" style="stroke:#181818;stroke-width:1.5;"/><text fill="#000000" font-family="sans-serif" font-size="20" lengthAdjust="spacing" text-decoration="underline" textLength="94" x="1775.5" y="923.6113">Database</text><path d="M1807.5,938.3281 C1807.5,928.3281 1825.5,928.3281 1825.5,928.3281 C1825.5,928.3281 1843.5,928.3281 1843.5,938.3281 L1843.5,964.3281 C1843.5,974.3281 1825.5,974.3281 1825.5,974.3281 C1825.5,974.3281 1807.5,974.3281 1807.5,964.3281 L1807.5,938.3281 " fill="#E2E2F0" style="stroke:#181818;stroke-width:1.5;"/><path d="M1807.5,938.3281 C1807.5,948.3281 1825.5,948.3281 1825.5,948.3281 C1825.5,948.3281 1843.5,948.3281 1843.5,938.3281 " fill="none" style="stroke:#181818;stroke-width:1.5;"/><rect fill="#FFFFFF" height="752.4688" style="stroke:#181818;stroke-width:1.0;" width="10" x="47.5" y="135.5781"/><rect fill="#FFFFFF" height="699.9063" style="stroke:#181818;stroke-width:1.0;" width="10" x="211.5" y="188.1406"/><rect fill="#FFFFFF" height="602.0625" style="stroke:#181818;stroke-width:1.0;" width="10" x="502.5" y="225.4219"/><rect fill="#FFFFFF" height="527.5" style="stroke:#181818;stroke-width:1.0;" width="10" x="793.5" y="262.7031"/><rect fill="#FFFFFF" height="256.25" style="stroke:#181818;stroke-width:1.0;" width="10" x="1041.5" y="299.9844"/><rect fill="#FFFFFF" height="181.6875" style="stroke:#181818;stroke-width:1.0;" width="10" x="1300" y="337.2656"/><rect fill="#FFFFFF" height="111.8438" style="stroke:#181818;stroke-width:1.0;" width="10" x="1500.5" y="634.0781"/><rect fill="#FFFFFF" height="37.2813" style="stroke:#181818;stroke-width:1.0;" width="10" x="1680.5" y="671.3594"/><rect fill="#FFFFFF" height="37.2813" style="stroke:#181818;stroke-width:1.0;" width="10" x="1820.5" y="444.3906"/><polygon fill="#181818" points="199.5,184.1406,209.5,188.1406,199.5,192.1406,203.5,188.1406" style="stroke:#181818;stroke-width:1.0;"/><line style="stroke:#181818;stroke-width:1.0;" x1="57.5" x2="205.5" y1="188.1406" y2="188.1406"/><text fill="#000000" font-family="sans-serif" font-size="20" lengthAdjust="spacing" textLength="46" x="64.5" y="158.1426">Asks</text><text fill="#000000" font-family="sans-serif" font-size="20" lengthAdjust="spacing" textLength="6" x="110.5" y="158.1426"> </text><text fill="#000000" font-family="sans-serif" font-size="20" lengthAdjust="spacing" textLength="27" x="116.5" y="158.1426">for</text><text fill="#000000" font-family="sans-serif" font-size="20" lengthAdjust="spacing" textLength="6" x="143.5" y="158.1426"> </text><text fill="#000000" font-family="sans-serif" font-size="20" lengthAdjust="spacing" textLength="12" x="149.5" y="158.1426">a</text><text fill="#000000" font-family="sans-serif" font-size="20" lengthAdjust="spacing" textLength="6" x="161.5" y="158.1426"> </text><text fill="#000000" font-family="sans-serif" font-size="20" lengthAdjust="spacing" textLength="30" x="167.5" y="158.1426">list</text><text fill="#000000" font-family="sans-serif" font-size="20" lengthAdjust="spacing" textLength="19" x="64.5" y="181.4238">of</text><text fill="#000000" font-family="sans-serif" font-size="20" lengthAdjust="spacing" textLength="6" x="83.5" y="181.4238"> </text><text fill="#000000" font-family="sans-serif" font-size="20" lengthAdjust="spacing" textLength="110" x="89.5" y="181.4238">candidates</text><polygon fill="#181818" points="490.5,221.4219,500.5,225.4219,490.5,229.4219,494.5,225.4219" style="stroke:#181818;stroke-width:1.0;"/><line style="stroke:#181818;stroke-width:1.0;stroke-dasharray:2.0,2.0;" x1="221.5" x2="496.5" y1="225.4219" y2="225.4219"/><text fill="#000000" font-family="sans-serif" font-size="20" lengthAdjust="spacing" textLength="153" x="228.5" y="218.7051">allCandidates()</text><polygon fill="#181818" points="781.5,258.7031,791.5,262.7031,781.5,266.7031,785.5,262.7031" style="stroke:#181818;stroke-width:1.0;"/><line style="stroke:#181818;stroke-width:1.0;" x1="512.5" x2="787.5" y1="262.7031" y2="262.7031"/><text fill="#000000" font-family="sans-serif" font-size="20" lengthAdjust="spacing" textLength="81" x="519.5" y="255.9863">findAll()</text><polygon fill="#181818" points="1029.5,295.9844,1039.5,299.9844,1029.5,303.9844,1033.5,299.9844" style="stroke:#181818;stroke-width:1.0;"/><line style="stroke:#181818;stroke-width:1.0;" x1="803.5" x2="1035.5" y1="299.9844" y2="299.9844"/><text fill="#000000" font-family="sans-serif" font-size="20" lengthAdjust="spacing" textLength="81" x="810.5" y="293.2676">findAll()</text><polygon fill="#181818" points="1288,333.2656,1298,337.2656,1288,341.2656,1292,337.2656" style="stroke:#181818;stroke-width:1.0;"/><line style="stroke:#181818;stroke-width:1.0;" x1="1051.5" x2="1294" y1="337.2656" y2="337.2656"/><text fill="#000000" font-family="sans-serif" font-size="20" lengthAdjust="spacing" textLength="81" x="1058.5" y="330.5488">findAll()</text><polygon fill="#181818" points="1808.5,440.3906,1818.5,444.3906,1808.5,448.3906,1812.5,444.3906" style="stroke:#181818;stroke-width:1.0;"/><line style="stroke:#181818;stroke-width:1.0;" x1="1310" x2="1814.5" y1="444.3906" y2="444.3906"/><text fill="#000000" font-family="sans-serif" font-size="20" lengthAdjust="spacing" textLength="217" x="1317" y="367.8301">createQuery("SELECT</text><text fill="#000000" font-family="sans-serif" font-size="20" lengthAdjust="spacing" textLength="10" x="1317" y="391.1113">*</text><text fill="#000000" font-family="sans-serif" font-size="20" lengthAdjust="spacing" textLength="6" x="1327" y="391.1113"> </text><text fill="#000000" font-family="sans-serif" font-size="20" lengthAdjust="spacing" textLength="59" x="1333" y="391.1113">FROM</text><text fill="#000000" font-family="sans-serif" font-size="20" lengthAdjust="spacing" textLength="119" x="1317" y="414.3926">Candidate",</text><text fill="#000000" font-family="sans-serif" font-size="20" lengthAdjust="spacing" textLength="166" x="1317" y="437.6738">Candidate.class)</text><polygon fill="#181818" points="1321,477.6719,1311,481.6719,1321,485.6719,1317,481.6719" style="stroke:#181818;stroke-width:1.0;"/><line style="stroke:#181818;stroke-width:1.0;stroke-dasharray:2.0,2.0;" x1="1315" x2="1824.5" y1="481.6719" y2="481.6719"/><text fill="#000000" font-family="sans-serif" font-size="20" lengthAdjust="spacing" textLength="214" x="1327" y="474.9551">Iterable&lt;Candidate&gt;</text><polygon fill="#181818" points="1062.5,514.9531,1052.5,518.9531,1062.5,522.9531,1058.5,518.9531" style="stroke:#181818;stroke-width:1.0;"/><line style="stroke:#181818;stroke-width:1.0;stroke-dasharray:2.0,2.0;" x1="1056.5" x2="1304" y1="518.9531" y2="518.9531"/><text fill="#000000" font-family="sans-serif" font-size="20" lengthAdjust="spacing" textLength="214" x="1068.5" y="512.2363">Iterable&lt;Candidate&gt;</text><polygon fill="#181818" points="814.5,552.2344,804.5,556.2344,814.5,560.2344,810.5,556.2344" style="stroke:#181818;stroke-width:1.0;"/><line style="stroke:#181818;stroke-width:1.0;stroke-dasharray:2.0,2.0;" x1="808.5" x2="1045.5" y1="556.2344" y2="556.2344"/><text fill="#000000" font-family="sans-serif" font-size="20" lengthAdjust="spacing" textLength="214" x="820.5" y="549.5176">Iterable&lt;Candidate&gt;</text><path d="M671,571.2344 L765,571.2344 L765,586.5156 L755,596.5156 L671,596.5156 L671,571.2344 " fill="#EEEEEE" style="stroke:#000000;stroke-width:1.5;"/><rect fill="none" height="182.6875" style="stroke:#000000;stroke-width:1.5;" width="1104.5" x="671" y="571.2344"/><text fill="#000000" font-family="sans-serif" font-size="20" font-weight="bold" lengthAdjust="spacing" textLength="49" x="686" y="590.7988">loop</text><text fill="#000000" font-family="sans-serif" font-size="20" font-weight="bold" lengthAdjust="spacing" textLength="252" x="780" y="591.7988">[for each job opening]</text><polygon fill="#181818" points="1488.5,630.0781,1498.5,634.0781,1488.5,638.0781,1492.5,634.0781" style="stroke:#181818;stroke-width:1.0;"/><line style="stroke:#181818;stroke-width:1.0;" x1="803.5" x2="1494.5" y1="634.0781" y2="634.0781"/><text fill="#000000" font-family="sans-serif" font-size="20" lengthAdjust="spacing" textLength="79" x="810.5" y="627.3613">toDTO()</text><polygon fill="#181818" points="1668.5,667.3594,1678.5,671.3594,1668.5,675.3594,1672.5,671.3594" style="stroke:#181818;stroke-width:1.0;"/><line style="stroke:#181818;stroke-width:1.0;stroke-dasharray:2.0,2.0;" x1="1510.5" x2="1674.5" y1="671.3594" y2="671.3594"/><text fill="#000000" font-family="sans-serif" font-size="20" lengthAdjust="spacing" textLength="63" x="1517.5" y="664.6426">create</text><polygon fill="#181818" points="1521.5,704.6406,1511.5,708.6406,1521.5,712.6406,1517.5,708.6406" style="stroke:#181818;stroke-width:1.0;"/><line style="stroke:#181818;stroke-width:1.0;stroke-dasharray:2.0,2.0;" x1="1515.5" x2="1684.5" y1="708.6406" y2="708.6406"/><text fill="#000000" font-family="sans-serif" font-size="20" lengthAdjust="spacing" textLength="146" x="1527.5" y="701.9238">CandidateDTO</text><polygon fill="#181818" points="814.5,741.9219,804.5,745.9219,814.5,749.9219,810.5,745.9219" style="stroke:#181818;stroke-width:1.0;"/><line style="stroke:#181818;stroke-width:1.0;stroke-dasharray:2.0,2.0;" x1="808.5" x2="1504.5" y1="745.9219" y2="745.9219"/><text fill="#000000" font-family="sans-serif" font-size="20" lengthAdjust="spacing" textLength="146" x="820.5" y="739.2051">CandidateDTO</text><polygon fill="#181818" points="523.5,786.2031,513.5,790.2031,523.5,794.2031,519.5,790.2031" style="stroke:#181818;stroke-width:1.0;"/><line style="stroke:#181818;stroke-width:1.0;stroke-dasharray:2.0,2.0;" x1="517.5" x2="797.5" y1="790.2031" y2="790.2031"/><text fill="#000000" font-family="sans-serif" font-size="20" lengthAdjust="spacing" textLength="257" x="529.5" y="783.4863">Iterable&lt;CandidateDTO&gt;</text><polygon fill="#181818" points="232.5,823.4844,222.5,827.4844,232.5,831.4844,228.5,827.4844" style="stroke:#181818;stroke-width:1.0;"/><line style="stroke:#181818;stroke-width:1.0;stroke-dasharray:2.0,2.0;" x1="226.5" x2="506.5" y1="827.4844" y2="827.4844"/><text fill="#000000" font-family="sans-serif" font-size="20" lengthAdjust="spacing" textLength="257" x="238.5" y="820.7676">Iterable&lt;CandidateDTO&gt;</text><polygon fill="#181818" points="63.5,884.0469,53.5,888.0469,63.5,892.0469,59.5,888.0469" style="stroke:#181818;stroke-width:1.0;"/><line style="stroke:#181818;stroke-width:1.0;stroke-dasharray:2.0,2.0;" x1="57.5" x2="215.5" y1="888.0469" y2="888.0469"/><text fill="#000000" font-family="sans-serif" font-size="20" lengthAdjust="spacing" textLength="35" x="69.5" y="858.0488">List</text><text fill="#000000" font-family="sans-serif" font-size="20" lengthAdjust="spacing" textLength="6" x="104.5" y="858.0488"> </text><text fill="#000000" font-family="sans-serif" font-size="20" lengthAdjust="spacing" textLength="19" x="110.5" y="858.0488">of</text><text fill="#000000" font-family="sans-serif" font-size="20" lengthAdjust="spacing" textLength="6" x="129.5" y="858.0488"> </text><text fill="#000000" font-family="sans-serif" font-size="20" lengthAdjust="spacing" textLength="24" x="135.5" y="858.0488">all</text><text fill="#000000" font-family="sans-serif" font-size="20" lengthAdjust="spacing" textLength="110" x="69.5" y="881.3301">candidates</text><!--SRC=[hLNRRjim37ttLn1-IeTvy0hinIWAD74BPEYGhMa-GB6PL8iYUPPIBFlwqPulSYCvmJQzH0eFUIZncDGxBWjMihrGsGvpo7733i8yA6cM_1V2THm4XXk1iCGV1vGPGihPbXmWWjNoEexZB0Xq6mK4bsYE1O8gpOko37lsSuzQiotgAkx7Jx5br4tihwmqFEC5amOECiUo2XS4B3EgX71HOCbe5mBJq1w2eB2SmaUkpOp9dEVCe5xDQ-ngFWQQqLrB9GJ-2UmpZeLOOldACtJuDvQXSsz-ma9fJjSurhukmz3rSy6ytXwRXtj8w06bpuiXZlu8w9UjcKO8qsPNOz9fNId-IZ2hFEqEebigH09tUgTXGsT6Oj46r0QoBcih0XKDQAtc496dhoe9C25wm-IgTkg2U8i9pV81u8IpgMG26oxpEo4QgX6wjlPWBIUY8dDLpiKru7EM6zui5wXYzCZ5HpeWzaaD7Ck3hL98fmba9PBXsm7BuoHStZ_UpvxX7JmyBRxqcOVl-_s7J32jhvnKNNwaHV2iT5eBodlxkI6zhWNUTEPRPwmSpx4vRtqJHV_6RV5UMWMtwAfC_aiQ5-KWb2hgpvxyNk2xMeCgK7AvTJxT-Sya0QEe6KtE2A5lS3uzT8XQ5dQZQxNfTJrbgThZUQB1ozT45mLmFVaO_eAoNy3iOZq1eio3lrM7jmLNcNfwyAb2AVrUf1RzU4lsj_zcMeqGUKdUZ9bcWhLpCAdHrTYZoMMFFYiUpJxhrCtItm00]--></g></svg>