<?xml version="1.0" encoding="UTF-8" standalone="no"?><svg xmlns="http://www.w3.org/2000/svg" xmlns:xlink="http://www.w3.org/1999/xlink" contentStyleType="text/css" height="436px" preserveAspectRatio="none" style="width:649px;height:436px;background:#FFFFFF;" version="1.1" viewBox="0 0 649 436" width="649px" zoomAndPan="magnify"><defs/><g><text fill="#000000" font-family="sans-serif" font-size="14" font-weight="bold" lengthAdjust="spacing" textLength="566" x="43.25" y="27.9951">System Sequence Diagram (SSD) - List all applications for a Job Opening</text><rect fill="#FFFFFF" height="203.6875" style="stroke:#181818;stroke-width:1.0;" width="10" x="137.5" y="135.5781"/><rect fill="#FFFFFF" height="165.4063" style="stroke:#181818;stroke-width:1.0;" width="10" x="438.5" y="164.8594"/><line style="stroke:#181818;stroke-width:0.5;stroke-dasharray:5.0,5.0;" x1="142" x2="142" y1="125.5781" y2="348.2656"/><line style="stroke:#181818;stroke-width:0.5;stroke-dasharray:5.0,5.0;" x1="443.5" x2="443.5" y1="125.5781" y2="348.2656"/><line style="stroke:#181818;stroke-width:0.5;stroke-dasharray:5.0,5.0;" x1="598.5" x2="598.5" y1="125.5781" y2="348.2656"/><text fill="#000000" font-family="sans-serif" font-size="20" lengthAdjust="spacing" textLength="89" x="95" y="120.8613">Operator</text><ellipse cx="142.5" cy="50.7969" fill="#E3E3E3" rx="8" ry="8" style="stroke:#181818;stroke-width:0.5;"/><path d="M142.5,58.7969 L142.5,85.7969 M129.5,66.7969 L155.5,66.7969 M142.5,85.7969 L129.5,100.7969 M142.5,85.7969 L155.5,100.7969 " fill="none" style="stroke:#181818;stroke-width:0.5;"/><text fill="#000000" font-family="sans-serif" font-size="20" lengthAdjust="spacing" textLength="89" x="95" y="365.8301">Operator</text><ellipse cx="142.5" cy="379.0469" fill="#E3E3E3" rx="8" ry="8" style="stroke:#181818;stroke-width:0.5;"/><path d="M142.5,387.0469 L142.5,414.0469 M129.5,395.0469 L155.5,395.0469 M142.5,414.0469 L129.5,429.0469 M142.5,414.0469 L155.5,429.0469 " fill="none" style="stroke:#181818;stroke-width:0.5;"/><rect fill="#E3E3E3" height="37.2813" rx="2.5" ry="2.5" style="stroke:#181818;stroke-width:0.5;" width="190" x="348.5" y="87.2969"/><text fill="#000000" font-family="sans-serif" font-size="20" lengthAdjust="spacing" textLength="176" x="355.5" y="112.8613">:ListCandidatesUI</text><rect fill="#E3E3E3" height="37.2813" rx="2.5" ry="2.5" style="stroke:#181818;stroke-width:0.5;" width="190" x="348.5" y="347.2656"/><text fill="#000000" font-family="sans-serif" font-size="20" lengthAdjust="spacing" textLength="176" x="355.5" y="372.8301">:ListCandidatesUI</text><text fill="#000000" font-family="sans-serif" font-size="20" lengthAdjust="spacing" textLength="94" x="548.5" y="120.8613">Database</text><path d="M580.5,66.2969 C580.5,56.2969 598.5,56.2969 598.5,56.2969 C598.5,56.2969 616.5,56.2969 616.5,66.2969 L616.5,92.2969 C616.5,102.2969 598.5,102.2969 598.5,102.2969 C598.5,102.2969 580.5,102.2969 580.5,92.2969 L580.5,66.2969 " fill="#E3E3E3" style="stroke:#181818;stroke-width:1.5;"/><path d="M580.5,66.2969 C580.5,76.2969 598.5,76.2969 598.5,76.2969 C598.5,76.2969 616.5,76.2969 616.5,66.2969 " fill="none" style="stroke:#181818;stroke-width:1.5;"/><text fill="#000000" font-family="sans-serif" font-size="20" lengthAdjust="spacing" textLength="94" x="548.5" y="365.8301">Database</text><path d="M580.5,380.5469 C580.5,370.5469 598.5,370.5469 598.5,370.5469 C598.5,370.5469 616.5,370.5469 616.5,380.5469 L616.5,406.5469 C616.5,416.5469 598.5,416.5469 598.5,416.5469 C598.5,416.5469 580.5,416.5469 580.5,406.5469 L580.5,380.5469 " fill="#E3E3E3" style="stroke:#181818;stroke-width:1.5;"/><path d="M580.5,380.5469 C580.5,390.5469 598.5,390.5469 598.5,390.5469 C598.5,390.5469 616.5,390.5469 616.5,380.5469 " fill="none" style="stroke:#181818;stroke-width:1.5;"/><rect fill="#FFFFFF" height="203.6875" style="stroke:#181818;stroke-width:1.0;" width="10" x="137.5" y="135.5781"/><rect fill="#FFFFFF" height="165.4063" style="stroke:#181818;stroke-width:1.0;" width="10" x="438.5" y="164.8594"/><polygon fill="#181818" points="426.5,160.8594,436.5,164.8594,426.5,168.8594,430.5,164.8594" style="stroke:#181818;stroke-width:1.0;"/><line style="stroke:#181818;stroke-width:1.0;" x1="147.5" x2="432.5" y1="164.8594" y2="164.8594"/><text fill="#000000" font-family="sans-serif" font-size="20" font-weight="bold" lengthAdjust="spacing" textLength="14" x="154.5" y="158.1426">1</text><text fill="#000000" font-family="sans-serif" font-size="20" lengthAdjust="spacing" textLength="254" x="172.5" y="158.1426">Asks to list all candidates</text><path d="M5,177.8594 L5,233.8594 L434,233.8594 L434,187.8594 L424,177.8594 L5,177.8594 " fill="#FAFAFA" style="stroke:#181818;stroke-width:0.5;"/><path d="M424,177.8594 L424,187.8594 L434,187.8594 L424,177.8594 " fill="#FAFAFA" style="stroke:#181818;stroke-width:0.5;"/><text fill="#000000" font-family="sans-serif" font-size="20" lengthAdjust="spacing" textLength="408" x="11" y="201.4238">The system will show a list of candidates</text><text fill="#000000" font-family="sans-serif" font-size="20" lengthAdjust="spacing" textLength="114" x="11" y="224.7051">(US 2000a)</text><rect fill="none" height="56.5625" style="stroke:#000000;stroke-width:1.5;" width="449.5" x="92" y="239.4219"/><path d="M92,239.4219 L170,239.4219 L170,254.4219 L160,264.4219 L92,264.4219 L92,239.4219 " fill="#EEEEEE" style="stroke:#000000;stroke-width:2.0;"/><text fill="#000000" font-family="sans-serif" font-size="20" font-weight="bold" lengthAdjust="spacing" textLength="33" x="105" y="259.9863">ref</text><text fill="#000000" font-family="sans-serif" font-size="20" lengthAdjust="spacing" textLength="272" x="180.75" y="286.9863">US2000a ➡️ List candidates</text><polygon fill="#181818" points="158.5,326.2656,148.5,330.2656,158.5,334.2656,154.5,330.2656" style="stroke:#181818;stroke-width:1.0;"/><line style="stroke:#181818;stroke-width:1.0;" x1="152.5" x2="442.5" y1="330.2656" y2="330.2656"/><text fill="#000000" font-family="sans-serif" font-size="20" font-weight="bold" lengthAdjust="spacing" textLength="14" x="164.5" y="323.5488">2</text><text fill="#000000" font-family="sans-serif" font-size="20" lengthAdjust="spacing" textLength="242" x="182.5" y="323.5488">Shows list of candidates</text><!--SRC=[RL5BJWCn3Dtd55PNhGHInR8B9A120e5OXExOk1bF9vfCCYIULkKIt029Mt0UBi0LSEVN2k6LOpy_l-UaqleQ8rOkc98oo2Z7nl5jyApj6y75NAK10bNmmHGnL0GS6phfr6XAt93clIE8P1Zznfq2Ke5Ps5c_WHnT8gNOia3rFZ5LeEcr8My8bXOt1_XKw-KCpk719WPq3h2kdJN8DlW4UOY0S1_My5IJ5rAbiE7WcsfDKNB30fX8Bw9a4y04Z-X5NrIYXgsnDNg6oU90VuC-inaofTLT2-qqAIKrN6CYc2pxh6qlhziDTYiZ8wq2YVu1vvU3hmLSfJ811t234JEkQsT6fc4hzE6351tb324_qZqN1AbxxAomfIBiv1Gjk-2Ev2z-kjBoU_CvpaREGqJA8Mn5PQ_sx4Y-qYqUlZy-VxxUkzkVo3rgwoV4vs1v0LgKf7-4T5CP_JLwgFu2]--></g></svg>