<?xml version="1.0" encoding="UTF-8" standalone="no"?><svg xmlns="http://www.w3.org/2000/svg" xmlns:xlink="http://www.w3.org/1999/xlink" contentStyleType="text/css" height="331px" preserveAspectRatio="none" style="width:836px;height:331px;background:#FFFFFF;" version="1.1" viewBox="0 0 836 331" width="836px" zoomAndPan="magnify"><defs/><g><text fill="#000000" font-family="sans-serif" font-size="14" font-weight="bold" lengthAdjust="spacing" textLength="187" x="317.75" y="22.9951">Domain Model - US1006</text><!--cluster <<aggregate>> Candidate--><g id="cluster_&lt;&lt;aggregate&gt;&gt; Candidate"><path d="M8.5,44.5137 L276.5,44.5137 A3.75,3.75 0 0 1 279,47.0137 L286,73.7949 L421.5,73.7949 A2.5,2.5 0 0 1 424,76.2949 L424,322.0137 A2.5,2.5 0 0 1 421.5,324.5137 L8.5,324.5137 A2.5,2.5 0 0 1 6,322.0137 L6,47.0137 A2.5,2.5 0 0 1 8.5,44.5137 " fill="#EBF5FB" style="stroke:#000000;stroke-width:1.5;"/><line style="stroke:#000000;stroke-width:1.5;" x1="6" x2="286" y1="73.7949" y2="73.7949"/><text fill="#000000" font-family="sans-serif" font-size="20" font-weight="bold" lengthAdjust="spacing" textLength="267" x="10" y="65.0781">«aggregate» Candidate</text></g><!--class Candidate--><g id="elem_Candidate"><rect codeLine="21" fill="#FDEBD0" height="79.8438" id="Candidate" rx="2.5" ry="2.5" style="stroke:#181818;stroke-width:0.5;" width="137" x="265.5" y="86.5137"/><ellipse cx="281.5" cy="126.4355" fill="#ADD1B2" rx="12" ry="12" style="stroke:#181818;stroke-width:1.0;"/><path d="M286.2188,133.9355 L277.1406,133.9355 L277.1406,119.3574 L286.2188,119.3574 L286.2188,121.8887 L280.0156,121.8887 L280.0156,125.0449 L285.6406,125.0449 L285.6406,127.5762 L280.0156,127.5762 L280.0156,131.3887 L286.2188,131.3887 L286.2188,133.9355 Z " fill="#000000"/><text fill="#000000" font-family="sans-serif" font-size="20" font-style="italic" lengthAdjust="spacing" textLength="83" x="306.5" y="110.0781">«entity»</text><text fill="#000000" font-family="sans-serif" font-size="20" font-style="italic" lengthAdjust="spacing" textLength="64" x="316" y="133.3594">«root»</text><text fill="#000000" font-family="sans-serif" font-size="20" lengthAdjust="spacing" textLength="103" x="296.5" y="156.6406">Candidate</text></g><!--class FirstName--><g id="elem_FirstName"><rect codeLine="23" fill="#D6EAF8" height="56.5625" id="FirstName" rx="2.5" ry="2.5" style="stroke:#181818;stroke-width:0.5;" width="175" x="22.5" y="251.5137"/><ellipse cx="38.5" cy="279.7949" fill="#FF8B40" rx="12" ry="12" style="stroke:#181818;stroke-width:1.0;"/><path d="M38.5156,285.6387 L41.0781,273.4668 L43.9844,273.4668 L40.5156,288.0449 L36.5313,288.0449 L33.0625,273.4668 L35.9531,273.4668 L38.5156,285.6387 Z " fill="#000000"/><text fill="#000000" font-family="sans-serif" font-size="20" font-style="italic" lengthAdjust="spacing" textLength="145" x="51.5" y="275.0781">«valueObject»</text><text fill="#000000" font-family="sans-serif" font-size="20" lengthAdjust="spacing" textLength="103" x="72.5" y="298.3594">FirstName</text></g><!--class LastName--><g id="elem_LastName"><rect codeLine="24" fill="#D6EAF8" height="56.5625" id="LastName" rx="2.5" ry="2.5" style="stroke:#181818;stroke-width:0.5;" width="175" x="232.5" y="251.5137"/><ellipse cx="248.5" cy="279.7949" fill="#FF8B40" rx="12" ry="12" style="stroke:#181818;stroke-width:1.0;"/><path d="M248.5156,285.6387 L251.0781,273.4668 L253.9844,273.4668 L250.5156,288.0449 L246.5313,288.0449 L243.0625,273.4668 L245.9531,273.4668 L248.5156,285.6387 Z " fill="#000000"/><text fill="#000000" font-family="sans-serif" font-size="20" font-style="italic" lengthAdjust="spacing" textLength="145" x="261.5" y="275.0781">«valueObject»</text><text fill="#000000" font-family="sans-serif" font-size="20" lengthAdjust="spacing" textLength="100" x="284" y="298.3594">LastName</text></g><!--class PhoneNumber--><g id="elem_PhoneNumber"><rect codeLine="27" fill="#D6EAF8" height="56.5625" id="PhoneNumber" rx="2.5" ry="2.5" style="stroke:#181818;stroke-width:0.5;" width="177" x="442.5" y="251.5137"/><ellipse cx="458.5" cy="279.7949" fill="#FF8B40" rx="12" ry="12" style="stroke:#181818;stroke-width:1.0;"/><path d="M458.5156,285.6387 L461.0781,273.4668 L463.9844,273.4668 L460.5156,288.0449 L456.5313,288.0449 L453.0625,273.4668 L455.9531,273.4668 L458.5156,285.6387 Z " fill="#000000"/><text fill="#000000" font-family="sans-serif" font-size="20" font-style="italic" lengthAdjust="spacing" textLength="145" x="472.5" y="275.0781">«valueObject»</text><text fill="#000000" font-family="sans-serif" font-size="20" lengthAdjust="spacing" textLength="143" x="473.5" y="298.3594">PhoneNumber</text></g><!--class Email--><g id="elem_Email"><rect codeLine="28" fill="#D6EAF8" height="56.5625" id="Email" rx="2.5" ry="2.5" style="stroke:#181818;stroke-width:0.5;" width="175" x="654.5" y="251.5137"/><ellipse cx="670.5" cy="279.7949" fill="#FF8B40" rx="12" ry="12" style="stroke:#181818;stroke-width:1.0;"/><path d="M670.5156,285.6387 L673.0781,273.4668 L675.9844,273.4668 L672.5156,288.0449 L668.5313,288.0449 L665.0625,273.4668 L667.9531,273.4668 L670.5156,285.6387 Z " fill="#000000"/><text fill="#000000" font-family="sans-serif" font-size="20" font-style="italic" lengthAdjust="spacing" textLength="145" x="683.5" y="275.0781">«valueObject»</text><text fill="#000000" font-family="sans-serif" font-size="20" lengthAdjust="spacing" textLength="57" x="727.5" y="298.3594">Email</text></g><!--link Candidate to FirstName--><g id="link_Candidate_FirstName"><path codeLine="31" d="M276.31,166.5337 C238.57,192.0537 189.97,224.9237 155.07,248.5337 " fill="none" id="Candidate-to-FirstName" style="stroke:#000000;stroke-width:1.0;"/><polygon fill="#000000" points="150.88,251.3637,160.5765,249.6381,155.0226,248.5639,156.0968,243.0099,150.88,251.3637" style="stroke:#000000;stroke-width:1.0;"/><text fill="#000000" font-family="sans-serif" font-size="20" lengthAdjust="spacing" textLength="35" x="230" y="216.0781">has</text><text fill="#000000" font-family="sans-serif" font-size="20" lengthAdjust="spacing" textLength="13" x="253.4809" y="193.0206">1</text><text fill="#000000" font-family="sans-serif" font-size="20" lengthAdjust="spacing" textLength="13" x="144.9709" y="238.7213">1</text></g><!--link Candidate to LastName--><g id="link_Candidate_LastName"><path codeLine="32" d="M330.39,166.5337 C328.12,191.1437 325.21,222.5837 323.05,245.9737 " fill="none" id="Candidate-to-LastName" style="stroke:#000000;stroke-width:1.0;"/><polygon fill="#000000" points="322.58,251.1337,327.3851,242.5365,323.0365,246.1546,319.4185,241.806,322.58,251.1337" style="stroke:#000000;stroke-width:1.0;"/><text fill="#000000" font-family="sans-serif" font-size="20" lengthAdjust="spacing" textLength="35" x="328" y="216.0781">has</text><text fill="#000000" font-family="sans-serif" font-size="20" lengthAdjust="spacing" textLength="13" x="315.8419" y="193.0206">1</text><text fill="#000000" font-family="sans-serif" font-size="20" lengthAdjust="spacing" textLength="13" x="308.8083" y="238.8191">1</text></g><!--link Candidate to PhoneNumber--><g id="link_Candidate_PhoneNumber"><path codeLine="33" d="M384.73,166.5337 C417.79,191.9537 460.32,224.6637 490.99,248.2437 " fill="none" id="Candidate-to-PhoneNumber" style="stroke:#000000;stroke-width:1.0;"/><polygon fill="#000000" points="495.05,251.3637,490.3537,242.7066,491.0863,248.3158,485.4771,249.0484,495.05,251.3637" style="stroke:#000000;stroke-width:1.0;"/><text fill="#000000" font-family="sans-serif" font-size="20" lengthAdjust="spacing" textLength="35" x="456" y="216.0781">has</text><text fill="#000000" font-family="sans-serif" font-size="20" lengthAdjust="spacing" textLength="13" x="378.5027" y="193.0206">1</text><text fill="#000000" font-family="sans-serif" font-size="20" lengthAdjust="spacing" textLength="13" x="473.2947" y="238.7213">1</text></g><!--link Candidate to Email--><g id="link_Candidate_Email"><path codeLine="34" d="M402.75,153.0437 C474.64,179.7337 587.31,221.5737 662.86,249.6237 " fill="none" id="Candidate-to-Email" style="stroke:#000000;stroke-width:1.0;"/><polygon fill="#000000" points="667.78,251.4537,660.7206,244.586,663.089,249.7232,657.9518,252.0915,667.78,251.4537" style="stroke:#000000;stroke-width:1.0;"/><text fill="#000000" font-family="sans-serif" font-size="20" lengthAdjust="spacing" textLength="35" x="587" y="216.0781">has</text><text fill="#000000" font-family="sans-serif" font-size="20" lengthAdjust="spacing" textLength="13" x="410.5102" y="150.1807">1</text><text fill="#000000" font-family="sans-serif" font-size="20" lengthAdjust="spacing" textLength="13" x="638.1315" y="238.8299">1</text></g><!--SRC=[bP9VJy8m5CNV-obku05D91b44Sr2mjZwX6X2zBrirwtIjKlROP3utIsR_4icmRrqkVsTqtjkQvPS5aopNAXuYGaa-CvAOQcITiw_4FeU8PPRWH2gd749Jof10LrudVSyRq18nXC4p0kxXXpp1Mf3EcPd2bCkqQuB1ALjfWWvxCI26GCR0kuBMBnCjIfbCb52QTzVCL7Yy-83OpiQGJiSH6CwR4QrKXL3moW8lMR6e5xn62kh7kr7GHFcB2Bw4DrNUsEjrMTT3eJZoFTnxuMhi1IRkuTs5D0x6cmb7PWmcV24MOHnccfCtH_PoLk-ptP5rziURVqQetIJNnzP-7vTSl0- -COTiuNhULAkZPsnVCkU3j7thzvkN4Ow36wzwrfuq4tPFsJkn5hraYc9it9xwnS9QrNatf6uY3-PdqR1B5VIPBmmv51lzLhGxOwgzH3_4JBs5xKFUmuwpdQEgzFKn0y0]--></g></svg>