<?xml version="1.0" encoding="UTF-8" standalone="no"?><svg xmlns="http://www.w3.org/2000/svg" xmlns:xlink="http://www.w3.org/1999/xlink" contentStyleType="text/css" height="1070px" preserveAspectRatio="none" style="width:2432px;height:1070px;background:#FFFFFF;" version="1.1" viewBox="0 0 2432 1070" width="2432px" zoomAndPan="magnify"><defs/><g><text fill="#000000" font-family="sans-serif" font-size="14" font-weight="bold" lengthAdjust="spacing" textLength="188" x="1115.25" y="22.9951">Class Diagram - US1007</text><!--class UI--><g id="elem_UI"><rect codeLine="13" fill="#FEF9E7" height="50" id="UI" rx="2.5" ry="2.5" style="stroke:#181818;stroke-width:0.5;" width="316" x="1299.5" y="44.2969"/><ellipse cx="1315.5" cy="61.2969" fill="#ADD1B2" rx="12" ry="12" style="stroke:#181818;stroke-width:1.0;"/><path d="M1318.5625,68.375 Q1317.875,68.7344 1317.125,68.9063 Q1316.375,69.0781 1315.5469,69.0781 Q1312.5938,69.0781 1311.0313,67.1406 Q1309.4844,65.1875 1309.4844,61.5156 Q1309.4844,57.8438 1311.0313,55.9063 Q1312.5938,53.9531 1315.5469,53.9531 Q1316.375,53.9531 1317.125,54.125 Q1317.8906,54.2969 1318.5625,54.6563 L1318.5625,57.8594 Q1317.8125,57.1719 1317.1094,56.8594 Q1316.4219,56.5469 1315.6719,56.5469 Q1314.0938,56.5469 1313.2813,57.7969 Q1312.4844,59.0469 1312.4844,61.5156 Q1312.4844,63.9844 1313.2813,65.2344 Q1314.0938,66.4844 1315.6719,66.4844 Q1316.4219,66.4844 1317.1094,66.1719 Q1317.8125,65.8594 1318.5625,65.1719 L1318.5625,68.375 Z " fill="#000000"/><text fill="#000000" font-family="sans-serif" font-size="20" lengthAdjust="spacing" textLength="282" x="1330.5" y="68.2207">SetUpRecruitmentProcessUI</text><line style="stroke:#181818;stroke-width:0.5;" x1="1300.5" x2="1614.5" y1="78.2969" y2="78.2969"/><line style="stroke:#181818;stroke-width:0.5;" x1="1300.5" x2="1614.5" y1="86.2969" y2="86.2969"/></g><!--class SetUpRecruitmentProcessController--><g id="elem_SetUpRecruitmentProcessController"><rect codeLine="15" fill="#FEF9E7" height="166.4063" id="SetUpRecruitmentProcessController" rx="2.5" ry="2.5" style="stroke:#181818;stroke-width:0.5;" width="678" x="1118.5" y="154.2969"/><ellipse cx="1273" cy="171.2969" fill="#ADD1B2" rx="12" ry="12" style="stroke:#181818;stroke-width:1.0;"/><path d="M1276.0625,178.375 Q1275.375,178.7344 1274.625,178.9063 Q1273.875,179.0781 1273.0469,179.0781 Q1270.0938,179.0781 1268.5313,177.1406 Q1266.9844,175.1875 1266.9844,171.5156 Q1266.9844,167.8438 1268.5313,165.9063 Q1270.0938,163.9531 1273.0469,163.9531 Q1273.875,163.9531 1274.625,164.125 Q1275.3906,164.2969 1276.0625,164.6563 L1276.0625,167.8594 Q1275.3125,167.1719 1274.6094,166.8594 Q1273.9219,166.5469 1273.1719,166.5469 Q1271.5938,166.5469 1270.7813,167.7969 Q1269.9844,169.0469 1269.9844,171.5156 Q1269.9844,173.9844 1270.7813,175.2344 Q1271.5938,176.4844 1273.1719,176.4844 Q1273.9219,176.4844 1274.6094,176.1719 Q1275.3125,175.8594 1276.0625,175.1719 L1276.0625,178.375 Z " fill="#000000"/><text fill="#000000" font-family="sans-serif" font-size="20" lengthAdjust="spacing" textLength="360" x="1295" y="178.2207">SetUpRecruitmentProcessController</text><line style="stroke:#181818;stroke-width:0.5;" x1="1119.5" x2="1795.5" y1="188.2969" y2="188.2969"/><line style="stroke:#181818;stroke-width:0.5;" x1="1119.5" x2="1795.5" y1="196.2969" y2="196.2969"/><ellipse cx="1129.5" cy="213.4375" fill="#84BE84" rx="3" ry="3" style="stroke:#038048;stroke-width:1.0;"/><text fill="#000000" font-family="sans-serif" font-size="20" lengthAdjust="spacing" textLength="651" x="1139.5" y="218.8613">createApplicationPhase(initialDate: Date, finalDate: Date): Phase</text><ellipse cx="1129.5" cy="236.7188" fill="#84BE84" rx="3" ry="3" style="stroke:#038048;stroke-width:1.0;"/><text fill="#000000" font-family="sans-serif" font-size="20" lengthAdjust="spacing" textLength="638" x="1139.5" y="242.1426">createScreeningPhase(initialDate: Date, finalDate: Date): Phase</text><ellipse cx="1129.5" cy="260" fill="#84BE84" rx="3" ry="3" style="stroke:#038048;stroke-width:1.0;"/><text fill="#000000" font-family="sans-serif" font-size="20" lengthAdjust="spacing" textLength="630" x="1139.5" y="265.4238">createInterviewPhase(initialDate: Date, finalDate: Date): Phase</text><ellipse cx="1129.5" cy="283.2813" fill="#84BE84" rx="3" ry="3" style="stroke:#038048;stroke-width:1.0;"/><text fill="#000000" font-family="sans-serif" font-size="20" lengthAdjust="spacing" textLength="619" x="1139.5" y="288.7051">createAnalysisPhase(initialDate: Date, finalDate: Date): Phase</text><ellipse cx="1129.5" cy="306.5625" fill="#84BE84" rx="3" ry="3" style="stroke:#038048;stroke-width:1.0;"/><text fill="#000000" font-family="sans-serif" font-size="20" lengthAdjust="spacing" textLength="600" x="1139.5" y="311.9863">createResultPhase(initialDate: Date, finalDate: Date): Phase</text></g><!--class RecruitmentProcessService--><g id="elem_RecruitmentProcessService"><rect codeLine="23" fill="#FEF9E7" height="189.6875" id="RecruitmentProcessService" rx="2.5" ry="2.5" style="stroke:#181818;stroke-width:0.5;" width="708" x="1103.5" y="380.2969"/><ellipse cx="1316.5" cy="397.2969" fill="#ADD1B2" rx="12" ry="12" style="stroke:#181818;stroke-width:1.0;"/><path d="M1319.5625,404.375 Q1318.875,404.7344 1318.125,404.9063 Q1317.375,405.0781 1316.5469,405.0781 Q1313.5938,405.0781 1312.0313,403.1406 Q1310.4844,401.1875 1310.4844,397.5156 Q1310.4844,393.8438 1312.0313,391.9063 Q1313.5938,389.9531 1316.5469,389.9531 Q1317.375,389.9531 1318.125,390.125 Q1318.8906,390.2969 1319.5625,390.6563 L1319.5625,393.8594 Q1318.8125,393.1719 1318.1094,392.8594 Q1317.4219,392.5469 1316.6719,392.5469 Q1315.0938,392.5469 1314.2813,393.7969 Q1313.4844,395.0469 1313.4844,397.5156 Q1313.4844,399.9844 1314.2813,401.2344 Q1315.0938,402.4844 1316.6719,402.4844 Q1317.4219,402.4844 1318.1094,402.1719 Q1318.8125,401.8594 1319.5625,401.1719 L1319.5625,404.375 Z " fill="#000000"/><text fill="#000000" font-family="sans-serif" font-size="20" lengthAdjust="spacing" textLength="273" x="1338.5" y="404.2207">RecruitmentProcessService</text><line style="stroke:#181818;stroke-width:0.5;" x1="1104.5" x2="1810.5" y1="414.2969" y2="414.2969"/><line style="stroke:#181818;stroke-width:0.5;" x1="1104.5" x2="1810.5" y1="422.2969" y2="422.2969"/><ellipse cx="1114.5" cy="439.4375" fill="#84BE84" rx="3" ry="3" style="stroke:#038048;stroke-width:1.0;"/><text fill="#000000" font-family="sans-serif" font-size="20" lengthAdjust="spacing" textLength="651" x="1124.5" y="444.8613">createApplicationPhase(initialDate: Date, finalDate: Date): Phase</text><ellipse cx="1114.5" cy="462.7188" fill="#84BE84" rx="3" ry="3" style="stroke:#038048;stroke-width:1.0;"/><text fill="#000000" font-family="sans-serif" font-size="20" lengthAdjust="spacing" textLength="638" x="1124.5" y="468.1426">createScreeningPhase(initialDate: Date, finalDate: Date): Phase</text><ellipse cx="1114.5" cy="486" fill="#84BE84" rx="3" ry="3" style="stroke:#038048;stroke-width:1.0;"/><text fill="#000000" font-family="sans-serif" font-size="20" lengthAdjust="spacing" textLength="630" x="1124.5" y="491.4238">createInterviewPhase(initialDate: Date, finalDate: Date): Phase</text><ellipse cx="1114.5" cy="509.2813" fill="#84BE84" rx="3" ry="3" style="stroke:#038048;stroke-width:1.0;"/><text fill="#000000" font-family="sans-serif" font-size="20" lengthAdjust="spacing" textLength="619" x="1124.5" y="514.7051">createAnalysisPhase(initialDate: Date, finalDate: Date): Phase</text><ellipse cx="1114.5" cy="532.5625" fill="#84BE84" rx="3" ry="3" style="stroke:#038048;stroke-width:1.0;"/><text fill="#000000" font-family="sans-serif" font-size="20" lengthAdjust="spacing" textLength="600" x="1124.5" y="537.9863">createResultPhase(initialDate: Date, finalDate: Date): Phase</text><ellipse cx="1114.5" cy="555.8438" fill="#84BE84" rx="3" ry="3" style="stroke:#038048;stroke-width:1.0;"/><text fill="#000000" font-family="sans-serif" font-size="20" lengthAdjust="spacing" textLength="681" x="1124.5" y="561.2676">save(recruitmentProcess: RecruitmentProcess): RecruitmentProcess</text></g><!--class RecruitmentProcessFactory--><g id="elem_RecruitmentProcessFactory"><rect codeLine="32" fill="#FEF9E7" height="189.6875" id="RecruitmentProcessFactory" rx="2.5" ry="2.5" style="stroke:#181818;stroke-width:0.5;" width="1675" x="7" y="630.2969"/><ellipse cx="703" cy="647.2969" fill="#ADD1B2" rx="12" ry="12" style="stroke:#181818;stroke-width:1.0;"/><path d="M706.0625,654.375 Q705.375,654.7344 704.625,654.9063 Q703.875,655.0781 703.0469,655.0781 Q700.0938,655.0781 698.5313,653.1406 Q696.9844,651.1875 696.9844,647.5156 Q696.9844,643.8438 698.5313,641.9063 Q700.0938,639.9531 703.0469,639.9531 Q703.875,639.9531 704.625,640.125 Q705.3906,640.2969 706.0625,640.6563 L706.0625,643.8594 Q705.3125,643.1719 704.6094,642.8594 Q703.9219,642.5469 703.1719,642.5469 Q701.5938,642.5469 700.7813,643.7969 Q699.9844,645.0469 699.9844,647.5156 Q699.9844,649.9844 700.7813,651.2344 Q701.5938,652.4844 703.1719,652.4844 Q703.9219,652.4844 704.6094,652.1719 Q705.3125,651.8594 706.0625,651.1719 L706.0625,654.375 Z " fill="#000000"/><text fill="#000000" font-family="sans-serif" font-size="20" lengthAdjust="spacing" textLength="274" x="725" y="654.2207">RecruitmentProcessFactory</text><line style="stroke:#181818;stroke-width:0.5;" x1="8" x2="1681" y1="664.2969" y2="664.2969"/><line style="stroke:#181818;stroke-width:0.5;" x1="8" x2="1681" y1="672.2969" y2="672.2969"/><ellipse cx="18" cy="689.4375" fill="#84BE84" rx="3" ry="3" style="stroke:#038048;stroke-width:1.0;"/><text fill="#000000" font-family="sans-serif" font-size="20" lengthAdjust="spacing" textLength="651" x="28" y="694.8613">createApplicationPhase(initialDate: Date, finalDate: Date): Phase</text><ellipse cx="18" cy="712.7188" fill="#84BE84" rx="3" ry="3" style="stroke:#038048;stroke-width:1.0;"/><text fill="#000000" font-family="sans-serif" font-size="20" lengthAdjust="spacing" textLength="638" x="28" y="718.1426">createScreeningPhase(initialDate: Date, finalDate: Date): Phase</text><ellipse cx="18" cy="736" fill="#84BE84" rx="3" ry="3" style="stroke:#038048;stroke-width:1.0;"/><text fill="#000000" font-family="sans-serif" font-size="20" lengthAdjust="spacing" textLength="630" x="28" y="741.4238">createInterviewPhase(initialDate: Date, finalDate: Date): Phase</text><ellipse cx="18" cy="759.2813" fill="#84BE84" rx="3" ry="3" style="stroke:#038048;stroke-width:1.0;"/><text fill="#000000" font-family="sans-serif" font-size="20" lengthAdjust="spacing" textLength="619" x="28" y="764.7051">createAnalysisPhase(initialDate: Date, finalDate: Date): Phase</text><ellipse cx="18" cy="782.5625" fill="#84BE84" rx="3" ry="3" style="stroke:#038048;stroke-width:1.0;"/><text fill="#000000" font-family="sans-serif" font-size="20" lengthAdjust="spacing" textLength="600" x="28" y="787.9863">createResultPhase(initialDate: Date, finalDate: Date): Phase</text><ellipse cx="18" cy="805.8438" fill="#84BE84" rx="3" ry="3" style="stroke:#038048;stroke-width:1.0;"/><text fill="#000000" font-family="sans-serif" font-size="20" lengthAdjust="spacing" textLength="1648" x="28" y="811.2676">createRecruitmentProcess(ApplicationPhase: Phase, ScreeningPhase: Phase, InterviewPhase: Phase, AnalysisPhase: Phase, ResultPhase: Phase): RecruitmentProcess</text></g><!--class RecruitmentProcessRepository--><g id="elem_RecruitmentProcessRepository"><rect codeLine="41" fill="#FEF9E7" height="73.2813" id="RecruitmentProcessRepository" rx="2.5" ry="2.5" style="stroke:#181818;stroke-width:0.5;" width="708" x="1717.5" y="688.7969"/><ellipse cx="1914" cy="705.7969" fill="#ADD1B2" rx="12" ry="12" style="stroke:#181818;stroke-width:1.0;"/><path d="M1917.0625,712.875 Q1916.375,713.2344 1915.625,713.4063 Q1914.875,713.5781 1914.0469,713.5781 Q1911.0938,713.5781 1909.5313,711.6406 Q1907.9844,709.6875 1907.9844,706.0156 Q1907.9844,702.3438 1909.5313,700.4063 Q1911.0938,698.4531 1914.0469,698.4531 Q1914.875,698.4531 1915.625,698.625 Q1916.3906,698.7969 1917.0625,699.1563 L1917.0625,702.3594 Q1916.3125,701.6719 1915.6094,701.3594 Q1914.9219,701.0469 1914.1719,701.0469 Q1912.5938,701.0469 1911.7813,702.2969 Q1910.9844,703.5469 1910.9844,706.0156 Q1910.9844,708.4844 1911.7813,709.7344 Q1912.5938,710.9844 1914.1719,710.9844 Q1914.9219,710.9844 1915.6094,710.6719 Q1916.3125,710.3594 1917.0625,709.6719 L1917.0625,712.875 Z " fill="#000000"/><text fill="#000000" font-family="sans-serif" font-size="20" lengthAdjust="spacing" textLength="306" x="1936" y="712.7207">RecruitmentProcessRepository</text><line style="stroke:#181818;stroke-width:0.5;" x1="1718.5" x2="2424.5" y1="722.7969" y2="722.7969"/><line style="stroke:#181818;stroke-width:0.5;" x1="1718.5" x2="2424.5" y1="730.7969" y2="730.7969"/><ellipse cx="1728.5" cy="747.9375" fill="#84BE84" rx="3" ry="3" style="stroke:#038048;stroke-width:1.0;"/><text fill="#000000" font-family="sans-serif" font-size="20" lengthAdjust="spacing" textLength="681" x="1738.5" y="753.3613">save(recruitmentProcess: RecruitmentProcess): RecruitmentProcess</text></g><!--class JpaRecruitmentProcessRepository--><g id="elem_JpaRecruitmentProcessRepository"><rect codeLine="45" fill="#FEF9E7" height="73.2813" id="JpaRecruitmentProcessRepository" rx="2.5" ry="2.5" style="stroke:#181818;stroke-width:0.5;" width="708" x="1717.5" y="880.2969"/><ellipse cx="1898.5" cy="897.2969" fill="#ADD1B2" rx="12" ry="12" style="stroke:#181818;stroke-width:1.0;"/><path d="M1901.5625,904.375 Q1900.875,904.7344 1900.125,904.9063 Q1899.375,905.0781 1898.5469,905.0781 Q1895.5938,905.0781 1894.0313,903.1406 Q1892.4844,901.1875 1892.4844,897.5156 Q1892.4844,893.8438 1894.0313,891.9063 Q1895.5938,889.9531 1898.5469,889.9531 Q1899.375,889.9531 1900.125,890.125 Q1900.8906,890.2969 1901.5625,890.6563 L1901.5625,893.8594 Q1900.8125,893.1719 1900.1094,892.8594 Q1899.4219,892.5469 1898.6719,892.5469 Q1897.0938,892.5469 1896.2813,893.7969 Q1895.4844,895.0469 1895.4844,897.5156 Q1895.4844,899.9844 1896.2813,901.2344 Q1897.0938,902.4844 1898.6719,902.4844 Q1899.4219,902.4844 1900.1094,902.1719 Q1900.8125,901.8594 1901.5625,901.1719 L1901.5625,904.375 Z " fill="#000000"/><text fill="#000000" font-family="sans-serif" font-size="20" lengthAdjust="spacing" textLength="337" x="1920.5" y="904.2207">JpaRecruitmentProcessRepository</text><line style="stroke:#181818;stroke-width:0.5;" x1="1718.5" x2="2424.5" y1="914.2969" y2="914.2969"/><line style="stroke:#181818;stroke-width:0.5;" x1="1718.5" x2="2424.5" y1="922.2969" y2="922.2969"/><ellipse cx="1728.5" cy="939.4375" fill="#84BE84" rx="3" ry="3" style="stroke:#038048;stroke-width:1.0;"/><text fill="#000000" font-family="sans-serif" font-size="20" lengthAdjust="spacing" textLength="681" x="1738.5" y="944.8613">save(recruitmentProcess: RecruitmentProcess): RecruitmentProcess</text></g><!--class DB--><g id="elem_DB"><rect codeLine="49" fill="#FEF9E7" height="50" id="DB" rx="2.5" ry="2.5" style="stroke:#181818;stroke-width:0.5;" width="128" x="2007.5" y="1013.2969"/><ellipse cx="2023.5" cy="1030.2969" fill="#8BEBFF" rx="12" ry="12" style="stroke:#181818;stroke-width:1.0;"/><path d="M2023.7188,1025.8125 L2023.7188,1035.2031 L2024.5,1035.2031 Q2026.2031,1035.2031 2026.9219,1034.1406 Q2027.6406,1033.0625 2027.6406,1030.4844 Q2027.6406,1027.9375 2026.9219,1026.875 Q2026.2031,1025.8125 2024.5,1025.8125 L2023.7188,1025.8125 Z M2020.8438,1023.2188 L2023.9219,1023.2188 Q2027.5,1023.2188 2029.0625,1024.9219 Q2030.6406,1026.625 2030.6406,1030.4844 Q2030.6406,1034.375 2029.0625,1036.0938 Q2027.5,1037.7969 2023.9219,1037.7969 L2020.8438,1037.7969 L2020.8438,1023.2188 Z " fill="#000000"/><text fill="#000000" font-family="sans-serif" font-size="20" lengthAdjust="spacing" textLength="94" x="2038.5" y="1037.2207">Database</text><line style="stroke:#181818;stroke-width:0.5;" x1="2008.5" x2="2134.5" y1="1047.2969" y2="1047.2969"/><line style="stroke:#181818;stroke-width:0.5;" x1="2008.5" x2="2134.5" y1="1055.2969" y2="1055.2969"/></g><!--link UI to SetUpRecruitmentProcessController--><g id="link_UI_SetUpRecruitmentProcessController"><path codeLine="52" d="M1457.5,94.4369 C1457.5,109.1069 1457.5,128.8369 1457.5,148.9069 " fill="none" id="UI-to-SetUpRecruitmentProcessController" style="stroke:#000000;stroke-width:1.0;"/><polygon fill="#000000" points="1457.5,154.0169,1461.5,145.0169,1457.5,149.0169,1453.5,145.0169,1457.5,154.0169" style="stroke:#000000;stroke-width:1.0;"/></g><!--link SetUpRecruitmentProcessController to RecruitmentProcessService--><g id="link_SetUpRecruitmentProcessController_RecruitmentProcessService"><path codeLine="53" d="M1457.5,320.5069 C1457.5,338.1369 1457.5,356.9469 1457.5,375.1369 " fill="none" id="SetUpRecruitmentProcessController-to-RecruitmentProcessService" style="stroke:#000000;stroke-width:1.0;"/><polygon fill="#000000" points="1457.5,380.2569,1461.5,371.2569,1457.5,375.2569,1453.5,371.2569,1457.5,380.2569" style="stroke:#000000;stroke-width:1.0;"/></g><!--link RecruitmentProcessService to RecruitmentProcessFactory--><g id="link_RecruitmentProcessService_RecruitmentProcessFactory"><path codeLine="54" d="M1224.88,570.4069 C1178.05,589.3569 1128.78,609.2869 1081.8,628.2969 " fill="none" id="RecruitmentProcessService-to-RecruitmentProcessFactory" style="stroke:#000000;stroke-width:1.0;"/><polygon fill="#000000" points="1076.96,630.2469,1086.8037,630.5662,1081.5925,628.3654,1083.7933,623.1542,1076.96,630.2469" style="stroke:#000000;stroke-width:1.0;"/></g><!--link RecruitmentProcessService to RecruitmentProcessRepository--><g id="link_RecruitmentProcessService_RecruitmentProcessRepository"><path codeLine="55" d="M1690.5,570.4069 C1790.75,610.8969 1902.2,655.9169 1978.52,686.7469 " fill="none" id="RecruitmentProcessService-to-RecruitmentProcessRepository" style="stroke:#000000;stroke-width:1.0;"/><polygon fill="#000000" points="1983.5,688.7569,1976.648,681.6823,1978.8626,686.8876,1973.6572,689.1022,1983.5,688.7569" style="stroke:#000000;stroke-width:1.0;"/></g><!--link RecruitmentProcessRepository to JpaRecruitmentProcessRepository--><g id="link_RecruitmentProcessRepository_JpaRecruitmentProcessRepository"><path codeLine="56" d="M2071.5,761.9369 C2071.5,793.9969 2071.5,841.0869 2071.5,874.7169 " fill="none" id="RecruitmentProcessRepository-to-JpaRecruitmentProcessRepository" style="stroke:#000000;stroke-width:1.0;"/><polygon fill="#000000" points="2071.5,879.9869,2075.5,870.9869,2071.5,874.9869,2067.5,870.9869,2071.5,879.9869" style="stroke:#000000;stroke-width:1.0;"/></g><!--link JpaRecruitmentProcessRepository to DB--><g id="link_JpaRecruitmentProcessRepository_DB"><path codeLine="57" d="M2071.5,953.3269 C2071.5,970.6369 2071.5,991.2069 2071.5,1007.6569 " fill="none" id="JpaRecruitmentProcessRepository-to-DB" style="stroke:#000000;stroke-width:1.0;"/><polygon fill="#000000" points="2071.5,1013.0669,2075.5,1004.0669,2071.5,1008.0669,2067.5,1004.0669,2071.5,1013.0669" style="stroke:#000000;stroke-width:1.0;"/></g><!--SRC=[xLLDR-8m4BtxLupQ2sX1OlVINLGX4K8azbGHyGEcPaWjN3koJL6ssl- -ZXk-KY12BBTo0F7cpRFztYIsIw5oDFWgDL_I7EQqm9LqYLOk5Ny8VlGOSy99Wf54Qo4Mc7asT66MVk_r7XYp6mNWWV7Em7zgwD0v8vvNZYPSgo3Sgz5ov4lCA7M5NyiGTwWoIJMIVS6vNWkLmGAbhLUbKEIAd23NiYZ_X7haXJEZLse-qb8Rk4_6oQ_nGwWDZT7h3pYIdiV-ClPnYhkKt2oV4ZShuLv9kIUZELaxczm1MfXDuBsHE_8c6YqbcT3JoAgi-yODeQDXdal1qGcjdbxGKaieuGJAsDVwK7vtO27KFj3kGw3kowJ-XvItx1gHYN9atWIjhn4PUaPXXRr6OqhMJ-V52hkeFlkVbYVZ528wMVsAvbRH10MBRzGodypl7mcaVGmy6t22t6bJd0Yugdu5VDE0Dmfrzrjrfwkk3XnwjuKFtTZ21-VRedixhh3BfsTAkRRYp03j29iP-e_J_3l7nYqrS6wmAvylFditm_9n18-FhRW3zp-ZSPGaxS70B-d9_exiTWVDrnvhlXXBdPFlPdRwhNsyhthaB-xRUShE6bvsDuJ2ca8hDUA8_GC0]--></g></svg>