<?xml version="1.0" encoding="UTF-8" standalone="no"?><svg xmlns="http://www.w3.org/2000/svg" xmlns:xlink="http://www.w3.org/1999/xlink" contentStyleType="text/css" height="2185px" preserveAspectRatio="none" style="width:3460px;height:2185px;background:#FFFFFF;" version="1.1" viewBox="0 0 3460 2185" width="3460px" zoomAndPan="magnify"><defs/><g><text fill="#000000" font-family="sans-serif" font-size="14" font-weight="bold" lengthAdjust="spacing" textLength="225" x="1619" y="27.9951">Sequence Diagram - US1001</text><rect fill="#FFFFFF" height="1943.8438" style="stroke:#181818;stroke-width:1.0;" width="10" x="98" y="135.5781"/><rect fill="#FFFFFF" height="270.0938" style="stroke:#181818;stroke-width:1.0;" width="10" x="313.5" y="211.4219"/><rect fill="#FFFFFF" height="1537.3438" style="stroke:#181818;stroke-width:1.0;" width="10" x="313.5" y="542.0781"/><rect fill="#FFFFFF" height="689.4688" style="stroke:#181818;stroke-width:1.0;" width="10" x="642.5" y="649.2031"/><rect fill="#FFFFFF" height="521.7813" style="stroke:#181818;stroke-width:1.0;" width="10" x="971.5" y="756.3281"/><rect fill="#FFFFFF" height="60.5625" style="stroke:#181818;stroke-width:1.0;" width="10" x="1325.5" y="863.4531"/><rect fill="#FFFFFF" height="256.25" style="stroke:#181818;stroke-width:1.0;" width="10" x="1499.5" y="961.2969"/><rect fill="#FFFFFF" height="158.4063" style="stroke:#181818;stroke-width:1.0;" width="10" x="1742" y="998.5781"/><rect fill="#FFFFFF" height="549.7813" style="stroke:#181818;stroke-width:1.0;" width="10" x="2045" y="1445.7969"/><rect fill="#FFFFFF" height="405.375" style="stroke:#181818;stroke-width:1.0;" width="10" x="2407" y="1552.9219"/><rect fill="#FFFFFF" height="37.2813" style="stroke:#181818;stroke-width:1.0;" width="10" x="2736" y="1660.0469"/><rect fill="#FFFFFF" height="186.4063" style="stroke:#181818;stroke-width:1.0;" width="10" x="2924" y="1734.6094"/><rect fill="#FFFFFF" height="111.8438" style="stroke:#181818;stroke-width:1.0;" width="10" x="3153" y="1771.8906"/><rect fill="#FFFFFF" height="60.5625" style="stroke:#181818;stroke-width:1.0;" width="10" x="3404" y="1035.8594"/><rect fill="#FFFFFF" height="37.2813" style="stroke:#181818;stroke-width:1.0;" width="10" x="3404" y="1809.1719"/><line style="stroke:#181818;stroke-width:0.5;stroke-dasharray:5.0,5.0;" x1="103" x2="103" y1="125.5781" y2="2097.4219"/><line style="stroke:#181818;stroke-width:0.5;stroke-dasharray:5.0,5.0;" x1="318" x2="318" y1="125.5781" y2="2097.4219"/><line style="stroke:#181818;stroke-width:0.5;stroke-dasharray:5.0,5.0;" x1="647" x2="647" y1="125.5781" y2="2097.4219"/><line style="stroke:#181818;stroke-width:0.5;stroke-dasharray:5.0,5.0;" x1="976.5" x2="976.5" y1="125.5781" y2="2097.4219"/><line style="stroke:#181818;stroke-width:0.5;stroke-dasharray:5.0,5.0;" x1="1330" x2="1330" y1="125.5781" y2="2097.4219"/><line style="stroke:#181818;stroke-width:0.5;stroke-dasharray:5.0,5.0;" x1="1504" x2="1504" y1="125.5781" y2="2097.4219"/><line style="stroke:#181818;stroke-width:0.5;stroke-dasharray:5.0,5.0;" x1="1747" x2="1747" y1="125.5781" y2="2097.4219"/><line style="stroke:#181818;stroke-width:0.5;stroke-dasharray:5.0,5.0;" x1="2050" x2="2050" y1="125.5781" y2="2097.4219"/><line style="stroke:#181818;stroke-width:0.5;stroke-dasharray:5.0,5.0;" x1="2412" x2="2412" y1="125.5781" y2="2097.4219"/><line style="stroke:#181818;stroke-width:0.5;stroke-dasharray:5.0,5.0;" x1="2740.5" x2="2740.5" y1="125.5781" y2="2097.4219"/><line style="stroke:#181818;stroke-width:0.5;stroke-dasharray:5.0,5.0;" x1="2928.5" x2="2928.5" y1="125.5781" y2="2097.4219"/><line style="stroke:#181818;stroke-width:0.5;stroke-dasharray:5.0,5.0;" x1="3158" x2="3158" y1="125.5781" y2="2097.4219"/><line style="stroke:#181818;stroke-width:0.5;stroke-dasharray:5.0,5.0;" x1="3409" x2="3409" y1="125.5781" y2="2097.4219"/><text fill="#000000" font-family="sans-serif" font-size="20" lengthAdjust="spacing" text-decoration="underline" textLength="190" x="5" y="120.8613">Customer Manager</text><ellipse cx="103" cy="50.7969" fill="#E2E2F0" rx="8" ry="8" style="stroke:#181818;stroke-width:0.5;"/><path d="M103,58.7969 L103,85.7969 M90,66.7969 L116,66.7969 M103,85.7969 L90,100.7969 M103,85.7969 L116,100.7969 " fill="none" style="stroke:#181818;stroke-width:0.5;"/><text fill="#000000" font-family="sans-serif" font-size="20" lengthAdjust="spacing" text-decoration="underline" textLength="190" x="5" y="2114.9863">Customer Manager</text><ellipse cx="103" cy="2128.2031" fill="#E2E2F0" rx="8" ry="8" style="stroke:#181818;stroke-width:0.5;"/><path d="M103,2136.2031 L103,2163.2031 M90,2144.2031 L116,2144.2031 M103,2163.2031 L90,2178.2031 M103,2163.2031 L116,2178.2031 " fill="none" style="stroke:#181818;stroke-width:0.5;"/><rect fill="#E2E2F0" height="37.2813" rx="2.5" ry="2.5" style="stroke:#181818;stroke-width:0.5;" width="215" x="211" y="87.2969"/><text fill="#000000" font-family="sans-serif" font-size="20" lengthAdjust="spacing" text-decoration="underline" textLength="201" x="218" y="112.8613">RegisterCustomerUI</text><rect fill="#E2E2F0" height="37.2813" rx="2.5" ry="2.5" style="stroke:#181818;stroke-width:0.5;" width="215" x="211" y="2096.4219"/><text fill="#000000" font-family="sans-serif" font-size="20" lengthAdjust="spacing" text-decoration="underline" textLength="201" x="218" y="2121.9863">RegisterCustomerUI</text><rect fill="#E2E2F0" height="37.2813" rx="2.5" ry="2.5" style="stroke:#181818;stroke-width:0.5;" width="293" x="501" y="87.2969"/><text fill="#000000" font-family="sans-serif" font-size="20" lengthAdjust="spacing" text-decoration="underline" textLength="279" x="508" y="112.8613">RegisterCustomerController</text><rect fill="#E2E2F0" height="37.2813" rx="2.5" ry="2.5" style="stroke:#181818;stroke-width:0.5;" width="293" x="501" y="2096.4219"/><text fill="#000000" font-family="sans-serif" font-size="20" lengthAdjust="spacing" text-decoration="underline" textLength="279" x="508" y="2121.9863">RegisterCustomerController</text><rect fill="#E2E2F0" height="37.2813" rx="2.5" ry="2.5" style="stroke:#181818;stroke-width:0.5;" width="184" x="884.5" y="87.2969"/><text fill="#000000" font-family="sans-serif" font-size="20" lengthAdjust="spacing" text-decoration="underline" textLength="170" x="891.5" y="112.8613">CustomerService</text><rect fill="#E2E2F0" height="37.2813" rx="2.5" ry="2.5" style="stroke:#181818;stroke-width:0.5;" width="184" x="884.5" y="2096.4219"/><text fill="#000000" font-family="sans-serif" font-size="20" lengthAdjust="spacing" text-decoration="underline" textLength="170" x="891.5" y="2121.9863">CustomerService</text><rect fill="#E2E2F0" height="37.2813" rx="2.5" ry="2.5" style="stroke:#181818;stroke-width:0.5;" width="111" x="1275" y="87.2969"/><text fill="#000000" font-family="sans-serif" font-size="20" lengthAdjust="spacing" text-decoration="underline" textLength="97" x="1282" y="112.8613">Customer</text><rect fill="#E2E2F0" height="37.2813" rx="2.5" ry="2.5" style="stroke:#181818;stroke-width:0.5;" width="111" x="1275" y="2096.4219"/><text fill="#000000" font-family="sans-serif" font-size="20" lengthAdjust="spacing" text-decoration="underline" textLength="97" x="1282" y="2121.9863">Customer</text><rect fill="#E2E2F0" height="37.2813" rx="2.5" ry="2.5" style="stroke:#181818;stroke-width:0.5;" width="217" x="1396" y="87.2969"/><text fill="#000000" font-family="sans-serif" font-size="20" lengthAdjust="spacing" text-decoration="underline" textLength="203" x="1403" y="112.8613">CustomerRepository</text><rect fill="#E2E2F0" height="37.2813" rx="2.5" ry="2.5" style="stroke:#181818;stroke-width:0.5;" width="217" x="1396" y="2096.4219"/><text fill="#000000" font-family="sans-serif" font-size="20" lengthAdjust="spacing" text-decoration="underline" textLength="203" x="1403" y="2121.9863">CustomerRepository</text><rect fill="#E2E2F0" height="37.2813" rx="2.5" ry="2.5" style="stroke:#181818;stroke-width:0.5;" width="248" x="1623" y="87.2969"/><text fill="#000000" font-family="sans-serif" font-size="20" lengthAdjust="spacing" text-decoration="underline" textLength="234" x="1630" y="112.8613">JpaCustomerRepository</text><rect fill="#E2E2F0" height="37.2813" rx="2.5" ry="2.5" style="stroke:#181818;stroke-width:0.5;" width="248" x="1623" y="2096.4219"/><text fill="#000000" font-family="sans-serif" font-size="20" lengthAdjust="spacing" text-decoration="underline" textLength="234" x="1630" y="2121.9863">JpaCustomerRepository</text><rect fill="#E2E2F0" height="37.2813" rx="2.5" ry="2.5" style="stroke:#181818;stroke-width:0.5;" width="338" x="1881" y="87.2969"/><text fill="#000000" font-family="sans-serif" font-size="20" lengthAdjust="spacing" text-decoration="underline" textLength="324" x="1888" y="112.8613">RegisterCustomerUserController</text><rect fill="#E2E2F0" height="37.2813" rx="2.5" ry="2.5" style="stroke:#181818;stroke-width:0.5;" width="338" x="1881" y="2096.4219"/><text fill="#000000" font-family="sans-serif" font-size="20" lengthAdjust="spacing" text-decoration="underline" textLength="324" x="1888" y="2121.9863">RegisterCustomerUserController</text><rect fill="#E2E2F0" height="37.2813" rx="2.5" ry="2.5" style="stroke:#181818;stroke-width:0.5;" width="264" x="2280" y="87.2969"/><text fill="#000000" font-family="sans-serif" font-size="20" lengthAdjust="spacing" text-decoration="underline" textLength="250" x="2287" y="112.8613">UserManagementService</text><rect fill="#E2E2F0" height="37.2813" rx="2.5" ry="2.5" style="stroke:#181818;stroke-width:0.5;" width="264" x="2280" y="2096.4219"/><text fill="#000000" font-family="sans-serif" font-size="20" lengthAdjust="spacing" text-decoration="underline" textLength="250" x="2287" y="2121.9863">UserManagementService</text><rect fill="#E2E2F0" height="37.2813" rx="2.5" ry="2.5" style="stroke:#181818;stroke-width:0.5;" width="191" x="2645.5" y="87.2969"/><text fill="#000000" font-family="sans-serif" font-size="20" lengthAdjust="spacing" text-decoration="underline" textLength="177" x="2652.5" y="112.8613">UserTypesFactory</text><rect fill="#E2E2F0" height="37.2813" rx="2.5" ry="2.5" style="stroke:#181818;stroke-width:0.5;" width="191" x="2645.5" y="2096.4219"/><text fill="#000000" font-family="sans-serif" font-size="20" lengthAdjust="spacing" text-decoration="underline" textLength="177" x="2652.5" y="2121.9863">UserTypesFactory</text><rect fill="#E2E2F0" height="37.2813" rx="2.5" ry="2.5" style="stroke:#181818;stroke-width:0.5;" width="165" x="2846.5" y="87.2969"/><text fill="#000000" font-family="sans-serif" font-size="20" lengthAdjust="spacing" text-decoration="underline" textLength="151" x="2853.5" y="112.8613">UserRepository</text><rect fill="#E2E2F0" height="37.2813" rx="2.5" ry="2.5" style="stroke:#181818;stroke-width:0.5;" width="165" x="2846.5" y="2096.4219"/><text fill="#000000" font-family="sans-serif" font-size="20" lengthAdjust="spacing" text-decoration="underline" textLength="151" x="2853.5" y="2121.9863">UserRepository</text><rect fill="#E2E2F0" height="37.2813" rx="2.5" ry="2.5" style="stroke:#181818;stroke-width:0.5;" width="196" x="3060" y="87.2969"/><text fill="#000000" font-family="sans-serif" font-size="20" lengthAdjust="spacing" text-decoration="underline" textLength="182" x="3067" y="112.8613">JpaUserRepository</text><rect fill="#E2E2F0" height="37.2813" rx="2.5" ry="2.5" style="stroke:#181818;stroke-width:0.5;" width="196" x="3060" y="2096.4219"/><text fill="#000000" font-family="sans-serif" font-size="20" lengthAdjust="spacing" text-decoration="underline" textLength="182" x="3067" y="2121.9863">JpaUserRepository</text><text fill="#000000" font-family="sans-serif" font-size="20" lengthAdjust="spacing" text-decoration="underline" textLength="94" x="3359" y="120.8613">Database</text><path d="M3391,66.2969 C3391,56.2969 3409,56.2969 3409,56.2969 C3409,56.2969 3427,56.2969 3427,66.2969 L3427,92.2969 C3427,102.2969 3409,102.2969 3409,102.2969 C3409,102.2969 3391,102.2969 3391,92.2969 L3391,66.2969 " fill="#E2E2F0" style="stroke:#181818;stroke-width:1.5;"/><path d="M3391,66.2969 C3391,76.2969 3409,76.2969 3409,76.2969 C3409,76.2969 3427,76.2969 3427,66.2969 " fill="none" style="stroke:#181818;stroke-width:1.5;"/><text fill="#000000" font-family="sans-serif" font-size="20" lengthAdjust="spacing" text-decoration="underline" textLength="94" x="3359" y="2114.9863">Database</text><path d="M3391,2129.7031 C3391,2119.7031 3409,2119.7031 3409,2119.7031 C3409,2119.7031 3427,2119.7031 3427,2129.7031 L3427,2155.7031 C3427,2165.7031 3409,2165.7031 3409,2165.7031 C3409,2165.7031 3391,2165.7031 3391,2155.7031 L3391,2129.7031 " fill="#E2E2F0" style="stroke:#181818;stroke-width:1.5;"/><path d="M3391,2129.7031 C3391,2139.7031 3409,2139.7031 3409,2139.7031 C3409,2139.7031 3427,2139.7031 3427,2129.7031 " fill="none" style="stroke:#181818;stroke-width:1.5;"/><rect fill="#FFFFFF" height="1943.8438" style="stroke:#181818;stroke-width:1.0;" width="10" x="98" y="135.5781"/><rect fill="#FFFFFF" height="270.0938" style="stroke:#181818;stroke-width:1.0;" width="10" x="313.5" y="211.4219"/><rect fill="#FFFFFF" height="1537.3438" style="stroke:#181818;stroke-width:1.0;" width="10" x="313.5" y="542.0781"/><rect fill="#FFFFFF" height="689.4688" style="stroke:#181818;stroke-width:1.0;" width="10" x="642.5" y="649.2031"/><rect fill="#FFFFFF" height="521.7813" style="stroke:#181818;stroke-width:1.0;" width="10" x="971.5" y="756.3281"/><rect fill="#FFFFFF" height="60.5625" style="stroke:#181818;stroke-width:1.0;" width="10" x="1325.5" y="863.4531"/><rect fill="#FFFFFF" height="256.25" style="stroke:#181818;stroke-width:1.0;" width="10" x="1499.5" y="961.2969"/><rect fill="#FFFFFF" height="158.4063" style="stroke:#181818;stroke-width:1.0;" width="10" x="1742" y="998.5781"/><rect fill="#FFFFFF" height="549.7813" style="stroke:#181818;stroke-width:1.0;" width="10" x="2045" y="1445.7969"/><rect fill="#FFFFFF" height="405.375" style="stroke:#181818;stroke-width:1.0;" width="10" x="2407" y="1552.9219"/><rect fill="#FFFFFF" height="37.2813" style="stroke:#181818;stroke-width:1.0;" width="10" x="2736" y="1660.0469"/><rect fill="#FFFFFF" height="186.4063" style="stroke:#181818;stroke-width:1.0;" width="10" x="2924" y="1734.6094"/><rect fill="#FFFFFF" height="111.8438" style="stroke:#181818;stroke-width:1.0;" width="10" x="3153" y="1771.8906"/><rect fill="#FFFFFF" height="60.5625" style="stroke:#181818;stroke-width:1.0;" width="10" x="3404" y="1035.8594"/><rect fill="#FFFFFF" height="37.2813" style="stroke:#181818;stroke-width:1.0;" width="10" x="3404" y="1809.1719"/><polygon fill="#181818" points="301.5,207.4219,311.5,211.4219,301.5,215.4219,305.5,211.4219" style="stroke:#181818;stroke-width:1.0;"/><line style="stroke:#181818;stroke-width:1.0;" x1="108" x2="307.5" y1="211.4219" y2="211.4219"/><text fill="#000000" font-family="sans-serif" font-size="20" lengthAdjust="spacing" textLength="46" x="115" y="158.1426">Asks</text><text fill="#000000" font-family="sans-serif" font-size="20" lengthAdjust="spacing" textLength="6" x="161" y="158.1426"> </text><text fill="#000000" font-family="sans-serif" font-size="20" lengthAdjust="spacing" textLength="20" x="167" y="158.1426">to</text><text fill="#000000" font-family="sans-serif" font-size="20" lengthAdjust="spacing" textLength="77" x="115" y="181.4238">register</text><text fill="#000000" font-family="sans-serif" font-size="20" lengthAdjust="spacing" textLength="6" x="192" y="181.4238"> </text><text fill="#000000" font-family="sans-serif" font-size="20" lengthAdjust="spacing" textLength="12" x="198" y="181.4238">a</text><text fill="#000000" font-family="sans-serif" font-size="20" lengthAdjust="spacing" textLength="94" x="115" y="204.7051">customer</text><polygon fill="#181818" points="119,477.5156,109,481.5156,119,485.5156,115,481.5156" style="stroke:#181818;stroke-width:1.0;"/><line style="stroke:#181818;stroke-width:1.0;stroke-dasharray:2.0,2.0;" x1="113" x2="317.5" y1="481.5156" y2="481.5156"/><text fill="#000000" font-family="sans-serif" font-size="20" lengthAdjust="spacing" textLength="46" x="125" y="241.9863">Asks</text><text fill="#000000" font-family="sans-serif" font-size="20" lengthAdjust="spacing" textLength="6" x="171" y="241.9863"> </text><text fill="#000000" font-family="sans-serif" font-size="20" lengthAdjust="spacing" textLength="27" x="177" y="241.9863">for</text><text fill="#000000" font-family="sans-serif" font-size="20" lengthAdjust="spacing" textLength="117" x="125" y="265.2676">information</text><text fill="#000000" font-family="sans-serif" font-size="20" lengthAdjust="spacing" textLength="100" x="125" y="288.5488">(company</text><text fill="#000000" font-family="sans-serif" font-size="20" lengthAdjust="spacing" textLength="63" x="125" y="311.8301">name,</text><text fill="#000000" font-family="sans-serif" font-size="20" lengthAdjust="spacing" textLength="84" x="125" y="335.1113">address,</text><text fill="#000000" font-family="sans-serif" font-size="20" lengthAdjust="spacing" textLength="94" x="125" y="358.3926">customer</text><text fill="#000000" font-family="sans-serif" font-size="20" lengthAdjust="spacing" textLength="54" x="125" y="381.6738">code,</text><text fill="#000000" font-family="sans-serif" font-size="20" lengthAdjust="spacing" textLength="6" x="179" y="381.6738"> </text><text fill="#000000" font-family="sans-serif" font-size="20" lengthAdjust="spacing" textLength="62" x="185" y="381.6738">email,</text><text fill="#000000" font-family="sans-serif" font-size="20" lengthAdjust="spacing" textLength="63" x="125" y="404.9551">phone</text><text fill="#000000" font-family="sans-serif" font-size="20" lengthAdjust="spacing" textLength="85" x="125" y="428.2363">number,</text><text fill="#000000" font-family="sans-serif" font-size="20" lengthAdjust="spacing" textLength="6" x="210" y="428.2363"> </text><text fill="#000000" font-family="sans-serif" font-size="20" lengthAdjust="spacing" textLength="39" x="216" y="428.2363">first</text><text fill="#000000" font-family="sans-serif" font-size="20" lengthAdjust="spacing" textLength="63" x="125" y="451.5176">name,</text><text fill="#000000" font-family="sans-serif" font-size="20" lengthAdjust="spacing" textLength="6" x="188" y="451.5176"> </text><text fill="#000000" font-family="sans-serif" font-size="20" lengthAdjust="spacing" textLength="36" x="194" y="451.5176">last</text><text fill="#000000" font-family="sans-serif" font-size="20" lengthAdjust="spacing" textLength="65" x="125" y="474.7988">name)</text><polygon fill="#181818" points="301.5,538.0781,311.5,542.0781,301.5,546.0781,305.5,542.0781" style="stroke:#181818;stroke-width:1.0;"/><line style="stroke:#181818;stroke-width:1.0;" x1="108" x2="307.5" y1="542.0781" y2="542.0781"/><text fill="#000000" font-family="sans-serif" font-size="20" lengthAdjust="spacing" textLength="84" x="115" y="512.0801">Provides</text><text fill="#000000" font-family="sans-serif" font-size="20" lengthAdjust="spacing" textLength="117" x="115" y="535.3613">information</text><polygon fill="#181818" points="630.5,645.2031,640.5,649.2031,630.5,653.2031,634.5,649.2031" style="stroke:#181818;stroke-width:1.0;"/><line style="stroke:#181818;stroke-width:1.0;" x1="323.5" x2="636.5" y1="649.2031" y2="649.2031"/><text fill="#000000" font-family="sans-serif" font-size="20" lengthAdjust="spacing" textLength="300" x="330.5" y="572.6426">addCustomer(companyName,</text><text fill="#000000" font-family="sans-serif" font-size="20" lengthAdjust="spacing" textLength="84" x="330.5" y="595.9238">address,</text><text fill="#000000" font-family="sans-serif" font-size="20" lengthAdjust="spacing" textLength="151" x="330.5" y="619.2051">customerCode,</text><text fill="#000000" font-family="sans-serif" font-size="20" lengthAdjust="spacing" textLength="62" x="330.5" y="642.4863">email,</text><text fill="#000000" font-family="sans-serif" font-size="20" lengthAdjust="spacing" textLength="6" x="392.5" y="642.4863"> </text><text fill="#000000" font-family="sans-serif" font-size="20" lengthAdjust="spacing" textLength="71" x="398.5" y="642.4863">phone)</text><polygon fill="#181818" points="959.5,752.3281,969.5,756.3281,959.5,760.3281,963.5,756.3281" style="stroke:#181818;stroke-width:1.0;"/><line style="stroke:#181818;stroke-width:1.0;" x1="652.5" x2="965.5" y1="756.3281" y2="756.3281"/><text fill="#000000" font-family="sans-serif" font-size="20" lengthAdjust="spacing" textLength="300" x="659.5" y="679.7676">addCustomer(companyName,</text><text fill="#000000" font-family="sans-serif" font-size="20" lengthAdjust="spacing" textLength="84" x="659.5" y="703.0488">address,</text><text fill="#000000" font-family="sans-serif" font-size="20" lengthAdjust="spacing" textLength="151" x="659.5" y="726.3301">customerCode,</text><text fill="#000000" font-family="sans-serif" font-size="20" lengthAdjust="spacing" textLength="62" x="659.5" y="749.6113">email,</text><text fill="#000000" font-family="sans-serif" font-size="20" lengthAdjust="spacing" textLength="6" x="721.5" y="749.6113"> </text><text fill="#000000" font-family="sans-serif" font-size="20" lengthAdjust="spacing" textLength="71" x="727.5" y="749.6113">phone)</text><polygon fill="#181818" points="1313.5,859.4531,1323.5,863.4531,1313.5,867.4531,1317.5,863.4531" style="stroke:#181818;stroke-width:1.0;"/><line style="stroke:#181818;stroke-width:1.0;" x1="981.5" x2="1319.5" y1="863.4531" y2="863.4531"/><text fill="#000000" font-family="sans-serif" font-size="20" lengthAdjust="spacing" textLength="325" x="988.5" y="786.8926">createCustomer(companyName,</text><text fill="#000000" font-family="sans-serif" font-size="20" lengthAdjust="spacing" textLength="84" x="988.5" y="810.1738">address,</text><text fill="#000000" font-family="sans-serif" font-size="20" lengthAdjust="spacing" textLength="151" x="988.5" y="833.4551">customerCode,</text><text fill="#000000" font-family="sans-serif" font-size="20" lengthAdjust="spacing" textLength="62" x="988.5" y="856.7363">email,</text><text fill="#000000" font-family="sans-serif" font-size="20" lengthAdjust="spacing" textLength="6" x="1050.5" y="856.7363"> </text><text fill="#000000" font-family="sans-serif" font-size="20" lengthAdjust="spacing" textLength="71" x="1056.5" y="856.7363">phone)</text><polygon fill="#181818" points="992.5,920.0156,982.5,924.0156,992.5,928.0156,988.5,924.0156" style="stroke:#181818;stroke-width:1.0;"/><line style="stroke:#181818;stroke-width:1.0;stroke-dasharray:2.0,2.0;" x1="986.5" x2="1329.5" y1="924.0156" y2="924.0156"/><text fill="#000000" font-family="sans-serif" font-size="20" lengthAdjust="spacing" textLength="62" x="998.5" y="894.0176">return</text><text fill="#000000" font-family="sans-serif" font-size="20" lengthAdjust="spacing" textLength="97" x="998.5" y="917.2988">Customer</text><polygon fill="#181818" points="1487.5,957.2969,1497.5,961.2969,1487.5,965.2969,1491.5,961.2969" style="stroke:#181818;stroke-width:1.0;"/><line style="stroke:#181818;stroke-width:1.0;" x1="981.5" x2="1493.5" y1="961.2969" y2="961.2969"/><text fill="#000000" font-family="sans-serif" font-size="20" lengthAdjust="spacing" textLength="155" x="988.5" y="954.5801">save(customer)</text><polygon fill="#181818" points="1730,994.5781,1740,998.5781,1730,1002.5781,1734,998.5781" style="stroke:#181818;stroke-width:1.0;"/><line style="stroke:#181818;stroke-width:1.0;" x1="1509.5" x2="1736" y1="998.5781" y2="998.5781"/><text fill="#000000" font-family="sans-serif" font-size="20" lengthAdjust="spacing" textLength="155" x="1516.5" y="991.8613">save(customer)</text><polygon fill="#181818" points="3392,1031.8594,3402,1035.8594,3392,1039.8594,3396,1035.8594" style="stroke:#181818;stroke-width:1.0;"/><line style="stroke:#181818;stroke-width:1.0;" x1="1752" x2="3398" y1="1035.8594" y2="1035.8594"/><text fill="#000000" font-family="sans-serif" font-size="20" lengthAdjust="spacing" textLength="177" x="1759" y="1029.1426">persist(customer)</text><polygon fill="#181818" points="1763,1092.4219,1753,1096.4219,1763,1100.4219,1759,1096.4219" style="stroke:#181818;stroke-width:1.0;"/><line style="stroke:#181818;stroke-width:1.0;stroke-dasharray:2.0,2.0;" x1="1757" x2="3408" y1="1096.4219" y2="1096.4219"/><text fill="#000000" font-family="sans-serif" font-size="20" lengthAdjust="spacing" textLength="62" x="1769" y="1066.4238">return</text><text fill="#000000" font-family="sans-serif" font-size="20" lengthAdjust="spacing" textLength="97" x="1769" y="1089.7051">Customer</text><polygon fill="#181818" points="1520.5,1152.9844,1510.5,1156.9844,1520.5,1160.9844,1516.5,1156.9844" style="stroke:#181818;stroke-width:1.0;"/><line style="stroke:#181818;stroke-width:1.0;stroke-dasharray:2.0,2.0;" x1="1514.5" x2="1746" y1="1156.9844" y2="1156.9844"/><text fill="#000000" font-family="sans-serif" font-size="20" lengthAdjust="spacing" textLength="62" x="1526.5" y="1126.9863">return</text><text fill="#000000" font-family="sans-serif" font-size="20" lengthAdjust="spacing" textLength="97" x="1526.5" y="1150.2676">Customer</text><polygon fill="#181818" points="992.5,1213.5469,982.5,1217.5469,992.5,1221.5469,988.5,1217.5469" style="stroke:#181818;stroke-width:1.0;"/><line style="stroke:#181818;stroke-width:1.0;stroke-dasharray:2.0,2.0;" x1="986.5" x2="1503.5" y1="1217.5469" y2="1217.5469"/><text fill="#000000" font-family="sans-serif" font-size="20" lengthAdjust="spacing" textLength="62" x="998.5" y="1187.5488">return</text><text fill="#000000" font-family="sans-serif" font-size="20" lengthAdjust="spacing" textLength="97" x="998.5" y="1210.8301">Customer</text><polygon fill="#181818" points="663.5,1274.1094,653.5,1278.1094,663.5,1282.1094,659.5,1278.1094" style="stroke:#181818;stroke-width:1.0;"/><line style="stroke:#181818;stroke-width:1.0;stroke-dasharray:2.0,2.0;" x1="657.5" x2="975.5" y1="1278.1094" y2="1278.1094"/><text fill="#000000" font-family="sans-serif" font-size="20" lengthAdjust="spacing" textLength="62" x="669.5" y="1248.1113">return</text><text fill="#000000" font-family="sans-serif" font-size="20" lengthAdjust="spacing" textLength="97" x="669.5" y="1271.3926">Customer</text><polygon fill="#181818" points="334.5,1334.6719,324.5,1338.6719,334.5,1342.6719,330.5,1338.6719" style="stroke:#181818;stroke-width:1.0;"/><line style="stroke:#181818;stroke-width:1.0;stroke-dasharray:2.0,2.0;" x1="328.5" x2="646.5" y1="1338.6719" y2="1338.6719"/><text fill="#000000" font-family="sans-serif" font-size="20" lengthAdjust="spacing" textLength="62" x="340.5" y="1308.6738">return</text><text fill="#000000" font-family="sans-serif" font-size="20" lengthAdjust="spacing" textLength="97" x="340.5" y="1331.9551">Customer</text><polygon fill="#181818" points="2033,1441.7969,2043,1445.7969,2033,1449.7969,2037,1445.7969" style="stroke:#181818;stroke-width:1.0;"/><line style="stroke:#181818;stroke-width:1.0;" x1="323.5" x2="2039" y1="1445.7969" y2="1445.7969"/><text fill="#000000" font-family="sans-serif" font-size="20" lengthAdjust="spacing" textLength="250" x="330.5" y="1369.2363">addCustomerUser(email,</text><text fill="#000000" font-family="sans-serif" font-size="20" lengthAdjust="spacing" textLength="101" x="330.5" y="1392.5176">password,</text><text fill="#000000" font-family="sans-serif" font-size="20" lengthAdjust="spacing" textLength="6" x="431.5" y="1392.5176"> </text><text fill="#000000" font-family="sans-serif" font-size="20" lengthAdjust="spacing" textLength="39" x="437.5" y="1392.5176">first</text><text fill="#000000" font-family="sans-serif" font-size="20" lengthAdjust="spacing" textLength="63" x="330.5" y="1415.7988">name,</text><text fill="#000000" font-family="sans-serif" font-size="20" lengthAdjust="spacing" textLength="6" x="393.5" y="1415.7988"> </text><text fill="#000000" font-family="sans-serif" font-size="20" lengthAdjust="spacing" textLength="36" x="399.5" y="1415.7988">last</text><text fill="#000000" font-family="sans-serif" font-size="20" lengthAdjust="spacing" textLength="65" x="330.5" y="1439.0801">name)</text><polygon fill="#181818" points="2395,1548.9219,2405,1552.9219,2395,1556.9219,2399,1552.9219" style="stroke:#181818;stroke-width:1.0;"/><line style="stroke:#181818;stroke-width:1.0;" x1="2055" x2="2401" y1="1552.9219" y2="1552.9219"/><text fill="#000000" font-family="sans-serif" font-size="20" lengthAdjust="spacing" textLength="333" x="2062" y="1476.3613">registerNewCustomerUser(email,</text><text fill="#000000" font-family="sans-serif" font-size="20" lengthAdjust="spacing" textLength="101" x="2062" y="1499.6426">password,</text><text fill="#000000" font-family="sans-serif" font-size="20" lengthAdjust="spacing" textLength="6" x="2163" y="1499.6426"> </text><text fill="#000000" font-family="sans-serif" font-size="20" lengthAdjust="spacing" textLength="39" x="2169" y="1499.6426">first</text><text fill="#000000" font-family="sans-serif" font-size="20" lengthAdjust="spacing" textLength="63" x="2062" y="1522.9238">name,</text><text fill="#000000" font-family="sans-serif" font-size="20" lengthAdjust="spacing" textLength="6" x="2125" y="1522.9238"> </text><text fill="#000000" font-family="sans-serif" font-size="20" lengthAdjust="spacing" textLength="36" x="2131" y="1522.9238">last</text><text fill="#000000" font-family="sans-serif" font-size="20" lengthAdjust="spacing" textLength="65" x="2062" y="1546.2051">name)</text><polygon fill="#181818" points="2724,1656.0469,2734,1660.0469,2724,1664.0469,2728,1660.0469" style="stroke:#181818;stroke-width:1.0;"/><line style="stroke:#181818;stroke-width:1.0;" x1="2417" x2="2730" y1="1660.0469" y2="1660.0469"/><text fill="#000000" font-family="sans-serif" font-size="20" lengthAdjust="spacing" textLength="300" x="2424" y="1583.4863">withRoleCustomerUser(email,</text><text fill="#000000" font-family="sans-serif" font-size="20" lengthAdjust="spacing" textLength="101" x="2424" y="1606.7676">password,</text><text fill="#000000" font-family="sans-serif" font-size="20" lengthAdjust="spacing" textLength="6" x="2525" y="1606.7676"> </text><text fill="#000000" font-family="sans-serif" font-size="20" lengthAdjust="spacing" textLength="39" x="2531" y="1606.7676">first</text><text fill="#000000" font-family="sans-serif" font-size="20" lengthAdjust="spacing" textLength="63" x="2424" y="1630.0488">name,</text><text fill="#000000" font-family="sans-serif" font-size="20" lengthAdjust="spacing" textLength="6" x="2487" y="1630.0488"> </text><text fill="#000000" font-family="sans-serif" font-size="20" lengthAdjust="spacing" textLength="36" x="2493" y="1630.0488">last</text><text fill="#000000" font-family="sans-serif" font-size="20" lengthAdjust="spacing" textLength="65" x="2424" y="1653.3301">name)</text><polygon fill="#181818" points="2428,1693.3281,2418,1697.3281,2428,1701.3281,2424,1697.3281" style="stroke:#181818;stroke-width:1.0;"/><line style="stroke:#181818;stroke-width:1.0;stroke-dasharray:2.0,2.0;" x1="2422" x2="2740" y1="1697.3281" y2="1697.3281"/><text fill="#000000" font-family="sans-serif" font-size="20" lengthAdjust="spacing" textLength="139" x="2434" y="1690.6113">customerUser</text><polygon fill="#181818" points="2912,1730.6094,2922,1734.6094,2912,1738.6094,2916,1734.6094" style="stroke:#181818;stroke-width:1.0;"/><line style="stroke:#181818;stroke-width:1.0;" x1="2417" x2="2918" y1="1734.6094" y2="1734.6094"/><text fill="#000000" font-family="sans-serif" font-size="20" lengthAdjust="spacing" textLength="200" x="2424" y="1727.8926">save(customerUser)</text><polygon fill="#181818" points="3141,1767.8906,3151,1771.8906,3141,1775.8906,3145,1771.8906" style="stroke:#181818;stroke-width:1.0;"/><line style="stroke:#181818;stroke-width:1.0;" x1="2934" x2="3147" y1="1771.8906" y2="1771.8906"/><text fill="#000000" font-family="sans-serif" font-size="20" lengthAdjust="spacing" textLength="200" x="2941" y="1765.1738">save(customerUser)</text><polygon fill="#181818" points="3392,1805.1719,3402,1809.1719,3392,1813.1719,3396,1809.1719" style="stroke:#181818;stroke-width:1.0;"/><line style="stroke:#181818;stroke-width:1.0;" x1="3163" x2="3398" y1="1809.1719" y2="1809.1719"/><text fill="#000000" font-family="sans-serif" font-size="20" lengthAdjust="spacing" textLength="222" x="3170" y="1802.4551">persist(customerUser)</text><polygon fill="#181818" points="3174,1842.4531,3164,1846.4531,3174,1850.4531,3170,1846.4531" style="stroke:#181818;stroke-width:1.0;"/><line style="stroke:#181818;stroke-width:1.0;stroke-dasharray:2.0,2.0;" x1="3168" x2="3408" y1="1846.4531" y2="1846.4531"/><text fill="#000000" font-family="sans-serif" font-size="20" lengthAdjust="spacing" textLength="62" x="3180" y="1839.7363">return</text><text fill="#000000" font-family="sans-serif" font-size="20" lengthAdjust="spacing" textLength="6" x="3242" y="1839.7363"> </text><text fill="#000000" font-family="sans-serif" font-size="20" lengthAdjust="spacing" textLength="45" x="3248" y="1839.7363">User</text><polygon fill="#181818" points="2945,1879.7344,2935,1883.7344,2945,1887.7344,2941,1883.7344" style="stroke:#181818;stroke-width:1.0;"/><line style="stroke:#181818;stroke-width:1.0;stroke-dasharray:2.0,2.0;" x1="2939" x2="3157" y1="1883.7344" y2="1883.7344"/><text fill="#000000" font-family="sans-serif" font-size="20" lengthAdjust="spacing" textLength="62" x="2951" y="1877.0176">return</text><text fill="#000000" font-family="sans-serif" font-size="20" lengthAdjust="spacing" textLength="6" x="3013" y="1877.0176"> </text><text fill="#000000" font-family="sans-serif" font-size="20" lengthAdjust="spacing" textLength="45" x="3019" y="1877.0176">User</text><polygon fill="#181818" points="2428,1917.0156,2418,1921.0156,2428,1925.0156,2424,1921.0156" style="stroke:#181818;stroke-width:1.0;"/><line style="stroke:#181818;stroke-width:1.0;stroke-dasharray:2.0,2.0;" x1="2422" x2="2928" y1="1921.0156" y2="1921.0156"/><text fill="#000000" font-family="sans-serif" font-size="20" lengthAdjust="spacing" textLength="62" x="2434" y="1914.2988">return</text><text fill="#000000" font-family="sans-serif" font-size="20" lengthAdjust="spacing" textLength="6" x="2496" y="1914.2988"> </text><text fill="#000000" font-family="sans-serif" font-size="20" lengthAdjust="spacing" textLength="45" x="2502" y="1914.2988">User</text><polygon fill="#181818" points="2066,1954.2969,2056,1958.2969,2066,1962.2969,2062,1958.2969" style="stroke:#181818;stroke-width:1.0;"/><line style="stroke:#181818;stroke-width:1.0;stroke-dasharray:2.0,2.0;" x1="2060" x2="2411" y1="1958.2969" y2="1958.2969"/><text fill="#000000" font-family="sans-serif" font-size="20" lengthAdjust="spacing" textLength="62" x="2072" y="1951.5801">return</text><text fill="#000000" font-family="sans-serif" font-size="20" lengthAdjust="spacing" textLength="6" x="2134" y="1951.5801"> </text><text fill="#000000" font-family="sans-serif" font-size="20" lengthAdjust="spacing" textLength="45" x="2140" y="1951.5801">User</text><polygon fill="#181818" points="334.5,1991.5781,324.5,1995.5781,334.5,1999.5781,330.5,1995.5781" style="stroke:#181818;stroke-width:1.0;"/><line style="stroke:#181818;stroke-width:1.0;stroke-dasharray:2.0,2.0;" x1="328.5" x2="2049" y1="1995.5781" y2="1995.5781"/><text fill="#000000" font-family="sans-serif" font-size="20" lengthAdjust="spacing" textLength="62" x="340.5" y="1988.8613">return</text><text fill="#000000" font-family="sans-serif" font-size="20" lengthAdjust="spacing" textLength="6" x="402.5" y="1988.8613"> </text><text fill="#000000" font-family="sans-serif" font-size="20" lengthAdjust="spacing" textLength="45" x="408.5" y="1988.8613">User</text><polygon fill="#181818" points="114,2075.4219,104,2079.4219,114,2083.4219,110,2079.4219" style="stroke:#181818;stroke-width:1.0;"/><line style="stroke:#181818;stroke-width:1.0;stroke-dasharray:2.0,2.0;" x1="108" x2="317.5" y1="2079.4219" y2="2079.4219"/><text fill="#000000" font-family="sans-serif" font-size="20" lengthAdjust="spacing" textLength="76" x="120" y="2026.1426">Informs</text><text fill="#000000" font-family="sans-serif" font-size="20" lengthAdjust="spacing" textLength="77" x="120" y="2049.4238">success</text><text fill="#000000" font-family="sans-serif" font-size="20" lengthAdjust="spacing" textLength="6" x="197" y="2049.4238"> </text><text fill="#000000" font-family="sans-serif" font-size="20" lengthAdjust="spacing" textLength="20" x="203" y="2049.4238">or</text><text fill="#000000" font-family="sans-serif" font-size="20" lengthAdjust="spacing" textLength="64" x="120" y="2072.7051">failure</text><!--SRC=[jLTVJzim47_FfpZn15AHogIzv05fK25rqX2YwmVmaYjO975cEsNiqyyEJki_vnQOy0DAxto_-ztvxcpK4-zw9bdRYEe9QwXnmuP6tuXEh_XVX2_pej1SDmWh_3rWLo4iE7im1d0EwzN5V7vH56e2WOPtg5zw127re_0KBVlJebBi0PM5lVWwzvJAGTyngNd5UzPf6BeQfOKh2bPf8U7aUb1Qj2ZX1-iCZZm1fg1oGYShYjx3EBd71wuqoibqlHoDril3swvDz58qZVEHYaFpIRz2kUKL1ZPEHXi4E-ajzzWBnKtyBy7clJWq-zwpZ2MfEP8jbKr5g0fXhExrE5eqLUGb9P6cXZzDyQYRySHVURllT6SKNoXAia9O9DAYPfhzOWhXPE6-nesBgx46-PPfJ0ik4i3vfQcl4hwf9mLQW7H91ROpzT1C9O9PwoMS6xi8oe5iJF7pplnjcUQYWzDAj2Qk5-XOYpDWTIrDPyrsrb29siYnPRoPGVyeEeHkQ7-XdC66IwMTOSFSvrbHeyye5zAT55jUe_BPqB5S4ZrJMgQJU8hXbWxXEedWRCIsQ-UFQ4lmLghsURa2_3HIKu5JZ9pEfrD29T7OVmOLaiDORqao9Ef1TgcbLny7KOd8zkrLWc9RF9rYEC3OQqdAorvj7P63xRWlUXxwxiWTrkFYgeGUfJ9zJNW8l9ZH0T5QN8svpz3EdK1q2X5kXchc6DvmoiUpSyJVHqhgYATTSMN6opiy7UfEVrwumVSEPC_QB68WXZTdC7-iwdHgQgRKiv1rTcGddgChkQ3bbafo3PUxM-eMdp_4PaydlUDj3XAfvU6kzXAUkNwy5mt-NoAcbuBrvxx74qnzbxj1QZtvjz-4KP24m-T2D6Eiqaz4zBOOAq4Hm-iDe7vR4h29D3UaNj5o0se_c69Ahlx7PD63YA10vCl72OTD55L1W95LI-B5OCHP7cZ836XQrzaE2wT639JhrzmRS3a-jXIeeQhC8y3yPmKRqnc3nFZPvlsCNwd_0000]--></g></svg>