<?xml version="1.0" encoding="UTF-8" standalone="no"?><svg xmlns="http://www.w3.org/2000/svg" xmlns:xlink="http://www.w3.org/1999/xlink" contentStyleType="text/css" height="2296px" preserveAspectRatio="none" style="width:2281px;height:2296px;background:#FFFFFF;" version="1.1" viewBox="0 0 2281 2296" width="2281px" zoomAndPan="magnify"><defs/><g><text fill="#000000" font-family="sans-serif" font-size="14" font-weight="bold" lengthAdjust="spacing" textLength="481" x="897.75" y="27.9951">Sequence Diagram - US1007: Setting Up Recruitment Phases</text><rect fill="#FFFFFF" height="2055.0938" style="stroke:#181818;stroke-width:1.0;" width="10" x="133" y="135.5781"/><rect fill="#FFFFFF" height="168.6875" style="stroke:#181818;stroke-width:1.0;" width="10" x="389" y="234.7031"/><rect fill="#FFFFFF" height="1680.1563" style="stroke:#181818;stroke-width:1.0;" width="10" x="389" y="510.5156"/><rect fill="#FFFFFF" height="1971.25" style="stroke:#181818;stroke-width:1.0;" width="10" x="734" y="135.5781"/><rect fill="#FFFFFF" height="37.2813" style="stroke:#181818;stroke-width:1.0;" width="10" x="1253" y="1445.6406"/><rect fill="#FFFFFF" height="37.2813" style="stroke:#181818;stroke-width:1.0;" width="10" x="1253" y="1801.5781"/><rect fill="#FFFFFF" height="186.4063" style="stroke:#181818;stroke-width:1.0;" width="10" x="1566" y="1883.1406"/><rect fill="#FFFFFF" height="111.8438" style="stroke:#181818;stroke-width:1.0;" width="10" x="1911.5" y="1920.4219"/><rect fill="#FFFFFF" height="37.2813" style="stroke:#181818;stroke-width:1.0;" width="10" x="2217.5" y="1957.7031"/><rect fill="none" height="633.75" style="stroke:#000000;stroke-width:1.5;" width="562" x="10" y="525.5156"/><rect fill="none" height="586.1875" style="stroke:#000000;stroke-width:1.5;" width="542" x="20" y="566.0781"/><rect fill="none" height="201.25" style="stroke:#000000;stroke-width:1.5;" width="522" x="30" y="944.0156"/><rect fill="none" height="673.5938" style="stroke:#000000;stroke-width:1.5;" width="869" x="542" y="1173.2656"/><line style="stroke:#181818;stroke-width:0.5;stroke-dasharray:5.0,5.0;" x1="138" x2="138" y1="125.5781" y2="2208.6719"/><line style="stroke:#181818;stroke-width:0.5;stroke-dasharray:5.0,5.0;" x1="394" x2="394" y1="125.5781" y2="2208.6719"/><line style="stroke:#181818;stroke-width:0.5;stroke-dasharray:5.0,5.0;" x1="739" x2="739" y1="125.5781" y2="2208.6719"/><line style="stroke:#181818;stroke-width:0.5;stroke-dasharray:5.0,5.0;" x1="1258" x2="1258" y1="125.5781" y2="2208.6719"/><line style="stroke:#181818;stroke-width:0.5;stroke-dasharray:5.0,5.0;" x1="1571" x2="1571" y1="125.5781" y2="2208.6719"/><line style="stroke:#181818;stroke-width:0.5;stroke-dasharray:5.0,5.0;" x1="1916" x2="1916" y1="125.5781" y2="2208.6719"/><line style="stroke:#181818;stroke-width:0.5;stroke-dasharray:5.0,5.0;" x1="2222.5" x2="2222.5" y1="125.5781" y2="2208.6719"/><text fill="#000000" font-family="sans-serif" font-size="20" lengthAdjust="spacing" text-decoration="underline" textLength="190" x="40" y="120.8613">Customer Manager</text><ellipse cx="138" cy="50.7969" fill="#E2E2F0" rx="8" ry="8" style="stroke:#181818;stroke-width:0.5;"/><path d="M138,58.7969 L138,85.7969 M125,66.7969 L151,66.7969 M138,85.7969 L125,100.7969 M138,85.7969 L151,100.7969 " fill="none" style="stroke:#181818;stroke-width:0.5;"/><text fill="#000000" font-family="sans-serif" font-size="20" lengthAdjust="spacing" text-decoration="underline" textLength="190" x="40" y="2226.2363">Customer Manager</text><ellipse cx="138" cy="2239.4531" fill="#E2E2F0" rx="8" ry="8" style="stroke:#181818;stroke-width:0.5;"/><path d="M138,2247.4531 L138,2274.4531 M125,2255.4531 L151,2255.4531 M138,2274.4531 L125,2289.4531 M138,2274.4531 L151,2289.4531 " fill="none" style="stroke:#181818;stroke-width:0.5;"/><rect fill="#E2E2F0" height="37.2813" rx="2.5" ry="2.5" style="stroke:#181818;stroke-width:0.5;" width="296" x="246" y="87.2969"/><text fill="#000000" font-family="sans-serif" font-size="20" lengthAdjust="spacing" text-decoration="underline" textLength="282" x="253" y="112.8613">SetUpRecruitmentProcessUI</text><rect fill="#E2E2F0" height="37.2813" rx="2.5" ry="2.5" style="stroke:#181818;stroke-width:0.5;" width="296" x="246" y="2207.6719"/><text fill="#000000" font-family="sans-serif" font-size="20" lengthAdjust="spacing" text-decoration="underline" textLength="282" x="253" y="2233.2363">SetUpRecruitmentProcessUI</text><rect fill="#E2E2F0" height="37.2813" rx="2.5" ry="2.5" style="stroke:#181818;stroke-width:0.5;" width="374" x="552" y="87.2969"/><text fill="#000000" font-family="sans-serif" font-size="20" lengthAdjust="spacing" text-decoration="underline" textLength="360" x="559" y="112.8613">SetUpRecruitmentProcessController</text><rect fill="#E2E2F0" height="37.2813" rx="2.5" ry="2.5" style="stroke:#181818;stroke-width:0.5;" width="374" x="552" y="2207.6719"/><text fill="#000000" font-family="sans-serif" font-size="20" lengthAdjust="spacing" text-decoration="underline" textLength="360" x="559" y="2233.2363">SetUpRecruitmentProcessController</text><rect fill="#E2E2F0" height="37.2813" rx="2.5" ry="2.5" style="stroke:#181818;stroke-width:0.5;" width="286" x="1115" y="87.2969"/><text fill="#000000" font-family="sans-serif" font-size="20" lengthAdjust="spacing" text-decoration="underline" textLength="272" x="1122" y="112.8613">RecruitmentProcessBuilder</text><rect fill="#E2E2F0" height="37.2813" rx="2.5" ry="2.5" style="stroke:#181818;stroke-width:0.5;" width="286" x="1115" y="2207.6719"/><text fill="#000000" font-family="sans-serif" font-size="20" lengthAdjust="spacing" text-decoration="underline" textLength="272" x="1122" y="2233.2363">RecruitmentProcessBuilder</text><rect fill="#E2E2F0" height="37.2813" rx="2.5" ry="2.5" style="stroke:#181818;stroke-width:0.5;" width="320" x="1411" y="87.2969"/><text fill="#000000" font-family="sans-serif" font-size="20" lengthAdjust="spacing" text-decoration="underline" textLength="306" x="1418" y="112.8613">RecruitmentProcessRepository</text><rect fill="#E2E2F0" height="37.2813" rx="2.5" ry="2.5" style="stroke:#181818;stroke-width:0.5;" width="320" x="1411" y="2207.6719"/><text fill="#000000" font-family="sans-serif" font-size="20" lengthAdjust="spacing" text-decoration="underline" textLength="306" x="1418" y="2233.2363">RecruitmentProcessRepository</text><rect fill="#E2E2F0" height="37.2813" rx="2.5" ry="2.5" style="stroke:#181818;stroke-width:0.5;" width="351" x="1741" y="87.2969"/><text fill="#000000" font-family="sans-serif" font-size="20" lengthAdjust="spacing" text-decoration="underline" textLength="337" x="1748" y="112.8613">JpaRecruitmentProcessRepository</text><rect fill="#E2E2F0" height="37.2813" rx="2.5" ry="2.5" style="stroke:#181818;stroke-width:0.5;" width="351" x="1741" y="2207.6719"/><text fill="#000000" font-family="sans-serif" font-size="20" lengthAdjust="spacing" text-decoration="underline" textLength="337" x="1748" y="2233.2363">JpaRecruitmentProcessRepository</text><text fill="#000000" font-family="sans-serif" font-size="20" lengthAdjust="spacing" text-decoration="underline" textLength="94" x="2172.5" y="120.8613">Database</text><path d="M2204.5,66.2969 C2204.5,56.2969 2222.5,56.2969 2222.5,56.2969 C2222.5,56.2969 2240.5,56.2969 2240.5,66.2969 L2240.5,92.2969 C2240.5,102.2969 2222.5,102.2969 2222.5,102.2969 C2222.5,102.2969 2204.5,102.2969 2204.5,92.2969 L2204.5,66.2969 " fill="#E2E2F0" style="stroke:#181818;stroke-width:1.5;"/><path d="M2204.5,66.2969 C2204.5,76.2969 2222.5,76.2969 2222.5,76.2969 C2222.5,76.2969 2240.5,76.2969 2240.5,66.2969 " fill="none" style="stroke:#181818;stroke-width:1.5;"/><text fill="#000000" font-family="sans-serif" font-size="20" lengthAdjust="spacing" text-decoration="underline" textLength="94" x="2172.5" y="2226.2363">Database</text><path d="M2204.5,2240.9531 C2204.5,2230.9531 2222.5,2230.9531 2222.5,2230.9531 C2222.5,2230.9531 2240.5,2230.9531 2240.5,2240.9531 L2240.5,2266.9531 C2240.5,2276.9531 2222.5,2276.9531 2222.5,2276.9531 C2222.5,2276.9531 2204.5,2276.9531 2204.5,2266.9531 L2204.5,2240.9531 " fill="#E2E2F0" style="stroke:#181818;stroke-width:1.5;"/><path d="M2204.5,2240.9531 C2204.5,2250.9531 2222.5,2250.9531 2222.5,2250.9531 C2222.5,2250.9531 2240.5,2250.9531 2240.5,2240.9531 " fill="none" style="stroke:#181818;stroke-width:1.5;"/><rect fill="#FFFFFF" height="2055.0938" style="stroke:#181818;stroke-width:1.0;" width="10" x="133" y="135.5781"/><rect fill="#FFFFFF" height="168.6875" style="stroke:#181818;stroke-width:1.0;" width="10" x="389" y="234.7031"/><rect fill="#FFFFFF" height="1680.1563" style="stroke:#181818;stroke-width:1.0;" width="10" x="389" y="510.5156"/><rect fill="#FFFFFF" height="1971.25" style="stroke:#181818;stroke-width:1.0;" width="10" x="734" y="135.5781"/><rect fill="#FFFFFF" height="37.2813" style="stroke:#181818;stroke-width:1.0;" width="10" x="1253" y="1445.6406"/><rect fill="#FFFFFF" height="37.2813" style="stroke:#181818;stroke-width:1.0;" width="10" x="1253" y="1801.5781"/><rect fill="#FFFFFF" height="186.4063" style="stroke:#181818;stroke-width:1.0;" width="10" x="1566" y="1883.1406"/><rect fill="#FFFFFF" height="111.8438" style="stroke:#181818;stroke-width:1.0;" width="10" x="1911.5" y="1920.4219"/><rect fill="#FFFFFF" height="37.2813" style="stroke:#181818;stroke-width:1.0;" width="10" x="2217.5" y="1957.7031"/><polygon fill="#181818" points="377,230.7031,387,234.7031,377,238.7031,381,234.7031" style="stroke:#181818;stroke-width:1.0;"/><line style="stroke:#181818;stroke-width:1.0;" x1="143" x2="383" y1="234.7031" y2="234.7031"/><text fill="#000000" font-family="sans-serif" font-size="20" lengthAdjust="spacing" textLength="46" x="150" y="158.1426">Asks</text><text fill="#000000" font-family="sans-serif" font-size="20" lengthAdjust="spacing" textLength="6" x="196" y="158.1426"> </text><text fill="#000000" font-family="sans-serif" font-size="20" lengthAdjust="spacing" textLength="20" x="202" y="158.1426">to</text><text fill="#000000" font-family="sans-serif" font-size="20" lengthAdjust="spacing" textLength="6" x="222" y="158.1426"> </text><text fill="#000000" font-family="sans-serif" font-size="20" lengthAdjust="spacing" textLength="56" x="228" y="158.1426">setup</text><text fill="#000000" font-family="sans-serif" font-size="20" lengthAdjust="spacing" textLength="33" x="150" y="181.4238">the</text><text fill="#000000" font-family="sans-serif" font-size="20" lengthAdjust="spacing" textLength="6" x="183" y="181.4238"> </text><text fill="#000000" font-family="sans-serif" font-size="20" lengthAdjust="spacing" textLength="70" x="189" y="181.4238">phases</text><text fill="#000000" font-family="sans-serif" font-size="20" lengthAdjust="spacing" textLength="6" x="259" y="181.4238"> </text><text fill="#000000" font-family="sans-serif" font-size="20" lengthAdjust="spacing" textLength="19" x="265" y="181.4238">of</text><text fill="#000000" font-family="sans-serif" font-size="20" lengthAdjust="spacing" textLength="33" x="150" y="204.7051">the</text><text fill="#000000" font-family="sans-serif" font-size="20" lengthAdjust="spacing" textLength="6" x="183" y="204.7051"> </text><text fill="#000000" font-family="sans-serif" font-size="20" lengthAdjust="spacing" textLength="76" x="189" y="204.7051">process</text><text fill="#000000" font-family="sans-serif" font-size="20" lengthAdjust="spacing" textLength="6" x="265" y="204.7051"> </text><text fill="#000000" font-family="sans-serif" font-size="20" lengthAdjust="spacing" textLength="27" x="271" y="204.7051">for</text><text fill="#000000" font-family="sans-serif" font-size="20" lengthAdjust="spacing" textLength="12" x="150" y="227.9863">a</text><text fill="#000000" font-family="sans-serif" font-size="20" lengthAdjust="spacing" textLength="6" x="162" y="227.9863"> </text><text fill="#000000" font-family="sans-serif" font-size="20" lengthAdjust="spacing" textLength="31" x="168" y="227.9863">job</text><text fill="#000000" font-family="sans-serif" font-size="20" lengthAdjust="spacing" textLength="6" x="199" y="227.9863"> </text><text fill="#000000" font-family="sans-serif" font-size="20" lengthAdjust="spacing" textLength="82" x="205" y="227.9863">opening</text><rect fill="none" height="56.5625" style="stroke:#000000;stroke-width:1.5;" width="2238.5" x="37" y="242.7031"/><path d="M37,242.7031 L115,242.7031 L115,257.7031 L105,267.7031 L37,267.7031 L37,242.7031 " fill="#EEEEEE" style="stroke:#000000;stroke-width:2.0;"/><text fill="#000000" font-family="sans-serif" font-size="20" font-weight="bold" lengthAdjust="spacing" textLength="33" x="50" y="263.2676">ref</text><text fill="#000000" font-family="sans-serif" font-size="20" lengthAdjust="spacing" textLength="283" x="1014.75" y="290.2676">US1003 ➡️ List Job Openings</text><polygon fill="#181818" points="154,399.3906,144,403.3906,154,407.3906,150,403.3906" style="stroke:#181818;stroke-width:1.0;"/><line style="stroke:#181818;stroke-width:1.0;stroke-dasharray:2.0,2.0;" x1="148" x2="393" y1="403.3906" y2="403.3906"/><text fill="#000000" font-family="sans-serif" font-size="20" lengthAdjust="spacing" textLength="65" x="160" y="326.8301">Shows</text><text fill="#000000" font-family="sans-serif" font-size="20" lengthAdjust="spacing" textLength="6" x="225" y="326.8301"> </text><text fill="#000000" font-family="sans-serif" font-size="20" lengthAdjust="spacing" textLength="30" x="231" y="326.8301">list</text><text fill="#000000" font-family="sans-serif" font-size="20" lengthAdjust="spacing" textLength="6" x="261" y="326.8301"> </text><text fill="#000000" font-family="sans-serif" font-size="20" lengthAdjust="spacing" textLength="19" x="267" y="326.8301">of</text><text fill="#000000" font-family="sans-serif" font-size="20" lengthAdjust="spacing" textLength="31" x="160" y="350.1113">job</text><text fill="#000000" font-family="sans-serif" font-size="20" lengthAdjust="spacing" textLength="6" x="191" y="350.1113"> </text><text fill="#000000" font-family="sans-serif" font-size="20" lengthAdjust="spacing" textLength="92" x="197" y="350.1113">openings</text><text fill="#000000" font-family="sans-serif" font-size="20" lengthAdjust="spacing" textLength="38" x="160" y="373.3926">and</text><text fill="#000000" font-family="sans-serif" font-size="20" lengthAdjust="spacing" textLength="6" x="198" y="373.3926"> </text><text fill="#000000" font-family="sans-serif" font-size="20" lengthAdjust="spacing" textLength="44" x="204" y="373.3926">asks</text><text fill="#000000" font-family="sans-serif" font-size="20" lengthAdjust="spacing" textLength="6" x="248" y="373.3926"> </text><text fill="#000000" font-family="sans-serif" font-size="20" lengthAdjust="spacing" textLength="20" x="254" y="373.3926">to</text><text fill="#000000" font-family="sans-serif" font-size="20" lengthAdjust="spacing" textLength="59" x="160" y="396.6738">select</text><text fill="#000000" font-family="sans-serif" font-size="20" lengthAdjust="spacing" textLength="6" x="219" y="396.6738"> </text><text fill="#000000" font-family="sans-serif" font-size="20" lengthAdjust="spacing" textLength="37" x="225" y="396.6738">one</text><polygon fill="#181818" points="377,506.5156,387,510.5156,377,514.5156,381,510.5156" style="stroke:#181818;stroke-width:1.0;"/><line style="stroke:#181818;stroke-width:1.0;" x1="143" x2="383" y1="510.5156" y2="510.5156"/><text fill="#000000" font-family="sans-serif" font-size="20" lengthAdjust="spacing" textLength="72" x="150" y="433.9551">Selects</text><text fill="#000000" font-family="sans-serif" font-size="20" lengthAdjust="spacing" textLength="6" x="222" y="433.9551"> </text><text fill="#000000" font-family="sans-serif" font-size="20" lengthAdjust="spacing" textLength="31" x="228" y="433.9551">job</text><text fill="#000000" font-family="sans-serif" font-size="20" lengthAdjust="spacing" textLength="82" x="150" y="457.2363">opening</text><text fill="#000000" font-family="sans-serif" font-size="20" lengthAdjust="spacing" textLength="6" x="232" y="457.2363"> </text><text fill="#000000" font-family="sans-serif" font-size="20" lengthAdjust="spacing" textLength="20" x="238" y="457.2363">to</text><text fill="#000000" font-family="sans-serif" font-size="20" lengthAdjust="spacing" textLength="56" x="150" y="480.5176">setup</text><text fill="#000000" font-family="sans-serif" font-size="20" lengthAdjust="spacing" textLength="6" x="206" y="480.5176"> </text><text fill="#000000" font-family="sans-serif" font-size="20" lengthAdjust="spacing" textLength="33" x="212" y="480.5176">the</text><text fill="#000000" font-family="sans-serif" font-size="20" lengthAdjust="spacing" textLength="70" x="150" y="503.7988">phases</text><path d="M10,525.5156 L104,525.5156 L104,540.7969 L94,550.7969 L10,550.7969 L10,525.5156 " fill="#EEEEEE" style="stroke:#000000;stroke-width:1.5;"/><rect fill="none" height="633.75" style="stroke:#000000;stroke-width:1.5;" width="562" x="10" y="525.5156"/><text fill="#000000" font-family="sans-serif" font-size="20" font-weight="bold" lengthAdjust="spacing" textLength="49" x="25" y="545.0801">loop</text><text fill="#000000" font-family="sans-serif" font-size="20" font-weight="bold" lengthAdjust="spacing" textLength="187" x="119" y="546.0801">[for each phase]</text><path d="M20,566.0781 L96,566.0781 L96,581.3594 L86,591.3594 L20,591.3594 L20,566.0781 " fill="#EEEEEE" style="stroke:#000000;stroke-width:1.5;"/><rect fill="none" height="586.1875" style="stroke:#000000;stroke-width:1.5;" width="542" x="20" y="566.0781"/><text fill="#000000" font-family="sans-serif" font-size="20" font-weight="bold" lengthAdjust="spacing" textLength="31" x="35" y="585.6426">alt</text><text fill="#000000" font-family="sans-serif" font-size="20" font-weight="bold" lengthAdjust="spacing" textLength="267" x="111" y="586.6426">[phase is "Application"]</text><polygon fill="#181818" points="154,694.7656,144,698.7656,154,702.7656,150,698.7656" style="stroke:#181818;stroke-width:1.0;"/><line style="stroke:#181818;stroke-width:1.0;stroke-dasharray:2.0,2.0;" x1="148" x2="388" y1="698.7656" y2="698.7656"/><text fill="#000000" font-family="sans-serif" font-size="20" lengthAdjust="spacing" textLength="46" x="160" y="622.2051">Asks</text><text fill="#000000" font-family="sans-serif" font-size="20" lengthAdjust="spacing" textLength="6" x="206" y="622.2051"> </text><text fill="#000000" font-family="sans-serif" font-size="20" lengthAdjust="spacing" textLength="27" x="212" y="622.2051">for</text><text fill="#000000" font-family="sans-serif" font-size="20" lengthAdjust="spacing" textLength="117" x="160" y="645.4863">information</text><text fill="#000000" font-family="sans-serif" font-size="20" lengthAdjust="spacing" textLength="65" x="160" y="668.7676">(initial</text><text fill="#000000" font-family="sans-serif" font-size="20" lengthAdjust="spacing" textLength="6" x="225" y="668.7676"> </text><text fill="#000000" font-family="sans-serif" font-size="20" lengthAdjust="spacing" textLength="45" x="231" y="668.7676">date</text><text fill="#000000" font-family="sans-serif" font-size="20" lengthAdjust="spacing" textLength="38" x="160" y="692.0488">and</text><text fill="#000000" font-family="sans-serif" font-size="20" lengthAdjust="spacing" textLength="6" x="198" y="692.0488"> </text><text fill="#000000" font-family="sans-serif" font-size="20" lengthAdjust="spacing" textLength="44" x="204" y="692.0488">final</text><text fill="#000000" font-family="sans-serif" font-size="20" lengthAdjust="spacing" textLength="6" x="248" y="692.0488"> </text><text fill="#000000" font-family="sans-serif" font-size="20" lengthAdjust="spacing" textLength="53" x="254" y="692.0488">date)</text><polygon fill="#181818" points="377,755.3281,387,759.3281,377,763.3281,381,759.3281" style="stroke:#181818;stroke-width:1.0;"/><line style="stroke:#181818;stroke-width:1.0;" x1="143" x2="383" y1="759.3281" y2="759.3281"/><text fill="#000000" font-family="sans-serif" font-size="20" lengthAdjust="spacing" textLength="84" x="150" y="729.3301">Provides</text><text fill="#000000" font-family="sans-serif" font-size="20" lengthAdjust="spacing" textLength="117" x="150" y="752.6113">information</text><line style="stroke:#000000;stroke-width:1.0;stroke-dasharray:2.0,2.0;" x1="20" x2="562" y1="768.3281" y2="768.3281"/><text fill="#000000" font-family="sans-serif" font-size="20" font-weight="bold" lengthAdjust="spacing" textLength="246" x="25" y="786.8926">[phase is "Interview"]</text><polygon fill="#181818" points="154,887.7344,144,891.7344,154,895.7344,150,891.7344" style="stroke:#181818;stroke-width:1.0;"/><line style="stroke:#181818;stroke-width:1.0;stroke-dasharray:2.0,2.0;" x1="148" x2="388" y1="891.7344" y2="891.7344"/><text fill="#000000" font-family="sans-serif" font-size="20" lengthAdjust="spacing" textLength="46" x="160" y="815.1738">Asks</text><text fill="#000000" font-family="sans-serif" font-size="20" lengthAdjust="spacing" textLength="6" x="206" y="815.1738"> </text><text fill="#000000" font-family="sans-serif" font-size="20" lengthAdjust="spacing" textLength="13" x="212" y="815.1738">if</text><text fill="#000000" font-family="sans-serif" font-size="20" lengthAdjust="spacing" textLength="6" x="225" y="815.1738"> </text><text fill="#000000" font-family="sans-serif" font-size="20" lengthAdjust="spacing" textLength="33" x="231" y="815.1738">the</text><text fill="#000000" font-family="sans-serif" font-size="20" lengthAdjust="spacing" textLength="93" x="160" y="838.4551">interview</text><text fill="#000000" font-family="sans-serif" font-size="20" lengthAdjust="spacing" textLength="60" x="160" y="861.7363">phase</text><text fill="#000000" font-family="sans-serif" font-size="20" lengthAdjust="spacing" textLength="6" x="220" y="861.7363"> </text><text fill="#000000" font-family="sans-serif" font-size="20" lengthAdjust="spacing" textLength="16" x="226" y="861.7363">is</text><text fill="#000000" font-family="sans-serif" font-size="20" lengthAdjust="spacing" textLength="75" x="160" y="885.0176">needed</text><polygon fill="#181818" points="377,925.0156,387,929.0156,377,933.0156,381,929.0156" style="stroke:#181818;stroke-width:1.0;"/><line style="stroke:#181818;stroke-width:1.0;" x1="143" x2="383" y1="929.0156" y2="929.0156"/><text fill="#000000" font-family="sans-serif" font-size="20" lengthAdjust="spacing" textLength="97" x="150" y="922.2988">Responds</text><text fill="#000000" font-family="sans-serif" font-size="20" lengthAdjust="spacing" textLength="6" x="247" y="922.2988"> </text><text fill="#000000" font-family="sans-serif" font-size="20" lengthAdjust="spacing" textLength="47" x="253" y="922.2988">(y/n)</text><path d="M30,944.0156 L106,944.0156 L106,959.2969 L96,969.2969 L30,969.2969 L30,944.0156 " fill="#EEEEEE" style="stroke:#000000;stroke-width:1.5;"/><rect fill="none" height="201.25" style="stroke:#000000;stroke-width:1.5;" width="522" x="30" y="944.0156"/><text fill="#000000" font-family="sans-serif" font-size="20" font-weight="bold" lengthAdjust="spacing" textLength="31" x="45" y="963.5801">alt</text><text fill="#000000" font-family="sans-serif" font-size="20" font-weight="bold" lengthAdjust="spacing" textLength="188" x="121" y="964.5801">[response is "y"]</text><polygon fill="#181818" points="154,1072.7031,144,1076.7031,154,1080.7031,150,1076.7031" style="stroke:#181818;stroke-width:1.0;"/><line style="stroke:#181818;stroke-width:1.0;stroke-dasharray:2.0,2.0;" x1="148" x2="388" y1="1076.7031" y2="1076.7031"/><text fill="#000000" font-family="sans-serif" font-size="20" lengthAdjust="spacing" textLength="46" x="160" y="1000.1426">Asks</text><text fill="#000000" font-family="sans-serif" font-size="20" lengthAdjust="spacing" textLength="6" x="206" y="1000.1426"> </text><text fill="#000000" font-family="sans-serif" font-size="20" lengthAdjust="spacing" textLength="27" x="212" y="1000.1426">for</text><text fill="#000000" font-family="sans-serif" font-size="20" lengthAdjust="spacing" textLength="117" x="160" y="1023.4238">information</text><text fill="#000000" font-family="sans-serif" font-size="20" lengthAdjust="spacing" textLength="65" x="160" y="1046.7051">(initial</text><text fill="#000000" font-family="sans-serif" font-size="20" lengthAdjust="spacing" textLength="6" x="225" y="1046.7051"> </text><text fill="#000000" font-family="sans-serif" font-size="20" lengthAdjust="spacing" textLength="45" x="231" y="1046.7051">date</text><text fill="#000000" font-family="sans-serif" font-size="20" lengthAdjust="spacing" textLength="38" x="160" y="1069.9863">and</text><text fill="#000000" font-family="sans-serif" font-size="20" lengthAdjust="spacing" textLength="6" x="198" y="1069.9863"> </text><text fill="#000000" font-family="sans-serif" font-size="20" lengthAdjust="spacing" textLength="44" x="204" y="1069.9863">final</text><text fill="#000000" font-family="sans-serif" font-size="20" lengthAdjust="spacing" textLength="6" x="248" y="1069.9863"> </text><text fill="#000000" font-family="sans-serif" font-size="20" lengthAdjust="spacing" textLength="53" x="254" y="1069.9863">date)</text><polygon fill="#181818" points="377,1133.2656,387,1137.2656,377,1141.2656,381,1137.2656" style="stroke:#181818;stroke-width:1.0;"/><line style="stroke:#181818;stroke-width:1.0;" x1="143" x2="383" y1="1137.2656" y2="1137.2656"/><text fill="#000000" font-family="sans-serif" font-size="20" lengthAdjust="spacing" textLength="84" x="150" y="1107.2676">Provides</text><text fill="#000000" font-family="sans-serif" font-size="20" lengthAdjust="spacing" textLength="117" x="150" y="1130.5488">information</text><path d="M542,1173.2656 L618,1173.2656 L618,1188.5469 L608,1198.5469 L542,1198.5469 L542,1173.2656 " fill="#EEEEEE" style="stroke:#000000;stroke-width:1.5;"/><rect fill="none" height="673.5938" style="stroke:#000000;stroke-width:1.5;" width="869" x="542" y="1173.2656"/><text fill="#000000" font-family="sans-serif" font-size="20" font-weight="bold" lengthAdjust="spacing" textLength="31" x="557" y="1192.8301">alt</text><text fill="#000000" font-family="sans-serif" font-size="20" font-weight="bold" lengthAdjust="spacing" textLength="291" x="633" y="1193.8301">[all phases were created]</text><polygon fill="#181818" points="1241,1441.6406,1251,1445.6406,1241,1449.6406,1245,1445.6406" style="stroke:#181818;stroke-width:1.0;"/><line style="stroke:#181818;stroke-width:1.0;" x1="744" x2="1247" y1="1445.6406" y2="1445.6406"/><text fill="#000000" font-family="sans-serif" font-size="20" lengthAdjust="spacing" textLength="490" x="751" y="1229.3926">setUpRecruitmentProcess(ApplicationInitialDate,</text><text fill="#000000" font-family="sans-serif" font-size="20" lengthAdjust="spacing" textLength="216" x="751" y="1252.6738">ApplicationFinalDate,</text><text fill="#000000" font-family="sans-serif" font-size="20" lengthAdjust="spacing" textLength="211" x="751" y="1275.9551">ScreeningInitialDate,</text><text fill="#000000" font-family="sans-serif" font-size="20" lengthAdjust="spacing" textLength="203" x="751" y="1299.2363">ScreeningFinalDate,</text><text fill="#000000" font-family="sans-serif" font-size="20" lengthAdjust="spacing" textLength="203" x="751" y="1322.5176">InterviewInitialDate,</text><text fill="#000000" font-family="sans-serif" font-size="20" lengthAdjust="spacing" textLength="195" x="751" y="1345.7988">InterviewFinalDate,</text><text fill="#000000" font-family="sans-serif" font-size="20" lengthAdjust="spacing" textLength="192" x="751" y="1369.0801">AnalysisInitialDate,</text><text fill="#000000" font-family="sans-serif" font-size="20" lengthAdjust="spacing" textLength="184" x="751" y="1392.3613">AnalysisFinalDate,</text><text fill="#000000" font-family="sans-serif" font-size="20" lengthAdjust="spacing" textLength="173" x="751" y="1415.6426">ResultInitialDate,</text><text fill="#000000" font-family="sans-serif" font-size="20" lengthAdjust="spacing" textLength="167" x="751" y="1438.9238">ResultFinalDate)</text><polygon fill="#181818" points="755,1478.9219,745,1482.9219,755,1486.9219,751,1482.9219" style="stroke:#181818;stroke-width:1.0;"/><line style="stroke:#181818;stroke-width:1.0;stroke-dasharray:2.0,2.0;" x1="749" x2="1257" y1="1482.9219" y2="1482.9219"/><text fill="#000000" font-family="sans-serif" font-size="20" lengthAdjust="spacing" textLength="194" x="761" y="1476.2051">recruitmentProcess</text><line style="stroke:#000000;stroke-width:1.0;stroke-dasharray:2.0,2.0;" x1="542" x2="1411" y1="1491.9219" y2="1491.9219"/><text fill="#000000" font-family="sans-serif" font-size="20" font-weight="bold" lengthAdjust="spacing" textLength="411" x="547" y="1510.4863">["Interview" phase was not created]</text><polygon fill="#181818" points="1241,1797.5781,1251,1801.5781,1241,1805.5781,1245,1801.5781" style="stroke:#181818;stroke-width:1.0;"/><line style="stroke:#181818;stroke-width:1.0;" x1="744" x2="1247" y1="1801.5781" y2="1801.5781"/><text fill="#000000" font-family="sans-serif" font-size="20" lengthAdjust="spacing" textLength="360" x="751" y="1538.7676">SetUpRecruitmentProcessController</text><text fill="#000000" font-family="sans-serif" font-size="20" lengthAdjust="spacing" textLength="24" x="751" y="1562.0488">-&gt;</text><text fill="#000000" font-family="sans-serif" font-size="20" lengthAdjust="spacing" textLength="274" x="751" y="1585.3301">RecruitmentProcessFactory</text><text fill="#000000" font-family="sans-serif" font-size="20" lengthAdjust="spacing" textLength="7" x="751" y="1608.6113">:</text><text fill="#000000" font-family="sans-serif" font-size="20" lengthAdjust="spacing" textLength="490" x="751" y="1631.8926">setUpRecruitmentProcess(ApplicationInitialDate,</text><text fill="#000000" font-family="sans-serif" font-size="20" lengthAdjust="spacing" textLength="216" x="751" y="1655.1738">ApplicationFinalDate,</text><text fill="#000000" font-family="sans-serif" font-size="20" lengthAdjust="spacing" textLength="211" x="751" y="1678.4551">ScreeningInitialDate,</text><text fill="#000000" font-family="sans-serif" font-size="20" lengthAdjust="spacing" textLength="203" x="751" y="1701.7363">ScreeningFinalDate,</text><text fill="#000000" font-family="sans-serif" font-size="20" lengthAdjust="spacing" textLength="192" x="751" y="1725.0176">AnalysisInitialDate,</text><text fill="#000000" font-family="sans-serif" font-size="20" lengthAdjust="spacing" textLength="184" x="751" y="1748.2988">AnalysisFinalDate,</text><text fill="#000000" font-family="sans-serif" font-size="20" lengthAdjust="spacing" textLength="173" x="751" y="1771.5801">ResultInitialDate,</text><text fill="#000000" font-family="sans-serif" font-size="20" lengthAdjust="spacing" textLength="167" x="751" y="1794.8613">ResultFinalDate)</text><polygon fill="#181818" points="755,1834.8594,745,1838.8594,755,1842.8594,751,1838.8594" style="stroke:#181818;stroke-width:1.0;"/><line style="stroke:#181818;stroke-width:1.0;stroke-dasharray:2.0,2.0;" x1="749" x2="1257" y1="1838.8594" y2="1838.8594"/><text fill="#000000" font-family="sans-serif" font-size="20" lengthAdjust="spacing" textLength="194" x="761" y="1832.1426">recruitmentProcess</text><polygon fill="#181818" points="1554,1879.1406,1564,1883.1406,1554,1887.1406,1558,1883.1406" style="stroke:#181818;stroke-width:1.0;"/><line style="stroke:#181818;stroke-width:1.0;" x1="744" x2="1560" y1="1883.1406" y2="1883.1406"/><text fill="#000000" font-family="sans-serif" font-size="20" lengthAdjust="spacing" textLength="255" x="751" y="1876.4238">save(recruitmentProcess)</text><polygon fill="#181818" points="1899.5,1916.4219,1909.5,1920.4219,1899.5,1924.4219,1903.5,1920.4219" style="stroke:#181818;stroke-width:1.0;"/><line style="stroke:#181818;stroke-width:1.0;" x1="1576" x2="1905.5" y1="1920.4219" y2="1920.4219"/><text fill="#000000" font-family="sans-serif" font-size="20" lengthAdjust="spacing" textLength="255" x="1583" y="1913.7051">save(recruitmentProcess)</text><polygon fill="#181818" points="2205.5,1953.7031,2215.5,1957.7031,2205.5,1961.7031,2209.5,1957.7031" style="stroke:#181818;stroke-width:1.0;"/><line style="stroke:#181818;stroke-width:1.0;" x1="1921.5" x2="2211.5" y1="1957.7031" y2="1957.7031"/><text fill="#000000" font-family="sans-serif" font-size="20" lengthAdjust="spacing" textLength="277" x="1928.5" y="1950.9863">persist(recruitmentProcess)</text><polygon fill="#181818" points="1932.5,1990.9844,1922.5,1994.9844,1932.5,1998.9844,1928.5,1994.9844" style="stroke:#181818;stroke-width:1.0;"/><line style="stroke:#181818;stroke-width:1.0;stroke-dasharray:2.0,2.0;" x1="1926.5" x2="2221.5" y1="1994.9844" y2="1994.9844"/><text fill="#000000" font-family="sans-serif" font-size="20" lengthAdjust="spacing" textLength="194" x="1938.5" y="1988.2676">recruitmentProcess</text><polygon fill="#181818" points="1587,2028.2656,1577,2032.2656,1587,2036.2656,1583,2032.2656" style="stroke:#181818;stroke-width:1.0;"/><line style="stroke:#181818;stroke-width:1.0;stroke-dasharray:2.0,2.0;" x1="1581" x2="1915.5" y1="2032.2656" y2="2032.2656"/><text fill="#000000" font-family="sans-serif" font-size="20" lengthAdjust="spacing" textLength="194" x="1593" y="2025.5488">recruitmentProcess</text><polygon fill="#181818" points="755,2065.5469,745,2069.5469,755,2073.5469,751,2069.5469" style="stroke:#181818;stroke-width:1.0;"/><line style="stroke:#181818;stroke-width:1.0;stroke-dasharray:2.0,2.0;" x1="749" x2="1570" y1="2069.5469" y2="2069.5469"/><text fill="#000000" font-family="sans-serif" font-size="20" lengthAdjust="spacing" textLength="194" x="761" y="2062.8301">recruitmentProcess</text><polygon fill="#181818" points="410,2102.8281,400,2106.8281,410,2110.8281,406,2106.8281" style="stroke:#181818;stroke-width:1.0;"/><line style="stroke:#181818;stroke-width:1.0;stroke-dasharray:2.0,2.0;" x1="404" x2="738" y1="2106.8281" y2="2106.8281"/><text fill="#000000" font-family="sans-serif" font-size="20" lengthAdjust="spacing" textLength="194" x="416" y="2100.1113">recruitmentProcess</text><polygon fill="#181818" points="149,2186.6719,139,2190.6719,149,2194.6719,145,2190.6719" style="stroke:#181818;stroke-width:1.0;"/><line style="stroke:#181818;stroke-width:1.0;stroke-dasharray:2.0,2.0;" x1="143" x2="393" y1="2190.6719" y2="2190.6719"/><text fill="#000000" font-family="sans-serif" font-size="20" lengthAdjust="spacing" textLength="76" x="155" y="2137.3926">Informs</text><text fill="#000000" font-family="sans-serif" font-size="20" lengthAdjust="spacing" textLength="77" x="155" y="2160.6738">success</text><text fill="#000000" font-family="sans-serif" font-size="20" lengthAdjust="spacing" textLength="6" x="232" y="2160.6738"> </text><text fill="#000000" font-family="sans-serif" font-size="20" lengthAdjust="spacing" textLength="20" x="238" y="2160.6738">or</text><text fill="#000000" font-family="sans-serif" font-size="20" lengthAdjust="spacing" textLength="64" x="155" y="2183.9551">failure</text><!--SRC=[rLTTZjCm47xFAKPzwagiw88GqZuWxOzMwWh4QgiUm9jCjsPTszXEIxa4Dq3Y5fo72t059awQEcbITraXe0zLOyzyyytCPsTg7xZKpB25KEa3Pf3XZEN2NIdf9lmpmejHaZZk1C84F-OeKuHBpkx90OvXEZaPZLwVqfPpNDx3LCCjfYRdRe7ImSsSMRH9OZSnG729RgqHb75p5MmisAS5MilkqHPHJrwDWarRHRvXnl6KQqROkSpG5719mbAd30mkSklK0WsyOv9mp02OXRHQhDQIH0SO0-8zrG7Z6wDIOZ4TUz_f-23h2ogLKK9K4QDMJT1To_ESYwm2szszyjckOo2tg9NbXMKFpjQW2NMjMHGjOfDapB4xQZqCBgjVtktotFUABvd3dSO0VLfhSFo6UW2dS6OVB3X5Ed2v1ZT7q5vPe6RbKya0PYG31X_K7IYDaWJfKUkGr4-eFWPde9OKeXNo6P6aW5xNB-77rsy_lt-1jzmwk2RKzoMghM68tJ6HRFEc0p5NAqjg9qVY632om6H6nTWa930b4r9n0PTX5zU-gaoyimtHkuhKMmEXbFObewZpqhZUypx2bQl0BGpEj1OyPOuhEMYOxQs3xrmHWqlwNdXt67B97MS2ie9HKOyPbzNZqGvsN_eakoNFI0G1TCCPXSKWWR5qQ9OSLu-bpqkHyOt_5bCYPfWTpFWMhLOoip1SFvUxYHRrDjwaOhpUPVgdY_saWlkYosOzmkVmTv4i4s9pa5Tew4emIAIQ_hLmuzTgw1QrBhBglLmfMTiDC0oEmRWiB5rn-0o2zQkYlkNgX5Bo1xDXMwy6bhKw6vRrQc1vHh_Mbjjc-6eni2ErqNkyOLKkrJP7tPNkV-UqczrVm4AWyHwSajxRsuqWmOKOP-NFUt3CgtEweZUFLAvJNK-MoN-dix-ddiBgNrTGS47zPcUtKr3HNBR4uIx1RUNsS0l6gVq52o8IeyXeTWYf1h7OgDTkQ2m-KVGJbaP3WdDH8WqoD41slR08yFYWr6DYQGcc8rmqlRWe7g7OnnG_Ikk9XsdlGUhWTC3vsGmMFL63Y8Uz_7i7ex4VM2pOFFN_4sX4cZ4kSjCrTWTFxVyelm00]--></g></svg>