<?xml version="1.0" encoding="UTF-8" standalone="no"?><svg xmlns="http://www.w3.org/2000/svg" xmlns:xlink="http://www.w3.org/1999/xlink" contentStyleType="text/css" height="1756px" preserveAspectRatio="none" style="width:1100px;height:1756px;background:#FFFFFF;" version="1.1" viewBox="0 0 1100 1756" width="1100px" zoomAndPan="magnify"><defs/><g><!--cluster System--><g id="cluster_System"><rect fill="none" height="866" rx="2.5" ry="2.5" style="stroke:#181818;stroke-width:1.0;" width="817" x="277" y="884.2168"/><text fill="#000000" font-family="sans-serif" font-size="20" font-weight="bold" lengthAdjust="spacing" textLength="84" x="643.5" y="904.7813">System</text></g><!--cluster Backoffice--><g id="cluster_Backoffice"><rect fill="none" height="433" rx="2.5" ry="2.5" style="stroke:#181818;stroke-width:1.0;" width="436" x="467.5" y="427.2168"/><text fill="#000000" font-family="sans-serif" font-size="20" font-weight="bold" lengthAdjust="spacing" textLength="119" x="626" y="447.7813">Backoffice</text></g><!--cluster Candidate App--><g id="cluster_Candidate App"><rect fill="none" height="112" rx="2.5" ry="2.5" style="stroke:#181818;stroke-width:1.0;" width="279" x="546" y="291.2168"/><text fill="#000000" font-family="sans-serif" font-size="20" font-weight="bold" lengthAdjust="spacing" textLength="166" x="602.5" y="311.7813">Candidate App</text></g><!--cluster Applications File Bot--><g id="cluster_Applications File Bot"><rect fill="none" height="122" rx="2.5" ry="2.5" style="stroke:#181818;stroke-width:1.0;" width="325" x="523" y="145.2168"/><text fill="#000000" font-family="sans-serif" font-size="20" font-weight="bold" lengthAdjust="spacing" textLength="235" x="568" y="165.7813">Applications File Bot</text></g><!--cluster Customer App--><g id="cluster_Customer App"><rect fill="none" height="114" rx="2.5" ry="2.5" style="stroke:#181818;stroke-width:1.0;" width="286" x="542.5" y="7.2168"/><text fill="#000000" font-family="sans-serif" font-size="20" font-weight="bold" lengthAdjust="spacing" textLength="160" x="605.5" y="27.7813">Customer App</text></g><g id="elem_G001"><ellipse cx="685.4949" cy="991.4158" fill="#F1F1F1" rx="313.9949" ry="65.199" style="stroke:#181818;stroke-width:0.5;"/><text fill="#000000" font-family="sans-serif" font-size="20" lengthAdjust="spacing" textLength="599" x="385.9949" y="996.3396">Follow the technical constraints and concerns of the project</text></g><g id="elem_G002"><ellipse cx="685.3746" cy="1172.0917" fill="#F1F1F1" rx="392.3746" ry="80.8749" style="stroke:#181818;stroke-width:0.5;"/><text fill="#000000" font-family="sans-serif" font-size="20" lengthAdjust="spacing" textLength="758" x="306.3746" y="1177.0156">Use the defined project repository and setup a tool for project management</text></g><g id="elem_G003"><ellipse cx="685.3343" cy="1325.9837" fill="#F1F1F1" rx="174.3343" ry="37.2669" style="stroke:#181818;stroke-width:0.5;"/><text fill="#000000" font-family="sans-serif" font-size="20" lengthAdjust="spacing" textLength="310" x="528.0075" y="1332.1948">Configure the project structure</text></g><g id="elem_G004"><ellipse cx="685.5009" cy="1442.417" fill="#F1F1F1" rx="206.5009" ry="43.7002" style="stroke:#181818;stroke-width:0.5;"/><text fill="#000000" font-family="sans-serif" font-size="20" lengthAdjust="spacing" textLength="378" x="496.5009" y="1447.3408">Setup a continuous integration server</text></g><g id="elem_G005"><ellipse cx="685.6214" cy="1566.2411" fill="#F1F1F1" rx="215.6214" ry="45.5243" style="stroke:#181818;stroke-width:0.5;"/><text fill="#000000" font-family="sans-serif" font-size="20" lengthAdjust="spacing" textLength="397" x="487.1214" y="1571.1649">Add the necessary scripts to the project</text></g><g id="elem_G006"><ellipse cx="685.5428" cy="1690.2254" fill="#F1F1F1" rx="205.5428" ry="43.5086" style="stroke:#181818;stroke-width:0.5;"/><text fill="#000000" font-family="sans-serif" font-size="20" lengthAdjust="spacing" textLength="376" x="497.5428" y="1695.1492">Elaborate a Domain Model using DDD</text></g><g id="elem_UC1"><ellipse cx="685.693" cy="512.0554" fill="#F1F1F1" rx="202.193" ry="42.8386" style="stroke:#181818;stroke-width:0.5;"/><text fill="#000000" font-family="sans-serif" font-size="20" lengthAdjust="spacing" textLength="369" x="501.193" y="516.9792">Manage Customers and its Managers</text></g><g id="elem_UC2"><ellipse cx="685.326" cy="809.282" fill="#F1F1F1" rx="163.326" ry="35.0652" style="stroke:#181818;stroke-width:0.5;"/><text fill="#000000" font-family="sans-serif" font-size="20" lengthAdjust="spacing" textLength="286" x="539.326" y="815.8142">Deploy and Configure Plugin</text></g><g id="elem_UC3"><ellipse cx="685.7282" cy="618.4624" fill="#F1F1F1" rx="126.7282" ry="27.7456" style="stroke:#181818;stroke-width:0.5;"/><text fill="#000000" font-family="sans-serif" font-size="20" lengthAdjust="spacing" textLength="203" x="581.2282" y="624.9947">Register Application</text></g><g id="elem_UC4"><ellipse cx="685.6246" cy="710.2417" fill="#F1F1F1" rx="133.1246" ry="29.0249" style="stroke:#181818;stroke-width:0.5;"/><text fill="#000000" font-family="sans-serif" font-size="20" lengthAdjust="spacing" textLength="218" x="573.6246" y="716.7739">Manage Job Openings</text></g><g id="elem_UC5"><ellipse cx="685.3689" cy="360.2906" fill="#F1F1F1" rx="123.3689" ry="27.0738" style="stroke:#181818;stroke-width:0.5;"/><text fill="#000000" font-family="sans-serif" font-size="20" lengthAdjust="spacing" textLength="195" x="584.8689" y="366.8228">Follow Applications</text></g><g id="elem_UC6"><ellipse cx="685.6825" cy="219.4533" fill="#F1F1F1" rx="146.6825" ry="31.7365" style="stroke:#181818;stroke-width:0.5;"/><text fill="#000000" font-family="sans-serif" font-size="20" lengthAdjust="spacing" textLength="249" x="558.1825" y="225.9855">Import Applications Files</text></g><g id="elem_UC7"><ellipse cx="685.6508" cy="77.047" fill="#F1F1F1" rx="127.1508" ry="27.8302" style="stroke:#181818;stroke-width:0.5;"/><text fill="#000000" font-family="sans-serif" font-size="20" lengthAdjust="spacing" textLength="204" x="580.6508" y="83.5792">Follow Job Openings</text></g><!--entity PM--><g id="elem_PM"><ellipse cx="119.5" cy="1351.2168" fill="#FFFFFF" rx="8" ry="8" style="stroke:#000000;stroke-width:2.0;"/><path d="M119.5,1359.2168 L119.5,1386.2168 M106.5,1367.2168 L132.5,1367.2168 M119.5,1386.2168 L106.5,1401.2168 M119.5,1386.2168 L132.5,1401.2168 " fill="none" style="stroke:#000000;stroke-width:2.0;"/><text fill="#000000" font-family="sans-serif" font-size="20" lengthAdjust="spacing" textLength="162" x="38.5" y="1422.7813">Project Manager</text></g><!--entity AD--><g id="elem_AD"><ellipse cx="119.5" cy="456.2168" fill="#FFFFFF" rx="8" ry="8" style="stroke:#FF0000;stroke-width:2.0;"/><path d="M119.5,464.2168 L119.5,491.2168 M106.5,472.2168 L132.5,472.2168 M119.5,491.2168 L106.5,506.2168 M119.5,491.2168 L132.5,506.2168 " fill="none" style="stroke:#FF0000;stroke-width:2.0;"/><text fill="#000000" font-family="sans-serif" font-size="20" lengthAdjust="spacing" textLength="66" x="86.5" y="527.7813">Admin</text></g><!--entity OP--><g id="elem_OP"><ellipse cx="119.5" cy="577.2168" fill="#FFFFFF" rx="8" ry="8" style="stroke:#0000FF;stroke-width:2.0;"/><path d="M119.5,585.2168 L119.5,612.2168 M106.5,593.2168 L132.5,593.2168 M119.5,612.2168 L106.5,627.2168 M119.5,612.2168 L132.5,627.2168 " fill="none" style="stroke:#0000FF;stroke-width:2.0;"/><text fill="#000000" font-family="sans-serif" font-size="20" lengthAdjust="spacing" textLength="89" x="75" y="648.7813">Operator</text></g><!--entity CM--><g id="elem_CM"><ellipse cx="119.5" cy="698.2168" fill="#FFFFFF" rx="8" ry="8" style="stroke:#008000;stroke-width:2.0;"/><path d="M119.5,706.2168 L119.5,733.2168 M106.5,714.2168 L132.5,714.2168 M119.5,733.2168 L106.5,748.2168 M119.5,733.2168 L132.5,748.2168 " fill="none" style="stroke:#008000;stroke-width:2.0;"/><text fill="#000000" font-family="sans-serif" font-size="20" lengthAdjust="spacing" textLength="190" x="24.5" y="769.7813">Customer Manager</text></g><!--entity LE--><g id="elem_LE"><ellipse cx="119.5" cy="819.2168" fill="#FFFFFF" rx="8" ry="8" style="stroke:#800080;stroke-width:2.0;"/><path d="M119.5,827.2168 L119.5,854.2168 M106.5,835.2168 L132.5,835.2168 M119.5,854.2168 L106.5,869.2168 M119.5,854.2168 L132.5,869.2168 " fill="none" style="stroke:#800080;stroke-width:2.0;"/><text fill="#000000" font-family="sans-serif" font-size="20" lengthAdjust="spacing" textLength="195" x="22" y="890.7813">Language Engineer</text></g><!--entity CA--><g id="elem_CA"><ellipse cx="119.5" cy="327.2168" fill="#FFFFFF" rx="8" ry="8" style="stroke:#FFA500;stroke-width:2.0;"/><path d="M119.5,335.2168 L119.5,362.2168 M106.5,343.2168 L132.5,343.2168 M119.5,362.2168 L106.5,377.2168 M119.5,362.2168 L132.5,377.2168 " fill="none" style="stroke:#FFA500;stroke-width:2.0;"/><text fill="#000000" font-family="sans-serif" font-size="20" lengthAdjust="spacing" textLength="103" x="68" y="398.7813">Candidate</text></g><!--entity EB--><g id="elem_EB"><ellipse cx="119.5" cy="186.2168" fill="#FFFFFF" rx="8" ry="8" style="stroke:#A52A2A;stroke-width:2.0;"/><path d="M119.5,194.2168 L119.5,221.2168 M106.5,202.2168 L132.5,202.2168 M119.5,221.2168 L106.5,236.2168 M119.5,221.2168 L132.5,236.2168 " fill="none" style="stroke:#A52A2A;stroke-width:2.0;"/><text fill="#000000" font-family="sans-serif" font-size="20" lengthAdjust="spacing" textLength="227" x="6" y="257.7813">Applications Email Bot</text></g><!--entity CU--><g id="elem_CU"><ellipse cx="119.5" cy="44.2168" fill="#FFFFFF" rx="8" ry="8" style="stroke:#9ACD32;stroke-width:2.0;"/><path d="M119.5,52.2168 L119.5,79.2168 M106.5,60.2168 L132.5,60.2168 M119.5,79.2168 L106.5,94.2168 M119.5,79.2168 L132.5,94.2168 " fill="none" style="stroke:#9ACD32;stroke-width:2.0;"/><text fill="#000000" font-family="sans-serif" font-size="20" lengthAdjust="spacing" textLength="97" x="71" y="115.7813">Customer</text></g><!--link PM to G001--><g id="link_PM_G001"><path d="M128.44,1340.9868 C143.3,1272.9768 182.06,1141.7768 269,1074.2168 C303.4,1047.4868 344.11,1028.6868 386.38,1015.5668 " fill="none" id="PM-to-G001" style="stroke:#181818;stroke-width:1.0;"/><polygon fill="#181818" points="391.28,1014.0768,381.5051,1012.8717,386.4968,1015.5332,383.8353,1020.5248,391.28,1014.0768" style="stroke:#181818;stroke-width:1.0;"/></g><!--link PM to G002--><g id="link_PM_G002"><path d="M166.64,1341.0268 C194.4,1317.2068 231.52,1288.9568 269,1271.2168 C305.79,1253.7968 345.91,1239.2968 386.23,1227.2668 " fill="none" id="PM-to-G002" style="stroke:#181818;stroke-width:1.0;"/><polygon fill="#181818" points="391.15,1225.8068,381.3864,1224.5136,386.3539,1227.2199,383.6475,1232.1874,391.15,1225.8068" style="stroke:#181818;stroke-width:1.0;"/></g><!--link PM to G003--><g id="link_PM_G003"><path d="M200.71,1375.9668 C284.23,1367.3768 417.35,1353.6868 522.83,1342.8468 " fill="none" id="PM-to-G003" style="stroke:#181818;stroke-width:1.0;"/><polygon fill="#181818" points="527.83,1342.3268,518.4662,1339.2741,522.8565,1342.8413,519.2894,1347.2317,527.83,1342.3268" style="stroke:#181818;stroke-width:1.0;"/></g><!--link PM to G004--><g id="link_PM_G004"><path d="M200.71,1392.4668 C276.9,1400.2968 394.35,1412.3768 494.45,1422.6768 " fill="none" id="PM-to-G004" style="stroke:#181818;stroke-width:1.0;"/><polygon fill="#181818" points="499.51,1423.1968,490.9679,1418.2944,494.5364,1422.6838,490.1471,1426.2522,499.51,1423.1968" style="stroke:#181818;stroke-width:1.0;"/></g><!--link PM to G005--><g id="link_PM_G005"><path d="M161.91,1427.4268 C189.67,1453.6768 228.45,1485.4468 269,1503.2168 C331.44,1530.5768 403.66,1546.3568 470.19,1555.3668 " fill="none" id="PM-to-G005" style="stroke:#181818;stroke-width:1.0;"/><polygon fill="#181818" points="475.38,1556.0568,466.9837,1550.9088,470.4234,1555.3997,465.9324,1558.8394,475.38,1556.0568" style="stroke:#181818;stroke-width:1.0;"/></g><!--link PM to G006--><g id="link_PM_G006"><path d="M133.74,1427.3468 C153.47,1483.7168 196.26,1580.9568 269,1629.2168 C329.44,1669.3168 405.66,1687.4668 476.26,1694.6668 " fill="none" id="PM-to-G006" style="stroke:#181818;stroke-width:1.0;"/><polygon fill="#181818" points="481.33,1695.1668,472.7755,1690.2862,476.3551,1694.6664,471.9749,1698.2461,481.33,1695.1668" style="stroke:#181818;stroke-width:1.0;"/></g><!--link AD to UC1--><g id="link_AD_UC1"><path d="M152.85,490.5368 C215.88,493.1068 359.66,498.9668 481.82,503.9468 " fill="none" id="AD-to-UC1" style="stroke:#181818;stroke-width:1.0;"/><polygon fill="#181818" points="486.89,504.1568,478.0571,499.8003,481.894,503.957,477.7373,507.7939,486.89,504.1568" style="stroke:#181818;stroke-width:1.0;"/></g><!--link LE to UC2--><g id="link_LE_UC2"><path d="M217.13,844.8468 C301.95,838.3868 426.94,828.8568 526.32,821.2768 " fill="none" id="LE-to-UC2" style="stroke:#181818;stroke-width:1.0;"/><polygon fill="#181818" points="531.33,820.8968,522.0577,817.5765,526.3438,821.2683,522.652,825.5544,531.33,820.8968" style="stroke:#181818;stroke-width:1.0;"/></g><!--link OP to UC3--><g id="link_OP_UC3"><path d="M164.29,610.8368 C246.93,612.0068 428.84,614.5868 554.05,616.3668 " fill="none" id="OP-to-UC3" style="stroke:#181818;stroke-width:1.0;"/><polygon fill="#181818" points="559.22,616.4368,550.2781,612.3086,554.2205,616.3654,550.1638,620.3078,559.22,616.4368" style="stroke:#181818;stroke-width:1.0;"/></g><!--link CM to UC4--><g id="link_CM_UC4"><path d="M214.58,727.7168 C305.97,724.3068 445.67,719.1068 549.02,715.2568 " fill="none" id="CM-to-UC4" style="stroke:#181818;stroke-width:1.0;"/><polygon fill="#181818" points="554.22,715.0668,545.0777,711.4036,549.2234,715.2524,545.3747,719.3981,554.22,715.0668" style="stroke:#181818;stroke-width:1.0;"/></g><!--link CA to UC5--><g id="link_CA_UC5"><path d="M171.05,360.2168 C257.19,360.2168 434.92,360.2168 556.92,360.2168 " fill="none" id="CA-to-UC5" style="stroke:#181818;stroke-width:1.0;"/><polygon fill="#181818" points="561.96,360.2168,552.96,356.2168,556.96,360.2168,552.96,364.2168,561.96,360.2168" style="stroke:#181818;stroke-width:1.0;"/></g><!--link EB to UC6--><g id="link_EB_UC6"><path d="M233.28,219.2168 C319.57,219.2168 439.42,219.2168 533.91,219.2168 " fill="none" id="EB-to-UC6" style="stroke:#181818;stroke-width:1.0;"/><polygon fill="#181818" points="538.96,219.2168,529.96,215.2168,533.96,219.2168,529.96,223.2168,538.96,219.2168" style="stroke:#181818;stroke-width:1.0;"/></g><!--link CU to UC7--><g id="link_CU_UC7"><path d="M168.1,77.2168 C252.25,77.2168 430.02,77.2168 553.31,77.2168 " fill="none" id="CU-to-UC7" style="stroke:#181818;stroke-width:1.0;"/><polygon fill="#181818" points="558.4,77.2168,549.4,73.2168,553.4,77.2168,549.4,81.2168,558.4,77.2168" style="stroke:#181818;stroke-width:1.0;"/></g><!--SRC=[XLJBRjim4BppAnRkEKNgHm8qG057jeiMCM8qy0VGr4fcJP42IJLDY_vxbw8KYwxh-62iX7tCpCxA7QIkkUMLCkA0EUHOy4RvbT7-IVv265ypfh3mu0rOMUuzvDAYyD9enhZmni9eOyrtUWLhhdc9TWJSmMODxvxtqkETaXe_xXGNXpPylpCgl_FuqyUNZ8LsN9SAuUd5UQpWDmFwDGu5TmYZbL7AF8FV8tWKUoq5Lo2CTjvogRq3hlFmBD1g1wPeC-k8gSNo-VhwGzfoItyXYzWIfBpF1ekrSP98lRHD7Vgc1axSZOA2gFPvLSkqGlqwO9mEo8mkPDbO7881Gjm8Js_xgabQzTJD8p9UwiOq3eWWbfO7lGcE_T79IxNJj7QUv-qiZGATuyJ02IjhaeSsTqQHMLg-L7ndQ0xI-8MfI5XOcnmLPKXTmcAnw0jls1_6QBrNLv-YiiTuF8WdWtWwY6U3-ERLGlEyahgTC5yanh6OdxTDL_XO8w4sKPN7pOdf6hnOd3NEcmfjujmiTMvf4VN5BWzateRAOQbBIklQF2oJDdLZQuLlNi0zFPkYa09Fho12X1voTBsazNRONJjrcvquVO6rCj7DHqzkL5DsSc-p4-T-mrBI5LgOrxMYKmlEwp8dPn5zDJkWBMYoIOzX6Yn2Ymnh3eX8YnYE6QqeXXEMhRjm-cg3Z73Ad5mODp5F92Hxwl9j2OzD0eNHVxuc0tOzwbb0JJCZgDdHcuDKMD9fABWtyOwMzwdXh7dMRmDC6gvaM7leTmBqIrKRw-6Vv1vkUuS48C8zdbBla2ZXDW7uWe7y1KidElRNSK76Cyk_RMNSThXksLy0]--></g></svg>