<?xml version="1.0" encoding="UTF-8" standalone="no"?><svg xmlns="http://www.w3.org/2000/svg" xmlns:xlink="http://www.w3.org/1999/xlink" contentStyleType="text/css" height="860px" preserveAspectRatio="none" style="width:976px;height:860px;background:#FFFFFF;" version="1.1" viewBox="0 0 976 860" width="976px" zoomAndPan="magnify"><defs/><g><text fill="#000000" font-family="sans-serif" font-size="14" font-weight="bold" lengthAdjust="spacing" textLength="188" x="387" y="22.9951">Class Diagram - US1005</text><!--class UI--><g id="elem_UI"><rect codeLine="13" fill="#FEF9E7" height="50" id="UI" rx="2.5" ry="2.5" style="stroke:#181818;stroke-width:0.5;" width="204" x="514" y="44.2969"/><ellipse cx="530" cy="61.2969" fill="#ADD1B2" rx="12" ry="12" style="stroke:#181818;stroke-width:1.0;"/><path d="M533.0625,68.375 Q532.375,68.7344 531.625,68.9063 Q530.875,69.0781 530.0469,69.0781 Q527.0938,69.0781 525.5313,67.1406 Q523.9844,65.1875 523.9844,61.5156 Q523.9844,57.8438 525.5313,55.9063 Q527.0938,53.9531 530.0469,53.9531 Q530.875,53.9531 531.625,54.125 Q532.3906,54.2969 533.0625,54.6563 L533.0625,57.8594 Q532.3125,57.1719 531.6094,56.8594 Q530.9219,56.5469 530.1719,56.5469 Q528.5938,56.5469 527.7813,57.7969 Q526.9844,59.0469 526.9844,61.5156 Q526.9844,63.9844 527.7813,65.2344 Q528.5938,66.4844 530.1719,66.4844 Q530.9219,66.4844 531.6094,66.1719 Q532.3125,65.8594 533.0625,65.1719 L533.0625,68.375 Z " fill="#000000"/><text fill="#000000" font-family="sans-serif" font-size="20" lengthAdjust="spacing" textLength="170" x="545" y="68.2207">ListApplicationUI</text><line style="stroke:#181818;stroke-width:0.5;" x1="515" x2="717" y1="78.2969" y2="78.2969"/><line style="stroke:#181818;stroke-width:0.5;" x1="515" x2="717" y1="86.2969" y2="86.2969"/></g><!--class ApplicationController--><g id="elem_ApplicationController"><rect codeLine="15" fill="#FEF9E7" height="73.2813" id="ApplicationController" rx="2.5" ry="2.5" style="stroke:#181818;stroke-width:0.5;" width="430" x="401" y="154.2969"/><ellipse cx="487.5" cy="171.2969" fill="#ADD1B2" rx="12" ry="12" style="stroke:#181818;stroke-width:1.0;"/><path d="M490.5625,178.375 Q489.875,178.7344 489.125,178.9063 Q488.375,179.0781 487.5469,179.0781 Q484.5938,179.0781 483.0313,177.1406 Q481.4844,175.1875 481.4844,171.5156 Q481.4844,167.8438 483.0313,165.9063 Q484.5938,163.9531 487.5469,163.9531 Q488.375,163.9531 489.125,164.125 Q489.8906,164.2969 490.5625,164.6563 L490.5625,167.8594 Q489.8125,167.1719 489.1094,166.8594 Q488.4219,166.5469 487.6719,166.5469 Q486.0938,166.5469 485.2813,167.7969 Q484.4844,169.0469 484.4844,171.5156 Q484.4844,173.9844 485.2813,175.2344 Q486.0938,176.4844 487.6719,176.4844 Q488.4219,176.4844 489.1094,176.1719 Q489.8125,175.8594 490.5625,175.1719 L490.5625,178.375 Z " fill="#000000"/><text fill="#000000" font-family="sans-serif" font-size="20" lengthAdjust="spacing" textLength="248" x="509.5" y="178.2207">ListApplicationController</text><line style="stroke:#181818;stroke-width:0.5;" x1="402" x2="830" y1="188.2969" y2="188.2969"/><line style="stroke:#181818;stroke-width:0.5;" x1="402" x2="830" y1="196.2969" y2="196.2969"/><ellipse cx="412" cy="213.4375" fill="#84BE84" rx="3" ry="3" style="stroke:#038048;stroke-width:1.0;"/><text fill="#000000" font-family="sans-serif" font-size="20" lengthAdjust="spacing" textLength="403" x="422" y="218.8613">allApplications(): List&lt;ApplicationDTO&gt;</text></g><!--class ApplicationService--><g id="elem_ApplicationService"><rect codeLine="19" fill="#FEF9E7" height="73.2813" id="ApplicationService" rx="2.5" ry="2.5" style="stroke:#181818;stroke-width:0.5;" width="430" x="401" y="287.2969"/><ellipse cx="518" cy="304.2969" fill="#ADD1B2" rx="12" ry="12" style="stroke:#181818;stroke-width:1.0;"/><path d="M521.0625,311.375 Q520.375,311.7344 519.625,311.9063 Q518.875,312.0781 518.0469,312.0781 Q515.0938,312.0781 513.5313,310.1406 Q511.9844,308.1875 511.9844,304.5156 Q511.9844,300.8438 513.5313,298.9063 Q515.0938,296.9531 518.0469,296.9531 Q518.875,296.9531 519.625,297.125 Q520.3906,297.2969 521.0625,297.6563 L521.0625,300.8594 Q520.3125,300.1719 519.6094,299.8594 Q518.9219,299.5469 518.1719,299.5469 Q516.5938,299.5469 515.7813,300.7969 Q514.9844,302.0469 514.9844,304.5156 Q514.9844,306.9844 515.7813,308.2344 Q516.5938,309.4844 518.1719,309.4844 Q518.9219,309.4844 519.6094,309.1719 Q520.3125,308.8594 521.0625,308.1719 L521.0625,311.375 Z " fill="#000000"/><text fill="#000000" font-family="sans-serif" font-size="20" lengthAdjust="spacing" textLength="187" x="540" y="311.2207">ApplicationService</text><line style="stroke:#181818;stroke-width:0.5;" x1="402" x2="830" y1="321.2969" y2="321.2969"/><line style="stroke:#181818;stroke-width:0.5;" x1="402" x2="830" y1="329.2969" y2="329.2969"/><ellipse cx="412" cy="346.4375" fill="#84BE84" rx="3" ry="3" style="stroke:#038048;stroke-width:1.0;"/><text fill="#000000" font-family="sans-serif" font-size="20" lengthAdjust="spacing" textLength="403" x="422" y="351.8613">allApplications(): List&lt;ApplicationDTO&gt;</text></g><!--class Application--><g id="elem_Application"><rect codeLine="23" fill="#FEF9E7" height="166.4063" id="Application" rx="2.5" ry="2.5" style="stroke:#181818;stroke-width:0.5;" width="428" x="202" y="420.2969"/><ellipse cx="354.5" cy="437.2969" fill="#ADD1B2" rx="12" ry="12" style="stroke:#181818;stroke-width:1.0;"/><path d="M357.5625,444.375 Q356.875,444.7344 356.125,444.9063 Q355.375,445.0781 354.5469,445.0781 Q351.5938,445.0781 350.0313,443.1406 Q348.4844,441.1875 348.4844,437.5156 Q348.4844,433.8438 350.0313,431.9063 Q351.5938,429.9531 354.5469,429.9531 Q355.375,429.9531 356.125,430.125 Q356.8906,430.2969 357.5625,430.6563 L357.5625,433.8594 Q356.8125,433.1719 356.1094,432.8594 Q355.4219,432.5469 354.6719,432.5469 Q353.0938,432.5469 352.2813,433.7969 Q351.4844,435.0469 351.4844,437.5156 Q351.4844,439.9844 352.2813,441.2344 Q353.0938,442.4844 354.6719,442.4844 Q355.4219,442.4844 356.1094,442.1719 Q356.8125,441.8594 357.5625,441.1719 L357.5625,444.375 Z " fill="#000000"/><text fill="#000000" font-family="sans-serif" font-size="20" lengthAdjust="spacing" textLength="114" x="376.5" y="444.2207">Application</text><line style="stroke:#181818;stroke-width:0.5;" x1="203" x2="629" y1="454.2969" y2="454.2969"/><rect fill="none" height="6" style="stroke:#C82930;stroke-width:1.0;" width="6" x="210" y="468.4375"/><text fill="#000000" font-family="sans-serif" font-size="20" lengthAdjust="spacing" textLength="333" x="223" y="476.8613">applicationDate: ApplicationDate</text><rect fill="none" height="6" style="stroke:#C82930;stroke-width:1.0;" width="6" x="210" y="491.7188"/><text fill="#000000" font-family="sans-serif" font-size="20" lengthAdjust="spacing" textLength="401" x="223" y="500.1426">applicationNumber: ApplicationNumber</text><rect fill="none" height="6" style="stroke:#C82930;stroke-width:1.0;" width="6" x="210" y="515"/><text fill="#000000" font-family="sans-serif" font-size="20" lengthAdjust="spacing" textLength="133" x="223" y="523.4238">result: Result</text><rect fill="none" height="6" style="stroke:#C82930;stroke-width:1.0;" width="6" x="210" y="538.2813"/><text fill="#000000" font-family="sans-serif" font-size="20" lengthAdjust="spacing" textLength="247" x="223" y="546.7051">jobOpening: JobOpening</text><line style="stroke:#181818;stroke-width:0.5;" x1="203" x2="629" y1="555.4219" y2="555.4219"/><ellipse cx="213" cy="572.5625" fill="#84BE84" rx="3" ry="3" style="stroke:#038048;stroke-width:1.0;"/><text fill="#000000" font-family="sans-serif" font-size="20" lengthAdjust="spacing" textLength="249" x="223" y="577.9863">toDTO(): ApplicationDTO</text></g><!--class ApplicationDTO--><g id="elem_ApplicationDTO"><rect codeLine="31" fill="#FEF9E7" height="73.2813" id="ApplicationDTO" rx="2.5" ry="2.5" style="stroke:#181818;stroke-width:0.5;" width="274" x="7" y="658.2969"/><ellipse cx="61" cy="675.2969" fill="#ADD1B2" rx="12" ry="12" style="stroke:#181818;stroke-width:1.0;"/><path d="M64.0625,682.375 Q63.375,682.7344 62.625,682.9063 Q61.875,683.0781 61.0469,683.0781 Q58.0938,683.0781 56.5313,681.1406 Q54.9844,679.1875 54.9844,675.5156 Q54.9844,671.8438 56.5313,669.9063 Q58.0938,667.9531 61.0469,667.9531 Q61.875,667.9531 62.625,668.125 Q63.3906,668.2969 64.0625,668.6563 L64.0625,671.8594 Q63.3125,671.1719 62.6094,670.8594 Q61.9219,670.5469 61.1719,670.5469 Q59.5938,670.5469 58.7813,671.7969 Q57.9844,673.0469 57.9844,675.5156 Q57.9844,677.9844 58.7813,679.2344 Q59.5938,680.4844 61.1719,680.4844 Q61.9219,680.4844 62.6094,680.1719 Q63.3125,679.8594 64.0625,679.1719 L64.0625,682.375 Z " fill="#000000"/><text fill="#000000" font-family="sans-serif" font-size="20" lengthAdjust="spacing" textLength="157" x="83" y="682.2207">ApplicationDTO</text><line style="stroke:#181818;stroke-width:0.5;" x1="8" x2="280" y1="692.2969" y2="692.2969"/><rect fill="none" height="6" style="stroke:#C82930;stroke-width:1.0;" width="6" x="15" y="706.4375"/><text fill="#000000" font-family="sans-serif" font-size="20" lengthAdjust="spacing" textLength="247" x="28" y="714.8613">jobOpening: JobOpening</text><line style="stroke:#181818;stroke-width:0.5;" x1="8" x2="280" y1="723.5781" y2="723.5781"/></g><!--class ApplicationRepository--><g id="elem_ApplicationRepository"><rect codeLine="35" fill="#FEF9E7" height="73.2813" id="ApplicationRepository" rx="2.5" ry="2.5" style="stroke:#181818;stroke-width:0.5;" width="304" x="665" y="466.7969"/><ellipse cx="703.5" cy="483.7969" fill="#ADD1B2" rx="12" ry="12" style="stroke:#181818;stroke-width:1.0;"/><path d="M706.5625,490.875 Q705.875,491.2344 705.125,491.4063 Q704.375,491.5781 703.5469,491.5781 Q700.5938,491.5781 699.0313,489.6406 Q697.4844,487.6875 697.4844,484.0156 Q697.4844,480.3438 699.0313,478.4063 Q700.5938,476.4531 703.5469,476.4531 Q704.375,476.4531 705.125,476.625 Q705.8906,476.7969 706.5625,477.1563 L706.5625,480.3594 Q705.8125,479.6719 705.1094,479.3594 Q704.4219,479.0469 703.6719,479.0469 Q702.0938,479.0469 701.2813,480.2969 Q700.4844,481.5469 700.4844,484.0156 Q700.4844,486.4844 701.2813,487.7344 Q702.0938,488.9844 703.6719,488.9844 Q704.4219,488.9844 705.1094,488.6719 Q705.8125,488.3594 706.5625,487.6719 L706.5625,490.875 Z " fill="#000000"/><text fill="#000000" font-family="sans-serif" font-size="20" lengthAdjust="spacing" textLength="220" x="723.5" y="490.7207">ApplicationRepository</text><line style="stroke:#181818;stroke-width:0.5;" x1="666" x2="968" y1="500.7969" y2="500.7969"/><line style="stroke:#181818;stroke-width:0.5;" x1="666" x2="968" y1="508.7969" y2="508.7969"/><ellipse cx="676" cy="525.9375" fill="#84BE84" rx="3" ry="3" style="stroke:#038048;stroke-width:1.0;"/><text fill="#000000" font-family="sans-serif" font-size="20" lengthAdjust="spacing" textLength="277" x="686" y="531.3613">findAll(): List&lt;Application&gt;</text></g><!--class JpaApplicationRepository--><g id="elem_JpaApplicationRepository"><rect codeLine="39" fill="#FEF9E7" height="73.2813" id="JpaApplicationRepository" rx="2.5" ry="2.5" style="stroke:#181818;stroke-width:0.5;" width="304" x="665" y="658.2969"/><ellipse cx="689.55" cy="675.2969" fill="#ADD1B2" rx="12" ry="12" style="stroke:#181818;stroke-width:1.0;"/><path d="M692.6125,682.375 Q691.925,682.7344 691.175,682.9063 Q690.425,683.0781 689.5969,683.0781 Q686.6438,683.0781 685.0813,681.1406 Q683.5344,679.1875 683.5344,675.5156 Q683.5344,671.8438 685.0813,669.9063 Q686.6438,667.9531 689.5969,667.9531 Q690.425,667.9531 691.175,668.125 Q691.9406,668.2969 692.6125,668.6563 L692.6125,671.8594 Q691.8625,671.1719 691.1594,670.8594 Q690.4719,670.5469 689.7219,670.5469 Q688.1438,670.5469 687.3313,671.7969 Q686.5344,673.0469 686.5344,675.5156 Q686.5344,677.9844 687.3313,679.2344 Q688.1438,680.4844 689.7219,680.4844 Q690.4719,680.4844 691.1594,680.1719 Q691.8625,679.8594 692.6125,679.1719 L692.6125,682.375 Z " fill="#000000"/><text fill="#000000" font-family="sans-serif" font-size="20" lengthAdjust="spacing" textLength="251" x="706.45" y="682.2207">JpaApplicationRepository</text><line style="stroke:#181818;stroke-width:0.5;" x1="666" x2="968" y1="692.2969" y2="692.2969"/><line style="stroke:#181818;stroke-width:0.5;" x1="666" x2="968" y1="700.2969" y2="700.2969"/><ellipse cx="676" cy="717.4375" fill="#84BE84" rx="3" ry="3" style="stroke:#038048;stroke-width:1.0;"/><text fill="#000000" font-family="sans-serif" font-size="20" lengthAdjust="spacing" textLength="277" x="686" y="722.8613">findAll(): List&lt;Application&gt;</text></g><!--class DB--><g id="elem_DB"><rect codeLine="43" fill="#FEF9E7" height="50" id="DB" rx="2.5" ry="2.5" style="stroke:#181818;stroke-width:0.5;" width="128" x="753" y="803.2969"/><ellipse cx="769" cy="820.2969" fill="#8BEBFF" rx="12" ry="12" style="stroke:#181818;stroke-width:1.0;"/><path d="M769.2188,815.8125 L769.2188,825.2031 L770,825.2031 Q771.7031,825.2031 772.4219,824.1406 Q773.1406,823.0625 773.1406,820.4844 Q773.1406,817.9375 772.4219,816.875 Q771.7031,815.8125 770,815.8125 L769.2188,815.8125 Z M766.3438,813.2188 L769.4219,813.2188 Q773,813.2188 774.5625,814.9219 Q776.1406,816.625 776.1406,820.4844 Q776.1406,824.375 774.5625,826.0938 Q773,827.7969 769.4219,827.7969 L766.3438,827.7969 L766.3438,813.2188 Z " fill="#000000"/><text fill="#000000" font-family="sans-serif" font-size="20" lengthAdjust="spacing" textLength="94" x="784" y="827.2207">Database</text><line style="stroke:#181818;stroke-width:0.5;" x1="754" x2="880" y1="837.2969" y2="837.2969"/><line style="stroke:#181818;stroke-width:0.5;" x1="754" x2="880" y1="845.2969" y2="845.2969"/></g><!--class Result--><g id="elem_Result"><rect codeLine="46" fill="#FEF9E7" height="96.5625" id="Result" rx="2.5" ry="2.5" style="stroke:#181818;stroke-width:0.5;" width="276" x="316" y="646.2969"/><ellipse cx="418" cy="663.2969" fill="#ADD1B2" rx="12" ry="12" style="stroke:#181818;stroke-width:1.0;"/><path d="M421.0625,670.375 Q420.375,670.7344 419.625,670.9063 Q418.875,671.0781 418.0469,671.0781 Q415.0938,671.0781 413.5313,669.1406 Q411.9844,667.1875 411.9844,663.5156 Q411.9844,659.8438 413.5313,657.9063 Q415.0938,655.9531 418.0469,655.9531 Q418.875,655.9531 419.625,656.125 Q420.3906,656.2969 421.0625,656.6563 L421.0625,659.8594 Q420.3125,659.1719 419.6094,658.8594 Q418.9219,658.5469 418.1719,658.5469 Q416.5938,658.5469 415.7813,659.7969 Q414.9844,661.0469 414.9844,663.5156 Q414.9844,665.9844 415.7813,667.2344 Q416.5938,668.4844 418.1719,668.4844 Q418.9219,668.4844 419.6094,668.1719 Q420.3125,667.8594 421.0625,667.1719 L421.0625,670.375 Z " fill="#000000"/><text fill="#000000" font-family="sans-serif" font-size="20" lengthAdjust="spacing" textLength="63" x="440" y="670.2207">Result</text><line style="stroke:#181818;stroke-width:0.5;" x1="317" x2="591" y1="680.2969" y2="680.2969"/><rect fill="none" height="6" style="stroke:#C82930;stroke-width:1.0;" width="6" x="324" y="694.4375"/><text fill="#000000" font-family="sans-serif" font-size="20" lengthAdjust="spacing" textLength="193" x="337" y="702.8613">outcome: Outcome</text><rect fill="none" height="6" style="stroke:#C82930;stroke-width:1.0;" width="6" x="324" y="717.7188"/><text fill="#000000" font-family="sans-serif" font-size="20" lengthAdjust="spacing" textLength="249" x="337" y="726.1426">justification: Justification</text><line style="stroke:#181818;stroke-width:0.5;" x1="317" x2="591" y1="734.8594" y2="734.8594"/></g><!--link UI to ApplicationController--><g id="link_UI_ApplicationController"><path codeLine="51" d="M616,94.4769 C616,110.0669 616,130.7269 616,148.8269 " fill="none" id="UI-to-ApplicationController" style="stroke:#000000;stroke-width:1.0;"/><polygon fill="#000000" points="616,153.8569,620,144.8569,616,148.8569,612,144.8569,616,153.8569" style="stroke:#000000;stroke-width:1.0;"/></g><!--link ApplicationController to ApplicationService--><g id="link_ApplicationController_ApplicationService"><path codeLine="52" d="M616,227.5969 C616,244.3469 616,264.3869 616,281.7469 " fill="none" id="ApplicationController-to-ApplicationService" style="stroke:#000000;stroke-width:1.0;"/><polygon fill="#000000" points="616,287.0469,620,278.0469,616,282.0469,612,278.0469,616,287.0469" style="stroke:#000000;stroke-width:1.0;"/></g><!--link ApplicationService to ApplicationRepository--><g id="link_ApplicationService_ApplicationRepository"><path codeLine="53" d="M656.68,360.7169 C690.3,390.4069 737.96,432.4969 772.57,463.0669 " fill="none" id="ApplicationService-to-ApplicationRepository" style="stroke:#000000;stroke-width:1.0;"/><polygon fill="#000000" points="776.73,466.7369,772.6438,457.7757,772.9867,463.4222,767.3402,463.7651,776.73,466.7369" style="stroke:#000000;stroke-width:1.0;"/></g><!--link ApplicationService to Application--><g id="link_ApplicationService_Application"><path codeLine="54" d="M575.53,360.7169 C557.18,376.9969 534.64,397.0069 512.34,416.7969 " fill="none" id="ApplicationService-to-Application" style="stroke:#000000;stroke-width:1.0;"/><polygon fill="#000000" points="508.47,420.2269,517.8598,417.2551,512.2133,416.9122,512.5562,411.2657,508.47,420.2269" style="stroke:#000000;stroke-width:1.0;"/></g><!--link ApplicationRepository to JpaApplicationRepository--><g id="link_ApplicationRepository_JpaApplicationRepository"><path codeLine="55" d="M817,539.9369 C817,571.9969 817,619.0869 817,652.7169 " fill="none" id="ApplicationRepository-to-JpaApplicationRepository" style="stroke:#000000;stroke-width:1.0;"/><polygon fill="#000000" points="817,657.9869,821,648.9869,817,652.9869,813,648.9869,817,657.9869" style="stroke:#000000;stroke-width:1.0;"/></g><!--link JpaApplicationRepository to DB--><g id="link_JpaApplicationRepository_DB"><path codeLine="56" d="M817,731.3869 C817,752.1869 817,778.1469 817,797.8069 " fill="none" id="JpaApplicationRepository-to-DB" style="stroke:#000000;stroke-width:1.0;"/><polygon fill="#000000" points="817,802.9169,821,793.9169,817,797.9169,813,793.9169,817,802.9169" style="stroke:#000000;stroke-width:1.0;"/></g><!--link Application to ApplicationDTO--><g id="link_Application_ApplicationDTO"><path codeLine="57" d="M298.28,586.3169 C263.79,610.3369 227.71,635.4769 199.12,655.3969 " fill="none" id="Application-to-ApplicationDTO" style="stroke:#000000;stroke-width:1.0;"/><polygon fill="#000000" points="194.96,658.2969,204.6339,656.4488,199.0668,655.4449,200.0707,649.8778,194.96,658.2969" style="stroke:#000000;stroke-width:1.0;"/></g><!--link Application to Result--><g id="link_Application_Result"><path codeLine="58" d="M432.45,586.3169 C436.15,604.8069 440,623.9569 443.39,640.8769 " fill="none" id="Application-to-Result" style="stroke:#000000;stroke-width:1.0;"/><polygon fill="#000000" points="444.43,646.0569,446.5765,636.4448,443.4439,641.1551,438.7336,638.0225,444.43,646.0569" style="stroke:#000000;stroke-width:1.0;"/></g><!--SRC=[hLDXQzim4FskNt6qNrgsG5eOsq88n74CAMM1Pla15_lYQL4a8SahQTb_dsmvYwlPiC7ynTAzftUwToTxu5AZmQDG-O4AA6YFbN2Pacx3NmZknumvxWJ1Gg2ra78iFHj6iDtSZSSV6BDd1SWRnYi3_qNHkNE6xof7grp9HdWSqJJc1onfuqu-bw7SeIm5HIJx3Glrp6K9UnGsHWMNv4wQG2jngZSDddZXqgXA5Wibb87hR9bzNdviiBanwZc44-5vx2TZeOghHsxTN6l1StHSoUtg2j32TWMlWvo5Dyqe8SWqt5wajUST2j71xStj16grQIUOVbtFEXVg81ioFtXESPOs_5zInDgjw0WxXz7HfCkf0t-mlbJ77Patl10AJ4FMZzi4dff_Y7rNkxKcwTiyWOVVwr2KK_xETIblg-WlmWDn7JvqBcKWJQ_I4sbbkLFc50jUaBFlUowBkH1zVdVDVj0ud608_CSSlYEuGnic9KrWEhr9tyFrfsIPPDdjRERbBkJGWeOQbcUZLELoTVIzNeT5Qrzb7T-tIRs3tMsjwf_AQ3JhVmMi_sr4_7QUMS-8HyoBGNz1PltErgmXszbWF-fJQTALZDFLqnd3xRJ_0W00]--></g></svg>