<?xml version="1.0" encoding="UTF-8" standalone="no"?><svg xmlns="http://www.w3.org/2000/svg" xmlns:xlink="http://www.w3.org/1999/xlink" contentStyleType="text/css" height="1298px" preserveAspectRatio="none" style="width:2320px;height:1298px;background:#FFFFFF;" version="1.1" viewBox="0 0 2320 1298" width="2320px" zoomAndPan="magnify"><defs/><g><text fill="#000000" font-family="sans-serif" font-size="14" font-weight="bold" lengthAdjust="spacing" textLength="225" x="1048.75" y="27.9951">Sequence Diagram - US1005</text><rect fill="#FFFFFF" height="1057.5625" style="stroke:#181818;stroke-width:1.0;" width="10" x="98" y="135.5781"/><rect fill="#FFFFFF" height="168.6875" style="stroke:#181818;stroke-width:1.0;" width="10" x="298" y="211.4219"/><rect fill="#FFFFFF" height="752.4688" style="stroke:#181818;stroke-width:1.0;" width="10" x="298" y="440.6719"/><rect fill="#FFFFFF" height="654.625" style="stroke:#181818;stroke-width:1.0;" width="10" x="600" y="477.9531"/><rect fill="#FFFFFF" height="580.0625" style="stroke:#181818;stroke-width:1.0;" width="10" x="902" y="515.2344"/><rect fill="#FFFFFF" height="308.8125" style="stroke:#181818;stroke-width:1.0;" width="10" x="1161" y="552.5156"/><rect fill="#FFFFFF" height="234.25" style="stroke:#181818;stroke-width:1.0;" width="10" x="1420.5" y="589.7969"/><rect fill="#FFFFFF" height="111.8438" style="stroke:#181818;stroke-width:1.0;" width="10" x="1627" y="939.1719"/><rect fill="#FFFFFF" height="37.2813" style="stroke:#181818;stroke-width:1.0;" width="10" x="1818" y="976.4531"/><rect fill="#FFFFFF" height="51.9219" style="stroke:#181818;stroke-width:1.0;" width="10" x="1963.5" y="720.2031"/><rect fill="none" height="182.6875" style="stroke:#000000;stroke-width:1.5;" width="1122" x="796.5" y="876.3281"/><line style="stroke:#181818;stroke-width:0.5;stroke-dasharray:5.0,5.0;" x1="103" x2="103" y1="125.5781" y2="1211.1406"/><line style="stroke:#181818;stroke-width:0.5;stroke-dasharray:5.0,5.0;" x1="303" x2="303" y1="125.5781" y2="1211.1406"/><line style="stroke:#181818;stroke-width:0.5;stroke-dasharray:5.0,5.0;" x1="605" x2="605" y1="125.5781" y2="1211.1406"/><line style="stroke:#181818;stroke-width:0.5;stroke-dasharray:5.0,5.0;" x1="906.5" x2="906.5" y1="125.5781" y2="1211.1406"/><line style="stroke:#181818;stroke-width:0.5;stroke-dasharray:5.0,5.0;" x1="1166" x2="1166" y1="125.5781" y2="1211.1406"/><line style="stroke:#181818;stroke-width:0.5;stroke-dasharray:5.0,5.0;" x1="1425" x2="1425" y1="125.5781" y2="1211.1406"/><line style="stroke:#181818;stroke-width:0.5;stroke-dasharray:5.0,5.0;" x1="1632" x2="1632" y1="125.5781" y2="1211.1406"/><line style="stroke:#181818;stroke-width:0.5;stroke-dasharray:5.0,5.0;" x1="1822.5" x2="1822.5" y1="125.5781" y2="1211.1406"/><line style="stroke:#181818;stroke-width:0.5;stroke-dasharray:5.0,5.0;" x1="1968.5" x2="1968.5" y1="125.5781" y2="1211.1406"/><text fill="#000000" font-family="sans-serif" font-size="20" lengthAdjust="spacing" text-decoration="underline" textLength="190" x="5" y="120.8613">Customer Manager</text><ellipse cx="103" cy="50.7969" fill="#E2E2F0" rx="8" ry="8" style="stroke:#181818;stroke-width:0.5;"/><path d="M103,58.7969 L103,85.7969 M90,66.7969 L116,66.7969 M103,85.7969 L90,100.7969 M103,85.7969 L116,100.7969 " fill="none" style="stroke:#181818;stroke-width:0.5;"/><text fill="#000000" font-family="sans-serif" font-size="20" lengthAdjust="spacing" text-decoration="underline" textLength="190" x="5" y="1228.7051">Customer Manager</text><ellipse cx="103" cy="1241.9219" fill="#E2E2F0" rx="8" ry="8" style="stroke:#181818;stroke-width:0.5;"/><path d="M103,1249.9219 L103,1276.9219 M90,1257.9219 L116,1257.9219 M103,1276.9219 L90,1291.9219 M103,1276.9219 L116,1291.9219 " fill="none" style="stroke:#181818;stroke-width:0.5;"/><rect fill="#E2E2F0" height="37.2813" rx="2.5" ry="2.5" style="stroke:#181818;stroke-width:0.5;" width="184" x="211" y="87.2969"/><text fill="#000000" font-family="sans-serif" font-size="20" lengthAdjust="spacing" text-decoration="underline" textLength="170" x="218" y="112.8613">ListApplicationUI</text><rect fill="#E2E2F0" height="37.2813" rx="2.5" ry="2.5" style="stroke:#181818;stroke-width:0.5;" width="184" x="211" y="1210.1406"/><text fill="#000000" font-family="sans-serif" font-size="20" lengthAdjust="spacing" text-decoration="underline" textLength="170" x="218" y="1235.7051">ListApplicationUI</text><rect fill="#E2E2F0" height="37.2813" rx="2.5" ry="2.5" style="stroke:#181818;stroke-width:0.5;" width="262" x="474" y="87.2969"/><text fill="#000000" font-family="sans-serif" font-size="20" lengthAdjust="spacing" text-decoration="underline" textLength="248" x="481" y="112.8613">ListApplicationController</text><rect fill="#E2E2F0" height="37.2813" rx="2.5" ry="2.5" style="stroke:#181818;stroke-width:0.5;" width="262" x="474" y="1210.1406"/><text fill="#000000" font-family="sans-serif" font-size="20" lengthAdjust="spacing" text-decoration="underline" textLength="248" x="481" y="1235.7051">ListApplicationController</text><rect fill="#E2E2F0" height="37.2813" rx="2.5" ry="2.5" style="stroke:#181818;stroke-width:0.5;" width="201" x="806.5" y="87.2969"/><text fill="#000000" font-family="sans-serif" font-size="20" lengthAdjust="spacing" text-decoration="underline" textLength="187" x="813.5" y="112.8613">ApplicationService</text><rect fill="#E2E2F0" height="37.2813" rx="2.5" ry="2.5" style="stroke:#181818;stroke-width:0.5;" width="201" x="806.5" y="1210.1406"/><text fill="#000000" font-family="sans-serif" font-size="20" lengthAdjust="spacing" text-decoration="underline" textLength="187" x="813.5" y="1235.7051">ApplicationService</text><rect fill="#E2E2F0" height="37.2813" rx="2.5" ry="2.5" style="stroke:#181818;stroke-width:0.5;" width="234" x="1049" y="87.2969"/><text fill="#000000" font-family="sans-serif" font-size="20" lengthAdjust="spacing" text-decoration="underline" textLength="220" x="1056" y="112.8613">ApplicationRepository</text><rect fill="#E2E2F0" height="37.2813" rx="2.5" ry="2.5" style="stroke:#181818;stroke-width:0.5;" width="234" x="1049" y="1210.1406"/><text fill="#000000" font-family="sans-serif" font-size="20" lengthAdjust="spacing" text-decoration="underline" textLength="220" x="1056" y="1235.7051">ApplicationRepository</text><rect fill="#E2E2F0" height="37.2813" rx="2.5" ry="2.5" style="stroke:#181818;stroke-width:0.5;" width="265" x="1293" y="87.2969"/><text fill="#000000" font-family="sans-serif" font-size="20" lengthAdjust="spacing" text-decoration="underline" textLength="251" x="1300" y="112.8613">JpaApplicationRepository</text><rect fill="#E2E2F0" height="37.2813" rx="2.5" ry="2.5" style="stroke:#181818;stroke-width:0.5;" width="265" x="1293" y="1210.1406"/><text fill="#000000" font-family="sans-serif" font-size="20" lengthAdjust="spacing" text-decoration="underline" textLength="251" x="1300" y="1235.7051">JpaApplicationRepository</text><rect fill="#E2E2F0" height="37.2813" rx="2.5" ry="2.5" style="stroke:#181818;stroke-width:0.5;" width="128" x="1568" y="87.2969"/><text fill="#000000" font-family="sans-serif" font-size="20" lengthAdjust="spacing" text-decoration="underline" textLength="114" x="1575" y="112.8613">Application</text><rect fill="#E2E2F0" height="37.2813" rx="2.5" ry="2.5" style="stroke:#181818;stroke-width:0.5;" width="128" x="1568" y="1210.1406"/><text fill="#000000" font-family="sans-serif" font-size="20" lengthAdjust="spacing" text-decoration="underline" textLength="114" x="1575" y="1235.7051">Application</text><rect fill="#E2E2F0" height="37.2813" rx="2.5" ry="2.5" style="stroke:#181818;stroke-width:0.5;" width="171" x="1737.5" y="87.2969"/><text fill="#000000" font-family="sans-serif" font-size="20" lengthAdjust="spacing" text-decoration="underline" textLength="157" x="1744.5" y="112.8613">ApplicationDTO</text><rect fill="#E2E2F0" height="37.2813" rx="2.5" ry="2.5" style="stroke:#181818;stroke-width:0.5;" width="171" x="1737.5" y="1210.1406"/><text fill="#000000" font-family="sans-serif" font-size="20" lengthAdjust="spacing" text-decoration="underline" textLength="157" x="1744.5" y="1235.7051">ApplicationDTO</text><text fill="#000000" font-family="sans-serif" font-size="20" lengthAdjust="spacing" text-decoration="underline" textLength="94" x="1918.5" y="120.8613">Database</text><path d="M1950.5,66.2969 C1950.5,56.2969 1968.5,56.2969 1968.5,56.2969 C1968.5,56.2969 1986.5,56.2969 1986.5,66.2969 L1986.5,92.2969 C1986.5,102.2969 1968.5,102.2969 1968.5,102.2969 C1968.5,102.2969 1950.5,102.2969 1950.5,92.2969 L1950.5,66.2969 " fill="#E2E2F0" style="stroke:#181818;stroke-width:1.5;"/><path d="M1950.5,66.2969 C1950.5,76.2969 1968.5,76.2969 1968.5,76.2969 C1968.5,76.2969 1986.5,76.2969 1986.5,66.2969 " fill="none" style="stroke:#181818;stroke-width:1.5;"/><text fill="#000000" font-family="sans-serif" font-size="20" lengthAdjust="spacing" text-decoration="underline" textLength="94" x="1918.5" y="1228.7051">Database</text><path d="M1950.5,1243.4219 C1950.5,1233.4219 1968.5,1233.4219 1968.5,1233.4219 C1968.5,1233.4219 1986.5,1233.4219 1986.5,1243.4219 L1986.5,1269.4219 C1986.5,1279.4219 1968.5,1279.4219 1968.5,1279.4219 C1968.5,1279.4219 1950.5,1279.4219 1950.5,1269.4219 L1950.5,1243.4219 " fill="#E2E2F0" style="stroke:#181818;stroke-width:1.5;"/><path d="M1950.5,1243.4219 C1950.5,1253.4219 1968.5,1253.4219 1968.5,1253.4219 C1968.5,1253.4219 1986.5,1253.4219 1986.5,1243.4219 " fill="none" style="stroke:#181818;stroke-width:1.5;"/><rect fill="#FFFFFF" height="1057.5625" style="stroke:#181818;stroke-width:1.0;" width="10" x="98" y="135.5781"/><rect fill="#FFFFFF" height="168.6875" style="stroke:#181818;stroke-width:1.0;" width="10" x="298" y="211.4219"/><rect fill="#FFFFFF" height="752.4688" style="stroke:#181818;stroke-width:1.0;" width="10" x="298" y="440.6719"/><rect fill="#FFFFFF" height="654.625" style="stroke:#181818;stroke-width:1.0;" width="10" x="600" y="477.9531"/><rect fill="#FFFFFF" height="580.0625" style="stroke:#181818;stroke-width:1.0;" width="10" x="902" y="515.2344"/><rect fill="#FFFFFF" height="308.8125" style="stroke:#181818;stroke-width:1.0;" width="10" x="1161" y="552.5156"/><rect fill="#FFFFFF" height="234.25" style="stroke:#181818;stroke-width:1.0;" width="10" x="1420.5" y="589.7969"/><rect fill="#FFFFFF" height="111.8438" style="stroke:#181818;stroke-width:1.0;" width="10" x="1627" y="939.1719"/><rect fill="#FFFFFF" height="37.2813" style="stroke:#181818;stroke-width:1.0;" width="10" x="1818" y="976.4531"/><rect fill="#FFFFFF" height="51.9219" style="stroke:#181818;stroke-width:1.0;" width="10" x="1963.5" y="720.2031"/><polygon fill="#181818" points="286,207.4219,296,211.4219,286,215.4219,290,211.4219" style="stroke:#181818;stroke-width:1.0;"/><line style="stroke:#181818;stroke-width:1.0;" x1="108" x2="292" y1="211.4219" y2="211.4219"/><text fill="#000000" font-family="sans-serif" font-size="20" lengthAdjust="spacing" textLength="46" x="115" y="158.1426">Asks</text><text fill="#000000" font-family="sans-serif" font-size="20" lengthAdjust="spacing" textLength="6" x="161" y="158.1426"> </text><text fill="#000000" font-family="sans-serif" font-size="20" lengthAdjust="spacing" textLength="27" x="167" y="158.1426">for</text><text fill="#000000" font-family="sans-serif" font-size="20" lengthAdjust="spacing" textLength="6" x="194" y="158.1426"> </text><text fill="#000000" font-family="sans-serif" font-size="20" lengthAdjust="spacing" textLength="12" x="200" y="158.1426">a</text><text fill="#000000" font-family="sans-serif" font-size="20" lengthAdjust="spacing" textLength="6" x="212" y="158.1426"> </text><text fill="#000000" font-family="sans-serif" font-size="20" lengthAdjust="spacing" textLength="30" x="218" y="158.1426">list</text><text fill="#000000" font-family="sans-serif" font-size="20" lengthAdjust="spacing" textLength="19" x="115" y="181.4238">of</text><text fill="#000000" font-family="sans-serif" font-size="20" lengthAdjust="spacing" textLength="6" x="134" y="181.4238"> </text><text fill="#000000" font-family="sans-serif" font-size="20" lengthAdjust="spacing" textLength="31" x="140" y="181.4238">job</text><text fill="#000000" font-family="sans-serif" font-size="20" lengthAdjust="spacing" textLength="92" x="115" y="204.7051">openings</text><rect fill="none" height="56.5625" style="stroke:#000000;stroke-width:1.5;" width="2019.5" x="2" y="219.4219"/><path d="M2,219.4219 L80,219.4219 L80,234.4219 L70,244.4219 L2,244.4219 L2,219.4219 " fill="#EEEEEE" style="stroke:#000000;stroke-width:2.0;"/><text fill="#000000" font-family="sans-serif" font-size="20" font-weight="bold" lengthAdjust="spacing" textLength="33" x="15" y="239.9863">ref</text><text fill="#000000" font-family="sans-serif" font-size="20" lengthAdjust="spacing" textLength="283" x="870.25" y="266.9863">US1003 ➡️ List Job Openings</text><polygon fill="#181818" points="119,376.1094,109,380.1094,119,384.1094,115,380.1094" style="stroke:#181818;stroke-width:1.0;"/><line style="stroke:#181818;stroke-width:1.0;stroke-dasharray:2.0,2.0;" x1="113" x2="302" y1="380.1094" y2="380.1094"/><text fill="#000000" font-family="sans-serif" font-size="20" lengthAdjust="spacing" textLength="65" x="125" y="303.5488">Shows</text><text fill="#000000" font-family="sans-serif" font-size="20" lengthAdjust="spacing" textLength="6" x="190" y="303.5488"> </text><text fill="#000000" font-family="sans-serif" font-size="20" lengthAdjust="spacing" textLength="30" x="196" y="303.5488">list</text><text fill="#000000" font-family="sans-serif" font-size="20" lengthAdjust="spacing" textLength="6" x="226" y="303.5488"> </text><text fill="#000000" font-family="sans-serif" font-size="20" lengthAdjust="spacing" textLength="19" x="232" y="303.5488">of</text><text fill="#000000" font-family="sans-serif" font-size="20" lengthAdjust="spacing" textLength="31" x="125" y="326.8301">job</text><text fill="#000000" font-family="sans-serif" font-size="20" lengthAdjust="spacing" textLength="6" x="156" y="326.8301"> </text><text fill="#000000" font-family="sans-serif" font-size="20" lengthAdjust="spacing" textLength="92" x="162" y="326.8301">openings</text><text fill="#000000" font-family="sans-serif" font-size="20" lengthAdjust="spacing" textLength="38" x="125" y="350.1113">and</text><text fill="#000000" font-family="sans-serif" font-size="20" lengthAdjust="spacing" textLength="6" x="163" y="350.1113"> </text><text fill="#000000" font-family="sans-serif" font-size="20" lengthAdjust="spacing" textLength="44" x="169" y="350.1113">asks</text><text fill="#000000" font-family="sans-serif" font-size="20" lengthAdjust="spacing" textLength="6" x="213" y="350.1113"> </text><text fill="#000000" font-family="sans-serif" font-size="20" lengthAdjust="spacing" textLength="20" x="219" y="350.1113">to</text><text fill="#000000" font-family="sans-serif" font-size="20" lengthAdjust="spacing" textLength="59" x="125" y="373.3926">select</text><text fill="#000000" font-family="sans-serif" font-size="20" lengthAdjust="spacing" textLength="6" x="184" y="373.3926"> </text><text fill="#000000" font-family="sans-serif" font-size="20" lengthAdjust="spacing" textLength="37" x="190" y="373.3926">one</text><polygon fill="#181818" points="286,436.6719,296,440.6719,286,444.6719,290,440.6719" style="stroke:#181818;stroke-width:1.0;"/><line style="stroke:#181818;stroke-width:1.0;" x1="108" x2="292" y1="440.6719" y2="440.6719"/><text fill="#000000" font-family="sans-serif" font-size="20" lengthAdjust="spacing" textLength="69" x="115" y="410.6738">selects</text><text fill="#000000" font-family="sans-serif" font-size="20" lengthAdjust="spacing" textLength="6" x="184" y="410.6738"> </text><text fill="#000000" font-family="sans-serif" font-size="20" lengthAdjust="spacing" textLength="12" x="190" y="410.6738">a</text><text fill="#000000" font-family="sans-serif" font-size="20" lengthAdjust="spacing" textLength="6" x="202" y="410.6738"> </text><text fill="#000000" font-family="sans-serif" font-size="20" lengthAdjust="spacing" textLength="31" x="208" y="410.6738">job</text><text fill="#000000" font-family="sans-serif" font-size="20" lengthAdjust="spacing" textLength="82" x="115" y="433.9551">opening</text><polygon fill="#181818" points="588,473.9531,598,477.9531,588,481.9531,592,477.9531" style="stroke:#181818;stroke-width:1.0;"/><line style="stroke:#181818;stroke-width:1.0;stroke-dasharray:2.0,2.0;" x1="308" x2="594" y1="477.9531" y2="477.9531"/><text fill="#000000" font-family="sans-serif" font-size="20" lengthAdjust="spacing" textLength="164" x="315" y="471.2363">allApplications()</text><polygon fill="#181818" points="890,511.2344,900,515.2344,890,519.2344,894,515.2344" style="stroke:#181818;stroke-width:1.0;"/><line style="stroke:#181818;stroke-width:1.0;" x1="610" x2="896" y1="515.2344" y2="515.2344"/><text fill="#000000" font-family="sans-serif" font-size="20" lengthAdjust="spacing" textLength="164" x="617" y="508.5176">allApplications()</text><polygon fill="#181818" points="1149,548.5156,1159,552.5156,1149,556.5156,1153,552.5156" style="stroke:#181818;stroke-width:1.0;"/><line style="stroke:#181818;stroke-width:1.0;" x1="912" x2="1155" y1="552.5156" y2="552.5156"/><text fill="#000000" font-family="sans-serif" font-size="20" lengthAdjust="spacing" textLength="81" x="919" y="545.7988">findAll()</text><polygon fill="#181818" points="1408.5,585.7969,1418.5,589.7969,1408.5,593.7969,1412.5,589.7969" style="stroke:#181818;stroke-width:1.0;"/><line style="stroke:#181818;stroke-width:1.0;" x1="1171" x2="1414.5" y1="589.7969" y2="589.7969"/><text fill="#000000" font-family="sans-serif" font-size="20" lengthAdjust="spacing" textLength="81" x="1178" y="583.0801">findAll()</text><polygon fill="#181818" points="1951.5,716.2031,1961.5,720.2031,1951.5,724.2031,1955.5,720.2031" style="stroke:#181818;stroke-width:1.0;"/><line style="stroke:#181818;stroke-width:1.0;" x1="1430.5" x2="1957.5" y1="720.2031" y2="720.2031"/><text fill="#000000" font-family="sans-serif" font-size="20" lengthAdjust="spacing" textLength="217" x="1437.5" y="620.3613">createQuery("SELECT</text><text fill="#000000" font-family="sans-serif" font-size="20" lengthAdjust="spacing" textLength="12" x="1437.5" y="643.6426">a</text><text fill="#000000" font-family="sans-serif" font-size="20" lengthAdjust="spacing" textLength="6" x="1449.5" y="643.6426"> </text><text fill="#000000" font-family="sans-serif" font-size="20" lengthAdjust="spacing" textLength="59" x="1455.5" y="643.6426">FROM</text><text fill="#000000" font-family="sans-serif" font-size="20" lengthAdjust="spacing" textLength="114" x="1437.5" y="666.9238">Application</text><text fill="#000000" font-family="sans-serif" font-size="20" lengthAdjust="spacing" textLength="6" x="1551.5" y="666.9238"> </text><text fill="#000000" font-family="sans-serif" font-size="20" lengthAdjust="spacing" textLength="12" x="1557.5" y="666.9238">a</text><text fill="#000000" font-family="sans-serif" font-size="20" lengthAdjust="spacing" textLength="75" x="1437.5" y="690.2051">WHERE</text><text fill="#000000" font-family="sans-serif" font-size="20" lengthAdjust="spacing" textLength="6" x="1512.5" y="690.2051"> </text><text fill="#000000" font-family="sans-serif" font-size="20" lengthAdjust="spacing" textLength="34" x="1518.5" y="690.2051">...",</text><text fill="#000000" font-family="sans-serif" font-size="20" lengthAdjust="spacing" textLength="177" x="1437.5" y="713.4863">Application.class)</text><polygon fill="#181818" points="1441.5,768.125,1431.5,772.125,1441.5,776.125,1437.5,772.125" style="stroke:#181818;stroke-width:1.0;"/><line style="stroke:#181818;stroke-width:1.0;stroke-dasharray:2.0,2.0;" x1="1435.5" x2="1967.5" y1="772.125" y2="772.125"/><text fill="#000000" font-family="sans-serif" font-size="20" lengthAdjust="spacing" textLength="225" x="1447.5" y="765.4082">Iterable&lt;Application&gt;</text><path d="M1978,733.2031 L1978,789.2031 L2313,789.2031 L2313,743.2031 L2303,733.2031 L1978,733.2031 " fill="#FEFFDD" style="stroke:#181818;stroke-width:0.5;"/><path d="M2303,733.2031 L2303,743.2031 L2313,743.2031 L2303,733.2031 " fill="#FEFFDD" style="stroke:#181818;stroke-width:0.5;"/><text fill="#000000" font-family="sans-serif" font-size="20" lengthAdjust="spacing" textLength="314" x="1984" y="756.7676">Should only return applications</text><text fill="#000000" font-family="sans-serif" font-size="20" lengthAdjust="spacing" textLength="287" x="1990" y="780.0488">assigned to that job opening</text><polygon fill="#181818" points="1182,820.0469,1172,824.0469,1182,828.0469,1178,824.0469" style="stroke:#181818;stroke-width:1.0;"/><line style="stroke:#181818;stroke-width:1.0;stroke-dasharray:2.0,2.0;" x1="1176" x2="1424.5" y1="824.0469" y2="824.0469"/><text fill="#000000" font-family="sans-serif" font-size="20" lengthAdjust="spacing" textLength="225" x="1188" y="817.3301">Iterable&lt;Application&gt;</text><polygon fill="#181818" points="923,857.3281,913,861.3281,923,865.3281,919,861.3281" style="stroke:#181818;stroke-width:1.0;"/><line style="stroke:#181818;stroke-width:1.0;stroke-dasharray:2.0,2.0;" x1="917" x2="1165" y1="861.3281" y2="861.3281"/><text fill="#000000" font-family="sans-serif" font-size="20" lengthAdjust="spacing" textLength="225" x="929" y="854.6113">Iterable&lt;Application&gt;</text><path d="M796.5,876.3281 L890.5,876.3281 L890.5,891.6094 L880.5,901.6094 L796.5,901.6094 L796.5,876.3281 " fill="#EEEEEE" style="stroke:#000000;stroke-width:1.5;"/><rect fill="none" height="182.6875" style="stroke:#000000;stroke-width:1.5;" width="1122" x="796.5" y="876.3281"/><text fill="#000000" font-family="sans-serif" font-size="20" font-weight="bold" lengthAdjust="spacing" textLength="49" x="811.5" y="895.8926">loop</text><text fill="#000000" font-family="sans-serif" font-size="20" font-weight="bold" lengthAdjust="spacing" textLength="247" x="905.5" y="896.8926">[for each Application]</text><polygon fill="#181818" points="1615,935.1719,1625,939.1719,1615,943.1719,1619,939.1719" style="stroke:#181818;stroke-width:1.0;"/><line style="stroke:#181818;stroke-width:1.0;" x1="912" x2="1621" y1="939.1719" y2="939.1719"/><text fill="#000000" font-family="sans-serif" font-size="20" lengthAdjust="spacing" textLength="79" x="919" y="932.4551">toDTO()</text><polygon fill="#181818" points="1806,972.4531,1816,976.4531,1806,980.4531,1810,976.4531" style="stroke:#181818;stroke-width:1.0;"/><line style="stroke:#181818;stroke-width:1.0;stroke-dasharray:2.0,2.0;" x1="1637" x2="1812" y1="976.4531" y2="976.4531"/><text fill="#000000" font-family="sans-serif" font-size="20" lengthAdjust="spacing" textLength="63" x="1644" y="969.7363">create</text><polygon fill="#181818" points="1648,1009.7344,1638,1013.7344,1648,1017.7344,1644,1013.7344" style="stroke:#181818;stroke-width:1.0;"/><line style="stroke:#181818;stroke-width:1.0;stroke-dasharray:2.0,2.0;" x1="1642" x2="1822" y1="1013.7344" y2="1013.7344"/><text fill="#000000" font-family="sans-serif" font-size="20" lengthAdjust="spacing" textLength="157" x="1654" y="1007.0176">ApplicationDTO</text><polygon fill="#181818" points="923,1047.0156,913,1051.0156,923,1055.0156,919,1051.0156" style="stroke:#181818;stroke-width:1.0;"/><line style="stroke:#181818;stroke-width:1.0;stroke-dasharray:2.0,2.0;" x1="917" x2="1631" y1="1051.0156" y2="1051.0156"/><text fill="#000000" font-family="sans-serif" font-size="20" lengthAdjust="spacing" textLength="157" x="929" y="1044.2988">ApplicationDTO</text><polygon fill="#181818" points="621,1091.2969,611,1095.2969,621,1099.2969,617,1095.2969" style="stroke:#181818;stroke-width:1.0;"/><line style="stroke:#181818;stroke-width:1.0;stroke-dasharray:2.0,2.0;" x1="615" x2="906" y1="1095.2969" y2="1095.2969"/><text fill="#000000" font-family="sans-serif" font-size="20" lengthAdjust="spacing" textLength="268" x="627" y="1088.5801">Iterable&lt;ApplicationDTO&gt;</text><polygon fill="#181818" points="319,1128.5781,309,1132.5781,319,1136.5781,315,1132.5781" style="stroke:#181818;stroke-width:1.0;"/><line style="stroke:#181818;stroke-width:1.0;stroke-dasharray:2.0,2.0;" x1="313" x2="604" y1="1132.5781" y2="1132.5781"/><text fill="#000000" font-family="sans-serif" font-size="20" lengthAdjust="spacing" textLength="268" x="325" y="1125.8613">Iterable&lt;ApplicationDTO&gt;</text><polygon fill="#181818" points="114,1189.1406,104,1193.1406,114,1197.1406,110,1193.1406" style="stroke:#181818;stroke-width:1.0;"/><line style="stroke:#181818;stroke-width:1.0;stroke-dasharray:2.0,2.0;" x1="108" x2="302" y1="1193.1406" y2="1193.1406"/><text fill="#000000" font-family="sans-serif" font-size="20" lengthAdjust="spacing" textLength="35" x="120" y="1163.1426">List</text><text fill="#000000" font-family="sans-serif" font-size="20" lengthAdjust="spacing" textLength="6" x="155" y="1163.1426"> </text><text fill="#000000" font-family="sans-serif" font-size="20" lengthAdjust="spacing" textLength="19" x="161" y="1163.1426">of</text><text fill="#000000" font-family="sans-serif" font-size="20" lengthAdjust="spacing" textLength="124" x="120" y="1186.4238">Applications</text><!--SRC=[hLPHJXin4FtVKupo1HA9GYj-LWWfaA06WMW9KN_wOtOdYOjZRsqlRNg9tW2fj-XvUe5UeRFB0bx73cc5lnBFp7ipEszsrjnoMJ3Dba9bjvX3ZZDM2dkgf9tmxmXl-abYkHK84_nIeimGXfpDAG2wC9tiz_i7IM8UGK1mYNPL82Xj5yenBDct9Hh3vcWgsFs3lcCq3VHxfYtFUC6aXLBcg2ku966PLHew9wMnQeaQBfWa7Dq1PY1hBfkx92aSZCuvDtPG589dp78bf-CwPZhUw7L2jMibHCCGjRP179S9wZkUOHszVXqDky926Kwbhlp8Pqix-AnWyVYOCShliqOTXzUNlYzT9Jcpx8OPXCwm-LLx3O_h3l8xPd6zNTu5T8-eFIaCpAs16NMTaQIC1JM3p-e6L86Ioxbn4AcPG4VZ3DGT0NY0UyGFwODItyBl-vz_VlseMmfdX7VvY5T1JCVG9Ne_enGc2_NL1FC09dEgaNArYbGiC2CNacoERdx16Wdt8O10NCorofgqeZ9CWGdXMCpERXttX1CNC3Gdwb6bkgxW66EBDI1ySCwwsUDw5cmACoxpWH0EJOpAaJbu9-XLaSO69SRRuevE6GHEpBdAOdYSGgQHC3-Kg5SxdSdeV7HoJU8ulRgySBEdgu_lHbSZwFLwdJtNqii4CsOtoFsKCSqZH0wDIdVZ0nbRrEn6uA5ZFuh2IKLqciyNjfwXKkGq7695isfBJMKu2lf4VutXSqahY4R9BfXj3KK8tXcoI4tXXttOxRvAYGx_FwaW8lyghTVCQRk4X595_QAbm4NhxRzbsksfJQbxj0jsNj3WIpmULwtAzhPv79PeU8YhsbBRq7cjgEcsX0atO4lYY1Is8WyJhxcYp9F_5anyJtWPFosAa7AfWcVnXldzZR5XGJKV31k979BDop3y2P0-V33GxdUNdhVatR_-LyvV]--></g></svg>