<?xml version="1.0" encoding="UTF-8" standalone="no"?><svg xmlns="http://www.w3.org/2000/svg" xmlns:xlink="http://www.w3.org/1999/xlink" contentStyleType="text/css" height="615px" preserveAspectRatio="none" style="width:1096px;height:615px;background:#FFFFFF;" version="1.1" viewBox="0 0 1096 615" width="1096px" zoomAndPan="magnify"><defs/><g><text fill="#000000" font-family="sans-serif" font-size="14" font-weight="bold" lengthAdjust="spacing" textLength="187" x="447.75" y="22.9951">Domain Model - US1000</text><!--cluster <<aggregate>> User--><g id="cluster_&lt;&lt;aggregate&gt;&gt; User"><path d="M8.5,44.5137 L212.5,44.5137 A3.75,3.75 0 0 1 215,47.0137 L222,73.7949 L893.5,73.7949 A2.5,2.5 0 0 1 896,76.2949 L896,606.0137 A2.5,2.5 0 0 1 893.5,608.5137 L8.5,608.5137 A2.5,2.5 0 0 1 6,606.0137 L6,47.0137 A2.5,2.5 0 0 1 8.5,44.5137 " fill="#EBF5FB" style="stroke:#000000;stroke-width:1.5;"/><line style="stroke:#000000;stroke-width:1.5;" x1="6" x2="222" y1="73.7949" y2="73.7949"/><text fill="#000000" font-family="sans-serif" font-size="20" font-weight="bold" lengthAdjust="spacing" textLength="203" x="10" y="65.0781">«aggregate» User</text></g><!--class User--><g id="elem_User"><rect codeLine="21" fill="#FDEBD0" height="79.8438" id="User" rx="2.5" ry="2.5" style="stroke:#181818;stroke-width:0.5;" width="113" x="457.5" y="86.5137"/><ellipse cx="473.5" cy="126.4355" fill="#ADD1B2" rx="12" ry="12" style="stroke:#181818;stroke-width:1.0;"/><path d="M478.2188,133.9355 L469.1406,133.9355 L469.1406,119.3574 L478.2188,119.3574 L478.2188,121.8887 L472.0156,121.8887 L472.0156,125.0449 L477.6406,125.0449 L477.6406,127.5762 L472.0156,127.5762 L472.0156,131.3887 L478.2188,131.3887 L478.2188,133.9355 Z " fill="#000000"/><text fill="#000000" font-family="sans-serif" font-size="20" font-style="italic" lengthAdjust="spacing" textLength="83" x="486.5" y="110.0781">«entity»</text><text fill="#000000" font-family="sans-serif" font-size="20" font-style="italic" lengthAdjust="spacing" textLength="64" x="496" y="133.3594">«root»</text><text fill="#000000" font-family="sans-serif" font-size="20" lengthAdjust="spacing" textLength="45" x="505.5" y="156.6406">User</text></g><!--class Password--><g id="elem_Password"><rect codeLine="23" fill="#D6EAF8" height="56.5625" id="Password" rx="2.5" ry="2.5" style="stroke:#181818;stroke-width:0.5;" width="175" x="166.5" y="393.5137"/><ellipse cx="182.5" cy="421.7949" fill="#FF8B40" rx="12" ry="12" style="stroke:#181818;stroke-width:1.0;"/><path d="M182.5156,427.6387 L185.0781,415.4668 L187.9844,415.4668 L184.5156,430.0449 L180.5313,430.0449 L177.0625,415.4668 L179.9531,415.4668 L182.5156,427.6387 Z " fill="#000000"/><text fill="#000000" font-family="sans-serif" font-size="20" font-style="italic" lengthAdjust="spacing" textLength="145" x="195.5" y="417.0781">«valueObject»</text><text fill="#000000" font-family="sans-serif" font-size="20" lengthAdjust="spacing" textLength="94" x="221" y="440.3594">Password</text></g><!--class Role--><g id="elem_Role"><rect codeLine="24" fill="#D6EAF8" height="56.5625" id="Role" rx="2.5" ry="2.5" style="stroke:#181818;stroke-width:0.5;" width="175" x="640.5" y="251.5137"/><ellipse cx="656.5" cy="279.7949" fill="#FF8B40" rx="12" ry="12" style="stroke:#181818;stroke-width:1.0;"/><path d="M656.5156,285.6387 L659.0781,273.4668 L661.9844,273.4668 L658.5156,288.0449 L654.5313,288.0449 L651.0625,273.4668 L653.9531,273.4668 L656.5156,285.6387 Z " fill="#000000"/><text fill="#000000" font-family="sans-serif" font-size="20" font-style="italic" lengthAdjust="spacing" textLength="145" x="669.5" y="275.0781">«valueObject»</text><text fill="#000000" font-family="sans-serif" font-size="20" lengthAdjust="spacing" textLength="44" x="720" y="298.3594">Role</text></g><!--class IsActive--><g id="elem_IsActive"><rect codeLine="25" fill="#D6EAF8" height="56.5625" id="IsActive" rx="2.5" ry="2.5" style="stroke:#181818;stroke-width:0.5;" width="175" x="22.5" y="251.5137"/><ellipse cx="38.5" cy="279.7949" fill="#FF8B40" rx="12" ry="12" style="stroke:#181818;stroke-width:1.0;"/><path d="M38.5156,285.6387 L41.0781,273.4668 L43.9844,273.4668 L40.5156,288.0449 L36.5313,288.0449 L33.0625,273.4668 L35.9531,273.4668 L38.5156,285.6387 Z " fill="#000000"/><text fill="#000000" font-family="sans-serif" font-size="20" font-style="italic" lengthAdjust="spacing" textLength="145" x="51.5" y="275.0781">«valueObject»</text><text fill="#000000" font-family="sans-serif" font-size="20" lengthAdjust="spacing" textLength="78" x="85" y="298.3594">IsActive</text></g><!--class Authentication--><g id="elem_Authentication"><rect codeLine="27" fill="#D1F2EB" height="56.5625" id="Authentication" rx="2.5" ry="2.5" style="stroke:#181818;stroke-width:0.5;" width="183" x="422.5" y="251.5137"/><ellipse cx="438.5" cy="279.7949" fill="#85C1E9" rx="12" ry="12" style="stroke:#181818;stroke-width:1.0;"/><path d="M437.9844,280.9043 Q435.7969,280.0605 435.0313,279.1543 Q434.2656,278.248 434.2656,276.7012 Q434.2656,274.7168 435.5313,273.5918 Q436.7969,272.4512 439.0156,272.4512 Q440.0156,272.4512 441.0156,272.6855 Q442.0313,272.9043 443.0156,273.3574 L443.0156,276.1699 Q442.0938,275.5137 441.125,275.1699 Q440.1719,274.8262 439.2344,274.8262 Q438.2031,274.8262 437.6406,275.248 Q437.0781,275.6699 437.0781,276.4512 Q437.0781,277.0605 437.4844,277.4668 Q437.8906,277.8574 439.1875,278.3262 L440.4219,278.7949 Q442.1875,279.4355 443.0156,280.5137 Q443.8438,281.5762 443.8438,283.1855 Q443.8438,285.4043 442.5313,286.498 Q441.2344,287.5762 438.5938,287.5762 Q437.5156,287.5762 436.4219,287.3105 Q435.3281,287.0605 434.3125,286.5449 L434.3125,283.5762 Q435.4688,284.3887 436.5469,284.7949 Q437.625,285.2012 438.6875,285.2012 Q439.75,285.2012 440.3281,284.7168 Q440.9219,284.2324 440.9219,283.3574 Q440.9219,282.7012 440.5313,282.2168 Q440.1406,281.7168 439.3906,281.4355 L437.9844,280.9043 Z " fill="#000000"/><text fill="#000000" font-family="sans-serif" font-size="20" font-style="italic" lengthAdjust="spacing" textLength="95" x="480.5" y="275.0781">«service»</text><text fill="#000000" font-family="sans-serif" font-size="20" lengthAdjust="spacing" textLength="149" x="453.5" y="298.3594">Authentication</text></g><!--class Token--><g id="elem_Token"><rect codeLine="29" fill="#D6EAF8" height="56.5625" id="Token" rx="2.5" ry="2.5" style="stroke:#181818;stroke-width:0.5;" width="175" x="704.5" y="393.5137"/><ellipse cx="720.5" cy="421.7949" fill="#FF8B40" rx="12" ry="12" style="stroke:#181818;stroke-width:1.0;"/><path d="M720.5156,427.6387 L723.0781,415.4668 L725.9844,415.4668 L722.5156,430.0449 L718.5313,430.0449 L715.0625,415.4668 L717.9531,415.4668 L720.5156,427.6387 Z " fill="#000000"/><text fill="#000000" font-family="sans-serif" font-size="20" font-style="italic" lengthAdjust="spacing" textLength="145" x="733.5" y="417.0781">«valueObject»</text><text fill="#000000" font-family="sans-serif" font-size="20" lengthAdjust="spacing" textLength="61" x="775.5" y="440.3594">Token</text></g><!--class createdOn--><g id="elem_createdOn"><rect codeLine="30" fill="#D6EAF8" height="56.5625" id="createdOn" rx="2.5" ry="2.5" style="stroke:#181818;stroke-width:0.5;" width="175" x="376.5" y="393.5137"/><ellipse cx="392.5" cy="421.7949" fill="#FF8B40" rx="12" ry="12" style="stroke:#181818;stroke-width:1.0;"/><path d="M392.5156,427.6387 L395.0781,415.4668 L397.9844,415.4668 L394.5156,430.0449 L390.5313,430.0449 L387.0625,415.4668 L389.9531,415.4668 L392.5156,427.6387 Z " fill="#000000"/><text fill="#000000" font-family="sans-serif" font-size="20" font-style="italic" lengthAdjust="spacing" textLength="145" x="405.5" y="417.0781">«valueObject»</text><text fill="#000000" font-family="sans-serif" font-size="20" lengthAdjust="spacing" textLength="105" x="425.5" y="440.3594">createdOn</text></g><!--class PasswordPolicy--><g id="elem_PasswordPolicy"><rect codeLine="31" fill="#D1F2EB" height="56.5625" id="PasswordPolicy" rx="2.5" ry="2.5" style="stroke:#181818;stroke-width:0.5;" width="186" x="92" y="535.5137"/><ellipse cx="108" cy="563.7949" fill="#85C1E9" rx="12" ry="12" style="stroke:#181818;stroke-width:1.0;"/><path d="M107.4844,564.9043 Q105.2969,564.0605 104.5313,563.1543 Q103.7656,562.248 103.7656,560.7012 Q103.7656,558.7168 105.0313,557.5918 Q106.2969,556.4512 108.5156,556.4512 Q109.5156,556.4512 110.5156,556.6855 Q111.5313,556.9043 112.5156,557.3574 L112.5156,560.1699 Q111.5938,559.5137 110.625,559.1699 Q109.6719,558.8262 108.7344,558.8262 Q107.7031,558.8262 107.1406,559.248 Q106.5781,559.6699 106.5781,560.4512 Q106.5781,561.0605 106.9844,561.4668 Q107.3906,561.8574 108.6875,562.3262 L109.9219,562.7949 Q111.6875,563.4355 112.5156,564.5137 Q113.3438,565.5762 113.3438,567.1855 Q113.3438,569.4043 112.0313,570.498 Q110.7344,571.5762 108.0938,571.5762 Q107.0156,571.5762 105.9219,571.3105 Q104.8281,571.0605 103.8125,570.5449 L103.8125,567.5762 Q104.9688,568.3887 106.0469,568.7949 Q107.125,569.2012 108.1875,569.2012 Q109.25,569.2012 109.8281,568.7168 Q110.4219,568.2324 110.4219,567.3574 Q110.4219,566.7012 110.0313,566.2168 Q109.6406,565.7168 108.8906,565.4355 L107.4844,564.9043 Z " fill="#000000"/><text fill="#000000" font-family="sans-serif" font-size="20" font-style="italic" lengthAdjust="spacing" textLength="95" x="151.5" y="559.0781">«service»</text><text fill="#000000" font-family="sans-serif" font-size="20" lengthAdjust="spacing" textLength="152" x="123" y="582.3594">PasswordPolicy</text></g><!--class PasswordEncoder--><g id="elem_PasswordEncoder"><rect codeLine="32" fill="#D1F2EB" height="56.5625" id="PasswordEncoder" rx="2.5" ry="2.5" style="stroke:#181818;stroke-width:0.5;" width="210" x="387" y="535.5137"/><ellipse cx="403" cy="563.7949" fill="#85C1E9" rx="12" ry="12" style="stroke:#181818;stroke-width:1.0;"/><path d="M402.4844,564.9043 Q400.2969,564.0605 399.5313,563.1543 Q398.7656,562.248 398.7656,560.7012 Q398.7656,558.7168 400.0313,557.5918 Q401.2969,556.4512 403.5156,556.4512 Q404.5156,556.4512 405.5156,556.6855 Q406.5313,556.9043 407.5156,557.3574 L407.5156,560.1699 Q406.5938,559.5137 405.625,559.1699 Q404.6719,558.8262 403.7344,558.8262 Q402.7031,558.8262 402.1406,559.248 Q401.5781,559.6699 401.5781,560.4512 Q401.5781,561.0605 401.9844,561.4668 Q402.3906,561.8574 403.6875,562.3262 L404.9219,562.7949 Q406.6875,563.4355 407.5156,564.5137 Q408.3438,565.5762 408.3438,567.1855 Q408.3438,569.4043 407.0313,570.498 Q405.7344,571.5762 403.0938,571.5762 Q402.0156,571.5762 400.9219,571.3105 Q399.8281,571.0605 398.8125,570.5449 L398.8125,567.5762 Q399.9688,568.3887 401.0469,568.7949 Q402.125,569.2012 403.1875,569.2012 Q404.25,569.2012 404.8281,568.7168 Q405.4219,568.2324 405.4219,567.3574 Q405.4219,566.7012 405.0313,566.2168 Q404.6406,565.7168 403.8906,565.4355 L402.4844,564.9043 Z " fill="#000000"/><text fill="#000000" font-family="sans-serif" font-size="20" font-style="italic" lengthAdjust="spacing" textLength="95" x="458.5" y="559.0781">«service»</text><text fill="#000000" font-family="sans-serif" font-size="20" lengthAdjust="spacing" textLength="176" x="418" y="582.3594">PasswordEncoder</text></g><!--class Email--><g id="elem_Email"><rect codeLine="35" fill="#D6EAF8" height="56.5625" id="Email" rx="2.5" ry="2.5" style="stroke:#181818;stroke-width:0.5;" width="175" x="914.5" y="393.5137"/><ellipse cx="930.5" cy="421.7949" fill="#FF8B40" rx="12" ry="12" style="stroke:#181818;stroke-width:1.0;"/><path d="M930.5156,427.6387 L933.0781,415.4668 L935.9844,415.4668 L932.5156,430.0449 L928.5313,430.0449 L925.0625,415.4668 L927.9531,415.4668 L930.5156,427.6387 Z " fill="#000000"/><text fill="#000000" font-family="sans-serif" font-size="20" font-style="italic" lengthAdjust="spacing" textLength="145" x="943.5" y="417.0781">«valueObject»</text><text fill="#000000" font-family="sans-serif" font-size="20" lengthAdjust="spacing" textLength="57" x="987.5" y="440.3594">Email</text></g><!--link User to Email--><g id="link_User_Email"><path codeLine="39" d="M570.6,139.3837 C619.6,150.7237 691.72,170.0337 751,196.5137 C860,245.2137 907.44,242.9637 979,338.5137 C989.74,352.8537 995.47,371.9837 998.52,388.2037 " fill="none" id="User-to-Email" style="stroke:#000000;stroke-width:1.0;"/><polygon fill="#000000" points="999.38,393.1437,1001.7788,383.5914,998.5233,388.2176,993.8971,384.9621,999.38,393.1437" style="stroke:#000000;stroke-width:1.0;"/><text fill="#000000" font-family="sans-serif" font-size="20" lengthAdjust="spacing" textLength="35" x="954" y="287.0781">has</text><text fill="#000000" font-family="sans-serif" font-size="20" lengthAdjust="spacing" textLength="13" x="578.6847" y="161.0986">1</text><text fill="#000000" font-family="sans-serif" font-size="20" lengthAdjust="spacing" textLength="13" x="984.5845" y="380.831">1</text></g><!--link User to Password--><g id="link_User_Password"><path codeLine="40" d="M457.39,162.1137 C402.16,198.9237 320.07,262.2837 275,338.5137 C266.15,353.4837 261,372.1337 258.01,387.9037 " fill="none" id="User-to-Password" style="stroke:#000000;stroke-width:1.0;"/><polygon fill="#000000" points="257.08,393.1337,262.59,384.9703,257.953,388.2105,254.7129,383.5735,257.08,393.1337" style="stroke:#000000;stroke-width:1.0;"/><text fill="#000000" font-family="sans-serif" font-size="20" lengthAdjust="spacing" textLength="35" x="346" y="287.0781">has</text><text fill="#000000" font-family="sans-serif" font-size="20" lengthAdjust="spacing" textLength="13" x="436.304" y="160.794">1</text><text fill="#000000" font-family="sans-serif" font-size="20" lengthAdjust="spacing" textLength="13" x="243.4067" y="380.8191">1</text></g><!--link User to Role--><g id="link_User_Role"><path codeLine="41" d="M570.7,138.4537 C608.16,148.1937 656.22,165.8237 689,196.5137 C703.26,209.8537 712.82,229.4737 718.91,246.2337 " fill="none" id="User-to-Role" style="stroke:#000000;stroke-width:1.0;"/><polygon fill="#000000" points="720.69,251.3337,721.5148,241.5194,719.0491,246.6106,713.9579,244.1449,720.69,251.3337" style="stroke:#000000;stroke-width:1.0;"/><text fill="#000000" font-family="sans-serif" font-size="20" lengthAdjust="spacing" textLength="35" x="707" y="216.0781">has</text><text fill="#000000" font-family="sans-serif" font-size="20" lengthAdjust="spacing" textLength="13" x="578.4025" y="134.0984">1</text><text fill="#000000" font-family="sans-serif" font-size="20" lengthAdjust="spacing" textLength="13" x="704.8417" y="238.6851">1</text></g><!--link User to IsActive--><g id="link_User_IsActive"><path codeLine="42" d="M457.24,129.6637 C389.68,134.3737 275.3,149.3237 190,196.5137 C167.44,208.9937 147.27,229.8937 132.83,247.5337 " fill="none" id="User-to-IsActive" style="stroke:#000000;stroke-width:1.0;"/><polygon fill="#000000" points="129.65,251.4837,138.4099,246.982,132.7857,247.5891,132.1786,241.9649,129.65,251.4837" style="stroke:#000000;stroke-width:1.0;"/><text fill="#000000" font-family="sans-serif" font-size="20" lengthAdjust="spacing" textLength="67" x="191" y="216.0781">can be</text><text fill="#000000" font-family="sans-serif" font-size="20" lengthAdjust="spacing" textLength="13" x="436.5302" y="124.2371">1</text><text fill="#000000" font-family="sans-serif" font-size="20" lengthAdjust="spacing" textLength="13" x="119.3622" y="238.8661">1</text></g><!--link User to Authentication--><g id="link_User_Authentication"><path codeLine="43" d="M512.49,166.8437 C512.01,183.6837 511.69,203.5637 512,221.5137 C512.14,229.3837 512.38,237.8637 512.65,245.8237 " fill="none" id="User-to-Authentication" style="stroke:#000000;stroke-width:1.0;"/><polygon fill="#000000" points="512.84,251.2337,516.5032,242.0914,512.6544,246.2371,508.5087,242.3883,512.84,251.2337" style="stroke:#000000;stroke-width:1.0;"/><text fill="#000000" font-family="sans-serif" font-size="20" lengthAdjust="spacing" textLength="171" x="513" y="216.0781">authenticated by</text><text fill="#000000" font-family="sans-serif" font-size="20" lengthAdjust="spacing" textLength="13" x="498.3135" y="193.0528">1</text><text fill="#000000" font-family="sans-serif" font-size="20" lengthAdjust="spacing" textLength="13" x="498.2601" y="238.5645">1</text></g><!--link Authentication to Email--><g id="link_Authentication_Email"><path codeLine="46" d="M605.52,304.3937 C611.43,305.8137 617.3,307.1937 623,308.5137 C686.27,323.1237 706.36,312.8137 766,338.5137 C783.89,346.2237 784.4,355.1537 802,363.5137 C812.41,368.4637 862.14,382.7637 909.41,395.8637 " fill="none" id="Authentication-to-Email" style="stroke:#000000;stroke-width:1.0;stroke-dasharray:7.0,7.0;"/><polygon fill="#000000" points="914.27,397.2137,906.6584,390.9636,909.4502,395.8836,904.5302,398.6754,914.27,397.2137" style="stroke:#000000;stroke-width:1.0;"/><text fill="#000000" font-family="sans-serif" font-size="20" lengthAdjust="spacing" textLength="171" x="803" y="358.0781">authenticated by</text><text fill="#000000" font-family="sans-serif" font-size="20" lengthAdjust="spacing" textLength="13" x="613.6373" y="301.0545">1</text><text fill="#000000" font-family="sans-serif" font-size="20" lengthAdjust="spacing" textLength="13" x="893.4666" y="389.8018">1</text></g><!--link Authentication to Password--><g id="link_Authentication_Password"><path codeLine="47" d="M422.31,291.4237 C383.51,299.4137 339.61,313.5437 306,338.5137 C288.86,351.2537 275.98,371.4637 267.33,388.6937 " fill="none" id="Authentication-to-Password" style="stroke:#000000;stroke-width:1.0;stroke-dasharray:7.0,7.0;"/><polygon fill="#000000" points="265.01,393.4737,272.5481,387.1351,267.2001,388.9789,265.3564,383.6309,265.01,393.4737" style="stroke:#000000;stroke-width:1.0;"/><text fill="#000000" font-family="sans-serif" font-size="20" lengthAdjust="spacing" textLength="171" x="307" y="358.0781">authenticated by</text><text fill="#000000" font-family="sans-serif" font-size="20" lengthAdjust="spacing" textLength="13" x="401.4855" y="287.0096">1</text><text fill="#000000" font-family="sans-serif" font-size="20" lengthAdjust="spacing" textLength="13" x="268.6214" y="380.854">1</text></g><!--link Authentication to Token--><g id="link_Authentication_Token"><path codeLine="48" d="M570.15,308.6437 C587.65,317.7137 606.86,328.1337 624,338.5137 C640.66,348.6037 642.99,354.0237 660,363.5137 C677.91,373.5037 697.9,383.0037 716.79,391.2837 " fill="none" id="Authentication-to-Token" style="stroke:#000000;stroke-width:1.0;stroke-dasharray:7.0,7.0;"/><polygon fill="#000000" points="721.57,393.3637,714.9195,386.0993,716.9869,391.3648,711.7214,393.4322,721.57,393.3637" style="stroke:#000000;stroke-width:1.0;"/><text fill="#000000" font-family="sans-serif" font-size="20" lengthAdjust="spacing" textLength="100" x="661" y="358.0781">generates</text><text fill="#000000" font-family="sans-serif" font-size="20" lengthAdjust="spacing" textLength="13" x="566.3042" y="334.6734">1</text><text fill="#000000" font-family="sans-serif" font-size="20" lengthAdjust="spacing" textLength="13" x="692.7032" y="380.7213">1</text></g><!--link Authentication to createdOn--><g id="link_Authentication_createdOn"><path codeLine="49" d="M504.12,308.6737 C495.9,331.6837 484.19,364.4737 475.54,388.6837 " fill="none" id="Authentication-to-createdOn" style="stroke:#000000;stroke-width:1.0;stroke-dasharray:7.0,7.0;"/><polygon fill="#000000" points="473.86,393.4137,480.6567,386.2859,475.5435,388.7056,473.1238,383.5924,473.86,393.4137" style="stroke:#000000;stroke-width:1.0;"/><text fill="#000000" font-family="sans-serif" font-size="20" lengthAdjust="spacing" textLength="100" x="493" y="358.0781">generates</text><text fill="#000000" font-family="sans-serif" font-size="20" lengthAdjust="spacing" textLength="13" x="488.0999" y="334.7089">1</text><text fill="#000000" font-family="sans-serif" font-size="20" lengthAdjust="spacing" textLength="13" x="461.553" y="380.7816">1</text></g><!--link Authentication to PasswordPolicy--><g id="link_Authentication_PasswordPolicy"><path codeLine="50" d="M422.43,301.4437 C296.93,329.8837 85.69,379.4837 75,393.5137 C39.6,439.9637 96.76,497.6837 141.06,532.3637 " fill="none" id="Authentication-to-PasswordPolicy" style="stroke:#000000;stroke-width:1.0;stroke-dasharray:7.0,7.0;"/><polygon fill="#000000" points="145.04,535.4437,140.3829,526.7655,141.0902,532.3779,135.4777,533.0852,145.04,535.4437" style="stroke:#000000;stroke-width:1.0;"/><text fill="#000000" font-family="sans-serif" font-size="20" lengthAdjust="spacing" textLength="72" x="76" y="429.0781">applies</text><text fill="#000000" font-family="sans-serif" font-size="20" lengthAdjust="spacing" textLength="13" x="401.615" y="322.6609">1</text><text fill="#000000" font-family="sans-serif" font-size="20" lengthAdjust="spacing" textLength="13" x="122.4576" y="522.8178">1</text></g><!--link Authentication to PasswordEncoder--><g id="link_Authentication_PasswordEncoder"><path codeLine="51" d="M574,308.5437 C585.24,316.5537 595.49,326.4737 602,338.5137 C607.29,348.2837 604,352.5837 602,363.5137 C590.06,428.6337 546.7,493.8937 518.12,531.2637 " fill="none" id="Authentication-to-PasswordEncoder" style="stroke:#000000;stroke-width:1.0;stroke-dasharray:7.0,7.0;"/><polygon fill="#000000" points="515.05,535.2437,523.7177,530.567,518.1068,531.2869,517.3869,525.6761,515.05,535.2437" style="stroke:#000000;stroke-width:1.0;"/><text fill="#000000" font-family="sans-serif" font-size="20" lengthAdjust="spacing" textLength="45" x="594" y="429.0781">uses</text><text fill="#000000" font-family="sans-serif" font-size="20" lengthAdjust="spacing" textLength="13" x="586.2609" y="334.5549">1</text><text fill="#000000" font-family="sans-serif" font-size="20" lengthAdjust="spacing" textLength="13" x="505.4634" y="522.5766">1</text></g><!--link Password to PasswordPolicy--><g id="link_Password_PasswordPolicy"><path codeLine="54" d="M222.05,450.6037 C213.68,459.3637 205.49,469.6337 200,480.5137 C192.29,495.8137 188.5,514.4837 186.65,530.1937 " fill="none" id="Password-to-PasswordPolicy" style="stroke:#000000;stroke-width:1.0;stroke-dasharray:7.0,7.0;"/><polygon fill="#000000" points="186.1,535.3937,191.0291,526.867,186.6286,530.4217,183.074,526.0212,186.1,535.3937" style="stroke:#000000;stroke-width:1.0;"/><text fill="#000000" font-family="sans-serif" font-size="20" lengthAdjust="spacing" textLength="72" x="201" y="500.0781">applies</text><text fill="#000000" font-family="sans-serif" font-size="20" lengthAdjust="spacing" textLength="13" x="201.9608" y="476.626">1</text><text fill="#000000" font-family="sans-serif" font-size="20" lengthAdjust="spacing" textLength="13" x="171.9862" y="522.7575">1</text></g><!--link Password to PasswordEncoder--><g id="link_Password_PasswordEncoder"><path codeLine="55" d="M301.02,450.6737 C341.28,474.3537 399.14,508.3937 440.61,532.7837 " fill="none" id="Password-to-PasswordEncoder" style="stroke:#000000;stroke-width:1.0;stroke-dasharray:7.0,7.0;"/><polygon fill="#000000" points="445.08,535.4137,439.3379,527.4119,440.7663,532.8854,435.2927,534.3138,445.08,535.4137" style="stroke:#000000;stroke-width:1.0;"/><text fill="#000000" font-family="sans-serif" font-size="20" lengthAdjust="spacing" textLength="45" x="389" y="500.0781">uses</text><text fill="#000000" font-family="sans-serif" font-size="20" lengthAdjust="spacing" textLength="13" x="295.4909" y="476.7089">1</text><text fill="#000000" font-family="sans-serif" font-size="20" lengthAdjust="spacing" textLength="13" x="421.0621" y="522.7816">1</text></g><!--SRC=[bPHHRzem4CVVyobEzA6RLAfGhHj54H8fYJHfKwlHxjquj-3Xs97ZK6NLllikoH8Wf1Hu077t_vtl_huaMmkLCiCIgVaQ8uZm5ykb3RMo2_47uSPr72kiH9ZhX0a5ttM44eRml1YvBYLN8aB09BK599WiqMJEPTOKXMz2eIrI16tiIZlEDiCbop9uTO0-FkFhsEXSHVTQQkDv6oPpV5Z-HcwdKxYOVmvcuRXVQhIkDE4yyETkloP3in4SgrAZy2Rm-sHK8WZlWYzLRcQCVgd3lYITytUtzvGYBCR-xk4YyCFRq2-HItYcis4MnmPZPj5fo87diIP8RPMgmVzogCZleWOzh_v7adRILwfRwce37-dhHPi8kgPvteUVLpHJEFO_kHzhRelzq7IZvo5VinctOdCQjiFDShigf-3C2grWzpQ8N10vlhqV1NU7v9DUepgpIswGB8qUpkKQ7n-r5Bnujyj3C52SdWppBaaJrc10ZvCypSncZmpAoiHi9TBCgKA3qG26msdrMrUSm8hr9Dj5UIDVRSGRkVRg9y2PWYKUIZgtF06s3T1hPLcKGtH4- -DqacNHw-lzmGvg7c5svZq7gtTk0Z4gDAG_sjTssKu4Ebj6hQMf5ASnpO9D8C-883lR4VUDRCCddNnKtJtJ-GS0]--></g></svg>