<?xml version="1.0" encoding="UTF-8" standalone="no"?><svg xmlns="http://www.w3.org/2000/svg" xmlns:xlink="http://www.w3.org/1999/xlink" contentStyleType="text/css" height="658px" preserveAspectRatio="none" style="width:1546px;height:658px;background:#FFFFFF;" version="1.1" viewBox="0 0 1546 658" width="1546px" zoomAndPan="magnify"><defs/><g><text fill="#000000" font-family="sans-serif" font-size="14" font-weight="bold" lengthAdjust="spacing" textLength="188" x="672.25" y="22.9951">Class Diagram - US1014</text><!--class UI--><g id="elem_UI"><rect codeLine="13" fill="#FEF9E7" height="50" id="UI" rx="2.5" ry="2.5" style="stroke:#181818;stroke-width:0.5;" width="175" x="671" y="44.2969"/><ellipse cx="687" cy="61.2969" fill="#ADD1B2" rx="12" ry="12" style="stroke:#181818;stroke-width:1.0;"/><path d="M690.0625,68.375 Q689.375,68.7344 688.625,68.9063 Q687.875,69.0781 687.0469,69.0781 Q684.0938,69.0781 682.5313,67.1406 Q680.9844,65.1875 680.9844,61.5156 Q680.9844,57.8438 682.5313,55.9063 Q684.0938,53.9531 687.0469,53.9531 Q687.875,53.9531 688.625,54.125 Q689.3906,54.2969 690.0625,54.6563 L690.0625,57.8594 Q689.3125,57.1719 688.6094,56.8594 Q687.9219,56.5469 687.1719,56.5469 Q685.5938,56.5469 684.7813,57.7969 Q683.9844,59.0469 683.9844,61.5156 Q683.9844,63.9844 684.7813,65.2344 Q685.5938,66.4844 687.1719,66.4844 Q687.9219,66.4844 688.6094,66.1719 Q689.3125,65.8594 690.0625,65.1719 L690.0625,68.375 Z " fill="#000000"/><text fill="#000000" font-family="sans-serif" font-size="20" lengthAdjust="spacing" textLength="141" x="702" y="68.2207">DisplayDataUI</text><line style="stroke:#181818;stroke-width:0.5;" x1="672" x2="845" y1="78.2969" y2="78.2969"/><line style="stroke:#181818;stroke-width:0.5;" x1="672" x2="845" y1="86.2969" y2="86.2969"/></g><!--class Controller--><g id="elem_Controller"><rect codeLine="15" fill="#FEF9E7" height="96.5625" id="Controller" rx="2.5" ry="2.5" style="stroke:#181818;stroke-width:0.5;" width="609" x="454" y="154.2969"/><ellipse cx="644.5" cy="171.2969" fill="#ADD1B2" rx="12" ry="12" style="stroke:#181818;stroke-width:1.0;"/><path d="M647.5625,178.375 Q646.875,178.7344 646.125,178.9063 Q645.375,179.0781 644.5469,179.0781 Q641.5938,179.0781 640.0313,177.1406 Q638.4844,175.1875 638.4844,171.5156 Q638.4844,167.8438 640.0313,165.9063 Q641.5938,163.9531 644.5469,163.9531 Q645.375,163.9531 646.125,164.125 Q646.8906,164.2969 647.5625,164.6563 L647.5625,167.8594 Q646.8125,167.1719 646.1094,166.8594 Q645.4219,166.5469 644.6719,166.5469 Q643.0938,166.5469 642.2813,167.7969 Q641.4844,169.0469 641.4844,171.5156 Q641.4844,173.9844 642.2813,175.2344 Q643.0938,176.4844 644.6719,176.4844 Q645.4219,176.4844 646.1094,176.1719 Q646.8125,175.8594 647.5625,175.1719 L647.5625,178.375 Z " fill="#000000"/><text fill="#000000" font-family="sans-serif" font-size="20" lengthAdjust="spacing" textLength="219" x="666.5" y="178.2207">DisplayDataController</text><line style="stroke:#181818;stroke-width:0.5;" x1="455" x2="1062" y1="188.2969" y2="188.2969"/><line style="stroke:#181818;stroke-width:0.5;" x1="455" x2="1062" y1="196.2969" y2="196.2969"/><ellipse cx="465" cy="213.4375" fill="#84BE84" rx="3" ry="3" style="stroke:#038048;stroke-width:1.0;"/><text fill="#000000" font-family="sans-serif" font-size="20" lengthAdjust="spacing" textLength="582" x="475" y="218.8613">getApplicationRequirementFile(Application):Requirement</text><ellipse cx="465" cy="236.7188" fill="#84BE84" rx="3" ry="3" style="stroke:#038048;stroke-width:1.0;"/><text fill="#000000" font-family="sans-serif" font-size="20" lengthAdjust="spacing" textLength="506" x="475" y="242.1426">getApplicationInterviewFile(Application):Interview</text></g><!--class DB--><g id="elem_DB"><rect codeLine="20" fill="#FEF9E7" height="50" id="DB" rx="2.5" ry="2.5" style="stroke:#181818;stroke-width:0.5;" width="128" x="434.5" y="601.2969"/><ellipse cx="450.5" cy="618.2969" fill="#8BEBFF" rx="12" ry="12" style="stroke:#181818;stroke-width:1.0;"/><path d="M450.7188,613.8125 L450.7188,623.2031 L451.5,623.2031 Q453.2031,623.2031 453.9219,622.1406 Q454.6406,621.0625 454.6406,618.4844 Q454.6406,615.9375 453.9219,614.875 Q453.2031,613.8125 451.5,613.8125 L450.7188,613.8125 Z M447.8438,611.2188 L450.9219,611.2188 Q454.5,611.2188 456.0625,612.9219 Q457.6406,614.625 457.6406,618.4844 Q457.6406,622.375 456.0625,624.0938 Q454.5,625.7969 450.9219,625.7969 L447.8438,625.7969 L447.8438,611.2188 Z " fill="#000000"/><text fill="#000000" font-family="sans-serif" font-size="20" lengthAdjust="spacing" textLength="94" x="465.5" y="625.2207">Database</text><line style="stroke:#181818;stroke-width:0.5;" x1="435.5" x2="561.5" y1="635.2969" y2="635.2969"/><line style="stroke:#181818;stroke-width:0.5;" x1="435.5" x2="561.5" y1="643.2969" y2="643.2969"/></g><!--class RequirementRepository--><g id="elem_RequirementRepository"><rect codeLine="23" fill="#FEF9E7" height="73.2813" id="RequirementRepository" rx="2.5" ry="2.5" style="stroke:#181818;stroke-width:0.5;" width="463" x="7" y="323.2969"/><ellipse cx="115.5" cy="340.2969" fill="#FFFF99" rx="12" ry="12" style="stroke:#181818;stroke-width:1.0;"/><path d="M116.875,340.9063 Q117.3125,341 117.625,341.3281 Q117.9531,341.6406 118.4063,342.5469 L121.0469,347.7969 L117.875,347.7969 L116.125,344.1094 Q116.0469,343.9531 115.9219,343.6875 Q115.1406,342.0313 114.0938,342.0313 L113.1875,342.0313 L113.1875,347.7969 L110.2969,347.7969 L110.2969,333.2188 L114.4531,333.2188 Q117.2656,333.2188 118.4844,334.2188 Q119.7188,335.2031 119.7188,337.4531 Q119.7188,338.9531 118.9844,339.8438 Q118.2656,340.7344 116.875,340.9063 Z M113.1875,335.6406 L113.1875,339.6094 L114.5313,339.6094 Q115.7188,339.6094 116.2344,339.1563 Q116.75,338.6875 116.75,337.625 Q116.75,336.5625 116.2344,336.1094 Q115.7344,335.6406 114.5313,335.6406 L113.1875,335.6406 Z " fill="#000000"/><text fill="#000000" font-family="sans-serif" font-size="20" lengthAdjust="spacing" textLength="237" x="137.5" y="347.2207">RequirementRepository</text><line style="stroke:#181818;stroke-width:0.5;" x1="8" x2="469" y1="357.2969" y2="357.2969"/><line style="stroke:#181818;stroke-width:0.5;" x1="8" x2="469" y1="365.2969" y2="365.2969"/><ellipse cx="18" cy="382.4375" fill="#84BE84" rx="3" ry="3" style="stroke:#038048;stroke-width:1.0;"/><text fill="#000000" font-family="sans-serif" font-size="20" lengthAdjust="spacing" textLength="436" x="28" y="387.8613">findRequirement(application):Requirement</text></g><!--class JpaRequirementsRepository--><g id="elem_JpaRequirementsRepository"><rect codeLine="27" fill="#FEF9E7" height="73.2813" id="JpaRequirementsRepository" rx="2.5" ry="2.5" style="stroke:#181818;stroke-width:0.5;" width="463" x="7" y="468.2969"/><ellipse cx="95" cy="485.2969" fill="#FFFF99" rx="12" ry="12" style="stroke:#181818;stroke-width:1.0;"/><path d="M96.375,485.9063 Q96.8125,486 97.125,486.3281 Q97.4531,486.6406 97.9063,487.5469 L100.5469,492.7969 L97.375,492.7969 L95.625,489.1094 Q95.5469,488.9531 95.4219,488.6875 Q94.6406,487.0313 93.5938,487.0313 L92.6875,487.0313 L92.6875,492.7969 L89.7969,492.7969 L89.7969,478.2188 L93.9531,478.2188 Q96.7656,478.2188 97.9844,479.2188 Q99.2188,480.2031 99.2188,482.4531 Q99.2188,483.9531 98.4844,484.8438 Q97.7656,485.7344 96.375,485.9063 Z M92.6875,480.6406 L92.6875,484.6094 L94.0313,484.6094 Q95.2188,484.6094 95.7344,484.1563 Q96.25,483.6875 96.25,482.625 Q96.25,481.5625 95.7344,481.1094 Q95.2344,480.6406 94.0313,480.6406 L92.6875,480.6406 Z " fill="#000000"/><text fill="#000000" font-family="sans-serif" font-size="20" lengthAdjust="spacing" textLength="278" x="117" y="492.2207">JpaRequirementsRepository</text><line style="stroke:#181818;stroke-width:0.5;" x1="8" x2="469" y1="502.2969" y2="502.2969"/><line style="stroke:#181818;stroke-width:0.5;" x1="8" x2="469" y1="510.2969" y2="510.2969"/><ellipse cx="18" cy="527.4375" fill="#84BE84" rx="3" ry="3" style="stroke:#038048;stroke-width:1.0;"/><text fill="#000000" font-family="sans-serif" font-size="20" lengthAdjust="spacing" textLength="436" x="28" y="532.8613">findRequirement(application):Requirement</text></g><!--class InterviewRepository--><g id="elem_InterviewRepository"><rect codeLine="30" fill="#FEF9E7" height="73.2813" id="InterviewRepository" rx="2.5" ry="2.5" style="stroke:#181818;stroke-width:0.5;" width="507" x="505" y="323.2969"/><ellipse cx="654.5" cy="340.2969" fill="#FFFF99" rx="12" ry="12" style="stroke:#181818;stroke-width:1.0;"/><path d="M655.875,340.9063 Q656.3125,341 656.625,341.3281 Q656.9531,341.6406 657.4063,342.5469 L660.0469,347.7969 L656.875,347.7969 L655.125,344.1094 Q655.0469,343.9531 654.9219,343.6875 Q654.1406,342.0313 653.0938,342.0313 L652.1875,342.0313 L652.1875,347.7969 L649.2969,347.7969 L649.2969,333.2188 L653.4531,333.2188 Q656.2656,333.2188 657.4844,334.2188 Q658.7188,335.2031 658.7188,337.4531 Q658.7188,338.9531 657.9844,339.8438 Q657.2656,340.7344 655.875,340.9063 Z M652.1875,335.6406 L652.1875,339.6094 L653.5313,339.6094 Q654.7188,339.6094 655.2344,339.1563 Q655.75,338.6875 655.75,337.625 Q655.75,336.5625 655.2344,336.1094 Q654.7344,335.6406 653.5313,335.6406 L652.1875,335.6406 Z " fill="#000000"/><text fill="#000000" font-family="sans-serif" font-size="20" lengthAdjust="spacing" textLength="199" x="676.5" y="347.2207">InterviewRepository</text><line style="stroke:#181818;stroke-width:0.5;" x1="506" x2="1011" y1="357.2969" y2="357.2969"/><line style="stroke:#181818;stroke-width:0.5;" x1="506" x2="1011" y1="365.2969" y2="365.2969"/><ellipse cx="516" cy="382.4375" fill="#84BE84" rx="3" ry="3" style="stroke:#038048;stroke-width:1.0;"/><text fill="#000000" font-family="sans-serif" font-size="20" lengthAdjust="spacing" textLength="480" x="526" y="387.8613">findInterviewByApplication(interview):Interview</text></g><!--class JpaInterviewRepository--><g id="elem_JpaInterviewRepository"><rect codeLine="34" fill="#FEF9E7" height="73.2813" id="JpaInterviewRepository" rx="2.5" ry="2.5" style="stroke:#181818;stroke-width:0.5;" width="507" x="505" y="468.2969"/><ellipse cx="639" cy="485.2969" fill="#FFFF99" rx="12" ry="12" style="stroke:#181818;stroke-width:1.0;"/><path d="M640.375,485.9063 Q640.8125,486 641.125,486.3281 Q641.4531,486.6406 641.9063,487.5469 L644.5469,492.7969 L641.375,492.7969 L639.625,489.1094 Q639.5469,488.9531 639.4219,488.6875 Q638.6406,487.0313 637.5938,487.0313 L636.6875,487.0313 L636.6875,492.7969 L633.7969,492.7969 L633.7969,478.2188 L637.9531,478.2188 Q640.7656,478.2188 641.9844,479.2188 Q643.2188,480.2031 643.2188,482.4531 Q643.2188,483.9531 642.4844,484.8438 Q641.7656,485.7344 640.375,485.9063 Z M636.6875,480.6406 L636.6875,484.6094 L638.0313,484.6094 Q639.2188,484.6094 639.7344,484.1563 Q640.25,483.6875 640.25,482.625 Q640.25,481.5625 639.7344,481.1094 Q639.2344,480.6406 638.0313,480.6406 L636.6875,480.6406 Z " fill="#000000"/><text fill="#000000" font-family="sans-serif" font-size="20" lengthAdjust="spacing" textLength="230" x="661" y="492.2207">JpaInterviewRepository</text><line style="stroke:#181818;stroke-width:0.5;" x1="506" x2="1011" y1="502.2969" y2="502.2969"/><line style="stroke:#181818;stroke-width:0.5;" x1="506" x2="1011" y1="510.2969" y2="510.2969"/><ellipse cx="516" cy="527.4375" fill="#84BE84" rx="3" ry="3" style="stroke:#038048;stroke-width:1.0;"/><text fill="#000000" font-family="sans-serif" font-size="20" lengthAdjust="spacing" textLength="480" x="526" y="532.8613">findInterviewByApplication(interview):Interview</text></g><!--class ListApplicationDataService--><g id="elem_ListApplicationDataService"><rect codeLine="37" fill="#FEF9E7" height="96.5625" id="ListApplicationDataService" rx="2.5" ry="2.5" style="stroke:#181818;stroke-width:0.5;" width="492" x="1047.5" y="311.2969"/><ellipse cx="1154.5" cy="328.2969" fill="#90EE90" rx="12" ry="12" style="stroke:#181818;stroke-width:1.0;"/><path d="M1153.9844,329.4063 Q1151.7969,328.5625 1151.0313,327.6563 Q1150.2656,326.75 1150.2656,325.2031 Q1150.2656,323.2188 1151.5313,322.0938 Q1152.7969,320.9531 1155.0156,320.9531 Q1156.0156,320.9531 1157.0156,321.1875 Q1158.0313,321.4063 1159.0156,321.8594 L1159.0156,324.6719 Q1158.0938,324.0156 1157.125,323.6719 Q1156.1719,323.3281 1155.2344,323.3281 Q1154.2031,323.3281 1153.6406,323.75 Q1153.0781,324.1719 1153.0781,324.9531 Q1153.0781,325.5625 1153.4844,325.9688 Q1153.8906,326.3594 1155.1875,326.8281 L1156.4219,327.2969 Q1158.1875,327.9375 1159.0156,329.0156 Q1159.8438,330.0781 1159.8438,331.6875 Q1159.8438,333.9063 1158.5313,335 Q1157.2344,336.0781 1154.5938,336.0781 Q1153.5156,336.0781 1152.4219,335.8125 Q1151.3281,335.5625 1150.3125,335.0469 L1150.3125,332.0781 Q1151.4688,332.8906 1152.5469,333.2969 Q1153.625,333.7031 1154.6875,333.7031 Q1155.75,333.7031 1156.3281,333.2188 Q1156.9219,332.7344 1156.9219,331.8594 Q1156.9219,331.2031 1156.5313,330.7188 Q1156.1406,330.2188 1155.3906,329.9375 L1153.9844,329.4063 Z " fill="#000000"/><text fill="#000000" font-family="sans-serif" font-size="20" lengthAdjust="spacing" textLength="269" x="1176.5" y="335.2207">ListApplicationDataService</text><line style="stroke:#181818;stroke-width:0.5;" x1="1048.5" x2="1538.5" y1="345.2969" y2="345.2969"/><ellipse cx="1058.5" cy="362.4375" fill="none" rx="3" ry="3" style="stroke:#038048;stroke-width:1.0;"/><text fill="#000000" font-family="sans-serif" font-size="20" lengthAdjust="spacing" textLength="465" x="1068.5" y="367.8613">findApplicationRequirementfile : Requirement</text><ellipse cx="1058.5" cy="385.7188" fill="none" rx="3" ry="3" style="stroke:#038048;stroke-width:1.0;"/><text fill="#000000" font-family="sans-serif" font-size="20" lengthAdjust="spacing" textLength="377" x="1068.5" y="391.1426">findInterviewByApplication :Interview</text><line style="stroke:#181818;stroke-width:0.5;" x1="1048.5" x2="1538.5" y1="399.8594" y2="399.8594"/></g><!--link UI to Controller--><g id="link_UI_Controller"><path codeLine="43" d="M758.5,94.4169 C758.5,109.6669 758.5,129.9869 758.5,148.8469 " fill="none" id="UI-to-Controller" style="stroke:#000000;stroke-width:1.0;"/><polygon fill="#000000" points="758.5,154.1269,762.5,145.1269,758.5,149.1269,754.5,145.1269,758.5,154.1269" style="stroke:#000000;stroke-width:1.0;"/></g><!--link Controller to RequirementRepository--><g id="link_Controller_RequirementRepository"><path codeLine="47" d="M598.95,251.3569 C523,273.9969 433.54,300.6569 362.74,321.7669 " fill="none" id="Controller-to-RequirementRepository" style="stroke:#000000;stroke-width:1.0;"/><polygon fill="#000000" points="357.68,323.2769,367.4481,324.5354,362.4711,321.8467,365.1598,316.8697,357.68,323.2769" style="stroke:#000000;stroke-width:1.0;"/></g><!--link Controller to ListApplicationDataService--><g id="link_Controller_ListApplicationDataService"><path codeLine="48" d="M922.65,251.3569 C986.57,269.8769 1059.78,291.0869 1124.18,309.7469 " fill="none" id="Controller-to-ListApplicationDataService" style="stroke:#000000;stroke-width:1.0;"/><polygon fill="#000000" points="1129.2,311.1969,1121.6626,304.8575,1124.3962,309.8101,1119.4437,312.5437,1129.2,311.1969" style="stroke:#000000;stroke-width:1.0;"/></g><!--link Controller to InterviewRepository--><g id="link_Controller_InterviewRepository"><path codeLine="49" d="M758.5,251.5669 C758.5,272.8869 758.5,297.7469 758.5,318.1569 " fill="none" id="Controller-to-InterviewRepository" style="stroke:#000000;stroke-width:1.0;"/><polygon fill="#000000" points="758.5,323.2469,762.5,314.2469,758.5,318.2469,754.5,314.2469,758.5,323.2469" style="stroke:#000000;stroke-width:1.0;"/></g><!--link RequirementRepository to JpaRequirementsRepository--><g id="link_RequirementRepository_JpaRequirementsRepository"><path codeLine="53" d="M238.5,396.5169 C238.5,416.6469 238.5,441.8769 238.5,462.8169 " fill="none" id="RequirementRepository-to-JpaRequirementsRepository" style="stroke:#000000;stroke-width:1.0;"/><polygon fill="#000000" points="238.5,468.0369,242.5,459.0369,238.5,463.0369,234.5,459.0369,238.5,468.0369" style="stroke:#000000;stroke-width:1.0;"/></g><!--link JpaRequirementsRepository to DB--><g id="link_JpaRequirementsRepository_DB"><path codeLine="54" d="M315.8,541.3269 C356.06,559.8269 404.43,582.0569 441.28,598.9969 " fill="none" id="JpaRequirementsRepository-to-DB" style="stroke:#000000;stroke-width:1.0;"/><polygon fill="#000000" points="446.18,601.2469,439.6698,593.8565,441.636,599.1606,436.3319,601.1268,446.18,601.2469" style="stroke:#000000;stroke-width:1.0;"/></g><!--link InterviewRepository to JpaInterviewRepository--><g id="link_InterviewRepository_JpaInterviewRepository"><path codeLine="55" d="M758.5,396.5169 C758.5,416.6469 758.5,441.8769 758.5,462.8169 " fill="none" id="InterviewRepository-to-JpaInterviewRepository" style="stroke:#000000;stroke-width:1.0;"/><polygon fill="#000000" points="758.5,468.0369,762.5,459.0369,758.5,463.0369,754.5,459.0369,758.5,468.0369" style="stroke:#000000;stroke-width:1.0;"/></g><!--link JpaInterviewRepository to DB--><g id="link_JpaInterviewRepository_DB"><path codeLine="56" d="M681.2,541.3269 C640.94,559.8269 592.57,582.0569 555.72,598.9969 " fill="none" id="JpaInterviewRepository-to-DB" style="stroke:#000000;stroke-width:1.0;"/><polygon fill="#000000" points="550.82,601.2469,560.6681,601.1268,555.364,599.1606,557.3302,593.8565,550.82,601.2469" style="stroke:#000000;stroke-width:1.0;"/></g><!--SRC=[jLB1Rjim3BthAuZsq1Hj07SOiBae0iIn3MJOAKO-WBKPLuWgQPAom2lsxvETr5DT6-XXqutaUtmazUoUIuq6duKgzrH1HJiy29ShwGh-Y-1Jn9ZZJX2i15eBASVQes4Es-8kkllCc7tj06M7U67Wto2xTCxmnuEZTQbarpWQm3IMUwofS8tNCbGwbBMW0SW-OQMENDQmGs67LS4bkKOJQ2MQDkZgYMzS6tMGrKe9PU0op_8u-zBLbiQeuocT28zZlnaxRN6HSgi5DYawtAul02rir_0oMb_vOnab19aEzpSyt-Ac9hVKMl0I7LToGpyEtD0pIPTpGREWT7qV5CUuQ-d8_EHqVC_iI-4IVhf7jDJDbIRmy31BR-7oQv8bUNwzMFW1Ut2Wl26jB7VAD2rZuncvVt7i6UUDTbnM0M66KplqxRzf3FBsdqgS5Fe3VAnt3q-Qu8up_feUlQZVuh_Ad5I-Snj-UlkBHGifgLKgl58SPLaSlLKQjzZE6mNkuPslfcU3juipx_lvV17Och6hC0Zytk96VJG4JMyuH8wSsyzq5KJZncsvavvZqsviUMd2ndxvt79ieWbVd9knFm00]--></g></svg>