<?xml version="1.0" encoding="UTF-8" standalone="no"?><svg xmlns="http://www.w3.org/2000/svg" xmlns:xlink="http://www.w3.org/1999/xlink" contentStyleType="text/css" height="1372px" preserveAspectRatio="none" style="width:4412px;height:1372px;background:#FFFFFF;" version="1.1" viewBox="0 0 4412 1372" width="4412px" zoomAndPan="magnify"><defs/><g><text fill="#000000" font-family="sans-serif" font-size="14" font-weight="bold" lengthAdjust="spacing" textLength="454" x="1976.75" y="27.9951">Sequence Diagram (SD) - Display all data of an application</text><rect fill="#FFFFFF" height="1140" style="stroke:#181818;stroke-width:1.0;" width="10" x="98" y="135.5781"/><rect fill="#FFFFFF" height="1101.7188" style="stroke:#181818;stroke-width:1.0;" width="10" x="643" y="164.8594"/><rect fill="#FFFFFF" height="335.5313" style="stroke:#181818;stroke-width:1.0;" width="10" x="1139" y="520.9531"/><rect fill="#FFFFFF" height="335.5313" style="stroke:#181818;stroke-width:1.0;" width="10" x="1139" y="893.7656"/><rect fill="#FFFFFF" height="260.9688" style="stroke:#181818;stroke-width:1.0;" width="10" x="1635" y="558.2344"/><rect fill="#FFFFFF" height="260.9688" style="stroke:#181818;stroke-width:1.0;" width="10" x="1635" y="931.0469"/><rect fill="#FFFFFF" height="186.4063" style="stroke:#181818;stroke-width:1.0;" width="10" x="2588" y="595.5156"/><rect fill="#FFFFFF" height="111.8438" style="stroke:#181818;stroke-width:1.0;" width="10" x="2940" y="632.7969"/><rect fill="#FFFFFF" height="186.4063" style="stroke:#181818;stroke-width:1.0;" width="10" x="3197.5" y="968.3281"/><rect fill="#FFFFFF" height="111.8438" style="stroke:#181818;stroke-width:1.0;" width="10" x="3664.5" y="1005.6094"/><rect fill="#FFFFFF" height="37.2813" style="stroke:#181818;stroke-width:1.0;" width="10" x="4348.5" y="670.0781"/><rect fill="#FFFFFF" height="37.2813" style="stroke:#181818;stroke-width:1.0;" width="10" x="4348.5" y="1042.8906"/><line style="stroke:#181818;stroke-width:0.5;stroke-dasharray:5.0,5.0;" x1="103" x2="103" y1="125.5781" y2="1284.5781"/><line style="stroke:#181818;stroke-width:0.5;stroke-dasharray:5.0,5.0;" x1="647.5" x2="647.5" y1="125.5781" y2="1284.5781"/><line style="stroke:#181818;stroke-width:0.5;stroke-dasharray:5.0,5.0;" x1="1143.5" x2="1143.5" y1="125.5781" y2="1284.5781"/><line style="stroke:#181818;stroke-width:0.5;stroke-dasharray:5.0,5.0;" x1="1639.5" x2="1639.5" y1="125.5781" y2="1284.5781"/><line style="stroke:#181818;stroke-width:0.5;stroke-dasharray:5.0,5.0;" x1="1874.5" x2="1874.5" y1="125.5781" y2="1284.5781"/><line style="stroke:#181818;stroke-width:0.5;stroke-dasharray:5.0,5.0;" x1="2065.5" x2="2065.5" y1="125.5781" y2="1284.5781"/><line style="stroke:#181818;stroke-width:0.5;stroke-dasharray:5.0,5.0;" x1="2324.5" x2="2324.5" y1="125.5781" y2="1284.5781"/><line style="stroke:#181818;stroke-width:0.5;stroke-dasharray:5.0,5.0;" x1="2592.5" x2="2592.5" y1="125.5781" y2="1284.5781"/><line style="stroke:#181818;stroke-width:0.5;stroke-dasharray:5.0,5.0;" x1="2945" x2="2945" y1="125.5781" y2="1284.5781"/><line style="stroke:#181818;stroke-width:0.5;stroke-dasharray:5.0,5.0;" x1="3202" x2="3202" y1="125.5781" y2="1284.5781"/><line style="stroke:#181818;stroke-width:0.5;stroke-dasharray:5.0,5.0;" x1="3669.5" x2="3669.5" y1="125.5781" y2="1284.5781"/><line style="stroke:#181818;stroke-width:0.5;stroke-dasharray:5.0,5.0;" x1="4353.5" x2="4353.5" y1="125.5781" y2="1284.5781"/><text fill="#000000" font-family="sans-serif" font-size="20" lengthAdjust="spacing" textLength="190" x="5" y="120.8613">Customer Manager</text><ellipse cx="103" cy="50.7969" fill="#E3E3E3" rx="8" ry="8" style="stroke:#181818;stroke-width:0.5;"/><path d="M103,58.7969 L103,85.7969 M90,66.7969 L116,66.7969 M103,85.7969 L90,100.7969 M103,85.7969 L116,100.7969 " fill="none" style="stroke:#181818;stroke-width:0.5;"/><text fill="#000000" font-family="sans-serif" font-size="20" lengthAdjust="spacing" textLength="190" x="5" y="1302.1426">Customer Manager</text><ellipse cx="103" cy="1315.3594" fill="#E3E3E3" rx="8" ry="8" style="stroke:#181818;stroke-width:0.5;"/><path d="M103,1323.3594 L103,1350.3594 M90,1331.3594 L116,1331.3594 M103,1350.3594 L90,1365.3594 M103,1350.3594 L116,1365.3594 " fill="none" style="stroke:#181818;stroke-width:0.5;"/><rect fill="#E3E3E3" height="37.2813" rx="2.5" ry="2.5" style="stroke:#181818;stroke-width:0.5;" width="269" x="513.5" y="87.2969"/><text fill="#000000" font-family="sans-serif" font-size="20" lengthAdjust="spacing" textLength="255" x="520.5" y="112.8613">DisplayApplicationDataUI</text><rect fill="#E3E3E3" height="37.2813" rx="2.5" ry="2.5" style="stroke:#181818;stroke-width:0.5;" width="269" x="513.5" y="1283.5781"/><text fill="#000000" font-family="sans-serif" font-size="20" lengthAdjust="spacing" textLength="255" x="520.5" y="1309.1426">DisplayApplicationDataUI</text><rect fill="#E3E3E3" height="37.2813" rx="2.5" ry="2.5" style="stroke:#181818;stroke-width:0.5;" width="347" x="970.5" y="87.2969"/><text fill="#000000" font-family="sans-serif" font-size="20" lengthAdjust="spacing" textLength="333" x="977.5" y="112.8613">DisplayApplicationDataController</text><rect fill="#E3E3E3" height="37.2813" rx="2.5" ry="2.5" style="stroke:#181818;stroke-width:0.5;" width="347" x="970.5" y="1283.5781"/><text fill="#000000" font-family="sans-serif" font-size="20" lengthAdjust="spacing" textLength="333" x="977.5" y="1309.1426">DisplayApplicationDataController</text><rect fill="#E3E3E3" height="37.2813" rx="2.5" ry="2.5" style="stroke:#181818;stroke-width:0.5;" width="321" x="1479.5" y="87.2969"/><text fill="#000000" font-family="sans-serif" font-size="20" lengthAdjust="spacing" textLength="307" x="1486.5" y="112.8613">DisplayApplicationDataService</text><rect fill="#E3E3E3" height="37.2813" rx="2.5" ry="2.5" style="stroke:#181818;stroke-width:0.5;" width="321" x="1479.5" y="1283.5781"/><text fill="#000000" font-family="sans-serif" font-size="20" lengthAdjust="spacing" textLength="307" x="1486.5" y="1309.1426">DisplayApplicationDataService</text><rect fill="#E3E3E3" height="37.2813" rx="2.5" ry="2.5" style="stroke:#181818;stroke-width:0.5;" width="128" x="1810.5" y="87.2969"/><text fill="#000000" font-family="sans-serif" font-size="20" lengthAdjust="spacing" textLength="114" x="1817.5" y="112.8613">Application</text><rect fill="#E3E3E3" height="37.2813" rx="2.5" ry="2.5" style="stroke:#181818;stroke-width:0.5;" width="128" x="1810.5" y="1283.5781"/><text fill="#000000" font-family="sans-serif" font-size="20" lengthAdjust="spacing" textLength="114" x="1817.5" y="1309.1426">Application</text><rect fill="#E3E3E3" height="37.2813" rx="2.5" ry="2.5" style="stroke:#181818;stroke-width:0.5;" width="234" x="1948.5" y="87.2969"/><text fill="#000000" font-family="sans-serif" font-size="20" lengthAdjust="spacing" textLength="220" x="1955.5" y="112.8613">ApplicationRepository</text><rect fill="#E3E3E3" height="37.2813" rx="2.5" ry="2.5" style="stroke:#181818;stroke-width:0.5;" width="234" x="1948.5" y="1283.5781"/><text fill="#000000" font-family="sans-serif" font-size="20" lengthAdjust="spacing" textLength="220" x="1955.5" y="1309.1426">ApplicationRepository</text><rect fill="#E3E3E3" height="37.2813" rx="2.5" ry="2.5" style="stroke:#181818;stroke-width:0.5;" width="265" x="2192.5" y="87.2969"/><text fill="#000000" font-family="sans-serif" font-size="20" lengthAdjust="spacing" textLength="251" x="2199.5" y="112.8613">JpaApplicationRepository</text><rect fill="#E3E3E3" height="37.2813" rx="2.5" ry="2.5" style="stroke:#181818;stroke-width:0.5;" width="265" x="2192.5" y="1283.5781"/><text fill="#000000" font-family="sans-serif" font-size="20" lengthAdjust="spacing" textLength="251" x="2199.5" y="1309.1426">JpaApplicationRepository</text><rect fill="#E3E3E3" height="37.2813" rx="2.5" ry="2.5" style="stroke:#181818;stroke-width:0.5;" width="251" x="2467.5" y="87.2969"/><text fill="#000000" font-family="sans-serif" font-size="20" lengthAdjust="spacing" textLength="237" x="2474.5" y="112.8613">RequirementRepository</text><rect fill="#E3E3E3" height="37.2813" rx="2.5" ry="2.5" style="stroke:#181818;stroke-width:0.5;" width="251" x="2467.5" y="1283.5781"/><text fill="#000000" font-family="sans-serif" font-size="20" lengthAdjust="spacing" textLength="237" x="2474.5" y="1309.1426">RequirementRepository</text><rect fill="#E3E3E3" height="37.2813" rx="2.5" ry="2.5" style="stroke:#181818;stroke-width:0.5;" width="282" x="2804" y="87.2969"/><text fill="#000000" font-family="sans-serif" font-size="20" lengthAdjust="spacing" textLength="268" x="2811" y="112.8613">JpaRequirementRepository</text><rect fill="#E3E3E3" height="37.2813" rx="2.5" ry="2.5" style="stroke:#181818;stroke-width:0.5;" width="282" x="2804" y="1283.5781"/><text fill="#000000" font-family="sans-serif" font-size="20" lengthAdjust="spacing" textLength="268" x="2811" y="1309.1426">JpaRequirementRepository</text><rect fill="#E3E3E3" height="37.2813" rx="2.5" ry="2.5" style="stroke:#181818;stroke-width:0.5;" width="213" x="3096" y="87.2969"/><text fill="#000000" font-family="sans-serif" font-size="20" lengthAdjust="spacing" textLength="199" x="3103" y="112.8613">InterviewRepository</text><rect fill="#E3E3E3" height="37.2813" rx="2.5" ry="2.5" style="stroke:#181818;stroke-width:0.5;" width="213" x="3096" y="1283.5781"/><text fill="#000000" font-family="sans-serif" font-size="20" lengthAdjust="spacing" textLength="199" x="3103" y="1309.1426">InterviewRepository</text><rect fill="#E3E3E3" height="37.2813" rx="2.5" ry="2.5" style="stroke:#181818;stroke-width:0.5;" width="244" x="3547.5" y="87.2969"/><text fill="#000000" font-family="sans-serif" font-size="20" lengthAdjust="spacing" textLength="230" x="3554.5" y="112.8613">JpaInterviewRepository</text><rect fill="#E3E3E3" height="37.2813" rx="2.5" ry="2.5" style="stroke:#181818;stroke-width:0.5;" width="244" x="3547.5" y="1283.5781"/><text fill="#000000" font-family="sans-serif" font-size="20" lengthAdjust="spacing" textLength="230" x="3554.5" y="1309.1426">JpaInterviewRepository</text><text fill="#000000" font-family="sans-serif" font-size="20" lengthAdjust="spacing" textLength="94" x="4303.5" y="120.8613">Database</text><path d="M4335.5,66.2969 C4335.5,56.2969 4353.5,56.2969 4353.5,56.2969 C4353.5,56.2969 4371.5,56.2969 4371.5,66.2969 L4371.5,92.2969 C4371.5,102.2969 4353.5,102.2969 4353.5,102.2969 C4353.5,102.2969 4335.5,102.2969 4335.5,92.2969 L4335.5,66.2969 " fill="#E3E3E3" style="stroke:#181818;stroke-width:1.5;"/><path d="M4335.5,66.2969 C4335.5,76.2969 4353.5,76.2969 4353.5,76.2969 C4353.5,76.2969 4371.5,76.2969 4371.5,66.2969 " fill="none" style="stroke:#181818;stroke-width:1.5;"/><text fill="#000000" font-family="sans-serif" font-size="20" lengthAdjust="spacing" textLength="94" x="4303.5" y="1302.1426">Database</text><path d="M4335.5,1316.8594 C4335.5,1306.8594 4353.5,1306.8594 4353.5,1306.8594 C4353.5,1306.8594 4371.5,1306.8594 4371.5,1316.8594 L4371.5,1342.8594 C4371.5,1352.8594 4353.5,1352.8594 4353.5,1352.8594 C4353.5,1352.8594 4335.5,1352.8594 4335.5,1342.8594 L4335.5,1316.8594 " fill="#E3E3E3" style="stroke:#181818;stroke-width:1.5;"/><path d="M4335.5,1316.8594 C4335.5,1326.8594 4353.5,1326.8594 4353.5,1326.8594 C4353.5,1326.8594 4371.5,1326.8594 4371.5,1316.8594 " fill="none" style="stroke:#181818;stroke-width:1.5;"/><rect fill="#FFFFFF" height="1140" style="stroke:#181818;stroke-width:1.0;" width="10" x="98" y="135.5781"/><rect fill="#FFFFFF" height="1101.7188" style="stroke:#181818;stroke-width:1.0;" width="10" x="643" y="164.8594"/><rect fill="#FFFFFF" height="335.5313" style="stroke:#181818;stroke-width:1.0;" width="10" x="1139" y="520.9531"/><rect fill="#FFFFFF" height="335.5313" style="stroke:#181818;stroke-width:1.0;" width="10" x="1139" y="893.7656"/><rect fill="#FFFFFF" height="260.9688" style="stroke:#181818;stroke-width:1.0;" width="10" x="1635" y="558.2344"/><rect fill="#FFFFFF" height="260.9688" style="stroke:#181818;stroke-width:1.0;" width="10" x="1635" y="931.0469"/><rect fill="#FFFFFF" height="186.4063" style="stroke:#181818;stroke-width:1.0;" width="10" x="2588" y="595.5156"/><rect fill="#FFFFFF" height="111.8438" style="stroke:#181818;stroke-width:1.0;" width="10" x="2940" y="632.7969"/><rect fill="#FFFFFF" height="186.4063" style="stroke:#181818;stroke-width:1.0;" width="10" x="3197.5" y="968.3281"/><rect fill="#FFFFFF" height="111.8438" style="stroke:#181818;stroke-width:1.0;" width="10" x="3664.5" y="1005.6094"/><rect fill="#FFFFFF" height="37.2813" style="stroke:#181818;stroke-width:1.0;" width="10" x="4348.5" y="670.0781"/><rect fill="#FFFFFF" height="37.2813" style="stroke:#181818;stroke-width:1.0;" width="10" x="4348.5" y="1042.8906"/><polygon fill="#181818" points="631,160.8594,641,164.8594,631,168.8594,635,164.8594" style="stroke:#181818;stroke-width:1.0;"/><line style="stroke:#181818;stroke-width:1.0;" x1="108" x2="637" y1="164.8594" y2="164.8594"/><text fill="#000000" font-family="sans-serif" font-size="20" font-weight="bold" lengthAdjust="spacing" textLength="14" x="115" y="158.1426">1</text><text fill="#000000" font-family="sans-serif" font-size="20" lengthAdjust="spacing" textLength="404" x="133" y="158.1426">Asks to display all data of an application</text><rect fill="none" height="79.8438" style="stroke:#000000;stroke-width:1.5;" width="4404.5" x="2" y="172.8594"/><path d="M2,172.8594 L80,172.8594 L80,187.8594 L70,197.8594 L2,197.8594 L2,172.8594 " fill="#EEEEEE" style="stroke:#000000;stroke-width:2.0;"/><text fill="#000000" font-family="sans-serif" font-size="20" font-weight="bold" lengthAdjust="spacing" textLength="33" x="15" y="193.4238">ref</text><text fill="#000000" font-family="sans-serif" font-size="20" lengthAdjust="spacing" textLength="174" x="2117.25" y="220.4238">List Job Openings</text><text fill="#000000" font-family="sans-serif" font-size="20" lengthAdjust="spacing" textLength="102" x="2153.25" y="243.7051">(US 1003)</text><polygon fill="#181818" points="119,282.9844,109,286.9844,119,290.9844,115,286.9844" style="stroke:#181818;stroke-width:1.0;"/><line style="stroke:#181818;stroke-width:1.0;stroke-dasharray:2.0,2.0;" x1="113" x2="642" y1="286.9844" y2="286.9844"/><text fill="#000000" font-family="sans-serif" font-size="20" font-weight="bold" lengthAdjust="spacing" textLength="14" x="125" y="280.2676">2</text><text fill="#000000" font-family="sans-serif" font-size="20" lengthAdjust="spacing" textLength="493" x="143" y="280.2676">Shows list of Job Openings and asks to select one</text><polygon fill="#181818" points="631,320.2656,641,324.2656,631,328.2656,635,324.2656" style="stroke:#181818;stroke-width:1.0;"/><line style="stroke:#181818;stroke-width:1.0;" x1="108" x2="637" y1="324.2656" y2="324.2656"/><text fill="#000000" font-family="sans-serif" font-size="20" font-weight="bold" lengthAdjust="spacing" textLength="14" x="115" y="317.5488">3</text><text fill="#000000" font-family="sans-serif" font-size="20" lengthAdjust="spacing" textLength="240" x="133" y="317.5488">Selects one job opening</text><rect fill="none" height="79.8438" style="stroke:#000000;stroke-width:1.5;" width="4404.5" x="2" y="332.2656"/><path d="M2,332.2656 L80,332.2656 L80,347.2656 L70,357.2656 L2,357.2656 L2,332.2656 " fill="#EEEEEE" style="stroke:#000000;stroke-width:2.0;"/><text fill="#000000" font-family="sans-serif" font-size="20" font-weight="bold" lengthAdjust="spacing" textLength="33" x="15" y="352.8301">ref</text><text fill="#000000" font-family="sans-serif" font-size="20" lengthAdjust="spacing" textLength="375" x="2016.75" y="379.8301">List all Applications for a Job Opening</text><text fill="#000000" font-family="sans-serif" font-size="20" lengthAdjust="spacing" textLength="102" x="2153.25" y="403.1113">(US 1005)</text><polygon fill="#181818" points="119,442.3906,109,446.3906,119,450.3906,115,446.3906" style="stroke:#181818;stroke-width:1.0;"/><line style="stroke:#181818;stroke-width:1.0;stroke-dasharray:2.0,2.0;" x1="113" x2="642" y1="446.3906" y2="446.3906"/><text fill="#000000" font-family="sans-serif" font-size="20" font-weight="bold" lengthAdjust="spacing" textLength="14" x="125" y="439.6738">4</text><text fill="#000000" font-family="sans-serif" font-size="20" lengthAdjust="spacing" textLength="484" x="143" y="439.6738">Shows list of Applications and asks to select one</text><polygon fill="#181818" points="631,479.6719,641,483.6719,631,487.6719,635,483.6719" style="stroke:#181818;stroke-width:1.0;"/><line style="stroke:#181818;stroke-width:1.0;" x1="108" x2="637" y1="483.6719" y2="483.6719"/><text fill="#000000" font-family="sans-serif" font-size="20" font-weight="bold" lengthAdjust="spacing" textLength="14" x="115" y="476.9551">5</text><text fill="#000000" font-family="sans-serif" font-size="20" lengthAdjust="spacing" textLength="221" x="133" y="476.9551">Selects an application</text><polygon fill="#181818" points="1127,516.9531,1137,520.9531,1127,524.9531,1131,520.9531" style="stroke:#181818;stroke-width:1.0;"/><line style="stroke:#181818;stroke-width:1.0;stroke-dasharray:2.0,2.0;" x1="653" x2="1133" y1="520.9531" y2="520.9531"/><text fill="#000000" font-family="sans-serif" font-size="20" font-weight="bold" lengthAdjust="spacing" textLength="14" x="660" y="514.2363">6</text><text fill="#000000" font-family="sans-serif" font-size="20" lengthAdjust="spacing" textLength="449" x="678" y="514.2363">getApplicationRequirementFile(application);</text><polygon fill="#181818" points="1623,554.2344,1633,558.2344,1623,562.2344,1627,558.2344" style="stroke:#181818;stroke-width:1.0;"/><line style="stroke:#181818;stroke-width:1.0;" x1="1149" x2="1629" y1="558.2344" y2="558.2344"/><text fill="#000000" font-family="sans-serif" font-size="20" font-weight="bold" lengthAdjust="spacing" textLength="14" x="1156" y="551.5176">7</text><text fill="#000000" font-family="sans-serif" font-size="20" lengthAdjust="spacing" textLength="449" x="1174" y="551.5176">getApplicationRequirementFile(application);</text><polygon fill="#181818" points="2576,591.5156,2586,595.5156,2576,599.5156,2580,595.5156" style="stroke:#181818;stroke-width:1.0;"/><line style="stroke:#181818;stroke-width:1.0;" x1="1645" x2="2582" y1="595.5156" y2="595.5156"/><text fill="#000000" font-family="sans-serif" font-size="20" font-weight="bold" lengthAdjust="spacing" textLength="14" x="1652" y="588.7988">8</text><text fill="#000000" font-family="sans-serif" font-size="20" lengthAdjust="spacing" textLength="305" x="1670" y="588.7988">findRequirement(application);</text><polygon fill="#181818" points="2928,628.7969,2938,632.7969,2928,636.7969,2932,632.7969" style="stroke:#181818;stroke-width:1.0;"/><line style="stroke:#181818;stroke-width:1.0;" x1="2598" x2="2934" y1="632.7969" y2="632.7969"/><text fill="#000000" font-family="sans-serif" font-size="20" font-weight="bold" lengthAdjust="spacing" textLength="14" x="2605" y="626.0801">9</text><text fill="#000000" font-family="sans-serif" font-size="20" lengthAdjust="spacing" textLength="305" x="2623" y="626.0801">findRequirement(application);</text><polygon fill="#181818" points="4336.5,666.0781,4346.5,670.0781,4336.5,674.0781,4340.5,670.0781" style="stroke:#181818;stroke-width:1.0;"/><line style="stroke:#181818;stroke-width:1.0;" x1="2950" x2="4342.5" y1="670.0781" y2="670.0781"/><text fill="#000000" font-family="sans-serif" font-size="20" font-weight="bold" lengthAdjust="spacing" textLength="28" x="2957" y="663.3613">10</text><text fill="#000000" font-family="sans-serif" font-size="20" lengthAdjust="spacing" textLength="667" x="2989" y="663.3613">SELECT r FROM Requirement r WHERE r.application = application;</text><polygon fill="#181818" points="2961,703.3594,2951,707.3594,2961,711.3594,2957,707.3594" style="stroke:#181818;stroke-width:1.0;"/><line style="stroke:#181818;stroke-width:1.0;stroke-dasharray:2.0,2.0;" x1="2955" x2="4352.5" y1="707.3594" y2="707.3594"/><text fill="#000000" font-family="sans-serif" font-size="20" font-weight="bold" lengthAdjust="spacing" textLength="28" x="2967" y="700.6426">11</text><text fill="#000000" font-family="sans-serif" font-size="20" lengthAdjust="spacing" textLength="131" x="2999" y="700.6426">Requirement</text><polygon fill="#181818" points="2609,740.6406,2599,744.6406,2609,748.6406,2605,744.6406" style="stroke:#181818;stroke-width:1.0;"/><line style="stroke:#181818;stroke-width:1.0;stroke-dasharray:2.0,2.0;" x1="2603" x2="2944" y1="744.6406" y2="744.6406"/><text fill="#000000" font-family="sans-serif" font-size="20" font-weight="bold" lengthAdjust="spacing" textLength="28" x="2615" y="737.9238">12</text><text fill="#000000" font-family="sans-serif" font-size="20" lengthAdjust="spacing" textLength="131" x="2647" y="737.9238">Requirement</text><polygon fill="#181818" points="1656,777.9219,1646,781.9219,1656,785.9219,1652,781.9219" style="stroke:#181818;stroke-width:1.0;"/><line style="stroke:#181818;stroke-width:1.0;stroke-dasharray:2.0,2.0;" x1="1650" x2="2592" y1="781.9219" y2="781.9219"/><text fill="#000000" font-family="sans-serif" font-size="20" font-weight="bold" lengthAdjust="spacing" textLength="28" x="1662" y="775.2051">13</text><text fill="#000000" font-family="sans-serif" font-size="20" lengthAdjust="spacing" textLength="131" x="1694" y="775.2051">Requirement</text><polygon fill="#181818" points="1160,815.2031,1150,819.2031,1160,823.2031,1156,819.2031" style="stroke:#181818;stroke-width:1.0;"/><line style="stroke:#181818;stroke-width:1.0;stroke-dasharray:2.0,2.0;" x1="1154" x2="1639" y1="819.2031" y2="819.2031"/><text fill="#000000" font-family="sans-serif" font-size="20" font-weight="bold" lengthAdjust="spacing" textLength="28" x="1166" y="812.4863">14</text><text fill="#000000" font-family="sans-serif" font-size="20" lengthAdjust="spacing" textLength="131" x="1198" y="812.4863">Requirement</text><polygon fill="#181818" points="664,852.4844,654,856.4844,664,860.4844,660,856.4844" style="stroke:#181818;stroke-width:1.0;"/><line style="stroke:#181818;stroke-width:1.0;stroke-dasharray:2.0,2.0;" x1="658" x2="1143" y1="856.4844" y2="856.4844"/><text fill="#000000" font-family="sans-serif" font-size="20" font-weight="bold" lengthAdjust="spacing" textLength="28" x="670" y="849.7676">15</text><text fill="#000000" font-family="sans-serif" font-size="20" lengthAdjust="spacing" textLength="131" x="702" y="849.7676">Requirement</text><polygon fill="#181818" points="1127,889.7656,1137,893.7656,1127,897.7656,1131,893.7656" style="stroke:#181818;stroke-width:1.0;"/><line style="stroke:#181818;stroke-width:1.0;" x1="653" x2="1133" y1="893.7656" y2="893.7656"/><text fill="#000000" font-family="sans-serif" font-size="20" font-weight="bold" lengthAdjust="spacing" textLength="28" x="660" y="887.0488">16</text><text fill="#000000" font-family="sans-serif" font-size="20" lengthAdjust="spacing" textLength="411" x="692" y="887.0488">getApplicationInterviewFile(application);</text><polygon fill="#181818" points="1623,927.0469,1633,931.0469,1623,935.0469,1627,931.0469" style="stroke:#181818;stroke-width:1.0;"/><line style="stroke:#181818;stroke-width:1.0;" x1="1149" x2="1629" y1="931.0469" y2="931.0469"/><text fill="#000000" font-family="sans-serif" font-size="20" font-weight="bold" lengthAdjust="spacing" textLength="28" x="1156" y="924.3301">17</text><text fill="#000000" font-family="sans-serif" font-size="20" lengthAdjust="spacing" textLength="411" x="1188" y="924.3301">getApplicationInterviewFile(application);</text><polygon fill="#181818" points="3185.5,964.3281,3195.5,968.3281,3185.5,972.3281,3189.5,968.3281" style="stroke:#181818;stroke-width:1.0;"/><line style="stroke:#181818;stroke-width:1.0;" x1="1645" x2="3191.5" y1="968.3281" y2="968.3281"/><text fill="#000000" font-family="sans-serif" font-size="20" font-weight="bold" lengthAdjust="spacing" textLength="28" x="1652" y="961.6113">18</text><text fill="#000000" font-family="sans-serif" font-size="20" lengthAdjust="spacing" textLength="406" x="1684" y="961.6113">findInterviewByApplication(application);</text><polygon fill="#181818" points="3652.5,1001.6094,3662.5,1005.6094,3652.5,1009.6094,3656.5,1005.6094" style="stroke:#181818;stroke-width:1.0;"/><line style="stroke:#181818;stroke-width:1.0;" x1="3207.5" x2="3658.5" y1="1005.6094" y2="1005.6094"/><text fill="#000000" font-family="sans-serif" font-size="20" font-weight="bold" lengthAdjust="spacing" textLength="28" x="3214.5" y="998.8926">19</text><text fill="#000000" font-family="sans-serif" font-size="20" lengthAdjust="spacing" textLength="406" x="3246.5" y="998.8926">findInterviewByApplication(application);</text><polygon fill="#181818" points="4336.5,1038.8906,4346.5,1042.8906,4336.5,1046.8906,4340.5,1042.8906" style="stroke:#181818;stroke-width:1.0;"/><line style="stroke:#181818;stroke-width:1.0;" x1="3674.5" x2="4342.5" y1="1042.8906" y2="1042.8906"/><text fill="#000000" font-family="sans-serif" font-size="20" font-weight="bold" lengthAdjust="spacing" textLength="28" x="3681.5" y="1036.1738">20</text><text fill="#000000" font-family="sans-serif" font-size="20" lengthAdjust="spacing" textLength="623" x="3713.5" y="1036.1738">SELECT i FROM Interview i WHERE i.application = application;</text><polygon fill="#181818" points="3685.5,1076.1719,3675.5,1080.1719,3685.5,1084.1719,3681.5,1080.1719" style="stroke:#181818;stroke-width:1.0;"/><line style="stroke:#181818;stroke-width:1.0;stroke-dasharray:2.0,2.0;" x1="3679.5" x2="4352.5" y1="1080.1719" y2="1080.1719"/><text fill="#000000" font-family="sans-serif" font-size="20" font-weight="bold" lengthAdjust="spacing" textLength="28" x="3691.5" y="1073.4551">21</text><text fill="#000000" font-family="sans-serif" font-size="20" lengthAdjust="spacing" textLength="93" x="3723.5" y="1073.4551">Interview</text><polygon fill="#181818" points="3218.5,1113.4531,3208.5,1117.4531,3218.5,1121.4531,3214.5,1117.4531" style="stroke:#181818;stroke-width:1.0;"/><line style="stroke:#181818;stroke-width:1.0;stroke-dasharray:2.0,2.0;" x1="3212.5" x2="3668.5" y1="1117.4531" y2="1117.4531"/><text fill="#000000" font-family="sans-serif" font-size="20" font-weight="bold" lengthAdjust="spacing" textLength="28" x="3224.5" y="1110.7363">22</text><text fill="#000000" font-family="sans-serif" font-size="20" lengthAdjust="spacing" textLength="93" x="3256.5" y="1110.7363">Interview</text><polygon fill="#181818" points="1656,1150.7344,1646,1154.7344,1656,1158.7344,1652,1154.7344" style="stroke:#181818;stroke-width:1.0;"/><line style="stroke:#181818;stroke-width:1.0;stroke-dasharray:2.0,2.0;" x1="1650" x2="3201.5" y1="1154.7344" y2="1154.7344"/><text fill="#000000" font-family="sans-serif" font-size="20" font-weight="bold" lengthAdjust="spacing" textLength="28" x="1662" y="1148.0176">23</text><text fill="#000000" font-family="sans-serif" font-size="20" lengthAdjust="spacing" textLength="93" x="1694" y="1148.0176">Interview</text><polygon fill="#181818" points="1160,1188.0156,1150,1192.0156,1160,1196.0156,1156,1192.0156" style="stroke:#181818;stroke-width:1.0;"/><line style="stroke:#181818;stroke-width:1.0;stroke-dasharray:2.0,2.0;" x1="1154" x2="1639" y1="1192.0156" y2="1192.0156"/><text fill="#000000" font-family="sans-serif" font-size="20" font-weight="bold" lengthAdjust="spacing" textLength="28" x="1166" y="1185.2988">24</text><text fill="#000000" font-family="sans-serif" font-size="20" lengthAdjust="spacing" textLength="93" x="1198" y="1185.2988">Interview</text><polygon fill="#181818" points="664,1225.2969,654,1229.2969,664,1233.2969,660,1229.2969" style="stroke:#181818;stroke-width:1.0;"/><line style="stroke:#181818;stroke-width:1.0;stroke-dasharray:2.0,2.0;" x1="658" x2="1143" y1="1229.2969" y2="1229.2969"/><text fill="#000000" font-family="sans-serif" font-size="20" font-weight="bold" lengthAdjust="spacing" textLength="28" x="670" y="1222.5801">25</text><text fill="#000000" font-family="sans-serif" font-size="20" lengthAdjust="spacing" textLength="93" x="702" y="1222.5801">Interview</text><polygon fill="#181818" points="119,1262.5781,109,1266.5781,119,1270.5781,115,1266.5781" style="stroke:#181818;stroke-width:1.0;"/><line style="stroke:#181818;stroke-width:1.0;" x1="113" x2="647" y1="1266.5781" y2="1266.5781"/><text fill="#000000" font-family="sans-serif" font-size="20" font-weight="bold" lengthAdjust="spacing" textLength="28" x="125" y="1259.8613">26</text><text fill="#000000" font-family="sans-serif" font-size="20" lengthAdjust="spacing" textLength="436" x="157" y="1259.8613">Displays all data of the selected application</text><!--SRC=[jLTHJzim47xFhpZn1D8wiKrxOTeae4K3WP2QeRtinIJNrgjhPxOBOhz-boPnd60dPMDvg6BVtVVTsVSvhbbpMJ3DDa9bQymXnmNR2dkXf4tvRuJtnubfN62ZfCfMMcqGhDwYPobOjcPBJEsJGD2OMIQNmdSmAvQhHowNi632O99ORiarnLzRb1d2bBDbwNUOJezWGaDJ2FO4J0Z8cMMW5i0aiA8GF6EMAvaaR6kLt6xkKTDxPfM6W_EjiPITXXicAHrz0CmqxmabOdd62oOj7DG4fotWb6ZkBdSHTvVxE9_J6cabH4tJ3lS9Jb4_y0ntaQPwxuPv_ZidRnnrd6EX3AULUEg7j9Pky5N1ul4nOnTYJbl8DMvGsbvyqFACFnuVCtOXBgKjrmyVUz61-MVSiTYmAIaxyPuPf4sjttRUqxDT0_87Pj5rMmBqr0EOVA6UWXCuDMi3La4-tjvbk0EbXYp7kv_oqRW0zK30qpDuqx2Sm3Kt5gxKFTmMA4bhveSyl4lXtV7nXwF41LCc4qgeoUq4qfLwD23AOCh3ZwUaSggmIjgW8663ajXYzGjCTpwcT8AV1AGge6IlpClLy1hEm88qpVo4N3qVzw-dW_YtzVJFdXvtgtsAMQBjoCPry0KNUEZ177roE6wdlLF46JrqugfFYtybQWuTPsbmYIAeEY9SS9bxjZ6Ai7YTNvY5w6EwVta6qHF4kKQvA0zgKUg0sVNi_1jek9ZVtlWvqzJthxFv3FHRBmlux3TA8ANoi6WcYM0oNAytxw9o38B5AndOqH7yyVMBKxPzEa8omk3wig-p4TXd3UxBgD7t24P8ZQNa1nNllXp_L-yleXbIU-1BLolDMSxywyiOL-ZBwRn2P9K4NZkDo3VSrqia6L_tlDAzywI9IlNy5LGVBjdDxg7uO0NHFHr47bkl65NRduFmWzXHZGz2xgNmGOI- -YfjjpU9-kvkEXSrkyBwxa3_b_fNDW-ylhJz0G00]--></g></svg>