<?xml version="1.0" encoding="UTF-8" standalone="no"?><svg xmlns="http://www.w3.org/2000/svg" xmlns:xlink="http://www.w3.org/1999/xlink" contentStyleType="text/css" height="457px" preserveAspectRatio="none" style="width:2485px;height:457px;background:#FFFFFF;" version="1.1" viewBox="0 0 2485 457" width="2485px" zoomAndPan="magnify"><defs/><g><text fill="#000000" font-family="sans-serif" font-size="14" font-weight="bold" lengthAdjust="spacing" textLength="454" x="1017.25" y="27.9951">Sequence Diagram (SD) - Display all data of an application</text><rect fill="#FFFFFF" height="224.6875" style="stroke:#181818;stroke-width:1.0;" width="10" x="98" y="135.5781"/><rect fill="#FFFFFF" height="37.2813" style="stroke:#181818;stroke-width:1.0;" width="10" x="966" y="164.8594"/><rect fill="#FFFFFF" height="37.2813" style="stroke:#181818;stroke-width:1.0;" width="10" x="966" y="239.4219"/><rect fill="#FFFFFF" height="37.2813" style="stroke:#181818;stroke-width:1.0;" width="10" x="966" y="313.9844"/><line style="stroke:#181818;stroke-width:0.5;stroke-dasharray:5.0,5.0;" x1="103" x2="103" y1="125.5781" y2="369.2656"/><line style="stroke:#181818;stroke-width:0.5;stroke-dasharray:5.0,5.0;" x1="970.5" x2="970.5" y1="125.5781" y2="369.2656"/><line style="stroke:#181818;stroke-width:0.5;stroke-dasharray:5.0,5.0;" x1="1364.5" x2="1364.5" y1="125.5781" y2="369.2656"/><line style="stroke:#181818;stroke-width:0.5;stroke-dasharray:5.0,5.0;" x1="1650.5" x2="1650.5" y1="125.5781" y2="369.2656"/><line style="stroke:#181818;stroke-width:0.5;stroke-dasharray:5.0,5.0;" x1="1789.5" x2="1789.5" y1="125.5781" y2="369.2656"/><line style="stroke:#181818;stroke-width:0.5;stroke-dasharray:5.0,5.0;" x1="1983.5" x2="1983.5" y1="125.5781" y2="369.2656"/><line style="stroke:#181818;stroke-width:0.5;stroke-dasharray:5.0,5.0;" x1="2229.5" x2="2229.5" y1="125.5781" y2="369.2656"/><line style="stroke:#181818;stroke-width:0.5;stroke-dasharray:5.0,5.0;" x1="2420.5" x2="2420.5" y1="125.5781" y2="369.2656"/><text fill="#000000" font-family="sans-serif" font-size="20" lengthAdjust="spacing" textLength="190" x="5" y="120.8613">Customer Manager</text><ellipse cx="103" cy="50.7969" fill="#E3E3E3" rx="8" ry="8" style="stroke:#181818;stroke-width:0.5;"/><path d="M103,58.7969 L103,85.7969 M90,66.7969 L116,66.7969 M103,85.7969 L90,100.7969 M103,85.7969 L116,100.7969 " fill="none" style="stroke:#181818;stroke-width:0.5;"/><text fill="#000000" font-family="sans-serif" font-size="20" lengthAdjust="spacing" textLength="190" x="5" y="386.8301">Customer Manager</text><ellipse cx="103" cy="400.0469" fill="#E3E3E3" rx="8" ry="8" style="stroke:#181818;stroke-width:0.5;"/><path d="M103,408.0469 L103,435.0469 M90,416.0469 L116,416.0469 M103,435.0469 L90,450.0469 M103,435.0469 L116,450.0469 " fill="none" style="stroke:#181818;stroke-width:0.5;"/><rect fill="#E3E3E3" height="37.2813" rx="2.5" ry="2.5" style="stroke:#181818;stroke-width:0.5;" width="345" x="798.5" y="87.2969"/><text fill="#000000" font-family="sans-serif" font-size="20" lengthAdjust="spacing" textLength="331" x="805.5" y="112.8613">DisplayAllDataOfAnApplicationUI</text><rect fill="#E3E3E3" height="37.2813" rx="2.5" ry="2.5" style="stroke:#181818;stroke-width:0.5;" width="345" x="798.5" y="368.2656"/><text fill="#000000" font-family="sans-serif" font-size="20" lengthAdjust="spacing" textLength="331" x="805.5" y="393.8301">DisplayAllDataOfAnApplicationUI</text><rect fill="#E3E3E3" height="37.2813" rx="2.5" ry="2.5" style="stroke:#181818;stroke-width:0.5;" width="423" x="1153.5" y="87.2969"/><text fill="#000000" font-family="sans-serif" font-size="20" lengthAdjust="spacing" textLength="409" x="1160.5" y="112.8613">DisplayAllDataOfAnApplicationController</text><rect fill="#E3E3E3" height="37.2813" rx="2.5" ry="2.5" style="stroke:#181818;stroke-width:0.5;" width="423" x="1153.5" y="368.2656"/><text fill="#000000" font-family="sans-serif" font-size="20" lengthAdjust="spacing" textLength="409" x="1160.5" y="393.8301">DisplayAllDataOfAnApplicationController</text><rect fill="#E3E3E3" height="37.2813" rx="2.5" ry="2.5" style="stroke:#181818;stroke-width:0.5;" width="128" x="1586.5" y="87.2969"/><text fill="#000000" font-family="sans-serif" font-size="20" lengthAdjust="spacing" textLength="114" x="1593.5" y="112.8613">Application</text><rect fill="#E3E3E3" height="37.2813" rx="2.5" ry="2.5" style="stroke:#181818;stroke-width:0.5;" width="128" x="1586.5" y="368.2656"/><text fill="#000000" font-family="sans-serif" font-size="20" lengthAdjust="spacing" textLength="114" x="1593.5" y="393.8301">Application</text><rect fill="#E3E3E3" height="37.2813" rx="2.5" ry="2.5" style="stroke:#181818;stroke-width:0.5;" width="131" x="1724.5" y="87.2969"/><text fill="#000000" font-family="sans-serif" font-size="20" lengthAdjust="spacing" textLength="117" x="1731.5" y="112.8613">JobOpening</text><rect fill="#E3E3E3" height="37.2813" rx="2.5" ry="2.5" style="stroke:#181818;stroke-width:0.5;" width="131" x="1724.5" y="368.2656"/><text fill="#000000" font-family="sans-serif" font-size="20" lengthAdjust="spacing" textLength="117" x="1731.5" y="393.8301">JobOpening</text><rect fill="#E3E3E3" height="37.2813" rx="2.5" ry="2.5" style="stroke:#181818;stroke-width:0.5;" width="237" x="1865.5" y="87.2969"/><text fill="#000000" font-family="sans-serif" font-size="20" lengthAdjust="spacing" textLength="223" x="1872.5" y="112.8613">JobOpeningRepository</text><rect fill="#E3E3E3" height="37.2813" rx="2.5" ry="2.5" style="stroke:#181818;stroke-width:0.5;" width="237" x="1865.5" y="368.2656"/><text fill="#000000" font-family="sans-serif" font-size="20" lengthAdjust="spacing" textLength="223" x="1872.5" y="393.8301">JobOpeningRepository</text><rect fill="#E3E3E3" height="37.2813" rx="2.5" ry="2.5" style="stroke:#181818;stroke-width:0.5;" width="234" x="2112.5" y="87.2969"/><text fill="#000000" font-family="sans-serif" font-size="20" lengthAdjust="spacing" textLength="220" x="2119.5" y="112.8613">ApplicationRepository</text><rect fill="#E3E3E3" height="37.2813" rx="2.5" ry="2.5" style="stroke:#181818;stroke-width:0.5;" width="234" x="2112.5" y="368.2656"/><text fill="#000000" font-family="sans-serif" font-size="20" lengthAdjust="spacing" textLength="220" x="2119.5" y="393.8301">ApplicationRepository</text><text fill="#000000" font-family="sans-serif" font-size="20" lengthAdjust="spacing" textLength="122" x="2356.5" y="120.8613">H2Database</text><path d="M2402.5,66.2969 C2402.5,56.2969 2420.5,56.2969 2420.5,56.2969 C2420.5,56.2969 2438.5,56.2969 2438.5,66.2969 L2438.5,92.2969 C2438.5,102.2969 2420.5,102.2969 2420.5,102.2969 C2420.5,102.2969 2402.5,102.2969 2402.5,92.2969 L2402.5,66.2969 " fill="#E3E3E3" style="stroke:#181818;stroke-width:1.5;"/><path d="M2402.5,66.2969 C2402.5,76.2969 2420.5,76.2969 2420.5,76.2969 C2420.5,76.2969 2438.5,76.2969 2438.5,66.2969 " fill="none" style="stroke:#181818;stroke-width:1.5;"/><text fill="#000000" font-family="sans-serif" font-size="20" lengthAdjust="spacing" textLength="122" x="2356.5" y="386.8301">H2Database</text><path d="M2402.5,401.5469 C2402.5,391.5469 2420.5,391.5469 2420.5,391.5469 C2420.5,391.5469 2438.5,391.5469 2438.5,401.5469 L2438.5,427.5469 C2438.5,437.5469 2420.5,437.5469 2420.5,437.5469 C2420.5,437.5469 2402.5,437.5469 2402.5,427.5469 L2402.5,401.5469 " fill="#E3E3E3" style="stroke:#181818;stroke-width:1.5;"/><path d="M2402.5,401.5469 C2402.5,411.5469 2420.5,411.5469 2420.5,411.5469 C2420.5,411.5469 2438.5,411.5469 2438.5,401.5469 " fill="none" style="stroke:#181818;stroke-width:1.5;"/><rect fill="#FFFFFF" height="224.6875" style="stroke:#181818;stroke-width:1.0;" width="10" x="98" y="135.5781"/><rect fill="#FFFFFF" height="37.2813" style="stroke:#181818;stroke-width:1.0;" width="10" x="966" y="164.8594"/><rect fill="#FFFFFF" height="37.2813" style="stroke:#181818;stroke-width:1.0;" width="10" x="966" y="239.4219"/><rect fill="#FFFFFF" height="37.2813" style="stroke:#181818;stroke-width:1.0;" width="10" x="966" y="313.9844"/><polygon fill="#181818" points="954,160.8594,964,164.8594,954,168.8594,958,164.8594" style="stroke:#181818;stroke-width:1.0;"/><line style="stroke:#181818;stroke-width:1.0;" x1="108" x2="960" y1="164.8594" y2="164.8594"/><text fill="#000000" font-family="sans-serif" font-size="20" font-weight="bold" lengthAdjust="spacing" textLength="14" x="115" y="158.1426">1</text><text fill="#000000" font-family="sans-serif" font-size="20" lengthAdjust="spacing" textLength="404" x="133" y="158.1426">Asks to display all data of an application</text><polygon fill="#181818" points="119,198.1406,109,202.1406,119,206.1406,115,202.1406" style="stroke:#181818;stroke-width:1.0;"/><line style="stroke:#181818;stroke-width:1.0;" x1="113" x2="970" y1="202.1406" y2="202.1406"/><text fill="#000000" font-family="sans-serif" font-size="20" font-weight="bold" lengthAdjust="spacing" textLength="14" x="125" y="195.4238">2</text><text fill="#000000" font-family="sans-serif" font-size="20" lengthAdjust="spacing" textLength="536" x="143" y="195.4238">Displays a list of job openings and asks to choose one</text><polygon fill="#181818" points="954,235.4219,964,239.4219,954,243.4219,958,239.4219" style="stroke:#181818;stroke-width:1.0;"/><line style="stroke:#181818;stroke-width:1.0;" x1="108" x2="960" y1="239.4219" y2="239.4219"/><text fill="#000000" font-family="sans-serif" font-size="20" font-weight="bold" lengthAdjust="spacing" textLength="14" x="115" y="232.7051">3</text><text fill="#000000" font-family="sans-serif" font-size="20" lengthAdjust="spacing" textLength="240" x="133" y="232.7051">Selects one job opening</text><polygon fill="#181818" points="119,272.7031,109,276.7031,119,280.7031,115,276.7031" style="stroke:#181818;stroke-width:1.0;"/><line style="stroke:#181818;stroke-width:1.0;" x1="113" x2="970" y1="276.7031" y2="276.7031"/><text fill="#000000" font-family="sans-serif" font-size="20" font-weight="bold" lengthAdjust="spacing" textLength="14" x="125" y="269.9863">4</text><text fill="#000000" font-family="sans-serif" font-size="20" lengthAdjust="spacing" textLength="816" x="143" y="269.9863">Displays a list of applications for the selected job opening and asks to choose one</text><polygon fill="#181818" points="954,309.9844,964,313.9844,954,317.9844,958,313.9844" style="stroke:#181818;stroke-width:1.0;"/><line style="stroke:#181818;stroke-width:1.0;" x1="108" x2="960" y1="313.9844" y2="313.9844"/><text fill="#000000" font-family="sans-serif" font-size="20" font-weight="bold" lengthAdjust="spacing" textLength="14" x="115" y="307.2676">5</text><text fill="#000000" font-family="sans-serif" font-size="20" lengthAdjust="spacing" textLength="221" x="133" y="307.2676">Selects an application</text><polygon fill="#181818" points="119,347.2656,109,351.2656,119,355.2656,115,351.2656" style="stroke:#181818;stroke-width:1.0;"/><line style="stroke:#181818;stroke-width:1.0;" x1="113" x2="970" y1="351.2656" y2="351.2656"/><text fill="#000000" font-family="sans-serif" font-size="20" font-weight="bold" lengthAdjust="spacing" textLength="14" x="125" y="344.5488">6</text><text fill="#000000" font-family="sans-serif" font-size="20" lengthAdjust="spacing" textLength="436" x="143" y="344.5488">Displays all data of the selected application</text><!--SRC=[bPDDJyCm38Rl_HNMJd2OX7RS0MciGWm9JQBQ3_1ITmlBufAueF7hSRklxgE2zHGdhry_iTEuihx4W6l7PaKvv5HWvUIPlMJsXs3maCIz1DRisIm3hmaaLDGwAT6iS46PR1n182Fe5wujY4lC-Tlw1HJe8YM9M55fHfyLUKEGMbpKkhiilOU-Xh5qk05q3d8K12u0FM1PEcjGBFiamKhOL-iv1LqRuG2zSHL5wGAyeLUSq0EC-tMY86ADBT4Bz7O5HiwbQZyjHdvqz9vDciJPv8QSiNOii7ExeiVmrAELqUXQyQdmbUVJahnshD4TmoxPEvKShRPXSvPmFEX4ESkzUfBKSvXZ9EYz3DBTkf6dJyq0x1SA7RgTW7wx0FgFsamOmYYk8WX3_lTuw_I3gKwYsQXTr6jlEzo_amW8paQfVJvu3hozkMxxN0ctHSsIMUdPqzOifml_SzwCdBxbMEUqVJlW_iVNkcI4Gb-jB0bYKqZ_lrQLJlWhu9tavp_D5lD6zjQKJc0ld4_9wfrV]--></g></svg>