<?xml version="1.0" encoding="UTF-8" standalone="no"?><svg xmlns="http://www.w3.org/2000/svg" xmlns:xlink="http://www.w3.org/1999/xlink" contentStyleType="text/css" height="850px" preserveAspectRatio="none" style="width:2145px;height:850px;background:#FFFFFF;" version="1.1" viewBox="0 0 2145 850" width="2145px" zoomAndPan="magnify"><defs/><g><text fill="#000000" font-family="sans-serif" font-size="14" font-weight="bold" lengthAdjust="spacing" textLength="473" x="837.5" y="27.9951">Sequence Diagram (SD) - Displayes all data of an application</text><rect fill="#FFFFFF" height="618.0625" style="stroke:#181818;stroke-width:1.0;" width="10" x="98" y="135.5781"/><rect fill="#FFFFFF" height="122.125" style="stroke:#181818;stroke-width:1.0;" width="10" x="982" y="164.8594"/><rect fill="#FFFFFF" height="122.125" style="stroke:#181818;stroke-width:1.0;" width="10" x="982" y="324.2656"/><rect fill="#FFFFFF" height="260.9688" style="stroke:#181818;stroke-width:1.0;" width="10" x="982" y="483.6719"/><rect fill="#FFFFFF" height="186.4063" style="stroke:#181818;stroke-width:1.0;" width="10" x="1351" y="520.9531"/><rect fill="#FFFFFF" height="111.8438" style="stroke:#181818;stroke-width:1.0;" width="10" x="1720" y="558.2344"/><rect fill="#FFFFFF" height="37.2813" style="stroke:#181818;stroke-width:1.0;" width="10" x="2089" y="595.5156"/><line style="stroke:#181818;stroke-width:0.5;stroke-dasharray:5.0,5.0;" x1="103" x2="103" y1="125.5781" y2="762.6406"/><line style="stroke:#181818;stroke-width:0.5;stroke-dasharray:5.0,5.0;" x1="986.5" x2="986.5" y1="125.5781" y2="762.6406"/><line style="stroke:#181818;stroke-width:0.5;stroke-dasharray:5.0,5.0;" x1="1355.5" x2="1355.5" y1="125.5781" y2="762.6406"/><line style="stroke:#181818;stroke-width:0.5;stroke-dasharray:5.0,5.0;" x1="1725" x2="1725" y1="125.5781" y2="762.6406"/><line style="stroke:#181818;stroke-width:0.5;stroke-dasharray:5.0,5.0;" x1="2094" x2="2094" y1="125.5781" y2="762.6406"/><text fill="#000000" font-family="sans-serif" font-size="20" lengthAdjust="spacing" textLength="190" x="5" y="120.8613">Customer Manager</text><ellipse cx="103" cy="50.7969" fill="#E3E3E3" rx="8" ry="8" style="stroke:#181818;stroke-width:0.5;"/><path d="M103,58.7969 L103,85.7969 M90,66.7969 L116,66.7969 M103,85.7969 L90,100.7969 M103,85.7969 L116,100.7969 " fill="none" style="stroke:#181818;stroke-width:0.5;"/><text fill="#000000" font-family="sans-serif" font-size="20" lengthAdjust="spacing" textLength="190" x="5" y="780.2051">Customer Manager</text><ellipse cx="103" cy="793.4219" fill="#E3E3E3" rx="8" ry="8" style="stroke:#181818;stroke-width:0.5;"/><path d="M103,801.4219 L103,828.4219 M90,809.4219 L116,809.4219 M103,828.4219 L90,843.4219 M103,828.4219 L116,843.4219 " fill="none" style="stroke:#181818;stroke-width:0.5;"/><rect fill="#E3E3E3" height="37.2813" rx="2.5" ry="2.5" style="stroke:#181818;stroke-width:0.5;" width="269" x="852.5" y="87.2969"/><text fill="#000000" font-family="sans-serif" font-size="20" lengthAdjust="spacing" textLength="255" x="859.5" y="112.8613">DisplayDataApplicationUI</text><rect fill="#E3E3E3" height="37.2813" rx="2.5" ry="2.5" style="stroke:#181818;stroke-width:0.5;" width="269" x="852.5" y="761.6406"/><text fill="#000000" font-family="sans-serif" font-size="20" lengthAdjust="spacing" textLength="255" x="859.5" y="787.2051">DisplayDataApplicationUI</text><rect fill="#E3E3E3" height="37.2813" rx="2.5" ry="2.5" style="stroke:#181818;stroke-width:0.5;" width="347" x="1182.5" y="87.2969"/><text fill="#000000" font-family="sans-serif" font-size="20" lengthAdjust="spacing" textLength="333" x="1189.5" y="112.8613">DisplayDataApplicationController</text><rect fill="#E3E3E3" height="37.2813" rx="2.5" ry="2.5" style="stroke:#181818;stroke-width:0.5;" width="347" x="1182.5" y="761.6406"/><text fill="#000000" font-family="sans-serif" font-size="20" lengthAdjust="spacing" textLength="333" x="1189.5" y="787.2051">DisplayDataApplicationController</text><rect fill="#E3E3E3" height="37.2813" rx="2.5" ry="2.5" style="stroke:#181818;stroke-width:0.5;" width="280" x="1585" y="87.2969"/><text fill="#000000" font-family="sans-serif" font-size="20" lengthAdjust="spacing" textLength="266" x="1592" y="112.8613">DisplayDataApplicationJPA</text><rect fill="#E3E3E3" height="37.2813" rx="2.5" ry="2.5" style="stroke:#181818;stroke-width:0.5;" width="280" x="1585" y="761.6406"/><text fill="#000000" font-family="sans-serif" font-size="20" lengthAdjust="spacing" textLength="266" x="1592" y="787.2051">DisplayDataApplicationJPA</text><text fill="#000000" font-family="sans-serif" font-size="20" lengthAdjust="spacing" textLength="94" x="2044" y="120.8613">Database</text><path d="M2076,66.2969 C2076,56.2969 2094,56.2969 2094,56.2969 C2094,56.2969 2112,56.2969 2112,66.2969 L2112,92.2969 C2112,102.2969 2094,102.2969 2094,102.2969 C2094,102.2969 2076,102.2969 2076,92.2969 L2076,66.2969 " fill="#E3E3E3" style="stroke:#181818;stroke-width:1.5;"/><path d="M2076,66.2969 C2076,76.2969 2094,76.2969 2094,76.2969 C2094,76.2969 2112,76.2969 2112,66.2969 " fill="none" style="stroke:#181818;stroke-width:1.5;"/><text fill="#000000" font-family="sans-serif" font-size="20" lengthAdjust="spacing" textLength="94" x="2044" y="780.2051">Database</text><path d="M2076,794.9219 C2076,784.9219 2094,784.9219 2094,784.9219 C2094,784.9219 2112,784.9219 2112,794.9219 L2112,820.9219 C2112,830.9219 2094,830.9219 2094,830.9219 C2094,830.9219 2076,830.9219 2076,820.9219 L2076,794.9219 " fill="#E3E3E3" style="stroke:#181818;stroke-width:1.5;"/><path d="M2076,794.9219 C2076,804.9219 2094,804.9219 2094,804.9219 C2094,804.9219 2112,804.9219 2112,794.9219 " fill="none" style="stroke:#181818;stroke-width:1.5;"/><rect fill="#FFFFFF" height="618.0625" style="stroke:#181818;stroke-width:1.0;" width="10" x="98" y="135.5781"/><rect fill="#FFFFFF" height="122.125" style="stroke:#181818;stroke-width:1.0;" width="10" x="982" y="164.8594"/><rect fill="#FFFFFF" height="122.125" style="stroke:#181818;stroke-width:1.0;" width="10" x="982" y="324.2656"/><rect fill="#FFFFFF" height="260.9688" style="stroke:#181818;stroke-width:1.0;" width="10" x="982" y="483.6719"/><rect fill="#FFFFFF" height="186.4063" style="stroke:#181818;stroke-width:1.0;" width="10" x="1351" y="520.9531"/><rect fill="#FFFFFF" height="111.8438" style="stroke:#181818;stroke-width:1.0;" width="10" x="1720" y="558.2344"/><rect fill="#FFFFFF" height="37.2813" style="stroke:#181818;stroke-width:1.0;" width="10" x="2089" y="595.5156"/><polygon fill="#181818" points="970,160.8594,980,164.8594,970,168.8594,974,164.8594" style="stroke:#181818;stroke-width:1.0;"/><line style="stroke:#181818;stroke-width:1.0;" x1="108" x2="976" y1="164.8594" y2="164.8594"/><text fill="#000000" font-family="sans-serif" font-size="20" font-weight="bold" lengthAdjust="spacing" textLength="14" x="115" y="158.1426">1</text><text fill="#000000" font-family="sans-serif" font-size="20" lengthAdjust="spacing" textLength="526" x="133" y="158.1426">Asks to register display all the data of an application</text><rect fill="none" height="79.8438" style="stroke:#000000;stroke-width:1.5;" width="275" x="849.5" y="172.8594"/><path d="M849.5,172.8594 L927.5,172.8594 L927.5,187.8594 L917.5,197.8594 L849.5,197.8594 L849.5,172.8594 " fill="#EEEEEE" style="stroke:#000000;stroke-width:2.0;"/><text fill="#000000" font-family="sans-serif" font-size="20" font-weight="bold" lengthAdjust="spacing" textLength="33" x="862.5" y="193.4238">ref</text><text fill="#000000" font-family="sans-serif" font-size="20" lengthAdjust="spacing" textLength="170" x="899" y="220.4238">List job openings</text><text fill="#000000" font-family="sans-serif" font-size="20" lengthAdjust="spacing" textLength="102" x="936" y="243.7051">(US 1003)</text><polygon fill="#181818" points="119,282.9844,109,286.9844,119,290.9844,115,286.9844" style="stroke:#181818;stroke-width:1.0;"/><line style="stroke:#181818;stroke-width:1.0;" x1="113" x2="986" y1="286.9844" y2="286.9844"/><text fill="#000000" font-family="sans-serif" font-size="20" font-weight="bold" lengthAdjust="spacing" textLength="14" x="125" y="280.2676">2</text><text fill="#000000" font-family="sans-serif" font-size="20" lengthAdjust="spacing" textLength="832" x="143" y="280.2676">displays list of job openings and asks to choose of which the application belongs to</text><polygon fill="#181818" points="970,320.2656,980,324.2656,970,328.2656,974,324.2656" style="stroke:#181818;stroke-width:1.0;"/><line style="stroke:#181818;stroke-width:1.0;" x1="108" x2="976" y1="324.2656" y2="324.2656"/><text fill="#000000" font-family="sans-serif" font-size="20" font-weight="bold" lengthAdjust="spacing" textLength="14" x="115" y="317.5488">3</text><text fill="#000000" font-family="sans-serif" font-size="20" lengthAdjust="spacing" textLength="237" x="133" y="317.5488">selects one job opening</text><rect fill="none" height="79.8438" style="stroke:#000000;stroke-width:1.5;" width="353" x="849.5" y="332.2656"/><path d="M849.5,332.2656 L927.5,332.2656 L927.5,347.2656 L917.5,357.2656 L849.5,357.2656 L849.5,332.2656 " fill="#EEEEEE" style="stroke:#000000;stroke-width:2.0;"/><text fill="#000000" font-family="sans-serif" font-size="20" font-weight="bold" lengthAdjust="spacing" textLength="33" x="862.5" y="352.8301">ref</text><text fill="#000000" font-family="sans-serif" font-size="20" lengthAdjust="spacing" textLength="339" x="853.5" y="379.8301">List applications for a job opening</text><text fill="#000000" font-family="sans-serif" font-size="20" lengthAdjust="spacing" textLength="102" x="975" y="403.1113">(US 1005)</text><polygon fill="#181818" points="119,442.3906,109,446.3906,119,450.3906,115,446.3906" style="stroke:#181818;stroke-width:1.0;"/><line style="stroke:#181818;stroke-width:1.0;" x1="113" x2="986" y1="446.3906" y2="446.3906"/><text fill="#000000" font-family="sans-serif" font-size="20" font-weight="bold" lengthAdjust="spacing" textLength="14" x="125" y="439.6738">4</text><text fill="#000000" font-family="sans-serif" font-size="20" lengthAdjust="spacing" textLength="484" x="143" y="439.6738">dysplayes list of applications for the job opening</text><polygon fill="#181818" points="970,479.6719,980,483.6719,970,487.6719,974,483.6719" style="stroke:#181818;stroke-width:1.0;"/><line style="stroke:#181818;stroke-width:1.0;" x1="108" x2="976" y1="483.6719" y2="483.6719"/><text fill="#000000" font-family="sans-serif" font-size="20" font-weight="bold" lengthAdjust="spacing" textLength="14" x="115" y="476.9551">5</text><text fill="#000000" font-family="sans-serif" font-size="20" lengthAdjust="spacing" textLength="218" x="133" y="476.9551">selects an application</text><polygon fill="#181818" points="1339,516.9531,1349,520.9531,1339,524.9531,1343,520.9531" style="stroke:#181818;stroke-width:1.0;"/><line style="stroke:#181818;stroke-width:1.0;" x1="992" x2="1345" y1="520.9531" y2="520.9531"/><text fill="#000000" font-family="sans-serif" font-size="20" font-weight="bold" lengthAdjust="spacing" textLength="14" x="999" y="514.2363">6</text><text fill="#000000" font-family="sans-serif" font-size="20" lengthAdjust="spacing" textLength="322" x="1017" y="514.2363">getApplicationData(application)</text><polygon fill="#181818" points="1708,554.2344,1718,558.2344,1708,562.2344,1712,558.2344" style="stroke:#181818;stroke-width:1.0;"/><line style="stroke:#181818;stroke-width:1.0;" x1="1361" x2="1714" y1="558.2344" y2="558.2344"/><text fill="#000000" font-family="sans-serif" font-size="20" font-weight="bold" lengthAdjust="spacing" textLength="14" x="1368" y="551.5176">7</text><text fill="#000000" font-family="sans-serif" font-size="20" lengthAdjust="spacing" textLength="322" x="1386" y="551.5176">getApplicationData(application)</text><polygon fill="#181818" points="2077,591.5156,2087,595.5156,2077,599.5156,2081,595.5156" style="stroke:#181818;stroke-width:1.0;"/><line style="stroke:#181818;stroke-width:1.0;" x1="1730" x2="2083" y1="595.5156" y2="595.5156"/><text fill="#000000" font-family="sans-serif" font-size="20" font-weight="bold" lengthAdjust="spacing" textLength="14" x="1737" y="588.7988">8</text><text fill="#000000" font-family="sans-serif" font-size="20" lengthAdjust="spacing" textLength="322" x="1755" y="588.7988">getApplicationData(application)</text><polygon fill="#181818" points="1741,628.7969,1731,632.7969,1741,636.7969,1737,632.7969" style="stroke:#181818;stroke-width:1.0;"/><line style="stroke:#181818;stroke-width:1.0;" x1="1735" x2="2093" y1="632.7969" y2="632.7969"/><text fill="#000000" font-family="sans-serif" font-size="20" font-weight="bold" lengthAdjust="spacing" textLength="14" x="1747" y="626.0801">9</text><text fill="#000000" font-family="sans-serif" font-size="20" lengthAdjust="spacing" textLength="159" x="1765" y="626.0801">applicationData</text><polygon fill="#181818" points="1372,666.0781,1362,670.0781,1372,674.0781,1368,670.0781" style="stroke:#181818;stroke-width:1.0;"/><line style="stroke:#181818;stroke-width:1.0;" x1="1366" x2="1724" y1="670.0781" y2="670.0781"/><text fill="#000000" font-family="sans-serif" font-size="20" font-weight="bold" lengthAdjust="spacing" textLength="28" x="1378" y="663.3613">10</text><text fill="#000000" font-family="sans-serif" font-size="20" lengthAdjust="spacing" textLength="159" x="1410" y="663.3613">applicationData</text><polygon fill="#181818" points="1003,703.3594,993,707.3594,1003,711.3594,999,707.3594" style="stroke:#181818;stroke-width:1.0;"/><line style="stroke:#181818;stroke-width:1.0;" x1="997" x2="1355" y1="707.3594" y2="707.3594"/><text fill="#000000" font-family="sans-serif" font-size="20" font-weight="bold" lengthAdjust="spacing" textLength="28" x="1009" y="700.6426">11</text><text fill="#000000" font-family="sans-serif" font-size="20" lengthAdjust="spacing" textLength="159" x="1041" y="700.6426">applicationData</text><polygon fill="#181818" points="119,740.6406,109,744.6406,119,748.6406,115,744.6406" style="stroke:#181818;stroke-width:1.0;"/><line style="stroke:#181818;stroke-width:1.0;" x1="113" x2="986" y1="744.6406" y2="744.6406"/><text fill="#000000" font-family="sans-serif" font-size="20" font-weight="bold" lengthAdjust="spacing" textLength="28" x="125" y="737.9238">12</text><text fill="#000000" font-family="sans-serif" font-size="20" lengthAdjust="spacing" textLength="361" x="157" y="737.9238">dysplayes all data of the application</text><!--SRC=[bLHDZvim4BtxLunoIWuhfQrwsKEbxA9AMxLI9PHRBnCpW3UEJR7PLVhhEtQ0E93zucJiUM_U6vvnUsKQRF6WhTnJ0GMLs6d_tHgVgty4dzV23ILmiCRAkhK70jzsb9mqAFTOKUwFcg0bwT5KEYrmDHRsMPaAIjIEXF3ASsbEVpioaY1JM8MwPPwju8PVNQFnI0vGQoZG8zWIq00sZLOIlR962EoyDTrXHoslfRSjBEuxvrbV2x_GiA1s0UY6jM0fNadLeF6mw5japBqvasuV8cBxy9xYUvvIQxNksvnVtmF-yNiJKOyDYc1mXuwujb_5e-mks59Fw6dq882V_WLklh5Ik8MDsplmbYTVAUVve3YrZDFpDRqqmS0rTc3FSQEb4kmJaqJgdqm8ZtO7jY73ty_17xFSvl1flVwo4g66HGnwReV63dJ0SSSBA9g2VPsqojfQTimbpxMITPIPQ8CTQHimtfva5JHJEXs38ytHSs0DfNrdDY5vhhXDL3WeELMOiftzVrs9aMesX-CGu64GCzPWE5KfhZXyqUBqAbp_b2TLvrmoGKK-2M68sp8XMas8aaZ7WuIAYJcw7sOCSOyx0SmSsTs7AVXQn0s6ZYBm4ZwBp83fkrwCv2tiAFdIVVmURs6d0tmzA-dFRd8Vhbs2iFCV]--></g></svg>