<?xml version="1.0" encoding="UTF-8" standalone="no"?><svg xmlns="http://www.w3.org/2000/svg" xmlns:xlink="http://www.w3.org/1999/xlink" contentStyleType="text/css" height="717px" preserveAspectRatio="none" style="width:2972px;height:717px;background:#FFFFFF;" version="1.1" viewBox="0 0 2972 717" width="2972px" zoomAndPan="magnify"><defs/><g><text fill="#000000" font-family="sans-serif" font-size="14" font-weight="bold" lengthAdjust="spacing" textLength="187" x="1385.75" y="22.9951">Domain Model - US1004</text><!--cluster <<aggregate>> Job Opening--><g id="cluster_&lt;&lt;aggregate&gt;&gt; Job Opening"><path d="M8.5,44.5137 L296.5,44.5137 A3.75,3.75 0 0 1 299,47.0137 L306,73.7949 L1885.5,73.7949 A2.5,2.5 0 0 1 1888,76.2949 L1888,361.5137 A2.5,2.5 0 0 1 1885.5,364.0137 L8.5,364.0137 A2.5,2.5 0 0 1 6,361.5137 L6,47.0137 A2.5,2.5 0 0 1 8.5,44.5137 " fill="#EBF5FB" style="stroke:#000000;stroke-width:1.5;"/><line style="stroke:#000000;stroke-width:1.5;" x1="6" x2="306" y1="73.7949" y2="73.7949"/><text fill="#000000" font-family="sans-serif" font-size="20" font-weight="bold" lengthAdjust="spacing" textLength="287" x="10" y="65.0781">«aggregate» Job Opening</text></g><!--cluster <<aggregate>> Customer--><g id="cluster_&lt;&lt;aggregate&gt;&gt; Customer"><path d="M1914.5,237.5137 L2176.5,237.5137 A3.75,3.75 0 0 1 2179,240.0137 L2186,266.7949 L2346.5,266.7949 A2.5,2.5 0 0 1 2349,269.2949 L2349,554.5137 A2.5,2.5 0 0 1 2346.5,557.0137 L1914.5,557.0137 A2.5,2.5 0 0 1 1912,554.5137 L1912,240.0137 A2.5,2.5 0 0 1 1914.5,237.5137 " fill="#EBF5FB" style="stroke:#000000;stroke-width:1.5;"/><line style="stroke:#000000;stroke-width:1.5;" x1="1912" x2="2186" y1="266.7949" y2="266.7949"/><text fill="#000000" font-family="sans-serif" font-size="20" font-weight="bold" lengthAdjust="spacing" textLength="261" x="1916" y="258.0781">«aggregate» Customer</text></g><!--cluster <<aggregate>> Plugin--><g id="cluster_&lt;&lt;aggregate&gt;&gt; Plugin"><path d="M1200.5,430.5137 L1423.5,430.5137 A3.75,3.75 0 0 1 1426,433.0137 L1433,459.7949 L1885.5,459.7949 A2.5,2.5 0 0 1 1888,462.2949 L1888,708.0137 A2.5,2.5 0 0 1 1885.5,710.5137 L1200.5,710.5137 A2.5,2.5 0 0 1 1198,708.0137 L1198,433.0137 A2.5,2.5 0 0 1 1200.5,430.5137 " fill="#EBF5FB" style="stroke:#000000;stroke-width:1.5;"/><line style="stroke:#000000;stroke-width:1.5;" x1="1198" x2="1433" y1="459.7949" y2="459.7949"/><text fill="#000000" font-family="sans-serif" font-size="20" font-weight="bold" lengthAdjust="spacing" textLength="222" x="1202" y="451.0781">«aggregate» Plugin</text></g><!--class JobOpening--><g id="elem_JobOpening"><rect codeLine="21" fill="#FDEBD0" height="79.8438" id="JobOpening" rx="2.5" ry="2.5" style="stroke:#181818;stroke-width:0.5;" width="151" x="990.5" y="86.5137"/><ellipse cx="1006.5" cy="126.4355" fill="#ADD1B2" rx="12" ry="12" style="stroke:#181818;stroke-width:1.0;"/><path d="M1011.2188,133.9355 L1002.1406,133.9355 L1002.1406,119.3574 L1011.2188,119.3574 L1011.2188,121.8887 L1005.0156,121.8887 L1005.0156,125.0449 L1010.6406,125.0449 L1010.6406,127.5762 L1005.0156,127.5762 L1005.0156,131.3887 L1011.2188,131.3887 L1011.2188,133.9355 Z " fill="#000000"/><text fill="#000000" font-family="sans-serif" font-size="20" font-style="italic" lengthAdjust="spacing" textLength="83" x="1038.5" y="110.0781">«entity»</text><text fill="#000000" font-family="sans-serif" font-size="20" font-style="italic" lengthAdjust="spacing" textLength="64" x="1048" y="133.3594">«root»</text><text fill="#000000" font-family="sans-serif" font-size="20" lengthAdjust="spacing" textLength="117" x="1021.5" y="156.6406">JobOpening</text></g><!--class JobReference--><g id="elem_JobReference"><rect codeLine="23" fill="#D6EAF8" height="56.5625" id="JobReference" rx="2.5" ry="2.5" style="stroke:#181818;stroke-width:0.5;" width="175" x="22.5" y="291.0137"/><ellipse cx="38.5" cy="319.2949" fill="#FF8B40" rx="12" ry="12" style="stroke:#181818;stroke-width:1.0;"/><path d="M38.5156,325.1387 L41.0781,312.9668 L43.9844,312.9668 L40.5156,327.5449 L36.5313,327.5449 L33.0625,312.9668 L35.9531,312.9668 L38.5156,325.1387 Z " fill="#000000"/><text fill="#000000" font-family="sans-serif" font-size="20" font-style="italic" lengthAdjust="spacing" textLength="145" x="51.5" y="314.5781">«valueObject»</text><text fill="#000000" font-family="sans-serif" font-size="20" lengthAdjust="spacing" textLength="132" x="58" y="337.8594">JobReference</text></g><!--class TitleOrFunction--><g id="elem_TitleOrFunction"><rect codeLine="24" fill="#D6EAF8" height="56.5625" id="TitleOrFunction" rx="2.5" ry="2.5" style="stroke:#181818;stroke-width:0.5;" width="190" x="233" y="291.0137"/><ellipse cx="249" cy="319.2949" fill="#FF8B40" rx="12" ry="12" style="stroke:#181818;stroke-width:1.0;"/><path d="M249.0156,325.1387 L251.5781,312.9668 L254.4844,312.9668 L251.0156,327.5449 L247.0313,327.5449 L243.5625,312.9668 L246.4531,312.9668 L249.0156,325.1387 Z " fill="#000000"/><text fill="#000000" font-family="sans-serif" font-size="20" font-style="italic" lengthAdjust="spacing" textLength="145" x="269.5" y="314.5781">«valueObject»</text><text fill="#000000" font-family="sans-serif" font-size="20" lengthAdjust="spacing" textLength="156" x="264" y="337.8594">TitleOrFunction</text></g><!--class ContractType--><g id="elem_ContractType"><rect codeLine="25" fill="#D6EAF8" height="56.5625" id="ContractType" rx="2.5" ry="2.5" style="stroke:#181818;stroke-width:0.5;" width="175" x="458.5" y="291.0137"/><ellipse cx="474.5" cy="319.2949" fill="#FF8B40" rx="12" ry="12" style="stroke:#181818;stroke-width:1.0;"/><path d="M474.5156,325.1387 L477.0781,312.9668 L479.9844,312.9668 L476.5156,327.5449 L472.5313,327.5449 L469.0625,312.9668 L471.9531,312.9668 L474.5156,325.1387 Z " fill="#000000"/><text fill="#000000" font-family="sans-serif" font-size="20" font-style="italic" lengthAdjust="spacing" textLength="145" x="487.5" y="314.5781">«valueObject»</text><text fill="#000000" font-family="sans-serif" font-size="20" lengthAdjust="spacing" textLength="134" x="493" y="337.8594">ContractType</text></g><!--class Mode--><g id="elem_Mode"><rect codeLine="26" fill="#D6EAF8" height="56.5625" id="Mode" rx="2.5" ry="2.5" style="stroke:#181818;stroke-width:0.5;" width="175" x="668.5" y="291.0137"/><ellipse cx="684.5" cy="319.2949" fill="#FF8B40" rx="12" ry="12" style="stroke:#181818;stroke-width:1.0;"/><path d="M684.5156,325.1387 L687.0781,312.9668 L689.9844,312.9668 L686.5156,327.5449 L682.5313,327.5449 L679.0625,312.9668 L681.9531,312.9668 L684.5156,325.1387 Z " fill="#000000"/><text fill="#000000" font-family="sans-serif" font-size="20" font-style="italic" lengthAdjust="spacing" textLength="145" x="697.5" y="314.5781">«valueObject»</text><text fill="#000000" font-family="sans-serif" font-size="20" lengthAdjust="spacing" textLength="54" x="743" y="337.8594">Mode</text></g><!--class Company--><g id="elem_Company"><rect codeLine="27" fill="#D6EAF8" height="56.5625" id="Company" rx="2.5" ry="2.5" style="stroke:#181818;stroke-width:0.5;" width="175" x="878.5" y="291.0137"/><ellipse cx="894.5" cy="319.2949" fill="#FF8B40" rx="12" ry="12" style="stroke:#181818;stroke-width:1.0;"/><path d="M894.5156,325.1387 L897.0781,312.9668 L899.9844,312.9668 L896.5156,327.5449 L892.5313,327.5449 L889.0625,312.9668 L891.9531,312.9668 L894.5156,325.1387 Z " fill="#000000"/><text fill="#000000" font-family="sans-serif" font-size="20" font-style="italic" lengthAdjust="spacing" textLength="145" x="907.5" y="314.5781">«valueObject»</text><text fill="#000000" font-family="sans-serif" font-size="20" lengthAdjust="spacing" textLength="95" x="932.5" y="337.8594">Company</text></g><!--class NumberOfVacancies--><g id="elem_NumberOfVacancies"><rect codeLine="28" fill="#D6EAF8" height="56.5625" id="NumberOfVacancies" rx="2.5" ry="2.5" style="stroke:#181818;stroke-width:0.5;" width="239" x="1088.5" y="291.0137"/><ellipse cx="1104.5" cy="319.2949" fill="#FF8B40" rx="12" ry="12" style="stroke:#181818;stroke-width:1.0;"/><path d="M1104.5156,325.1387 L1107.0781,312.9668 L1109.9844,312.9668 L1106.5156,327.5449 L1102.5313,327.5449 L1099.0625,312.9668 L1101.9531,312.9668 L1104.5156,325.1387 Z " fill="#000000"/><text fill="#000000" font-family="sans-serif" font-size="20" font-style="italic" lengthAdjust="spacing" textLength="145" x="1149.5" y="314.5781">«valueObject»</text><text fill="#000000" font-family="sans-serif" font-size="20" lengthAdjust="spacing" textLength="205" x="1119.5" y="337.8594">NumberOfVacancies</text></g><!--class JobDescription--><g id="elem_JobDescription"><rect codeLine="29" fill="#D6EAF8" height="56.5625" id="JobDescription" rx="2.5" ry="2.5" style="stroke:#181818;stroke-width:0.5;" width="179" x="1362.5" y="291.0137"/><ellipse cx="1378.5" cy="319.2949" fill="#FF8B40" rx="12" ry="12" style="stroke:#181818;stroke-width:1.0;"/><path d="M1378.5156,325.1387 L1381.0781,312.9668 L1383.9844,312.9668 L1380.5156,327.5449 L1376.5313,327.5449 L1373.0625,312.9668 L1375.9531,312.9668 L1378.5156,325.1387 Z " fill="#000000"/><text fill="#000000" font-family="sans-serif" font-size="20" font-style="italic" lengthAdjust="spacing" textLength="145" x="1393.5" y="314.5781">«valueObject»</text><text fill="#000000" font-family="sans-serif" font-size="20" lengthAdjust="spacing" textLength="145" x="1393.5" y="337.8594">JobDescription</text></g><!--class RequirementSpecification--><g id="elem_RequirementSpecification"><rect codeLine="30" fill="#FEF9E7" height="56.5625" id="RequirementSpecification" rx="2.5" ry="2.5" style="stroke:#181818;stroke-width:0.5;" width="295" x="1576.5" y="291.0137"/><ellipse cx="1592.5" cy="319.2949" fill="#ADD1B2" rx="12" ry="12" style="stroke:#181818;stroke-width:1.0;"/><path d="M1597.2188,326.7949 L1588.1406,326.7949 L1588.1406,312.2168 L1597.2188,312.2168 L1597.2188,314.748 L1591.0156,314.748 L1591.0156,317.9043 L1596.6406,317.9043 L1596.6406,320.4355 L1591.0156,320.4355 L1591.0156,324.248 L1597.2188,324.248 L1597.2188,326.7949 Z " fill="#000000"/><text fill="#000000" font-family="sans-serif" font-size="20" font-style="italic" lengthAdjust="spacing" textLength="83" x="1696.5" y="314.5781">«entity»</text><text fill="#000000" font-family="sans-serif" font-size="20" lengthAdjust="spacing" textLength="261" x="1607.5" y="337.8594">RequirementSpecification</text></g><!--class Customer--><g id="elem_Customer"><rect codeLine="35" fill="#FDEBD0" height="79.8438" id="Customer" rx="2.5" ry="2.5" style="stroke:#181818;stroke-width:0.5;" width="131" x="2194.5" y="279.5137"/><ellipse cx="2210.5" cy="319.4355" fill="#ADD1B2" rx="12" ry="12" style="stroke:#181818;stroke-width:1.0;"/><path d="M2215.2188,326.9355 L2206.1406,326.9355 L2206.1406,312.3574 L2215.2188,312.3574 L2215.2188,314.8887 L2209.0156,314.8887 L2209.0156,318.0449 L2214.6406,318.0449 L2214.6406,320.5762 L2209.0156,320.5762 L2209.0156,324.3887 L2215.2188,324.3887 L2215.2188,326.9355 Z " fill="#000000"/><text fill="#000000" font-family="sans-serif" font-size="20" font-style="italic" lengthAdjust="spacing" textLength="83" x="2232.5" y="303.0781">«entity»</text><text fill="#000000" font-family="sans-serif" font-size="20" font-style="italic" lengthAdjust="spacing" textLength="64" x="2242" y="326.3594">«root»</text><text fill="#000000" font-family="sans-serif" font-size="20" lengthAdjust="spacing" textLength="97" x="2225.5" y="349.6406">Customer</text></g><!--class CompanyName--><g id="elem_CompanyName"><rect codeLine="37" fill="#D6EAF8" height="56.5625" id="CompanyName" rx="2.5" ry="2.5" style="stroke:#181818;stroke-width:0.5;" width="188" x="1928" y="484.0137"/><ellipse cx="1944" cy="512.2949" fill="#FF8B40" rx="12" ry="12" style="stroke:#181818;stroke-width:1.0;"/><path d="M1944.0156,518.1387 L1946.5781,505.9668 L1949.4844,505.9668 L1946.0156,520.5449 L1942.0313,520.5449 L1938.5625,505.9668 L1941.4531,505.9668 L1944.0156,518.1387 Z " fill="#000000"/><text fill="#000000" font-family="sans-serif" font-size="20" font-style="italic" lengthAdjust="spacing" textLength="145" x="1963.5" y="507.5781">«valueObject»</text><text fill="#000000" font-family="sans-serif" font-size="20" lengthAdjust="spacing" textLength="154" x="1959" y="530.8594">CompanyName</text></g><!--class CustomerCode--><g id="elem_CustomerCode"><rect codeLine="38" fill="#D6EAF8" height="56.5625" id="CustomerCode" rx="2.5" ry="2.5" style="stroke:#181818;stroke-width:0.5;" width="182" x="2151" y="484.0137"/><ellipse cx="2167" cy="512.2949" fill="#FF8B40" rx="12" ry="12" style="stroke:#181818;stroke-width:1.0;"/><path d="M2167.0156,518.1387 L2169.5781,505.9668 L2172.4844,505.9668 L2169.0156,520.5449 L2165.0313,520.5449 L2161.5625,505.9668 L2164.4531,505.9668 L2167.0156,518.1387 Z " fill="#000000"/><text fill="#000000" font-family="sans-serif" font-size="20" font-style="italic" lengthAdjust="spacing" textLength="145" x="2183.5" y="507.5781">«valueObject»</text><text fill="#000000" font-family="sans-serif" font-size="20" lengthAdjust="spacing" textLength="148" x="2182" y="530.8594">CustomerCode</text></g><!--class Plugin--><g id="elem_Plugin"><rect codeLine="44" fill="#FDEBD0" height="79.8438" id="Plugin" rx="2.5" ry="2.5" style="stroke:#181818;stroke-width:0.5;" width="113" x="1574.5" y="472.5137"/><ellipse cx="1590.5" cy="512.4355" fill="#ADD1B2" rx="12" ry="12" style="stroke:#181818;stroke-width:1.0;"/><path d="M1595.2188,519.9355 L1586.1406,519.9355 L1586.1406,505.3574 L1595.2188,505.3574 L1595.2188,507.8887 L1589.0156,507.8887 L1589.0156,511.0449 L1594.6406,511.0449 L1594.6406,513.5762 L1589.0156,513.5762 L1589.0156,517.3887 L1595.2188,517.3887 L1595.2188,519.9355 Z " fill="#000000"/><text fill="#000000" font-family="sans-serif" font-size="20" font-style="italic" lengthAdjust="spacing" textLength="83" x="1603.5" y="496.0781">«entity»</text><text fill="#000000" font-family="sans-serif" font-size="20" font-style="italic" lengthAdjust="spacing" textLength="64" x="1613" y="519.3594">«root»</text><text fill="#000000" font-family="sans-serif" font-size="20" lengthAdjust="spacing" textLength="63" x="1613.5" y="542.6406">Plugin</text></g><!--class RequirementModel--><g id="elem_RequirementModel"><rect codeLine="45" fill="#FEF9E7" height="56.5625" id="RequirementModel" rx="2.5" ry="2.5" style="stroke:#181818;stroke-width:0.5;" width="225" x="1214.5" y="637.5137"/><ellipse cx="1230.5" cy="665.7949" fill="#ADD1B2" rx="12" ry="12" style="stroke:#181818;stroke-width:1.0;"/><path d="M1235.2188,673.2949 L1226.1406,673.2949 L1226.1406,658.7168 L1235.2188,658.7168 L1235.2188,661.248 L1229.0156,661.248 L1229.0156,664.4043 L1234.6406,664.4043 L1234.6406,666.9355 L1229.0156,666.9355 L1229.0156,670.748 L1235.2188,670.748 L1235.2188,673.2949 Z " fill="#000000"/><text fill="#000000" font-family="sans-serif" font-size="20" font-style="italic" lengthAdjust="spacing" textLength="83" x="1299.5" y="661.0781">«entity»</text><text fill="#000000" font-family="sans-serif" font-size="20" lengthAdjust="spacing" textLength="191" x="1245.5" y="684.3594">RequirementModel</text></g><!--class InterviewModel--><g id="elem_InterviewModel"><rect codeLine="46" fill="#FEF9E7" height="56.5625" id="InterviewModel" rx="2.5" ry="2.5" style="stroke:#181818;stroke-width:0.5;" width="187" x="1474.5" y="637.5137"/><ellipse cx="1490.5" cy="665.7949" fill="#ADD1B2" rx="12" ry="12" style="stroke:#181818;stroke-width:1.0;"/><path d="M1495.2188,673.2949 L1486.1406,673.2949 L1486.1406,658.7168 L1495.2188,658.7168 L1495.2188,661.248 L1489.0156,661.248 L1489.0156,664.4043 L1494.6406,664.4043 L1494.6406,666.9355 L1489.0156,666.9355 L1489.0156,670.748 L1495.2188,670.748 L1495.2188,673.2949 Z " fill="#000000"/><text fill="#000000" font-family="sans-serif" font-size="20" font-style="italic" lengthAdjust="spacing" textLength="83" x="1540.5" y="661.0781">«entity»</text><text fill="#000000" font-family="sans-serif" font-size="20" lengthAdjust="spacing" textLength="153" x="1505.5" y="684.3594">InterviewModel</text></g><!--class Description--><g id="elem_Description"><rect codeLine="48" fill="#D6EAF8" height="56.5625" id="Description" rx="2.5" ry="2.5" style="stroke:#181818;stroke-width:0.5;" width="175" x="1696.5" y="637.5137"/><ellipse cx="1712.5" cy="665.7949" fill="#FF8B40" rx="12" ry="12" style="stroke:#181818;stroke-width:1.0;"/><path d="M1712.5156,671.6387 L1715.0781,659.4668 L1717.9844,659.4668 L1714.5156,674.0449 L1710.5313,674.0449 L1707.0625,659.4668 L1709.9531,659.4668 L1712.5156,671.6387 Z " fill="#000000"/><text fill="#000000" font-family="sans-serif" font-size="20" font-style="italic" lengthAdjust="spacing" textLength="145" x="1725.5" y="661.0781">«valueObject»</text><text fill="#000000" font-family="sans-serif" font-size="20" lengthAdjust="spacing" textLength="114" x="1741" y="684.3594">Description</text></g><!--class Address--><g id="elem_Address"><rect codeLine="51" fill="#D6EAF8" height="56.5625" id="Address" rx="2.5" ry="2.5" style="stroke:#181818;stroke-width:0.5;" width="175" x="2790.5" y="484.0137"/><ellipse cx="2806.5" cy="512.2949" fill="#FF8B40" rx="12" ry="12" style="stroke:#181818;stroke-width:1.0;"/><path d="M2806.5156,518.1387 L2809.0781,505.9668 L2811.9844,505.9668 L2808.5156,520.5449 L2804.5313,520.5449 L2801.0625,505.9668 L2803.9531,505.9668 L2806.5156,518.1387 Z " fill="#000000"/><text fill="#000000" font-family="sans-serif" font-size="20" font-style="italic" lengthAdjust="spacing" textLength="145" x="2819.5" y="507.5781">«valueObject»</text><text fill="#000000" font-family="sans-serif" font-size="20" lengthAdjust="spacing" textLength="80" x="2852" y="530.8594">Address</text></g><!--class PhoneNumber--><g id="elem_PhoneNumber"><rect codeLine="53" fill="#D6EAF8" height="56.5625" id="PhoneNumber" rx="2.5" ry="2.5" style="stroke:#181818;stroke-width:0.5;" width="177" x="2368.5" y="484.0137"/><ellipse cx="2384.5" cy="512.2949" fill="#FF8B40" rx="12" ry="12" style="stroke:#181818;stroke-width:1.0;"/><path d="M2384.5156,518.1387 L2387.0781,505.9668 L2389.9844,505.9668 L2386.5156,520.5449 L2382.5313,520.5449 L2379.0625,505.9668 L2381.9531,505.9668 L2384.5156,518.1387 Z " fill="#000000"/><text fill="#000000" font-family="sans-serif" font-size="20" font-style="italic" lengthAdjust="spacing" textLength="145" x="2398.5" y="507.5781">«valueObject»</text><text fill="#000000" font-family="sans-serif" font-size="20" lengthAdjust="spacing" textLength="143" x="2399.5" y="530.8594">PhoneNumber</text></g><!--class Email--><g id="elem_Email"><rect codeLine="54" fill="#D6EAF8" height="56.5625" id="Email" rx="2.5" ry="2.5" style="stroke:#181818;stroke-width:0.5;" width="175" x="2580.5" y="484.0137"/><ellipse cx="2596.5" cy="512.2949" fill="#FF8B40" rx="12" ry="12" style="stroke:#181818;stroke-width:1.0;"/><path d="M2596.5156,518.1387 L2599.0781,505.9668 L2601.9844,505.9668 L2598.5156,520.5449 L2594.5313,520.5449 L2591.0625,505.9668 L2593.9531,505.9668 L2596.5156,518.1387 Z " fill="#000000"/><text fill="#000000" font-family="sans-serif" font-size="20" font-style="italic" lengthAdjust="spacing" textLength="145" x="2609.5" y="507.5781">«valueObject»</text><text fill="#000000" font-family="sans-serif" font-size="20" lengthAdjust="spacing" textLength="57" x="2653.5" y="530.8594">Email</text></g><!--link JobOpening to JobReference--><g id="link_JobOpening_JobReference"><path codeLine="58" d="M990.35,130.7037 C808.67,139.2937 352.64,166.6537 215,229.5137 C185.45,243.0037 157.68,267.2637 138.12,287.0537 " fill="none" id="JobOpening-to-JobReference" style="stroke:#000000;stroke-width:1.0;"/><polygon fill="#000000" points="134.33,290.9437,143.4862,287.3155,137.8296,287.3726,137.7725,281.716,134.33,290.9437" style="stroke:#000000;stroke-width:1.0;"/><text fill="#000000" font-family="sans-serif" font-size="20" lengthAdjust="spacing" textLength="35" x="316" y="216.0781">has</text><text fill="#000000" font-family="sans-serif" font-size="20" lengthAdjust="spacing" textLength="13" x="969.5201" y="150.7844">1</text><text fill="#000000" font-family="sans-serif" font-size="20" lengthAdjust="spacing" textLength="13" x="125.0074" y="278.3178">1</text></g><!--link JobOpening to TitleOrFunction--><g id="link_JobOpening_TitleOrFunction"><path codeLine="59" d="M990.29,127.5237 C869.03,130.1937 626.1,146.5537 441,229.5137 C410.11,243.3637 380.25,267.4937 358.99,287.1437 " fill="none" id="JobOpening-to-TitleOrFunction" style="stroke:#000000;stroke-width:1.0;"/><polygon fill="#000000" points="355.12,290.7637,364.4283,287.5457,358.7748,287.3516,358.969,281.6981,355.12,290.7637" style="stroke:#000000;stroke-width:1.0;"/><text fill="#000000" font-family="sans-serif" font-size="20" lengthAdjust="spacing" textLength="35" x="522" y="216.0781">has</text><text fill="#000000" font-family="sans-serif" font-size="20" lengthAdjust="spacing" textLength="13" x="969.4544" y="122.1091">1</text><text fill="#000000" font-family="sans-serif" font-size="20" lengthAdjust="spacing" textLength="13" x="346.3729" y="278.1007">1</text></g><!--link JobOpening to ContractType--><g id="link_JobOpening_ContractType"><path codeLine="60" d="M990.41,135.4937 C904.33,146.9337 761.35,173.1737 651,229.5137 C622.47,244.0837 595.02,267.8037 575.35,287.0837 " fill="none" id="JobOpening-to-ContractType" style="stroke:#000000;stroke-width:1.0;"/><polygon fill="#000000" points="571.52,290.8837,580.7195,287.3667,575.0627,287.3553,575.0741,281.6984,571.52,290.8837" style="stroke:#000000;stroke-width:1.0;"/><text fill="#000000" font-family="sans-serif" font-size="20" lengthAdjust="spacing" textLength="35" x="727" y="216.0781">has</text><text fill="#000000" font-family="sans-serif" font-size="20" lengthAdjust="spacing" textLength="13" x="969.5858" y="156.031">1</text><text fill="#000000" font-family="sans-serif" font-size="20" lengthAdjust="spacing" textLength="13" x="562.4429" y="278.2454">1</text></g><!--link JobOpening to Mode--><g id="link_JobOpening_Mode"><path codeLine="61" d="M990.08,159.9437 C950.36,178.2237 901.67,202.7337 861,229.5137 C835.18,246.5137 808.64,269.0637 788.7,287.2137 " fill="none" id="JobOpening-to-Mode" style="stroke:#000000;stroke-width:1.0;"/><polygon fill="#000000" points="784.81,290.7837,794.144,287.6409,788.4922,287.4012,788.732,281.7494,784.81,290.7837" style="stroke:#000000;stroke-width:1.0;"/><text fill="#000000" font-family="sans-serif" font-size="20" lengthAdjust="spacing" textLength="35" x="916" y="216.0781">has</text><text fill="#000000" font-family="sans-serif" font-size="20" lengthAdjust="spacing" textLength="13" x="969.4819" y="182.6703">1</text><text fill="#000000" font-family="sans-serif" font-size="20" lengthAdjust="spacing" textLength="13" x="776.4114" y="278.1248">1</text></g><!--link JobOpening to Address--><g id="link_JobOpening_Address"><path codeLine="62" d="M1141.9,130.8837 C1380.95,141.9137 2116.13,179.1537 2349,229.5137 C2553.61,273.7637 2625.56,262.5437 2792,389.5137 C2823.26,413.3637 2847.67,451.7937 2862.38,479.1437 " fill="none" id="JobOpening-to-Address" style="stroke:#000000;stroke-width:1.0;"/><polygon fill="#000000" points="2864.83,483.7837,2864.1571,473.9578,2862.4919,479.364,2857.0857,477.6988,2864.83,483.7837" style="stroke:#000000;stroke-width:1.0;"/><text fill="#000000" font-family="sans-serif" font-size="20" lengthAdjust="spacing" textLength="35" x="2766" y="326.5781">has</text><text fill="#000000" font-family="sans-serif" font-size="20" lengthAdjust="spacing" textLength="13" x="1149.4963" y="125.811">1</text><text fill="#000000" font-family="sans-serif" font-size="20" lengthAdjust="spacing" textLength="13" x="2847.7731" y="471.1248">1</text></g><!--link JobOpening to Company--><g id="link_JobOpening_Company"><path codeLine="63" d="M1045.52,166.6237 C1027.06,201.8937 1000.23,253.1337 982.95,286.1437 " fill="none" id="JobOpening-to-Company" style="stroke:#000000;stroke-width:1.0;"/><polygon fill="#000000" points="980.47,290.8837,988.1835,284.7598,982.7858,286.4523,981.0933,281.0546,980.47,290.8837" style="stroke:#000000;stroke-width:1.0;"/><text fill="#000000" font-family="sans-serif" font-size="20" lengthAdjust="spacing" textLength="35" x="1029" y="216.0781">has</text><text fill="#000000" font-family="sans-serif" font-size="20" lengthAdjust="spacing" textLength="13" x="1028.5573" y="192.8005">1</text><text fill="#000000" font-family="sans-serif" font-size="20" lengthAdjust="spacing" textLength="13" x="969.1138" y="278.2454">1</text></g><!--link JobOpening to NumberOfVacancies--><g id="link_JobOpening_NumberOfVacancies"><path codeLine="64" d="M1095.08,166.6237 C1121.4,202.0337 1159.71,253.5537 1184.24,286.5537 " fill="none" id="JobOpening-to-NumberOfVacancies" style="stroke:#000000;stroke-width:1.0;"/><polygon fill="#000000" points="1187.46,290.8837,1185.2984,281.275,1184.476,286.8717,1178.8793,286.0493,1187.46,290.8837" style="stroke:#000000;stroke-width:1.0;"/><text fill="#000000" font-family="sans-serif" font-size="20" lengthAdjust="spacing" textLength="35" x="1134" y="216.0781">has</text><text fill="#000000" font-family="sans-serif" font-size="20" lengthAdjust="spacing" textLength="13" x="1085.3964" y="192.8005">1</text><text fill="#000000" font-family="sans-serif" font-size="20" lengthAdjust="spacing" textLength="13" x="1168.883" y="278.2454">1</text></g><!--link JobOpening to JobDescription--><g id="link_JobOpening_JobDescription"><path codeLine="65" d="M1141.62,147.4637 C1199.56,164.5437 1280.3,192.2837 1345,229.5137 C1372.6,245.3937 1400.14,268.5137 1420.37,287.2137 " fill="none" id="JobOpening-to-JobDescription" style="stroke:#000000;stroke-width:1.0;"/><polygon fill="#000000" points="1424.06,290.6437,1420.1745,281.5937,1420.3915,287.2463,1414.7388,287.4633,1424.06,290.6437" style="stroke:#000000;stroke-width:1.0;"/><text fill="#000000" font-family="sans-serif" font-size="20" lengthAdjust="spacing" textLength="35" x="1325" y="216.0781">has</text><text fill="#000000" font-family="sans-serif" font-size="20" lengthAdjust="spacing" textLength="13" x="1149.4471" y="169.1419">1</text><text fill="#000000" font-family="sans-serif" font-size="20" lengthAdjust="spacing" textLength="13" x="1404.2796" y="278.331">1</text></g><!--link JobOpening to RequirementSpecification--><g id="link_JobOpening_RequirementSpecification"><path codeLine="66" d="M1141.78,136.2337 C1240.21,149.1237 1416.31,177.5337 1559,229.5137 C1600.54,244.6437 1644.44,268.7737 1676.51,288.0937 " fill="none" id="JobOpening-to-RequirementSpecification" style="stroke:#000000;stroke-width:1.0;"/><polygon fill="#000000" points="1681.16,290.9037,1675.54,282.8157,1676.8852,288.3103,1671.3906,289.6554,1681.16,290.9037" style="stroke:#000000;stroke-width:1.0;"/><text fill="#000000" font-family="sans-serif" font-size="20" lengthAdjust="spacing" textLength="35" x="1535" y="216.0781">has</text><text fill="#000000" font-family="sans-serif" font-size="20" lengthAdjust="spacing" textLength="13" x="1149.6223" y="156.8415">1</text><text fill="#000000" font-family="sans-serif" font-size="20" lengthAdjust="spacing" textLength="13" x="1657.9836" y="278.2696">1</text></g><!--link Plugin to Description--><g id="link_Plugin_Description"><path codeLine="70" d="M1670.4,552.5337 C1695.78,577.6637 1728.35,609.9137 1752.11,633.4337 " fill="none" id="Plugin-to-Description" style="stroke:#000000;stroke-width:1.0;"/><polygon fill="#000000" points="1755.84,637.1337,1752.2488,627.9629,1752.2831,633.6196,1746.6264,633.6539,1755.84,637.1337" style="stroke:#000000;stroke-width:1.0;"/><text fill="#000000" font-family="sans-serif" font-size="20" lengthAdjust="spacing" textLength="35" x="1727" y="602.0781">has</text><text fill="#000000" font-family="sans-serif" font-size="20" lengthAdjust="spacing" textLength="13" x="1662.4378" y="579.0206">1</text><text fill="#000000" font-family="sans-serif" font-size="20" lengthAdjust="spacing" textLength="13" x="1736.0163" y="624.8191">1</text></g><!--link Plugin to InterviewModel--><g id="link_Plugin_InterviewModel"><path codeLine="71" d="M1614.78,552.5337 C1605.53,574.7637 1593.96,602.5737 1584.65,624.9737 " fill="none" id="Plugin-to-InterviewModel" style="stroke:#000000;stroke-width:1.0;"/><polygon fill="#000000" points="1579.6,637.1337,1585.5959,633.1276,1584.2041,626.0521,1578.2082,630.0582,1579.6,637.1337" style="stroke:#000000;stroke-width:1.0;"/></g><!--link Plugin to RequirementModel--><g id="link_Plugin_RequirementModel"><path codeLine="72" d="M1574.18,541.8337 C1523.13,567.2737 1448.12,604.6537 1394.13,631.5537 " fill="none" id="Plugin-to-RequirementModel" style="stroke:#000000;stroke-width:1.0;"/><polygon fill="#000000" points="1382.26,637.4737,1389.4145,638.3751,1392.9984,632.1177,1385.8439,631.2162,1382.26,637.4737" style="stroke:#000000;stroke-width:1.0;"/></g><!--link JobOpening to Customer--><g id="link_JobOpening_Customer"><path codeLine="75" d="M1141.51,134.0437 C1286.81,147.2437 1615.08,180.0937 1888,229.5137 C1993.98,248.7037 2114.99,279.3037 2189.44,299.1537 " fill="none" id="JobOpening-to-Customer" style="stroke:#000000;stroke-width:1.0;"/><polygon fill="#000000" points="2194.28,300.4437,2186.6123,294.2626,2189.4484,299.1571,2184.5538,301.9932,2194.28,300.4437" style="stroke:#000000;stroke-width:1.0;"/><text fill="#000000" font-family="sans-serif" font-size="20" lengthAdjust="spacing" textLength="35" x="1823" y="216.0781">has</text><text fill="#000000" font-family="sans-serif" font-size="20" lengthAdjust="spacing" textLength="13" x="1149.5829" y="129.2389">1</text><text fill="#000000" font-family="sans-serif" font-size="20" lengthAdjust="spacing" textLength="13" x="2173.3809" y="292.6885">1</text></g><!--link RequirementSpecification to Plugin--><g id="link_RequirementSpecification_Plugin"><path codeLine="78" d="M1710.48,348.2837 C1695.24,379.5737 1670.28,430.8537 1652.39,467.5837 " fill="none" id="RequirementSpecification-to-Plugin" style="stroke:#000000;stroke-width:1.0;"/><polygon fill="#000000" points="1650.03,472.4437,1657.5602,466.0957,1652.2145,467.9461,1650.3641,462.6005,1650.03,472.4437" style="stroke:#000000;stroke-width:1.0;"/><text fill="#000000" font-family="sans-serif" font-size="20" lengthAdjust="spacing" textLength="45" x="1690" y="409.0781">uses</text><text fill="#000000" font-family="sans-serif" font-size="20" lengthAdjust="spacing" textLength="13" x="1693.9139" y="374.0852">1</text><text fill="#000000" font-family="sans-serif" font-size="20" lengthAdjust="spacing" textLength="13" x="1654.0988" y="459.824">1</text></g><!--link Customer to CustomerCode--><g id="link_Customer_CustomerCode"><path codeLine="81" d="M2256.31,359.6237 C2253,394.7437 2248.2,445.7137 2245.09,478.7437 " fill="none" id="Customer-to-CustomerCode" style="stroke:#000000;stroke-width:1.0;"/><polygon fill="#000000" points="2244.6,483.8837,2249.4051,475.2865,2245.0565,478.9046,2241.4385,474.556,2244.6,483.8837" style="stroke:#000000;stroke-width:1.0;"/><text fill="#000000" font-family="sans-serif" font-size="20" lengthAdjust="spacing" textLength="35" x="2254" y="409.0781">has</text><text fill="#000000" font-family="sans-serif" font-size="20" lengthAdjust="spacing" textLength="13" x="2241.8133" y="385.8005">1</text><text fill="#000000" font-family="sans-serif" font-size="20" lengthAdjust="spacing" textLength="13" x="2230.7956" y="471.2454">1</text></g><!--link Customer to CompanyName--><g id="link_Customer_CompanyName"><path codeLine="82" d="M2211.26,359.6237 C2166.78,395.3237 2101.89,447.3937 2060.82,480.3537 " fill="none" id="Customer-to-CompanyName" style="stroke:#000000;stroke-width:1.0;"/><polygon fill="#000000" points="2056.43,483.8837,2065.9532,481.3721,2060.3302,480.755,2060.9473,475.1319,2056.43,483.8837" style="stroke:#000000;stroke-width:1.0;"/><text fill="#000000" font-family="sans-serif" font-size="20" lengthAdjust="spacing" textLength="35" x="2171" y="409.0781">has</text><text fill="#000000" font-family="sans-serif" font-size="20" lengthAdjust="spacing" textLength="13" x="2190.1466" y="385.8005">1</text><text fill="#000000" font-family="sans-serif" font-size="20" lengthAdjust="spacing" textLength="13" x="2049.1906" y="471.2454">1</text></g><!--link Customer to Address--><g id="link_Customer_Address"><path codeLine="83" d="M2325.67,323.0937 C2426.59,329.3137 2623.75,350.4737 2773,422.5137 C2802.05,436.5337 2829.66,460.5237 2849.27,480.0637 " fill="none" id="Customer-to-Address" style="stroke:#000000;stroke-width:1.0;"/><polygon fill="#000000" points="2853.09,483.9037,2849.6102,474.69,2849.576,480.3468,2843.9192,480.3125,2853.09,483.9037" style="stroke:#000000;stroke-width:1.0;"/><text fill="#000000" font-family="sans-serif" font-size="20" lengthAdjust="spacing" textLength="35" x="2748" y="409.0781">has</text><text fill="#000000" font-family="sans-serif" font-size="20" lengthAdjust="spacing" textLength="13" x="2333.5636" y="317.8158">1</text><text fill="#000000" font-family="sans-serif" font-size="20" lengthAdjust="spacing" textLength="13" x="2833.6117" y="471.2696">1</text></g><!--link Customer to Email--><g id="link_Customer_Email"><path codeLine="84" d="M2325.64,334.9637 C2389.11,350.6537 2486.63,379.4037 2563,422.5137 C2590.51,438.0437 2617.6,461.2637 2637.38,480.0937 " fill="none" id="Customer-to-Email" style="stroke:#000000;stroke-width:1.0;"/><polygon fill="#000000" points="2641.23,483.7937,2637.5091,474.6747,2637.6236,480.3304,2631.9679,480.4449,2641.23,483.7937" style="stroke:#000000;stroke-width:1.0;"/><text fill="#000000" font-family="sans-serif" font-size="20" lengthAdjust="spacing" textLength="35" x="2548" y="409.0781">has</text><text fill="#000000" font-family="sans-serif" font-size="20" lengthAdjust="spacing" textLength="13" x="2333.5303" y="356.4997">1</text><text fill="#000000" font-family="sans-serif" font-size="20" lengthAdjust="spacing" textLength="13" x="2621.3681" y="471.1369">1</text></g><!--link Customer to PhoneNumber--><g id="link_Customer_PhoneNumber"><path codeLine="85" d="M2300.34,359.6237 C2337.16,395.3237 2390.87,447.3937 2424.86,480.3537 " fill="none" id="Customer-to-PhoneNumber" style="stroke:#000000;stroke-width:1.0;"/><polygon fill="#000000" points="2428.5,483.8837,2424.8348,474.7422,2424.9148,480.3985,2419.2585,480.4785,2428.5,483.8837" style="stroke:#000000;stroke-width:1.0;"/><text fill="#000000" font-family="sans-serif" font-size="20" lengthAdjust="spacing" textLength="35" x="2353" y="409.0781">has</text><text fill="#000000" font-family="sans-serif" font-size="20" lengthAdjust="spacing" textLength="13" x="2292.3103" y="385.8005">1</text><text fill="#000000" font-family="sans-serif" font-size="20" lengthAdjust="spacing" textLength="13" x="2408.2813" y="471.2454">1</text></g><!--SRC=[dLHHRzem47xFhx3e0rir9AYwjQiY90A9j6ahLUdwRfmZU2HsPZj5jDf_dnCdaAGXaEK5SVw-Ez_TvqzkA8knm578oGPyvCCA9w7oE5CB-WheQcXPYgeGq8n7c3Bqa_iGeW7wjHWDXzUMjQO-88XYjKCHH4iGqkhB8YdwGHceNGo82xNcbdKu8I6M4hrPI7yE9fj0y8JvKnvoOTilE4nWllmDH8t7w6BsnPrujyrGmNc6yMQkCnisOoI85qeWIpNohbod2QPJkDvNzoOxcmZ1joRiX1fd_ItVFTOH743pxT65wtYVFIUbzD5tlaJp61Xb0Pe4WO00Ax2A13tRnaLGtwu4xkN9WUdfxzAJ8ejjcvZ6xxj_qxLIj1cg1Z_22WGm0gW-JDl-yFn9z-hTEjV3ZuPxe3wbgvuBBs54KSuwigTQDG8JzPHkl1irbLNdQb6CsQuZwpv9HJfVFME26Q4WE_BrS6SWYQ1nfm7bUto4FmaL4Ec_YnW8NL62yppxhMf69frf8XMFG9pMJO6iYMQVuBHaybdUuwZp5l8YqtCNgElgvXx29D1kSh8rWwirbfEFjDKyRkDRrJ6NaD-OIaq2jiTmwLTgkwi6TDU6EF5z0V8yrUMKXpLdO7Hx5ismN6tNuNbbQZub8Cn4ATSqbbR9UdgZ7XeCnjblnMJkq1eVHTOzfHLSiP1MPEOOhOXYr2SA6XTf1RqtZLPupIDQiSSSmP1AJwMwbJnOplI-P0uQ-7pB1fSrZTTFws_blrInjvpy-lroMbIrl6h2eyvOJc-kV8SI2R9YaTLS-t3JrQO7tJJZIbRO0gkAgn5YNc0BeFom3UmV]--></g></svg>