<?xml version="1.0" encoding="UTF-8" standalone="no"?><svg xmlns="http://www.w3.org/2000/svg" xmlns:xlink="http://www.w3.org/1999/xlink" contentStyleType="text/css" height="621px" preserveAspectRatio="none" style="width:926px;height:621px;background:#FFFFFF;" version="1.1" viewBox="0 0 926 621" width="926px" zoomAndPan="magnify"><defs/><g><text fill="#000000" font-family="sans-serif" font-size="14" font-weight="bold" lengthAdjust="spacing" textLength="583" x="170.75" y="27.9951">System Sequence Diagram (SSD) - Open or Close phases of a job opening</text><rect fill="#FFFFFF" height="389.0938" style="stroke:#181818;stroke-width:1.0;" width="10" x="98" y="135.5781"/><rect fill="#FFFFFF" height="37.2813" style="stroke:#181818;stroke-width:1.0;" width="10" x="868" y="164.8594"/><rect fill="#FFFFFF" height="37.2813" style="stroke:#181818;stroke-width:1.0;" width="10" x="868" y="239.4219"/><rect fill="#FFFFFF" height="37.2813" style="stroke:#181818;stroke-width:1.0;" width="10" x="868" y="313.9844"/><rect fill="#FFFFFF" height="37.2813" style="stroke:#181818;stroke-width:1.0;" width="10" x="868" y="478.3906"/><line style="stroke:#181818;stroke-width:0.5;stroke-dasharray:5.0,5.0;" x1="103" x2="103" y1="125.5781" y2="533.6719"/><line style="stroke:#181818;stroke-width:0.5;stroke-dasharray:5.0,5.0;" x1="872.5" x2="872.5" y1="125.5781" y2="533.6719"/><text fill="#000000" font-family="sans-serif" font-size="20" lengthAdjust="spacing" textLength="190" x="5" y="120.8613">Customer Manager</text><ellipse cx="103" cy="50.7969" fill="#E3E3E3" rx="8" ry="8" style="stroke:#181818;stroke-width:0.5;"/><path d="M103,58.7969 L103,85.7969 M90,66.7969 L116,66.7969 M103,85.7969 L90,100.7969 M103,85.7969 L116,100.7969 " fill="none" style="stroke:#181818;stroke-width:0.5;"/><text fill="#000000" font-family="sans-serif" font-size="20" lengthAdjust="spacing" textLength="190" x="5" y="551.2363">Customer Manager</text><ellipse cx="103" cy="564.4531" fill="#E3E3E3" rx="8" ry="8" style="stroke:#181818;stroke-width:0.5;"/><path d="M103,572.4531 L103,599.4531 M90,580.4531 L116,580.4531 M103,599.4531 L90,614.4531 M103,599.4531 L116,614.4531 " fill="none" style="stroke:#181818;stroke-width:0.5;"/><rect fill="#E3E3E3" height="37.2813" rx="2.5" ry="2.5" style="stroke:#181818;stroke-width:0.5;" width="95" x="825.5" y="87.2969"/><text fill="#000000" font-family="sans-serif" font-size="20" lengthAdjust="spacing" textLength="81" x="832.5" y="112.8613">:System</text><rect fill="#E3E3E3" height="37.2813" rx="2.5" ry="2.5" style="stroke:#181818;stroke-width:0.5;" width="95" x="825.5" y="532.6719"/><text fill="#000000" font-family="sans-serif" font-size="20" lengthAdjust="spacing" textLength="81" x="832.5" y="558.2363">:System</text><rect fill="#FFFFFF" height="389.0938" style="stroke:#181818;stroke-width:1.0;" width="10" x="98" y="135.5781"/><rect fill="#FFFFFF" height="37.2813" style="stroke:#181818;stroke-width:1.0;" width="10" x="868" y="164.8594"/><rect fill="#FFFFFF" height="37.2813" style="stroke:#181818;stroke-width:1.0;" width="10" x="868" y="239.4219"/><rect fill="#FFFFFF" height="37.2813" style="stroke:#181818;stroke-width:1.0;" width="10" x="868" y="313.9844"/><rect fill="#FFFFFF" height="37.2813" style="stroke:#181818;stroke-width:1.0;" width="10" x="868" y="478.3906"/><polygon fill="#181818" points="856,160.8594,866,164.8594,856,168.8594,860,164.8594" style="stroke:#181818;stroke-width:1.0;"/><line style="stroke:#181818;stroke-width:1.0;" x1="108" x2="862" y1="164.8594" y2="164.8594"/><text fill="#000000" font-family="sans-serif" font-size="20" font-weight="bold" lengthAdjust="spacing" textLength="14" x="115" y="158.1426">1</text><text fill="#000000" font-family="sans-serif" font-size="20" lengthAdjust="spacing" textLength="535" x="133" y="158.1426">Asks to change the status of a phase of a job opening</text><polygon fill="#181818" points="119,198.1406,109,202.1406,119,206.1406,115,202.1406" style="stroke:#181818;stroke-width:1.0;"/><line style="stroke:#181818;stroke-width:1.0;stroke-dasharray:2.0,2.0;" x1="113" x2="872" y1="202.1406" y2="202.1406"/><text fill="#000000" font-family="sans-serif" font-size="20" font-weight="bold" lengthAdjust="spacing" textLength="14" x="125" y="195.4238">2</text><text fill="#000000" font-family="sans-serif" font-size="20" lengthAdjust="spacing" textLength="537" x="143" y="195.4238">Provides a list of job openings and asks to choose one</text><polygon fill="#181818" points="856,235.4219,866,239.4219,856,243.4219,860,239.4219" style="stroke:#181818;stroke-width:1.0;"/><line style="stroke:#181818;stroke-width:1.0;" x1="108" x2="862" y1="239.4219" y2="239.4219"/><text fill="#000000" font-family="sans-serif" font-size="20" font-weight="bold" lengthAdjust="spacing" textLength="14" x="115" y="232.7051">3</text><text fill="#000000" font-family="sans-serif" font-size="20" lengthAdjust="spacing" textLength="215" x="133" y="232.7051">Selects a job opening</text><polygon fill="#181818" points="119,272.7031,109,276.7031,119,280.7031,115,276.7031" style="stroke:#181818;stroke-width:1.0;"/><line style="stroke:#181818;stroke-width:1.0;stroke-dasharray:2.0,2.0;" x1="113" x2="872" y1="276.7031" y2="276.7031"/><text fill="#000000" font-family="sans-serif" font-size="20" font-weight="bold" lengthAdjust="spacing" textLength="14" x="125" y="269.9863">4</text><text fill="#000000" font-family="sans-serif" font-size="20" lengthAdjust="spacing" textLength="718" x="143" y="269.9863">Displays the different phases of the job opening and asks to choose one</text><polygon fill="#181818" points="856,309.9844,866,313.9844,856,317.9844,860,313.9844" style="stroke:#181818;stroke-width:1.0;"/><line style="stroke:#181818;stroke-width:1.0;" x1="108" x2="862" y1="313.9844" y2="313.9844"/><text fill="#000000" font-family="sans-serif" font-size="20" font-weight="bold" lengthAdjust="spacing" textLength="14" x="115" y="307.2676">5</text><text fill="#000000" font-family="sans-serif" font-size="20" lengthAdjust="spacing" textLength="156" x="133" y="307.2676">Selects a phase</text><polygon fill="#181818" points="119,347.2656,109,351.2656,119,355.2656,115,351.2656" style="stroke:#181818;stroke-width:1.0;"/><line style="stroke:#181818;stroke-width:1.0;stroke-dasharray:2.0,2.0;" x1="113" x2="872" y1="351.2656" y2="351.2656"/><text fill="#000000" font-family="sans-serif" font-size="20" font-weight="bold" lengthAdjust="spacing" textLength="14" x="125" y="344.5488">6</text><text fill="#000000" font-family="sans-serif" font-size="20" lengthAdjust="spacing" textLength="496" x="143" y="344.5488">Asks to confirm the change of status of the phase</text><path d="M496,364.2656 L496,443.2656 L868,443.2656 L868,374.2656 L858,364.2656 L496,364.2656 " fill="#FAFAFA" style="stroke:#181818;stroke-width:0.5;"/><path d="M858,364.2656 L858,374.2656 L868,374.2656 L858,364.2656 " fill="#FAFAFA" style="stroke:#181818;stroke-width:0.5;"/><text fill="#000000" font-family="sans-serif" font-size="20" lengthAdjust="spacing" textLength="344" x="502" y="387.8301">The System will change the status</text><text fill="#000000" font-family="sans-serif" font-size="20" lengthAdjust="spacing" textLength="345" x="502" y="411.1113">of the phase to the opposite of the</text><text fill="#000000" font-family="sans-serif" font-size="20" lengthAdjust="spacing" textLength="140" x="502" y="434.3926">current status</text><polygon fill="#181818" points="856,474.3906,866,478.3906,856,482.3906,860,478.3906" style="stroke:#181818;stroke-width:1.0;"/><line style="stroke:#181818;stroke-width:1.0;" x1="108" x2="862" y1="478.3906" y2="478.3906"/><text fill="#000000" font-family="sans-serif" font-size="20" font-weight="bold" lengthAdjust="spacing" textLength="14" x="115" y="471.6738">7</text><text fill="#000000" font-family="sans-serif" font-size="20" lengthAdjust="spacing" textLength="431" x="133" y="471.6738">Confirms the change of status of the phase</text><polygon fill="#181818" points="119,511.6719,109,515.6719,119,519.6719,115,515.6719" style="stroke:#181818;stroke-width:1.0;"/><line style="stroke:#181818;stroke-width:1.0;stroke-dasharray:2.0,2.0;" x1="113" x2="872" y1="515.6719" y2="515.6719"/><text fill="#000000" font-family="sans-serif" font-size="20" font-weight="bold" lengthAdjust="spacing" textLength="14" x="125" y="508.9551">8</text><text fill="#000000" font-family="sans-serif" font-size="20" lengthAdjust="spacing" textLength="255" x="143" y="508.9551">Informs success or failure</text><!--SRC=[hPCzRnin38Rt-nM4fsOmK7JqK22mKQ13qGBNCGkZu_bKwyIhI2LmVtse-x0FY0iqRJNfWthVXwGa9ny7JDW7TYTgeA4MSz1F7BNslmW-lAza2O6U8xikSK-WATFgP41tmYFLUWu4YPnYF8PrW7JOyBEFHsWn25MLUhNG-YnAFTJqCrDq10UFnnB-hguFTx25hmD5u0Jxm48mT2Wam2qW_E17O3iroQh2h1np_qZ9vaxjmcQVHGqqmHUCHfOsWBBCAsDIx_o0KM6pco36W6awYlWdLBhSgC36l83jnmLy1_To4b06rrdALfUEG1GrpvWZyclYedRnM4nX7hFsrcmMnnryI_pa6yiU8NZH8haIjEtOM08B2vToSQH9jA6RNhVIgIbOz-IVSGzUXe1d6GlI-BQbH5RiQmVB_ihY__EFLdz1VcaenzQdVWITcslOrzwM_Qj76P7D8r2hLvpltUMDF_iGRhoIXxZMAiPbmSF0ufKMeuVeSXehE5shtboO_PIE_64-RwlPvzXoqPRi78cK7zkY3pdzje4l]--></g></svg>