<?xml version="1.0" encoding="UTF-8" standalone="no"?><svg xmlns="http://www.w3.org/2000/svg" xmlns:xlink="http://www.w3.org/1999/xlink" contentStyleType="text/css" height="457px" preserveAspectRatio="none" style="width:1283px;height:457px;background:#FFFFFF;" version="1.1" viewBox="0 0 1283 457" width="1283px" zoomAndPan="magnify"><defs/><g><text fill="#000000" font-family="sans-serif" font-size="14" font-weight="bold" lengthAdjust="spacing" textLength="583" x="349.25" y="27.9951">System Sequence Diagram (SSD) - Open or Close phases of a job opening</text><rect fill="#FFFFFF" height="224.6875" style="stroke:#181818;stroke-width:1.0;" width="10" x="98" y="135.5781"/><rect fill="#FFFFFF" height="37.2813" style="stroke:#181818;stroke-width:1.0;" width="10" x="1225" y="239.4219"/><rect fill="#FFFFFF" height="37.2813" style="stroke:#181818;stroke-width:1.0;" width="10" x="1225" y="313.9844"/><line style="stroke:#181818;stroke-width:0.5;stroke-dasharray:5.0,5.0;" x1="103" x2="103" y1="125.5781" y2="369.2656"/><line style="stroke:#181818;stroke-width:0.5;stroke-dasharray:5.0,5.0;" x1="1229.5" x2="1229.5" y1="125.5781" y2="369.2656"/><text fill="#000000" font-family="sans-serif" font-size="20" lengthAdjust="spacing" textLength="190" x="5" y="120.8613">Customer Manager</text><ellipse cx="103" cy="50.7969" fill="#E3E3E3" rx="8" ry="8" style="stroke:#181818;stroke-width:0.5;"/><path d="M103,58.7969 L103,85.7969 M90,66.7969 L116,66.7969 M103,85.7969 L90,100.7969 M103,85.7969 L116,100.7969 " fill="none" style="stroke:#181818;stroke-width:0.5;"/><text fill="#000000" font-family="sans-serif" font-size="20" lengthAdjust="spacing" textLength="190" x="5" y="386.8301">Customer Manager</text><ellipse cx="103" cy="400.0469" fill="#E3E3E3" rx="8" ry="8" style="stroke:#181818;stroke-width:0.5;"/><path d="M103,408.0469 L103,435.0469 M90,416.0469 L116,416.0469 M103,435.0469 L90,450.0469 M103,435.0469 L116,450.0469 " fill="none" style="stroke:#181818;stroke-width:0.5;"/><rect fill="#E3E3E3" height="37.2813" rx="2.5" ry="2.5" style="stroke:#181818;stroke-width:0.5;" width="95" x="1182.5" y="87.2969"/><text fill="#000000" font-family="sans-serif" font-size="20" lengthAdjust="spacing" textLength="81" x="1189.5" y="112.8613">:System</text><rect fill="#E3E3E3" height="37.2813" rx="2.5" ry="2.5" style="stroke:#181818;stroke-width:0.5;" width="95" x="1182.5" y="368.2656"/><text fill="#000000" font-family="sans-serif" font-size="20" lengthAdjust="spacing" textLength="81" x="1189.5" y="393.8301">:System</text><rect fill="#FFFFFF" height="224.6875" style="stroke:#181818;stroke-width:1.0;" width="10" x="98" y="135.5781"/><rect fill="#FFFFFF" height="37.2813" style="stroke:#181818;stroke-width:1.0;" width="10" x="1225" y="239.4219"/><rect fill="#FFFFFF" height="37.2813" style="stroke:#181818;stroke-width:1.0;" width="10" x="1225" y="313.9844"/><polygon fill="#181818" points="1218,160.8594,1228,164.8594,1218,168.8594,1222,164.8594" style="stroke:#181818;stroke-width:1.0;"/><line style="stroke:#181818;stroke-width:1.0;" x1="108" x2="1224" y1="164.8594" y2="164.8594"/><text fill="#000000" font-family="sans-serif" font-size="20" font-weight="bold" lengthAdjust="spacing" textLength="14" x="115" y="158.1426">1</text><text fill="#000000" font-family="sans-serif" font-size="20" lengthAdjust="spacing" textLength="492" x="133" y="158.1426">Asks to change the phase status of a job opening</text><polygon fill="#181818" points="119,198.1406,109,202.1406,119,206.1406,115,202.1406" style="stroke:#181818;stroke-width:1.0;"/><line style="stroke:#181818;stroke-width:1.0;stroke-dasharray:2.0,2.0;" x1="113" x2="1229" y1="202.1406" y2="202.1406"/><text fill="#000000" font-family="sans-serif" font-size="20" font-weight="bold" lengthAdjust="spacing" textLength="14" x="125" y="195.4238">2</text><text fill="#000000" font-family="sans-serif" font-size="20" lengthAdjust="spacing" textLength="537" x="143" y="195.4238">Provides a list of job openings and asks to choose one</text><polygon fill="#181818" points="1213,235.4219,1223,239.4219,1213,243.4219,1217,239.4219" style="stroke:#181818;stroke-width:1.0;"/><line style="stroke:#181818;stroke-width:1.0;" x1="108" x2="1219" y1="239.4219" y2="239.4219"/><text fill="#000000" font-family="sans-serif" font-size="20" font-weight="bold" lengthAdjust="spacing" textLength="14" x="115" y="232.7051">3</text><text fill="#000000" font-family="sans-serif" font-size="20" lengthAdjust="spacing" textLength="215" x="133" y="232.7051">Selects a job opening</text><polygon fill="#181818" points="119,272.7031,109,276.7031,119,280.7031,115,276.7031" style="stroke:#181818;stroke-width:1.0;"/><line style="stroke:#181818;stroke-width:1.0;stroke-dasharray:2.0,2.0;" x1="113" x2="1229" y1="276.7031" y2="276.7031"/><text fill="#000000" font-family="sans-serif" font-size="20" font-weight="bold" lengthAdjust="spacing" textLength="14" x="125" y="269.9863">4</text><text fill="#000000" font-family="sans-serif" font-size="20" lengthAdjust="spacing" textLength="1075" x="143" y="269.9863">Displays the current phase status of the job opening and asks if the manager wants to go to the next phase</text><polygon fill="#181818" points="1213,309.9844,1223,313.9844,1213,317.9844,1217,313.9844" style="stroke:#181818;stroke-width:1.0;"/><line style="stroke:#181818;stroke-width:1.0;" x1="108" x2="1219" y1="313.9844" y2="313.9844"/><text fill="#000000" font-family="sans-serif" font-size="20" font-weight="bold" lengthAdjust="spacing" textLength="14" x="115" y="307.2676">5</text><text fill="#000000" font-family="sans-serif" font-size="20" lengthAdjust="spacing" textLength="496" x="133" y="307.2676">Confirms the decision to change the phase status</text><polygon fill="#181818" points="119,347.2656,109,351.2656,119,355.2656,115,351.2656" style="stroke:#181818;stroke-width:1.0;"/><line style="stroke:#181818;stroke-width:1.0;stroke-dasharray:2.0,2.0;" x1="113" x2="1229" y1="351.2656" y2="351.2656"/><text fill="#000000" font-family="sans-serif" font-size="20" font-weight="bold" lengthAdjust="spacing" textLength="14" x="125" y="344.5488">6</text><text fill="#000000" font-family="sans-serif" font-size="20" lengthAdjust="spacing" textLength="255" x="143" y="344.5488">Informs success or failure</text><!--SRC=[dPB1Yjj038RlVWgHq_OGA3tci50I2ZsKBlW9bB5iJpCUkIDDikdJLnFRQGX9ePs36LlIh- -NB0SVHqmu17O7Qg2X5dFGBnorzhy8FdsiP4c1WIExFl50e2dJJMH4Ty2EQZq7WaHECNRXDa5wRFZaOmSj1g6gKg-MMfz5QO2QVcQAZc3diIlfBtMz-m1h-3vI14wm3Im4Ouz20jm2mW_U0rlK9AiAitBCmvwItPrQmMgRHGqqmJUCHfPMWBBSAsDIx_o8KM6rcI0k2TFr8kAFg7IjgC3E_0BhrmLy0v_b8A0ChZVBDfT-nWHHrFm85kOpIwnDRH7Um5lYes_C94BmegNyfjW-nyOubvPSfiAH9j66hjYBZsVKDGLRajoXbUo74aznTrx6W6Uv-7Ov9RA9tliliPisVppuAJRCSYTRnyLOn-LPGf7UPxr_jhZbsFeqJ6WDEI-UuryszH_klyQMImV9pf58-L5Rz26dfxI_0G00]--></g></svg>