<?xml version="1.0" encoding="UTF-8" standalone="no"?><svg xmlns="http://www.w3.org/2000/svg" xmlns:xlink="http://www.w3.org/1999/xlink" contentStyleType="text/css" height="768px" preserveAspectRatio="none" style="width:667px;height:768px;background:#FFFFFF;" version="1.1" viewBox="0 0 667 768" width="667px" zoomAndPan="magnify"><defs/><g><text fill="#000000" font-family="sans-serif" font-size="14" font-weight="bold" lengthAdjust="spacing" textLength="190" x="231.75" y="22.9951">Class Diagram - USG007</text><!--class SystemUser--><g id="elem_SystemUser"><rect codeLine="19" fill="#FDEBD0" height="79.8438" id="SystemUser" rx="2.5" ry="2.5" style="stroke:#181818;stroke-width:0.5;" width="153" x="175.5" y="426.2969"/><ellipse cx="191.5" cy="466.2188" fill="#ADD1B2" rx="12" ry="12" style="stroke:#181818;stroke-width:1.0;"/><path d="M196.2188,473.7188 L187.1406,473.7188 L187.1406,459.1406 L196.2188,459.1406 L196.2188,461.6719 L190.0156,461.6719 L190.0156,464.8281 L195.6406,464.8281 L195.6406,467.3594 L190.0156,467.3594 L190.0156,471.1719 L196.2188,471.1719 L196.2188,473.7188 Z " fill="#000000"/><text fill="#000000" font-family="sans-serif" font-size="20" font-style="italic" lengthAdjust="spacing" textLength="83" x="224.5" y="449.8613">«entity»</text><text fill="#000000" font-family="sans-serif" font-size="20" font-style="italic" lengthAdjust="spacing" textLength="64" x="234" y="473.1426">«root»</text><text fill="#000000" font-family="sans-serif" font-size="20" lengthAdjust="spacing" textLength="119" x="206.5" y="496.4238">SystemUser</text></g><!--class UserSession--><g id="elem_UserSession"><rect codeLine="20" fill="#FEF9E7" height="56.5625" id="UserSession" rx="2.5" ry="2.5" style="stroke:#181818;stroke-width:0.5;" width="155" x="174.5" y="309.2969"/><ellipse cx="190.5" cy="337.5781" fill="#ADD1B2" rx="12" ry="12" style="stroke:#181818;stroke-width:1.0;"/><path d="M195.2188,345.0781 L186.1406,345.0781 L186.1406,330.5 L195.2188,330.5 L195.2188,333.0313 L189.0156,333.0313 L189.0156,336.1875 L194.6406,336.1875 L194.6406,338.7188 L189.0156,338.7188 L189.0156,342.5313 L195.2188,342.5313 L195.2188,345.0781 Z " fill="#000000"/><text fill="#000000" font-family="sans-serif" font-size="20" font-style="italic" lengthAdjust="spacing" textLength="83" x="224.5" y="332.8613">«entity»</text><text fill="#000000" font-family="sans-serif" font-size="20" lengthAdjust="spacing" textLength="121" x="205.5" y="356.1426">UserSession</text></g><!--class Email--><g id="elem_Email"><rect codeLine="21" fill="#D6EAF8" height="79.8438" id="Email" rx="2.5" ry="2.5" style="stroke:#181818;stroke-width:0.5;" width="109" x="115.5" y="566.2969"/><ellipse cx="131.5" cy="606.2188" fill="#FF8B40" rx="12" ry="12" style="stroke:#181818;stroke-width:1.0;"/><path d="M131.5156,612.0625 L134.0781,599.8906 L136.9844,599.8906 L133.5156,614.4688 L129.5313,614.4688 L126.0625,599.8906 L128.9531,599.8906 L131.5156,612.0625 Z " fill="#000000"/><text fill="#000000" font-family="sans-serif" font-size="20" font-style="italic" lengthAdjust="spacing" textLength="79" x="144.5" y="589.8613">«value»</text><text fill="#000000" font-family="sans-serif" font-size="20" font-style="italic" lengthAdjust="spacing" textLength="43" x="162.5" y="613.1426">«id»</text><text fill="#000000" font-family="sans-serif" font-size="20" lengthAdjust="spacing" textLength="57" x="155.5" y="636.4238">Email</text></g><!--class Password--><g id="elem_Password"><rect codeLine="22" fill="#D6EAF8" height="56.5625" id="Password" rx="2.5" ry="2.5" style="stroke:#181818;stroke-width:0.5;" width="128" x="288" y="577.7969"/><ellipse cx="304" cy="606.0781" fill="#FF8B40" rx="12" ry="12" style="stroke:#181818;stroke-width:1.0;"/><path d="M304.0156,611.9219 L306.5781,599.75 L309.4844,599.75 L306.0156,614.3281 L302.0313,614.3281 L298.5625,599.75 L301.4531,599.75 L304.0156,611.9219 Z " fill="#000000"/><text fill="#000000" font-family="sans-serif" font-size="20" font-style="italic" lengthAdjust="spacing" textLength="79" x="326.5" y="601.3613">«value»</text><text fill="#000000" font-family="sans-serif" font-size="20" lengthAdjust="spacing" textLength="94" x="319" y="624.6426">Password</text></g><!--class Role--><g id="elem_Role"><rect codeLine="23" fill="#D6EAF8" height="56.5625" id="Role" rx="2.5" ry="2.5" style="stroke:#181818;stroke-width:0.5;" width="109" x="551.5" y="192.2969"/><ellipse cx="567.5" cy="220.5781" fill="#FF8B40" rx="12" ry="12" style="stroke:#181818;stroke-width:1.0;"/><path d="M567.5156,226.4219 L570.0781,214.25 L572.9844,214.25 L569.5156,228.8281 L565.5313,228.8281 L562.0625,214.25 L564.9531,214.25 L567.5156,226.4219 Z " fill="#000000"/><text fill="#000000" font-family="sans-serif" font-size="20" font-style="italic" lengthAdjust="spacing" textLength="79" x="580.5" y="215.8613">«value»</text><text fill="#000000" font-family="sans-serif" font-size="20" lengthAdjust="spacing" textLength="44" x="598" y="239.1426">Role</text></g><!--class AuthenticationService--><g id="elem_AuthenticationService"><rect codeLine="24" fill="#D1F2EB" height="87.8438" id="AuthenticationService" rx="2.5" ry="2.5" style="stroke:#181818;stroke-width:0.5;" width="256" x="211" y="44.2969"/><ellipse cx="227" cy="72.5781" fill="#85C1E9" rx="12" ry="12" style="stroke:#181818;stroke-width:1.0;"/><path d="M226.4844,73.6875 Q224.2969,72.8438 223.5313,71.9375 Q222.7656,71.0313 222.7656,69.4844 Q222.7656,67.5 224.0313,66.375 Q225.2969,65.2344 227.5156,65.2344 Q228.5156,65.2344 229.5156,65.4688 Q230.5313,65.6875 231.5156,66.1406 L231.5156,68.9531 Q230.5938,68.2969 229.625,67.9531 Q228.6719,67.6094 227.7344,67.6094 Q226.7031,67.6094 226.1406,68.0313 Q225.5781,68.4531 225.5781,69.2344 Q225.5781,69.8438 225.9844,70.25 Q226.3906,70.6406 227.6875,71.1094 L228.9219,71.5781 Q230.6875,72.2188 231.5156,73.2969 Q232.3438,74.3594 232.3438,75.9688 Q232.3438,78.1875 231.0313,79.2813 Q229.7344,80.3594 227.0938,80.3594 Q226.0156,80.3594 224.9219,80.0938 Q223.8281,79.8438 222.8125,79.3281 L222.8125,76.3594 Q223.9688,77.1719 225.0469,77.5781 Q226.125,77.9844 227.1875,77.9844 Q228.25,77.9844 228.8281,77.5 Q229.4219,77.0156 229.4219,76.1406 Q229.4219,75.4844 229.0313,75 Q228.6406,74.5 227.8906,74.2188 L226.4844,73.6875 Z " fill="#000000"/><text fill="#000000" font-family="sans-serif" font-size="20" font-style="italic" lengthAdjust="spacing" textLength="95" x="305.5" y="67.8613">«service»</text><text fill="#000000" font-family="sans-serif" font-size="20" lengthAdjust="spacing" textLength="222" x="242" y="91.1426">AuthenticationService</text><line style="stroke:#181818;stroke-width:0.5;" x1="212" x2="466" y1="100.8594" y2="100.8594"/><ellipse cx="222" cy="118" fill="#84BE84" rx="3" ry="3" style="stroke:#038048;stroke-width:1.0;"/><text fill="#000000" font-family="sans-serif" font-size="20" lengthAdjust="spacing" textLength="144" x="232" y="123.4238">authenticate()</text></g><!--class AuthorizationService--><g id="elem_AuthorizationService"><rect codeLine="27" fill="#D1F2EB" height="56.5625" id="AuthorizationService" rx="2.5" ry="2.5" style="stroke:#181818;stroke-width:0.5;" width="243" x="130.5" y="192.2969"/><ellipse cx="146.5" cy="220.5781" fill="#85C1E9" rx="12" ry="12" style="stroke:#181818;stroke-width:1.0;"/><path d="M145.9844,221.6875 Q143.7969,220.8438 143.0313,219.9375 Q142.2656,219.0313 142.2656,217.4844 Q142.2656,215.5 143.5313,214.375 Q144.7969,213.2344 147.0156,213.2344 Q148.0156,213.2344 149.0156,213.4688 Q150.0313,213.6875 151.0156,214.1406 L151.0156,216.9531 Q150.0938,216.2969 149.125,215.9531 Q148.1719,215.6094 147.2344,215.6094 Q146.2031,215.6094 145.6406,216.0313 Q145.0781,216.4531 145.0781,217.2344 Q145.0781,217.8438 145.4844,218.25 Q145.8906,218.6406 147.1875,219.1094 L148.4219,219.5781 Q150.1875,220.2188 151.0156,221.2969 Q151.8438,222.3594 151.8438,223.9688 Q151.8438,226.1875 150.5313,227.2813 Q149.2344,228.3594 146.5938,228.3594 Q145.5156,228.3594 144.4219,228.0938 Q143.3281,227.8438 142.3125,227.3281 L142.3125,224.3594 Q143.4688,225.1719 144.5469,225.5781 Q145.625,225.9844 146.6875,225.9844 Q147.75,225.9844 148.3281,225.5 Q148.9219,225.0156 148.9219,224.1406 Q148.9219,223.4844 148.5313,223 Q148.1406,222.5 147.3906,222.2188 L145.9844,221.6875 Z " fill="#000000"/><text fill="#000000" font-family="sans-serif" font-size="20" font-style="italic" lengthAdjust="spacing" textLength="95" x="218.5" y="215.8613">«service»</text><text fill="#000000" font-family="sans-serif" font-size="20" lengthAdjust="spacing" textLength="209" x="161.5" y="239.1426">AuthorizationService</text></g><!--class PasswordPolicy--><g id="elem_PasswordPolicy"><rect codeLine="28" fill="#D1F2EB" height="56.5625" id="PasswordPolicy" rx="2.5" ry="2.5" style="stroke:#181818;stroke-width:0.5;" width="186" x="85" y="706.2969"/><ellipse cx="101" cy="734.5781" fill="#85C1E9" rx="12" ry="12" style="stroke:#181818;stroke-width:1.0;"/><path d="M100.4844,735.6875 Q98.2969,734.8438 97.5313,733.9375 Q96.7656,733.0313 96.7656,731.4844 Q96.7656,729.5 98.0313,728.375 Q99.2969,727.2344 101.5156,727.2344 Q102.5156,727.2344 103.5156,727.4688 Q104.5313,727.6875 105.5156,728.1406 L105.5156,730.9531 Q104.5938,730.2969 103.625,729.9531 Q102.6719,729.6094 101.7344,729.6094 Q100.7031,729.6094 100.1406,730.0313 Q99.5781,730.4531 99.5781,731.2344 Q99.5781,731.8438 99.9844,732.25 Q100.3906,732.6406 101.6875,733.1094 L102.9219,733.5781 Q104.6875,734.2188 105.5156,735.2969 Q106.3438,736.3594 106.3438,737.9688 Q106.3438,740.1875 105.0313,741.2813 Q103.7344,742.3594 101.0938,742.3594 Q100.0156,742.3594 98.9219,742.0938 Q97.8281,741.8438 96.8125,741.3281 L96.8125,738.3594 Q97.9688,739.1719 99.0469,739.5781 Q100.125,739.9844 101.1875,739.9844 Q102.25,739.9844 102.8281,739.5 Q103.4219,739.0156 103.4219,738.1406 Q103.4219,737.4844 103.0313,737 Q102.6406,736.5 101.8906,736.2188 L100.4844,735.6875 Z " fill="#000000"/><text fill="#000000" font-family="sans-serif" font-size="20" font-style="italic" lengthAdjust="spacing" textLength="95" x="144.5" y="729.8613">«service»</text><text fill="#000000" font-family="sans-serif" font-size="20" lengthAdjust="spacing" textLength="152" x="116" y="753.1426">PasswordPolicy</text></g><!--class PasswordEncoder--><g id="elem_PasswordEncoder"><rect codeLine="29" fill="#D1F2EB" height="56.5625" id="PasswordEncoder" rx="2.5" ry="2.5" style="stroke:#181818;stroke-width:0.5;" width="210" x="320" y="706.2969"/><ellipse cx="336" cy="734.5781" fill="#85C1E9" rx="12" ry="12" style="stroke:#181818;stroke-width:1.0;"/><path d="M335.4844,735.6875 Q333.2969,734.8438 332.5313,733.9375 Q331.7656,733.0313 331.7656,731.4844 Q331.7656,729.5 333.0313,728.375 Q334.2969,727.2344 336.5156,727.2344 Q337.5156,727.2344 338.5156,727.4688 Q339.5313,727.6875 340.5156,728.1406 L340.5156,730.9531 Q339.5938,730.2969 338.625,729.9531 Q337.6719,729.6094 336.7344,729.6094 Q335.7031,729.6094 335.1406,730.0313 Q334.5781,730.4531 334.5781,731.2344 Q334.5781,731.8438 334.9844,732.25 Q335.3906,732.6406 336.6875,733.1094 L337.9219,733.5781 Q339.6875,734.2188 340.5156,735.2969 Q341.3438,736.3594 341.3438,737.9688 Q341.3438,740.1875 340.0313,741.2813 Q338.7344,742.3594 336.0938,742.3594 Q335.0156,742.3594 333.9219,742.0938 Q332.8281,741.8438 331.8125,741.3281 L331.8125,738.3594 Q332.9688,739.1719 334.0469,739.5781 Q335.125,739.9844 336.1875,739.9844 Q337.25,739.9844 337.8281,739.5 Q338.4219,739.0156 338.4219,738.1406 Q338.4219,737.4844 338.0313,737 Q337.6406,736.5 336.8906,736.2188 L335.4844,735.6875 Z " fill="#000000"/><text fill="#000000" font-family="sans-serif" font-size="20" font-style="italic" lengthAdjust="spacing" textLength="95" x="391.5" y="729.8613">«service»</text><text fill="#000000" font-family="sans-serif" font-size="20" lengthAdjust="spacing" textLength="176" x="351" y="753.1426">PasswordEncoder</text></g><!--link UserSession to SystemUser--><g id="link_UserSession_SystemUser"><path codeLine="31" d="M252,366.5569 C252,382.5169 252,402.9269 252,421.0369 " fill="none" id="UserSession-to-SystemUser" style="stroke:#000000;stroke-width:1.0;"/><polygon fill="#000000" points="252,426.0869,256,417.0869,252,421.0869,248,417.0869,252,426.0869" style="stroke:#000000;stroke-width:1.0;"/></g><!--link SystemUser to Email--><g id="link_SystemUser_Email"><path codeLine="32" d="M228.72,506.4769 C218.51,523.6669 206.48,543.9069 195.97,561.5869 " fill="none" id="SystemUser-to-Email" style="stroke:#000000;stroke-width:1.0;"/><polygon fill="#000000" points="193.34,566.0269,201.3782,560.3359,195.8957,561.7294,194.5022,556.2468,193.34,566.0269" style="stroke:#000000;stroke-width:1.0;"/></g><!--link SystemUser to Password--><g id="link_SystemUser_Password"><path codeLine="33" d="M280.39,506.4769 C295.7,527.5969 314.36,553.3469 328.79,573.2669 " fill="none" id="SystemUser-to-Password" style="stroke:#000000;stroke-width:1.0;"/><polygon fill="#000000" points="331.8,577.4269,329.7596,567.7917,328.8668,573.3776,323.2809,572.4848,331.8,577.4269" style="stroke:#000000;stroke-width:1.0;"/></g><!--link AuthenticationService to Role--><g id="link_AuthenticationService_Role"><path codeLine="34" d="M427.17,132.3869 C466.42,151.5769 511.6,173.6569 546.73,190.8269 " fill="none" id="AuthenticationService-to-Role" style="stroke:#000000;stroke-width:1.0;stroke-dasharray:7.0,7.0;"/><polygon fill="#000000" points="551.4,193.1069,545.052,185.5767,546.9025,190.9224,541.5568,192.7728,551.4,193.1069" style="stroke:#000000;stroke-width:1.0;"/></g><!--link AuthenticationService to Email--><g id="link_AuthenticationService_Email"><path codeLine="35" d="M210.75,118.9069 C172.77,134.2969 135.39,157.4869 113,192.2969 C38.23,308.5369 106.71,481.1469 146.34,561.3569 " fill="none" id="AuthenticationService-to-Email" style="stroke:#000000;stroke-width:1.0;stroke-dasharray:7.0,7.0;"/><polygon fill="#000000" points="148.68,566.0469,148.2454,556.2076,146.4497,561.5719,141.0854,559.7762,148.68,566.0469" style="stroke:#000000;stroke-width:1.0;"/></g><!--link AuthenticationService to Password--><g id="link_AuthenticationService_Password"><path codeLine="36" d="M366.43,132.4169 C376.23,150.2269 386.06,171.5469 391,192.2969 C423.99,330.8469 382.74,501.7869 362.26,572.4069 " fill="none" id="AuthenticationService-to-Password" style="stroke:#000000;stroke-width:1.0;stroke-dasharray:7.0,7.0;"/><polygon fill="#000000" points="360.82,577.3169,367.18,569.7969,362.22,572.5169,359.5,567.5569,360.82,577.3169" style="stroke:#000000;stroke-width:1.0;"/></g><!--link AuthenticationService to AuthorizationService--><g id="link_AuthenticationService_AuthorizationService"><path codeLine="37" d="M310.27,132.3869 C298.33,150.3069 284.7,170.7469 273.63,187.3569 " fill="none" id="AuthenticationService-to-AuthorizationService" style="stroke:#000000;stroke-width:1.0;stroke-dasharray:7.0,7.0;"/><polygon fill="#000000" points="270.57,191.9369,278.8905,186.6672,273.3435,187.7766,272.2341,182.2296,270.57,191.9369" style="stroke:#000000;stroke-width:1.0;"/></g><!--link AuthenticationService to PasswordPolicy--><g id="link_AuthenticationService_PasswordPolicy"><path codeLine="38" d="M210.82,120.4169 C165.83,136.2169 117.46,159.2769 81,192.2969 C27.37,240.8669 6,264.4369 6,336.7969 C6,336.7969 6,336.7969 6,467.2969 C6,565.7769 89.94,656.7269 140.54,702.5969 " fill="none" id="AuthenticationService-to-PasswordPolicy" style="stroke:#000000;stroke-width:1.0;stroke-dasharray:7.0,7.0;"/><polygon fill="#000000" points="144.43,706.0969,140.4162,697.103,140.7135,702.7521,135.0645,703.0494,144.43,706.0969" style="stroke:#000000;stroke-width:1.0;"/></g><!--link AuthenticationService to PasswordEncoder--><g id="link_AuthenticationService_PasswordEncoder"><path codeLine="39" d="M388.87,132.7069 C435.5,178.3569 498,254.8269 498,336.7969 C498,336.7969 498,336.7969 498,467.2969 C498,554.4369 461.25,652.0869 439.9,701.4569 " fill="none" id="AuthenticationService-to-PasswordEncoder" style="stroke:#000000;stroke-width:1.0;stroke-dasharray:7.0,7.0;"/><polygon fill="#000000" points="437.88,706.0869,445.1269,699.4174,439.8668,701.4986,437.7857,696.2385,437.88,706.0869" style="stroke:#000000;stroke-width:1.0;"/></g><!--link AuthorizationService to UserSession--><g id="link_AuthorizationService_UserSession"><path codeLine="40" d="M252,249.3469 C252,265.7169 252,286.5969 252,303.8469 " fill="none" id="AuthorizationService-to-UserSession" style="stroke:#000000;stroke-width:1.0;"/><polygon fill="#000000" points="252,309.0769,256,300.0769,252,304.0769,248,300.0769,252,309.0769" style="stroke:#000000;stroke-width:1.0;"/></g><!--link Password to PasswordPolicy--><g id="link_Password_PasswordPolicy"><path codeLine="41" d="M313.81,635.0569 C286.16,655.1569 248.79,682.3369 220.24,703.0869 " fill="none" id="Password-to-PasswordPolicy" style="stroke:#000000;stroke-width:1.0;stroke-dasharray:7.0,7.0;"/><polygon fill="#000000" points="216.1,706.0969,225.7304,704.0342,220.1424,703.1543,221.0224,697.5663,216.1,706.0969" style="stroke:#000000;stroke-width:1.0;"/></g><!--link Password to PasswordEncoder--><g id="link_Password_PasswordEncoder"><path codeLine="42" d="M368.02,635.0569 C379.34,654.6669 394.53,681.0069 406.39,701.5469 " fill="none" id="Password-to-PasswordEncoder" style="stroke:#000000;stroke-width:1.0;stroke-dasharray:7.0,7.0;"/><polygon fill="#000000" points="409.02,706.0969,407.9826,696.3028,406.5193,701.7671,401.055,700.3039,409.02,706.0969" style="stroke:#000000;stroke-width:1.0;"/></g><!--SRC=[bLBHJi8m57tlLzo41oKAcKG4aeM4GUUB3yP5t-jsXOPk9MtH3EA_ssq2rHG2UzYIUyyvFJrdUicB5LCi5p9TOWOPVh2rCB4iJC8t2Bs04CEDG9WAfZNCE9jRD7JWDNaCWW4X2vuXOBuo9UIOlwFIv4hlLE695sZA5O9KPY49EMpIMczBm3uHIvTp9TT5DfL2gZ3yP6ADup6qPWzq4W_z82MbgJ3nZ4Qpm8_Hg3vvsaZTnJqQ-M1MWiOZEgXt4wNaLpEEXCMHRzVroaxO7Fs-eKMZk1z75GKB6ri9IQaDvg_M1eHXCxDUzjwttpjW1KbGQouB5sa1JL0qPrp08Pamv5dzkNwxjVxZONGVj5t2itrzIPNzuHm3lqZRy3d0oTeiAdCfCzPfqgGBRiwMcrZki3-zewEQMqTr0-n0nUisSHMbufiB1FzVyLaAdfONacYHogokvJIBkCrqEcEdKkAqMstgZluFT-SHVtJTxhXE_yIwaJs-F-C4NyXdA3R1dW7y3PDuownIS48a-p_JSvHtjrF_0G00]--></g></svg>