<?xml version="1.0" encoding="UTF-8" standalone="no"?><svg xmlns="http://www.w3.org/2000/svg" xmlns:xlink="http://www.w3.org/1999/xlink" contentStyleType="text/css" height="526px" preserveAspectRatio="none" style="width:1683px;height:526px;background:#FFFFFF;" version="1.1" viewBox="0 0 1683 526" width="1683px" zoomAndPan="magnify"><defs/><g><text fill="#000000" font-family="sans-serif" font-size="14" font-weight="bold" lengthAdjust="spacing" textLength="187" x="741" y="22.9951">Domain Model - US3000</text><!--cluster <<aggregate>> Application--><g id="cluster_&lt;&lt;aggregate&gt;&gt; Application"><path d="M8.5,44.5137 L288.5,44.5137 A3.75,3.75 0 0 1 291,47.0137 L298,73.7949 L1366.5,73.7949 A2.5,2.5 0 0 1 1369,76.2949 L1369,517.0137 A2.5,2.5 0 0 1 1366.5,519.5137 L8.5,519.5137 A2.5,2.5 0 0 1 6,517.0137 L6,47.0137 A2.5,2.5 0 0 1 8.5,44.5137 " fill="#EBF5FB" style="stroke:#000000;stroke-width:1.5;"/><line style="stroke:#000000;stroke-width:1.5;" x1="6" x2="298" y1="73.7949" y2="73.7949"/><text fill="#000000" font-family="sans-serif" font-size="20" font-weight="bold" lengthAdjust="spacing" textLength="279" x="10" y="65.0781">«aggregate» Application</text></g><!--cluster <<aggregate>> Candidate--><g id="cluster_&lt;&lt;aggregate&gt;&gt; Candidate"><path d="M1395.5,237.5137 L1663.5,237.5137 A3.75,3.75 0 0 1 1666,240.0137 L1673,266.7949 L1673.5,266.7949 A2.5,2.5 0 0 1 1676,269.2949 L1676,373.0137 A2.5,2.5 0 0 1 1673.5,375.5137 L1395.5,375.5137 A2.5,2.5 0 0 1 1393,373.0137 L1393,240.0137 A2.5,2.5 0 0 1 1395.5,237.5137 " fill="#EBF5FB" style="stroke:#000000;stroke-width:1.5;"/><line style="stroke:#000000;stroke-width:1.5;" x1="1393" x2="1673" y1="266.7949" y2="266.7949"/><text fill="#000000" font-family="sans-serif" font-size="20" font-weight="bold" lengthAdjust="spacing" textLength="267" x="1397" y="258.0781">«aggregate» Candidate</text></g><!--class Application--><g id="elem_Application"><rect codeLine="20" fill="#FDEBD0" height="79.8438" id="Application" rx="2.5" ry="2.5" style="stroke:#181818;stroke-width:0.5;" width="148" x="1040" y="86.5137"/><ellipse cx="1056" cy="126.4355" fill="#ADD1B2" rx="12" ry="12" style="stroke:#181818;stroke-width:1.0;"/><path d="M1060.7188,133.9355 L1051.6406,133.9355 L1051.6406,119.3574 L1060.7188,119.3574 L1060.7188,121.8887 L1054.5156,121.8887 L1054.5156,125.0449 L1060.1406,125.0449 L1060.1406,127.5762 L1054.5156,127.5762 L1054.5156,131.3887 L1060.7188,131.3887 L1060.7188,133.9355 Z " fill="#000000"/><text fill="#000000" font-family="sans-serif" font-size="20" font-style="italic" lengthAdjust="spacing" textLength="83" x="1086.5" y="110.0781">«entity»</text><text fill="#000000" font-family="sans-serif" font-size="20" font-style="italic" lengthAdjust="spacing" textLength="64" x="1096" y="133.3594">«root»</text><text fill="#000000" font-family="sans-serif" font-size="20" lengthAdjust="spacing" textLength="114" x="1071" y="156.6406">Application</text></g><!--class Result--><g id="elem_Result"><rect codeLine="21" fill="#FEF9E7" height="56.5625" id="Result" rx="2.5" ry="2.5" style="stroke:#181818;stroke-width:0.5;" width="113" x="745.5" y="291.0137"/><ellipse cx="761.5" cy="319.2949" fill="#ADD1B2" rx="12" ry="12" style="stroke:#181818;stroke-width:1.0;"/><path d="M766.2188,326.7949 L757.1406,326.7949 L757.1406,312.2168 L766.2188,312.2168 L766.2188,314.748 L760.0156,314.748 L760.0156,317.9043 L765.6406,317.9043 L765.6406,320.4355 L760.0156,320.4355 L760.0156,324.248 L766.2188,324.248 L766.2188,326.7949 Z " fill="#000000"/><text fill="#000000" font-family="sans-serif" font-size="20" font-style="italic" lengthAdjust="spacing" textLength="83" x="774.5" y="314.5781">«entity»</text><text fill="#000000" font-family="sans-serif" font-size="20" lengthAdjust="spacing" textLength="63" x="784.5" y="337.8594">Result</text></g><!--class ApplicationDate--><g id="elem_ApplicationDate"><rect codeLine="23" fill="#D6EAF8" height="56.5625" id="ApplicationDate" rx="2.5" ry="2.5" style="stroke:#181818;stroke-width:0.5;" width="195" x="893.5" y="291.0137"/><ellipse cx="909.5" cy="319.2949" fill="#FF8B40" rx="12" ry="12" style="stroke:#181818;stroke-width:1.0;"/><path d="M909.5156,325.1387 L912.0781,312.9668 L914.9844,312.9668 L911.5156,327.5449 L907.5313,327.5449 L904.0625,312.9668 L906.9531,312.9668 L909.5156,325.1387 Z " fill="#000000"/><text fill="#000000" font-family="sans-serif" font-size="20" font-style="italic" lengthAdjust="spacing" textLength="145" x="932.5" y="314.5781">«valueObject»</text><text fill="#000000" font-family="sans-serif" font-size="20" lengthAdjust="spacing" textLength="161" x="924.5" y="337.8594">ApplicationDate</text></g><!--class ApplicationNumber--><g id="elem_ApplicationNumber"><rect codeLine="24" fill="#D6EAF8" height="56.5625" id="ApplicationNumber" rx="2.5" ry="2.5" style="stroke:#181818;stroke-width:0.5;" width="229" x="1123.5" y="291.0137"/><ellipse cx="1139.5" cy="319.2949" fill="#FF8B40" rx="12" ry="12" style="stroke:#181818;stroke-width:1.0;"/><path d="M1139.5156,325.1387 L1142.0781,312.9668 L1144.9844,312.9668 L1141.5156,327.5449 L1137.5313,327.5449 L1134.0625,312.9668 L1136.9531,312.9668 L1139.5156,325.1387 Z " fill="#000000"/><text fill="#000000" font-family="sans-serif" font-size="20" font-style="italic" lengthAdjust="spacing" textLength="145" x="1179.5" y="314.5781">«valueObject»</text><text fill="#000000" font-family="sans-serif" font-size="20" lengthAdjust="spacing" textLength="195" x="1154.5" y="337.8594">ApplicationNumber</text></g><!--class Outcome--><g id="elem_Outcome"><rect codeLine="25" fill="#D6EAF8" height="56.5625" id="Outcome" rx="2.5" ry="2.5" style="stroke:#181818;stroke-width:0.5;" width="175" x="22.5" y="446.5137"/><ellipse cx="38.5" cy="474.7949" fill="#FF8B40" rx="12" ry="12" style="stroke:#181818;stroke-width:1.0;"/><path d="M38.5156,480.6387 L41.0781,468.4668 L43.9844,468.4668 L40.5156,483.0449 L36.5313,483.0449 L33.0625,468.4668 L35.9531,468.4668 L38.5156,480.6387 Z " fill="#000000"/><text fill="#000000" font-family="sans-serif" font-size="20" font-style="italic" lengthAdjust="spacing" textLength="145" x="51.5" y="470.0781">«valueObject»</text><text fill="#000000" font-family="sans-serif" font-size="20" lengthAdjust="spacing" textLength="92" x="78" y="493.3594">Outcome</text></g><!--class Justification--><g id="elem_Justification"><rect codeLine="26" fill="#D6EAF8" height="56.5625" id="Justification" rx="2.5" ry="2.5" style="stroke:#181818;stroke-width:0.5;" width="175" x="1177.5" y="446.5137"/><ellipse cx="1193.5" cy="474.7949" fill="#FF8B40" rx="12" ry="12" style="stroke:#181818;stroke-width:1.0;"/><path d="M1193.5156,480.6387 L1196.0781,468.4668 L1198.9844,468.4668 L1195.5156,483.0449 L1191.5313,483.0449 L1188.0625,468.4668 L1190.9531,468.4668 L1193.5156,480.6387 Z " fill="#000000"/><text fill="#000000" font-family="sans-serif" font-size="20" font-style="italic" lengthAdjust="spacing" textLength="145" x="1206.5" y="470.0781">«valueObject»</text><text fill="#000000" font-family="sans-serif" font-size="20" lengthAdjust="spacing" textLength="118" x="1220" y="493.3594">Justification</text></g><g id="elem_GMN9"><path d="M233,458.5137 L233,471.0137 L197.82,475.0137 L233,479.0137 L233,491.7949 A0,0 0 0 0 233,491.7949 L641,491.7949 A0,0 0 0 0 641,491.7949 L641,468.5137 L631,458.5137 L233,458.5137 A0,0 0 0 0 233,458.5137 " fill="#FEFFDD" style="stroke:#181818;stroke-width:0.5;"/><path d="M631,458.5137 L631,468.5137 L641,468.5137 L631,458.5137 " fill="#FEFFDD" style="stroke:#181818;stroke-width:0.5;"/><text fill="#000000" font-family="sans-serif" font-size="20" lengthAdjust="spacing" textLength="387" x="239" y="482.0781">Outcome can be Approved or Rejected</text></g><g id="elem_GMN12"><path d="M676,458.5137 L676,491.7949 A0,0 0 0 0 676,491.7949 L1142,491.7949 A0,0 0 0 0 1142,491.7949 L1142,479.0137 L1177.27,475.0137 L1142,471.0137 L1142,468.5137 L1132,458.5137 L676,458.5137 A0,0 0 0 0 676,458.5137 " fill="#FEFFDD" style="stroke:#181818;stroke-width:0.5;"/><path d="M1132,458.5137 L1132,468.5137 L1142,468.5137 L1132,458.5137 " fill="#FEFFDD" style="stroke:#181818;stroke-width:0.5;"/><text fill="#000000" font-family="sans-serif" font-size="20" lengthAdjust="spacing" textLength="445" x="682" y="482.0781">Rejected outcomes must have a justification</text></g><!--class Candidate--><g id="elem_Candidate"><rect codeLine="33" fill="#FDEBD0" height="79.8438" id="Candidate" rx="2.5" ry="2.5" style="stroke:#181818;stroke-width:0.5;" width="137" x="1409.5" y="279.5137"/><ellipse cx="1425.5" cy="319.4355" fill="#ADD1B2" rx="12" ry="12" style="stroke:#181818;stroke-width:1.0;"/><path d="M1430.2188,326.9355 L1421.1406,326.9355 L1421.1406,312.3574 L1430.2188,312.3574 L1430.2188,314.8887 L1424.0156,314.8887 L1424.0156,318.0449 L1429.6406,318.0449 L1429.6406,320.5762 L1424.0156,320.5762 L1424.0156,324.3887 L1430.2188,324.3887 L1430.2188,326.9355 Z " fill="#000000"/><text fill="#000000" font-family="sans-serif" font-size="20" font-style="italic" lengthAdjust="spacing" textLength="83" x="1450.5" y="303.0781">«entity»</text><text fill="#000000" font-family="sans-serif" font-size="20" font-style="italic" lengthAdjust="spacing" textLength="64" x="1460" y="326.3594">«root»</text><text fill="#000000" font-family="sans-serif" font-size="20" lengthAdjust="spacing" textLength="103" x="1440.5" y="349.6406">Candidate</text></g><!--link Result to Outcome--><g id="link_Result_Outcome"><path codeLine="39" d="M745.25,331.8937 C640.41,353.0837 409.39,400.6537 216,446.5137 C211.58,447.5637 207.07,448.6537 202.52,449.7637 " fill="none" id="Result-to-Outcome" style="stroke:#000000;stroke-width:1.0;"/><polygon fill="#000000" points="197.56,450.9937,207.2519,452.7452,202.4174,449.8079,205.3546,444.9734,197.56,450.9937" style="stroke:#000000;stroke-width:1.0;"/><text fill="#000000" font-family="sans-serif" font-size="20" lengthAdjust="spacing" textLength="35" x="457" y="411.0781">has</text><text fill="#000000" font-family="sans-serif" font-size="20" lengthAdjust="spacing" textLength="13" x="724.5414" y="327.6092">1</text><text fill="#000000" font-family="sans-serif" font-size="20" lengthAdjust="spacing" textLength="13" x="205.6433" y="443.5365">1</text></g><!--link Result to Justification--><g id="link_Result_Justification"><path codeLine="40" d="M828.13,348.2837 C841.35,360.8037 858.33,374.7137 876,383.5137 C991.75,441.1237 1034.33,416.1337 1160,446.5137 C1164.08,447.5037 1168.25,448.5237 1172.45,449.5737 " fill="none" id="Result-to-Justification" style="stroke:#000000;stroke-width:1.0;"/><polygon fill="#000000" points="1177.4,450.8037,1169.6389,444.7403,1172.5493,449.591,1167.6986,452.5014,1177.4,450.8037" style="stroke:#000000;stroke-width:1.0;"/><text fill="#000000" font-family="sans-serif" font-size="20" lengthAdjust="spacing" textLength="90" x="960" y="411.0781">can have</text><text fill="#000000" font-family="sans-serif" font-size="20" lengthAdjust="spacing" textLength="13" x="818.6266" y="374.0852">1</text><text fill="#000000" font-family="sans-serif" font-size="20" lengthAdjust="spacing" textLength="13" x="1156.6073" y="443.4407">1</text></g><!--link Application to ApplicationDate--><g id="link_Application_ApplicationDate"><path codeLine="43" d="M1088.81,166.6237 C1066.01,202.0337 1032.83,253.5537 1011.58,286.5537 " fill="none" id="Application-to-ApplicationDate" style="stroke:#000000;stroke-width:1.0;"/><polygon fill="#000000" points="1008.79,290.8837,1017.0215,285.4761,1011.4938,286.6778,1010.2921,281.15,1008.79,290.8837" style="stroke:#000000;stroke-width:1.0;"/><text fill="#000000" font-family="sans-serif" font-size="20" lengthAdjust="spacing" textLength="35" x="1068" y="216.0781">has</text><text fill="#000000" font-family="sans-serif" font-size="20" lengthAdjust="spacing" textLength="13" x="1071.1555" y="192.8005">1</text><text fill="#000000" font-family="sans-serif" font-size="20" lengthAdjust="spacing" textLength="13" x="998.1186" y="278.2454">1</text></g><!--link Application to ApplicationNumber--><g id="link_Application_ApplicationNumber"><path codeLine="44" d="M1139.39,166.6237 C1162.38,202.0337 1195.83,253.5537 1217.25,286.5537 " fill="none" id="Application-to-ApplicationNumber" style="stroke:#000000;stroke-width:1.0;"/><polygon fill="#000000" points="1220.06,290.8837,1218.5112,281.1574,1217.3361,286.6908,1211.8026,285.5157,1220.06,290.8837" style="stroke:#000000;stroke-width:1.0;"/><text fill="#000000" font-family="sans-serif" font-size="20" lengthAdjust="spacing" textLength="35" x="1173" y="216.0781">has</text><text fill="#000000" font-family="sans-serif" font-size="20" lengthAdjust="spacing" textLength="13" x="1129.1645" y="192.8005">1</text><text fill="#000000" font-family="sans-serif" font-size="20" lengthAdjust="spacing" textLength="13" x="1202.0192" y="278.2454">1</text></g><!--link Application to Result--><g id="link_Application_Result"><path codeLine="45" d="M1039.8,149.1737 C990.29,165.9637 925.45,192.6137 876,229.5137 C855.04,245.1537 836.26,267.8937 822.87,286.4737 " fill="none" id="Application-to-Result" style="stroke:#000000;stroke-width:1.0;"/><polygon fill="#000000" points="819.92,290.6137,828.3994,285.6038,822.8208,286.5411,821.8834,280.9625,819.92,290.6137" style="stroke:#000000;stroke-width:1.0;"/><text fill="#000000" font-family="sans-serif" font-size="20" lengthAdjust="spacing" textLength="35" x="924" y="216.0781">has</text><text fill="#000000" font-family="sans-serif" font-size="20" lengthAdjust="spacing" textLength="13" x="1019.1083" y="145.8227">1</text><text fill="#000000" font-family="sans-serif" font-size="20" lengthAdjust="spacing" textLength="38" x="781.7074" y="278.2951">0..1</text></g><!--link Application to Candidate--><g id="link_Application_Candidate"><path codeLine="46" d="M1188.2,150.4837 C1240.62,168.2937 1311.49,195.6137 1369,229.5137 C1391.11,242.5437 1413.43,259.8737 1432.06,275.7737 " fill="none" id="Application-to-Candidate" style="stroke:#000000;stroke-width:1.0;"/><polygon fill="#000000" points="1436.23,279.3537,1432.0357,270.4426,1432.4468,276.0845,1426.805,276.4956,1436.23,279.3537" style="stroke:#000000;stroke-width:1.0;"/><text fill="#000000" font-family="sans-serif" font-size="20" lengthAdjust="spacing" textLength="47" x="1350" y="216.0781">from</text><text fill="#000000" font-family="sans-serif" font-size="20" lengthAdjust="spacing" textLength="13" x="1195.8917" y="147.2575">1</text><text fill="#000000" font-family="sans-serif" font-size="20" lengthAdjust="spacing" textLength="13" x="1415.537" y="266.7197">1</text></g><!--SRC=[bL9DRvj04BtlhnWv1xTI7P7qAqN8aWbmgDf6IjJUrp30nWkBTXTNRfJ_dW6CmIv96owiPjvxC_Dcp4QK5TUya2hUO089fhoMDbAblHD_42uTngom4Y5G1HSbV5S9IbZ0pxltZaF9N2G8M5Hs1mKMQzI6pKql2jz4YNPN8IXjSyNOa8abDmOU6D3dytYJQLMNoRMIIdlUbiiQRzRt6Dlb4iw2J-4gkfg6QgLQJ1I4Vk1COmpghOYnbRg8BaD_2aOIOVGb_DpcLbghtrtObuHZZ-FUAuhm3AUxXxFGZpv6Fb7ciAegAM9kXIfXbMKQCswHzVoPv_4-ICsDmBEzDfPa_kv8nlEw814EqpyyZj6tQ6Y5Oo3bMq1d-aWjeCfmwhVdlVdrZko8hlmFpjj1_Y_sZxfP-2lvDxMDLV7QgbzhOqKwUF1lRaik5SsdHPPRK6bVsZtq4FCIrjYCfDMMhf-sTukD9YO3NMBQiezQS0z0K9sOWO80aFCj0eVxCRYvdcTsVitBH2JqFjdu8VxSlbaZEkzthL6sbKmkAiFsmTd531QBPVll9tQfmKd0iS5kQqqp2pkvukDAuynOxVJ4khB_WTwVr0juv_oSdli9NjOTJ7GXrQeWqvu0]--></g></svg>