<?xml version="1.0" encoding="UTF-8" standalone="no"?><svg xmlns="http://www.w3.org/2000/svg" xmlns:xlink="http://www.w3.org/1999/xlink" contentStyleType="text/css" height="64px" preserveAspectRatio="none" style="width:145px;height:64px;background:#FFFFFF;" version="1.1" viewBox="0 0 145 64" width="145px" zoomAndPan="magnify"><defs/><g><!--class A--><g id="elem_A"><rect codeLine="2" fill="#F1F1F1" height="50" id="A" rx="2.5" ry="2.5" style="stroke:#181818;stroke-width:0.5;" width="48" x="7" y="7"/><ellipse cx="23" cy="24" fill="#ADD1B2" rx="12" ry="12" style="stroke:#181818;stroke-width:1.0;"/><path d="M26.0625,31.0781 Q25.375,31.4375 24.625,31.6094 Q23.875,31.7813 23.0469,31.7813 Q20.0938,31.7813 18.5313,29.8438 Q16.9844,27.8906 16.9844,24.2188 Q16.9844,20.5469 18.5313,18.6094 Q20.0938,16.6563 23.0469,16.6563 Q23.875,16.6563 24.625,16.8281 Q25.3906,17 26.0625,17.3594 L26.0625,20.5625 Q25.3125,19.875 24.6094,19.5625 Q23.9219,19.25 23.1719,19.25 Q21.5938,19.25 20.7813,20.5 Q19.9844,21.75 19.9844,24.2188 Q19.9844,26.6875 20.7813,27.9375 Q21.5938,29.1875 23.1719,29.1875 Q23.9219,29.1875 24.6094,28.875 Q25.3125,28.5625 26.0625,27.875 L26.0625,31.0781 Z " fill="#000000"/><text fill="#000000" font-family="sans-serif" font-size="20" lengthAdjust="spacing" textLength="14" x="38" y="30.9238">A</text><line style="stroke:#181818;stroke-width:0.5;" x1="8" x2="54" y1="41" y2="41"/><line style="stroke:#181818;stroke-width:0.5;" x1="8" x2="54" y1="49" y2="49"/></g><!--class B--><g id="elem_B"><rect codeLine="6" fill="#F1F1F1" height="50" id="B" rx="2.5" ry="2.5" style="stroke:#181818;stroke-width:0.5;" width="48" x="90" y="7"/><ellipse cx="106" cy="24" fill="#ADD1B2" rx="12" ry="12" style="stroke:#181818;stroke-width:1.0;"/><path d="M109.0625,31.0781 Q108.375,31.4375 107.625,31.6094 Q106.875,31.7813 106.0469,31.7813 Q103.0938,31.7813 101.5313,29.8438 Q99.9844,27.8906 99.9844,24.2188 Q99.9844,20.5469 101.5313,18.6094 Q103.0938,16.6563 106.0469,16.6563 Q106.875,16.6563 107.625,16.8281 Q108.3906,17 109.0625,17.3594 L109.0625,20.5625 Q108.3125,19.875 107.6094,19.5625 Q106.9219,19.25 106.1719,19.25 Q104.5938,19.25 103.7813,20.5 Q102.9844,21.75 102.9844,24.2188 Q102.9844,26.6875 103.7813,27.9375 Q104.5938,29.1875 106.1719,29.1875 Q106.9219,29.1875 107.6094,28.875 Q108.3125,28.5625 109.0625,27.875 L109.0625,31.0781 Z " fill="#000000"/><text fill="#000000" font-family="sans-serif" font-size="20" lengthAdjust="spacing" textLength="14" x="121" y="30.9238">B</text><line style="stroke:#181818;stroke-width:0.5;" x1="91" x2="137" y1="41" y2="41"/><line style="stroke:#181818;stroke-width:0.5;" x1="91" x2="137" y1="49" y2="49"/></g><!--link A to B--><g id="link_A_B"><path codeLine="10" d="M55.32,32 C65.08,32 74.84,32 84.6,32 " fill="none" id="A-to-B" style="stroke:#181818;stroke-width:1.0;"/><polygon fill="#181818" points="89.7,32,80.7,28,84.7,32,80.7,36,89.7,32" style="stroke:#181818;stroke-width:1.0;"/></g><!--SRC=[AyxEp2j8B4hCpSbFpavDKKX9JKiipIbnoyyh2SwiIbKmCk3YIiv9B2vMS5IevkAgXV6Se3n71Lqx1ISk0000]--></g></svg>