<?xml version="1.0" encoding="UTF-8" standalone="no"?><svg xmlns="http://www.w3.org/2000/svg" xmlns:xlink="http://www.w3.org/1999/xlink" contentStyleType="text/css" height="457px" preserveAspectRatio="none" style="width:694px;height:457px;background:#FFFFFF;" version="1.1" viewBox="0 0 694 457" width="694px" zoomAndPan="magnify"><defs/><g><text fill="#000000" font-family="sans-serif" font-size="14" font-weight="bold" lengthAdjust="spacing" textLength="487" x="102.5" y="27.9951">System Sequence Diagram (SSD) - Enable/Disable a Candidate</text><rect fill="#FFFFFF" height="224.6875" style="stroke:#181818;stroke-width:1.0;" width="10" x="47.5" y="135.5781"/><rect fill="#FFFFFF" height="37.2813" style="stroke:#181818;stroke-width:1.0;" width="10" x="635.5" y="164.8594"/><rect fill="#FFFFFF" height="37.2813" style="stroke:#181818;stroke-width:1.0;" width="10" x="635.5" y="239.4219"/><rect fill="#FFFFFF" height="37.2813" style="stroke:#181818;stroke-width:1.0;" width="10" x="635.5" y="313.9844"/><line style="stroke:#181818;stroke-width:0.5;stroke-dasharray:5.0,5.0;" x1="52" x2="52" y1="125.5781" y2="369.2656"/><line style="stroke:#181818;stroke-width:0.5;stroke-dasharray:5.0,5.0;" x1="640" x2="640" y1="125.5781" y2="369.2656"/><text fill="#000000" font-family="sans-serif" font-size="20" lengthAdjust="spacing" textLength="89" x="5" y="120.8613">Operator</text><ellipse cx="52.5" cy="50.7969" fill="#E3E3E3" rx="8" ry="8" style="stroke:#181818;stroke-width:0.5;"/><path d="M52.5,58.7969 L52.5,85.7969 M39.5,66.7969 L65.5,66.7969 M52.5,85.7969 L39.5,100.7969 M52.5,85.7969 L65.5,100.7969 " fill="none" style="stroke:#181818;stroke-width:0.5;"/><text fill="#000000" font-family="sans-serif" font-size="20" lengthAdjust="spacing" textLength="89" x="5" y="386.8301">Operator</text><ellipse cx="52.5" cy="400.0469" fill="#E3E3E3" rx="8" ry="8" style="stroke:#181818;stroke-width:0.5;"/><path d="M52.5,408.0469 L52.5,435.0469 M39.5,416.0469 L65.5,416.0469 M52.5,435.0469 L39.5,450.0469 M52.5,435.0469 L65.5,450.0469 " fill="none" style="stroke:#181818;stroke-width:0.5;"/><rect fill="#E3E3E3" height="37.2813" rx="2.5" ry="2.5" style="stroke:#181818;stroke-width:0.5;" width="95" x="593" y="87.2969"/><text fill="#000000" font-family="sans-serif" font-size="20" lengthAdjust="spacing" textLength="81" x="600" y="112.8613">:System</text><rect fill="#E3E3E3" height="37.2813" rx="2.5" ry="2.5" style="stroke:#181818;stroke-width:0.5;" width="95" x="593" y="368.2656"/><text fill="#000000" font-family="sans-serif" font-size="20" lengthAdjust="spacing" textLength="81" x="600" y="393.8301">:System</text><rect fill="#FFFFFF" height="224.6875" style="stroke:#181818;stroke-width:1.0;" width="10" x="47.5" y="135.5781"/><rect fill="#FFFFFF" height="37.2813" style="stroke:#181818;stroke-width:1.0;" width="10" x="635.5" y="164.8594"/><rect fill="#FFFFFF" height="37.2813" style="stroke:#181818;stroke-width:1.0;" width="10" x="635.5" y="239.4219"/><rect fill="#FFFFFF" height="37.2813" style="stroke:#181818;stroke-width:1.0;" width="10" x="635.5" y="313.9844"/><polygon fill="#181818" points="623.5,160.8594,633.5,164.8594,623.5,168.8594,627.5,164.8594" style="stroke:#181818;stroke-width:1.0;"/><line style="stroke:#181818;stroke-width:1.0;" x1="57.5" x2="629.5" y1="164.8594" y2="164.8594"/><text fill="#000000" font-family="sans-serif" font-size="20" font-weight="bold" lengthAdjust="spacing" textLength="14" x="64.5" y="158.1426">1</text><text fill="#000000" font-family="sans-serif" font-size="20" lengthAdjust="spacing" textLength="349" x="82.5" y="158.1426">Asks to enable/disable a candidate</text><polygon fill="#181818" points="68.5,198.1406,58.5,202.1406,68.5,206.1406,64.5,202.1406" style="stroke:#181818;stroke-width:1.0;"/><line style="stroke:#181818;stroke-width:1.0;stroke-dasharray:2.0,2.0;" x1="62.5" x2="639.5" y1="202.1406" y2="202.1406"/><text fill="#000000" font-family="sans-serif" font-size="20" font-weight="bold" lengthAdjust="spacing" textLength="14" x="74.5" y="195.4238">2</text><text fill="#000000" font-family="sans-serif" font-size="20" lengthAdjust="spacing" textLength="279" x="92.5" y="195.4238">Provides a list of candidates</text><polygon fill="#181818" points="623.5,235.4219,633.5,239.4219,623.5,243.4219,627.5,239.4219" style="stroke:#181818;stroke-width:1.0;"/><line style="stroke:#181818;stroke-width:1.0;" x1="57.5" x2="629.5" y1="239.4219" y2="239.4219"/><text fill="#000000" font-family="sans-serif" font-size="20" font-weight="bold" lengthAdjust="spacing" textLength="14" x="64.5" y="232.7051">3</text><text fill="#000000" font-family="sans-serif" font-size="20" lengthAdjust="spacing" textLength="196" x="82.5" y="232.7051">Selects a candidate</text><polygon fill="#181818" points="68.5,272.7031,58.5,276.7031,68.5,280.7031,64.5,276.7031" style="stroke:#181818;stroke-width:1.0;"/><line style="stroke:#181818;stroke-width:1.0;stroke-dasharray:2.0,2.0;" x1="62.5" x2="639.5" y1="276.7031" y2="276.7031"/><text fill="#000000" font-family="sans-serif" font-size="20" font-weight="bold" lengthAdjust="spacing" textLength="14" x="74.5" y="269.9863">4</text><text fill="#000000" font-family="sans-serif" font-size="20" lengthAdjust="spacing" textLength="536" x="92.5" y="269.9863">Asks to confirm the change of status of the candidate</text><polygon fill="#181818" points="623.5,309.9844,633.5,313.9844,623.5,317.9844,627.5,313.9844" style="stroke:#181818;stroke-width:1.0;"/><line style="stroke:#181818;stroke-width:1.0;" x1="57.5" x2="629.5" y1="313.9844" y2="313.9844"/><text fill="#000000" font-family="sans-serif" font-size="20" font-weight="bold" lengthAdjust="spacing" textLength="14" x="64.5" y="307.2676">5</text><text fill="#000000" font-family="sans-serif" font-size="20" lengthAdjust="spacing" textLength="471" x="82.5" y="307.2676">Confirms the change of status of the candidate</text><polygon fill="#181818" points="68.5,347.2656,58.5,351.2656,68.5,355.2656,64.5,351.2656" style="stroke:#181818;stroke-width:1.0;"/><line style="stroke:#181818;stroke-width:1.0;stroke-dasharray:2.0,2.0;" x1="62.5" x2="639.5" y1="351.2656" y2="351.2656"/><text fill="#000000" font-family="sans-serif" font-size="20" font-weight="bold" lengthAdjust="spacing" textLength="14" x="74.5" y="344.5488">6</text><text fill="#000000" font-family="sans-serif" font-size="20" lengthAdjust="spacing" textLength="255" x="92.5" y="344.5488">Informs success or failure</text><!--SRC=[fPBDJiCm383lVGfh9pXC88ux8A6DIPn0wXDuYTjQJPCIEqFZwKdNjTjXIFpaKgUnFt-H8otx7YDsBfYMB5YgC3dT1gybVn8yt1SofK0NV31D31s1naGN9psQ5cigzU088Xb5NxlB16dGXW_sDLJeX8f2MNDgUH2b3afwJ-GDmOQn7j9lod9p2qjuzhXpTBTX6Rw0i4PlsQ9c0YODFdKxYZas6Y8iNdkAcAC5eC2qARA1ik4UlS9YDROyPepXiPhtcNakAI2lQGVBnqbq1K_I2cW06itiR6Pciw5sHauzuBHEe6LcplmLlCMmPqkIEOv58LHddep5bguohqgMvF8CvBzMqrrDy1N73hGXC4qUBGs2egX9XkZu_poOtzgkHxpyaF-7YxpuAWmD91b3afanFqDsANvh-mK0]--></g></svg>