<?xml version="1.0" encoding="UTF-8" standalone="no"?><svg xmlns="http://www.w3.org/2000/svg" xmlns:xlink="http://www.w3.org/1999/xlink" contentStyleType="text/css" height="1030px" preserveAspectRatio="none" style="width:3939px;height:1030px;background:#FFFFFF;" version="1.1" viewBox="0 0 3939 1030" width="3939px" zoomAndPan="magnify"><defs/><g><text fill="#000000" font-family="sans-serif" font-size="14" font-weight="bold" lengthAdjust="spacing" textLength="170" x="1877.5" y="22.9951">DOMAIN MODEL - DDD</text><!--cluster <<aggregate>> Job Opening--><g id="cluster_&lt;&lt;aggregate&gt;&gt; Job Opening"><path d="M2262.5,237.5137 L2550.5,237.5137 A3.75,3.75 0 0 1 2553,240.0137 L2560,266.7949 L3929.5,266.7949 A2.5,2.5 0 0 1 3932,269.2949 L3932,515.0137 A2.5,2.5 0 0 1 3929.5,517.5137 L2262.5,517.5137 A2.5,2.5 0 0 1 2260,515.0137 L2260,240.0137 A2.5,2.5 0 0 1 2262.5,237.5137 " fill="#EBF5FB" style="stroke:#000000;stroke-width:1.5;"/><line style="stroke:#000000;stroke-width:1.5;" x1="2260" x2="2560" y1="266.7949" y2="266.7949"/><text fill="#000000" font-family="sans-serif" font-size="20" font-weight="bold" lengthAdjust="spacing" textLength="287" x="2264" y="258.0781">«aggregate» Job Opening</text></g><!--cluster <<aggregate>> Interview--><g id="cluster_&lt;&lt;aggregate&gt;&gt; Interview"><path d="M2196.5,550.5137 L2455.5,550.5137 A3.75,3.75 0 0 1 2458,553.0137 L2465,579.7949 L2610.5,579.7949 A2.5,2.5 0 0 1 2613,582.2949 L2613,867.5137 A2.5,2.5 0 0 1 2610.5,870.0137 L2196.5,870.0137 A2.5,2.5 0 0 1 2194,867.5137 L2194,553.0137 A2.5,2.5 0 0 1 2196.5,550.5137 " fill="#EBF5FB" style="stroke:#000000;stroke-width:1.5;"/><line style="stroke:#000000;stroke-width:1.5;" x1="2194" x2="2465" y1="579.7949" y2="579.7949"/><text fill="#000000" font-family="sans-serif" font-size="20" font-weight="bold" lengthAdjust="spacing" textLength="258" x="2198" y="571.0781">«aggregate» Interview</text></g><!--cluster <<aggregate>> Plugin--><g id="cluster_&lt;&lt;aggregate&gt;&gt; Plugin"><path d="M3042.5,743.5137 L3265.5,743.5137 A3.75,3.75 0 0 1 3268,746.0137 L3275,772.7949 L3727.5,772.7949 A2.5,2.5 0 0 1 3730,775.2949 L3730,1021.0137 A2.5,2.5 0 0 1 3727.5,1023.5137 L3042.5,1023.5137 A2.5,2.5 0 0 1 3040,1021.0137 L3040,746.0137 A2.5,2.5 0 0 1 3042.5,743.5137 " fill="#EBF5FB" style="stroke:#000000;stroke-width:1.5;"/><line style="stroke:#000000;stroke-width:1.5;" x1="3040" x2="3275" y1="772.7949" y2="772.7949"/><text fill="#000000" font-family="sans-serif" font-size="20" font-weight="bold" lengthAdjust="spacing" textLength="222" x="3044" y="764.0781">«aggregate» Plugin</text></g><!--cluster <<aggregate>> RecruitmentProcess--><g id="cluster_&lt;&lt;aggregate&gt;&gt; RecruitmentProcess"><path d="M8.5,44.5137 L390.5,44.5137 A3.75,3.75 0 0 1 393,47.0137 L400,73.7949 L2092.5,73.7949 A2.5,2.5 0 0 1 2095,76.2949 L2095,515.0137 A2.5,2.5 0 0 1 2092.5,517.5137 L8.5,517.5137 A2.5,2.5 0 0 1 6,515.0137 L6,47.0137 A2.5,2.5 0 0 1 8.5,44.5137 " fill="#EBF5FB" style="stroke:#000000;stroke-width:1.5;"/><line style="stroke:#000000;stroke-width:1.5;" x1="6" x2="400" y1="73.7949" y2="73.7949"/><text fill="#000000" font-family="sans-serif" font-size="20" font-weight="bold" lengthAdjust="spacing" textLength="381" x="10" y="65.0781">«aggregate» RecruitmentProcess</text></g><!--class JobOpening--><g id="elem_JobOpening"><rect codeLine="22" fill="#FDEBD0" height="79.8438" id="JobOpening" rx="2.5" ry="2.5" style="stroke:#181818;stroke-width:0.5;" width="151" x="2724.5" y="279.5137"/><ellipse cx="2740.5" cy="319.4355" fill="#ADD1B2" rx="12" ry="12" style="stroke:#181818;stroke-width:1.0;"/><path d="M2745.2188,326.9355 L2736.1406,326.9355 L2736.1406,312.3574 L2745.2188,312.3574 L2745.2188,314.8887 L2739.0156,314.8887 L2739.0156,318.0449 L2744.6406,318.0449 L2744.6406,320.5762 L2739.0156,320.5762 L2739.0156,324.3887 L2745.2188,324.3887 L2745.2188,326.9355 Z " fill="#000000"/><text fill="#000000" font-family="sans-serif" font-size="20" font-style="italic" lengthAdjust="spacing" textLength="83" x="2772.5" y="303.0781">«entity»</text><text fill="#000000" font-family="sans-serif" font-size="20" font-style="italic" lengthAdjust="spacing" textLength="64" x="2782" y="326.3594">«root»</text><text fill="#000000" font-family="sans-serif" font-size="20" lengthAdjust="spacing" textLength="117" x="2755.5" y="349.6406">JobOpening</text></g><!--class JobReference--><g id="elem_JobReference"><rect codeLine="24" fill="#D6EAF8" height="56.5625" id="JobReference" rx="2.5" ry="2.5" style="stroke:#181818;stroke-width:0.5;" width="175" x="2276.5" y="444.5137"/><ellipse cx="2292.5" cy="472.7949" fill="#FF8B40" rx="12" ry="12" style="stroke:#181818;stroke-width:1.0;"/><path d="M2292.5156,478.6387 L2295.0781,466.4668 L2297.9844,466.4668 L2294.5156,481.0449 L2290.5313,481.0449 L2287.0625,466.4668 L2289.9531,466.4668 L2292.5156,478.6387 Z " fill="#000000"/><text fill="#000000" font-family="sans-serif" font-size="20" font-style="italic" lengthAdjust="spacing" textLength="145" x="2305.5" y="468.0781">«valueObject»</text><text fill="#000000" font-family="sans-serif" font-size="20" lengthAdjust="spacing" textLength="132" x="2312" y="491.3594">JobReference</text></g><!--class TitleOrFunction--><g id="elem_TitleOrFunction"><rect codeLine="25" fill="#D6EAF8" height="56.5625" id="TitleOrFunction" rx="2.5" ry="2.5" style="stroke:#181818;stroke-width:0.5;" width="190" x="2487" y="444.5137"/><ellipse cx="2503" cy="472.7949" fill="#FF8B40" rx="12" ry="12" style="stroke:#181818;stroke-width:1.0;"/><path d="M2503.0156,478.6387 L2505.5781,466.4668 L2508.4844,466.4668 L2505.0156,481.0449 L2501.0313,481.0449 L2497.5625,466.4668 L2500.4531,466.4668 L2503.0156,478.6387 Z " fill="#000000"/><text fill="#000000" font-family="sans-serif" font-size="20" font-style="italic" lengthAdjust="spacing" textLength="145" x="2523.5" y="468.0781">«valueObject»</text><text fill="#000000" font-family="sans-serif" font-size="20" lengthAdjust="spacing" textLength="156" x="2518" y="491.3594">TitleOrFunction</text></g><!--class ContractType--><g id="elem_ContractType"><rect codeLine="26" fill="#D6EAF8" height="56.5625" id="ContractType" rx="2.5" ry="2.5" style="stroke:#181818;stroke-width:0.5;" width="175" x="2712.5" y="444.5137"/><ellipse cx="2728.5" cy="472.7949" fill="#FF8B40" rx="12" ry="12" style="stroke:#181818;stroke-width:1.0;"/><path d="M2728.5156,478.6387 L2731.0781,466.4668 L2733.9844,466.4668 L2730.5156,481.0449 L2726.5313,481.0449 L2723.0625,466.4668 L2725.9531,466.4668 L2728.5156,478.6387 Z " fill="#000000"/><text fill="#000000" font-family="sans-serif" font-size="20" font-style="italic" lengthAdjust="spacing" textLength="145" x="2741.5" y="468.0781">«valueObject»</text><text fill="#000000" font-family="sans-serif" font-size="20" lengthAdjust="spacing" textLength="134" x="2747" y="491.3594">ContractType</text></g><!--class Mode--><g id="elem_Mode"><rect codeLine="27" fill="#D6EAF8" height="56.5625" id="Mode" rx="2.5" ry="2.5" style="stroke:#181818;stroke-width:0.5;" width="175" x="2922.5" y="444.5137"/><ellipse cx="2938.5" cy="472.7949" fill="#FF8B40" rx="12" ry="12" style="stroke:#181818;stroke-width:1.0;"/><path d="M2938.5156,478.6387 L2941.0781,466.4668 L2943.9844,466.4668 L2940.5156,481.0449 L2936.5313,481.0449 L2933.0625,466.4668 L2935.9531,466.4668 L2938.5156,478.6387 Z " fill="#000000"/><text fill="#000000" font-family="sans-serif" font-size="20" font-style="italic" lengthAdjust="spacing" textLength="145" x="2951.5" y="468.0781">«valueObject»</text><text fill="#000000" font-family="sans-serif" font-size="20" lengthAdjust="spacing" textLength="54" x="2997" y="491.3594">Mode</text></g><!--class NumberOfVacancies--><g id="elem_NumberOfVacancies"><rect codeLine="28" fill="#D6EAF8" height="56.5625" id="NumberOfVacancies" rx="2.5" ry="2.5" style="stroke:#181818;stroke-width:0.5;" width="239" x="3132.5" y="444.5137"/><ellipse cx="3148.5" cy="472.7949" fill="#FF8B40" rx="12" ry="12" style="stroke:#181818;stroke-width:1.0;"/><path d="M3148.5156,478.6387 L3151.0781,466.4668 L3153.9844,466.4668 L3150.5156,481.0449 L3146.5313,481.0449 L3143.0625,466.4668 L3145.9531,466.4668 L3148.5156,478.6387 Z " fill="#000000"/><text fill="#000000" font-family="sans-serif" font-size="20" font-style="italic" lengthAdjust="spacing" textLength="145" x="3193.5" y="468.0781">«valueObject»</text><text fill="#000000" font-family="sans-serif" font-size="20" lengthAdjust="spacing" textLength="205" x="3163.5" y="491.3594">NumberOfVacancies</text></g><!--class JobDescription--><g id="elem_JobDescription"><rect codeLine="29" fill="#D6EAF8" height="56.5625" id="JobDescription" rx="2.5" ry="2.5" style="stroke:#181818;stroke-width:0.5;" width="179" x="3406.5" y="444.5137"/><ellipse cx="3422.5" cy="472.7949" fill="#FF8B40" rx="12" ry="12" style="stroke:#181818;stroke-width:1.0;"/><path d="M3422.5156,478.6387 L3425.0781,466.4668 L3427.9844,466.4668 L3424.5156,481.0449 L3420.5313,481.0449 L3417.0625,466.4668 L3419.9531,466.4668 L3422.5156,478.6387 Z " fill="#000000"/><text fill="#000000" font-family="sans-serif" font-size="20" font-style="italic" lengthAdjust="spacing" textLength="145" x="3437.5" y="468.0781">«valueObject»</text><text fill="#000000" font-family="sans-serif" font-size="20" lengthAdjust="spacing" textLength="145" x="3437.5" y="491.3594">JobDescription</text></g><!--class RequirementSpecification--><g id="elem_RequirementSpecification"><rect codeLine="30" fill="#FEF9E7" height="56.5625" id="RequirementSpecification" rx="2.5" ry="2.5" style="stroke:#181818;stroke-width:0.5;" width="295" x="3620.5" y="444.5137"/><ellipse cx="3636.5" cy="472.7949" fill="#ADD1B2" rx="12" ry="12" style="stroke:#181818;stroke-width:1.0;"/><path d="M3641.2188,480.2949 L3632.1406,480.2949 L3632.1406,465.7168 L3641.2188,465.7168 L3641.2188,468.248 L3635.0156,468.248 L3635.0156,471.4043 L3640.6406,471.4043 L3640.6406,473.9355 L3635.0156,473.9355 L3635.0156,477.748 L3641.2188,477.748 L3641.2188,480.2949 Z " fill="#000000"/><text fill="#000000" font-family="sans-serif" font-size="20" font-style="italic" lengthAdjust="spacing" textLength="83" x="3740.5" y="468.0781">«entity»</text><text fill="#000000" font-family="sans-serif" font-size="20" lengthAdjust="spacing" textLength="261" x="3651.5" y="491.3594">RequirementSpecification</text></g><!--class Interview--><g id="elem_Interview"><rect codeLine="35" fill="#FDEBD0" height="79.8438" id="Interview" rx="2.5" ry="2.5" style="stroke:#181818;stroke-width:0.5;" width="127" x="2287.5" y="592.5137"/><ellipse cx="2303.5" cy="632.4355" fill="#ADD1B2" rx="12" ry="12" style="stroke:#181818;stroke-width:1.0;"/><path d="M2308.2188,639.9355 L2299.1406,639.9355 L2299.1406,625.3574 L2308.2188,625.3574 L2308.2188,627.8887 L2302.0156,627.8887 L2302.0156,631.0449 L2307.6406,631.0449 L2307.6406,633.5762 L2302.0156,633.5762 L2302.0156,637.3887 L2308.2188,637.3887 L2308.2188,639.9355 Z " fill="#000000"/><text fill="#000000" font-family="sans-serif" font-size="20" font-style="italic" lengthAdjust="spacing" textLength="83" x="2323.5" y="616.0781">«entity»</text><text fill="#000000" font-family="sans-serif" font-size="20" font-style="italic" lengthAdjust="spacing" textLength="64" x="2333" y="639.3594">«root»</text><text fill="#000000" font-family="sans-serif" font-size="20" lengthAdjust="spacing" textLength="93" x="2318.5" y="662.6406">Interview</text></g><!--class InterviewDate--><g id="elem_InterviewDate"><rect codeLine="37" fill="#D6EAF8" height="56.5625" id="InterviewDate" rx="2.5" ry="2.5" style="stroke:#181818;stroke-width:0.5;" width="175" x="2210.5" y="797.0137"/><ellipse cx="2226.5" cy="825.2949" fill="#FF8B40" rx="12" ry="12" style="stroke:#181818;stroke-width:1.0;"/><path d="M2226.5156,831.1387 L2229.0781,818.9668 L2231.9844,818.9668 L2228.5156,833.5449 L2224.5313,833.5449 L2221.0625,818.9668 L2223.9531,818.9668 L2226.5156,831.1387 Z " fill="#000000"/><text fill="#000000" font-family="sans-serif" font-size="20" font-style="italic" lengthAdjust="spacing" textLength="145" x="2239.5" y="820.5781">«valueObject»</text><text fill="#000000" font-family="sans-serif" font-size="20" lengthAdjust="spacing" textLength="140" x="2242" y="843.8594">InterviewDate</text></g><!--class InterviewTime--><g id="elem_InterviewTime"><rect codeLine="38" fill="#D6EAF8" height="56.5625" id="InterviewTime" rx="2.5" ry="2.5" style="stroke:#181818;stroke-width:0.5;" width="177" x="2420.5" y="797.0137"/><ellipse cx="2436.5" cy="825.2949" fill="#FF8B40" rx="12" ry="12" style="stroke:#181818;stroke-width:1.0;"/><path d="M2436.5156,831.1387 L2439.0781,818.9668 L2441.9844,818.9668 L2438.5156,833.5449 L2434.5313,833.5449 L2431.0625,818.9668 L2433.9531,818.9668 L2436.5156,831.1387 Z " fill="#000000"/><text fill="#000000" font-family="sans-serif" font-size="20" font-style="italic" lengthAdjust="spacing" textLength="145" x="2450.5" y="820.5781">«valueObject»</text><text fill="#000000" font-family="sans-serif" font-size="20" lengthAdjust="spacing" textLength="143" x="2451.5" y="843.8594">InterviewTime</text></g><!--class Plugin--><g id="elem_Plugin"><rect codeLine="44" fill="#FDEBD0" height="79.8438" id="Plugin" rx="2.5" ry="2.5" style="stroke:#181818;stroke-width:0.5;" width="113" x="3353.5" y="785.5137"/><ellipse cx="3369.5" cy="825.4355" fill="#ADD1B2" rx="12" ry="12" style="stroke:#181818;stroke-width:1.0;"/><path d="M3374.2188,832.9355 L3365.1406,832.9355 L3365.1406,818.3574 L3374.2188,818.3574 L3374.2188,820.8887 L3368.0156,820.8887 L3368.0156,824.0449 L3373.6406,824.0449 L3373.6406,826.5762 L3368.0156,826.5762 L3368.0156,830.3887 L3374.2188,830.3887 L3374.2188,832.9355 Z " fill="#000000"/><text fill="#000000" font-family="sans-serif" font-size="20" font-style="italic" lengthAdjust="spacing" textLength="83" x="3382.5" y="809.0781">«entity»</text><text fill="#000000" font-family="sans-serif" font-size="20" font-style="italic" lengthAdjust="spacing" textLength="64" x="3392" y="832.3594">«root»</text><text fill="#000000" font-family="sans-serif" font-size="20" lengthAdjust="spacing" textLength="63" x="3392.5" y="855.6406">Plugin</text></g><!--class RequirementModel--><g id="elem_RequirementModel"><rect codeLine="45" fill="#FEF9E7" height="56.5625" id="RequirementModel" rx="2.5" ry="2.5" style="stroke:#181818;stroke-width:0.5;" width="225" x="3056.5" y="950.5137"/><ellipse cx="3072.5" cy="978.7949" fill="#ADD1B2" rx="12" ry="12" style="stroke:#181818;stroke-width:1.0;"/><path d="M3077.2188,986.2949 L3068.1406,986.2949 L3068.1406,971.7168 L3077.2188,971.7168 L3077.2188,974.248 L3071.0156,974.248 L3071.0156,977.4043 L3076.6406,977.4043 L3076.6406,979.9355 L3071.0156,979.9355 L3071.0156,983.748 L3077.2188,983.748 L3077.2188,986.2949 Z " fill="#000000"/><text fill="#000000" font-family="sans-serif" font-size="20" font-style="italic" lengthAdjust="spacing" textLength="83" x="3141.5" y="974.0781">«entity»</text><text fill="#000000" font-family="sans-serif" font-size="20" lengthAdjust="spacing" textLength="191" x="3087.5" y="997.3594">RequirementModel</text></g><!--class InterviewModel--><g id="elem_InterviewModel"><rect codeLine="46" fill="#FEF9E7" height="56.5625" id="InterviewModel" rx="2.5" ry="2.5" style="stroke:#181818;stroke-width:0.5;" width="187" x="3316.5" y="950.5137"/><ellipse cx="3332.5" cy="978.7949" fill="#ADD1B2" rx="12" ry="12" style="stroke:#181818;stroke-width:1.0;"/><path d="M3337.2188,986.2949 L3328.1406,986.2949 L3328.1406,971.7168 L3337.2188,971.7168 L3337.2188,974.248 L3331.0156,974.248 L3331.0156,977.4043 L3336.6406,977.4043 L3336.6406,979.9355 L3331.0156,979.9355 L3331.0156,983.748 L3337.2188,983.748 L3337.2188,986.2949 Z " fill="#000000"/><text fill="#000000" font-family="sans-serif" font-size="20" font-style="italic" lengthAdjust="spacing" textLength="83" x="3382.5" y="974.0781">«entity»</text><text fill="#000000" font-family="sans-serif" font-size="20" lengthAdjust="spacing" textLength="153" x="3347.5" y="997.3594">InterviewModel</text></g><!--class Description--><g id="elem_Description"><rect codeLine="48" fill="#D6EAF8" height="56.5625" id="Description" rx="2.5" ry="2.5" style="stroke:#181818;stroke-width:0.5;" width="175" x="3538.5" y="950.5137"/><ellipse cx="3554.5" cy="978.7949" fill="#FF8B40" rx="12" ry="12" style="stroke:#181818;stroke-width:1.0;"/><path d="M3554.5156,984.6387 L3557.0781,972.4668 L3559.9844,972.4668 L3556.5156,987.0449 L3552.5313,987.0449 L3549.0625,972.4668 L3551.9531,972.4668 L3554.5156,984.6387 Z " fill="#000000"/><text fill="#000000" font-family="sans-serif" font-size="20" font-style="italic" lengthAdjust="spacing" textLength="145" x="3567.5" y="974.0781">«valueObject»</text><text fill="#000000" font-family="sans-serif" font-size="20" lengthAdjust="spacing" textLength="114" x="3583" y="997.3594">Description</text></g><!--class RecruitmentProcess--><g id="elem_RecruitmentProcess"><rect codeLine="53" fill="#FDEBD0" height="79.8438" id="RecruitmentProcess" rx="2.5" ry="2.5" style="stroke:#181818;stroke-width:0.5;" width="234" x="1553" y="86.5137"/><ellipse cx="1569" cy="126.4355" fill="#ADD1B2" rx="12" ry="12" style="stroke:#181818;stroke-width:1.0;"/><path d="M1573.7188,133.9355 L1564.6406,133.9355 L1564.6406,119.3574 L1573.7188,119.3574 L1573.7188,121.8887 L1567.5156,121.8887 L1567.5156,125.0449 L1573.1406,125.0449 L1573.1406,127.5762 L1567.5156,127.5762 L1567.5156,131.3887 L1573.7188,131.3887 L1573.7188,133.9355 Z " fill="#000000"/><text fill="#000000" font-family="sans-serif" font-size="20" font-style="italic" lengthAdjust="spacing" textLength="83" x="1642.5" y="110.0781">«entity»</text><text fill="#000000" font-family="sans-serif" font-size="20" font-style="italic" lengthAdjust="spacing" textLength="64" x="1652" y="133.3594">«root»</text><text fill="#000000" font-family="sans-serif" font-size="20" lengthAdjust="spacing" textLength="200" x="1584" y="156.6406">RecruitmentProcess</text></g><!--class Phase--><g id="elem_Phase"><rect codeLine="54" fill="#FEF9E7" height="56.5625" id="Phase" rx="2.5" ry="2.5" style="stroke:#181818;stroke-width:0.5;" width="113" x="1322.5" y="291.0137"/><ellipse cx="1338.5" cy="319.2949" fill="#ADD1B2" rx="12" ry="12" style="stroke:#181818;stroke-width:1.0;"/><path d="M1343.2188,326.7949 L1334.1406,326.7949 L1334.1406,312.2168 L1343.2188,312.2168 L1343.2188,314.748 L1337.0156,314.748 L1337.0156,317.9043 L1342.6406,317.9043 L1342.6406,320.4355 L1337.0156,320.4355 L1337.0156,324.248 L1343.2188,324.248 L1343.2188,326.7949 Z " fill="#000000"/><text fill="#000000" font-family="sans-serif" font-size="20" font-style="italic" lengthAdjust="spacing" textLength="83" x="1351.5" y="314.5781">«entity»</text><text fill="#000000" font-family="sans-serif" font-size="20" lengthAdjust="spacing" textLength="59" x="1363.5" y="337.8594">Phase</text></g><!--class ApplicationPhase--><g id="elem_ApplicationPhase"><rect codeLine="55" fill="#FEF9E7" height="56.5625" id="ApplicationPhase" rx="2.5" ry="2.5" style="stroke:#181818;stroke-width:0.5;" width="207" x="598.5" y="444.5137"/><ellipse cx="614.5" cy="472.7949" fill="#ADD1B2" rx="12" ry="12" style="stroke:#181818;stroke-width:1.0;"/><path d="M619.2188,480.2949 L610.1406,480.2949 L610.1406,465.7168 L619.2188,465.7168 L619.2188,468.248 L613.0156,468.248 L613.0156,471.4043 L618.6406,471.4043 L618.6406,473.9355 L613.0156,473.9355 L613.0156,477.748 L619.2188,477.748 L619.2188,480.2949 Z " fill="#000000"/><text fill="#000000" font-family="sans-serif" font-size="20" font-style="italic" lengthAdjust="spacing" textLength="83" x="674.5" y="468.0781">«entity»</text><text fill="#000000" font-family="sans-serif" font-size="20" lengthAdjust="spacing" textLength="173" x="629.5" y="491.3594">ApplicationPhase</text></g><!--class ScreeningPhase--><g id="elem_ScreeningPhase"><rect codeLine="56" fill="#FEF9E7" height="56.5625" id="ScreeningPhase" rx="2.5" ry="2.5" style="stroke:#181818;stroke-width:0.5;" width="194" x="841" y="444.5137"/><ellipse cx="857" cy="472.7949" fill="#ADD1B2" rx="12" ry="12" style="stroke:#181818;stroke-width:1.0;"/><path d="M861.7188,480.2949 L852.6406,480.2949 L852.6406,465.7168 L861.7188,465.7168 L861.7188,468.248 L855.5156,468.248 L855.5156,471.4043 L861.1406,471.4043 L861.1406,473.9355 L855.5156,473.9355 L855.5156,477.748 L861.7188,477.748 L861.7188,480.2949 Z " fill="#000000"/><text fill="#000000" font-family="sans-serif" font-size="20" font-style="italic" lengthAdjust="spacing" textLength="83" x="910.5" y="468.0781">«entity»</text><text fill="#000000" font-family="sans-serif" font-size="20" lengthAdjust="spacing" textLength="160" x="872" y="491.3594">ScreeningPhase</text></g><!--class InterviewPhase--><g id="elem_InterviewPhase"><rect codeLine="57" fill="#FEF9E7" height="56.5625" id="InterviewPhase" rx="2.5" ry="2.5" style="stroke:#181818;stroke-width:0.5;" width="186" x="1070" y="444.5137"/><ellipse cx="1086" cy="472.7949" fill="#ADD1B2" rx="12" ry="12" style="stroke:#181818;stroke-width:1.0;"/><path d="M1090.7188,480.2949 L1081.6406,480.2949 L1081.6406,465.7168 L1090.7188,465.7168 L1090.7188,468.248 L1084.5156,468.248 L1084.5156,471.4043 L1090.1406,471.4043 L1090.1406,473.9355 L1084.5156,473.9355 L1084.5156,477.748 L1090.7188,477.748 L1090.7188,480.2949 Z " fill="#000000"/><text fill="#000000" font-family="sans-serif" font-size="20" font-style="italic" lengthAdjust="spacing" textLength="83" x="1135.5" y="468.0781">«entity»</text><text fill="#000000" font-family="sans-serif" font-size="20" lengthAdjust="spacing" textLength="152" x="1101" y="491.3594">InterviewPhase</text></g><!--class AnalysisPhase--><g id="elem_AnalysisPhase"><rect codeLine="58" fill="#FEF9E7" height="56.5625" id="AnalysisPhase" rx="2.5" ry="2.5" style="stroke:#181818;stroke-width:0.5;" width="175" x="1291.5" y="444.5137"/><ellipse cx="1307.5" cy="472.7949" fill="#ADD1B2" rx="12" ry="12" style="stroke:#181818;stroke-width:1.0;"/><path d="M1312.2188,480.2949 L1303.1406,480.2949 L1303.1406,465.7168 L1312.2188,465.7168 L1312.2188,468.248 L1306.0156,468.248 L1306.0156,471.4043 L1311.6406,471.4043 L1311.6406,473.9355 L1306.0156,473.9355 L1306.0156,477.748 L1312.2188,477.748 L1312.2188,480.2949 Z " fill="#000000"/><text fill="#000000" font-family="sans-serif" font-size="20" font-style="italic" lengthAdjust="spacing" textLength="83" x="1351.5" y="468.0781">«entity»</text><text fill="#000000" font-family="sans-serif" font-size="20" lengthAdjust="spacing" textLength="141" x="1322.5" y="491.3594">AnalysisPhase</text></g><!--class ResultPhase--><g id="elem_ResultPhase"><rect codeLine="59" fill="#FEF9E7" height="56.5625" id="ResultPhase" rx="2.5" ry="2.5" style="stroke:#181818;stroke-width:0.5;" width="156" x="1502" y="444.5137"/><ellipse cx="1518" cy="472.7949" fill="#ADD1B2" rx="12" ry="12" style="stroke:#181818;stroke-width:1.0;"/><path d="M1522.7188,480.2949 L1513.6406,480.2949 L1513.6406,465.7168 L1522.7188,465.7168 L1522.7188,468.248 L1516.5156,468.248 L1516.5156,471.4043 L1522.1406,471.4043 L1522.1406,473.9355 L1516.5156,473.9355 L1516.5156,477.748 L1522.7188,477.748 L1522.7188,480.2949 Z " fill="#000000"/><text fill="#000000" font-family="sans-serif" font-size="20" font-style="italic" lengthAdjust="spacing" textLength="83" x="1552.5" y="468.0781">«entity»</text><text fill="#000000" font-family="sans-serif" font-size="20" lengthAdjust="spacing" textLength="122" x="1533" y="491.3594">ResultPhase</text></g><!--class InitialDate--><g id="elem_InitialDate"><rect codeLine="61" fill="#D6EAF8" height="56.5625" id="InitialDate" rx="2.5" ry="2.5" style="stroke:#181818;stroke-width:0.5;" width="175" x="1693.5" y="444.5137"/><ellipse cx="1709.5" cy="472.7949" fill="#FF8B40" rx="12" ry="12" style="stroke:#181818;stroke-width:1.0;"/><path d="M1709.5156,478.6387 L1712.0781,466.4668 L1714.9844,466.4668 L1711.5156,481.0449 L1707.5313,481.0449 L1704.0625,466.4668 L1706.9531,466.4668 L1709.5156,478.6387 Z " fill="#000000"/><text fill="#000000" font-family="sans-serif" font-size="20" font-style="italic" lengthAdjust="spacing" textLength="145" x="1722.5" y="468.0781">«valueObject»</text><text fill="#000000" font-family="sans-serif" font-size="20" lengthAdjust="spacing" textLength="104" x="1743" y="491.3594">InitialDate</text></g><!--class FinalDate--><g id="elem_FinalDate"><rect codeLine="62" fill="#D6EAF8" height="56.5625" id="FinalDate" rx="2.5" ry="2.5" style="stroke:#181818;stroke-width:0.5;" width="175" x="1903.5" y="444.5137"/><ellipse cx="1919.5" cy="472.7949" fill="#FF8B40" rx="12" ry="12" style="stroke:#181818;stroke-width:1.0;"/><path d="M1919.5156,478.6387 L1922.0781,466.4668 L1924.9844,466.4668 L1921.5156,481.0449 L1917.5313,481.0449 L1914.0625,466.4668 L1916.9531,466.4668 L1919.5156,478.6387 Z " fill="#000000"/><text fill="#000000" font-family="sans-serif" font-size="20" font-style="italic" lengthAdjust="spacing" textLength="145" x="1932.5" y="468.0781">«valueObject»</text><text fill="#000000" font-family="sans-serif" font-size="20" lengthAdjust="spacing" textLength="96" x="1957" y="491.3594">FinalDate</text></g><!--class State--><g id="elem_State"><rect codeLine="63" fill="#D6EAF8" height="56.5625" id="State" rx="2.5" ry="2.5" style="stroke:#181818;stroke-width:0.5;" width="175" x="22.5" y="444.5137"/><ellipse cx="38.5" cy="472.7949" fill="#FF8B40" rx="12" ry="12" style="stroke:#181818;stroke-width:1.0;"/><path d="M38.5156,478.6387 L41.0781,466.4668 L43.9844,466.4668 L40.5156,481.0449 L36.5313,481.0449 L33.0625,466.4668 L35.9531,466.4668 L38.5156,478.6387 Z " fill="#000000"/><text fill="#000000" font-family="sans-serif" font-size="20" font-style="italic" lengthAdjust="spacing" textLength="145" x="51.5" y="468.0781">«valueObject»</text><text fill="#000000" font-family="sans-serif" font-size="20" lengthAdjust="spacing" textLength="53" x="97.5" y="491.3594">State</text></g><g id="elem_GMN31"><path d="M232.5,456.5137 L232.5,469.0137 L197.75,473.0137 L232.5,477.0137 L232.5,489.7949 A0,0 0 0 0 232.5,489.7949 L563.5,489.7949 A0,0 0 0 0 563.5,489.7949 L563.5,466.5137 L553.5,456.5137 L232.5,456.5137 A0,0 0 0 0 232.5,456.5137 " fill="#FEFFDD" style="stroke:#181818;stroke-width:0.5;"/><path d="M553.5,456.5137 L553.5,466.5137 L563.5,466.5137 L553.5,456.5137 " fill="#FEFFDD" style="stroke:#181818;stroke-width:0.5;"/><text fill="#000000" font-family="sans-serif" font-size="20" lengthAdjust="spacing" textLength="310" x="238.5" y="480.0781">State can be Opened or Closed</text></g><!--link RecruitmentProcess to Phase--><g id="link_RecruitmentProcess_Phase"><path codeLine="70" d="M1610.41,166.6237 C1555.69,202.5437 1475.72,255.0337 1425.56,287.9537 " fill="none" id="RecruitmentProcess-to-Phase" style="stroke:#000000;stroke-width:1.0;"/><polygon fill="#000000" points="1421.1,290.8837,1430.8201,289.2965,1425.2821,288.1432,1426.4354,282.6052,1421.1,290.8837" style="stroke:#000000;stroke-width:1.0;"/><text fill="#000000" font-family="sans-serif" font-size="20" lengthAdjust="spacing" textLength="35" x="1561" y="216.0781">has</text><text fill="#000000" font-family="sans-serif" font-size="20" lengthAdjust="spacing" textLength="13" x="1587.703" y="192.8005">1</text><text fill="#000000" font-family="sans-serif" font-size="20" lengthAdjust="spacing" textLength="10" x="1418.7519" y="278.2454">*</text></g><!--link RecruitmentProcess to JobOpening--><g id="link_RecruitmentProcess_JobOpening"><path codeLine="71" d="M1787.2,147.3237 C2017.21,186.2037 2522.4,271.5937 2719.24,304.8637 " fill="none" id="RecruitmentProcess-to-JobOpening" style="stroke:#000000;stroke-width:1.0;"/><polygon fill="#000000" points="2724.4,305.7337,2716.1877,300.2969,2719.4692,304.9047,2714.8614,308.1862,2724.4,305.7337" style="stroke:#000000;stroke-width:1.0;"/><text fill="#000000" font-family="sans-serif" font-size="20" lengthAdjust="spacing" textLength="27" x="2202" y="216.0781">for</text><text fill="#000000" font-family="sans-serif" font-size="20" lengthAdjust="spacing" textLength="13" x="1795.1245" y="143.4986">1</text><text fill="#000000" font-family="sans-serif" font-size="20" lengthAdjust="spacing" textLength="13" x="2703.5748" y="298.9095">1</text></g><!--link JobOpening to JobReference--><g id="link_JobOpening_JobReference"><path codeLine="74" d="M2724.05,346.9037 C2647.03,373.6637 2528.09,414.9937 2448.22,442.7537 " fill="none" id="JobOpening-to-JobReference" style="stroke:#000000;stroke-width:1.0;"/><polygon fill="#000000" points="2443.49,444.3937,2453.3043,445.2184,2448.2131,442.7527,2450.6788,437.6615,2443.49,444.3937" style="stroke:#000000;stroke-width:1.0;"/><text fill="#000000" font-family="sans-serif" font-size="20" lengthAdjust="spacing" textLength="35" x="2596" y="409.0781">has</text><text fill="#000000" font-family="sans-serif" font-size="20" lengthAdjust="spacing" textLength="13" x="2703.4491" y="343.9532">1</text><text fill="#000000" font-family="sans-serif" font-size="20" lengthAdjust="spacing" textLength="13" x="2445.5442" y="431.7575">1</text></g><!--link JobOpening to TitleOrFunction--><g id="link_JobOpening_TitleOrFunction"><path codeLine="75" d="M2743.86,359.5337 C2707.28,384.9537 2660.21,417.6637 2626.27,441.2437 " fill="none" id="JobOpening-to-TitleOrFunction" style="stroke:#000000;stroke-width:1.0;"/><polygon fill="#000000" points="2621.78,444.3637,2631.4539,442.5156,2625.8868,441.5117,2626.8907,435.9446,2621.78,444.3637" style="stroke:#000000;stroke-width:1.0;"/><text fill="#000000" font-family="sans-serif" font-size="20" lengthAdjust="spacing" textLength="35" x="2698" y="409.0781">has</text><text fill="#000000" font-family="sans-serif" font-size="20" lengthAdjust="spacing" textLength="13" x="2721.2683" y="386.0206">1</text><text fill="#000000" font-family="sans-serif" font-size="20" lengthAdjust="spacing" textLength="13" x="2615.644" y="431.7213">1</text></g><!--link JobOpening to ContractType--><g id="link_JobOpening_ContractType"><path codeLine="76" d="M2800,359.5337 C2800,384.1437 2800,415.5837 2800,438.9737 " fill="none" id="JobOpening-to-ContractType" style="stroke:#000000;stroke-width:1.0;"/><polygon fill="#000000" points="2800,444.1337,2804,435.1337,2800,439.1337,2796,435.1337,2800,444.1337" style="stroke:#000000;stroke-width:1.0;"/><text fill="#000000" font-family="sans-serif" font-size="20" lengthAdjust="spacing" textLength="35" x="2801" y="409.0781">has</text><text fill="#000000" font-family="sans-serif" font-size="20" lengthAdjust="spacing" textLength="13" x="2786.0047" y="386.0206">1</text><text fill="#000000" font-family="sans-serif" font-size="20" lengthAdjust="spacing" textLength="13" x="2785.7203" y="431.8191">1</text></g><!--link JobOpening to Mode--><g id="link_JobOpening_Mode"><path codeLine="77" d="M2854.08,359.5337 C2889.32,384.9537 2934.66,417.6637 2967.35,441.2437 " fill="none" id="JobOpening-to-Mode" style="stroke:#000000;stroke-width:1.0;"/><polygon fill="#000000" points="2971.68,444.3637,2966.7039,435.8643,2967.6191,441.4467,2962.0367,442.3618,2971.68,444.3637" style="stroke:#000000;stroke-width:1.0;"/><text fill="#000000" font-family="sans-serif" font-size="20" lengthAdjust="spacing" textLength="35" x="2930" y="409.0781">has</text><text fill="#000000" font-family="sans-serif" font-size="20" lengthAdjust="spacing" textLength="13" x="2848.3657" y="386.0206">1</text><text fill="#000000" font-family="sans-serif" font-size="20" lengthAdjust="spacing" textLength="13" x="2949.4359" y="431.7213">1</text></g><!--link JobOpening to NumberOfVacancies--><g id="link_JobOpening_NumberOfVacancies"><path codeLine="78" d="M2875.65,345.8737 C2955.37,372.5937 3080.75,414.6137 3164.62,442.7237 " fill="none" id="JobOpening-to-NumberOfVacancies" style="stroke:#000000;stroke-width:1.0;"/><polygon fill="#000000" points="3169.59,444.3937,3162.3228,437.7463,3164.848,442.8082,3159.7861,445.3335,3169.59,444.3937" style="stroke:#000000;stroke-width:1.0;"/><text fill="#000000" font-family="sans-serif" font-size="20" lengthAdjust="spacing" textLength="35" x="3080" y="409.0781">has</text><text fill="#000000" font-family="sans-serif" font-size="20" lengthAdjust="spacing" textLength="13" x="2883.4799" y="368.0675">1</text><text fill="#000000" font-family="sans-serif" font-size="20" lengthAdjust="spacing" textLength="13" x="3138.2523" y="431.7575">1</text></g><!--link JobOpening to JobDescription--><g id="link_JobOpening_JobDescription"><path codeLine="79" d="M2875.55,335.3137 C2987.85,357.5537 3205.33,401.6037 3389,444.5137 C3393.09,445.4737 3397.27,446.4637 3401.49,447.4837 " fill="none" id="JobOpening-to-JobDescription" style="stroke:#000000;stroke-width:1.0;"/><polygon fill="#000000" points="3406.45,448.6937,3398.6554,442.6734,3401.5926,447.5079,3396.7581,450.4452,3406.45,448.6937" style="stroke:#000000;stroke-width:1.0;"/><text fill="#000000" font-family="sans-serif" font-size="20" lengthAdjust="spacing" textLength="35" x="3245" y="409.0781">has</text><text fill="#000000" font-family="sans-serif" font-size="20" lengthAdjust="spacing" textLength="13" x="2883.6268" y="331.3229">1</text><text fill="#000000" font-family="sans-serif" font-size="20" lengthAdjust="spacing" textLength="13" x="3385.4959" y="441.3215">1</text></g><!--link JobOpening to RequirementSpecification--><g id="link_JobOpening_RequirementSpecification"><path codeLine="80" d="M2875.92,330.4937 C2972.15,343.3237 3143.1,366.6637 3289,389.5137 C3398.34,406.6437 3521.37,427.8737 3615.36,444.5037 " fill="none" id="JobOpening-to-RequirementSpecification" style="stroke:#000000;stroke-width:1.0;"/><polygon fill="#000000" points="3620.38,445.3937,3612.2167,439.8837,3615.4568,444.5207,3610.8198,447.7608,3620.38,445.3937" style="stroke:#000000;stroke-width:1.0;"/><text fill="#000000" font-family="sans-serif" font-size="20" lengthAdjust="spacing" textLength="35" x="3435" y="409.0781">has</text><text fill="#000000" font-family="sans-serif" font-size="20" lengthAdjust="spacing" textLength="13" x="2883.5181" y="351.1507">1</text><text fill="#000000" font-family="sans-serif" font-size="20" lengthAdjust="spacing" textLength="13" x="3599.4332" y="438.9595">1</text></g><!--link JobOpening to Interview--><g id="link_JobOpening_Interview"><path codeLine="81" d="M2724.35,323.7437 C2572.02,332.0037 2236.88,359.6237 2167,444.5137 C2144.12,472.3137 2148.99,494.3437 2167,525.5137 C2191.78,568.3837 2241.21,595.4537 2282.61,611.4937 " fill="none" id="JobOpening-to-Interview" style="stroke:#000000;stroke-width:1.0;"/><polygon fill="#000000" points="2287.35,613.3037,2280.353,606.3724,2282.6748,611.5308,2277.5165,613.8527,2287.35,613.3037" style="stroke:#000000;stroke-width:1.0;"/><text fill="#000000" font-family="sans-serif" font-size="20" lengthAdjust="spacing" textLength="90" x="2168" y="480.0781">can have</text><text fill="#000000" font-family="sans-serif" font-size="20" lengthAdjust="spacing" textLength="13" x="2703.5201" y="318.6361">1</text><text fill="#000000" font-family="sans-serif" font-size="20" lengthAdjust="spacing" textLength="13" x="2266.6773" y="605.5331">1</text></g><!--link Plugin to Description--><g id="link_Plugin_Description"><path codeLine="84" d="M3465.63,865.5337 C3501.87,890.9537 3548.51,923.6637 3582.13,947.2437 " fill="none" id="Plugin-to-Description" style="stroke:#000000;stroke-width:1.0;"/><polygon fill="#000000" points="3586.58,950.3637,3581.5166,941.9161,3582.4892,947.4887,3576.9166,948.4613,3586.58,950.3637" style="stroke:#000000;stroke-width:1.0;"/><text fill="#000000" font-family="sans-serif" font-size="20" lengthAdjust="spacing" textLength="35" x="3544" y="915.0781">has</text><text fill="#000000" font-family="sans-serif" font-size="20" lengthAdjust="spacing" textLength="13" x="3460.153" y="892.0206">1</text><text fill="#000000" font-family="sans-serif" font-size="20" lengthAdjust="spacing" textLength="13" x="3564.109" y="937.7213">1</text></g><!--reverse link Plugin to InterviewModel--><g id="link_Plugin_InterviewModel"><path codeLine="85" d="M3410,870.5837 C3410,896.2637 3410,927.8637 3410,950.1337 " fill="none" id="Plugin-backto-InterviewModel" style="stroke:#000000;stroke-width:1.0;"/><polygon fill="#000000" points="3410,865.5337,3406.0257,874.5451,3410.0143,870.5337,3414.0257,874.5222,3410,865.5337" style="stroke:#000000;stroke-width:1.0;"/></g><!--reverse link Plugin to RequirementModel--><g id="link_Plugin_RequirementModel"><path codeLine="86" d="M3349.18,864.7437 C3306.81,891.3837 3251.27,926.2937 3213.12,950.2737 " fill="none" id="Plugin-backto-RequirementModel" style="stroke:#000000;stroke-width:1.0;"/><polygon fill="#000000" points="3353.5,862.0337,3343.7514,863.4353,3349.2664,864.6939,3348.0078,870.209,3353.5,862.0337" style="stroke:#000000;stroke-width:1.0;"/></g><!--link Interview to InterviewDate--><g id="link_Interview_InterviewDate"><path codeLine="89" d="M2340.15,672.6237 C2330.4,707.7437 2316.26,758.7137 2307.09,791.7437 " fill="none" id="Interview-to-InterviewDate" style="stroke:#000000;stroke-width:1.0;"/><polygon fill="#000000" points="2305.67,796.8837,2311.941,789.2893,2307.0134,792.0675,2304.2352,787.1399,2305.67,796.8837" style="stroke:#000000;stroke-width:1.0;"/><text fill="#000000" font-family="sans-serif" font-size="20" lengthAdjust="spacing" textLength="35" x="2331" y="722.0781">has</text><text fill="#000000" font-family="sans-serif" font-size="20" lengthAdjust="spacing" textLength="13" x="2324.6017" y="698.8005">1</text><text fill="#000000" font-family="sans-serif" font-size="20" lengthAdjust="spacing" textLength="13" x="2292.9113" y="784.2454">1</text></g><!--link Interview to InterviewTime--><g id="link_Interview_InterviewTime"><path codeLine="90" d="M2383.35,672.6237 C2412.77,708.1837 2455.61,759.9737 2482.89,792.9537 " fill="none" id="Interview-to-InterviewTime" style="stroke:#000000;stroke-width:1.0;"/><polygon fill="#000000" points="2486.14,796.8837,2483.4755,787.4021,2482.9489,793.0344,2477.3167,792.5078,2486.14,796.8837" style="stroke:#000000;stroke-width:1.0;"/><text fill="#000000" font-family="sans-serif" font-size="20" lengthAdjust="spacing" textLength="35" x="2426" y="722.0781">has</text><text fill="#000000" font-family="sans-serif" font-size="20" lengthAdjust="spacing" textLength="13" x="2374.1467" y="698.8005">1</text><text fill="#000000" font-family="sans-serif" font-size="20" lengthAdjust="spacing" textLength="13" x="2467.0845" y="784.2454">1</text></g><!--link Interview to Plugin--><g id="link_Interview_Plugin"><path codeLine="91" d="M2414.86,645.0337 C2604.26,679.1937 3161.27,779.6537 3348.1,813.3537 " fill="none" id="Interview-to-Plugin" style="stroke:#000000;stroke-width:1.0;"/><polygon fill="#000000" points="3353.25,814.2737,3345.1022,808.7407,3348.3293,813.3868,3343.6832,816.6139,3353.25,814.2737" style="stroke:#000000;stroke-width:1.0;"/><text fill="#000000" font-family="sans-serif" font-size="20" lengthAdjust="spacing" textLength="45" x="2849" y="722.0781">uses</text><text fill="#000000" font-family="sans-serif" font-size="20" lengthAdjust="spacing" textLength="13" x="2422.5556" y="640.7336">1</text><text fill="#000000" font-family="sans-serif" font-size="20" lengthAdjust="spacing" textLength="13" x="3332.5414" y="807.0933">1</text></g><!--link Phase to State--><g id="link_Phase_State"><path codeLine="94" d="M1322.24,323.5337 C1152.81,333.1937 636.29,367.3537 215,444.5137 C210.94,445.2537 206.8,446.0737 202.63,446.9537 " fill="none" id="Phase-to-State" style="stroke:#000000;stroke-width:1.0;"/><polygon fill="#000000" points="197.72,448.0037,207.3567,450.0368,202.6098,446.9599,205.6867,442.2131,197.72,448.0037" style="stroke:#000000;stroke-width:1.0;"/><text fill="#000000" font-family="sans-serif" font-size="20" lengthAdjust="spacing" textLength="35" x="566" y="409.0781">has</text><text fill="#000000" font-family="sans-serif" font-size="20" lengthAdjust="spacing" textLength="13" x="1301.5302" y="318.2303">1</text><text fill="#000000" font-family="sans-serif" font-size="20" lengthAdjust="spacing" textLength="13" x="205.5226" y="440.5744">1</text></g><!--link Phase to InitialDate--><g id="link_Phase_InitialDate"><path codeLine="95" d="M1435.74,341.8937 C1505.53,368.1937 1624.33,412.9737 1702.75,442.5237 " fill="none" id="Phase-to-InitialDate" style="stroke:#000000;stroke-width:1.0;"/><polygon fill="#000000" points="1707.86,444.4437,1700.8375,437.5382,1703.1784,442.6881,1698.0285,445.0289,1707.86,444.4437" style="stroke:#000000;stroke-width:1.0;"/><text fill="#000000" font-family="sans-serif" font-size="20" lengthAdjust="spacing" textLength="35" x="1629" y="409.0781">has</text><text fill="#000000" font-family="sans-serif" font-size="20" lengthAdjust="spacing" textLength="13" x="1443.4474" y="338.8279">1</text><text fill="#000000" font-family="sans-serif" font-size="20" lengthAdjust="spacing" textLength="13" x="1678.4342" y="431.8178">1</text></g><!--link Phase to FinalDate--><g id="link_Phase_FinalDate"><path codeLine="96" d="M1435.73,333.4337 C1495,347.0237 1590.66,369.2237 1673,389.5137 C1767.93,412.9037 1791.38,419.9037 1886,444.5137 C1890.06,445.5737 1894.22,446.6537 1898.41,447.7437 " fill="none" id="Phase-to-FinalDate" style="stroke:#000000;stroke-width:1.0;"/><polygon fill="#000000" points="1903.35,449.0337,1895.6438,442.9007,1898.5104,447.7774,1893.6337,450.644,1903.35,449.0337" style="stroke:#000000;stroke-width:1.0;"/><text fill="#000000" font-family="sans-serif" font-size="20" lengthAdjust="spacing" textLength="35" x="1770" y="409.0781">has</text><text fill="#000000" font-family="sans-serif" font-size="20" lengthAdjust="spacing" textLength="13" x="1443.4362" y="355.14">1</text><text fill="#000000" font-family="sans-serif" font-size="20" lengthAdjust="spacing" textLength="13" x="1882.5532" y="441.6897">1</text></g><!--reverse link Phase to ApplicationPhase--><g id="link_Phase_ApplicationPhase"><path codeLine="98" d="M1302.76,336.9437 C1238.73,350.7937 1144.84,371.2237 1063,389.5137 C976.26,408.8937 877.92,431.4037 805.81,448.0137 " fill="none" id="Phase-backto-ApplicationPhase" style="stroke:#000000;stroke-width:1.0;"/><polygon fill="none" points="1301.42,330.0737,1322.45,332.6837,1304.38,343.7537,1301.42,330.0737" style="stroke:#000000;stroke-width:1.0;"/><text fill="#000000" font-family="sans-serif" font-size="20" lengthAdjust="spacing" textLength="34" x="1064" y="409.0781">is a</text></g><!--reverse link Phase to ScreeningPhase--><g id="link_Phase_ScreeningPhase"><path codeLine="99" d="M1303.33,346.5137 C1223.93,373.7837 1099.6,416.5037 1018.45,444.3737 " fill="none" id="Phase-backto-ScreeningPhase" style="stroke:#000000;stroke-width:1.0;"/><polygon fill="none" points="1301.06,339.8837,1322.25,340.0137,1305.61,353.1237,1301.06,339.8837" style="stroke:#000000;stroke-width:1.0;"/><text fill="#000000" font-family="sans-serif" font-size="20" lengthAdjust="spacing" textLength="34" x="1173" y="409.0781">is a</text></g><!--reverse link Phase to InterviewPhase--><g id="link_Phase_InterviewPhase"><path codeLine="100" d="M1322.88,359.8737 C1285.05,386.4037 1236.09,420.7537 1202.37,444.4037 " fill="none" id="Phase-backto-InterviewPhase" style="stroke:#000000;stroke-width:1.0;"/><polygon fill="none" points="1318.99,354.0537,1339.38,348.3037,1327.03,365.5137,1318.99,354.0537" style="stroke:#000000;stroke-width:1.0;"/><text fill="#000000" font-family="sans-serif" font-size="20" lengthAdjust="spacing" textLength="34" x="1279" y="409.0781">is a</text></g><!--reverse link Phase to AnalysisPhase--><g id="link_Phase_AnalysisPhase"><path codeLine="101" d="M1379,368.3537 C1379,393.4037 1379,423.2037 1379,444.4037 " fill="none" id="Phase-backto-AnalysisPhase" style="stroke:#000000;stroke-width:1.0;"/><polygon fill="none" points="1372,368.3037,1379,348.3037,1386,368.3037,1372,368.3037" style="stroke:#000000;stroke-width:1.0;"/><text fill="#000000" font-family="sans-serif" font-size="20" lengthAdjust="spacing" textLength="34" x="1380" y="409.0781">is a</text></g><!--reverse link Phase to ResultPhase--><g id="link_Phase_ResultPhase"><path codeLine="102" d="M1432.18,360.5937 C1467.24,387.0237 1512.27,420.9637 1543.37,444.4037 " fill="none" id="Phase-backto-ResultPhase" style="stroke:#000000;stroke-width:1.0;"/><polygon fill="none" points="1427.62,365.9337,1415.87,348.3037,1436.05,354.7537,1427.62,365.9337" style="stroke:#000000;stroke-width:1.0;"/><text fill="#000000" font-family="sans-serif" font-size="20" lengthAdjust="spacing" textLength="34" x="1505" y="409.0781">is a</text></g><!--link RequirementSpecification to Plugin--><g id="link_RequirementSpecification_Plugin"><path codeLine="105" d="M3739.91,501.5137 C3677.81,562.3137 3528.46,708.5337 3453.9,781.5337 " fill="none" id="RequirementSpecification-to-Plugin" style="stroke:#000000;stroke-width:1.0;"/><polygon fill="#000000" points="3449.97,785.3837,3459.1976,781.9412,3453.5411,781.884,3453.5982,776.2275,3449.97,785.3837" style="stroke:#000000;stroke-width:1.0;"/><text fill="#000000" font-family="sans-serif" font-size="20" lengthAdjust="spacing" textLength="45" x="3697" y="639.5781">uses</text><text fill="#000000" font-family="sans-serif" font-size="20" lengthAdjust="spacing" textLength="13" x="3720.5325" y="527.5194">1</text><text fill="#000000" font-family="sans-serif" font-size="20" lengthAdjust="spacing" textLength="13" x="3442.3043" y="772.7545">1</text></g><!--SRC=[dLPTRzem57tthx3eGxTfI6srZmv5ID0GgTDQAgZwRimbU0rsPZkjMDV_FiVv8349AUKbmZxd-lhSctEZ7XcFYIIRID17ME8bh4WIwK1mFMT_0L-S8QIPZW3xqvlHzIs-cVgJNxYFVTz7QCsMW64JwotUm6O1Kg5JLKJ4lnW7lOq12wdN0g7T3es8KlW5OVCR4_eOIf7mvPM8XFIy9n8bC5ty1gg7GtpYVvkCWijcg1J2OW9_ClRFcZ4Av1EZO4ET1nUJSHFCX9W4FoRVxTv8Il6SBOyZWqElrTnZiq92QCuUdqp6mTTWd5BGAVuf5dWQ0sSynACmb10I3QY8qFCyKYoQz2hWNXuTkD5-c-uKKJmlMpFuylelvh0KdQbgm3DOWGHE0RjgUjw7Xy_cii7b-ClPnuoxezwdXPxA8E5KCy6FP5-Pdf64wlkqvCTHRyJoMCfjalRRTFL0AE6KWJgIRsJoGL79ugEkcbTa1dyI9c5Z_ivZe6p5ACdZbFKnZDUq2QwvJbiGdhjRe8Gw3R0BqLt_4kkRc4UAKdBlsUPjtApFxw8aPBpxVXdEkLnERhbPi-XfmqIEs4rwjU7IN-NUntQ2hUiCg4oOJjEvauA2YTCfm3x74QCXQBSmTskYe5sDKHn7UNzs8ETKWlMP3bofRzV9d4HRnLG7R0RAp9msKAq_cMOaUaTd1uo_YpVNR-LO4XS6BLcurbYiCl8WZs5i2Y_0EhoPisPKN4L2mJ9_WofrnqNX9KIsQ6hDOeKQEgDttiFz_X3tFlNo7XXWypW8DS_AE1dWbP3kfAgVMq4xGNPZ9Zks1UbEbOFWsX0vYBGpuo1YVqGSX3iJuI2spV-RIKlnp0lcpie7jYNMv0ag5bhNFb-idhoVOk6VsJ6EzxcxheVM1rJzzDrwDO7wVCbIw43QQN88cISvm8a2PTMmtUo8OTUgjFpziYBiRLQyeWrIca86G7j6sK_Y_hzXbiq0CuK9SYoo0U6OOmEYReiDWAeXDcnRloZhYEjV8Avhj7oexCjVg8_-0m00]--></g></svg>