<?xml version="1.0" encoding="UTF-8" standalone="no"?><svg xmlns="http://www.w3.org/2000/svg" xmlns:xlink="http://www.w3.org/1999/xlink" contentStyleType="text/css" height="65px" preserveAspectRatio="none" style="width:143px;height:65px;background:#FFFFFF;" version="1.1" viewBox="0 0 143 65" width="143px" zoomAndPan="magnify"><defs/><g><!--class A--><g id="elem_A"><rect codeLine="2" fill="#F1F1F1" height="51.1563" id="A" rx="2.5" ry="2.5" style="stroke:#181818;stroke-width:0.5;" width="47" x="7" y="7"/><ellipse cx="23" cy="24.5781" fill="#ADD1B2" rx="12" ry="12" style="stroke:#181818;stroke-width:1.0;"/><path d="M25.1406,19.5 Q25.3281,19.25 25.5469,19.125 Q25.7656,18.9844 26.0156,18.9844 Q26.4531,18.9844 26.7344,19.2969 Q27.0156,19.5938 27.0156,20.3125 L27.0156,22.0156 Q27.0156,22.7344 26.7344,23.0469 Q26.4531,23.3594 26.0156,23.3594 Q25.625,23.3594 25.375,23.125 Q25.125,22.9063 25.0156,22.2969 Q24.9531,21.875 24.7344,21.6563 Q24.3438,21.2188 23.625,20.9531 Q22.9063,20.6875 22.1875,20.6875 Q21.2813,20.6875 20.5313,21.0781 Q19.7813,21.4688 19.2031,22.3594 Q18.625,23.2344 18.625,24.4375 L18.625,25.7344 Q18.625,27.1875 19.6719,28.1563 Q20.7344,29.125 22.5938,29.125 Q23.7031,29.125 24.4844,28.8125 Q24.9219,28.6406 25.4375,28.125 Q25.75,27.8125 25.9219,27.7188 Q26.0938,27.625 26.3281,27.625 Q26.7188,27.625 27.0156,27.9375 Q27.3281,28.2344 27.3281,28.6406 Q27.3281,29.0469 26.9219,29.5156 Q26.3281,30.2031 25.3906,30.5938 Q24.125,31.125 22.6094,31.125 Q20.8281,31.125 19.4063,30.3906 Q18.25,29.7969 17.4375,28.5313 Q16.625,27.2656 16.625,25.7813 L16.625,24.4219 Q16.625,22.8594 17.3438,21.5156 Q18.0781,20.1563 19.3594,19.4219 Q20.6563,18.6875 22.1094,18.6875 Q22.9688,18.6875 23.7188,18.8906 Q24.4844,19.0938 25.1406,19.5 Z " fill="#000000"/><text fill="#000000" font-family="sans-serif" font-size="20" lengthAdjust="spacing" textLength="13" x="38" y="32.7617">A</text><line style="stroke:#181818;stroke-width:0.5;" x1="8" x2="53" y1="42.1563" y2="42.1563"/><line style="stroke:#181818;stroke-width:0.5;" x1="8" x2="53" y1="50.1563" y2="50.1563"/></g><!--class B--><g id="elem_B"><rect codeLine="6" fill="#F1F1F1" height="51.1563" id="B" rx="2.5" ry="2.5" style="stroke:#181818;stroke-width:0.5;" width="47" x="89" y="7"/><ellipse cx="105" cy="24.5781" fill="#ADD1B2" rx="12" ry="12" style="stroke:#181818;stroke-width:1.0;"/><path d="M107.1406,19.5 Q107.3281,19.25 107.5469,19.125 Q107.7656,18.9844 108.0156,18.9844 Q108.4531,18.9844 108.7344,19.2969 Q109.0156,19.5938 109.0156,20.3125 L109.0156,22.0156 Q109.0156,22.7344 108.7344,23.0469 Q108.4531,23.3594 108.0156,23.3594 Q107.625,23.3594 107.375,23.125 Q107.125,22.9063 107.0156,22.2969 Q106.9531,21.875 106.7344,21.6563 Q106.3438,21.2188 105.625,20.9531 Q104.9063,20.6875 104.1875,20.6875 Q103.2813,20.6875 102.5313,21.0781 Q101.7813,21.4688 101.2031,22.3594 Q100.625,23.2344 100.625,24.4375 L100.625,25.7344 Q100.625,27.1875 101.6719,28.1563 Q102.7344,29.125 104.5938,29.125 Q105.7031,29.125 106.4844,28.8125 Q106.9219,28.6406 107.4375,28.125 Q107.75,27.8125 107.9219,27.7188 Q108.0938,27.625 108.3281,27.625 Q108.7188,27.625 109.0156,27.9375 Q109.3281,28.2344 109.3281,28.6406 Q109.3281,29.0469 108.9219,29.5156 Q108.3281,30.2031 107.3906,30.5938 Q106.125,31.125 104.6094,31.125 Q102.8281,31.125 101.4063,30.3906 Q100.25,29.7969 99.4375,28.5313 Q98.625,27.2656 98.625,25.7813 L98.625,24.4219 Q98.625,22.8594 99.3438,21.5156 Q100.0781,20.1563 101.3594,19.4219 Q102.6563,18.6875 104.1094,18.6875 Q104.9688,18.6875 105.7188,18.8906 Q106.4844,19.0938 107.1406,19.5 Z " fill="#000000"/><text fill="#000000" font-family="sans-serif" font-size="20" lengthAdjust="spacing" textLength="13" x="120" y="32.7617">B</text><line style="stroke:#181818;stroke-width:0.5;" x1="90" x2="135" y1="42.1563" y2="42.1563"/><line style="stroke:#181818;stroke-width:0.5;" x1="90" x2="135" y1="50.1563" y2="50.1563"/></g><!--link A to B--><g id="link_A_B"><path codeLine="10" d="M54.2,32.5 C64.03,32.5 73.85,32.5 83.68,32.5 " fill="none" id="A-to-B" style="stroke:#181818;stroke-width:1.0;"/><polygon fill="#181818" points="88.82,32.5,79.82,28.5,83.82,32.5,79.82,36.5,88.82,32.5" style="stroke:#181818;stroke-width:1.0;"/></g><!--SRC=[AyxEp2j8B4hCpSbFpavDKKX9JKiipIbnoyyh2SwiIbKmCk3YIiv9B2vMS5IevkAgXV6Se3n71Lqx1ISk0000]--></g></svg>