<?xml version="1.0" encoding="UTF-8" standalone="no"?><svg xmlns="http://www.w3.org/2000/svg" xmlns:xlink="http://www.w3.org/1999/xlink" contentStyleType="text/css" height="2984px" preserveAspectRatio="none" style="width:1712px;height:2984px;background:#FFFFFF;" version="1.1" viewBox="0 0 1712 2984" width="1712px" zoomAndPan="magnify"><defs/><g><rect fill="#FFFFFF" height="2780.1563" style="stroke:#181818;stroke-width:1.0;" width="10" x="62.5" y="98.2813"/><rect fill="#FFFFFF" height="107.125" style="stroke:#181818;stroke-width:1.0;" width="10" x="260.5" y="174.125"/><rect fill="#FFFFFF" height="1310.6563" style="stroke:#181818;stroke-width:1.0;" width="10" x="260.5" y="341.8125"/><rect fill="#FFFFFF" height="1182.4063" style="stroke:#181818;stroke-width:1.0;" width="10" x="260.5" y="1705.0313"/><rect fill="#FFFFFF" height="1232.8125" style="stroke:#181818;stroke-width:1.0;" width="10" x="590.5" y="419.6563"/><rect fill="#FFFFFF" height="1060.2813" style="stroke:#181818;stroke-width:1.0;" width="10" x="590.5" y="1742.3125"/><rect fill="#FFFFFF" height="1195.5313" style="stroke:#181818;stroke-width:1.0;" width="10" x="914" y="456.9375"/><rect fill="#FFFFFF" height="999.7188" style="stroke:#181818;stroke-width:1.0;" width="10" x="914" y="1802.875"/><rect fill="#FFFFFF" height="1158.25" style="stroke:#181818;stroke-width:1.0;" width="10" x="1207.5" y="494.2188"/><rect fill="#FFFFFF" height="939.1563" style="stroke:#181818;stroke-width:1.0;" width="10" x="1207.5" y="1863.4375"/><rect fill="#FFFFFF" height="233.9688" style="stroke:#181818;stroke-width:1.0;" width="10" x="1448" y="2189.5313"/><rect fill="none" height="1288.6563" style="stroke:#000000;stroke-width:1.5;" width="1672" x="10" y="356.8125"/><rect fill="none" height="159.4063" style="stroke:#000000;stroke-width:1.5;" width="343" x="1362" y="2204.5313"/><rect fill="none" height="357.0938" style="stroke:#000000;stroke-width:1.5;" width="1567" x="115" y="2438.5"/><line style="stroke:#181818;stroke-width:0.5;stroke-dasharray:5.0,5.0;" x1="67" x2="67" y1="88.2813" y2="2896.4375"/><line style="stroke:#181818;stroke-width:0.5;stroke-dasharray:5.0,5.0;" x1="265" x2="265" y1="88.2813" y2="2896.4375"/><line style="stroke:#181818;stroke-width:0.5;stroke-dasharray:5.0,5.0;" x1="595" x2="595" y1="88.2813" y2="2896.4375"/><line style="stroke:#181818;stroke-width:0.5;stroke-dasharray:5.0,5.0;" x1="919" x2="919" y1="88.2813" y2="2896.4375"/><line style="stroke:#181818;stroke-width:0.5;stroke-dasharray:5.0,5.0;" x1="1212" x2="1212" y1="88.2813" y2="2896.4375"/><line style="stroke:#181818;stroke-width:0.5;stroke-dasharray:5.0,5.0;" x1="1453" x2="1453" y1="88.2813" y2="2896.4375"/><line style="stroke:#181818;stroke-width:0.5;stroke-dasharray:5.0,5.0;" x1="1608" x2="1608" y1="88.2813" y2="2896.4375"/><text fill="#000000" font-family="sans-serif" font-size="20" lengthAdjust="spacing" text-decoration="underline" textLength="89" x="20" y="83.5645">Operator</text><ellipse cx="67.5" cy="13.5" fill="#E2E2F0" rx="8" ry="8" style="stroke:#181818;stroke-width:0.5;"/><path d="M67.5,21.5 L67.5,48.5 M54.5,29.5 L80.5,29.5 M67.5,48.5 L54.5,63.5 M67.5,48.5 L80.5,63.5 " fill="none" style="stroke:#181818;stroke-width:0.5;"/><text fill="#000000" font-family="sans-serif" font-size="20" lengthAdjust="spacing" text-decoration="underline" textLength="89" x="20" y="2914.002">Operator</text><ellipse cx="67.5" cy="2927.2188" fill="#E2E2F0" rx="8" ry="8" style="stroke:#181818;stroke-width:0.5;"/><path d="M67.5,2935.2188 L67.5,2962.2188 M54.5,2943.2188 L80.5,2943.2188 M67.5,2962.2188 L54.5,2977.2188 M67.5,2962.2188 L80.5,2977.2188 " fill="none" style="stroke:#181818;stroke-width:0.5;"/><rect fill="#E2E2F0" height="37.2813" rx="2.5" ry="2.5" style="stroke:#181818;stroke-width:0.5;" width="281" x="125" y="50"/><text fill="#000000" font-family="sans-serif" font-size="20" lengthAdjust="spacing" text-decoration="underline" textLength="267" x="132" y="75.5645">EnableDisableCandidateUI</text><rect fill="#E2E2F0" height="37.2813" rx="2.5" ry="2.5" style="stroke:#181818;stroke-width:0.5;" width="281" x="125" y="2895.4375"/><text fill="#000000" font-family="sans-serif" font-size="20" lengthAdjust="spacing" text-decoration="underline" textLength="267" x="132" y="2921.002">EnableDisableCandidateUI</text><rect fill="#E2E2F0" height="37.2813" rx="2.5" ry="2.5" style="stroke:#181818;stroke-width:0.5;" width="359" x="416" y="50"/><text fill="#000000" font-family="sans-serif" font-size="20" lengthAdjust="spacing" text-decoration="underline" textLength="345" x="423" y="75.5645">EnableDisableCandidateController</text><rect fill="#E2E2F0" height="37.2813" rx="2.5" ry="2.5" style="stroke:#181818;stroke-width:0.5;" width="359" x="416" y="2895.4375"/><text fill="#000000" font-family="sans-serif" font-size="20" lengthAdjust="spacing" text-decoration="underline" textLength="345" x="423" y="2921.002">EnableDisableCandidateController</text><rect fill="#E2E2F0" height="37.2813" rx="2.5" ry="2.5" style="stroke:#181818;stroke-width:0.5;" width="268" x="785" y="50"/><text fill="#000000" font-family="sans-serif" font-size="20" lengthAdjust="spacing" text-decoration="underline" textLength="254" x="792" y="75.5645">CandidateUserRepository</text><rect fill="#E2E2F0" height="37.2813" rx="2.5" ry="2.5" style="stroke:#181818;stroke-width:0.5;" width="268" x="785" y="2895.4375"/><text fill="#000000" font-family="sans-serif" font-size="20" lengthAdjust="spacing" text-decoration="underline" textLength="254" x="792" y="2921.002">CandidateUserRepository</text><rect fill="#E2E2F0" height="37.2813" rx="2.5" ry="2.5" style="stroke:#181818;stroke-width:0.5;" width="299" x="1063" y="50"/><text fill="#000000" font-family="sans-serif" font-size="20" lengthAdjust="spacing" text-decoration="underline" textLength="285" x="1070" y="75.5645">JpaCandidateUserRepository</text><rect fill="#E2E2F0" height="37.2813" rx="2.5" ry="2.5" style="stroke:#181818;stroke-width:0.5;" width="299" x="1063" y="2895.4375"/><text fill="#000000" font-family="sans-serif" font-size="20" lengthAdjust="spacing" text-decoration="underline" textLength="285" x="1070" y="2921.002">JpaCandidateUserRepository</text><rect fill="#E2E2F0" height="37.2813" rx="2.5" ry="2.5" style="stroke:#181818;stroke-width:0.5;" width="162" x="1372" y="50"/><text fill="#000000" font-family="sans-serif" font-size="20" lengthAdjust="spacing" text-decoration="underline" textLength="148" x="1379" y="75.5645">CandidateUser</text><rect fill="#E2E2F0" height="37.2813" rx="2.5" ry="2.5" style="stroke:#181818;stroke-width:0.5;" width="162" x="1372" y="2895.4375"/><text fill="#000000" font-family="sans-serif" font-size="20" lengthAdjust="spacing" text-decoration="underline" textLength="148" x="1379" y="2921.002">CandidateUser</text><text fill="#000000" font-family="sans-serif" font-size="20" lengthAdjust="spacing" text-decoration="underline" textLength="122" x="1544" y="83.5645">H2Database</text><path d="M1590,29 C1590,19 1608,19 1608,19 C1608,19 1626,19 1626,29 L1626,55 C1626,65 1608,65 1608,65 C1608,65 1590,65 1590,55 L1590,29 " fill="#E2E2F0" style="stroke:#181818;stroke-width:1.5;"/><path d="M1590,29 C1590,39 1608,39 1608,39 C1608,39 1626,39 1626,29 " fill="none" style="stroke:#181818;stroke-width:1.5;"/><text fill="#000000" font-family="sans-serif" font-size="20" lengthAdjust="spacing" text-decoration="underline" textLength="122" x="1544" y="2914.002">H2Database</text><path d="M1590,2928.7188 C1590,2918.7188 1608,2918.7188 1608,2918.7188 C1608,2918.7188 1626,2918.7188 1626,2928.7188 L1626,2954.7188 C1626,2964.7188 1608,2964.7188 1608,2964.7188 C1608,2964.7188 1590,2964.7188 1590,2954.7188 L1590,2928.7188 " fill="#E2E2F0" style="stroke:#181818;stroke-width:1.5;"/><path d="M1590,2928.7188 C1590,2938.7188 1608,2938.7188 1608,2938.7188 C1608,2938.7188 1626,2938.7188 1626,2928.7188 " fill="none" style="stroke:#181818;stroke-width:1.5;"/><rect fill="#FFFFFF" height="2780.1563" style="stroke:#181818;stroke-width:1.0;" width="10" x="62.5" y="98.2813"/><rect fill="#FFFFFF" height="107.125" style="stroke:#181818;stroke-width:1.0;" width="10" x="260.5" y="174.125"/><rect fill="#FFFFFF" height="1310.6563" style="stroke:#181818;stroke-width:1.0;" width="10" x="260.5" y="341.8125"/><rect fill="#FFFFFF" height="1182.4063" style="stroke:#181818;stroke-width:1.0;" width="10" x="260.5" y="1705.0313"/><rect fill="#FFFFFF" height="1232.8125" style="stroke:#181818;stroke-width:1.0;" width="10" x="590.5" y="419.6563"/><rect fill="#FFFFFF" height="1060.2813" style="stroke:#181818;stroke-width:1.0;" width="10" x="590.5" y="1742.3125"/><rect fill="#FFFFFF" height="1195.5313" style="stroke:#181818;stroke-width:1.0;" width="10" x="914" y="456.9375"/><rect fill="#FFFFFF" height="999.7188" style="stroke:#181818;stroke-width:1.0;" width="10" x="914" y="1802.875"/><rect fill="#FFFFFF" height="1158.25" style="stroke:#181818;stroke-width:1.0;" width="10" x="1207.5" y="494.2188"/><rect fill="#FFFFFF" height="939.1563" style="stroke:#181818;stroke-width:1.0;" width="10" x="1207.5" y="1863.4375"/><rect fill="#FFFFFF" height="233.9688" style="stroke:#181818;stroke-width:1.0;" width="10" x="1448" y="2189.5313"/><polygon fill="#181818" points="248.5,170.125,258.5,174.125,248.5,178.125,252.5,174.125" style="stroke:#181818;stroke-width:1.0;"/><line style="stroke:#181818;stroke-width:1.0;" x1="72.5" x2="254.5" y1="174.125" y2="174.125"/><text fill="#000000" font-family="sans-serif" font-size="20" lengthAdjust="spacing" textLength="46" x="79.5" y="120.8457">Asks</text><text fill="#000000" font-family="sans-serif" font-size="20" lengthAdjust="spacing" textLength="6" x="125.5" y="120.8457"> </text><text fill="#000000" font-family="sans-serif" font-size="20" lengthAdjust="spacing" textLength="20" x="131.5" y="120.8457">to</text><text fill="#000000" font-family="sans-serif" font-size="20" lengthAdjust="spacing" textLength="6" x="151.5" y="120.8457"> </text><text fill="#000000" font-family="sans-serif" font-size="20" lengthAdjust="spacing" textLength="72" x="157.5" y="120.8457">disable</text><text fill="#000000" font-family="sans-serif" font-size="20" lengthAdjust="spacing" textLength="20" x="79.5" y="144.127">or</text><text fill="#000000" font-family="sans-serif" font-size="20" lengthAdjust="spacing" textLength="6" x="99.5" y="144.127"> </text><text fill="#000000" font-family="sans-serif" font-size="20" lengthAdjust="spacing" textLength="68" x="105.5" y="144.127">enable</text><text fill="#000000" font-family="sans-serif" font-size="20" lengthAdjust="spacing" textLength="6" x="173.5" y="144.127"> </text><text fill="#000000" font-family="sans-serif" font-size="20" lengthAdjust="spacing" textLength="12" x="179.5" y="144.127">a</text><text fill="#000000" font-family="sans-serif" font-size="20" lengthAdjust="spacing" textLength="100" x="79.5" y="167.4082">candidate</text><polygon fill="#181818" points="83.5,277.25,73.5,281.25,83.5,285.25,79.5,281.25" style="stroke:#181818;stroke-width:1.0;"/><line style="stroke:#181818;stroke-width:1.0;stroke-dasharray:2.0,2.0;" x1="77.5" x2="264.5" y1="281.25" y2="281.25"/><text fill="#000000" font-family="sans-serif" font-size="20" lengthAdjust="spacing" textLength="46" x="89.5" y="204.6895">Asks</text><text fill="#000000" font-family="sans-serif" font-size="20" lengthAdjust="spacing" textLength="6" x="135.5" y="204.6895"> </text><text fill="#000000" font-family="sans-serif" font-size="20" lengthAdjust="spacing" textLength="27" x="141.5" y="204.6895">for</text><text fill="#000000" font-family="sans-serif" font-size="20" lengthAdjust="spacing" textLength="6" x="168.5" y="204.6895"> </text><text fill="#000000" font-family="sans-serif" font-size="20" lengthAdjust="spacing" textLength="30" x="174.5" y="204.6895">list</text><text fill="#000000" font-family="sans-serif" font-size="20" lengthAdjust="spacing" textLength="108" x="89.5" y="227.9707">preference</text><text fill="#000000" font-family="sans-serif" font-size="20" lengthAdjust="spacing" textLength="68" x="89.5" y="251.252">(active</text><text fill="#000000" font-family="sans-serif" font-size="20" lengthAdjust="spacing" textLength="6" x="157.5" y="251.252"> </text><text fill="#000000" font-family="sans-serif" font-size="20" lengthAdjust="spacing" textLength="20" x="163.5" y="251.252">or</text><text fill="#000000" font-family="sans-serif" font-size="20" lengthAdjust="spacing" textLength="87" x="89.5" y="274.5332">inactive)</text><polygon fill="#181818" points="248.5,337.8125,258.5,341.8125,248.5,345.8125,252.5,341.8125" style="stroke:#181818;stroke-width:1.0;"/><line style="stroke:#181818;stroke-width:1.0;" x1="72.5" x2="254.5" y1="341.8125" y2="341.8125"/><text fill="#000000" font-family="sans-serif" font-size="20" lengthAdjust="spacing" textLength="84" x="79.5" y="311.8145">Provides</text><text fill="#000000" font-family="sans-serif" font-size="20" lengthAdjust="spacing" textLength="6" x="163.5" y="311.8145"> </text><text fill="#000000" font-family="sans-serif" font-size="20" lengthAdjust="spacing" textLength="30" x="169.5" y="311.8145">list</text><text fill="#000000" font-family="sans-serif" font-size="20" lengthAdjust="spacing" textLength="108" x="79.5" y="335.0957">preference</text><path d="M10,356.8125 L86,356.8125 L86,372.0938 L76,382.0938 L10,382.0938 L10,356.8125 " fill="#EEEEEE" style="stroke:#000000;stroke-width:1.5;"/><rect fill="none" height="1288.6563" style="stroke:#000000;stroke-width:1.5;" width="1672" x="10" y="356.8125"/><text fill="#000000" font-family="sans-serif" font-size="20" font-weight="bold" lengthAdjust="spacing" textLength="31" x="25" y="376.377">alt</text><text fill="#000000" font-family="sans-serif" font-size="20" font-weight="bold" lengthAdjust="spacing" textLength="244" x="101" y="377.377">[preference = active]</text><polygon fill="#181818" points="578.5,415.6563,588.5,419.6563,578.5,423.6563,582.5,419.6563" style="stroke:#181818;stroke-width:1.0;"/><line style="stroke:#181818;stroke-width:1.0;" x1="270.5" x2="584.5" y1="419.6563" y2="419.6563"/><text fill="#000000" font-family="sans-serif" font-size="20" lengthAdjust="spacing" textLength="224" x="277.5" y="412.9395">getActiveCandidates()</text><polygon fill="#181818" points="902,452.9375,912,456.9375,902,460.9375,906,456.9375" style="stroke:#181818;stroke-width:1.0;"/><line style="stroke:#181818;stroke-width:1.0;" x1="600.5" x2="908" y1="456.9375" y2="456.9375"/><text fill="#000000" font-family="sans-serif" font-size="20" lengthAdjust="spacing" textLength="117" x="607.5" y="450.2207">findActive()</text><polygon fill="#181818" points="1195.5,490.2188,1205.5,494.2188,1195.5,498.2188,1199.5,494.2188" style="stroke:#181818;stroke-width:1.0;"/><line style="stroke:#181818;stroke-width:1.0;" x1="924" x2="1201.5" y1="494.2188" y2="494.2188"/><text fill="#000000" font-family="sans-serif" font-size="20" lengthAdjust="spacing" textLength="117" x="931" y="487.502">findActive()</text><polygon fill="#181818" points="1596,667.1875,1606,671.1875,1596,675.1875,1600,671.1875" style="stroke:#181818;stroke-width:1.0;"/><line style="stroke:#181818;stroke-width:1.0;" x1="1217.5" x2="1602" y1="671.1875" y2="671.1875"/><text fill="#000000" font-family="sans-serif" font-size="20" lengthAdjust="spacing" textLength="217" x="1224.5" y="524.7832">createQuery("SELECT</text><text fill="#000000" font-family="sans-serif" font-size="20" lengthAdjust="spacing" textLength="13" x="1224.5" y="548.0645">u</text><text fill="#000000" font-family="sans-serif" font-size="20" lengthAdjust="spacing" textLength="6" x="1237.5" y="548.0645"> </text><text fill="#000000" font-family="sans-serif" font-size="20" lengthAdjust="spacing" textLength="59" x="1243.5" y="548.0645">FROM</text><text fill="#000000" font-family="sans-serif" font-size="20" lengthAdjust="spacing" textLength="205" x="1224.5" y="571.3457">T_CANDIDATE_USER</text><text fill="#000000" font-family="sans-serif" font-size="20" lengthAdjust="spacing" textLength="13" x="1224.5" y="594.627">u</text><text fill="#000000" font-family="sans-serif" font-size="20" lengthAdjust="spacing" textLength="6" x="1237.5" y="594.627"> </text><text fill="#000000" font-family="sans-serif" font-size="20" lengthAdjust="spacing" textLength="75" x="1243.5" y="594.627">WHERE</text><text fill="#000000" font-family="sans-serif" font-size="20" lengthAdjust="spacing" textLength="97" x="1224.5" y="617.9082">u.isActive</text><text fill="#000000" font-family="sans-serif" font-size="20" lengthAdjust="spacing" textLength="6" x="1321.5" y="617.9082"> </text><text fill="#000000" font-family="sans-serif" font-size="20" lengthAdjust="spacing" textLength="17" x="1327.5" y="617.9082">=</text><text fill="#000000" font-family="sans-serif" font-size="20" lengthAdjust="spacing" textLength="57" x="1224.5" y="641.1895">true",</text><text fill="#000000" font-family="sans-serif" font-size="20" lengthAdjust="spacing" textLength="108" x="1224.5" y="664.4707">User.class)</text><polygon fill="#181818" points="1228.5,727.75,1218.5,731.75,1228.5,735.75,1224.5,731.75" style="stroke:#181818;stroke-width:1.0;"/><line style="stroke:#181818;stroke-width:1.0;stroke-dasharray:2.0,2.0;" x1="1222.5" x2="1607" y1="731.75" y2="731.75"/><text fill="#000000" font-family="sans-serif" font-size="20" lengthAdjust="spacing" textLength="72" x="1234.5" y="701.752">returns</text><text fill="#000000" font-family="sans-serif" font-size="20" lengthAdjust="spacing" textLength="114" x="1234.5" y="725.0332">List&lt;User&gt;</text><polygon fill="#181818" points="935,788.3125,925,792.3125,935,796.3125,931,792.3125" style="stroke:#181818;stroke-width:1.0;"/><line style="stroke:#181818;stroke-width:1.0;stroke-dasharray:2.0,2.0;" x1="929" x2="1206.5" y1="792.3125" y2="792.3125"/><text fill="#000000" font-family="sans-serif" font-size="20" lengthAdjust="spacing" textLength="72" x="941" y="762.3145">returns</text><text fill="#000000" font-family="sans-serif" font-size="20" lengthAdjust="spacing" textLength="114" x="941" y="785.5957">List&lt;User&gt;</text><polygon fill="#181818" points="611.5,848.875,601.5,852.875,611.5,856.875,607.5,852.875" style="stroke:#181818;stroke-width:1.0;"/><line style="stroke:#181818;stroke-width:1.0;stroke-dasharray:2.0,2.0;" x1="605.5" x2="913" y1="852.875" y2="852.875"/><text fill="#000000" font-family="sans-serif" font-size="20" lengthAdjust="spacing" textLength="72" x="617.5" y="822.877">returns</text><text fill="#000000" font-family="sans-serif" font-size="20" lengthAdjust="spacing" textLength="114" x="617.5" y="846.1582">List&lt;User&gt;</text><polygon fill="#181818" points="281.5,909.4375,271.5,913.4375,281.5,917.4375,277.5,913.4375" style="stroke:#181818;stroke-width:1.0;"/><line style="stroke:#181818;stroke-width:1.0;stroke-dasharray:2.0,2.0;" x1="275.5" x2="589.5" y1="913.4375" y2="913.4375"/><text fill="#000000" font-family="sans-serif" font-size="20" lengthAdjust="spacing" textLength="62" x="287.5" y="883.4395">return</text><text fill="#000000" font-family="sans-serif" font-size="20" lengthAdjust="spacing" textLength="114" x="287.5" y="906.7207">List&lt;User&gt;</text><polygon fill="#181818" points="83.5,993.2813,73.5,997.2813,83.5,1001.2813,79.5,997.2813" style="stroke:#181818;stroke-width:1.0;"/><line style="stroke:#181818;stroke-width:1.0;stroke-dasharray:2.0,2.0;" x1="77.5" x2="259.5" y1="997.2813" y2="997.2813"/><text fill="#000000" font-family="sans-serif" font-size="20" lengthAdjust="spacing" textLength="84" x="89.5" y="944.002">Provides</text><text fill="#000000" font-family="sans-serif" font-size="20" lengthAdjust="spacing" textLength="6" x="173.5" y="944.002"> </text><text fill="#000000" font-family="sans-serif" font-size="20" lengthAdjust="spacing" textLength="12" x="179.5" y="944.002">a</text><text fill="#000000" font-family="sans-serif" font-size="20" lengthAdjust="spacing" textLength="6" x="191.5" y="944.002"> </text><text fill="#000000" font-family="sans-serif" font-size="20" lengthAdjust="spacing" textLength="30" x="197.5" y="944.002">list</text><text fill="#000000" font-family="sans-serif" font-size="20" lengthAdjust="spacing" textLength="19" x="89.5" y="967.2832">of</text><text fill="#000000" font-family="sans-serif" font-size="20" lengthAdjust="spacing" textLength="6" x="108.5" y="967.2832"> </text><text fill="#000000" font-family="sans-serif" font-size="20" lengthAdjust="spacing" textLength="60" x="114.5" y="967.2832">active</text><text fill="#000000" font-family="sans-serif" font-size="20" lengthAdjust="spacing" textLength="110" x="89.5" y="990.5645">candidates</text><line style="stroke:#000000;stroke-width:1.0;stroke-dasharray:2.0,2.0;" x1="10" x2="1682" y1="1006.2813" y2="1006.2813"/><text fill="#000000" font-family="sans-serif" font-size="20" font-weight="bold" lengthAdjust="spacing" textLength="265" x="15" y="1024.8457">[preference = inactive]</text><polygon fill="#181818" points="578.5,1055.8438,588.5,1059.8438,578.5,1063.8438,582.5,1059.8438" style="stroke:#181818;stroke-width:1.0;"/><line style="stroke:#181818;stroke-width:1.0;" x1="270.5" x2="584.5" y1="1059.8438" y2="1059.8438"/><text fill="#000000" font-family="sans-serif" font-size="20" lengthAdjust="spacing" textLength="241" x="277.5" y="1053.127">getInactiveCandidates()</text><polygon fill="#181818" points="902,1093.125,912,1097.125,902,1101.125,906,1097.125" style="stroke:#181818;stroke-width:1.0;"/><line style="stroke:#181818;stroke-width:1.0;" x1="600.5" x2="908" y1="1097.125" y2="1097.125"/><text fill="#000000" font-family="sans-serif" font-size="20" lengthAdjust="spacing" textLength="134" x="607.5" y="1090.4082">findInactive()</text><polygon fill="#181818" points="1195.5,1130.4063,1205.5,1134.4063,1195.5,1138.4063,1199.5,1134.4063" style="stroke:#181818;stroke-width:1.0;"/><line style="stroke:#181818;stroke-width:1.0;" x1="924" x2="1201.5" y1="1134.4063" y2="1134.4063"/><text fill="#000000" font-family="sans-serif" font-size="20" lengthAdjust="spacing" textLength="134" x="931" y="1127.6895">findInactive()</text><polygon fill="#181818" points="1596,1307.375,1606,1311.375,1596,1315.375,1600,1311.375" style="stroke:#181818;stroke-width:1.0;"/><line style="stroke:#181818;stroke-width:1.0;" x1="1217.5" x2="1602" y1="1311.375" y2="1311.375"/><text fill="#000000" font-family="sans-serif" font-size="20" lengthAdjust="spacing" textLength="217" x="1224.5" y="1164.9707">createQuery("SELECT</text><text fill="#000000" font-family="sans-serif" font-size="20" lengthAdjust="spacing" textLength="13" x="1224.5" y="1188.252">u</text><text fill="#000000" font-family="sans-serif" font-size="20" lengthAdjust="spacing" textLength="6" x="1237.5" y="1188.252"> </text><text fill="#000000" font-family="sans-serif" font-size="20" lengthAdjust="spacing" textLength="59" x="1243.5" y="1188.252">FROM</text><text fill="#000000" font-family="sans-serif" font-size="20" lengthAdjust="spacing" textLength="205" x="1224.5" y="1211.5332">T_CANDIDATE_USER</text><text fill="#000000" font-family="sans-serif" font-size="20" lengthAdjust="spacing" textLength="13" x="1224.5" y="1234.8145">u</text><text fill="#000000" font-family="sans-serif" font-size="20" lengthAdjust="spacing" textLength="6" x="1237.5" y="1234.8145"> </text><text fill="#000000" font-family="sans-serif" font-size="20" lengthAdjust="spacing" textLength="75" x="1243.5" y="1234.8145">WHERE</text><text fill="#000000" font-family="sans-serif" font-size="20" lengthAdjust="spacing" textLength="97" x="1224.5" y="1258.0957">u.isActive</text><text fill="#000000" font-family="sans-serif" font-size="20" lengthAdjust="spacing" textLength="6" x="1321.5" y="1258.0957"> </text><text fill="#000000" font-family="sans-serif" font-size="20" lengthAdjust="spacing" textLength="17" x="1327.5" y="1258.0957">=</text><text fill="#000000" font-family="sans-serif" font-size="20" lengthAdjust="spacing" textLength="63" x="1224.5" y="1281.377">false",</text><text fill="#000000" font-family="sans-serif" font-size="20" lengthAdjust="spacing" textLength="108" x="1224.5" y="1304.6582">User.class)</text><polygon fill="#181818" points="1228.5,1367.9375,1218.5,1371.9375,1228.5,1375.9375,1224.5,1371.9375" style="stroke:#181818;stroke-width:1.0;"/><line style="stroke:#181818;stroke-width:1.0;stroke-dasharray:2.0,2.0;" x1="1222.5" x2="1607" y1="1371.9375" y2="1371.9375"/><text fill="#000000" font-family="sans-serif" font-size="20" lengthAdjust="spacing" textLength="72" x="1234.5" y="1341.9395">returns</text><text fill="#000000" font-family="sans-serif" font-size="20" lengthAdjust="spacing" textLength="114" x="1234.5" y="1365.2207">List&lt;User&gt;</text><polygon fill="#181818" points="935,1428.5,925,1432.5,935,1436.5,931,1432.5" style="stroke:#181818;stroke-width:1.0;"/><line style="stroke:#181818;stroke-width:1.0;stroke-dasharray:2.0,2.0;" x1="929" x2="1206.5" y1="1432.5" y2="1432.5"/><text fill="#000000" font-family="sans-serif" font-size="20" lengthAdjust="spacing" textLength="72" x="941" y="1402.502">returns</text><text fill="#000000" font-family="sans-serif" font-size="20" lengthAdjust="spacing" textLength="114" x="941" y="1425.7832">List&lt;User&gt;</text><polygon fill="#181818" points="611.5,1489.0625,601.5,1493.0625,611.5,1497.0625,607.5,1493.0625" style="stroke:#181818;stroke-width:1.0;"/><line style="stroke:#181818;stroke-width:1.0;stroke-dasharray:2.0,2.0;" x1="605.5" x2="913" y1="1493.0625" y2="1493.0625"/><text fill="#000000" font-family="sans-serif" font-size="20" lengthAdjust="spacing" textLength="72" x="617.5" y="1463.0645">returns</text><text fill="#000000" font-family="sans-serif" font-size="20" lengthAdjust="spacing" textLength="114" x="617.5" y="1486.3457">List&lt;User&gt;</text><polygon fill="#181818" points="281.5,1549.625,271.5,1553.625,281.5,1557.625,277.5,1553.625" style="stroke:#181818;stroke-width:1.0;"/><line style="stroke:#181818;stroke-width:1.0;stroke-dasharray:2.0,2.0;" x1="275.5" x2="589.5" y1="1553.625" y2="1553.625"/><text fill="#000000" font-family="sans-serif" font-size="20" lengthAdjust="spacing" textLength="62" x="287.5" y="1523.627">return</text><text fill="#000000" font-family="sans-serif" font-size="20" lengthAdjust="spacing" textLength="114" x="287.5" y="1546.9082">List&lt;User&gt;</text><polygon fill="#181818" points="83.5,1633.4688,73.5,1637.4688,83.5,1641.4688,79.5,1637.4688" style="stroke:#181818;stroke-width:1.0;"/><line style="stroke:#181818;stroke-width:1.0;stroke-dasharray:2.0,2.0;" x1="77.5" x2="259.5" y1="1637.4688" y2="1637.4688"/><text fill="#000000" font-family="sans-serif" font-size="20" lengthAdjust="spacing" textLength="84" x="89.5" y="1584.1895">Provides</text><text fill="#000000" font-family="sans-serif" font-size="20" lengthAdjust="spacing" textLength="6" x="173.5" y="1584.1895"> </text><text fill="#000000" font-family="sans-serif" font-size="20" lengthAdjust="spacing" textLength="12" x="179.5" y="1584.1895">a</text><text fill="#000000" font-family="sans-serif" font-size="20" lengthAdjust="spacing" textLength="6" x="191.5" y="1584.1895"> </text><text fill="#000000" font-family="sans-serif" font-size="20" lengthAdjust="spacing" textLength="30" x="197.5" y="1584.1895">list</text><text fill="#000000" font-family="sans-serif" font-size="20" lengthAdjust="spacing" textLength="19" x="89.5" y="1607.4707">of</text><text fill="#000000" font-family="sans-serif" font-size="20" lengthAdjust="spacing" textLength="6" x="108.5" y="1607.4707"> </text><text fill="#000000" font-family="sans-serif" font-size="20" lengthAdjust="spacing" textLength="79" x="114.5" y="1607.4707">inactive</text><text fill="#000000" font-family="sans-serif" font-size="20" lengthAdjust="spacing" textLength="110" x="89.5" y="1630.752">candidates</text><polygon fill="#181818" points="248.5,1701.0313,258.5,1705.0313,248.5,1709.0313,252.5,1705.0313" style="stroke:#181818;stroke-width:1.0;"/><line style="stroke:#181818;stroke-width:1.0;" x1="72.5" x2="254.5" y1="1705.0313" y2="1705.0313"/><text fill="#000000" font-family="sans-serif" font-size="20" lengthAdjust="spacing" textLength="72" x="79.5" y="1675.0332">Selects</text><text fill="#000000" font-family="sans-serif" font-size="20" lengthAdjust="spacing" textLength="6" x="151.5" y="1675.0332"> </text><text fill="#000000" font-family="sans-serif" font-size="20" lengthAdjust="spacing" textLength="12" x="157.5" y="1675.0332">a</text><text fill="#000000" font-family="sans-serif" font-size="20" lengthAdjust="spacing" textLength="100" x="79.5" y="1698.3145">candidate</text><polygon fill="#181818" points="578.5,1738.3125,588.5,1742.3125,578.5,1746.3125,582.5,1742.3125" style="stroke:#181818;stroke-width:1.0;"/><line style="stroke:#181818;stroke-width:1.0;" x1="270.5" x2="584.5" y1="1742.3125" y2="1742.3125"/><text fill="#000000" font-family="sans-serif" font-size="20" lengthAdjust="spacing" textLength="290" x="277.5" y="1735.5957">toggleCandidateStatus(user)</text><polygon fill="#181818" points="902,1798.875,912,1802.875,902,1806.875,906,1802.875" style="stroke:#181818;stroke-width:1.0;"/><line style="stroke:#181818;stroke-width:1.0;" x1="600.5" x2="908" y1="1802.875" y2="1802.875"/><text fill="#000000" font-family="sans-serif" font-size="20" lengthAdjust="spacing" textLength="171" x="607.5" y="1772.877">findByEmail(new</text><text fill="#000000" font-family="sans-serif" font-size="20" lengthAdjust="spacing" textLength="123" x="607.5" y="1796.1582">email(user))</text><polygon fill="#181818" points="1195.5,1859.4375,1205.5,1863.4375,1195.5,1867.4375,1199.5,1863.4375" style="stroke:#181818;stroke-width:1.0;"/><line style="stroke:#181818;stroke-width:1.0;" x1="924" x2="1201.5" y1="1863.4375" y2="1863.4375"/><text fill="#000000" font-family="sans-serif" font-size="20" lengthAdjust="spacing" textLength="171" x="931" y="1833.4395">findByEmail(new</text><text fill="#000000" font-family="sans-serif" font-size="20" lengthAdjust="spacing" textLength="123" x="931" y="1856.7207">email(user))</text><polygon fill="#181818" points="1596,2036.4063,1606,2040.4063,1596,2044.4063,1600,2040.4063" style="stroke:#181818;stroke-width:1.0;"/><line style="stroke:#181818;stroke-width:1.0;" x1="1217.5" x2="1602" y1="2040.4063" y2="2040.4063"/><text fill="#000000" font-family="sans-serif" font-size="20" lengthAdjust="spacing" textLength="217" x="1224.5" y="1894.002">createQuery("SELECT</text><text fill="#000000" font-family="sans-serif" font-size="20" lengthAdjust="spacing" textLength="13" x="1224.5" y="1917.2832">u</text><text fill="#000000" font-family="sans-serif" font-size="20" lengthAdjust="spacing" textLength="6" x="1237.5" y="1917.2832"> </text><text fill="#000000" font-family="sans-serif" font-size="20" lengthAdjust="spacing" textLength="59" x="1243.5" y="1917.2832">FROM</text><text fill="#000000" font-family="sans-serif" font-size="20" lengthAdjust="spacing" textLength="205" x="1224.5" y="1940.5645">T_CANDIDATE_USER</text><text fill="#000000" font-family="sans-serif" font-size="20" lengthAdjust="spacing" textLength="13" x="1224.5" y="1963.8457">u</text><text fill="#000000" font-family="sans-serif" font-size="20" lengthAdjust="spacing" textLength="6" x="1237.5" y="1963.8457"> </text><text fill="#000000" font-family="sans-serif" font-size="20" lengthAdjust="spacing" textLength="75" x="1243.5" y="1963.8457">WHERE</text><text fill="#000000" font-family="sans-serif" font-size="20" lengthAdjust="spacing" textLength="75" x="1224.5" y="1987.127">u.email</text><text fill="#000000" font-family="sans-serif" font-size="20" lengthAdjust="spacing" textLength="6" x="1299.5" y="1987.127"> </text><text fill="#000000" font-family="sans-serif" font-size="20" lengthAdjust="spacing" textLength="17" x="1305.5" y="1987.127">=</text><text fill="#000000" font-family="sans-serif" font-size="20" lengthAdjust="spacing" textLength="77" x="1224.5" y="2010.4082">:value",</text><text fill="#000000" font-family="sans-serif" font-size="20" lengthAdjust="spacing" textLength="108" x="1224.5" y="2033.6895">User.class)</text><polygon fill="#181818" points="1228.5,2073.6875,1218.5,2077.6875,1228.5,2081.6875,1224.5,2077.6875" style="stroke:#181818;stroke-width:1.0;"/><line style="stroke:#181818;stroke-width:1.0;stroke-dasharray:2.0,2.0;" x1="1222.5" x2="1607" y1="2077.6875" y2="2077.6875"/><text fill="#000000" font-family="sans-serif" font-size="20" lengthAdjust="spacing" textLength="72" x="1234.5" y="2070.9707">returns</text><text fill="#000000" font-family="sans-serif" font-size="20" lengthAdjust="spacing" textLength="6" x="1306.5" y="2070.9707"> </text><text fill="#000000" font-family="sans-serif" font-size="20" lengthAdjust="spacing" textLength="45" x="1312.5" y="2070.9707">User</text><polygon fill="#181818" points="935,2110.9688,925,2114.9688,935,2118.9688,931,2114.9688" style="stroke:#181818;stroke-width:1.0;"/><line style="stroke:#181818;stroke-width:1.0;stroke-dasharray:2.0,2.0;" x1="929" x2="1206.5" y1="2114.9688" y2="2114.9688"/><text fill="#000000" font-family="sans-serif" font-size="20" lengthAdjust="spacing" textLength="72" x="941" y="2108.252">returns</text><text fill="#000000" font-family="sans-serif" font-size="20" lengthAdjust="spacing" textLength="6" x="1013" y="2108.252"> </text><text fill="#000000" font-family="sans-serif" font-size="20" lengthAdjust="spacing" textLength="45" x="1019" y="2108.252">User</text><polygon fill="#181818" points="611.5,2148.25,601.5,2152.25,611.5,2156.25,607.5,2152.25" style="stroke:#181818;stroke-width:1.0;"/><line style="stroke:#181818;stroke-width:1.0;stroke-dasharray:2.0,2.0;" x1="605.5" x2="913" y1="2152.25" y2="2152.25"/><text fill="#000000" font-family="sans-serif" font-size="20" lengthAdjust="spacing" textLength="72" x="617.5" y="2145.5332">returns</text><text fill="#000000" font-family="sans-serif" font-size="20" lengthAdjust="spacing" textLength="6" x="689.5" y="2145.5332"> </text><text fill="#000000" font-family="sans-serif" font-size="20" lengthAdjust="spacing" textLength="45" x="695.5" y="2145.5332">User</text><polygon fill="#181818" points="1436,2185.5313,1446,2189.5313,1436,2193.5313,1440,2189.5313" style="stroke:#181818;stroke-width:1.0;"/><line style="stroke:#181818;stroke-width:1.0;" x1="600.5" x2="1442" y1="2189.5313" y2="2189.5313"/><text fill="#000000" font-family="sans-serif" font-size="20" lengthAdjust="spacing" textLength="144" x="607.5" y="2182.8145">toggleStatus()</text><path d="M1362,2204.5313 L1438,2204.5313 L1438,2219.8125 L1428,2229.8125 L1362,2229.8125 L1362,2204.5313 " fill="#EEEEEE" style="stroke:#000000;stroke-width:1.5;"/><rect fill="none" height="159.4063" style="stroke:#000000;stroke-width:1.5;" width="343" x="1362" y="2204.5313"/><text fill="#000000" font-family="sans-serif" font-size="20" font-weight="bold" lengthAdjust="spacing" textLength="31" x="1377" y="2224.0957">alt</text><text fill="#000000" font-family="sans-serif" font-size="20" font-weight="bold" lengthAdjust="spacing" textLength="247" x="1453" y="2225.0957">[User.isActive = true]</text><line style="stroke:#181818;stroke-width:1.0;" x1="1458" x2="1500" y1="2267.375" y2="2267.375"/><line style="stroke:#181818;stroke-width:1.0;" x1="1500" x2="1500" y1="2267.375" y2="2280.375"/><line style="stroke:#181818;stroke-width:1.0;" x1="1459" x2="1500" y1="2280.375" y2="2280.375"/><polygon fill="#181818" points="1469,2276.375,1459,2280.375,1469,2284.375,1465,2280.375" style="stroke:#181818;stroke-width:1.0;"/><text fill="#000000" font-family="sans-serif" font-size="20" lengthAdjust="spacing" textLength="88" x="1465" y="2260.6582">disable()</text><line style="stroke:#000000;stroke-width:1.0;stroke-dasharray:2.0,2.0;" x1="1362" x2="1705" y1="2289.375" y2="2289.375"/><text fill="#000000" font-family="sans-serif" font-size="20" font-weight="bold" lengthAdjust="spacing" textLength="255" x="1367" y="2307.9395">[User.isActive = false]</text><line style="stroke:#181818;stroke-width:1.0;" x1="1458" x2="1500" y1="2342.9375" y2="2342.9375"/><line style="stroke:#181818;stroke-width:1.0;" x1="1500" x2="1500" y1="2342.9375" y2="2355.9375"/><line style="stroke:#181818;stroke-width:1.0;" x1="1459" x2="1500" y1="2355.9375" y2="2355.9375"/><polygon fill="#181818" points="1469,2351.9375,1459,2355.9375,1469,2359.9375,1465,2355.9375" style="stroke:#181818;stroke-width:1.0;"/><text fill="#000000" font-family="sans-serif" font-size="20" lengthAdjust="spacing" textLength="84" x="1465" y="2336.2207">enable()</text><polygon fill="#181818" points="611.5,2419.5,601.5,2423.5,611.5,2427.5,607.5,2423.5" style="stroke:#181818;stroke-width:1.0;"/><line style="stroke:#181818;stroke-width:1.0;stroke-dasharray:2.0,2.0;" x1="605.5" x2="1452" y1="2423.5" y2="2423.5"/><text fill="#000000" font-family="sans-serif" font-size="20" lengthAdjust="spacing" textLength="72" x="617.5" y="2393.502">returns</text><text fill="#000000" font-family="sans-serif" font-size="20" lengthAdjust="spacing" textLength="80" x="617.5" y="2416.7832">boolean</text><path d="M115,2438.5 L191,2438.5 L191,2453.7813 L181,2463.7813 L115,2463.7813 L115,2438.5 " fill="#EEEEEE" style="stroke:#000000;stroke-width:1.5;"/><rect fill="none" height="357.0938" style="stroke:#000000;stroke-width:1.5;" width="1567" x="115" y="2438.5"/><text fill="#000000" font-family="sans-serif" font-size="20" font-weight="bold" lengthAdjust="spacing" textLength="31" x="130" y="2458.0645">alt</text><text fill="#000000" font-family="sans-serif" font-size="20" font-weight="bold" lengthAdjust="spacing" textLength="188" x="206" y="2459.0645">[boolean = true]</text><polygon fill="#181818" points="902,2497.3438,912,2501.3438,902,2505.3438,906,2501.3438" style="stroke:#181818;stroke-width:1.0;"/><line style="stroke:#181818;stroke-width:1.0;" x1="600.5" x2="908" y1="2501.3438" y2="2501.3438"/><text fill="#000000" font-family="sans-serif" font-size="20" lengthAdjust="spacing" textLength="106" x="607.5" y="2494.627">save(User)</text><polygon fill="#181818" points="1195.5,2534.625,1205.5,2538.625,1195.5,2542.625,1199.5,2538.625" style="stroke:#181818;stroke-width:1.0;"/><line style="stroke:#181818;stroke-width:1.0;" x1="924" x2="1201.5" y1="2538.625" y2="2538.625"/><text fill="#000000" font-family="sans-serif" font-size="20" lengthAdjust="spacing" textLength="106" x="931" y="2531.9082">save(User)</text><polygon fill="#181818" points="1596,2571.9063,1606,2575.9063,1596,2579.9063,1600,2575.9063" style="stroke:#181818;stroke-width:1.0;"/><line style="stroke:#181818;stroke-width:1.0;" x1="1217.5" x2="1602" y1="2575.9063" y2="2575.9063"/><text fill="#000000" font-family="sans-serif" font-size="20" lengthAdjust="spacing" textLength="126" x="1224.5" y="2569.1895">merge(User)</text><polygon fill="#181818" points="1228.5,2609.1875,1218.5,2613.1875,1228.5,2617.1875,1224.5,2613.1875" style="stroke:#181818;stroke-width:1.0;"/><line style="stroke:#181818;stroke-width:1.0;stroke-dasharray:2.0,2.0;" x1="1222.5" x2="1607" y1="2613.1875" y2="2613.1875"/><text fill="#000000" font-family="sans-serif" font-size="20" lengthAdjust="spacing" textLength="72" x="1234.5" y="2606.4707">returns</text><text fill="#000000" font-family="sans-serif" font-size="20" lengthAdjust="spacing" textLength="6" x="1306.5" y="2606.4707"> </text><text fill="#000000" font-family="sans-serif" font-size="20" lengthAdjust="spacing" textLength="45" x="1312.5" y="2606.4707">User</text><polygon fill="#181818" points="935,2646.4688,925,2650.4688,935,2654.4688,931,2650.4688" style="stroke:#181818;stroke-width:1.0;"/><line style="stroke:#181818;stroke-width:1.0;stroke-dasharray:2.0,2.0;" x1="929" x2="1206.5" y1="2650.4688" y2="2650.4688"/><text fill="#000000" font-family="sans-serif" font-size="20" lengthAdjust="spacing" textLength="72" x="941" y="2643.752">returns</text><text fill="#000000" font-family="sans-serif" font-size="20" lengthAdjust="spacing" textLength="6" x="1013" y="2643.752"> </text><text fill="#000000" font-family="sans-serif" font-size="20" lengthAdjust="spacing" textLength="45" x="1019" y="2643.752">User</text><polygon fill="#181818" points="611.5,2683.75,601.5,2687.75,611.5,2691.75,607.5,2687.75" style="stroke:#181818;stroke-width:1.0;"/><line style="stroke:#181818;stroke-width:1.0;stroke-dasharray:2.0,2.0;" x1="605.5" x2="913" y1="2687.75" y2="2687.75"/><text fill="#000000" font-family="sans-serif" font-size="20" lengthAdjust="spacing" textLength="72" x="617.5" y="2681.0332">returns</text><text fill="#000000" font-family="sans-serif" font-size="20" lengthAdjust="spacing" textLength="6" x="689.5" y="2681.0332"> </text><text fill="#000000" font-family="sans-serif" font-size="20" lengthAdjust="spacing" textLength="45" x="695.5" y="2681.0332">User</text><polygon fill="#181818" points="281.5,2721.0313,271.5,2725.0313,281.5,2729.0313,277.5,2725.0313" style="stroke:#181818;stroke-width:1.0;"/><line style="stroke:#181818;stroke-width:1.0;stroke-dasharray:2.0,2.0;" x1="275.5" x2="589.5" y1="2725.0313" y2="2725.0313"/><text fill="#000000" font-family="sans-serif" font-size="20" lengthAdjust="spacing" textLength="62" x="287.5" y="2718.3145">return</text><text fill="#000000" font-family="sans-serif" font-size="20" lengthAdjust="spacing" textLength="6" x="349.5" y="2718.3145"> </text><text fill="#000000" font-family="sans-serif" font-size="20" lengthAdjust="spacing" textLength="41" x="355.5" y="2718.3145">true</text><line style="stroke:#000000;stroke-width:1.0;stroke-dasharray:2.0,2.0;" x1="115" x2="1682" y1="2734.0313" y2="2734.0313"/><text fill="#000000" font-family="sans-serif" font-size="20" font-weight="bold" lengthAdjust="spacing" textLength="196" x="120" y="2752.5957">[boolean = false]</text><polygon fill="#181818" points="281.5,2783.5938,271.5,2787.5938,281.5,2791.5938,277.5,2787.5938" style="stroke:#181818;stroke-width:1.0;"/><line style="stroke:#181818;stroke-width:1.0;stroke-dasharray:2.0,2.0;" x1="275.5" x2="589.5" y1="2787.5938" y2="2787.5938"/><text fill="#000000" font-family="sans-serif" font-size="20" lengthAdjust="spacing" textLength="62" x="287.5" y="2780.877">return</text><text fill="#000000" font-family="sans-serif" font-size="20" lengthAdjust="spacing" textLength="6" x="349.5" y="2780.877"> </text><text fill="#000000" font-family="sans-serif" font-size="20" lengthAdjust="spacing" textLength="47" x="355.5" y="2780.877">false</text><polygon fill="#181818" points="78.5,2874.4375,68.5,2878.4375,78.5,2882.4375,74.5,2878.4375" style="stroke:#181818;stroke-width:1.0;"/><line style="stroke:#181818;stroke-width:1.0;stroke-dasharray:2.0,2.0;" x1="72.5" x2="259.5" y1="2878.4375" y2="2878.4375"/><text fill="#000000" font-family="sans-serif" font-size="20" lengthAdjust="spacing" textLength="76" x="84.5" y="2825.1582">Informs</text><text fill="#000000" font-family="sans-serif" font-size="20" lengthAdjust="spacing" textLength="77" x="84.5" y="2848.4395">success</text><text fill="#000000" font-family="sans-serif" font-size="20" lengthAdjust="spacing" textLength="6" x="161.5" y="2848.4395"> </text><text fill="#000000" font-family="sans-serif" font-size="20" lengthAdjust="spacing" textLength="20" x="167.5" y="2848.4395">or</text><text fill="#000000" font-family="sans-serif" font-size="20" lengthAdjust="spacing" textLength="64" x="84.5" y="2871.7207">failure</text><!--SRC=[rLPDRzim3BtxLn0vfS1QR0LsARO0gUEYARebSshiMAWsambrP4-IksM_VXJjEBBpWMBePRrKCj-ZI3vIYdcMgXHQhFCYVSOCCboAAhStXR8B-GVXydrWjX38fKAxAH4ARNyKdc4jVg_H6B52uqWVFleiWpyhL2dEXROobQLG5YgLeNRkWa2ajj0mc9Me1Qq680pCva5GUl11fCHJZXDftBzGg4ncmc8oPNGoVGquf9HqaUTO7n5sEJkV1dMCPM4a1RDXQDo5tfNY9FfkFZxXkuuueAru4WPXS7ivQTPicbnpIUGBuLqTPdCu7r6AS0LZysp05f3LcP4AW9mg24YtP-p8L1QYdHERV3Ji9N5oQIoK6fUedImmP0QxawfUdmKP-dxyAEQwU94PchwVpi4Yxnpn6Mg_0T2V2se48RbQeHtpzxP2PdZ6cDPNoDlGCM9YBANAQaeV6FCsPY0fS1hh96AuGn9ZSatuL2CPlrMeDyF18hgFmWUeu2QUVO67nt3yTJATZ1-YnsGHnVJz-sqKHr1TI5EVGJbQNU7W7JYLBz9S65CVIyxFTr5fj9LM1kwfUfySTEH5qcHv3CE0y3WWP02hL2Fw0ByVMXr5hMInR4JQzP89CASMxGYvRP5zAQUDPK_CZdfRL6Fh2zOtlwb0Iq7f_DSARQlVqKXb_hY6_YRkR5pR7n_i1UQOMdFoCgcJiyLgvTsi2ojiPOOL9N4MU75qTB_UH6iXyw72Nu2yOhn7Y8D-Cxo2ur9wWoPXxzGXLoyYtnlYm-tX4C71fgWjUwt0dxacILl3fdHUHWdVdNnyxsfn_P5iwSqRG4mUqJwUExr3g5yAXwTsIVQ2UogA78Ngj0T7qXYy65fPZQ0vJLZrtYJtBBu-QzGhptQYjiTchZKUhl31AUFOkLAxVDeQ7S3Njd-VhCxBErNqxAuDc2fDwLUIUsYNr6wLHfypc_y5]--></g></svg>