<?xml version="1.0" encoding="UTF-8" standalone="no"?><svg xmlns="http://www.w3.org/2000/svg" xmlns:xlink="http://www.w3.org/1999/xlink" contentStyleType="text/css" height="812px" preserveAspectRatio="none" style="width:839px;height:812px;background:#FFFFFF;" version="1.1" viewBox="0 0 839 812" width="839px" zoomAndPan="magnify"><defs/><g><text fill="#000000" font-family="sans-serif" font-size="14" font-weight="bold" lengthAdjust="spacing" textLength="675" x="83.75" y="27.9951">System Sequence Diagram (SSD) - Setup the phases of the process for a job opening</text><rect fill="#FFFFFF" height="580.0625" style="stroke:#181818;stroke-width:1.0;" width="10" x="133" y="135.5781"/><rect fill="#FFFFFF" height="98.8438" style="stroke:#181818;stroke-width:1.0;" width="10" x="751" y="164.8594"/><rect fill="#FFFFFF" height="405.6563" style="stroke:#181818;stroke-width:1.0;" width="10" x="751" y="300.9844"/><rect fill="none" height="354.375" style="stroke:#000000;stroke-width:1.5;" width="823.5" x="10" y="315.9844"/><rect fill="none" height="306.8125" style="stroke:#000000;stroke-width:1.5;" width="803.5" x="20" y="356.5469"/><rect fill="none" height="108.125" style="stroke:#000000;stroke-width:1.5;" width="783.5" x="30" y="471.6719"/><line style="stroke:#181818;stroke-width:0.5;stroke-dasharray:5.0,5.0;" x1="138" x2="138" y1="125.5781" y2="724.6406"/><line style="stroke:#181818;stroke-width:0.5;stroke-dasharray:5.0,5.0;" x1="755.5" x2="755.5" y1="125.5781" y2="724.6406"/><text fill="#000000" font-family="sans-serif" font-size="20" lengthAdjust="spacing" textLength="190" x="40" y="120.8613">Customer Manager</text><ellipse cx="138" cy="50.7969" fill="#E3E3E3" rx="8" ry="8" style="stroke:#181818;stroke-width:0.5;"/><path d="M138,58.7969 L138,85.7969 M125,66.7969 L151,66.7969 M138,85.7969 L125,100.7969 M138,85.7969 L151,100.7969 " fill="none" style="stroke:#181818;stroke-width:0.5;"/><text fill="#000000" font-family="sans-serif" font-size="20" lengthAdjust="spacing" textLength="190" x="40" y="742.2051">Customer Manager</text><ellipse cx="138" cy="755.4219" fill="#E3E3E3" rx="8" ry="8" style="stroke:#181818;stroke-width:0.5;"/><path d="M138,763.4219 L138,790.4219 M125,771.4219 L151,771.4219 M138,790.4219 L125,805.4219 M138,790.4219 L151,805.4219 " fill="none" style="stroke:#181818;stroke-width:0.5;"/><rect fill="#E3E3E3" height="37.2813" rx="2.5" ry="2.5" style="stroke:#181818;stroke-width:0.5;" width="95" x="708.5" y="87.2969"/><text fill="#000000" font-family="sans-serif" font-size="20" lengthAdjust="spacing" textLength="81" x="715.5" y="112.8613">:System</text><rect fill="#E3E3E3" height="37.2813" rx="2.5" ry="2.5" style="stroke:#181818;stroke-width:0.5;" width="95" x="708.5" y="723.6406"/><text fill="#000000" font-family="sans-serif" font-size="20" lengthAdjust="spacing" textLength="81" x="715.5" y="749.2051">:System</text><rect fill="#FFFFFF" height="580.0625" style="stroke:#181818;stroke-width:1.0;" width="10" x="133" y="135.5781"/><rect fill="#FFFFFF" height="98.8438" style="stroke:#181818;stroke-width:1.0;" width="10" x="751" y="164.8594"/><rect fill="#FFFFFF" height="405.6563" style="stroke:#181818;stroke-width:1.0;" width="10" x="751" y="300.9844"/><polygon fill="#181818" points="739,160.8594,749,164.8594,739,168.8594,743,164.8594" style="stroke:#181818;stroke-width:1.0;"/><line style="stroke:#181818;stroke-width:1.0;" x1="143" x2="745" y1="164.8594" y2="164.8594"/><text fill="#000000" font-family="sans-serif" font-size="20" font-weight="bold" lengthAdjust="spacing" textLength="14" x="150" y="158.1426">1</text><text fill="#000000" font-family="sans-serif" font-size="20" lengthAdjust="spacing" textLength="571" x="168" y="158.1426">Asks to setup the phases of the process for a job opening</text><rect fill="none" height="56.5625" style="stroke:#000000;stroke-width:1.5;" width="769.5" x="37" y="172.8594"/><path d="M37,172.8594 L115,172.8594 L115,187.8594 L105,197.8594 L37,197.8594 L37,172.8594 " fill="#EEEEEE" style="stroke:#000000;stroke-width:2.0;"/><text fill="#000000" font-family="sans-serif" font-size="20" font-weight="bold" lengthAdjust="spacing" textLength="33" x="50" y="193.4238">ref</text><text fill="#000000" font-family="sans-serif" font-size="20" lengthAdjust="spacing" textLength="283" x="280.25" y="220.4238">US1003 ➡️ List Job Openings</text><polygon fill="#181818" points="154,259.7031,144,263.7031,154,267.7031,150,263.7031" style="stroke:#181818;stroke-width:1.0;"/><line style="stroke:#181818;stroke-width:1.0;stroke-dasharray:2.0,2.0;" x1="148" x2="755" y1="263.7031" y2="263.7031"/><text fill="#000000" font-family="sans-serif" font-size="20" font-weight="bold" lengthAdjust="spacing" textLength="14" x="160" y="256.9863">2</text><text fill="#000000" font-family="sans-serif" font-size="20" lengthAdjust="spacing" textLength="489" x="178" y="256.9863">Shows list of job openings and asks to select one</text><polygon fill="#181818" points="739,296.9844,749,300.9844,739,304.9844,743,300.9844" style="stroke:#181818;stroke-width:1.0;"/><line style="stroke:#181818;stroke-width:1.0;" x1="143" x2="745" y1="300.9844" y2="300.9844"/><text fill="#000000" font-family="sans-serif" font-size="20" font-weight="bold" lengthAdjust="spacing" textLength="14" x="150" y="294.2676">3</text><text fill="#000000" font-family="sans-serif" font-size="20" lengthAdjust="spacing" textLength="400" x="168" y="294.2676">Selects job opening to setup the phases</text><path d="M10,315.9844 L104,315.9844 L104,331.2656 L94,341.2656 L10,341.2656 L10,315.9844 " fill="#EEEEEE" style="stroke:#000000;stroke-width:1.5;"/><rect fill="none" height="354.375" style="stroke:#000000;stroke-width:1.5;" width="823.5" x="10" y="315.9844"/><text fill="#000000" font-family="sans-serif" font-size="20" font-weight="bold" lengthAdjust="spacing" textLength="49" x="25" y="335.5488">loop</text><text fill="#000000" font-family="sans-serif" font-size="20" font-weight="bold" lengthAdjust="spacing" textLength="187" x="119" y="336.5488">[for each phase]</text><path d="M20,356.5469 L96,356.5469 L96,371.8281 L86,381.8281 L20,381.8281 L20,356.5469 " fill="#EEEEEE" style="stroke:#000000;stroke-width:1.5;"/><rect fill="none" height="306.8125" style="stroke:#000000;stroke-width:1.5;" width="803.5" x="20" y="356.5469"/><text fill="#000000" font-family="sans-serif" font-size="20" font-weight="bold" lengthAdjust="spacing" textLength="31" x="35" y="376.1113">alt</text><text fill="#000000" font-family="sans-serif" font-size="20" font-weight="bold" lengthAdjust="spacing" textLength="246" x="111" y="377.1113">[phase is "Interview"]</text><polygon fill="#181818" points="154,415.3906,144,419.3906,154,423.3906,150,419.3906" style="stroke:#181818;stroke-width:1.0;"/><line style="stroke:#181818;stroke-width:1.0;stroke-dasharray:2.0,2.0;" x1="148" x2="750" y1="419.3906" y2="419.3906"/><text fill="#000000" font-family="sans-serif" font-size="20" font-weight="bold" lengthAdjust="spacing" textLength="14" x="160" y="412.6738">4</text><text fill="#000000" font-family="sans-serif" font-size="20" lengthAdjust="spacing" textLength="372" x="178" y="412.6738">Asks if the interview phase is needed</text><polygon fill="#181818" points="739,452.6719,749,456.6719,739,460.6719,743,456.6719" style="stroke:#181818;stroke-width:1.0;"/><line style="stroke:#181818;stroke-width:1.0;" x1="143" x2="745" y1="456.6719" y2="456.6719"/><text fill="#000000" font-family="sans-serif" font-size="20" font-weight="bold" lengthAdjust="spacing" textLength="14" x="150" y="449.9551">5</text><text fill="#000000" font-family="sans-serif" font-size="20" lengthAdjust="spacing" textLength="150" x="168" y="449.9551">Responds (y/n)</text><path d="M30,471.6719 L106,471.6719 L106,486.9531 L96,496.9531 L30,496.9531 L30,471.6719 " fill="#EEEEEE" style="stroke:#000000;stroke-width:1.5;"/><rect fill="none" height="108.125" style="stroke:#000000;stroke-width:1.5;" width="783.5" x="30" y="471.6719"/><text fill="#000000" font-family="sans-serif" font-size="20" font-weight="bold" lengthAdjust="spacing" textLength="31" x="45" y="491.2363">alt</text><text fill="#000000" font-family="sans-serif" font-size="20" font-weight="bold" lengthAdjust="spacing" textLength="188" x="121" y="492.2363">[response is "y"]</text><polygon fill="#181818" points="154,530.5156,144,534.5156,154,538.5156,150,534.5156" style="stroke:#181818;stroke-width:1.0;"/><line style="stroke:#181818;stroke-width:1.0;stroke-dasharray:2.0,2.0;" x1="148" x2="750" y1="534.5156" y2="534.5156"/><text fill="#000000" font-family="sans-serif" font-size="20" font-weight="bold" lengthAdjust="spacing" textLength="14" x="160" y="527.7988">6</text><text fill="#000000" font-family="sans-serif" font-size="20" lengthAdjust="spacing" textLength="477" x="178" y="527.7988">Asks for information (initial date and final date)</text><polygon fill="#181818" points="739,567.7969,749,571.7969,739,575.7969,743,571.7969" style="stroke:#181818;stroke-width:1.0;"/><line style="stroke:#181818;stroke-width:1.0;" x1="143" x2="745" y1="571.7969" y2="571.7969"/><text fill="#000000" font-family="sans-serif" font-size="20" font-weight="bold" lengthAdjust="spacing" textLength="14" x="150" y="565.0801">7</text><text fill="#000000" font-family="sans-serif" font-size="20" lengthAdjust="spacing" textLength="207" x="168" y="565.0801">Provides information</text><line style="stroke:#000000;stroke-width:1.0;stroke-dasharray:2.0,2.0;" x1="20" x2="823.5" y1="587.7969" y2="587.7969"/><polygon fill="#181818" points="154,614.0781,144,618.0781,154,622.0781,150,618.0781" style="stroke:#181818;stroke-width:1.0;"/><line style="stroke:#181818;stroke-width:1.0;stroke-dasharray:2.0,2.0;" x1="148" x2="750" y1="618.0781" y2="618.0781"/><text fill="#000000" font-family="sans-serif" font-size="20" font-weight="bold" lengthAdjust="spacing" textLength="14" x="160" y="611.3613">8</text><text fill="#000000" font-family="sans-serif" font-size="20" lengthAdjust="spacing" textLength="477" x="178" y="611.3613">Asks for information (initial date and final date)</text><polygon fill="#181818" points="739,651.3594,749,655.3594,739,659.3594,743,655.3594" style="stroke:#181818;stroke-width:1.0;"/><line style="stroke:#181818;stroke-width:1.0;" x1="143" x2="745" y1="655.3594" y2="655.3594"/><text fill="#000000" font-family="sans-serif" font-size="20" font-weight="bold" lengthAdjust="spacing" textLength="14" x="150" y="648.6426">9</text><text fill="#000000" font-family="sans-serif" font-size="20" lengthAdjust="spacing" textLength="207" x="168" y="648.6426">Provides information</text><polygon fill="#181818" points="154,702.6406,144,706.6406,154,710.6406,150,706.6406" style="stroke:#181818;stroke-width:1.0;"/><line style="stroke:#181818;stroke-width:1.0;stroke-dasharray:2.0,2.0;" x1="148" x2="755" y1="706.6406" y2="706.6406"/><text fill="#000000" font-family="sans-serif" font-size="20" font-weight="bold" lengthAdjust="spacing" textLength="28" x="160" y="699.9238">10</text><text fill="#000000" font-family="sans-serif" font-size="20" lengthAdjust="spacing" textLength="255" x="192" y="699.9238">Informs success or failure</text><!--SRC=[jPDTZjD03CVVSmghJwr4HO6tVK12h90MWK147C2RE8tfn1F6Jgjo2Mw0n2qu3nVW2amcIRTig_8X4IdHZCV- -sTxeXkM5WCspXSRAg6a2ZjdBxnOpfy87gyodLoWyUABElY6m497HoSj5XjSKsvxHn2eC9IrEtRG6ak_Orb3XKufoumjkkPxDMeWfuyTIK5mpRZktUTvVhs0PJomhWMh2TeQbHHyDUo2BqWLAXy0uOE_1T-IHFaimywyTCqjXRWkB3hCddTg4Jh0QvH86MQ02fDnj6MHqxZW5iLWTZM09STXcSHuYqOdaTaz0ooVJeLTmJFTA9W7_UjA3lb608XFe0hyDgOOR0_kiyI4x_D7gzKJ-Fxbwuzld-4Lgy7BgFfcKDKaCz8j8-YfG5xxdOBh0oFZ4P42IXaxCXNaufp12sKbdMEzr9Ky1Ukn-hacdVGWSzwtgLSnPJrufMJeRDW1Aynkn2XicNQpTFZRajEGU1W8Jx5tUa9KKdcGkbJOEzBMIwamtp-KnI6anmlfQ2JStv7z6LrVCqlyDcZi1UOiR8mEohuz_M0gbd6x-4Nx4kxRuBTSnjju97q89Xbg9ZSs-N-I_XDbJzY_sKMgcnIbe5sHVhN8Lo6xBfoxkJy1]--></g></svg>