<?xml version="1.0" encoding="UTF-8" standalone="no"?><svg xmlns="http://www.w3.org/2000/svg" xmlns:xlink="http://www.w3.org/1999/xlink" contentStyleType="text/css" height="605px" preserveAspectRatio="none" style="width:3910px;height:605px;background:#FFFFFF;" version="1.1" viewBox="0 0 3910 605" width="3910px" zoomAndPan="magnify"><defs/><g><text fill="#000000" font-family="sans-serif" font-size="14" font-weight="bold" lengthAdjust="spacing" textLength="187" x="1854.5" y="22.9951">Domain Model - US1000</text><!--cluster <<aggregate>> Job Opening--><g id="cluster_&lt;&lt;aggregate&gt;&gt; Job Opening"><path d="M1723.5,237.5137 L2011.5,237.5137 A3.75,3.75 0 0 1 2014,240.0137 L2021,266.7949 L3390.5,266.7949 A2.5,2.5 0 0 1 3393,269.2949 L3393,515.0137 A2.5,2.5 0 0 1 3390.5,517.5137 L1723.5,517.5137 A2.5,2.5 0 0 1 1721,515.0137 L1721,240.0137 A2.5,2.5 0 0 1 1723.5,237.5137 " fill="#EBF5FB" style="stroke:#000000;stroke-width:1.5;"/><line style="stroke:#000000;stroke-width:1.5;" x1="1721" x2="2021" y1="266.7949" y2="266.7949"/><text fill="#000000" font-family="sans-serif" font-size="20" font-weight="bold" lengthAdjust="spacing" textLength="287" x="1725" y="258.0781">«aggregate» Job Opening</text></g><!--cluster <<aggregate>> Application--><g id="cluster_&lt;&lt;aggregate&gt;&gt; Application"><path d="M8.5,44.5137 L288.5,44.5137 A3.75,3.75 0 0 1 291,47.0137 L298,73.7949 L1548.5,73.7949 A2.5,2.5 0 0 1 1551,76.2949 L1551,361.5137 A2.5,2.5 0 0 1 1548.5,364.0137 L8.5,364.0137 A2.5,2.5 0 0 1 6,361.5137 L6,47.0137 A2.5,2.5 0 0 1 8.5,44.5137 " fill="#EBF5FB" style="stroke:#000000;stroke-width:1.5;"/><line style="stroke:#000000;stroke-width:1.5;" x1="6" x2="298" y1="73.7949" y2="73.7949"/><text fill="#000000" font-family="sans-serif" font-size="20" font-weight="bold" lengthAdjust="spacing" textLength="279" x="10" y="65.0781">«aggregate» Application</text></g><!--class JobOpening--><g id="elem_JobOpening"><rect codeLine="16" fill="#FDEBD0" height="79.8438" id="JobOpening" rx="2.5" ry="2.5" style="stroke:#181818;stroke-width:0.5;" width="151" x="2637.5" y="279.5137"/><ellipse cx="2653.5" cy="319.4355" fill="#ADD1B2" rx="12" ry="12" style="stroke:#181818;stroke-width:1.0;"/><path d="M2658.2188,326.9355 L2649.1406,326.9355 L2649.1406,312.3574 L2658.2188,312.3574 L2658.2188,314.8887 L2652.0156,314.8887 L2652.0156,318.0449 L2657.6406,318.0449 L2657.6406,320.5762 L2652.0156,320.5762 L2652.0156,324.3887 L2658.2188,324.3887 L2658.2188,326.9355 Z " fill="#000000"/><text fill="#000000" font-family="sans-serif" font-size="20" font-style="italic" lengthAdjust="spacing" textLength="83" x="2685.5" y="303.0781">«entity»</text><text fill="#000000" font-family="sans-serif" font-size="20" font-style="italic" lengthAdjust="spacing" textLength="64" x="2695" y="326.3594">«root»</text><text fill="#000000" font-family="sans-serif" font-size="20" lengthAdjust="spacing" textLength="117" x="2668.5" y="349.6406">JobOpening</text></g><!--class JobReference--><g id="elem_JobReference"><rect codeLine="18" fill="#D6EAF8" height="56.5625" id="JobReference" rx="2.5" ry="2.5" style="stroke:#181818;stroke-width:0.5;" width="175" x="1737.5" y="444.5137"/><ellipse cx="1753.5" cy="472.7949" fill="#FF8B40" rx="12" ry="12" style="stroke:#181818;stroke-width:1.0;"/><path d="M1753.5156,478.6387 L1756.0781,466.4668 L1758.9844,466.4668 L1755.5156,481.0449 L1751.5313,481.0449 L1748.0625,466.4668 L1750.9531,466.4668 L1753.5156,478.6387 Z " fill="#000000"/><text fill="#000000" font-family="sans-serif" font-size="20" font-style="italic" lengthAdjust="spacing" textLength="145" x="1766.5" y="468.0781">«valueObject»</text><text fill="#000000" font-family="sans-serif" font-size="20" lengthAdjust="spacing" textLength="132" x="1773" y="491.3594">JobReference</text></g><!--class TitleOrFunction--><g id="elem_TitleOrFunction"><rect codeLine="19" fill="#D6EAF8" height="56.5625" id="TitleOrFunction" rx="2.5" ry="2.5" style="stroke:#181818;stroke-width:0.5;" width="190" x="1948" y="444.5137"/><ellipse cx="1964" cy="472.7949" fill="#FF8B40" rx="12" ry="12" style="stroke:#181818;stroke-width:1.0;"/><path d="M1964.0156,478.6387 L1966.5781,466.4668 L1969.4844,466.4668 L1966.0156,481.0449 L1962.0313,481.0449 L1958.5625,466.4668 L1961.4531,466.4668 L1964.0156,478.6387 Z " fill="#000000"/><text fill="#000000" font-family="sans-serif" font-size="20" font-style="italic" lengthAdjust="spacing" textLength="145" x="1984.5" y="468.0781">«valueObject»</text><text fill="#000000" font-family="sans-serif" font-size="20" lengthAdjust="spacing" textLength="156" x="1979" y="491.3594">TitleOrFunction</text></g><!--class ContractType--><g id="elem_ContractType"><rect codeLine="20" fill="#D6EAF8" height="56.5625" id="ContractType" rx="2.5" ry="2.5" style="stroke:#181818;stroke-width:0.5;" width="175" x="2173.5" y="444.5137"/><ellipse cx="2189.5" cy="472.7949" fill="#FF8B40" rx="12" ry="12" style="stroke:#181818;stroke-width:1.0;"/><path d="M2189.5156,478.6387 L2192.0781,466.4668 L2194.9844,466.4668 L2191.5156,481.0449 L2187.5313,481.0449 L2184.0625,466.4668 L2186.9531,466.4668 L2189.5156,478.6387 Z " fill="#000000"/><text fill="#000000" font-family="sans-serif" font-size="20" font-style="italic" lengthAdjust="spacing" textLength="145" x="2202.5" y="468.0781">«valueObject»</text><text fill="#000000" font-family="sans-serif" font-size="20" lengthAdjust="spacing" textLength="134" x="2208" y="491.3594">ContractType</text></g><!--class Mode--><g id="elem_Mode"><rect codeLine="21" fill="#D6EAF8" height="56.5625" id="Mode" rx="2.5" ry="2.5" style="stroke:#181818;stroke-width:0.5;" width="175" x="2383.5" y="444.5137"/><ellipse cx="2399.5" cy="472.7949" fill="#FF8B40" rx="12" ry="12" style="stroke:#181818;stroke-width:1.0;"/><path d="M2399.5156,478.6387 L2402.0781,466.4668 L2404.9844,466.4668 L2401.5156,481.0449 L2397.5313,481.0449 L2394.0625,466.4668 L2396.9531,466.4668 L2399.5156,478.6387 Z " fill="#000000"/><text fill="#000000" font-family="sans-serif" font-size="20" font-style="italic" lengthAdjust="spacing" textLength="145" x="2412.5" y="468.0781">«valueObject»</text><text fill="#000000" font-family="sans-serif" font-size="20" lengthAdjust="spacing" textLength="54" x="2458" y="491.3594">Mode</text></g><!--class NumberOfVacancies--><g id="elem_NumberOfVacancies"><rect codeLine="22" fill="#D6EAF8" height="56.5625" id="NumberOfVacancies" rx="2.5" ry="2.5" style="stroke:#181818;stroke-width:0.5;" width="239" x="2593.5" y="444.5137"/><ellipse cx="2609.5" cy="472.7949" fill="#FF8B40" rx="12" ry="12" style="stroke:#181818;stroke-width:1.0;"/><path d="M2609.5156,478.6387 L2612.0781,466.4668 L2614.9844,466.4668 L2611.5156,481.0449 L2607.5313,481.0449 L2604.0625,466.4668 L2606.9531,466.4668 L2609.5156,478.6387 Z " fill="#000000"/><text fill="#000000" font-family="sans-serif" font-size="20" font-style="italic" lengthAdjust="spacing" textLength="145" x="2654.5" y="468.0781">«valueObject»</text><text fill="#000000" font-family="sans-serif" font-size="20" lengthAdjust="spacing" textLength="205" x="2624.5" y="491.3594">NumberOfVacancies</text></g><!--class JobDescription--><g id="elem_JobDescription"><rect codeLine="23" fill="#D6EAF8" height="56.5625" id="JobDescription" rx="2.5" ry="2.5" style="stroke:#181818;stroke-width:0.5;" width="179" x="2867.5" y="444.5137"/><ellipse cx="2883.5" cy="472.7949" fill="#FF8B40" rx="12" ry="12" style="stroke:#181818;stroke-width:1.0;"/><path d="M2883.5156,478.6387 L2886.0781,466.4668 L2888.9844,466.4668 L2885.5156,481.0449 L2881.5313,481.0449 L2878.0625,466.4668 L2880.9531,466.4668 L2883.5156,478.6387 Z " fill="#000000"/><text fill="#000000" font-family="sans-serif" font-size="20" font-style="italic" lengthAdjust="spacing" textLength="145" x="2898.5" y="468.0781">«valueObject»</text><text fill="#000000" font-family="sans-serif" font-size="20" lengthAdjust="spacing" textLength="145" x="2898.5" y="491.3594">JobDescription</text></g><!--class RequirementSpecification--><g id="elem_RequirementSpecification"><rect codeLine="24" fill="#FEF9E7" height="56.5625" id="RequirementSpecification" rx="2.5" ry="2.5" style="stroke:#181818;stroke-width:0.5;" width="295" x="3081.5" y="444.5137"/><ellipse cx="3097.5" cy="472.7949" fill="#ADD1B2" rx="12" ry="12" style="stroke:#181818;stroke-width:1.0;"/><path d="M3102.2188,480.2949 L3093.1406,480.2949 L3093.1406,465.7168 L3102.2188,465.7168 L3102.2188,468.248 L3096.0156,468.248 L3096.0156,471.4043 L3101.6406,471.4043 L3101.6406,473.9355 L3096.0156,473.9355 L3096.0156,477.748 L3102.2188,477.748 L3102.2188,480.2949 Z " fill="#000000"/><text fill="#000000" font-family="sans-serif" font-size="20" font-style="italic" lengthAdjust="spacing" textLength="83" x="3201.5" y="468.0781">«entity»</text><text fill="#000000" font-family="sans-serif" font-size="20" lengthAdjust="spacing" textLength="261" x="3112.5" y="491.3594">RequirementSpecification</text></g><!--class Application--><g id="elem_Application"><rect codeLine="30" fill="#FDEBD0" height="79.8438" id="Application" rx="2.5" ry="2.5" style="stroke:#181818;stroke-width:0.5;" width="148" x="22" y="86.5137"/><ellipse cx="38" cy="126.4355" fill="#ADD1B2" rx="12" ry="12" style="stroke:#181818;stroke-width:1.0;"/><path d="M42.7188,133.9355 L33.6406,133.9355 L33.6406,119.3574 L42.7188,119.3574 L42.7188,121.8887 L36.5156,121.8887 L36.5156,125.0449 L42.1406,125.0449 L42.1406,127.5762 L36.5156,127.5762 L36.5156,131.3887 L42.7188,131.3887 L42.7188,133.9355 Z " fill="#000000"/><text fill="#000000" font-family="sans-serif" font-size="20" font-style="italic" lengthAdjust="spacing" textLength="83" x="68.5" y="110.0781">«entity»</text><text fill="#000000" font-family="sans-serif" font-size="20" font-style="italic" lengthAdjust="spacing" textLength="64" x="78" y="133.3594">«root»</text><text fill="#000000" font-family="sans-serif" font-size="20" lengthAdjust="spacing" textLength="114" x="53" y="156.6406">Application</text></g><!--class Result--><g id="elem_Result"><rect codeLine="31" fill="#FEF9E7" height="56.5625" id="Result" rx="2.5" ry="2.5" style="stroke:#181818;stroke-width:0.5;" width="113" x="22.5" y="291.0137"/><ellipse cx="38.5" cy="319.2949" fill="#ADD1B2" rx="12" ry="12" style="stroke:#181818;stroke-width:1.0;"/><path d="M43.2188,326.7949 L34.1406,326.7949 L34.1406,312.2168 L43.2188,312.2168 L43.2188,314.748 L37.0156,314.748 L37.0156,317.9043 L42.6406,317.9043 L42.6406,320.4355 L37.0156,320.4355 L37.0156,324.248 L43.2188,324.248 L43.2188,326.7949 Z " fill="#000000"/><text fill="#000000" font-family="sans-serif" font-size="20" font-style="italic" lengthAdjust="spacing" textLength="83" x="51.5" y="314.5781">«entity»</text><text fill="#000000" font-family="sans-serif" font-size="20" lengthAdjust="spacing" textLength="63" x="61.5" y="337.8594">Result</text></g><!--class ApplicationDate--><g id="elem_ApplicationDate"><rect codeLine="33" fill="#D6EAF8" height="56.5625" id="ApplicationDate" rx="2.5" ry="2.5" style="stroke:#181818;stroke-width:0.5;" width="195" x="170.5" y="291.0137"/><ellipse cx="186.5" cy="319.2949" fill="#FF8B40" rx="12" ry="12" style="stroke:#181818;stroke-width:1.0;"/><path d="M186.5156,325.1387 L189.0781,312.9668 L191.9844,312.9668 L188.5156,327.5449 L184.5313,327.5449 L181.0625,312.9668 L183.9531,312.9668 L186.5156,325.1387 Z " fill="#000000"/><text fill="#000000" font-family="sans-serif" font-size="20" font-style="italic" lengthAdjust="spacing" textLength="145" x="209.5" y="314.5781">«valueObject»</text><text fill="#000000" font-family="sans-serif" font-size="20" lengthAdjust="spacing" textLength="161" x="201.5" y="337.8594">ApplicationDate</text></g><!--class ApplicationNumber--><g id="elem_ApplicationNumber"><rect codeLine="34" fill="#D6EAF8" height="56.5625" id="ApplicationNumber" rx="2.5" ry="2.5" style="stroke:#181818;stroke-width:0.5;" width="229" x="400.5" y="291.0137"/><ellipse cx="416.5" cy="319.2949" fill="#FF8B40" rx="12" ry="12" style="stroke:#181818;stroke-width:1.0;"/><path d="M416.5156,325.1387 L419.0781,312.9668 L421.9844,312.9668 L418.5156,327.5449 L414.5313,327.5449 L411.0625,312.9668 L413.9531,312.9668 L416.5156,325.1387 Z " fill="#000000"/><text fill="#000000" font-family="sans-serif" font-size="20" font-style="italic" lengthAdjust="spacing" textLength="145" x="456.5" y="314.5781">«valueObject»</text><text fill="#000000" font-family="sans-serif" font-size="20" lengthAdjust="spacing" textLength="195" x="431.5" y="337.8594">ApplicationNumber</text></g><!--class Outcome--><g id="elem_Outcome"><rect codeLine="35" fill="#D6EAF8" height="56.5625" id="Outcome" rx="2.5" ry="2.5" style="stroke:#181818;stroke-width:0.5;" width="175" x="916.5" y="98.0137"/><ellipse cx="932.5" cy="126.2949" fill="#FF8B40" rx="12" ry="12" style="stroke:#181818;stroke-width:1.0;"/><path d="M932.5156,132.1387 L935.0781,119.9668 L937.9844,119.9668 L934.5156,134.5449 L930.5313,134.5449 L927.0625,119.9668 L929.9531,119.9668 L932.5156,132.1387 Z " fill="#000000"/><text fill="#000000" font-family="sans-serif" font-size="20" font-style="italic" lengthAdjust="spacing" textLength="145" x="945.5" y="121.5781">«valueObject»</text><text fill="#000000" font-family="sans-serif" font-size="20" lengthAdjust="spacing" textLength="92" x="972" y="144.8594">Outcome</text></g><!--class Justification--><g id="elem_Justification"><rect codeLine="36" fill="#D6EAF8" height="56.5625" id="Justification" rx="2.5" ry="2.5" style="stroke:#181818;stroke-width:0.5;" width="175" x="706.5" y="98.0137"/><ellipse cx="722.5" cy="126.2949" fill="#FF8B40" rx="12" ry="12" style="stroke:#181818;stroke-width:1.0;"/><path d="M722.5156,132.1387 L725.0781,119.9668 L727.9844,119.9668 L724.5156,134.5449 L720.5313,134.5449 L717.0625,119.9668 L719.9531,119.9668 L722.5156,132.1387 Z " fill="#000000"/><text fill="#000000" font-family="sans-serif" font-size="20" font-style="italic" lengthAdjust="spacing" textLength="145" x="735.5" y="121.5781">«valueObject»</text><text fill="#000000" font-family="sans-serif" font-size="20" lengthAdjust="spacing" textLength="118" x="749" y="144.8594">Justification</text></g><g id="elem_GMN18"><path d="M1127,110.0137 L1127,122.5137 L1091.82,126.5137 L1127,130.5137 L1127,143.2949 A0,0 0 0 0 1127,143.2949 L1535,143.2949 A0,0 0 0 0 1535,143.2949 L1535,120.0137 L1525,110.0137 L1127,110.0137 A0,0 0 0 0 1127,110.0137 " fill="#FEFFDD" style="stroke:#181818;stroke-width:0.5;"/><path d="M1525,110.0137 L1525,120.0137 L1535,120.0137 L1525,110.0137 " fill="#FEFFDD" style="stroke:#181818;stroke-width:0.5;"/><text fill="#000000" font-family="sans-serif" font-size="20" lengthAdjust="spacing" textLength="387" x="1133" y="133.5781">Outcome can be Approved or Rejected</text></g><g id="elem_GMN21"><path d="M205,110.0137 L205,143.2949 A0,0 0 0 0 205,143.2949 L671,143.2949 A0,0 0 0 0 671,143.2949 L671,130.5137 L706.27,126.5137 L671,122.5137 L671,120.0137 L661,110.0137 L205,110.0137 A0,0 0 0 0 205,110.0137 " fill="#FEFFDD" style="stroke:#181818;stroke-width:0.5;"/><path d="M661,110.0137 L661,120.0137 L671,120.0137 L661,110.0137 " fill="#FEFFDD" style="stroke:#181818;stroke-width:0.5;"/><text fill="#000000" font-family="sans-serif" font-size="20" lengthAdjust="spacing" textLength="445" x="211" y="133.5781">Rejected outcomes must have a justification</text></g><!--class Address--><g id="elem_Address"><rect fill="#FEF9E7" height="34" id="Address" rx="2.5" ry="2.5" style="stroke:#181818;stroke-width:0.5;" width="114" x="3412" y="456.0137"/><ellipse cx="3428" cy="473.0137" fill="#ADD1B2" rx="12" ry="12" style="stroke:#181818;stroke-width:1.0;"/><path d="M3431.0625,480.0918 Q3430.375,480.4512 3429.625,480.623 Q3428.875,480.7949 3428.0469,480.7949 Q3425.0938,480.7949 3423.5313,478.8574 Q3421.9844,476.9043 3421.9844,473.2324 Q3421.9844,469.5605 3423.5313,467.623 Q3425.0938,465.6699 3428.0469,465.6699 Q3428.875,465.6699 3429.625,465.8418 Q3430.3906,466.0137 3431.0625,466.373 L3431.0625,469.5762 Q3430.3125,468.8887 3429.6094,468.5762 Q3428.9219,468.2637 3428.1719,468.2637 Q3426.5938,468.2637 3425.7813,469.5137 Q3424.9844,470.7637 3424.9844,473.2324 Q3424.9844,475.7012 3425.7813,476.9512 Q3426.5938,478.2012 3428.1719,478.2012 Q3428.9219,478.2012 3429.6094,477.8887 Q3430.3125,477.5762 3431.0625,476.8887 L3431.0625,480.0918 Z " fill="#000000"/><text fill="#000000" font-family="sans-serif" font-size="20" lengthAdjust="spacing" textLength="80" x="3443" y="479.9375">Address</text></g><!--class CompanyName--><g id="elem_CompanyName"><rect fill="#FEF9E7" height="34" id="CompanyName" rx="2.5" ry="2.5" style="stroke:#181818;stroke-width:0.5;" width="188" x="3561" y="456.0137"/><ellipse cx="3577" cy="473.0137" fill="#ADD1B2" rx="12" ry="12" style="stroke:#181818;stroke-width:1.0;"/><path d="M3580.0625,480.0918 Q3579.375,480.4512 3578.625,480.623 Q3577.875,480.7949 3577.0469,480.7949 Q3574.0938,480.7949 3572.5313,478.8574 Q3570.9844,476.9043 3570.9844,473.2324 Q3570.9844,469.5605 3572.5313,467.623 Q3574.0938,465.6699 3577.0469,465.6699 Q3577.875,465.6699 3578.625,465.8418 Q3579.3906,466.0137 3580.0625,466.373 L3580.0625,469.5762 Q3579.3125,468.8887 3578.6094,468.5762 Q3577.9219,468.2637 3577.1719,468.2637 Q3575.5938,468.2637 3574.7813,469.5137 Q3573.9844,470.7637 3573.9844,473.2324 Q3573.9844,475.7012 3574.7813,476.9512 Q3575.5938,478.2012 3577.1719,478.2012 Q3577.9219,478.2012 3578.6094,477.8887 Q3579.3125,477.5762 3580.0625,476.8887 L3580.0625,480.0918 Z " fill="#000000"/><text fill="#000000" font-family="sans-serif" font-size="20" lengthAdjust="spacing" textLength="154" x="3592" y="479.9375">CompanyName</text></g><!--class Interview--><g id="elem_Interview"><rect fill="#FEF9E7" height="34" id="Interview" rx="2.5" ry="2.5" style="stroke:#181818;stroke-width:0.5;" width="127" x="3755.5" y="564.5137"/><ellipse cx="3771.5" cy="581.5137" fill="#ADD1B2" rx="12" ry="12" style="stroke:#181818;stroke-width:1.0;"/><path d="M3774.5625,588.5918 Q3773.875,588.9512 3773.125,589.123 Q3772.375,589.2949 3771.5469,589.2949 Q3768.5938,589.2949 3767.0313,587.3574 Q3765.4844,585.4043 3765.4844,581.7324 Q3765.4844,578.0605 3767.0313,576.123 Q3768.5938,574.1699 3771.5469,574.1699 Q3772.375,574.1699 3773.125,574.3418 Q3773.8906,574.5137 3774.5625,574.873 L3774.5625,578.0762 Q3773.8125,577.3887 3773.1094,577.0762 Q3772.4219,576.7637 3771.6719,576.7637 Q3770.0938,576.7637 3769.2813,578.0137 Q3768.4844,579.2637 3768.4844,581.7324 Q3768.4844,584.2012 3769.2813,585.4512 Q3770.0938,586.7012 3771.6719,586.7012 Q3772.4219,586.7012 3773.1094,586.3887 Q3773.8125,586.0762 3774.5625,585.3887 L3774.5625,588.5918 Z " fill="#000000"/><text fill="#000000" font-family="sans-serif" font-size="20" lengthAdjust="spacing" textLength="93" x="3786.5" y="588.4375">Interview</text></g><!--class Candidate--><g id="elem_Candidate"><rect fill="#FEF9E7" height="34" id="Candidate" rx="2.5" ry="2.5" style="stroke:#181818;stroke-width:0.5;" width="137" x="1567.5" y="302.5137"/><ellipse cx="1583.5" cy="319.5137" fill="#ADD1B2" rx="12" ry="12" style="stroke:#181818;stroke-width:1.0;"/><path d="M1586.5625,326.5918 Q1585.875,326.9512 1585.125,327.123 Q1584.375,327.2949 1583.5469,327.2949 Q1580.5938,327.2949 1579.0313,325.3574 Q1577.4844,323.4043 1577.4844,319.7324 Q1577.4844,316.0605 1579.0313,314.123 Q1580.5938,312.1699 1583.5469,312.1699 Q1584.375,312.1699 1585.125,312.3418 Q1585.8906,312.5137 1586.5625,312.873 L1586.5625,316.0762 Q1585.8125,315.3887 1585.1094,315.0762 Q1584.4219,314.7637 1583.6719,314.7637 Q1582.0938,314.7637 1581.2813,316.0137 Q1580.4844,317.2637 1580.4844,319.7324 Q1580.4844,322.2012 1581.2813,323.4512 Q1582.0938,324.7012 1583.6719,324.7012 Q1584.4219,324.7012 1585.1094,324.3887 Q1585.8125,324.0762 1586.5625,323.3887 L1586.5625,326.5918 Z " fill="#000000"/><text fill="#000000" font-family="sans-serif" font-size="20" lengthAdjust="spacing" textLength="103" x="1598.5" y="326.4375">Candidate</text></g><!--link JobOpening to JobReference--><g id="link_JobOpening_JobReference"><path codeLine="42" d="M2637.41,329.4737 C2497.07,346.7837 2187.11,388.1337 1930,444.5137 C1925.9,445.4137 1921.72,446.3637 1917.5,447.3537 " fill="none" id="JobOpening-to-JobReference" style="stroke:#000000;stroke-width:1.0;"/><polygon fill="#000000" points="1912.53,448.5237,1922.212,450.329,1917.3939,447.3649,1920.358,442.5468,1912.53,448.5237" style="stroke:#000000;stroke-width:1.0;"/><text fill="#000000" font-family="sans-serif" font-size="20" lengthAdjust="spacing" textLength="35" x="2210" y="409.0781">has</text><text fill="#000000" font-family="sans-serif" font-size="20" lengthAdjust="spacing" textLength="13" x="2616.5858" y="324.9122">1</text><text fill="#000000" font-family="sans-serif" font-size="20" lengthAdjust="spacing" textLength="13" x="1920.6107" y="441.0261">1</text></g><!--link JobOpening to TitleOrFunction--><g id="link_JobOpening_TitleOrFunction"><path codeLine="43" d="M2637.28,336.1437 C2571.56,349.8337 2473.87,370.4637 2389,389.5137 C2285.18,412.8137 2259.47,419.7137 2156,444.5137 C2151.84,445.5137 2147.59,446.5337 2143.3,447.5637 " fill="none" id="JobOpening-to-TitleOrFunction" style="stroke:#000000;stroke-width:1.0;"/><polygon fill="#000000" points="2138.24,448.7837,2147.927,450.5621,2143.1006,447.6114,2146.0513,442.7851,2138.24,448.7837" style="stroke:#000000;stroke-width:1.0;"/><text fill="#000000" font-family="sans-serif" font-size="20" lengthAdjust="spacing" textLength="35" x="2390" y="409.0781">has</text><text fill="#000000" font-family="sans-serif" font-size="20" lengthAdjust="spacing" textLength="13" x="2616.4434" y="357.4101">1</text><text fill="#000000" font-family="sans-serif" font-size="20" lengthAdjust="spacing" textLength="13" x="2146.0295" y="441.6401">1</text></g><!--link JobOpening to ContractType--><g id="link_JobOpening_ContractType"><path codeLine="44" d="M2637.35,345.8737 C2557.63,372.5937 2432.25,414.6137 2348.38,442.7237 " fill="none" id="JobOpening-to-ContractType" style="stroke:#000000;stroke-width:1.0;"/><polygon fill="#000000" points="2343.41,444.3937,2353.2139,445.3335,2348.152,442.8082,2350.6772,437.7463,2343.41,444.3937" style="stroke:#000000;stroke-width:1.0;"/><text fill="#000000" font-family="sans-serif" font-size="20" lengthAdjust="spacing" textLength="35" x="2502" y="409.0781">has</text><text fill="#000000" font-family="sans-serif" font-size="20" lengthAdjust="spacing" textLength="13" x="2616.5201" y="368.0675">1</text><text fill="#000000" font-family="sans-serif" font-size="20" lengthAdjust="spacing" textLength="13" x="2346.0664" y="431.7575">1</text></g><!--link JobOpening to Mode--><g id="link_JobOpening_Mode"><path codeLine="45" d="M2650.68,359.5337 C2609.9,385.0537 2557.4,417.9237 2519.69,441.5337 " fill="none" id="JobOpening-to-Mode" style="stroke:#000000;stroke-width:1.0;"/><polygon fill="#000000" points="2515.16,444.3637,2524.9086,442.962,2519.3936,441.7034,2520.6522,436.1883,2515.16,444.3637" style="stroke:#000000;stroke-width:1.0;"/><text fill="#000000" font-family="sans-serif" font-size="20" lengthAdjust="spacing" textLength="35" x="2601" y="409.0781">has</text><text fill="#000000" font-family="sans-serif" font-size="20" lengthAdjust="spacing" textLength="13" x="2627.1419" y="386.0206">1</text><text fill="#000000" font-family="sans-serif" font-size="20" lengthAdjust="spacing" textLength="13" x="2509.9274" y="431.7213">1</text></g><!--link JobOpening to Address--><g id="link_JobOpening_Address"><path codeLine="46" d="M2788.62,330.1037 C2915.14,347.0737 3177.08,386.2037 3393,444.5137 C3403.01,447.2137 3413.58,450.6537 3423.54,454.1737 " fill="none" id="JobOpening-to-Address" style="stroke:#000000;stroke-width:1.0;"/><polygon fill="#000000" points="3428.38,455.9037,3421.2588,449.1001,3423.6736,454.2156,3418.558,456.6304,3428.38,455.9037" style="stroke:#000000;stroke-width:1.0;"/><text fill="#000000" font-family="sans-serif" font-size="20" lengthAdjust="spacing" textLength="35" x="3266" y="409.0781">has</text><text fill="#000000" font-family="sans-serif" font-size="20" lengthAdjust="spacing" textLength="13" x="2796.4471" y="350.7944">1</text><text fill="#000000" font-family="sans-serif" font-size="20" lengthAdjust="spacing" textLength="13" x="3402.1275" y="443.4611">1</text></g><!--link JobOpening to CompanyName--><g id="link_JobOpening_CompanyName"><path codeLine="47" d="M2788.8,326.4237 C2902.57,335.9237 3123.99,356.9237 3310,389.5137 C3414.81,407.8737 3439.56,419.6037 3543,444.5137 C3556.61,447.7937 3571.14,451.3337 3585.07,454.7437 " fill="none" id="JobOpening-to-CompanyName" style="stroke:#000000;stroke-width:1.0;"/><polygon fill="#000000" points="3590.17,455.9937,3582.3754,449.9734,3585.3126,454.8079,3580.4781,457.7452,3590.17,455.9937" style="stroke:#000000;stroke-width:1.0;"/><text fill="#000000" font-family="sans-serif" font-size="20" lengthAdjust="spacing" textLength="35" x="3425" y="409.0781">has</text><text fill="#000000" font-family="sans-serif" font-size="20" lengthAdjust="spacing" textLength="13" x="2796.387" y="321.5852">1</text><text fill="#000000" font-family="sans-serif" font-size="20" lengthAdjust="spacing" textLength="13" x="3556.2168" y="443.2217">1</text></g><!--link JobOpening to NumberOfVacancies--><g id="link_JobOpening_NumberOfVacancies"><path codeLine="48" d="M2713,359.5337 C2713,384.1437 2713,415.5837 2713,438.9737 " fill="none" id="JobOpening-to-NumberOfVacancies" style="stroke:#000000;stroke-width:1.0;"/><polygon fill="#000000" points="2713,444.1337,2717,435.1337,2713,439.1337,2709,435.1337,2713,444.1337" style="stroke:#000000;stroke-width:1.0;"/><text fill="#000000" font-family="sans-serif" font-size="20" lengthAdjust="spacing" textLength="35" x="2714" y="409.0781">has</text><text fill="#000000" font-family="sans-serif" font-size="20" lengthAdjust="spacing" textLength="13" x="2699.0047" y="386.0206">1</text><text fill="#000000" font-family="sans-serif" font-size="20" lengthAdjust="spacing" textLength="13" x="2698.7203" y="431.8191">1</text></g><!--link JobOpening to JobDescription--><g id="link_JobOpening_JobDescription"><path codeLine="49" d="M2775.84,359.5337 C2816.95,385.0537 2869.89,417.9237 2907.91,441.5337 " fill="none" id="JobOpening-to-JobDescription" style="stroke:#000000;stroke-width:1.0;"/><polygon fill="#000000" points="2912.47,444.3637,2906.9457,436.21,2908.226,441.7201,2902.7159,443.0004,2912.47,444.3637" style="stroke:#000000;stroke-width:1.0;"/><text fill="#000000" font-family="sans-serif" font-size="20" lengthAdjust="spacing" textLength="35" x="2866" y="409.0781">has</text><text fill="#000000" font-family="sans-serif" font-size="20" lengthAdjust="spacing" textLength="13" x="2771.4671" y="386.0206">1</text><text fill="#000000" font-family="sans-serif" font-size="20" lengthAdjust="spacing" textLength="13" x="2888.9451" y="431.7213">1</text></g><!--link JobOpening to RequirementSpecification--><g id="link_JobOpening_RequirementSpecification"><path codeLine="50" d="M2788.58,342.7037 C2879.01,369.2537 3030.66,413.7837 3130.27,443.0237 " fill="none" id="JobOpening-to-RequirementSpecification" style="stroke:#000000;stroke-width:1.0;"/><polygon fill="#000000" points="3135.27,444.4937,3127.7675,438.1131,3130.4739,443.0805,3125.5064,445.7869,3135.27,444.4937" style="stroke:#000000;stroke-width:1.0;"/><text fill="#000000" font-family="sans-serif" font-size="20" lengthAdjust="spacing" textLength="35" x="3034" y="409.0781">has</text><text fill="#000000" font-family="sans-serif" font-size="20" lengthAdjust="spacing" textLength="13" x="2796.4033" y="364.5954">1</text><text fill="#000000" font-family="sans-serif" font-size="20" lengthAdjust="spacing" textLength="13" x="3101.5976" y="431.8781">1</text></g><!--link JobOpening to Interview--><g id="link_JobOpening_Interview"><path codeLine="51" d="M2788.56,324.7137 C3017.23,338.0437 3690.78,382.2937 3766,444.5137 C3801.07,473.5237 3813.02,528.7737 3817.03,559.1637 " fill="none" id="JobOpening-to-Interview" style="stroke:#000000;stroke-width:1.0;"/><polygon fill="#000000" points="3817.65,564.1737,3820.5396,554.7582,3817.0492,559.2099,3812.5975,555.7195,3817.65,564.1737" style="stroke:#000000;stroke-width:1.0;"/><text fill="#000000" font-family="sans-serif" font-size="20" lengthAdjust="spacing" textLength="90" x="3812" y="480.0781">can have</text><text fill="#000000" font-family="sans-serif" font-size="20" lengthAdjust="spacing" textLength="13" x="2796.3813" y="319.6985">1</text><text fill="#000000" font-family="sans-serif" font-size="20" lengthAdjust="spacing" textLength="13" x="3802.4422" y="551.6664">1</text></g><!--link Application to ApplicationDate--><g id="link_Application_ApplicationDate"><path codeLine="54" d="M131.22,166.6237 C163.24,202.1837 209.88,253.9737 239.58,286.9537 " fill="none" id="Application-to-ApplicationDate" style="stroke:#000000;stroke-width:1.0;"/><polygon fill="#000000" points="243.12,290.8837,240.0725,281.5182,239.7752,287.1672,234.1261,286.8699,243.12,290.8837" style="stroke:#000000;stroke-width:1.0;"/><text fill="#000000" font-family="sans-serif" font-size="20" lengthAdjust="spacing" textLength="35" x="178" y="216.0781">has</text><text fill="#000000" font-family="sans-serif" font-size="20" lengthAdjust="spacing" textLength="13" x="122.4383" y="192.8005">1</text><text fill="#000000" font-family="sans-serif" font-size="20" lengthAdjust="spacing" textLength="13" x="223.6479" y="278.2454">1</text></g><!--link Application to ApplicationNumber--><g id="link_Application_ApplicationNumber"><path codeLine="55" d="M170.26,160.0137 C175.9,162.2737 181.53,164.4637 187,166.5137 C272.7,198.5737 300.69,189.5437 383,229.5137 C416.02,245.5537 450.31,268.9037 475.66,287.6637 " fill="none" id="Application-to-ApplicationNumber" style="stroke:#000000;stroke-width:1.0;"/><polygon fill="#000000" points="479.97,290.8737,475.1357,282.2929,475.958,287.8897,470.3613,288.7121,479.97,290.8737" style="stroke:#000000;stroke-width:1.0;"/><text fill="#000000" font-family="sans-serif" font-size="20" lengthAdjust="spacing" textLength="35" x="366" y="216.0781">has</text><text fill="#000000" font-family="sans-serif" font-size="20" lengthAdjust="spacing" textLength="13" x="178.0115" y="192.4264">1</text><text fill="#000000" font-family="sans-serif" font-size="20" lengthAdjust="spacing" textLength="13" x="458.4044" y="278.2334">1</text></g><!--link Application to Result--><g id="link_Application_Result"><path codeLine="56" d="M92.52,166.6237 C89.39,201.7437 84.86,252.7137 81.92,285.7437 " fill="none" id="Application-to-Result" style="stroke:#000000;stroke-width:1.0;"/><polygon fill="#000000" points="81.46,290.8837,86.2406,282.2729,81.9024,285.9033,78.272,281.5651,81.46,290.8837" style="stroke:#000000;stroke-width:1.0;"/><text fill="#000000" font-family="sans-serif" font-size="20" lengthAdjust="spacing" textLength="35" x="91" y="216.0781">has</text><text fill="#000000" font-family="sans-serif" font-size="20" lengthAdjust="spacing" textLength="13" x="78.0542" y="192.8005">1</text><text fill="#000000" font-family="sans-serif" font-size="20" lengthAdjust="spacing" textLength="38" x="40.0486" y="278.2454">0..1</text></g><!--link Application to JobOpening--><g id="link_Application_JobOpening"><path codeLine="57" d="M170.23,162.0037 C175.83,163.7737 181.46,165.3137 187,166.5137 C337.55,199.1137 1419.28,186.6437 1573,196.5137 C1971.76,222.1237 2446.13,282.5837 2632.33,307.4937 " fill="none" id="Application-to-JobOpening" style="stroke:#000000;stroke-width:1.0;"/><polygon fill="#000000" points="2637.48,308.1837,2629.0837,303.0356,2632.5234,307.5266,2628.0324,310.9662,2637.48,308.1837" style="stroke:#000000;stroke-width:1.0;"/><text fill="#000000" font-family="sans-serif" font-size="20" lengthAdjust="spacing" textLength="27" x="1857" y="216.0781">for</text><text fill="#000000" font-family="sans-serif" font-size="20" lengthAdjust="spacing" textLength="13" x="177.9246" y="185.0677">1</text><text fill="#000000" font-family="sans-serif" font-size="20" lengthAdjust="spacing" textLength="13" x="2616.4062" y="301.5223">1</text></g><!--link Application to Candidate--><g id="link_Application_Candidate"><path codeLine="58" d="M170.01,161.7637 C175.69,163.6037 181.39,165.2237 187,166.5137 C482.75,234.3637 1274.84,103.7737 1551,229.5137 C1582.95,244.0637 1608.9,276.6037 1623.4,298.0437 " fill="none" id="Application-to-Candidate" style="stroke:#000000;stroke-width:1.0;"/><polygon fill="#000000" points="1626.31,302.4337,1624.6844,292.7199,1623.553,298.2625,1618.0104,297.1311,1626.31,302.4337" style="stroke:#000000;stroke-width:1.0;"/><text fill="#000000" font-family="sans-serif" font-size="20" lengthAdjust="spacing" textLength="47" x="1517" y="216.0781">from</text><text fill="#000000" font-family="sans-serif" font-size="20" lengthAdjust="spacing" textLength="13" x="177.9352" y="159.6875">1</text><text fill="#000000" font-family="sans-serif" font-size="20" lengthAdjust="spacing" textLength="13" x="1608.5542" y="289.6441">1</text></g><!--SRC=[bLLTRvim57tdLrnb3zsajQBLFhe8LGfDa5PjZPHsVNVCXRW5czacLHhrl-y28IKq8IClABxdtEzZcoSXCwPPcYZ-X2646B4yiO6Izawy85ouZcE5JH36AcL2mcyLOWAdyEVkt7N9k10X0gQPNK6AwHorSKvCxHH-2ObsbI4eRHVASTuiF676mDe1-lcCFyLQvJAyLedIdhTaIOxJ-IDoUtK57yRV9gFWSZzKArLYWl747xlxCGRrKd0iNPq75nD_7unSJ88Va- -bRQIrUgwE_OHmpgjp0ZTg3jCCfP0nZE9OOymiEXcPMOmmy3nM7rAa1dYmAHCbTN9LM6eldbUT4NvRoVhLAT5LWmWymmWrIexGRepdVNpuJ7a7b_uNzrF5VQFU5sERwY2Nt0ebUxAlQGCqu_Q-c5u_Qh4YFIctUR4wq-Y1SIQvGDEJJsqQe-5QPBrAtKnaXdzpeJ6bltSPSX49pZP-jlCX1Ws6jc2KPKbjFxe53N1h2vfk3gp1JeQ6LDdAfr5_mzkO8lViNeDT3Q8dVvfRhjA-KMzoOvkjFiujoL9HVLh42miggaCFjpdG_i0SYvAqMjA5HWgUOU4JmpTwWb79tabXk0M2gfmPI0a02xP4OF3O1B-x43GcfS4iH6QSXiO7vmCuFRqglpjg7fBZWyYsU3l1ErhjH9RIx4ICmb0ZJUT8m3HZSdNBqYFUtkkw4zwISIVsa6ZtaqBrB6lcJscB1m6VAK2nBiLysyhU7MVJijEibkogsF-1tiYi0- -UdPL5bhhlzjkeTGYHqWU1rqo68gmIZRHAdUQ3NDzWw_sFuyGFlWP-SGV-0m00]--></g></svg>