<?xml version="1.0" encoding="UTF-8" standalone="no"?><svg xmlns="http://www.w3.org/2000/svg" xmlns:xlink="http://www.w3.org/1999/xlink" contentStyleType="text/css" height="695px" preserveAspectRatio="none" style="width:4320px;height:695px;background:#FFFFFF;" version="1.1" viewBox="0 0 4320 695" width="4320px" zoomAndPan="magnify"><defs/><g><text fill="#000000" font-family="sans-serif" font-size="14" font-weight="bold" lengthAdjust="spacing" textLength="187" x="2059.5" y="22.9951">Domain Model - US1021</text><!--cluster <<aggregate>> Job Opening--><g id="cluster_&lt;&lt;aggregate&gt;&gt; Job Opening"><path d="M1577.5,237.5137 L1865.5,237.5137 A3.75,3.75 0 0 1 1868,240.0137 L1875,266.7949 L3244.5,266.7949 A2.5,2.5 0 0 1 3247,269.2949 L3247,515.0137 A2.5,2.5 0 0 1 3244.5,517.5137 L1577.5,517.5137 A2.5,2.5 0 0 1 1575,515.0137 L1575,240.0137 A2.5,2.5 0 0 1 1577.5,237.5137 " fill="#EBF5FB" style="stroke:#000000;stroke-width:1.5;"/><line style="stroke:#000000;stroke-width:1.5;" x1="1575" x2="1875" y1="266.7949" y2="266.7949"/><text fill="#000000" font-family="sans-serif" font-size="20" font-weight="bold" lengthAdjust="spacing" textLength="287" x="1579" y="258.0781">«aggregate» Job Opening</text></g><!--cluster <<aggregate>> Application--><g id="cluster_&lt;&lt;aggregate&gt;&gt; Application"><path d="M8.5,44.5137 L288.5,44.5137 A3.75,3.75 0 0 1 291,47.0137 L298,73.7949 L1548.5,73.7949 A2.5,2.5 0 0 1 1551,76.2949 L1551,361.5137 A2.5,2.5 0 0 1 1548.5,364.0137 L8.5,364.0137 A2.5,2.5 0 0 1 6,361.5137 L6,47.0137 A2.5,2.5 0 0 1 8.5,44.5137 " fill="#EBF5FB" style="stroke:#000000;stroke-width:1.5;"/><line style="stroke:#000000;stroke-width:1.5;" x1="6" x2="298" y1="73.7949" y2="73.7949"/><text fill="#000000" font-family="sans-serif" font-size="20" font-weight="bold" lengthAdjust="spacing" textLength="279" x="10" y="65.0781">«aggregate» Application</text></g><!--cluster <<aggregate>> Candidate--><g id="cluster_&lt;&lt;aggregate&gt;&gt; Candidate"><path d="M3897.5,237.5137 L4165.5,237.5137 A3.75,3.75 0 0 1 4168,240.0137 L4175,266.7949 L4310.5,266.7949 A2.5,2.5 0 0 1 4313,269.2949 L4313,515.0137 A2.5,2.5 0 0 1 4310.5,517.5137 L3897.5,517.5137 A2.5,2.5 0 0 1 3895,515.0137 L3895,240.0137 A2.5,2.5 0 0 1 3897.5,237.5137 " fill="#EBF5FB" style="stroke:#000000;stroke-width:1.5;"/><line style="stroke:#000000;stroke-width:1.5;" x1="3895" x2="4175" y1="266.7949" y2="266.7949"/><text fill="#000000" font-family="sans-serif" font-size="20" font-weight="bold" lengthAdjust="spacing" textLength="267" x="3899" y="258.0781">«aggregate» Candidate</text></g><!--cluster <<aggregate>> Interview--><g id="cluster_&lt;&lt;aggregate&gt;&gt; Interview"><path d="M965.5,550.5137 L1224.5,550.5137 A3.75,3.75 0 0 1 1227,553.0137 L1234,579.7949 L1541.5,579.7949 A2.5,2.5 0 0 1 1544,582.2949 L1544,686.0137 A2.5,2.5 0 0 1 1541.5,688.5137 L965.5,688.5137 A2.5,2.5 0 0 1 963,686.0137 L963,553.0137 A2.5,2.5 0 0 1 965.5,550.5137 " fill="#EBF5FB" style="stroke:#000000;stroke-width:1.5;"/><line style="stroke:#000000;stroke-width:1.5;" x1="963" x2="1234" y1="579.7949" y2="579.7949"/><text fill="#000000" font-family="sans-serif" font-size="20" font-weight="bold" lengthAdjust="spacing" textLength="258" x="967" y="571.0781">«aggregate» Interview</text></g><!--class JobOpening--><g id="elem_JobOpening"><rect codeLine="19" fill="#FDEBD0" height="79.8438" id="JobOpening" rx="2.5" ry="2.5" style="stroke:#181818;stroke-width:0.5;" width="151" x="2039.5" y="279.5137"/><ellipse cx="2055.5" cy="319.4355" fill="#ADD1B2" rx="12" ry="12" style="stroke:#181818;stroke-width:1.0;"/><path d="M2060.2188,326.9355 L2051.1406,326.9355 L2051.1406,312.3574 L2060.2188,312.3574 L2060.2188,314.8887 L2054.0156,314.8887 L2054.0156,318.0449 L2059.6406,318.0449 L2059.6406,320.5762 L2054.0156,320.5762 L2054.0156,324.3887 L2060.2188,324.3887 L2060.2188,326.9355 Z " fill="#000000"/><text fill="#000000" font-family="sans-serif" font-size="20" font-style="italic" lengthAdjust="spacing" textLength="83" x="2087.5" y="303.0781">«entity»</text><text fill="#000000" font-family="sans-serif" font-size="20" font-style="italic" lengthAdjust="spacing" textLength="64" x="2097" y="326.3594">«root»</text><text fill="#000000" font-family="sans-serif" font-size="20" lengthAdjust="spacing" textLength="117" x="2070.5" y="349.6406">JobOpening</text></g><!--class JobReference--><g id="elem_JobReference"><rect codeLine="21" fill="#D6EAF8" height="56.5625" id="JobReference" rx="2.5" ry="2.5" style="stroke:#181818;stroke-width:0.5;" width="175" x="1591.5" y="444.5137"/><ellipse cx="1607.5" cy="472.7949" fill="#FF8B40" rx="12" ry="12" style="stroke:#181818;stroke-width:1.0;"/><path d="M1607.5156,478.6387 L1610.0781,466.4668 L1612.9844,466.4668 L1609.5156,481.0449 L1605.5313,481.0449 L1602.0625,466.4668 L1604.9531,466.4668 L1607.5156,478.6387 Z " fill="#000000"/><text fill="#000000" font-family="sans-serif" font-size="20" font-style="italic" lengthAdjust="spacing" textLength="145" x="1620.5" y="468.0781">«valueObject»</text><text fill="#000000" font-family="sans-serif" font-size="20" lengthAdjust="spacing" textLength="132" x="1627" y="491.3594">JobReference</text></g><!--class TitleOrFunction--><g id="elem_TitleOrFunction"><rect codeLine="22" fill="#D6EAF8" height="56.5625" id="TitleOrFunction" rx="2.5" ry="2.5" style="stroke:#181818;stroke-width:0.5;" width="190" x="1802" y="444.5137"/><ellipse cx="1818" cy="472.7949" fill="#FF8B40" rx="12" ry="12" style="stroke:#181818;stroke-width:1.0;"/><path d="M1818.0156,478.6387 L1820.5781,466.4668 L1823.4844,466.4668 L1820.0156,481.0449 L1816.0313,481.0449 L1812.5625,466.4668 L1815.4531,466.4668 L1818.0156,478.6387 Z " fill="#000000"/><text fill="#000000" font-family="sans-serif" font-size="20" font-style="italic" lengthAdjust="spacing" textLength="145" x="1838.5" y="468.0781">«valueObject»</text><text fill="#000000" font-family="sans-serif" font-size="20" lengthAdjust="spacing" textLength="156" x="1833" y="491.3594">TitleOrFunction</text></g><!--class ContractType--><g id="elem_ContractType"><rect codeLine="23" fill="#D6EAF8" height="56.5625" id="ContractType" rx="2.5" ry="2.5" style="stroke:#181818;stroke-width:0.5;" width="175" x="2027.5" y="444.5137"/><ellipse cx="2043.5" cy="472.7949" fill="#FF8B40" rx="12" ry="12" style="stroke:#181818;stroke-width:1.0;"/><path d="M2043.5156,478.6387 L2046.0781,466.4668 L2048.9844,466.4668 L2045.5156,481.0449 L2041.5313,481.0449 L2038.0625,466.4668 L2040.9531,466.4668 L2043.5156,478.6387 Z " fill="#000000"/><text fill="#000000" font-family="sans-serif" font-size="20" font-style="italic" lengthAdjust="spacing" textLength="145" x="2056.5" y="468.0781">«valueObject»</text><text fill="#000000" font-family="sans-serif" font-size="20" lengthAdjust="spacing" textLength="134" x="2062" y="491.3594">ContractType</text></g><!--class Mode--><g id="elem_Mode"><rect codeLine="24" fill="#D6EAF8" height="56.5625" id="Mode" rx="2.5" ry="2.5" style="stroke:#181818;stroke-width:0.5;" width="175" x="2237.5" y="444.5137"/><ellipse cx="2253.5" cy="472.7949" fill="#FF8B40" rx="12" ry="12" style="stroke:#181818;stroke-width:1.0;"/><path d="M2253.5156,478.6387 L2256.0781,466.4668 L2258.9844,466.4668 L2255.5156,481.0449 L2251.5313,481.0449 L2248.0625,466.4668 L2250.9531,466.4668 L2253.5156,478.6387 Z " fill="#000000"/><text fill="#000000" font-family="sans-serif" font-size="20" font-style="italic" lengthAdjust="spacing" textLength="145" x="2266.5" y="468.0781">«valueObject»</text><text fill="#000000" font-family="sans-serif" font-size="20" lengthAdjust="spacing" textLength="54" x="2312" y="491.3594">Mode</text></g><!--class NumberOfVacancies--><g id="elem_NumberOfVacancies"><rect codeLine="25" fill="#D6EAF8" height="56.5625" id="NumberOfVacancies" rx="2.5" ry="2.5" style="stroke:#181818;stroke-width:0.5;" width="239" x="2447.5" y="444.5137"/><ellipse cx="2463.5" cy="472.7949" fill="#FF8B40" rx="12" ry="12" style="stroke:#181818;stroke-width:1.0;"/><path d="M2463.5156,478.6387 L2466.0781,466.4668 L2468.9844,466.4668 L2465.5156,481.0449 L2461.5313,481.0449 L2458.0625,466.4668 L2460.9531,466.4668 L2463.5156,478.6387 Z " fill="#000000"/><text fill="#000000" font-family="sans-serif" font-size="20" font-style="italic" lengthAdjust="spacing" textLength="145" x="2508.5" y="468.0781">«valueObject»</text><text fill="#000000" font-family="sans-serif" font-size="20" lengthAdjust="spacing" textLength="205" x="2478.5" y="491.3594">NumberOfVacancies</text></g><!--class JobDescription--><g id="elem_JobDescription"><rect codeLine="26" fill="#D6EAF8" height="56.5625" id="JobDescription" rx="2.5" ry="2.5" style="stroke:#181818;stroke-width:0.5;" width="179" x="2721.5" y="444.5137"/><ellipse cx="2737.5" cy="472.7949" fill="#FF8B40" rx="12" ry="12" style="stroke:#181818;stroke-width:1.0;"/><path d="M2737.5156,478.6387 L2740.0781,466.4668 L2742.9844,466.4668 L2739.5156,481.0449 L2735.5313,481.0449 L2732.0625,466.4668 L2734.9531,466.4668 L2737.5156,478.6387 Z " fill="#000000"/><text fill="#000000" font-family="sans-serif" font-size="20" font-style="italic" lengthAdjust="spacing" textLength="145" x="2752.5" y="468.0781">«valueObject»</text><text fill="#000000" font-family="sans-serif" font-size="20" lengthAdjust="spacing" textLength="145" x="2752.5" y="491.3594">JobDescription</text></g><!--class RequirementSpecification--><g id="elem_RequirementSpecification"><rect codeLine="27" fill="#FEF9E7" height="56.5625" id="RequirementSpecification" rx="2.5" ry="2.5" style="stroke:#181818;stroke-width:0.5;" width="295" x="2935.5" y="444.5137"/><ellipse cx="2951.5" cy="472.7949" fill="#ADD1B2" rx="12" ry="12" style="stroke:#181818;stroke-width:1.0;"/><path d="M2956.2188,480.2949 L2947.1406,480.2949 L2947.1406,465.7168 L2956.2188,465.7168 L2956.2188,468.248 L2950.0156,468.248 L2950.0156,471.4043 L2955.6406,471.4043 L2955.6406,473.9355 L2950.0156,473.9355 L2950.0156,477.748 L2956.2188,477.748 L2956.2188,480.2949 Z " fill="#000000"/><text fill="#000000" font-family="sans-serif" font-size="20" font-style="italic" lengthAdjust="spacing" textLength="83" x="3055.5" y="468.0781">«entity»</text><text fill="#000000" font-family="sans-serif" font-size="20" lengthAdjust="spacing" textLength="261" x="2966.5" y="491.3594">RequirementSpecification</text></g><!--class Application--><g id="elem_Application"><rect codeLine="38" fill="#FDEBD0" height="79.8438" id="Application" rx="2.5" ry="2.5" style="stroke:#181818;stroke-width:0.5;" width="148" x="22" y="86.5137"/><ellipse cx="38" cy="126.4355" fill="#ADD1B2" rx="12" ry="12" style="stroke:#181818;stroke-width:1.0;"/><path d="M42.7188,133.9355 L33.6406,133.9355 L33.6406,119.3574 L42.7188,119.3574 L42.7188,121.8887 L36.5156,121.8887 L36.5156,125.0449 L42.1406,125.0449 L42.1406,127.5762 L36.5156,127.5762 L36.5156,131.3887 L42.7188,131.3887 L42.7188,133.9355 Z " fill="#000000"/><text fill="#000000" font-family="sans-serif" font-size="20" font-style="italic" lengthAdjust="spacing" textLength="83" x="68.5" y="110.0781">«entity»</text><text fill="#000000" font-family="sans-serif" font-size="20" font-style="italic" lengthAdjust="spacing" textLength="64" x="78" y="133.3594">«root»</text><text fill="#000000" font-family="sans-serif" font-size="20" lengthAdjust="spacing" textLength="114" x="53" y="156.6406">Application</text></g><!--class Result--><g id="elem_Result"><rect codeLine="39" fill="#FEF9E7" height="56.5625" id="Result" rx="2.5" ry="2.5" style="stroke:#181818;stroke-width:0.5;" width="113" x="22.5" y="291.0137"/><ellipse cx="38.5" cy="319.2949" fill="#ADD1B2" rx="12" ry="12" style="stroke:#181818;stroke-width:1.0;"/><path d="M43.2188,326.7949 L34.1406,326.7949 L34.1406,312.2168 L43.2188,312.2168 L43.2188,314.748 L37.0156,314.748 L37.0156,317.9043 L42.6406,317.9043 L42.6406,320.4355 L37.0156,320.4355 L37.0156,324.248 L43.2188,324.248 L43.2188,326.7949 Z " fill="#000000"/><text fill="#000000" font-family="sans-serif" font-size="20" font-style="italic" lengthAdjust="spacing" textLength="83" x="51.5" y="314.5781">«entity»</text><text fill="#000000" font-family="sans-serif" font-size="20" lengthAdjust="spacing" textLength="63" x="61.5" y="337.8594">Result</text></g><!--class ApplicationDate--><g id="elem_ApplicationDate"><rect codeLine="41" fill="#D6EAF8" height="56.5625" id="ApplicationDate" rx="2.5" ry="2.5" style="stroke:#181818;stroke-width:0.5;" width="195" x="170.5" y="291.0137"/><ellipse cx="186.5" cy="319.2949" fill="#FF8B40" rx="12" ry="12" style="stroke:#181818;stroke-width:1.0;"/><path d="M186.5156,325.1387 L189.0781,312.9668 L191.9844,312.9668 L188.5156,327.5449 L184.5313,327.5449 L181.0625,312.9668 L183.9531,312.9668 L186.5156,325.1387 Z " fill="#000000"/><text fill="#000000" font-family="sans-serif" font-size="20" font-style="italic" lengthAdjust="spacing" textLength="145" x="209.5" y="314.5781">«valueObject»</text><text fill="#000000" font-family="sans-serif" font-size="20" lengthAdjust="spacing" textLength="161" x="201.5" y="337.8594">ApplicationDate</text></g><!--class ApplicationNumber--><g id="elem_ApplicationNumber"><rect codeLine="42" fill="#D6EAF8" height="56.5625" id="ApplicationNumber" rx="2.5" ry="2.5" style="stroke:#181818;stroke-width:0.5;" width="229" x="400.5" y="291.0137"/><ellipse cx="416.5" cy="319.2949" fill="#FF8B40" rx="12" ry="12" style="stroke:#181818;stroke-width:1.0;"/><path d="M416.5156,325.1387 L419.0781,312.9668 L421.9844,312.9668 L418.5156,327.5449 L414.5313,327.5449 L411.0625,312.9668 L413.9531,312.9668 L416.5156,325.1387 Z " fill="#000000"/><text fill="#000000" font-family="sans-serif" font-size="20" font-style="italic" lengthAdjust="spacing" textLength="145" x="456.5" y="314.5781">«valueObject»</text><text fill="#000000" font-family="sans-serif" font-size="20" lengthAdjust="spacing" textLength="195" x="431.5" y="337.8594">ApplicationNumber</text></g><!--class Outcome--><g id="elem_Outcome"><rect codeLine="43" fill="#D6EAF8" height="56.5625" id="Outcome" rx="2.5" ry="2.5" style="stroke:#181818;stroke-width:0.5;" width="175" x="916.5" y="98.0137"/><ellipse cx="932.5" cy="126.2949" fill="#FF8B40" rx="12" ry="12" style="stroke:#181818;stroke-width:1.0;"/><path d="M932.5156,132.1387 L935.0781,119.9668 L937.9844,119.9668 L934.5156,134.5449 L930.5313,134.5449 L927.0625,119.9668 L929.9531,119.9668 L932.5156,132.1387 Z " fill="#000000"/><text fill="#000000" font-family="sans-serif" font-size="20" font-style="italic" lengthAdjust="spacing" textLength="145" x="945.5" y="121.5781">«valueObject»</text><text fill="#000000" font-family="sans-serif" font-size="20" lengthAdjust="spacing" textLength="92" x="972" y="144.8594">Outcome</text></g><!--class Justification--><g id="elem_Justification"><rect codeLine="44" fill="#D6EAF8" height="56.5625" id="Justification" rx="2.5" ry="2.5" style="stroke:#181818;stroke-width:0.5;" width="175" x="706.5" y="98.0137"/><ellipse cx="722.5" cy="126.2949" fill="#FF8B40" rx="12" ry="12" style="stroke:#181818;stroke-width:1.0;"/><path d="M722.5156,132.1387 L725.0781,119.9668 L727.9844,119.9668 L724.5156,134.5449 L720.5313,134.5449 L717.0625,119.9668 L719.9531,119.9668 L722.5156,132.1387 Z " fill="#000000"/><text fill="#000000" font-family="sans-serif" font-size="20" font-style="italic" lengthAdjust="spacing" textLength="145" x="735.5" y="121.5781">«valueObject»</text><text fill="#000000" font-family="sans-serif" font-size="20" lengthAdjust="spacing" textLength="118" x="749" y="144.8594">Justification</text></g><g id="elem_GMN22"><path d="M1127,110.0137 L1127,122.5137 L1091.82,126.5137 L1127,130.5137 L1127,143.2949 A0,0 0 0 0 1127,143.2949 L1535,143.2949 A0,0 0 0 0 1535,143.2949 L1535,120.0137 L1525,110.0137 L1127,110.0137 A0,0 0 0 0 1127,110.0137 " fill="#FEFFDD" style="stroke:#181818;stroke-width:0.5;"/><path d="M1525,110.0137 L1525,120.0137 L1535,120.0137 L1525,110.0137 " fill="#FEFFDD" style="stroke:#181818;stroke-width:0.5;"/><text fill="#000000" font-family="sans-serif" font-size="20" lengthAdjust="spacing" textLength="387" x="1133" y="133.5781">Outcome can be Approved or Rejected</text></g><g id="elem_GMN25"><path d="M205,110.0137 L205,143.2949 A0,0 0 0 0 205,143.2949 L671,143.2949 A0,0 0 0 0 671,143.2949 L671,130.5137 L706.27,126.5137 L671,122.5137 L671,120.0137 L661,110.0137 L205,110.0137 A0,0 0 0 0 205,110.0137 " fill="#FEFFDD" style="stroke:#181818;stroke-width:0.5;"/><path d="M661,110.0137 L661,120.0137 L671,120.0137 L661,110.0137 " fill="#FEFFDD" style="stroke:#181818;stroke-width:0.5;"/><text fill="#000000" font-family="sans-serif" font-size="20" lengthAdjust="spacing" textLength="445" x="211" y="133.5781">Rejected outcomes must have a justification</text></g><!--class Candidate--><g id="elem_Candidate"><rect codeLine="52" fill="#FDEBD0" height="79.8438" id="Candidate" rx="2.5" ry="2.5" style="stroke:#181818;stroke-width:0.5;" width="137" x="3911.5" y="279.5137"/><ellipse cx="3927.5" cy="319.4355" fill="#ADD1B2" rx="12" ry="12" style="stroke:#181818;stroke-width:1.0;"/><path d="M3932.2188,326.9355 L3923.1406,326.9355 L3923.1406,312.3574 L3932.2188,312.3574 L3932.2188,314.8887 L3926.0156,314.8887 L3926.0156,318.0449 L3931.6406,318.0449 L3931.6406,320.5762 L3926.0156,320.5762 L3926.0156,324.3887 L3932.2188,324.3887 L3932.2188,326.9355 Z " fill="#000000"/><text fill="#000000" font-family="sans-serif" font-size="20" font-style="italic" lengthAdjust="spacing" textLength="83" x="3952.5" y="303.0781">«entity»</text><text fill="#000000" font-family="sans-serif" font-size="20" font-style="italic" lengthAdjust="spacing" textLength="64" x="3962" y="326.3594">«root»</text><text fill="#000000" font-family="sans-serif" font-size="20" lengthAdjust="spacing" textLength="103" x="3942.5" y="349.6406">Candidate</text></g><!--class FirstName--><g id="elem_FirstName"><rect codeLine="54" fill="#D6EAF8" height="56.5625" id="FirstName" rx="2.5" ry="2.5" style="stroke:#181818;stroke-width:0.5;" width="175" x="3911.5" y="444.5137"/><ellipse cx="3927.5" cy="472.7949" fill="#FF8B40" rx="12" ry="12" style="stroke:#181818;stroke-width:1.0;"/><path d="M3927.5156,478.6387 L3930.0781,466.4668 L3932.9844,466.4668 L3929.5156,481.0449 L3925.5313,481.0449 L3922.0625,466.4668 L3924.9531,466.4668 L3927.5156,478.6387 Z " fill="#000000"/><text fill="#000000" font-family="sans-serif" font-size="20" font-style="italic" lengthAdjust="spacing" textLength="145" x="3940.5" y="468.0781">«valueObject»</text><text fill="#000000" font-family="sans-serif" font-size="20" lengthAdjust="spacing" textLength="103" x="3961.5" y="491.3594">FirstName</text></g><!--class LastName--><g id="elem_LastName"><rect codeLine="55" fill="#D6EAF8" height="56.5625" id="LastName" rx="2.5" ry="2.5" style="stroke:#181818;stroke-width:0.5;" width="175" x="4121.5" y="444.5137"/><ellipse cx="4137.5" cy="472.7949" fill="#FF8B40" rx="12" ry="12" style="stroke:#181818;stroke-width:1.0;"/><path d="M4137.5156,478.6387 L4140.0781,466.4668 L4142.9844,466.4668 L4139.5156,481.0449 L4135.5313,481.0449 L4132.0625,466.4668 L4134.9531,466.4668 L4137.5156,478.6387 Z " fill="#000000"/><text fill="#000000" font-family="sans-serif" font-size="20" font-style="italic" lengthAdjust="spacing" textLength="145" x="4150.5" y="468.0781">«valueObject»</text><text fill="#000000" font-family="sans-serif" font-size="20" lengthAdjust="spacing" textLength="100" x="4173" y="491.3594">LastName</text></g><!--class Interview--><g id="elem_Interview"><rect codeLine="60" fill="#FDEBD0" height="79.8438" id="Interview" rx="2.5" ry="2.5" style="stroke:#181818;stroke-width:0.5;" width="127" x="1400.5" y="592.5137"/><ellipse cx="1416.5" cy="632.4355" fill="#ADD1B2" rx="12" ry="12" style="stroke:#181818;stroke-width:1.0;"/><path d="M1421.2188,639.9355 L1412.1406,639.9355 L1412.1406,625.3574 L1421.2188,625.3574 L1421.2188,627.8887 L1415.0156,627.8887 L1415.0156,631.0449 L1420.6406,631.0449 L1420.6406,633.5762 L1415.0156,633.5762 L1415.0156,637.3887 L1421.2188,637.3887 L1421.2188,639.9355 Z " fill="#000000"/><text fill="#000000" font-family="sans-serif" font-size="20" font-style="italic" lengthAdjust="spacing" textLength="83" x="1436.5" y="616.0781">«entity»</text><text fill="#000000" font-family="sans-serif" font-size="20" font-style="italic" lengthAdjust="spacing" textLength="64" x="1446" y="639.3594">«root»</text><text fill="#000000" font-family="sans-serif" font-size="20" lengthAdjust="spacing" textLength="93" x="1431.5" y="662.6406">Interview</text></g><!--class InterviewDate--><g id="elem_InterviewDate"><rect codeLine="62" fill="#D6EAF8" height="56.5625" id="InterviewDate" rx="2.5" ry="2.5" style="stroke:#181818;stroke-width:0.5;" width="175" x="1190.5" y="604.0137"/><ellipse cx="1206.5" cy="632.2949" fill="#FF8B40" rx="12" ry="12" style="stroke:#181818;stroke-width:1.0;"/><path d="M1206.5156,638.1387 L1209.0781,625.9668 L1211.9844,625.9668 L1208.5156,640.5449 L1204.5313,640.5449 L1201.0625,625.9668 L1203.9531,625.9668 L1206.5156,638.1387 Z " fill="#000000"/><text fill="#000000" font-family="sans-serif" font-size="20" font-style="italic" lengthAdjust="spacing" textLength="145" x="1219.5" y="627.5781">«valueObject»</text><text fill="#000000" font-family="sans-serif" font-size="20" lengthAdjust="spacing" textLength="140" x="1222" y="650.8594">InterviewDate</text></g><!--class InterviewTime--><g id="elem_InterviewTime"><rect codeLine="63" fill="#D6EAF8" height="56.5625" id="InterviewTime" rx="2.5" ry="2.5" style="stroke:#181818;stroke-width:0.5;" width="177" x="978.5" y="604.0137"/><ellipse cx="994.5" cy="632.2949" fill="#FF8B40" rx="12" ry="12" style="stroke:#181818;stroke-width:1.0;"/><path d="M994.5156,638.1387 L997.0781,625.9668 L999.9844,625.9668 L996.5156,640.5449 L992.5313,640.5449 L989.0625,625.9668 L991.9531,625.9668 L994.5156,638.1387 Z " fill="#000000"/><text fill="#000000" font-family="sans-serif" font-size="20" font-style="italic" lengthAdjust="spacing" textLength="145" x="1008.5" y="627.5781">«valueObject»</text><text fill="#000000" font-family="sans-serif" font-size="20" lengthAdjust="spacing" textLength="143" x="1009.5" y="650.8594">InterviewTime</text></g><!--class CompanyName--><g id="elem_CompanyName"><rect codeLine="15" fill="#D6EAF8" height="56.5625" id="CompanyName" rx="2.5" ry="2.5" style="stroke:#181818;stroke-width:0.5;" width="188" x="3266" y="444.5137"/><ellipse cx="3282" cy="472.7949" fill="#FF8B40" rx="12" ry="12" style="stroke:#181818;stroke-width:1.0;"/><path d="M3282.0156,478.6387 L3284.5781,466.4668 L3287.4844,466.4668 L3284.0156,481.0449 L3280.0313,481.0449 L3276.5625,466.4668 L3279.4531,466.4668 L3282.0156,478.6387 Z " fill="#000000"/><text fill="#000000" font-family="sans-serif" font-size="20" font-style="italic" lengthAdjust="spacing" textLength="145" x="3301.5" y="468.0781">«valueObject»</text><text fill="#000000" font-family="sans-serif" font-size="20" lengthAdjust="spacing" textLength="154" x="3297" y="491.3594">CompanyName</text></g><!--class Address--><g id="elem_Address"><rect codeLine="30" fill="#D6EAF8" height="56.5625" id="Address" rx="2.5" ry="2.5" style="stroke:#181818;stroke-width:0.5;" width="175" x="1218.5" y="444.5137"/><ellipse cx="1234.5" cy="472.7949" fill="#FF8B40" rx="12" ry="12" style="stroke:#181818;stroke-width:1.0;"/><path d="M1234.5156,478.6387 L1237.0781,466.4668 L1239.9844,466.4668 L1236.5156,481.0449 L1232.5313,481.0449 L1229.0625,466.4668 L1231.9531,466.4668 L1234.5156,478.6387 Z " fill="#000000"/><text fill="#000000" font-family="sans-serif" font-size="20" font-style="italic" lengthAdjust="spacing" textLength="145" x="1247.5" y="468.0781">«valueObject»</text><text fill="#000000" font-family="sans-serif" font-size="20" lengthAdjust="spacing" textLength="80" x="1280" y="491.3594">Address</text></g><!--class PhoneNumber--><g id="elem_PhoneNumber"><rect codeLine="33" fill="#D6EAF8" height="56.5625" id="PhoneNumber" rx="2.5" ry="2.5" style="stroke:#181818;stroke-width:0.5;" width="177" x="3489.5" y="444.5137"/><ellipse cx="3505.5" cy="472.7949" fill="#FF8B40" rx="12" ry="12" style="stroke:#181818;stroke-width:1.0;"/><path d="M3505.5156,478.6387 L3508.0781,466.4668 L3510.9844,466.4668 L3507.5156,481.0449 L3503.5313,481.0449 L3500.0625,466.4668 L3502.9531,466.4668 L3505.5156,478.6387 Z " fill="#000000"/><text fill="#000000" font-family="sans-serif" font-size="20" font-style="italic" lengthAdjust="spacing" textLength="145" x="3519.5" y="468.0781">«valueObject»</text><text fill="#000000" font-family="sans-serif" font-size="20" lengthAdjust="spacing" textLength="143" x="3520.5" y="491.3594">PhoneNumber</text></g><!--class Email--><g id="elem_Email"><rect codeLine="34" fill="#D6EAF8" height="56.5625" id="Email" rx="2.5" ry="2.5" style="stroke:#181818;stroke-width:0.5;" width="175" x="3701.5" y="444.5137"/><ellipse cx="3717.5" cy="472.7949" fill="#FF8B40" rx="12" ry="12" style="stroke:#181818;stroke-width:1.0;"/><path d="M3717.5156,478.6387 L3720.0781,466.4668 L3722.9844,466.4668 L3719.5156,481.0449 L3715.5313,481.0449 L3712.0625,466.4668 L3714.9531,466.4668 L3717.5156,478.6387 Z " fill="#000000"/><text fill="#000000" font-family="sans-serif" font-size="20" font-style="italic" lengthAdjust="spacing" textLength="145" x="3730.5" y="468.0781">«valueObject»</text><text fill="#000000" font-family="sans-serif" font-size="20" lengthAdjust="spacing" textLength="57" x="3774.5" y="491.3594">Email</text></g><!--link JobOpening to JobReference--><g id="link_JobOpening_JobReference"><path codeLine="67" d="M2039.05,346.9037 C1962.03,373.6637 1843.09,414.9937 1763.22,442.7537 " fill="none" id="JobOpening-to-JobReference" style="stroke:#000000;stroke-width:1.0;"/><polygon fill="#000000" points="1758.49,444.3937,1768.3043,445.2184,1763.2131,442.7527,1765.6788,437.6615,1758.49,444.3937" style="stroke:#000000;stroke-width:1.0;"/><text fill="#000000" font-family="sans-serif" font-size="20" lengthAdjust="spacing" textLength="35" x="1912" y="409.0781">has</text><text fill="#000000" font-family="sans-serif" font-size="20" lengthAdjust="spacing" textLength="13" x="2018.4491" y="369.0735">1</text><text fill="#000000" font-family="sans-serif" font-size="20" lengthAdjust="spacing" textLength="13" x="1760.5442" y="431.7575">1</text></g><!--link JobOpening to TitleOrFunction--><g id="link_JobOpening_TitleOrFunction"><path codeLine="68" d="M2058.86,359.5337 C2022.28,384.9537 1975.21,417.6637 1941.27,441.2437 " fill="none" id="JobOpening-to-TitleOrFunction" style="stroke:#000000;stroke-width:1.0;"/><polygon fill="#000000" points="1936.78,444.3637,1946.4539,442.5156,1940.8868,441.5117,1941.8907,435.9446,1936.78,444.3637" style="stroke:#000000;stroke-width:1.0;"/><text fill="#000000" font-family="sans-serif" font-size="20" lengthAdjust="spacing" textLength="35" x="2014" y="409.0781">has</text><text fill="#000000" font-family="sans-serif" font-size="20" lengthAdjust="spacing" textLength="13" x="2036.2683" y="386.0206">1</text><text fill="#000000" font-family="sans-serif" font-size="20" lengthAdjust="spacing" textLength="13" x="1930.644" y="431.7213">1</text></g><!--link JobOpening to ContractType--><g id="link_JobOpening_ContractType"><path codeLine="69" d="M2115,359.5337 C2115,384.1437 2115,415.5837 2115,438.9737 " fill="none" id="JobOpening-to-ContractType" style="stroke:#000000;stroke-width:1.0;"/><polygon fill="#000000" points="2115,444.1337,2119,435.1337,2115,439.1337,2111,435.1337,2115,444.1337" style="stroke:#000000;stroke-width:1.0;"/><text fill="#000000" font-family="sans-serif" font-size="20" lengthAdjust="spacing" textLength="35" x="2116" y="409.0781">has</text><text fill="#000000" font-family="sans-serif" font-size="20" lengthAdjust="spacing" textLength="13" x="2101.0047" y="386.0206">1</text><text fill="#000000" font-family="sans-serif" font-size="20" lengthAdjust="spacing" textLength="13" x="2100.7203" y="431.8191">1</text></g><!--link JobOpening to Mode--><g id="link_JobOpening_Mode"><path codeLine="70" d="M2169.08,359.5337 C2204.32,384.9537 2249.66,417.6637 2282.35,441.2437 " fill="none" id="JobOpening-to-Mode" style="stroke:#000000;stroke-width:1.0;"/><polygon fill="#000000" points="2286.68,444.3637,2281.7039,435.8643,2282.6191,441.4467,2277.0367,442.3618,2286.68,444.3637" style="stroke:#000000;stroke-width:1.0;"/><text fill="#000000" font-family="sans-serif" font-size="20" lengthAdjust="spacing" textLength="35" x="2246" y="409.0781">has</text><text fill="#000000" font-family="sans-serif" font-size="20" lengthAdjust="spacing" textLength="13" x="2163.3657" y="386.0206">1</text><text fill="#000000" font-family="sans-serif" font-size="20" lengthAdjust="spacing" textLength="13" x="2264.4359" y="431.7213">1</text></g><!--link JobOpening to Address--><g id="link_JobOpening_Address"><path codeLine="71" d="M2039.4,327.2137 C1858.69,343.3037 1415.56,383.2537 1401,389.5137 C1374.69,400.8137 1350.42,422.1737 1332.99,440.3237 " fill="none" id="JobOpening-to-Address" style="stroke:#000000;stroke-width:1.0;"/><polygon fill="#000000" points="1329.16,444.3837,1338.2485,440.5891,1332.594,440.7494,1332.4337,435.0948,1329.16,444.3837" style="stroke:#000000;stroke-width:1.0;"/><text fill="#000000" font-family="sans-serif" font-size="20" lengthAdjust="spacing" textLength="35" x="1402" y="409.0781">has</text><text fill="#000000" font-family="sans-serif" font-size="20" lengthAdjust="spacing" textLength="13" x="2018.5748" y="322.4368">1</text><text fill="#000000" font-family="sans-serif" font-size="20" lengthAdjust="spacing" textLength="13" x="1319.5961" y="431.7454">1</text></g><!--link JobOpening to CompanyName--><g id="link_JobOpening_CompanyName"><path codeLine="72" d="M2190.71,325.0937 C2373.48,336.9437 2852.87,372.8337 3247,444.5137 C3251.52,445.3337 3256.13,446.2337 3260.78,447.1737 " fill="none" id="JobOpening-to-CompanyName" style="stroke:#000000;stroke-width:1.0;"/><polygon fill="#000000" points="3265.84,448.2237,3257.8376,442.4824,3260.9438,447.2102,3256.216,450.3163,3265.84,448.2237" style="stroke:#000000;stroke-width:1.0;"/><text fill="#000000" font-family="sans-serif" font-size="20" lengthAdjust="spacing" textLength="35" x="3065" y="409.0781">has</text><text fill="#000000" font-family="sans-serif" font-size="20" lengthAdjust="spacing" textLength="13" x="2198.5456" y="320.1147">1</text><text fill="#000000" font-family="sans-serif" font-size="20" lengthAdjust="spacing" textLength="13" x="3245.1332" y="441.0372">1</text></g><!--link JobOpening to NumberOfVacancies--><g id="link_JobOpening_NumberOfVacancies"><path codeLine="73" d="M2190.65,345.8737 C2270.37,372.5937 2395.75,414.6137 2479.62,442.7237 " fill="none" id="JobOpening-to-NumberOfVacancies" style="stroke:#000000;stroke-width:1.0;"/><polygon fill="#000000" points="2484.59,444.3937,2477.3228,437.7463,2479.848,442.8082,2474.7861,445.3335,2484.59,444.3937" style="stroke:#000000;stroke-width:1.0;"/><text fill="#000000" font-family="sans-serif" font-size="20" lengthAdjust="spacing" textLength="35" x="2396" y="409.0781">has</text><text fill="#000000" font-family="sans-serif" font-size="20" lengthAdjust="spacing" textLength="13" x="2198.4799" y="368.0675">1</text><text fill="#000000" font-family="sans-serif" font-size="20" lengthAdjust="spacing" textLength="13" x="2453.2523" y="431.7575">1</text></g><!--link JobOpening to JobDescription--><g id="link_JobOpening_JobDescription"><path codeLine="74" d="M2190.55,335.3137 C2302.85,357.5537 2520.33,401.6037 2704,444.5137 C2708.09,445.4737 2712.27,446.4637 2716.49,447.4837 " fill="none" id="JobOpening-to-JobDescription" style="stroke:#000000;stroke-width:1.0;"/><polygon fill="#000000" points="2721.45,448.6937,2713.6554,442.6734,2716.5926,447.5079,2711.7581,450.4452,2721.45,448.6937" style="stroke:#000000;stroke-width:1.0;"/><text fill="#000000" font-family="sans-serif" font-size="20" lengthAdjust="spacing" textLength="35" x="2561" y="409.0781">has</text><text fill="#000000" font-family="sans-serif" font-size="20" lengthAdjust="spacing" textLength="13" x="2198.6268" y="356.587">1</text><text fill="#000000" font-family="sans-serif" font-size="20" lengthAdjust="spacing" textLength="13" x="2700.4959" y="441.3215">1</text></g><!--link JobOpening to RequirementSpecification--><g id="link_JobOpening_RequirementSpecification"><path codeLine="75" d="M2190.66,330.4237 C2287.01,343.2237 2458.59,366.5737 2605,389.5137 C2714.02,406.5937 2836.66,427.8037 2930.42,444.4337 " fill="none" id="JobOpening-to-RequirementSpecification" style="stroke:#000000;stroke-width:1.0;"/><polygon fill="#000000" points="2935.43,445.3237,2927.2667,439.8137,2930.5068,444.4507,2925.8698,447.6908,2935.43,445.3237" style="stroke:#000000;stroke-width:1.0;"/><text fill="#000000" font-family="sans-serif" font-size="20" lengthAdjust="spacing" textLength="35" x="2751" y="409.0781">has</text><text fill="#000000" font-family="sans-serif" font-size="20" lengthAdjust="spacing" textLength="13" x="2198.4909" y="325.9527">1</text><text fill="#000000" font-family="sans-serif" font-size="20" lengthAdjust="spacing" textLength="13" x="2914.4858" y="438.8859">1</text></g><!--link JobOpening to Interview--><g id="link_JobOpening_Interview"><path codeLine="76" d="M2039.42,324.3437 C1888.04,333.6837 1555.78,363.1737 1482,444.5137 C1447.36,482.7037 1448.64,545.0337 1454.68,587.1237 " fill="none" id="JobOpening-to-Interview" style="stroke:#000000;stroke-width:1.0;"/><polygon fill="#000000" points="1455.44,592.1537,1458.0353,582.6529,1454.6851,587.211,1450.127,583.8608,1455.44,592.1537" style="stroke:#000000;stroke-width:1.0;"/><text fill="#000000" font-family="sans-serif" font-size="20" lengthAdjust="spacing" textLength="90" x="1483" y="480.0781">can have</text><text fill="#000000" font-family="sans-serif" font-size="20" lengthAdjust="spacing" textLength="13" x="2018.5968" y="344.4854">1</text><text fill="#000000" font-family="sans-serif" font-size="20" lengthAdjust="spacing" textLength="13" x="1440.1339" y="579.8106">1</text></g><!--link Application to ApplicationDate--><g id="link_Application_ApplicationDate"><path codeLine="79" d="M131.22,166.6237 C163.24,202.1837 209.88,253.9737 239.58,286.9537 " fill="none" id="Application-to-ApplicationDate" style="stroke:#000000;stroke-width:1.0;"/><polygon fill="#000000" points="243.12,290.8837,240.0725,281.5182,239.7752,287.1672,234.1261,286.8699,243.12,290.8837" style="stroke:#000000;stroke-width:1.0;"/><text fill="#000000" font-family="sans-serif" font-size="20" lengthAdjust="spacing" textLength="35" x="178" y="216.0781">has</text><text fill="#000000" font-family="sans-serif" font-size="20" lengthAdjust="spacing" textLength="13" x="122.4383" y="192.8005">1</text><text fill="#000000" font-family="sans-serif" font-size="20" lengthAdjust="spacing" textLength="13" x="223.6479" y="278.2454">1</text></g><!--link Application to ApplicationNumber--><g id="link_Application_ApplicationNumber"><path codeLine="80" d="M170.26,160.0137 C175.9,162.2737 181.53,164.4637 187,166.5137 C272.7,198.5737 300.69,189.5437 383,229.5137 C416.02,245.5537 450.31,268.9037 475.66,287.6637 " fill="none" id="Application-to-ApplicationNumber" style="stroke:#000000;stroke-width:1.0;"/><polygon fill="#000000" points="479.97,290.8737,475.1357,282.2929,475.958,287.8897,470.3613,288.7121,479.97,290.8737" style="stroke:#000000;stroke-width:1.0;"/><text fill="#000000" font-family="sans-serif" font-size="20" lengthAdjust="spacing" textLength="35" x="366" y="216.0781">has</text><text fill="#000000" font-family="sans-serif" font-size="20" lengthAdjust="spacing" textLength="13" x="177.9574" y="182.888">1</text><text fill="#000000" font-family="sans-serif" font-size="20" lengthAdjust="spacing" textLength="13" x="458.4044" y="278.2334">1</text></g><!--link Application to Result--><g id="link_Application_Result"><path codeLine="81" d="M92.52,166.6237 C89.39,201.7437 84.86,252.7137 81.92,285.7437 " fill="none" id="Application-to-Result" style="stroke:#000000;stroke-width:1.0;"/><polygon fill="#000000" points="81.46,290.8837,86.2406,282.2729,81.9024,285.9033,78.272,281.5651,81.46,290.8837" style="stroke:#000000;stroke-width:1.0;"/><text fill="#000000" font-family="sans-serif" font-size="20" lengthAdjust="spacing" textLength="35" x="91" y="216.0781">has</text><text fill="#000000" font-family="sans-serif" font-size="20" lengthAdjust="spacing" textLength="13" x="78.0542" y="192.8005">1</text><text fill="#000000" font-family="sans-serif" font-size="20" lengthAdjust="spacing" textLength="38" x="40.0486" y="278.2454">0..1</text></g><!--link Application to JobOpening--><g id="link_Application_JobOpening"><path codeLine="82" d="M170.01,161.7637 C175.69,163.6037 181.39,165.2237 187,166.5137 C482.75,234.3637 1249.12,198.8137 1551,229.5137 C1724.04,247.1137 1924.83,282.3937 2034.04,302.8537 " fill="none" id="Application-to-JobOpening" style="stroke:#000000;stroke-width:1.0;"/><polygon fill="#000000" points="2039.17,303.8137,2031.0535,298.235,2034.2543,302.8991,2029.5902,306.1,2039.17,303.8137" style="stroke:#000000;stroke-width:1.0;"/><text fill="#000000" font-family="sans-serif" font-size="20" lengthAdjust="spacing" textLength="27" x="1425" y="216.0781">for</text><text fill="#000000" font-family="sans-serif" font-size="20" lengthAdjust="spacing" textLength="13" x="177.9352" y="159.6875">1</text><text fill="#000000" font-family="sans-serif" font-size="20" lengthAdjust="spacing" textLength="13" x="2018.5802" y="296.8908">1</text></g><!--link Application to Candidate--><g id="link_Application_Candidate"><path codeLine="83" d="M170.23,162.0137 C175.83,163.7837 181.46,165.3137 187,166.5137 C228.55,175.4937 3204.6,226.5137 3247,229.5137 C3489.24,246.6737 3774.35,287.1737 3906.24,307.0737 " fill="none" id="Application-to-Candidate" style="stroke:#000000;stroke-width:1.0;"/><polygon fill="#000000" points="3911.25,307.8337,3902.9594,302.5171,3906.3076,307.0766,3901.7481,310.4248,3911.25,307.8337" style="stroke:#000000;stroke-width:1.0;"/><text fill="#000000" font-family="sans-serif" font-size="20" lengthAdjust="spacing" textLength="47" x="2792" y="216.0781">from</text><text fill="#000000" font-family="sans-serif" font-size="20" lengthAdjust="spacing" textLength="13" x="174.5858" y="192.6779">1</text><text fill="#000000" font-family="sans-serif" font-size="20" lengthAdjust="spacing" textLength="13" x="3890.4898" y="301.0302">1</text></g><!--link Candidate to FirstName--><g id="link_Candidate_FirstName"><path codeLine="86" d="M3984.89,359.5337 C3987.98,384.1437 3991.92,415.5837 3994.86,438.9737 " fill="none" id="Candidate-to-FirstName" style="stroke:#000000;stroke-width:1.0;"/><polygon fill="#000000" points="3995.5,444.1337,3998.3661,434.7111,3994.8868,439.1714,3990.4265,435.6921,3995.5,444.1337" style="stroke:#000000;stroke-width:1.0;"/><text fill="#000000" font-family="sans-serif" font-size="20" lengthAdjust="spacing" textLength="35" x="3992" y="409.0781">has</text><text fill="#000000" font-family="sans-serif" font-size="20" lengthAdjust="spacing" textLength="13" x="3971.6435" y="386.0206">1</text><text fill="#000000" font-family="sans-serif" font-size="20" lengthAdjust="spacing" textLength="13" x="3980.5313" y="431.8191">1</text></g><!--link Candidate to LastName--><g id="link_Candidate_LastName"><path codeLine="87" d="M4038.97,359.5337 C4077.56,385.0537 4127.24,417.9237 4162.93,441.5337 " fill="none" id="Candidate-to-LastName" style="stroke:#000000;stroke-width:1.0;"/><polygon fill="#000000" points="4167.21,444.3637,4161.9074,436.0641,4163.0388,441.6067,4157.4962,442.738,4167.21,444.3637" style="stroke:#000000;stroke-width:1.0;"/><text fill="#000000" font-family="sans-serif" font-size="20" lengthAdjust="spacing" textLength="35" x="4122" y="409.0781">has</text><text fill="#000000" font-family="sans-serif" font-size="20" lengthAdjust="spacing" textLength="13" x="4034.0045" y="386.0206">1</text><text fill="#000000" font-family="sans-serif" font-size="20" lengthAdjust="spacing" textLength="13" x="4144.2502" y="431.7213">1</text></g><!--link Candidate to PhoneNumber--><g id="link_Candidate_PhoneNumber"><path codeLine="88" d="M3911.35,346.3837 C3840.47,373.0937 3730.07,414.7037 3655.95,442.6337 " fill="none" id="Candidate-to-PhoneNumber" style="stroke:#000000;stroke-width:1.0;"/><polygon fill="#000000" points="3651.13,444.4537,3660.9615,445.0389,3655.8116,442.6981,3658.1525,437.5482,3651.13,444.4537" style="stroke:#000000;stroke-width:1.0;"/><text fill="#000000" font-family="sans-serif" font-size="20" lengthAdjust="spacing" textLength="35" x="3792" y="409.0781">has</text><text fill="#000000" font-family="sans-serif" font-size="20" lengthAdjust="spacing" textLength="13" x="3890.6002" y="343.5557">1</text><text fill="#000000" font-family="sans-serif" font-size="20" lengthAdjust="spacing" textLength="13" x="3651.8724" y="431.8299">1</text></g><!--link Candidate to Email--><g id="link_Candidate_Email"><path codeLine="89" d="M3930.81,359.5337 C3898.76,384.9537 3857.53,417.6637 3827.79,441.2437 " fill="none" id="Candidate-to-Email" style="stroke:#000000;stroke-width:1.0;"/><polygon fill="#000000" points="3823.86,444.3637,3833.4031,441.9287,3827.7851,441.2664,3828.4474,435.6484,3823.86,444.3637" style="stroke:#000000;stroke-width:1.0;"/><text fill="#000000" font-family="sans-serif" font-size="20" lengthAdjust="spacing" textLength="35" x="3891" y="409.0781">has</text><text fill="#000000" font-family="sans-serif" font-size="20" lengthAdjust="spacing" textLength="13" x="3909.2825" y="386.0206">1</text><text fill="#000000" font-family="sans-serif" font-size="20" lengthAdjust="spacing" textLength="13" x="3816.7093" y="431.7213">1</text></g><!--SRC=[dLPTRvim57tdLrZPGpTfhP9g7rs4AeK4f5LRCxLTtnrp8Mx1PhP9bLNxxxCXW6492SjB57FEzVqud1lvJ5c61KuJJfuXH254E4zKm9cwfxy1NOuTHr6L05hm55E6llCG4dIEVjvFnfSJnrdJ412acTgY5D8L2EcSoIee-aOPg6q6Y0krvexJF249bXAzEaX_F4oUOy5p5ivvmeNhRd2ImtBr14HTNwCtYq_-BBZQ3nMS5vXWuNkByNwC1B6X18fGa-3Iz_R1T0W_-E9_BfxDXE0lvR6NQ9ppnt7AZESypJ3Rtk8KK3THrttx-5x72Qwy3-Dt-k1LqyxG3L-XPGQCiXZDubX0Z1KucGwBOq0ZryNLeQPOuD6kFS3q1BRcIHN5TSkpuivT1ynT1bscgS5t4840HaxBiw4-c74lHP0peYXd0zbphHo1YNemKnz6DT8QIBdDZUIMqICcc14ASY1Vjsa1aWYQ3IfrDv4x-9LJ0Qd-UPy1eH4bU1UddezcrDgPXQ40ULgE5UV7cZCeopo9Lx9y_Qucf-fpbcL9bVbHVLhWZZxjC0S4skgTr3xJwPGr6IlQGjyySAuMUq3l6luoLuIdGs-zoQMoHN12zmsPSLsVeF5Q8HvLLq_h7BIoqGfCIO9lj4LhJxe34nF2Xfv0LB1RAKnh8E9bC8bI3K1hl064qPCDTWejp34BQMWQVbG9DRIZWoR4SPiAg93gP2zjUD_m05fHs5Ucp1Q0b-E5rT1EOKs8uuNLsFyGRyrze4CgjDUCWAGOgbpJJ3hMvXXDHkZy_BhuRks8gHR5GMHt9VI2MnkW5raOVY-YSimZ5pOhkHVuxxReXNUMGo_sq2hOJmhv2wkOZQgcnQjktiskAxV7QJzfDQjZcUNT9w1t5jc37rzS54KMdjqVrwfrYY8k3W8Rdz0umTEs_RHBRixj28rxb2djHzLUqGUorsmVhboi9SBwDrivoUl-VvQ-5tmCFFEQ_WK0]--></g></svg>