<?xml version="1.0" encoding="UTF-8" standalone="no"?><svg xmlns="http://www.w3.org/2000/svg" xmlns:xlink="http://www.w3.org/1999/xlink" contentStyleType="text/css" height="1497px" preserveAspectRatio="none" style="width:2683px;height:1497px;background:#FFFFFF;" version="1.1" viewBox="0 0 2683 1497" width="2683px" zoomAndPan="magnify"><defs/><g><text fill="#000000" font-family="sans-serif" font-size="14" font-weight="bold" lengthAdjust="spacing" textLength="318" x="1184" y="27.9951">US1000 - SD - Register Backoffice Users</text><rect fill="#FFFFFF" height="1256.25" style="stroke:#181818;stroke-width:1.0;" width="10" x="191" y="135.5781"/><rect fill="#FFFFFF" height="107.125" style="stroke:#181818;stroke-width:1.0;" width="10" x="370.5" y="234.7031"/><rect fill="#FFFFFF" height="853.0313" style="stroke:#181818;stroke-width:1.0;" width="10" x="370.5" y="538.7969"/><rect fill="#FFFFFF" height="769.1875" style="stroke:#181818;stroke-width:1.0;" width="10" x="899.5" y="538.7969"/><rect fill="#FFFFFF" height="691.3438" style="stroke:#181818;stroke-width:1.0;" width="10" x="1511.5" y="616.6406"/><rect fill="#FFFFFF" height="355.8125" style="stroke:#181818;stroke-width:1.0;" width="10" x="2090.5" y="653.9219"/><rect fill="#FFFFFF" height="186.4063" style="stroke:#181818;stroke-width:1.0;" width="10" x="2278.5" y="1047.0156"/><rect fill="#FFFFFF" height="111.8438" style="stroke:#181818;stroke-width:1.0;" width="10" x="2469" y="1084.2969"/><rect fill="none" height="419.6563" style="stroke:#000000;stroke-width:1.5;" width="1969" x="232" y="553.7969"/><line style="stroke:#181818;stroke-width:0.5;stroke-dasharray:5.0,5.0;" x1="196" x2="196" y1="125.5781" y2="1409.8281"/><line style="stroke:#181818;stroke-width:0.5;stroke-dasharray:5.0,5.0;" x1="375" x2="375" y1="125.5781" y2="1409.8281"/><line style="stroke:#181818;stroke-width:0.5;stroke-dasharray:5.0,5.0;" x1="904" x2="904" y1="125.5781" y2="1409.8281"/><line style="stroke:#181818;stroke-width:0.5;stroke-dasharray:5.0,5.0;" x1="1516.5" x2="1516.5" y1="125.5781" y2="1409.8281"/><line style="stroke:#181818;stroke-width:0.5;stroke-dasharray:5.0,5.0;" x1="2095" x2="2095" y1="125.5781" y2="1409.8281"/><line style="stroke:#181818;stroke-width:0.5;stroke-dasharray:5.0,5.0;" x1="2283" x2="2283" y1="125.5781" y2="1409.8281"/><line style="stroke:#181818;stroke-width:0.5;stroke-dasharray:5.0,5.0;" x1="2474" x2="2474" y1="125.5781" y2="1409.8281"/><line style="stroke:#181818;stroke-width:0.5;stroke-dasharray:5.0,5.0;" x1="2632" x2="2632" y1="125.5781" y2="1409.8281"/><text fill="#000000" font-family="sans-serif" font-size="20" lengthAdjust="spacing" text-decoration="underline" textLength="66" x="160" y="120.8613">Admin</text><ellipse cx="196" cy="50.7969" fill="#E2E2F0" rx="8" ry="8" style="stroke:#181818;stroke-width:0.5;"/><path d="M196,58.7969 L196,85.7969 M183,66.7969 L209,66.7969 M196,85.7969 L183,100.7969 M196,85.7969 L209,100.7969 " fill="none" style="stroke:#181818;stroke-width:0.5;"/><text fill="#000000" font-family="sans-serif" font-size="20" lengthAdjust="spacing" text-decoration="underline" textLength="66" x="160" y="1427.3926">Admin</text><ellipse cx="196" cy="1440.6094" fill="#E2E2F0" rx="8" ry="8" style="stroke:#181818;stroke-width:0.5;"/><path d="M196,1448.6094 L196,1475.6094 M183,1456.6094 L209,1456.6094 M196,1475.6094 L183,1490.6094 M196,1475.6094 L209,1490.6094 " fill="none" style="stroke:#181818;stroke-width:0.5;"/><rect fill="#E2E2F0" height="37.2813" rx="2.5" ry="2.5" style="stroke:#181818;stroke-width:0.5;" width="267" x="242" y="87.2969"/><text fill="#000000" font-family="sans-serif" font-size="20" lengthAdjust="spacing" text-decoration="underline" textLength="253" x="249" y="112.8613">RegisterBackofficeUserUI</text><rect fill="#E2E2F0" height="37.2813" rx="2.5" ry="2.5" style="stroke:#181818;stroke-width:0.5;" width="267" x="242" y="1408.8281"/><text fill="#000000" font-family="sans-serif" font-size="20" lengthAdjust="spacing" text-decoration="underline" textLength="253" x="249" y="1434.3926">RegisterBackofficeUserUI</text><rect fill="#E2E2F0" height="37.2813" rx="2.5" ry="2.5" style="stroke:#181818;stroke-width:0.5;" width="345" x="732" y="87.2969"/><text fill="#000000" font-family="sans-serif" font-size="20" lengthAdjust="spacing" text-decoration="underline" textLength="331" x="739" y="112.8613">RegisterBackofficeUserController</text><rect fill="#E2E2F0" height="37.2813" rx="2.5" ry="2.5" style="stroke:#181818;stroke-width:0.5;" width="345" x="732" y="1408.8281"/><text fill="#000000" font-family="sans-serif" font-size="20" lengthAdjust="spacing" text-decoration="underline" textLength="331" x="739" y="1434.3926">RegisterBackofficeUserController</text><rect fill="#E2E2F0" height="37.2813" rx="2.5" ry="2.5" style="stroke:#181818;stroke-width:0.5;" width="264" x="1384.5" y="87.2969"/><text fill="#000000" font-family="sans-serif" font-size="20" lengthAdjust="spacing" text-decoration="underline" textLength="250" x="1391.5" y="112.8613">UserManagementService</text><rect fill="#E2E2F0" height="37.2813" rx="2.5" ry="2.5" style="stroke:#181818;stroke-width:0.5;" width="264" x="1384.5" y="1408.8281"/><text fill="#000000" font-family="sans-serif" font-size="20" lengthAdjust="spacing" text-decoration="underline" textLength="250" x="1391.5" y="1434.3926">UserManagementService</text><rect fill="#E2E2F0" height="37.2813" rx="2.5" ry="2.5" style="stroke:#181818;stroke-width:0.5;" width="191" x="2000" y="87.2969"/><text fill="#000000" font-family="sans-serif" font-size="20" lengthAdjust="spacing" text-decoration="underline" textLength="177" x="2007" y="112.8613">UserTypesFactory</text><rect fill="#E2E2F0" height="37.2813" rx="2.5" ry="2.5" style="stroke:#181818;stroke-width:0.5;" width="191" x="2000" y="1408.8281"/><text fill="#000000" font-family="sans-serif" font-size="20" lengthAdjust="spacing" text-decoration="underline" textLength="177" x="2007" y="1434.3926">UserTypesFactory</text><rect fill="#E2E2F0" height="37.2813" rx="2.5" ry="2.5" style="stroke:#181818;stroke-width:0.5;" width="165" x="2201" y="87.2969"/><text fill="#000000" font-family="sans-serif" font-size="20" lengthAdjust="spacing" text-decoration="underline" textLength="151" x="2208" y="112.8613">UserRepository</text><rect fill="#E2E2F0" height="37.2813" rx="2.5" ry="2.5" style="stroke:#181818;stroke-width:0.5;" width="165" x="2201" y="1408.8281"/><text fill="#000000" font-family="sans-serif" font-size="20" lengthAdjust="spacing" text-decoration="underline" textLength="151" x="2208" y="1434.3926">UserRepository</text><rect fill="#E2E2F0" height="37.2813" rx="2.5" ry="2.5" style="stroke:#181818;stroke-width:0.5;" width="196" x="2376" y="87.2969"/><text fill="#000000" font-family="sans-serif" font-size="20" lengthAdjust="spacing" text-decoration="underline" textLength="182" x="2383" y="112.8613">JpaUserRepository</text><rect fill="#E2E2F0" height="37.2813" rx="2.5" ry="2.5" style="stroke:#181818;stroke-width:0.5;" width="196" x="2376" y="1408.8281"/><text fill="#000000" font-family="sans-serif" font-size="20" lengthAdjust="spacing" text-decoration="underline" textLength="182" x="2383" y="1434.3926">JpaUserRepository</text><text fill="#000000" font-family="sans-serif" font-size="20" lengthAdjust="spacing" text-decoration="underline" textLength="94" x="2582" y="120.8613">Database</text><path d="M2614,66.2969 C2614,56.2969 2632,56.2969 2632,56.2969 C2632,56.2969 2650,56.2969 2650,66.2969 L2650,92.2969 C2650,102.2969 2632,102.2969 2632,102.2969 C2632,102.2969 2614,102.2969 2614,92.2969 L2614,66.2969 " fill="#E2E2F0" style="stroke:#181818;stroke-width:1.5;"/><path d="M2614,66.2969 C2614,76.2969 2632,76.2969 2632,76.2969 C2632,76.2969 2650,76.2969 2650,66.2969 " fill="none" style="stroke:#181818;stroke-width:1.5;"/><text fill="#000000" font-family="sans-serif" font-size="20" lengthAdjust="spacing" text-decoration="underline" textLength="94" x="2582" y="1427.3926">Database</text><path d="M2614,1442.1094 C2614,1432.1094 2632,1432.1094 2632,1432.1094 C2632,1432.1094 2650,1432.1094 2650,1442.1094 L2650,1468.1094 C2650,1478.1094 2632,1478.1094 2632,1478.1094 C2632,1478.1094 2614,1478.1094 2614,1468.1094 L2614,1442.1094 " fill="#E2E2F0" style="stroke:#181818;stroke-width:1.5;"/><path d="M2614,1442.1094 C2614,1452.1094 2632,1452.1094 2632,1452.1094 C2632,1452.1094 2650,1452.1094 2650,1442.1094 " fill="none" style="stroke:#181818;stroke-width:1.5;"/><rect fill="#FFFFFF" height="1256.25" style="stroke:#181818;stroke-width:1.0;" width="10" x="191" y="135.5781"/><rect fill="#FFFFFF" height="107.125" style="stroke:#181818;stroke-width:1.0;" width="10" x="370.5" y="234.7031"/><rect fill="#FFFFFF" height="853.0313" style="stroke:#181818;stroke-width:1.0;" width="10" x="370.5" y="538.7969"/><rect fill="#FFFFFF" height="769.1875" style="stroke:#181818;stroke-width:1.0;" width="10" x="899.5" y="538.7969"/><rect fill="#FFFFFF" height="691.3438" style="stroke:#181818;stroke-width:1.0;" width="10" x="1511.5" y="616.6406"/><rect fill="#FFFFFF" height="355.8125" style="stroke:#181818;stroke-width:1.0;" width="10" x="2090.5" y="653.9219"/><rect fill="#FFFFFF" height="186.4063" style="stroke:#181818;stroke-width:1.0;" width="10" x="2278.5" y="1047.0156"/><rect fill="#FFFFFF" height="111.8438" style="stroke:#181818;stroke-width:1.0;" width="10" x="2469" y="1084.2969"/><polygon fill="#181818" points="358.5,230.7031,368.5,234.7031,358.5,238.7031,362.5,234.7031" style="stroke:#181818;stroke-width:1.0;"/><line style="stroke:#181818;stroke-width:1.0;" x1="201" x2="364.5" y1="234.7031" y2="234.7031"/><text fill="#000000" font-family="sans-serif" font-size="20" lengthAdjust="spacing" textLength="46" x="208" y="158.1426">Asks</text><text fill="#000000" font-family="sans-serif" font-size="20" lengthAdjust="spacing" textLength="6" x="254" y="158.1426"> </text><text fill="#000000" font-family="sans-serif" font-size="20" lengthAdjust="spacing" textLength="20" x="260" y="158.1426">to</text><text fill="#000000" font-family="sans-serif" font-size="20" lengthAdjust="spacing" textLength="77" x="208" y="181.4238">register</text><text fill="#000000" font-family="sans-serif" font-size="20" lengthAdjust="spacing" textLength="6" x="285" y="181.4238"> </text><text fill="#000000" font-family="sans-serif" font-size="20" lengthAdjust="spacing" textLength="25" x="291" y="181.4238">an</text><text fill="#000000" font-family="sans-serif" font-size="20" lengthAdjust="spacing" textLength="45" x="208" y="204.7051">User</text><text fill="#000000" font-family="sans-serif" font-size="20" lengthAdjust="spacing" textLength="6" x="253" y="204.7051"> </text><text fill="#000000" font-family="sans-serif" font-size="20" lengthAdjust="spacing" textLength="19" x="259" y="204.7051">of</text><text fill="#000000" font-family="sans-serif" font-size="20" lengthAdjust="spacing" textLength="6" x="278" y="204.7051"> </text><text fill="#000000" font-family="sans-serif" font-size="20" lengthAdjust="spacing" textLength="33" x="284" y="204.7051">the</text><text fill="#000000" font-family="sans-serif" font-size="20" lengthAdjust="spacing" textLength="104" x="208" y="227.9863">Backoffice</text><polygon fill="#181818" points="212,337.8281,202,341.8281,212,345.8281,208,341.8281" style="stroke:#181818;stroke-width:1.0;"/><line style="stroke:#181818;stroke-width:1.0;stroke-dasharray:2.0,2.0;" x1="206" x2="374.5" y1="341.8281" y2="341.8281"/><text fill="#000000" font-family="sans-serif" font-size="20" lengthAdjust="spacing" textLength="46" x="218" y="265.2676">Asks</text><text fill="#000000" font-family="sans-serif" font-size="20" lengthAdjust="spacing" textLength="6" x="264" y="265.2676"> </text><text fill="#000000" font-family="sans-serif" font-size="20" lengthAdjust="spacing" textLength="27" x="270" y="265.2676">for</text><text fill="#000000" font-family="sans-serif" font-size="20" lengthAdjust="spacing" textLength="117" x="218" y="288.5488">information</text><text fill="#000000" font-family="sans-serif" font-size="20" lengthAdjust="spacing" textLength="71" x="218" y="311.8301">(name,</text><text fill="#000000" font-family="sans-serif" font-size="20" lengthAdjust="spacing" textLength="6" x="289" y="311.8301"> </text><text fill="#000000" font-family="sans-serif" font-size="20" lengthAdjust="spacing" textLength="62" x="295" y="311.8301">email,</text><text fill="#000000" font-family="sans-serif" font-size="20" lengthAdjust="spacing" textLength="46" x="218" y="335.1113">role)</text><path d="M5,354.8281 L5,480.8281 L371,480.8281 L371,364.8281 L361,354.8281 L5,354.8281 " fill="#FEFFDD" style="stroke:#181818;stroke-width:0.5;"/><path d="M361,354.8281 L361,364.8281 L371,364.8281 L361,354.8281 " fill="#FEFFDD" style="stroke:#181818;stroke-width:0.5;"/><text fill="#000000" font-family="sans-serif" font-size="20" lengthAdjust="spacing" textLength="257" x="11" y="378.3926">The Admin has to provide</text><text fill="#000000" font-family="sans-serif" font-size="20" lengthAdjust="spacing" textLength="246" x="11" y="401.6738">the name and email and</text><text fill="#000000" font-family="sans-serif" font-size="20" lengthAdjust="spacing" textLength="253" x="11" y="424.9551">must pick a role from the</text><text fill="#000000" font-family="sans-serif" font-size="20" lengthAdjust="spacing" textLength="205" x="11" y="448.2363">list of available roles</text><text fill="#000000" font-family="sans-serif" font-size="20" lengthAdjust="spacing" textLength="345" x="11" y="471.5176">(Customer Manager and Operator)</text><polygon fill="#181818" points="358.5,534.7969,368.5,538.7969,358.5,542.7969,362.5,538.7969" style="stroke:#181818;stroke-width:1.0;"/><line style="stroke:#181818;stroke-width:1.0;" x1="201" x2="364.5" y1="538.7969" y2="538.7969"/><text fill="#000000" font-family="sans-serif" font-size="20" lengthAdjust="spacing" textLength="84" x="208" y="508.7988">Provides</text><text fill="#000000" font-family="sans-serif" font-size="20" lengthAdjust="spacing" textLength="117" x="208" y="532.0801">information</text><path d="M232,553.7969 L308,553.7969 L308,569.0781 L298,579.0781 L232,579.0781 L232,553.7969 " fill="#EEEEEE" style="stroke:#000000;stroke-width:1.5;"/><rect fill="none" height="419.6563" style="stroke:#000000;stroke-width:1.5;" width="1969" x="232" y="553.7969"/><text fill="#000000" font-family="sans-serif" font-size="20" font-weight="bold" lengthAdjust="spacing" textLength="31" x="247" y="573.3613">alt</text><text fill="#000000" font-family="sans-serif" font-size="20" font-weight="bold" lengthAdjust="spacing" textLength="472" x="323" y="574.3613">[IF Role.Operator.toString().equals(role)]</text><polygon fill="#181818" points="887.5,612.6406,897.5,616.6406,887.5,620.6406,891.5,616.6406" style="stroke:#181818;stroke-width:1.0;"/><line style="stroke:#181818;stroke-width:1.0;" x1="380.5" x2="893.5" y1="616.6406" y2="616.6406"/><text fill="#000000" font-family="sans-serif" font-size="20" lengthAdjust="spacing" textLength="393" x="387.5" y="609.9238">addManager(email,password,fullname)</text><polygon fill="#181818" points="1499.5,649.9219,1509.5,653.9219,1499.5,657.9219,1503.5,653.9219" style="stroke:#181818;stroke-width:1.0;"/><line style="stroke:#181818;stroke-width:1.0;" x1="909.5" x2="1505.5" y1="653.9219" y2="653.9219"/><text fill="#000000" font-family="sans-serif" font-size="20" lengthAdjust="spacing" textLength="476" x="916.5" y="647.2051">registerNewManager(email,password,fullname)</text><polygon fill="#181818" points="2078.5,687.2031,2088.5,691.2031,2078.5,695.2031,2082.5,691.2031" style="stroke:#181818;stroke-width:1.0;"/><line style="stroke:#181818;stroke-width:1.0;" x1="1521.5" x2="2084.5" y1="691.2031" y2="691.2031"/><text fill="#000000" font-family="sans-serif" font-size="20" lengthAdjust="spacing" textLength="443" x="1528.5" y="684.4863">withRoleManager(email,password,fullname)</text><line style="stroke:#000000;stroke-width:1.0;stroke-dasharray:2.0,2.0;" x1="232" x2="2201" y1="700.2031" y2="700.2031"/><text fill="#000000" font-family="sans-serif" font-size="20" font-weight="bold" lengthAdjust="spacing" textLength="579" x="237" y="718.7676">[IF Role.CustomerManager.toString().equals(role)]</text><polygon fill="#181818" points="887.5,749.7656,897.5,753.7656,887.5,757.7656,891.5,753.7656" style="stroke:#181818;stroke-width:1.0;"/><line style="stroke:#181818;stroke-width:1.0;" x1="380.5" x2="893.5" y1="753.7656" y2="753.7656"/><text fill="#000000" font-family="sans-serif" font-size="20" lengthAdjust="spacing" textLength="490" x="387.5" y="747.0488">addCustomerManager(email,password,fullname)</text><polygon fill="#181818" points="1499.5,787.0469,1509.5,791.0469,1499.5,795.0469,1503.5,791.0469" style="stroke:#181818;stroke-width:1.0;"/><line style="stroke:#181818;stroke-width:1.0;" x1="909.5" x2="1505.5" y1="791.0469" y2="791.0469"/><text fill="#000000" font-family="sans-serif" font-size="20" lengthAdjust="spacing" textLength="573" x="916.5" y="784.3301">registerNewCustomerManager(email,password,fullname)</text><polygon fill="#181818" points="2078.5,824.3281,2088.5,828.3281,2078.5,832.3281,2082.5,828.3281" style="stroke:#181818;stroke-width:1.0;"/><line style="stroke:#181818;stroke-width:1.0;" x1="1521.5" x2="2084.5" y1="828.3281" y2="828.3281"/><text fill="#000000" font-family="sans-serif" font-size="20" lengthAdjust="spacing" textLength="540" x="1528.5" y="821.6113">withRoleCustomerManager(email,password,fullname)</text><line style="stroke:#000000;stroke-width:1.0;stroke-dasharray:2.0,2.0;" x1="232" x2="2201" y1="837.3281" y2="837.3281"/><text fill="#000000" font-family="sans-serif" font-size="20" font-weight="bold" lengthAdjust="spacing" textLength="581" x="237" y="855.8926">[IF Role.LanguageEngineer.toString().equals(role)]</text><polygon fill="#181818" points="887.5,886.8906,897.5,890.8906,887.5,894.8906,891.5,890.8906" style="stroke:#181818;stroke-width:1.0;"/><line style="stroke:#181818;stroke-width:1.0;" x1="380.5" x2="893.5" y1="890.8906" y2="890.8906"/><text fill="#000000" font-family="sans-serif" font-size="20" lengthAdjust="spacing" textLength="495" x="387.5" y="884.1738">addLanguageEngineer(email,password,fullname)</text><polygon fill="#181818" points="1499.5,924.1719,1509.5,928.1719,1499.5,932.1719,1503.5,928.1719" style="stroke:#181818;stroke-width:1.0;"/><line style="stroke:#181818;stroke-width:1.0;" x1="909.5" x2="1505.5" y1="928.1719" y2="928.1719"/><text fill="#000000" font-family="sans-serif" font-size="20" lengthAdjust="spacing" textLength="578" x="916.5" y="921.4551">registerNewLanguageEngineer(email,password,fullname)</text><polygon fill="#181818" points="2078.5,961.4531,2088.5,965.4531,2078.5,969.4531,2082.5,965.4531" style="stroke:#181818;stroke-width:1.0;"/><line style="stroke:#181818;stroke-width:1.0;" x1="1521.5" x2="2084.5" y1="965.4531" y2="965.4531"/><text fill="#000000" font-family="sans-serif" font-size="20" lengthAdjust="spacing" textLength="545" x="1528.5" y="958.7363">withRoleLanguageEngineer(email,password,fullname)</text><polygon fill="#181818" points="1532.5,1005.7344,1522.5,1009.7344,1532.5,1013.7344,1528.5,1009.7344" style="stroke:#181818;stroke-width:1.0;"/><line style="stroke:#181818;stroke-width:1.0;stroke-dasharray:2.0,2.0;" x1="1526.5" x2="2094.5" y1="1009.7344" y2="1009.7344"/><text fill="#000000" font-family="sans-serif" font-size="20" lengthAdjust="spacing" textLength="43" x="1538.5" y="1003.0176">user</text><polygon fill="#181818" points="2266.5,1043.0156,2276.5,1047.0156,2266.5,1051.0156,2270.5,1047.0156" style="stroke:#181818;stroke-width:1.0;"/><line style="stroke:#181818;stroke-width:1.0;" x1="1521.5" x2="2272.5" y1="1047.0156" y2="1047.0156"/><text fill="#000000" font-family="sans-serif" font-size="20" lengthAdjust="spacing" textLength="104" x="1528.5" y="1040.2988">save(user)</text><polygon fill="#181818" points="2457,1080.2969,2467,1084.2969,2457,1088.2969,2461,1084.2969" style="stroke:#181818;stroke-width:1.0;"/><line style="stroke:#181818;stroke-width:1.0;" x1="2288.5" x2="2463" y1="1084.2969" y2="1084.2969"/><text fill="#000000" font-family="sans-serif" font-size="20" lengthAdjust="spacing" textLength="104" x="2295.5" y="1077.5801">save(user)</text><polygon fill="#181818" points="2620,1117.5781,2630,1121.5781,2620,1125.5781,2624,1121.5781" style="stroke:#181818;stroke-width:1.0;"/><line style="stroke:#181818;stroke-width:1.0;" x1="2479" x2="2626" y1="1121.5781" y2="1121.5781"/><text fill="#000000" font-family="sans-serif" font-size="20" lengthAdjust="spacing" textLength="126" x="2486" y="1114.8613">persist(user)</text><polygon fill="#181818" points="2490,1154.8594,2480,1158.8594,2490,1162.8594,2486,1158.8594" style="stroke:#181818;stroke-width:1.0;"/><line style="stroke:#181818;stroke-width:1.0;stroke-dasharray:2.0,2.0;" x1="2484" x2="2631" y1="1158.8594" y2="1158.8594"/><text fill="#000000" font-family="sans-serif" font-size="20" lengthAdjust="spacing" textLength="62" x="2496" y="1152.1426">return</text><text fill="#000000" font-family="sans-serif" font-size="20" lengthAdjust="spacing" textLength="6" x="2558" y="1152.1426"> </text><text fill="#000000" font-family="sans-serif" font-size="20" lengthAdjust="spacing" textLength="45" x="2564" y="1152.1426">User</text><polygon fill="#181818" points="2299.5,1192.1406,2289.5,1196.1406,2299.5,1200.1406,2295.5,1196.1406" style="stroke:#181818;stroke-width:1.0;"/><line style="stroke:#181818;stroke-width:1.0;stroke-dasharray:2.0,2.0;" x1="2293.5" x2="2473" y1="1196.1406" y2="1196.1406"/><text fill="#000000" font-family="sans-serif" font-size="20" lengthAdjust="spacing" textLength="62" x="2305.5" y="1189.4238">return</text><text fill="#000000" font-family="sans-serif" font-size="20" lengthAdjust="spacing" textLength="6" x="2367.5" y="1189.4238"> </text><text fill="#000000" font-family="sans-serif" font-size="20" lengthAdjust="spacing" textLength="45" x="2373.5" y="1189.4238">User</text><polygon fill="#181818" points="1532.5,1229.4219,1522.5,1233.4219,1532.5,1237.4219,1528.5,1233.4219" style="stroke:#181818;stroke-width:1.0;"/><line style="stroke:#181818;stroke-width:1.0;stroke-dasharray:2.0,2.0;" x1="1526.5" x2="2282.5" y1="1233.4219" y2="1233.4219"/><text fill="#000000" font-family="sans-serif" font-size="20" lengthAdjust="spacing" textLength="62" x="1538.5" y="1226.7051">return</text><text fill="#000000" font-family="sans-serif" font-size="20" lengthAdjust="spacing" textLength="6" x="1600.5" y="1226.7051"> </text><text fill="#000000" font-family="sans-serif" font-size="20" lengthAdjust="spacing" textLength="45" x="1606.5" y="1226.7051">User</text><polygon fill="#181818" points="920.5,1266.7031,910.5,1270.7031,920.5,1274.7031,916.5,1270.7031" style="stroke:#181818;stroke-width:1.0;"/><line style="stroke:#181818;stroke-width:1.0;stroke-dasharray:2.0,2.0;" x1="914.5" x2="1510.5" y1="1270.7031" y2="1270.7031"/><text fill="#000000" font-family="sans-serif" font-size="20" lengthAdjust="spacing" textLength="62" x="926.5" y="1263.9863">return</text><text fill="#000000" font-family="sans-serif" font-size="20" lengthAdjust="spacing" textLength="6" x="988.5" y="1263.9863"> </text><text fill="#000000" font-family="sans-serif" font-size="20" lengthAdjust="spacing" textLength="45" x="994.5" y="1263.9863">User</text><polygon fill="#181818" points="391.5,1303.9844,381.5,1307.9844,391.5,1311.9844,387.5,1307.9844" style="stroke:#181818;stroke-width:1.0;"/><line style="stroke:#181818;stroke-width:1.0;stroke-dasharray:2.0,2.0;" x1="385.5" x2="903.5" y1="1307.9844" y2="1307.9844"/><text fill="#000000" font-family="sans-serif" font-size="20" lengthAdjust="spacing" textLength="62" x="397.5" y="1301.2676">return</text><text fill="#000000" font-family="sans-serif" font-size="20" lengthAdjust="spacing" textLength="6" x="459.5" y="1301.2676"> </text><text fill="#000000" font-family="sans-serif" font-size="20" lengthAdjust="spacing" textLength="45" x="465.5" y="1301.2676">User</text><polygon fill="#181818" points="207,1387.8281,197,1391.8281,207,1395.8281,203,1391.8281" style="stroke:#181818;stroke-width:1.0;"/><line style="stroke:#181818;stroke-width:1.0;stroke-dasharray:2.0,2.0;" x1="201" x2="374.5" y1="1391.8281" y2="1391.8281"/><text fill="#000000" font-family="sans-serif" font-size="20" lengthAdjust="spacing" textLength="76" x="213" y="1338.5488">Informs</text><text fill="#000000" font-family="sans-serif" font-size="20" lengthAdjust="spacing" textLength="77" x="213" y="1361.8301">success</text><text fill="#000000" font-family="sans-serif" font-size="20" lengthAdjust="spacing" textLength="6" x="290" y="1361.8301"> </text><text fill="#000000" font-family="sans-serif" font-size="20" lengthAdjust="spacing" textLength="20" x="296" y="1361.8301">or</text><text fill="#000000" font-family="sans-serif" font-size="20" lengthAdjust="spacing" textLength="64" x="213" y="1385.1113">failure</text><!--SRC=[fLPDRzim3BtxLn0v9K1Rf0DsyQ70qgn0XdqKJNFhXRNfH8WiUPAShllrenGxbjqiRRSS38dYUo8VQSPsArI51akfiotba5E1jNGtMhcb-4tmOPeuuIJ1QdavdKxX79PpVjpHMbX71cQORNLHY8mzB1cRs9OGf53adYi2RTn6HmSb_Yh9MboJzLTSVfn6XvP-rgGokaNZH2OgL0vgbPFnT4c2cTC6Hf_oKgWHe0NqgoIf8lTH6rqNd8zjjGY0rU8jpjSiWD5IaWcWRji7UzTlg3YLabWnCZl61qIpVkb-pvBOcv37S_1irYyzxwZILXpykctVzKk5HxpP6W5oTFY8bc0qRrR1QJuBYeeTEcgK34yulsATKlXajnQS1jEM6rKeC-W2t8QYwaSyBF1g0UTC4RWQbeBB9XG_ItH2AnWhBEaCg4GXpu2rfKcYDCCb5Ouv88LxlY4K6ZOOmgYCtecSu47vopq11vJlESBgGPMrTL29R0iOIA4mkWonFYZ9EVZ8SSV- -CY7tiFooVYQORhanFR5D87jHqK6MRv9akGKfzSNwNOVbOtJI_hkqi7Y1kxujekMzCBffJD2hSUJ2svvb7Qy5m7uTq17VUVjNjUho9Yon7aJydWlPONMFccJdnMrb5wY0MFRbzxO4NdQvYGzLFixFRsFk-raRspOF75ZJk59k8qNuLNMm42I-xMLhIrG0psftb6L1WIdCtfTc7VHdTBYpKGlDVcAQbqpwBDQyspy5r663F-holluJidoTgQ4L9ua3K4OEorl2ZNFglZTRHiqkhaRaYbOtD7OOoRT-niDqMxfWRq1UnpRdy6zdMUOprBWQM1PlGOvduK41jI6N6tsWtT8CaWWzepIxiSnm4TrF0gEa0VP1fqK8-CcQGRaNuZRIHIPed7N_mjPXD5gmTPPnfyE_4a11VT3RMWucgDjmFu1]--></g></svg>