<?xml version="1.0" encoding="UTF-8" standalone="no"?><svg xmlns="http://www.w3.org/2000/svg" xmlns:xlink="http://www.w3.org/1999/xlink" contentStyleType="text/css" height="1013px" preserveAspectRatio="none" style="width:1228px;height:1013px;background:#FFFFFF;" version="1.1" viewBox="0 0 1228 1013" width="1228px" zoomAndPan="magnify"><defs/><g><text fill="#000000" font-family="sans-serif" font-size="14" font-weight="bold" lengthAdjust="spacing" textLength="280" x="475.75" y="27.9951">US1000 - SD - List Backoffice Users</text><rect fill="#FFFFFF" height="771.75" style="stroke:#181818;stroke-width:1.0;" width="10" x="36" y="135.5781"/><rect fill="#FFFFFF" height="695.9063" style="stroke:#181818;stroke-width:1.0;" width="10" x="196.5" y="211.4219"/><rect fill="#FFFFFF" height="537.5" style="stroke:#181818;stroke-width:1.0;" width="10" x="474.5" y="248.7031"/><rect fill="#FFFFFF" height="439.6563" style="stroke:#181818;stroke-width:1.0;" width="10" x="720.5" y="285.9844"/><rect fill="#FFFFFF" height="334.8125" style="stroke:#181818;stroke-width:1.0;" width="10" x="912.5" y="323.2656"/><line style="stroke:#181818;stroke-width:0.5;stroke-dasharray:5.0,5.0;" x1="41" x2="41" y1="125.5781" y2="925.3281"/><line style="stroke:#181818;stroke-width:0.5;stroke-dasharray:5.0,5.0;" x1="201" x2="201" y1="125.5781" y2="925.3281"/><line style="stroke:#181818;stroke-width:0.5;stroke-dasharray:5.0,5.0;" x1="479" x2="479" y1="125.5781" y2="925.3281"/><line style="stroke:#181818;stroke-width:0.5;stroke-dasharray:5.0,5.0;" x1="725" x2="725" y1="125.5781" y2="925.3281"/><line style="stroke:#181818;stroke-width:0.5;stroke-dasharray:5.0,5.0;" x1="917" x2="917" y1="125.5781" y2="925.3281"/><line style="stroke:#181818;stroke-width:0.5;stroke-dasharray:5.0,5.0;" x1="1163.5" x2="1163.5" y1="125.5781" y2="925.3281"/><text fill="#000000" font-family="sans-serif" font-size="20" lengthAdjust="spacing" text-decoration="underline" textLength="66" x="5" y="120.8613">Admin</text><ellipse cx="41" cy="50.7969" fill="#E2E2F0" rx="8" ry="8" style="stroke:#181818;stroke-width:0.5;"/><path d="M41,58.7969 L41,85.7969 M28,66.7969 L54,66.7969 M41,85.7969 L28,100.7969 M41,85.7969 L54,100.7969 " fill="none" style="stroke:#181818;stroke-width:0.5;"/><text fill="#000000" font-family="sans-serif" font-size="20" lengthAdjust="spacing" text-decoration="underline" textLength="66" x="5" y="942.8926">Admin</text><ellipse cx="41" cy="956.1094" fill="#E2E2F0" rx="8" ry="8" style="stroke:#181818;stroke-width:0.5;"/><path d="M41,964.1094 L41,991.1094 M28,972.1094 L54,972.1094 M41,991.1094 L28,1006.1094 M41,991.1094 L54,1006.1094 " fill="none" style="stroke:#181818;stroke-width:0.5;"/><rect fill="#E2E2F0" height="37.2813" rx="2.5" ry="2.5" style="stroke:#181818;stroke-width:0.5;" width="229" x="87" y="87.2969"/><text fill="#000000" font-family="sans-serif" font-size="20" lengthAdjust="spacing" text-decoration="underline" textLength="215" x="94" y="112.8613">ListBackofficeUsersUI</text><rect fill="#E2E2F0" height="37.2813" rx="2.5" ry="2.5" style="stroke:#181818;stroke-width:0.5;" width="229" x="87" y="924.3281"/><text fill="#000000" font-family="sans-serif" font-size="20" lengthAdjust="spacing" text-decoration="underline" textLength="215" x="94" y="949.8926">ListBackofficeUsersUI</text><rect fill="#E2E2F0" height="37.2813" rx="2.5" ry="2.5" style="stroke:#181818;stroke-width:0.5;" width="307" x="326" y="87.2969"/><text fill="#000000" font-family="sans-serif" font-size="20" lengthAdjust="spacing" text-decoration="underline" textLength="293" x="333" y="112.8613">ListBackofficeUsersController</text><rect fill="#E2E2F0" height="37.2813" rx="2.5" ry="2.5" style="stroke:#181818;stroke-width:0.5;" width="307" x="326" y="924.3281"/><text fill="#000000" font-family="sans-serif" font-size="20" lengthAdjust="spacing" text-decoration="underline" textLength="293" x="333" y="949.8926">ListBackofficeUsersController</text><rect fill="#E2E2F0" height="37.2813" rx="2.5" ry="2.5" style="stroke:#181818;stroke-width:0.5;" width="165" x="643" y="87.2969"/><text fill="#000000" font-family="sans-serif" font-size="20" lengthAdjust="spacing" text-decoration="underline" textLength="151" x="650" y="112.8613">UserRepository</text><rect fill="#E2E2F0" height="37.2813" rx="2.5" ry="2.5" style="stroke:#181818;stroke-width:0.5;" width="165" x="643" y="924.3281"/><text fill="#000000" font-family="sans-serif" font-size="20" lengthAdjust="spacing" text-decoration="underline" textLength="151" x="650" y="949.8926">UserRepository</text><rect fill="#E2E2F0" height="37.2813" rx="2.5" ry="2.5" style="stroke:#181818;stroke-width:0.5;" width="199" x="818" y="87.2969"/><text fill="#000000" font-family="sans-serif" font-size="20" lengthAdjust="spacing" text-decoration="underline" textLength="185" x="825" y="112.8613">JpaBaseRepository</text><rect fill="#E2E2F0" height="37.2813" rx="2.5" ry="2.5" style="stroke:#181818;stroke-width:0.5;" width="199" x="818" y="924.3281"/><text fill="#000000" font-family="sans-serif" font-size="20" lengthAdjust="spacing" text-decoration="underline" textLength="185" x="825" y="949.8926">JpaBaseRepository</text><text fill="#000000" font-family="sans-serif" font-size="20" lengthAdjust="spacing" text-decoration="underline" textLength="122" x="1099.5" y="120.8613">H2Database</text><path d="M1145.5,66.2969 C1145.5,56.2969 1163.5,56.2969 1163.5,56.2969 C1163.5,56.2969 1181.5,56.2969 1181.5,66.2969 L1181.5,92.2969 C1181.5,102.2969 1163.5,102.2969 1163.5,102.2969 C1163.5,102.2969 1145.5,102.2969 1145.5,92.2969 L1145.5,66.2969 " fill="#E2E2F0" style="stroke:#181818;stroke-width:1.5;"/><path d="M1145.5,66.2969 C1145.5,76.2969 1163.5,76.2969 1163.5,76.2969 C1163.5,76.2969 1181.5,76.2969 1181.5,66.2969 " fill="none" style="stroke:#181818;stroke-width:1.5;"/><text fill="#000000" font-family="sans-serif" font-size="20" lengthAdjust="spacing" text-decoration="underline" textLength="122" x="1099.5" y="942.8926">H2Database</text><path d="M1145.5,957.6094 C1145.5,947.6094 1163.5,947.6094 1163.5,947.6094 C1163.5,947.6094 1181.5,947.6094 1181.5,957.6094 L1181.5,983.6094 C1181.5,993.6094 1163.5,993.6094 1163.5,993.6094 C1163.5,993.6094 1145.5,993.6094 1145.5,983.6094 L1145.5,957.6094 " fill="#E2E2F0" style="stroke:#181818;stroke-width:1.5;"/><path d="M1145.5,957.6094 C1145.5,967.6094 1163.5,967.6094 1163.5,967.6094 C1163.5,967.6094 1181.5,967.6094 1181.5,957.6094 " fill="none" style="stroke:#181818;stroke-width:1.5;"/><rect fill="#FFFFFF" height="771.75" style="stroke:#181818;stroke-width:1.0;" width="10" x="36" y="135.5781"/><rect fill="#FFFFFF" height="695.9063" style="stroke:#181818;stroke-width:1.0;" width="10" x="196.5" y="211.4219"/><rect fill="#FFFFFF" height="537.5" style="stroke:#181818;stroke-width:1.0;" width="10" x="474.5" y="248.7031"/><rect fill="#FFFFFF" height="439.6563" style="stroke:#181818;stroke-width:1.0;" width="10" x="720.5" y="285.9844"/><rect fill="#FFFFFF" height="334.8125" style="stroke:#181818;stroke-width:1.0;" width="10" x="912.5" y="323.2656"/><polygon fill="#181818" points="184.5,207.4219,194.5,211.4219,184.5,215.4219,188.5,211.4219" style="stroke:#181818;stroke-width:1.0;"/><line style="stroke:#181818;stroke-width:1.0;" x1="46" x2="190.5" y1="211.4219" y2="211.4219"/><text fill="#000000" font-family="sans-serif" font-size="20" lengthAdjust="spacing" textLength="46" x="53" y="158.1426">Asks</text><text fill="#000000" font-family="sans-serif" font-size="20" lengthAdjust="spacing" textLength="6" x="99" y="158.1426"> </text><text fill="#000000" font-family="sans-serif" font-size="20" lengthAdjust="spacing" textLength="20" x="105" y="158.1426">to</text><text fill="#000000" font-family="sans-serif" font-size="20" lengthAdjust="spacing" textLength="6" x="125" y="158.1426"> </text><text fill="#000000" font-family="sans-serif" font-size="20" lengthAdjust="spacing" textLength="30" x="131" y="158.1426">list</text><text fill="#000000" font-family="sans-serif" font-size="20" lengthAdjust="spacing" textLength="55" x="53" y="181.4238">Users</text><text fill="#000000" font-family="sans-serif" font-size="20" lengthAdjust="spacing" textLength="6" x="108" y="181.4238"> </text><text fill="#000000" font-family="sans-serif" font-size="20" lengthAdjust="spacing" textLength="19" x="114" y="181.4238">of</text><text fill="#000000" font-family="sans-serif" font-size="20" lengthAdjust="spacing" textLength="6" x="133" y="181.4238"> </text><text fill="#000000" font-family="sans-serif" font-size="20" lengthAdjust="spacing" textLength="33" x="139" y="181.4238">the</text><text fill="#000000" font-family="sans-serif" font-size="20" lengthAdjust="spacing" textLength="104" x="53" y="204.7051">Backoffice</text><polygon fill="#181818" points="462.5,244.7031,472.5,248.7031,462.5,252.7031,466.5,248.7031" style="stroke:#181818;stroke-width:1.0;"/><line style="stroke:#181818;stroke-width:1.0;" x1="206.5" x2="468.5" y1="248.7031" y2="248.7031"/><text fill="#000000" font-family="sans-serif" font-size="20" lengthAdjust="spacing" textLength="205" x="213.5" y="241.9863">listBackofficeUsers()</text><polygon fill="#181818" points="708.5,281.9844,718.5,285.9844,708.5,289.9844,712.5,285.9844" style="stroke:#181818;stroke-width:1.0;"/><line style="stroke:#181818;stroke-width:1.0;" x1="484.5" x2="714.5" y1="285.9844" y2="285.9844"/><text fill="#000000" font-family="sans-serif" font-size="20" lengthAdjust="spacing" textLength="143" x="491.5" y="279.2676">findAllActive()</text><polygon fill="#181818" points="900.5,319.2656,910.5,323.2656,900.5,327.2656,904.5,323.2656" style="stroke:#181818;stroke-width:1.0;"/><line style="stroke:#181818;stroke-width:1.0;" x1="730.5" x2="906.5" y1="323.2656" y2="323.2656"/><text fill="#000000" font-family="sans-serif" font-size="20" lengthAdjust="spacing" textLength="143" x="737.5" y="316.5488">findAllActive()</text><line style="stroke:#181818;stroke-width:1.0;" x1="922.5" x2="964.5" y1="360.5469" y2="360.5469"/><line style="stroke:#181818;stroke-width:1.0;" x1="964.5" x2="964.5" y1="360.5469" y2="373.5469"/><line style="stroke:#181818;stroke-width:1.0;" x1="923.5" x2="964.5" y1="373.5469" y2="373.5469"/><polygon fill="#181818" points="933.5,369.5469,923.5,373.5469,933.5,377.5469,929.5,373.5469" style="stroke:#181818;stroke-width:1.0;"/><text fill="#000000" font-family="sans-serif" font-size="20" lengthAdjust="spacing" textLength="81" x="929.5" y="353.8301">findAll()</text><polygon fill="#181818" points="1151.5,453.3906,1161.5,457.3906,1151.5,461.3906,1155.5,457.3906" style="stroke:#181818;stroke-width:1.0;"/><line style="stroke:#181818;stroke-width:1.0;" x1="922.5" x2="1157.5" y1="457.3906" y2="457.3906"/><text fill="#000000" font-family="sans-serif" font-size="20" lengthAdjust="spacing" textLength="217" x="929.5" y="404.1113">createQuery("SELECT</text><text fill="#000000" font-family="sans-serif" font-size="20" lengthAdjust="spacing" textLength="13" x="929.5" y="427.3926">u</text><text fill="#000000" font-family="sans-serif" font-size="20" lengthAdjust="spacing" textLength="6" x="942.5" y="427.3926"> </text><text fill="#000000" font-family="sans-serif" font-size="20" lengthAdjust="spacing" textLength="59" x="948.5" y="427.3926">FROM</text><text fill="#000000" font-family="sans-serif" font-size="20" lengthAdjust="spacing" textLength="6" x="1007.5" y="427.3926"> </text><text fill="#000000" font-family="sans-serif" font-size="20" lengthAdjust="spacing" textLength="45" x="1013.5" y="427.3926">User</text><text fill="#000000" font-family="sans-serif" font-size="20" lengthAdjust="spacing" textLength="137" x="929.5" y="450.6738">u",User.class)</text><polygon fill="#181818" points="933.5,513.9531,923.5,517.9531,933.5,521.9531,929.5,517.9531" style="stroke:#181818;stroke-width:1.0;"/><line style="stroke:#181818;stroke-width:1.0;stroke-dasharray:2.0,2.0;" x1="927.5" x2="1162.5" y1="517.9531" y2="517.9531"/><text fill="#000000" font-family="sans-serif" font-size="20" lengthAdjust="spacing" textLength="72" x="939.5" y="487.9551">returns</text><text fill="#000000" font-family="sans-serif" font-size="20" lengthAdjust="spacing" textLength="114" x="939.5" y="511.2363">List&lt;User&gt;</text><line style="stroke:#181818;stroke-width:1.0;stroke-dasharray:2.0,2.0;" x1="922.5" x2="964.5" y1="578.5156" y2="578.5156"/><line style="stroke:#181818;stroke-width:1.0;stroke-dasharray:2.0,2.0;" x1="964.5" x2="964.5" y1="578.5156" y2="591.5156"/><line style="stroke:#181818;stroke-width:1.0;stroke-dasharray:2.0,2.0;" x1="923.5" x2="964.5" y1="591.5156" y2="591.5156"/><polygon fill="#181818" points="933.5,587.5156,923.5,591.5156,933.5,595.5156,929.5,591.5156" style="stroke:#181818;stroke-width:1.0;"/><text fill="#000000" font-family="sans-serif" font-size="20" lengthAdjust="spacing" textLength="72" x="929.5" y="548.5176">returns</text><text fill="#000000" font-family="sans-serif" font-size="20" lengthAdjust="spacing" textLength="114" x="929.5" y="571.7988">List&lt;User&gt;</text><line style="stroke:#181818;stroke-width:1.0;stroke-dasharray:2.0,2.0;" x1="922.5" x2="964.5" y1="657.0781" y2="657.0781"/><line style="stroke:#181818;stroke-width:1.0;stroke-dasharray:2.0,2.0;" x1="964.5" x2="964.5" y1="657.0781" y2="670.0781"/><line style="stroke:#181818;stroke-width:1.0;stroke-dasharray:2.0,2.0;" x1="917.5" x2="964.5" y1="670.0781" y2="670.0781"/><polygon fill="#181818" points="927.5,666.0781,917.5,670.0781,927.5,674.0781,923.5,670.0781" style="stroke:#181818;stroke-width:1.0;"/><text fill="#000000" font-family="sans-serif" font-size="20" lengthAdjust="spacing" textLength="47" x="929.5" y="627.0801">filter</text><text fill="#000000" font-family="sans-serif" font-size="20" lengthAdjust="spacing" textLength="6" x="976.5" y="627.0801"> </text><text fill="#000000" font-family="sans-serif" font-size="20" lengthAdjust="spacing" textLength="60" x="982.5" y="627.0801">active</text><text fill="#000000" font-family="sans-serif" font-size="20" lengthAdjust="spacing" textLength="53" x="929.5" y="650.3613">users</text><polygon fill="#181818" points="736.5,721.6406,726.5,725.6406,736.5,729.6406,732.5,725.6406" style="stroke:#181818;stroke-width:1.0;"/><line style="stroke:#181818;stroke-width:1.0;stroke-dasharray:2.0,2.0;" x1="730.5" x2="916.5" y1="725.6406" y2="725.6406"/><text fill="#000000" font-family="sans-serif" font-size="20" lengthAdjust="spacing" textLength="72" x="742.5" y="695.6426">returns</text><text fill="#000000" font-family="sans-serif" font-size="20" lengthAdjust="spacing" textLength="114" x="742.5" y="718.9238">List&lt;User&gt;</text><polygon fill="#181818" points="490.5,782.2031,480.5,786.2031,490.5,790.2031,486.5,786.2031" style="stroke:#181818;stroke-width:1.0;"/><line style="stroke:#181818;stroke-width:1.0;stroke-dasharray:2.0,2.0;" x1="484.5" x2="724.5" y1="786.2031" y2="786.2031"/><text fill="#000000" font-family="sans-serif" font-size="20" lengthAdjust="spacing" textLength="72" x="496.5" y="756.2051">returns</text><text fill="#000000" font-family="sans-serif" font-size="20" lengthAdjust="spacing" textLength="114" x="496.5" y="779.4863">List&lt;User&gt;</text><polygon fill="#181818" points="217.5,842.7656,207.5,846.7656,217.5,850.7656,213.5,846.7656" style="stroke:#181818;stroke-width:1.0;"/><line style="stroke:#181818;stroke-width:1.0;stroke-dasharray:2.0,2.0;" x1="211.5" x2="478.5" y1="846.7656" y2="846.7656"/><text fill="#000000" font-family="sans-serif" font-size="20" lengthAdjust="spacing" textLength="72" x="223.5" y="816.7676">returns</text><text fill="#000000" font-family="sans-serif" font-size="20" lengthAdjust="spacing" textLength="114" x="223.5" y="840.0488">List&lt;User&gt;</text><polygon fill="#181818" points="52,903.3281,42,907.3281,52,911.3281,48,907.3281" style="stroke:#181818;stroke-width:1.0;"/><line style="stroke:#181818;stroke-width:1.0;stroke-dasharray:2.0,2.0;" x1="46" x2="200.5" y1="907.3281" y2="907.3281"/><text fill="#000000" font-family="sans-serif" font-size="20" lengthAdjust="spacing" textLength="52" x="58" y="877.3301">hows</text><text fill="#000000" font-family="sans-serif" font-size="20" lengthAdjust="spacing" textLength="6" x="110" y="877.3301"> </text><text fill="#000000" font-family="sans-serif" font-size="20" lengthAdjust="spacing" textLength="30" x="116" y="877.3301">list</text><text fill="#000000" font-family="sans-serif" font-size="20" lengthAdjust="spacing" textLength="6" x="146" y="877.3301"> </text><text fill="#000000" font-family="sans-serif" font-size="20" lengthAdjust="spacing" textLength="19" x="152" y="877.3301">of</text><text fill="#000000" font-family="sans-serif" font-size="20" lengthAdjust="spacing" textLength="53" x="58" y="900.6113">users</text><!--SRC=[bPBTJjj048Nlzob6lWAfgGnIRn12SXnGGQ22GnvWQe-RLJQxxiwQDdtwpYwEOaWKn8t_pZVZSsQMLzfsw75jNBsY1XfgiJVXnjamr_y8pdCLT304Y_bPdkSmWVbCBlUQ0qonNhcsrRMeJ9uLRvk1qPR2fYDmFYpTI5ZZtpKnuo_YsFxiMpuIcNxtP6jwH1zqhJkq0NhRa8_jbC8wE0zPqQorpG0PC3ufrOtmB3hR6Kk-5hU9Njn-I9OIspjZoAUAycr1H2hg76lniKb4zPQuwt2AJE-XkyT2DHZmfsYGVJ-V3Sz9dKrJCls2WOP4wGgJAx4C5r3mYY4ucQdCFDa4rq9OqcW1kmwIKggajfHIin_nv7J7bggCP2LagsrJ65D4YSPCfQh4I8QZMCoOe3rOiAqmcyhdsfDKFFNaDoVP_Fh-kdo67cwg7myf7VJPbtZ_MXjaFbLICzdrz1HwRpaTmCk8NGtDFuMqsWJvKt9FqAV3sz2XCCDu3lGSyt56myYFasdYsyKUGEFgH7uz01UmT7_uTU-oyJsRikhHMwhv3m00]--></g></svg>