<?xml version="1.0" encoding="UTF-8" standalone="no"?><svg xmlns="http://www.w3.org/2000/svg" xmlns:xlink="http://www.w3.org/1999/xlink" contentStyleType="text/css" height="1911px" preserveAspectRatio="none" style="width:1384px;height:1911px;background:#FFFFFF;" version="1.1" viewBox="0 0 1384 1911" width="1384px" zoomAndPan="magnify"><defs/><g><text fill="#000000" font-family="sans-serif" font-size="14" font-weight="bold" lengthAdjust="spacing" textLength="439" x="473.5" y="27.9951">US1000 - SD - Enable/Disable Users from the backoffice</text><rect fill="#FFFFFF" height="1669.9063" style="stroke:#181818;stroke-width:1.0;" width="10" x="118" y="135.5781"/><rect fill="#FFFFFF" height="107.125" style="stroke:#181818;stroke-width:1.0;" width="10" x="297" y="234.7031"/><rect fill="#FFFFFF" height="1322.25" style="stroke:#181818;stroke-width:1.0;" width="10" x="297" y="492.2344"/><rect fill="#FFFFFF" height="1176.8438" style="stroke:#181818;stroke-width:1.0;" width="10" x="591" y="552.7969"/><rect fill="#FFFFFF" height="934.875" style="stroke:#181818;stroke-width:1.0;" width="10" x="834" y="679.9219"/><rect fill="#FFFFFF" height="837.0313" style="stroke:#181818;stroke-width:1.0;" width="10" x="1052" y="740.4844"/><rect fill="#FFFFFF" height="30" style="stroke:#181818;stroke-width:1.0;" width="10" x="1191" y="1009.2969"/><rect fill="#FFFFFF" height="30" style="stroke:#181818;stroke-width:1.0;" width="10" x="1191" y="1101.8594"/><rect fill="#FFFFFF" height="30" style="stroke:#181818;stroke-width:1.0;" width="10" x="1191" y="1199.4219"/><rect fill="none" height="193.4063" style="stroke:#000000;stroke-width:1.5;" width="288" x="947.5" y="946.4531"/><rect fill="none" height="357.0938" style="stroke:#000000;stroke-width:1.5;" width="1196.5" x="180.5" y="1365.5469"/><line style="stroke:#181818;stroke-width:0.5;stroke-dasharray:5.0,5.0;" x1="123" x2="123" y1="125.5781" y2="1823.4844"/><line style="stroke:#181818;stroke-width:0.5;stroke-dasharray:5.0,5.0;" x1="301.5" x2="301.5" y1="125.5781" y2="1823.4844"/><line style="stroke:#181818;stroke-width:0.5;stroke-dasharray:5.0,5.0;" x1="595.5" x2="595.5" y1="125.5781" y2="1823.4844"/><line style="stroke:#181818;stroke-width:0.5;stroke-dasharray:5.0,5.0;" x1="838.5" x2="838.5" y1="125.5781" y2="1823.4844"/><line style="stroke:#181818;stroke-width:0.5;stroke-dasharray:5.0,5.0;" x1="1056.5" x2="1056.5" y1="125.5781" y2="1823.4844"/><line style="stroke:#181818;stroke-width:0.5;stroke-dasharray:5.0,5.0;" x1="1195.5" x2="1195.5" y1="125.5781" y2="1823.4844"/><line style="stroke:#181818;stroke-width:0.5;stroke-dasharray:5.0,5.0;" x1="1303" x2="1303" y1="125.5781" y2="1823.4844"/><text fill="#000000" font-family="sans-serif" font-size="20" lengthAdjust="spacing" text-decoration="underline" textLength="66" x="87" y="120.8613">Admin</text><ellipse cx="123" cy="50.7969" fill="#E2E2F0" rx="8" ry="8" style="stroke:#181818;stroke-width:0.5;"/><path d="M123,58.7969 L123,85.7969 M110,66.7969 L136,66.7969 M123,85.7969 L110,100.7969 M123,85.7969 L136,100.7969 " fill="none" style="stroke:#181818;stroke-width:0.5;"/><text fill="#000000" font-family="sans-serif" font-size="20" lengthAdjust="spacing" text-decoration="underline" textLength="66" x="87" y="1841.0488">Admin</text><ellipse cx="123" cy="1854.2656" fill="#E2E2F0" rx="8" ry="8" style="stroke:#181818;stroke-width:0.5;"/><path d="M123,1862.2656 L123,1889.2656 M110,1870.2656 L136,1870.2656 M123,1889.2656 L110,1904.2656 M123,1889.2656 L136,1904.2656 " fill="none" style="stroke:#181818;stroke-width:0.5;"/><rect fill="#E2E2F0" height="37.2813" rx="2.5" ry="2.5" style="stroke:#181818;stroke-width:0.5;" width="223" x="190.5" y="87.2969"/><text fill="#000000" font-family="sans-serif" font-size="20" lengthAdjust="spacing" text-decoration="underline" textLength="209" x="197.5" y="112.8613">EnableDisableUserUI</text><rect fill="#E2E2F0" height="37.2813" rx="2.5" ry="2.5" style="stroke:#181818;stroke-width:0.5;" width="223" x="190.5" y="1822.4844"/><text fill="#000000" font-family="sans-serif" font-size="20" lengthAdjust="spacing" text-decoration="underline" textLength="209" x="197.5" y="1848.0488">EnableDisableUserUI</text><rect fill="#E2E2F0" height="37.2813" rx="2.5" ry="2.5" style="stroke:#181818;stroke-width:0.5;" width="301" x="445.5" y="87.2969"/><text fill="#000000" font-family="sans-serif" font-size="20" lengthAdjust="spacing" text-decoration="underline" textLength="287" x="452.5" y="112.8613">EnableDisableUserController</text><rect fill="#E2E2F0" height="37.2813" rx="2.5" ry="2.5" style="stroke:#181818;stroke-width:0.5;" width="301" x="445.5" y="1822.4844"/><text fill="#000000" font-family="sans-serif" font-size="20" lengthAdjust="spacing" text-decoration="underline" textLength="287" x="452.5" y="1848.0488">EnableDisableUserController</text><rect fill="#E2E2F0" height="37.2813" rx="2.5" ry="2.5" style="stroke:#181818;stroke-width:0.5;" width="165" x="756.5" y="87.2969"/><text fill="#000000" font-family="sans-serif" font-size="20" lengthAdjust="spacing" text-decoration="underline" textLength="151" x="763.5" y="112.8613">UserRepository</text><rect fill="#E2E2F0" height="37.2813" rx="2.5" ry="2.5" style="stroke:#181818;stroke-width:0.5;" width="165" x="756.5" y="1822.4844"/><text fill="#000000" font-family="sans-serif" font-size="20" lengthAdjust="spacing" text-decoration="underline" textLength="151" x="763.5" y="1848.0488">UserRepository</text><rect fill="#E2E2F0" height="37.2813" rx="2.5" ry="2.5" style="stroke:#181818;stroke-width:0.5;" width="199" x="957.5" y="87.2969"/><text fill="#000000" font-family="sans-serif" font-size="20" lengthAdjust="spacing" text-decoration="underline" textLength="185" x="964.5" y="112.8613">JpaBaseRepository</text><rect fill="#E2E2F0" height="37.2813" rx="2.5" ry="2.5" style="stroke:#181818;stroke-width:0.5;" width="199" x="957.5" y="1822.4844"/><text fill="#000000" font-family="sans-serif" font-size="20" lengthAdjust="spacing" text-decoration="underline" textLength="185" x="964.5" y="1848.0488">JpaBaseRepository</text><rect fill="#E2E2F0" height="37.2813" rx="2.5" ry="2.5" style="stroke:#181818;stroke-width:0.5;" width="59" x="1166.5" y="87.2969"/><text fill="#000000" font-family="sans-serif" font-size="20" lengthAdjust="spacing" text-decoration="underline" textLength="45" x="1173.5" y="112.8613">User</text><rect fill="#E2E2F0" height="37.2813" rx="2.5" ry="2.5" style="stroke:#181818;stroke-width:0.5;" width="59" x="1166.5" y="1822.4844"/><text fill="#000000" font-family="sans-serif" font-size="20" lengthAdjust="spacing" text-decoration="underline" textLength="45" x="1173.5" y="1848.0488">User</text><text fill="#000000" font-family="sans-serif" font-size="20" lengthAdjust="spacing" text-decoration="underline" textLength="122" x="1239" y="120.8613">H2Database</text><path d="M1285,66.2969 C1285,56.2969 1303,56.2969 1303,56.2969 C1303,56.2969 1321,56.2969 1321,66.2969 L1321,92.2969 C1321,102.2969 1303,102.2969 1303,102.2969 C1303,102.2969 1285,102.2969 1285,92.2969 L1285,66.2969 " fill="#E2E2F0" style="stroke:#181818;stroke-width:1.5;"/><path d="M1285,66.2969 C1285,76.2969 1303,76.2969 1303,76.2969 C1303,76.2969 1321,76.2969 1321,66.2969 " fill="none" style="stroke:#181818;stroke-width:1.5;"/><text fill="#000000" font-family="sans-serif" font-size="20" lengthAdjust="spacing" text-decoration="underline" textLength="122" x="1239" y="1841.0488">H2Database</text><path d="M1285,1855.7656 C1285,1845.7656 1303,1845.7656 1303,1845.7656 C1303,1845.7656 1321,1845.7656 1321,1855.7656 L1321,1881.7656 C1321,1891.7656 1303,1891.7656 1303,1891.7656 C1303,1891.7656 1285,1891.7656 1285,1881.7656 L1285,1855.7656 " fill="#E2E2F0" style="stroke:#181818;stroke-width:1.5;"/><path d="M1285,1855.7656 C1285,1865.7656 1303,1865.7656 1303,1865.7656 C1303,1865.7656 1321,1865.7656 1321,1855.7656 " fill="none" style="stroke:#181818;stroke-width:1.5;"/><rect fill="#FFFFFF" height="1669.9063" style="stroke:#181818;stroke-width:1.0;" width="10" x="118" y="135.5781"/><rect fill="#FFFFFF" height="107.125" style="stroke:#181818;stroke-width:1.0;" width="10" x="297" y="234.7031"/><rect fill="#FFFFFF" height="1322.25" style="stroke:#181818;stroke-width:1.0;" width="10" x="297" y="492.2344"/><rect fill="#FFFFFF" height="1176.8438" style="stroke:#181818;stroke-width:1.0;" width="10" x="591" y="552.7969"/><rect fill="#FFFFFF" height="934.875" style="stroke:#181818;stroke-width:1.0;" width="10" x="834" y="679.9219"/><rect fill="#FFFFFF" height="837.0313" style="stroke:#181818;stroke-width:1.0;" width="10" x="1052" y="740.4844"/><rect fill="#FFFFFF" height="30" style="stroke:#181818;stroke-width:1.0;" width="10" x="1191" y="1009.2969"/><rect fill="#FFFFFF" height="30" style="stroke:#181818;stroke-width:1.0;" width="10" x="1191" y="1101.8594"/><rect fill="#FFFFFF" height="30" style="stroke:#181818;stroke-width:1.0;" width="10" x="1191" y="1199.4219"/><polygon fill="#181818" points="285,230.7031,295,234.7031,285,238.7031,289,234.7031" style="stroke:#181818;stroke-width:1.0;"/><line style="stroke:#181818;stroke-width:1.0;" x1="128" x2="291" y1="234.7031" y2="234.7031"/><text fill="#000000" font-family="sans-serif" font-size="20" lengthAdjust="spacing" textLength="46" x="135" y="158.1426">Asks</text><text fill="#000000" font-family="sans-serif" font-size="20" lengthAdjust="spacing" textLength="6" x="181" y="158.1426"> </text><text fill="#000000" font-family="sans-serif" font-size="20" lengthAdjust="spacing" textLength="20" x="187" y="158.1426">to</text><text fill="#000000" font-family="sans-serif" font-size="20" lengthAdjust="spacing" textLength="6" x="207" y="158.1426"> </text><text fill="#000000" font-family="sans-serif" font-size="20" lengthAdjust="spacing" textLength="72" x="213" y="158.1426">disable</text><text fill="#000000" font-family="sans-serif" font-size="20" lengthAdjust="spacing" textLength="20" x="135" y="181.4238">or</text><text fill="#000000" font-family="sans-serif" font-size="20" lengthAdjust="spacing" textLength="6" x="155" y="181.4238"> </text><text fill="#000000" font-family="sans-serif" font-size="20" lengthAdjust="spacing" textLength="68" x="161" y="181.4238">enable</text><text fill="#000000" font-family="sans-serif" font-size="20" lengthAdjust="spacing" textLength="6" x="229" y="181.4238"> </text><text fill="#000000" font-family="sans-serif" font-size="20" lengthAdjust="spacing" textLength="25" x="235" y="181.4238">an</text><text fill="#000000" font-family="sans-serif" font-size="20" lengthAdjust="spacing" textLength="45" x="135" y="204.7051">User</text><text fill="#000000" font-family="sans-serif" font-size="20" lengthAdjust="spacing" textLength="6" x="180" y="204.7051"> </text><text fill="#000000" font-family="sans-serif" font-size="20" lengthAdjust="spacing" textLength="19" x="186" y="204.7051">of</text><text fill="#000000" font-family="sans-serif" font-size="20" lengthAdjust="spacing" textLength="6" x="205" y="204.7051"> </text><text fill="#000000" font-family="sans-serif" font-size="20" lengthAdjust="spacing" textLength="33" x="211" y="204.7051">the</text><text fill="#000000" font-family="sans-serif" font-size="20" lengthAdjust="spacing" textLength="104" x="135" y="227.9863">Backoffice</text><polygon fill="#181818" points="139,337.8281,129,341.8281,139,345.8281,135,341.8281" style="stroke:#181818;stroke-width:1.0;"/><line style="stroke:#181818;stroke-width:1.0;" x1="133" x2="301" y1="341.8281" y2="341.8281"/><text fill="#000000" font-family="sans-serif" font-size="20" lengthAdjust="spacing" textLength="46" x="145" y="265.2676">Asks</text><text fill="#000000" font-family="sans-serif" font-size="20" lengthAdjust="spacing" textLength="6" x="191" y="265.2676"> </text><text fill="#000000" font-family="sans-serif" font-size="20" lengthAdjust="spacing" textLength="27" x="197" y="265.2676">for</text><text fill="#000000" font-family="sans-serif" font-size="20" lengthAdjust="spacing" textLength="117" x="145" y="288.5488">information</text><text fill="#000000" font-family="sans-serif" font-size="20" lengthAdjust="spacing" textLength="53" x="145" y="311.8301">(User</text><text fill="#000000" font-family="sans-serif" font-size="20" lengthAdjust="spacing" textLength="6" x="198" y="311.8301"> </text><text fill="#000000" font-family="sans-serif" font-size="20" lengthAdjust="spacing" textLength="62" x="204" y="311.8301">email,</text><text fill="#000000" font-family="sans-serif" font-size="20" lengthAdjust="spacing" textLength="72" x="145" y="335.1113">option)</text><path d="M5,354.8281 L5,433.8281 L297,433.8281 L297,364.8281 L287,354.8281 L5,354.8281 " fill="#FEFFDD" style="stroke:#181818;stroke-width:0.5;"/><path d="M287,354.8281 L287,364.8281 L297,364.8281 L287,354.8281 " fill="#FEFFDD" style="stroke:#181818;stroke-width:0.5;"/><text fill="#000000" font-family="sans-serif" font-size="20" lengthAdjust="spacing" textLength="252" x="11" y="378.3926">The Admin has to choose</text><text fill="#000000" font-family="sans-serif" font-size="20" lengthAdjust="spacing" textLength="240" x="11" y="401.6738">between enable/disable</text><text fill="#000000" font-family="sans-serif" font-size="20" lengthAdjust="spacing" textLength="271" x="11" y="424.9551">and provide the User email</text><polygon fill="#181818" points="285,488.2344,295,492.2344,285,496.2344,289,492.2344" style="stroke:#181818;stroke-width:1.0;"/><line style="stroke:#181818;stroke-width:1.0;" x1="128" x2="291" y1="492.2344" y2="492.2344"/><text fill="#000000" font-family="sans-serif" font-size="20" lengthAdjust="spacing" textLength="84" x="135" y="462.2363">Provides</text><text fill="#000000" font-family="sans-serif" font-size="20" lengthAdjust="spacing" textLength="117" x="135" y="485.5176">information</text><polygon fill="#181818" points="579,548.7969,589,552.7969,579,556.7969,583,552.7969" style="stroke:#181818;stroke-width:1.0;"/><line style="stroke:#181818;stroke-width:1.0;" x1="307" x2="585" y1="552.7969" y2="552.7969"/><text fill="#000000" font-family="sans-serif" font-size="20" lengthAdjust="spacing" textLength="265" x="314" y="522.7988">enableDisableUser(option,</text><text fill="#000000" font-family="sans-serif" font-size="20" lengthAdjust="spacing" textLength="51" x="314" y="546.0801">user)</text><path d="M375,565.7969 L375,621.7969 L586,621.7969 L586,575.7969 L576,565.7969 L375,565.7969 " fill="#FEFFDD" style="stroke:#181818;stroke-width:0.5;"/><path d="M576,565.7969 L576,575.7969 L586,575.7969 L576,565.7969 " fill="#FEFFDD" style="stroke:#181818;stroke-width:0.5;"/><text fill="#000000" font-family="sans-serif" font-size="20" lengthAdjust="spacing" textLength="186" x="381" y="589.3613">option = 1..enable</text><text fill="#000000" font-family="sans-serif" font-size="20" lengthAdjust="spacing" textLength="190" x="381" y="612.6426">option = 2..disable</text><polygon fill="#181818" points="822,675.9219,832,679.9219,822,683.9219,826,679.9219" style="stroke:#181818;stroke-width:1.0;"/><line style="stroke:#181818;stroke-width:1.0;" x1="601" x2="828" y1="679.9219" y2="679.9219"/><text fill="#000000" font-family="sans-serif" font-size="20" lengthAdjust="spacing" textLength="171" x="608" y="649.9238">findByEmail(new</text><text fill="#000000" font-family="sans-serif" font-size="20" lengthAdjust="spacing" textLength="123" x="608" y="673.2051">email(user))</text><polygon fill="#181818" points="1040,736.4844,1050,740.4844,1040,744.4844,1044,740.4844" style="stroke:#181818;stroke-width:1.0;"/><line style="stroke:#181818;stroke-width:1.0;" x1="844" x2="1046" y1="740.4844" y2="740.4844"/><text fill="#000000" font-family="sans-serif" font-size="20" lengthAdjust="spacing" textLength="171" x="851" y="710.4863">findByEmail(new</text><text fill="#000000" font-family="sans-serif" font-size="20" lengthAdjust="spacing" textLength="123" x="851" y="733.7676">email(user))</text><polygon fill="#181818" points="1291,890.1719,1301,894.1719,1291,898.1719,1295,894.1719" style="stroke:#181818;stroke-width:1.0;"/><line style="stroke:#181818;stroke-width:1.0;" x1="1062" x2="1297" y1="894.1719" y2="894.1719"/><text fill="#000000" font-family="sans-serif" font-size="20" lengthAdjust="spacing" textLength="217" x="1069" y="771.0488">createQuery("SELECT</text><text fill="#000000" font-family="sans-serif" font-size="20" lengthAdjust="spacing" textLength="13" x="1069" y="794.3301">u</text><text fill="#000000" font-family="sans-serif" font-size="20" lengthAdjust="spacing" textLength="6" x="1082" y="794.3301"> </text><text fill="#000000" font-family="sans-serif" font-size="20" lengthAdjust="spacing" textLength="59" x="1088" y="794.3301">FROM</text><text fill="#000000" font-family="sans-serif" font-size="20" lengthAdjust="spacing" textLength="6" x="1147" y="794.3301"> </text><text fill="#000000" font-family="sans-serif" font-size="20" lengthAdjust="spacing" textLength="45" x="1153" y="794.3301">User</text><text fill="#000000" font-family="sans-serif" font-size="20" lengthAdjust="spacing" textLength="6" x="1198" y="794.3301"> </text><text fill="#000000" font-family="sans-serif" font-size="20" lengthAdjust="spacing" textLength="13" x="1204" y="794.3301">u</text><text fill="#000000" font-family="sans-serif" font-size="20" lengthAdjust="spacing" textLength="75" x="1069" y="817.6113">WHERE</text><text fill="#000000" font-family="sans-serif" font-size="20" lengthAdjust="spacing" textLength="75" x="1069" y="840.8926">u.email</text><text fill="#000000" font-family="sans-serif" font-size="20" lengthAdjust="spacing" textLength="6" x="1144" y="840.8926"> </text><text fill="#000000" font-family="sans-serif" font-size="20" lengthAdjust="spacing" textLength="17" x="1150" y="840.8926">=</text><text fill="#000000" font-family="sans-serif" font-size="20" lengthAdjust="spacing" textLength="77" x="1069" y="864.1738">:value",</text><text fill="#000000" font-family="sans-serif" font-size="20" lengthAdjust="spacing" textLength="108" x="1069" y="887.4551">User.class)</text><polygon fill="#181818" points="1073,927.4531,1063,931.4531,1073,935.4531,1069,931.4531" style="stroke:#181818;stroke-width:1.0;"/><line style="stroke:#181818;stroke-width:1.0;stroke-dasharray:2.0,2.0;" x1="1067" x2="1302" y1="931.4531" y2="931.4531"/><text fill="#000000" font-family="sans-serif" font-size="20" lengthAdjust="spacing" textLength="72" x="1079" y="924.7363">returns</text><text fill="#000000" font-family="sans-serif" font-size="20" lengthAdjust="spacing" textLength="6" x="1151" y="924.7363"> </text><text fill="#000000" font-family="sans-serif" font-size="20" lengthAdjust="spacing" textLength="45" x="1157" y="924.7363">User</text><path d="M947.5,946.4531 L1023.5,946.4531 L1023.5,961.7344 L1013.5,971.7344 L947.5,971.7344 L947.5,946.4531 " fill="#EEEEEE" style="stroke:#000000;stroke-width:1.5;"/><rect fill="none" height="193.4063" style="stroke:#000000;stroke-width:1.5;" width="288" x="947.5" y="946.4531"/><text fill="#000000" font-family="sans-serif" font-size="20" font-weight="bold" lengthAdjust="spacing" textLength="31" x="962.5" y="966.0176">alt</text><text fill="#000000" font-family="sans-serif" font-size="20" font-weight="bold" lengthAdjust="spacing" textLength="136" x="1038.5" y="967.0176">[option = 1]</text><polygon fill="#181818" points="1179,1005.2969,1189,1009.2969,1179,1013.2969,1183,1009.2969" style="stroke:#181818;stroke-width:1.0;"/><line style="stroke:#181818;stroke-width:1.0;" x1="1062" x2="1185" y1="1009.2969" y2="1009.2969"/><text fill="#000000" font-family="sans-serif" font-size="20" lengthAdjust="spacing" textLength="84" x="1069" y="1002.5801">enable()</text><line style="stroke:#000000;stroke-width:1.0;stroke-dasharray:2.0,2.0;" x1="947.5" x2="1235.5" y1="1048.2969" y2="1048.2969"/><text fill="#000000" font-family="sans-serif" font-size="20" font-weight="bold" lengthAdjust="spacing" textLength="136" x="952.5" y="1066.8613">[option = 2]</text><polygon fill="#181818" points="1179,1097.8594,1189,1101.8594,1179,1105.8594,1183,1101.8594" style="stroke:#181818;stroke-width:1.0;"/><line style="stroke:#181818;stroke-width:1.0;" x1="1062" x2="1185" y1="1101.8594" y2="1101.8594"/><text fill="#000000" font-family="sans-serif" font-size="20" lengthAdjust="spacing" textLength="88" x="1069" y="1095.1426">disable()</text><polygon fill="#181818" points="1073,1195.4219,1063,1199.4219,1073,1203.4219,1069,1199.4219" style="stroke:#181818;stroke-width:1.0;"/><line style="stroke:#181818;stroke-width:1.0;stroke-dasharray:2.0,2.0;" x1="1067" x2="1190" y1="1199.4219" y2="1199.4219"/><text fill="#000000" font-family="sans-serif" font-size="20" lengthAdjust="spacing" textLength="72" x="1079" y="1169.4238">returns</text><text fill="#000000" font-family="sans-serif" font-size="20" lengthAdjust="spacing" textLength="80" x="1079" y="1192.7051">boolean</text><polygon fill="#181818" points="855,1285.9844,845,1289.9844,855,1293.9844,851,1289.9844" style="stroke:#181818;stroke-width:1.0;"/><line style="stroke:#181818;stroke-width:1.0;stroke-dasharray:2.0,2.0;" x1="849" x2="1051" y1="1289.9844" y2="1289.9844"/><text fill="#000000" font-family="sans-serif" font-size="20" lengthAdjust="spacing" textLength="72" x="861" y="1259.9863">returns</text><text fill="#000000" font-family="sans-serif" font-size="20" lengthAdjust="spacing" textLength="80" x="861" y="1283.2676">boolean</text><polygon fill="#181818" points="612,1346.5469,602,1350.5469,612,1354.5469,608,1350.5469" style="stroke:#181818;stroke-width:1.0;"/><line style="stroke:#181818;stroke-width:1.0;stroke-dasharray:2.0,2.0;" x1="606" x2="833" y1="1350.5469" y2="1350.5469"/><text fill="#000000" font-family="sans-serif" font-size="20" lengthAdjust="spacing" textLength="72" x="618" y="1320.5488">returns</text><text fill="#000000" font-family="sans-serif" font-size="20" lengthAdjust="spacing" textLength="80" x="618" y="1343.8301">boolean</text><path d="M180.5,1365.5469 L256.5,1365.5469 L256.5,1380.8281 L246.5,1390.8281 L180.5,1390.8281 L180.5,1365.5469 " fill="#EEEEEE" style="stroke:#000000;stroke-width:1.5;"/><rect fill="none" height="357.0938" style="stroke:#000000;stroke-width:1.5;" width="1196.5" x="180.5" y="1365.5469"/><text fill="#000000" font-family="sans-serif" font-size="20" font-weight="bold" lengthAdjust="spacing" textLength="31" x="195.5" y="1385.1113">alt</text><text fill="#000000" font-family="sans-serif" font-size="20" font-weight="bold" lengthAdjust="spacing" textLength="188" x="271.5" y="1386.1113">[boolean = true]</text><polygon fill="#181818" points="822,1424.3906,832,1428.3906,822,1432.3906,826,1428.3906" style="stroke:#181818;stroke-width:1.0;"/><line style="stroke:#181818;stroke-width:1.0;" x1="601" x2="828" y1="1428.3906" y2="1428.3906"/><text fill="#000000" font-family="sans-serif" font-size="20" lengthAdjust="spacing" textLength="184" x="608" y="1421.6738">save(person.get())</text><polygon fill="#181818" points="1040,1461.6719,1050,1465.6719,1040,1469.6719,1044,1465.6719" style="stroke:#181818;stroke-width:1.0;"/><line style="stroke:#181818;stroke-width:1.0;" x1="844" x2="1046" y1="1465.6719" y2="1465.6719"/><text fill="#000000" font-family="sans-serif" font-size="20" lengthAdjust="spacing" textLength="184" x="851" y="1458.9551">save(person.get())</text><polygon fill="#181818" points="1291,1498.9531,1301,1502.9531,1291,1506.9531,1295,1502.9531" style="stroke:#181818;stroke-width:1.0;"/><line style="stroke:#181818;stroke-width:1.0;" x1="1062" x2="1297" y1="1502.9531" y2="1502.9531"/><text fill="#000000" font-family="sans-serif" font-size="20" lengthAdjust="spacing" textLength="204" x="1069" y="1496.2363">merge(person.get())</text><polygon fill="#181818" points="1073,1536.2344,1063,1540.2344,1073,1544.2344,1069,1540.2344" style="stroke:#181818;stroke-width:1.0;"/><line style="stroke:#181818;stroke-width:1.0;stroke-dasharray:2.0,2.0;" x1="1067" x2="1302" y1="1540.2344" y2="1540.2344"/><text fill="#000000" font-family="sans-serif" font-size="20" lengthAdjust="spacing" textLength="72" x="1079" y="1533.5176">returns</text><text fill="#000000" font-family="sans-serif" font-size="20" lengthAdjust="spacing" textLength="6" x="1151" y="1533.5176"> </text><text fill="#000000" font-family="sans-serif" font-size="20" lengthAdjust="spacing" textLength="45" x="1157" y="1533.5176">User</text><polygon fill="#181818" points="855,1573.5156,845,1577.5156,855,1581.5156,851,1577.5156" style="stroke:#181818;stroke-width:1.0;"/><line style="stroke:#181818;stroke-width:1.0;stroke-dasharray:2.0,2.0;" x1="849" x2="1056" y1="1577.5156" y2="1577.5156"/><text fill="#000000" font-family="sans-serif" font-size="20" lengthAdjust="spacing" textLength="72" x="861" y="1570.7988">returns</text><text fill="#000000" font-family="sans-serif" font-size="20" lengthAdjust="spacing" textLength="6" x="933" y="1570.7988"> </text><text fill="#000000" font-family="sans-serif" font-size="20" lengthAdjust="spacing" textLength="45" x="939" y="1570.7988">User</text><polygon fill="#181818" points="612,1610.7969,602,1614.7969,612,1618.7969,608,1614.7969" style="stroke:#181818;stroke-width:1.0;"/><line style="stroke:#181818;stroke-width:1.0;stroke-dasharray:2.0,2.0;" x1="606" x2="838" y1="1614.7969" y2="1614.7969"/><text fill="#000000" font-family="sans-serif" font-size="20" lengthAdjust="spacing" textLength="72" x="618" y="1608.0801">returns</text><text fill="#000000" font-family="sans-serif" font-size="20" lengthAdjust="spacing" textLength="6" x="690" y="1608.0801"> </text><text fill="#000000" font-family="sans-serif" font-size="20" lengthAdjust="spacing" textLength="45" x="696" y="1608.0801">User</text><polygon fill="#181818" points="318,1648.0781,308,1652.0781,318,1656.0781,314,1652.0781" style="stroke:#181818;stroke-width:1.0;"/><line style="stroke:#181818;stroke-width:1.0;stroke-dasharray:2.0,2.0;" x1="312" x2="590" y1="1652.0781" y2="1652.0781"/><text fill="#000000" font-family="sans-serif" font-size="20" lengthAdjust="spacing" textLength="62" x="324" y="1645.3613">return</text><text fill="#000000" font-family="sans-serif" font-size="20" lengthAdjust="spacing" textLength="6" x="386" y="1645.3613"> </text><text fill="#000000" font-family="sans-serif" font-size="20" lengthAdjust="spacing" textLength="41" x="392" y="1645.3613">true</text><line style="stroke:#000000;stroke-width:1.0;stroke-dasharray:2.0,2.0;" x1="180.5" x2="1377" y1="1661.0781" y2="1661.0781"/><text fill="#000000" font-family="sans-serif" font-size="20" font-weight="bold" lengthAdjust="spacing" textLength="196" x="185.5" y="1679.6426">[boolean = false]</text><polygon fill="#181818" points="318,1710.6406,308,1714.6406,318,1718.6406,314,1714.6406" style="stroke:#181818;stroke-width:1.0;"/><line style="stroke:#181818;stroke-width:1.0;stroke-dasharray:2.0,2.0;" x1="312" x2="590" y1="1714.6406" y2="1714.6406"/><text fill="#000000" font-family="sans-serif" font-size="20" lengthAdjust="spacing" textLength="62" x="324" y="1707.9238">return</text><text fill="#000000" font-family="sans-serif" font-size="20" lengthAdjust="spacing" textLength="6" x="386" y="1707.9238"> </text><text fill="#000000" font-family="sans-serif" font-size="20" lengthAdjust="spacing" textLength="47" x="392" y="1707.9238">false</text><polygon fill="#181818" points="134,1801.4844,124,1805.4844,134,1809.4844,130,1805.4844" style="stroke:#181818;stroke-width:1.0;"/><line style="stroke:#181818;stroke-width:1.0;stroke-dasharray:2.0,2.0;" x1="128" x2="296" y1="1805.4844" y2="1805.4844"/><text fill="#000000" font-family="sans-serif" font-size="20" lengthAdjust="spacing" textLength="76" x="140" y="1752.2051">Informs</text><text fill="#000000" font-family="sans-serif" font-size="20" lengthAdjust="spacing" textLength="77" x="140" y="1775.4863">success</text><text fill="#000000" font-family="sans-serif" font-size="20" lengthAdjust="spacing" textLength="6" x="217" y="1775.4863"> </text><text fill="#000000" font-family="sans-serif" font-size="20" lengthAdjust="spacing" textLength="20" x="223" y="1775.4863">or</text><text fill="#000000" font-family="sans-serif" font-size="20" lengthAdjust="spacing" textLength="64" x="140" y="1798.7676">failure</text><!--SRC=[ZLJBRjim4BppAnO-oK2YE05w2T02iUmW2LeqbMFqaWijhMB24gcIb5Ftwxia5PjMdRONlNPsEBD3qMo4RBdcJQsA3PPGOiMxsjugQHVY5yBLX5bXQuJbud8ocS0vB6PqcKk-gl5Y9eoxmzAWDb1frO1T8wnuiL5L9GfaveqVQY7Hxbe4fUrQHOM6_spG6Fw2ngru-M4I5Gt-w50M-CYr5OLekRJGoHAresEC5rPf6DsKZP0Zu0QuUsAiZU2Z8BRNwgGkxprsUVyFN4PJqAgkKNjyTWntY1nRPGHfs7b4VenuQFcK6no27Xvl_cGAYbZ9BLzH3upkhcRzio_Dfjwjs7ABlKj_XVDFP0IkuSPi35W5PPy9pGMz8U3I1mIgykbC3-di2MaKH49KWRDdguX3IBest0eb8V4qs71Hdu5gtRSnauhwQwniaF54A_WuOCszdcAjbC5dkKBxYYXxKHUzp6V9PGcjLbjHefTtM8EL60iyjliOMamiy8IVZA0up3K9si-WevVneIkBpBZ608EFS9ccWUHPxhzTfMdlWMLkfPmQAY7BwMxkn2SINuEDnAyIBPEpt3VGFlZ_7hTfV0TrpgRKLsYamhSEzIuPBUQVvzaJT72RV_qIHjZ1zxjvFeSkzOoa-7hBwmv7PxwU5ZKtPio8w_mWHgFjj3GUmNXjen4m07WJiDnFDHcxxuUvkxSuDeOrRUR3q8Oi_GW3pO1dG2HBjZobTQLKZJmE_sZZz5Fh4nesvRwIdQ8Zz_qp2RUwGwTf7xNXMqnQElQKJ5_G9cFl80xs7KISOOFwvGJcBvdi6GP-tegHSxzbWgQ1nLDWF_3CG_t_5R31jy_mC8kAq_ix-51pMKNacVyPezFbtl-p1anN57JqkxEgeZtQQOpRFFet]--></g></svg>