<?xml version="1.0" encoding="UTF-8" standalone="no"?><svg xmlns="http://www.w3.org/2000/svg" xmlns:xlink="http://www.w3.org/1999/xlink" contentStyleType="text/css" height="606px" preserveAspectRatio="none" style="width:724px;height:606px;background:#FFFFFF;" version="1.1" viewBox="0 0 724 606" width="724px" zoomAndPan="magnify"><defs/><g><text fill="#000000" font-family="sans-serif" font-size="14" font-weight="bold" lengthAdjust="spacing" textLength="423" x="149.75" y="27.9951">System Sequence Diagram (SSD) - Edit a Job Opening.</text><rect fill="#FFFFFF" height="364.8125" style="stroke:#181818;stroke-width:1.0;" width="10" x="98" y="135.5781"/><rect fill="#FFFFFF" height="37.2813" style="stroke:#181818;stroke-width:1.0;" width="10" x="666" y="164.8594"/><rect fill="#FFFFFF" height="37.2813" style="stroke:#181818;stroke-width:1.0;" width="10" x="666" y="239.4219"/><rect fill="#FFFFFF" height="37.2813" style="stroke:#181818;stroke-width:1.0;" width="10" x="666" y="313.9844"/><rect fill="#FFFFFF" height="37.2813" style="stroke:#181818;stroke-width:1.0;" width="10" x="666" y="388.5469"/><rect fill="#FFFFFF" height="37.2813" style="stroke:#181818;stroke-width:1.0;" width="10" x="666" y="463.1094"/><line style="stroke:#181818;stroke-width:0.5;stroke-dasharray:5.0,5.0;" x1="103" x2="103" y1="125.5781" y2="518.3906"/><line style="stroke:#181818;stroke-width:0.5;stroke-dasharray:5.0,5.0;" x1="670.5" x2="670.5" y1="125.5781" y2="518.3906"/><text fill="#000000" font-family="sans-serif" font-size="20" lengthAdjust="spacing" textLength="190" x="5" y="120.8613">Customer Manager</text><ellipse cx="103" cy="50.7969" fill="#E3E3E3" rx="8" ry="8" style="stroke:#181818;stroke-width:0.5;"/><path d="M103,58.7969 L103,85.7969 M90,66.7969 L116,66.7969 M103,85.7969 L90,100.7969 M103,85.7969 L116,100.7969 " fill="none" style="stroke:#181818;stroke-width:0.5;"/><text fill="#000000" font-family="sans-serif" font-size="20" lengthAdjust="spacing" textLength="190" x="5" y="535.9551">Customer Manager</text><ellipse cx="103" cy="549.1719" fill="#E3E3E3" rx="8" ry="8" style="stroke:#181818;stroke-width:0.5;"/><path d="M103,557.1719 L103,584.1719 M90,565.1719 L116,565.1719 M103,584.1719 L90,599.1719 M103,584.1719 L116,599.1719 " fill="none" style="stroke:#181818;stroke-width:0.5;"/><rect fill="#E3E3E3" height="37.2813" rx="2.5" ry="2.5" style="stroke:#181818;stroke-width:0.5;" width="95" x="623.5" y="87.2969"/><text fill="#000000" font-family="sans-serif" font-size="20" lengthAdjust="spacing" textLength="81" x="630.5" y="112.8613">:System</text><rect fill="#E3E3E3" height="37.2813" rx="2.5" ry="2.5" style="stroke:#181818;stroke-width:0.5;" width="95" x="623.5" y="517.3906"/><text fill="#000000" font-family="sans-serif" font-size="20" lengthAdjust="spacing" textLength="81" x="630.5" y="542.9551">:System</text><rect fill="#FFFFFF" height="364.8125" style="stroke:#181818;stroke-width:1.0;" width="10" x="98" y="135.5781"/><rect fill="#FFFFFF" height="37.2813" style="stroke:#181818;stroke-width:1.0;" width="10" x="666" y="164.8594"/><rect fill="#FFFFFF" height="37.2813" style="stroke:#181818;stroke-width:1.0;" width="10" x="666" y="239.4219"/><rect fill="#FFFFFF" height="37.2813" style="stroke:#181818;stroke-width:1.0;" width="10" x="666" y="313.9844"/><rect fill="#FFFFFF" height="37.2813" style="stroke:#181818;stroke-width:1.0;" width="10" x="666" y="388.5469"/><rect fill="#FFFFFF" height="37.2813" style="stroke:#181818;stroke-width:1.0;" width="10" x="666" y="463.1094"/><polygon fill="#181818" points="654,160.8594,664,164.8594,654,168.8594,658,164.8594" style="stroke:#181818;stroke-width:1.0;"/><line style="stroke:#181818;stroke-width:1.0;" x1="108" x2="660" y1="164.8594" y2="164.8594"/><text fill="#000000" font-family="sans-serif" font-size="20" font-weight="bold" lengthAdjust="spacing" textLength="14" x="115" y="158.1426">1</text><text fill="#000000" font-family="sans-serif" font-size="20" lengthAdjust="spacing" textLength="497" x="133" y="158.1426">Asks to record the time and date for an interview.</text><polygon fill="#181818" points="119,198.1406,109,202.1406,119,206.1406,115,202.1406" style="stroke:#181818;stroke-width:1.0;"/><line style="stroke:#181818;stroke-width:1.0;stroke-dasharray:2.0,2.0;" x1="113" x2="670" y1="202.1406" y2="202.1406"/><text fill="#000000" font-family="sans-serif" font-size="20" font-weight="bold" lengthAdjust="spacing" textLength="14" x="125" y="195.4238">2</text><text fill="#000000" font-family="sans-serif" font-size="20" lengthAdjust="spacing" textLength="267" x="143" y="195.4238">Shows list of job openings.</text><polygon fill="#181818" points="654,235.4219,664,239.4219,654,243.4219,658,239.4219" style="stroke:#181818;stroke-width:1.0;"/><line style="stroke:#181818;stroke-width:1.0;" x1="108" x2="660" y1="239.4219" y2="239.4219"/><text fill="#000000" font-family="sans-serif" font-size="20" font-weight="bold" lengthAdjust="spacing" textLength="14" x="115" y="232.7051">3</text><text fill="#000000" font-family="sans-serif" font-size="20" lengthAdjust="spacing" textLength="232" x="133" y="232.7051">Chooses a job opening.</text><polygon fill="#181818" points="119,272.7031,109,276.7031,119,280.7031,115,276.7031" style="stroke:#181818;stroke-width:1.0;"/><line style="stroke:#181818;stroke-width:1.0;stroke-dasharray:2.0,2.0;" x1="113" x2="670" y1="276.7031" y2="276.7031"/><text fill="#000000" font-family="sans-serif" font-size="20" font-weight="bold" lengthAdjust="spacing" textLength="14" x="125" y="269.9863">4</text><text fill="#000000" font-family="sans-serif" font-size="20" lengthAdjust="spacing" textLength="516" x="143" y="269.9863">Shows list of candidates for the chosen job opening</text><polygon fill="#181818" points="654,309.9844,664,313.9844,654,317.9844,658,313.9844" style="stroke:#181818;stroke-width:1.0;"/><line style="stroke:#181818;stroke-width:1.0;" x1="108" x2="660" y1="313.9844" y2="313.9844"/><text fill="#000000" font-family="sans-serif" font-size="20" font-weight="bold" lengthAdjust="spacing" textLength="14" x="115" y="307.2676">5</text><text fill="#000000" font-family="sans-serif" font-size="20" lengthAdjust="spacing" textLength="220" x="133" y="307.2676">Chooses an candidate</text><polygon fill="#181818" points="119,347.2656,109,351.2656,119,355.2656,115,351.2656" style="stroke:#181818;stroke-width:1.0;"/><line style="stroke:#181818;stroke-width:1.0;stroke-dasharray:2.0,2.0;" x1="113" x2="670" y1="351.2656" y2="351.2656"/><text fill="#000000" font-family="sans-serif" font-size="20" font-weight="bold" lengthAdjust="spacing" textLength="14" x="125" y="344.5488">6</text><text fill="#000000" font-family="sans-serif" font-size="20" lengthAdjust="spacing" textLength="491" x="143" y="344.5488">Asks to record the time and date for an interview</text><polygon fill="#181818" points="654,384.5469,664,388.5469,654,392.5469,658,388.5469" style="stroke:#181818;stroke-width:1.0;"/><line style="stroke:#181818;stroke-width:1.0;" x1="108" x2="660" y1="388.5469" y2="388.5469"/><text fill="#000000" font-family="sans-serif" font-size="20" font-weight="bold" lengthAdjust="spacing" textLength="14" x="115" y="381.8301">7</text><text fill="#000000" font-family="sans-serif" font-size="20" lengthAdjust="spacing" textLength="450" x="133" y="381.8301">Provides new time and date for the interview</text><polygon fill="#181818" points="119,421.8281,109,425.8281,119,429.8281,115,425.8281" style="stroke:#181818;stroke-width:1.0;"/><line style="stroke:#181818;stroke-width:1.0;stroke-dasharray:2.0,2.0;" x1="113" x2="670" y1="425.8281" y2="425.8281"/><text fill="#000000" font-family="sans-serif" font-size="20" font-weight="bold" lengthAdjust="spacing" textLength="14" x="125" y="419.1113">8</text><text fill="#000000" font-family="sans-serif" font-size="20" lengthAdjust="spacing" textLength="245" x="143" y="419.1113">Asks to confirm changes</text><polygon fill="#181818" points="654,459.1094,664,463.1094,654,467.1094,658,463.1094" style="stroke:#181818;stroke-width:1.0;"/><line style="stroke:#181818;stroke-width:1.0;" x1="108" x2="660" y1="463.1094" y2="463.1094"/><text fill="#000000" font-family="sans-serif" font-size="20" font-weight="bold" lengthAdjust="spacing" textLength="14" x="115" y="456.3926">9</text><text fill="#000000" font-family="sans-serif" font-size="20" lengthAdjust="spacing" textLength="180" x="133" y="456.3926">Confirms changes</text><polygon fill="#181818" points="114,496.3906,104,500.3906,114,504.3906,110,500.3906" style="stroke:#181818;stroke-width:1.0;"/><line style="stroke:#181818;stroke-width:1.0;stroke-dasharray:2.0,2.0;" x1="108" x2="670" y1="500.3906" y2="500.3906"/><text fill="#000000" font-family="sans-serif" font-size="20" font-weight="bold" lengthAdjust="spacing" textLength="28" x="120" y="493.6738">10</text><text fill="#000000" font-family="sans-serif" font-size="20" lengthAdjust="spacing" textLength="357" x="152" y="493.6738">Informs success or failure of update</text><!--SRC=[fPF1JkD038RlynHMJxk7LcYFFQoq0bPQ90HIdi1Cd6PeOeUnfnNxzEkqT8bAXIZaD9hO___vjqRNYGVCs7SIrrH3JGsMpduBMvN-4lou244FDT0BIsopz0IM2qt-31ZNkABAdZk2JD6GLzsqG5kiPPju1GrsIY5OCY-jdjMeXugU2d4ak4gu6ik_LTNLTvZ3TPqC46xa0Uu6OkzVX835X4l_GDdFqIJ3xBAeELQ6MsJdo3D0XSFborrm4ain3SW6i-NUUbUuF-x4qWQDtdI6emkO_poWB-6NhXLCnh4brs2jfvCy8cJFSrHhd10P4XlbJQBjOk9qi7vHcxlmiTSIgbQs2brI0sdWqSEGVHYw23MzqNeFzh8LKLBFT2Ap-19Fz47JEAZk9XtdZwsRyDJY12Vuzp5MVlKua_JitPpWV0_nFiicrSx8j3sXFFgzIdyEFGetAVUUgRyfqhCNlc_N__tdKVnXdyExjSH8gk13DPYwacbSVHbsEpc1DBawVap_0000]--></g></svg>