<?xml version="1.0" encoding="UTF-8" standalone="no"?><svg xmlns="http://www.w3.org/2000/svg" xmlns:xlink="http://www.w3.org/1999/xlink" contentStyleType="text/css" height="785px" preserveAspectRatio="none" style="width:736px;height:785px;background:#FFFFFF;" version="1.1" viewBox="0 0 736 785" width="736px" zoomAndPan="magnify"><defs/><g><text fill="#000000" font-family="sans-serif" font-size="14" font-weight="bold" lengthAdjust="spacing" textLength="423" x="155.75" y="27.9951">System Sequence Diagram (SSD) - Edit a Job Opening.</text><rect fill="#FFFFFF" height="544.5" style="stroke:#181818;stroke-width:1.0;" width="10" x="98" y="135.5781"/><rect fill="#FFFFFF" height="127.125" style="stroke:#181818;stroke-width:1.0;" width="10" x="678" y="164.8594"/><rect fill="#FFFFFF" height="127.125" style="stroke:#181818;stroke-width:1.0;" width="10" x="678" y="329.2656"/><rect fill="#FFFFFF" height="37.2813" style="stroke:#181818;stroke-width:1.0;" width="10" x="678" y="493.6719"/><rect fill="#FFFFFF" height="37.2813" style="stroke:#181818;stroke-width:1.0;" width="10" x="678" y="568.2344"/><rect fill="#FFFFFF" height="37.2813" style="stroke:#181818;stroke-width:1.0;" width="10" x="678" y="642.7969"/><line style="stroke:#181818;stroke-width:0.5;stroke-dasharray:5.0,5.0;" x1="103" x2="103" y1="125.5781" y2="698.0781"/><line style="stroke:#181818;stroke-width:0.5;stroke-dasharray:5.0,5.0;" x1="682.5" x2="682.5" y1="125.5781" y2="698.0781"/><text fill="#000000" font-family="sans-serif" font-size="20" lengthAdjust="spacing" textLength="190" x="5" y="120.8613">Customer Manager</text><ellipse cx="103" cy="50.7969" fill="#E3E3E3" rx="8" ry="8" style="stroke:#181818;stroke-width:0.5;"/><path d="M103,58.7969 L103,85.7969 M90,66.7969 L116,66.7969 M103,85.7969 L90,100.7969 M103,85.7969 L116,100.7969 " fill="none" style="stroke:#181818;stroke-width:0.5;"/><text fill="#000000" font-family="sans-serif" font-size="20" lengthAdjust="spacing" textLength="190" x="5" y="715.6426">Customer Manager</text><ellipse cx="103" cy="728.8594" fill="#E3E3E3" rx="8" ry="8" style="stroke:#181818;stroke-width:0.5;"/><path d="M103,736.8594 L103,763.8594 M90,744.8594 L116,744.8594 M103,763.8594 L90,778.8594 M103,763.8594 L116,778.8594 " fill="none" style="stroke:#181818;stroke-width:0.5;"/><rect fill="#E3E3E3" height="37.2813" rx="2.5" ry="2.5" style="stroke:#181818;stroke-width:0.5;" width="95" x="635.5" y="87.2969"/><text fill="#000000" font-family="sans-serif" font-size="20" lengthAdjust="spacing" textLength="81" x="642.5" y="112.8613">:System</text><rect fill="#E3E3E3" height="37.2813" rx="2.5" ry="2.5" style="stroke:#181818;stroke-width:0.5;" width="95" x="635.5" y="697.0781"/><text fill="#000000" font-family="sans-serif" font-size="20" lengthAdjust="spacing" textLength="81" x="642.5" y="722.6426">:System</text><rect fill="#FFFFFF" height="544.5" style="stroke:#181818;stroke-width:1.0;" width="10" x="98" y="135.5781"/><rect fill="#FFFFFF" height="127.125" style="stroke:#181818;stroke-width:1.0;" width="10" x="678" y="164.8594"/><rect fill="#FFFFFF" height="127.125" style="stroke:#181818;stroke-width:1.0;" width="10" x="678" y="329.2656"/><rect fill="#FFFFFF" height="37.2813" style="stroke:#181818;stroke-width:1.0;" width="10" x="678" y="493.6719"/><rect fill="#FFFFFF" height="37.2813" style="stroke:#181818;stroke-width:1.0;" width="10" x="678" y="568.2344"/><rect fill="#FFFFFF" height="37.2813" style="stroke:#181818;stroke-width:1.0;" width="10" x="678" y="642.7969"/><polygon fill="#181818" points="666,160.8594,676,164.8594,666,168.8594,670,164.8594" style="stroke:#181818;stroke-width:1.0;"/><line style="stroke:#181818;stroke-width:1.0;" x1="108" x2="672" y1="164.8594" y2="164.8594"/><text fill="#000000" font-family="sans-serif" font-size="20" font-weight="bold" lengthAdjust="spacing" textLength="14" x="115" y="158.1426">1</text><text fill="#000000" font-family="sans-serif" font-size="20" lengthAdjust="spacing" textLength="497" x="133" y="158.1426">Asks to record the time and date for an interview.</text><path d="M469,177.8594 L469,256.8594 L673,256.8594 L673,187.8594 L663,177.8594 L469,177.8594 " fill="#FAFAFA" style="stroke:#181818;stroke-width:0.5;"/><path d="M663,177.8594 L663,187.8594 L673,187.8594 L663,177.8594 " fill="#FAFAFA" style="stroke:#181818;stroke-width:0.5;"/><text fill="#000000" font-family="sans-serif" font-size="20" lengthAdjust="spacing" textLength="179" x="475" y="201.4238">Show only the job</text><text fill="#000000" font-family="sans-serif" font-size="20" lengthAdjust="spacing" textLength="177" x="481" y="224.7051">openings that are</text><text fill="#000000" font-family="sans-serif" font-size="20" lengthAdjust="spacing" textLength="147" x="481" y="247.9863">in a valid state</text><polygon fill="#181818" points="119,287.9844,109,291.9844,119,295.9844,115,291.9844" style="stroke:#181818;stroke-width:1.0;"/><line style="stroke:#181818;stroke-width:1.0;stroke-dasharray:2.0,2.0;" x1="113" x2="682" y1="291.9844" y2="291.9844"/><text fill="#000000" font-family="sans-serif" font-size="20" font-weight="bold" lengthAdjust="spacing" textLength="14" x="125" y="285.2676">2</text><text fill="#000000" font-family="sans-serif" font-size="20" lengthAdjust="spacing" textLength="267" x="143" y="285.2676">Shows list of job openings.</text><polygon fill="#181818" points="666,325.2656,676,329.2656,666,333.2656,670,329.2656" style="stroke:#181818;stroke-width:1.0;"/><line style="stroke:#181818;stroke-width:1.0;" x1="108" x2="672" y1="329.2656" y2="329.2656"/><text fill="#000000" font-family="sans-serif" font-size="20" font-weight="bold" lengthAdjust="spacing" textLength="14" x="115" y="322.5488">3</text><text fill="#000000" font-family="sans-serif" font-size="20" lengthAdjust="spacing" textLength="232" x="133" y="322.5488">Chooses a job opening.</text><path d="M382,342.2656 L382,421.2656 L673,421.2656 L673,352.2656 L663,342.2656 L382,342.2656 " fill="#FAFAFA" style="stroke:#181818;stroke-width:0.5;"/><path d="M663,342.2656 L663,352.2656 L673,352.2656 L663,342.2656 " fill="#FAFAFA" style="stroke:#181818;stroke-width:0.5;"/><text fill="#000000" font-family="sans-serif" font-size="20" lengthAdjust="spacing" textLength="270" x="388" y="365.8301">Show only the applications</text><text fill="#000000" font-family="sans-serif" font-size="20" lengthAdjust="spacing" textLength="210" x="400" y="389.1113">that have passed the</text><text fill="#000000" font-family="sans-serif" font-size="20" lengthAdjust="spacing" textLength="181" x="394" y="412.3926">requirement state</text><polygon fill="#181818" points="119,452.3906,109,456.3906,119,460.3906,115,456.3906" style="stroke:#181818;stroke-width:1.0;"/><line style="stroke:#181818;stroke-width:1.0;stroke-dasharray:2.0,2.0;" x1="113" x2="682" y1="456.3906" y2="456.3906"/><text fill="#000000" font-family="sans-serif" font-size="20" font-weight="bold" lengthAdjust="spacing" textLength="14" x="125" y="449.6738">4</text><text fill="#000000" font-family="sans-serif" font-size="20" lengthAdjust="spacing" textLength="528" x="143" y="449.6738">Shows list of applications for the chosen job opening</text><polygon fill="#181818" points="666,489.6719,676,493.6719,666,497.6719,670,493.6719" style="stroke:#181818;stroke-width:1.0;"/><line style="stroke:#181818;stroke-width:1.0;" x1="108" x2="672" y1="493.6719" y2="493.6719"/><text fill="#000000" font-family="sans-serif" font-size="20" font-weight="bold" lengthAdjust="spacing" textLength="14" x="115" y="486.9551">5</text><text fill="#000000" font-family="sans-serif" font-size="20" lengthAdjust="spacing" textLength="238" x="133" y="486.9551">Chooses an application.</text><polygon fill="#181818" points="119,526.9531,109,530.9531,119,534.9531,115,530.9531" style="stroke:#181818;stroke-width:1.0;"/><line style="stroke:#181818;stroke-width:1.0;stroke-dasharray:2.0,2.0;" x1="113" x2="682" y1="530.9531" y2="530.9531"/><text fill="#000000" font-family="sans-serif" font-size="20" font-weight="bold" lengthAdjust="spacing" textLength="14" x="125" y="524.2363">6</text><text fill="#000000" font-family="sans-serif" font-size="20" lengthAdjust="spacing" textLength="491" x="143" y="524.2363">Asks to record the time and date for an interview</text><polygon fill="#181818" points="666,564.2344,676,568.2344,666,572.2344,670,568.2344" style="stroke:#181818;stroke-width:1.0;"/><line style="stroke:#181818;stroke-width:1.0;" x1="108" x2="672" y1="568.2344" y2="568.2344"/><text fill="#000000" font-family="sans-serif" font-size="20" font-weight="bold" lengthAdjust="spacing" textLength="14" x="115" y="561.5176">7</text><text fill="#000000" font-family="sans-serif" font-size="20" lengthAdjust="spacing" textLength="135" x="133" y="561.5176">Provides data</text><polygon fill="#181818" points="119,601.5156,109,605.5156,119,609.5156,115,605.5156" style="stroke:#181818;stroke-width:1.0;"/><line style="stroke:#181818;stroke-width:1.0;stroke-dasharray:2.0,2.0;" x1="113" x2="682" y1="605.5156" y2="605.5156"/><text fill="#000000" font-family="sans-serif" font-size="20" font-weight="bold" lengthAdjust="spacing" textLength="14" x="125" y="598.7988">8</text><text fill="#000000" font-family="sans-serif" font-size="20" lengthAdjust="spacing" textLength="245" x="143" y="598.7988">Asks to confirm changes</text><polygon fill="#181818" points="666,638.7969,676,642.7969,666,646.7969,670,642.7969" style="stroke:#181818;stroke-width:1.0;"/><line style="stroke:#181818;stroke-width:1.0;" x1="108" x2="672" y1="642.7969" y2="642.7969"/><text fill="#000000" font-family="sans-serif" font-size="20" font-weight="bold" lengthAdjust="spacing" textLength="14" x="115" y="636.0801">9</text><text fill="#000000" font-family="sans-serif" font-size="20" lengthAdjust="spacing" textLength="180" x="133" y="636.0801">Confirms changes</text><polygon fill="#181818" points="114,676.0781,104,680.0781,114,684.0781,110,680.0781" style="stroke:#181818;stroke-width:1.0;"/><line style="stroke:#181818;stroke-width:1.0;stroke-dasharray:2.0,2.0;" x1="108" x2="682" y1="680.0781" y2="680.0781"/><text fill="#000000" font-family="sans-serif" font-size="20" font-weight="bold" lengthAdjust="spacing" textLength="28" x="120" y="673.3613">10</text><text fill="#000000" font-family="sans-serif" font-size="20" lengthAdjust="spacing" textLength="357" x="152" y="673.3613">Informs success or failure of update</text><!--SRC=[fLEzRjj03Dxr58IdTh1HTCnGe4XQe0MA5j2QXJvHrjKdKZrICjodBoN5YU0OGPngEb3aztSytKVkC6ER9EofWefgx9Dz5ROo_YNu-A4ezDG3hR249ajBOBcdnPyEmnvtLDen4MGAXhnBomPji993v1tKc9IAmg9vQtbKenPA-jCJ1uAxYBkn_LrPths7DNofeW72Tzd2puxOvpT5WRq9z-sMif-3IORLRQ_ciZByG7OTUGMeS2e-r0fNOZ743jbWTJDJJutpSGAB0nezcopE2h3-T99-0vzrhs0osfPSWJMUJlI8a3tF4QrsXSWGsIWFaGwRWiNBYMe3gP-0oaOE89oE4yPlsTupoEpQ2Hhq93BTZq0UoO0fLg3c14-wJqOU8DSkyrpvJAEGeaxiJlD8iYagUeRralNRHaH9NSu2vdNsiEjI36XHMDtJxA_1WNoNL6dAqUlPDoDcQidlxF_DBacdQncLXCOzyDB1XHZ0lzT5mKkMpPLohzwb2r9VKlahon0hb-bW-4PjGRYEkVNS_96JNhqpyxW-pb-duXjx13wjVGYa2fv7ZJ7rcSOBxhinfKkI5gNpr_qF]--></g></svg>