<?xml version="1.0" encoding="UTF-8" standalone="no"?><svg xmlns="http://www.w3.org/2000/svg" xmlns:xlink="http://www.w3.org/1999/xlink" contentStyleType="text/css" height="473px" preserveAspectRatio="none" style="width:2102px;height:473px;background:#FFFFFF;" version="1.1" viewBox="0 0 2102 473" width="2102px" zoomAndPan="magnify"><defs/><g><text fill="#000000" font-family="sans-serif" font-size="14" font-weight="bold" lengthAdjust="spacing" textLength="187" x="950.5" y="22.9951">Domain Model - US1007</text><!--cluster <<aggregate>> RecruitmentProcess--><g id="cluster_&lt;&lt;aggregate&gt;&gt; RecruitmentProcess"><path d="M8.5,44.5137 L390.5,44.5137 A3.75,3.75 0 0 1 393,47.0137 L400,73.7949 L2092.5,73.7949 A2.5,2.5 0 0 1 2095,76.2949 L2095,464.0137 A2.5,2.5 0 0 1 2092.5,466.5137 L8.5,466.5137 A2.5,2.5 0 0 1 6,464.0137 L6,47.0137 A2.5,2.5 0 0 1 8.5,44.5137 " fill="#EBF5FB" style="stroke:#000000;stroke-width:1.5;"/><line style="stroke:#000000;stroke-width:1.5;" x1="6" x2="400" y1="73.7949" y2="73.7949"/><text fill="#000000" font-family="sans-serif" font-size="20" font-weight="bold" lengthAdjust="spacing" textLength="381" x="10" y="65.0781">«aggregate» RecruitmentProcess</text></g><!--class RecruitmentProcess--><g id="elem_RecruitmentProcess"><rect codeLine="21" fill="#FDEBD0" height="79.8438" id="RecruitmentProcess" rx="2.5" ry="2.5" style="stroke:#181818;stroke-width:0.5;" width="234" x="1154" y="86.5137"/><ellipse cx="1170" cy="126.4355" fill="#ADD1B2" rx="12" ry="12" style="stroke:#181818;stroke-width:1.0;"/><path d="M1174.7188,133.9355 L1165.6406,133.9355 L1165.6406,119.3574 L1174.7188,119.3574 L1174.7188,121.8887 L1168.5156,121.8887 L1168.5156,125.0449 L1174.1406,125.0449 L1174.1406,127.5762 L1168.5156,127.5762 L1168.5156,131.3887 L1174.7188,131.3887 L1174.7188,133.9355 Z " fill="#000000"/><text fill="#000000" font-family="sans-serif" font-size="20" font-style="italic" lengthAdjust="spacing" textLength="83" x="1243.5" y="110.0781">«entity»</text><text fill="#000000" font-family="sans-serif" font-size="20" font-style="italic" lengthAdjust="spacing" textLength="64" x="1253" y="133.3594">«root»</text><text fill="#000000" font-family="sans-serif" font-size="20" lengthAdjust="spacing" textLength="200" x="1185" y="156.6406">RecruitmentProcess</text></g><!--class Phase--><g id="elem_Phase"><rect codeLine="22" fill="#FEF9E7" height="56.5625" id="Phase" rx="2.5" ry="2.5" style="stroke:#181818;stroke-width:0.5;" width="113" x="1214.5" y="251.5137"/><ellipse cx="1230.5" cy="279.7949" fill="#ADD1B2" rx="12" ry="12" style="stroke:#181818;stroke-width:1.0;"/><path d="M1235.2188,287.2949 L1226.1406,287.2949 L1226.1406,272.7168 L1235.2188,272.7168 L1235.2188,275.248 L1229.0156,275.248 L1229.0156,278.4043 L1234.6406,278.4043 L1234.6406,280.9355 L1229.0156,280.9355 L1229.0156,284.748 L1235.2188,284.748 L1235.2188,287.2949 Z " fill="#000000"/><text fill="#000000" font-family="sans-serif" font-size="20" font-style="italic" lengthAdjust="spacing" textLength="83" x="1243.5" y="275.0781">«entity»</text><text fill="#000000" font-family="sans-serif" font-size="20" lengthAdjust="spacing" textLength="59" x="1255.5" y="298.3594">Phase</text></g><!--class ApplicationPhase--><g id="elem_ApplicationPhase"><rect codeLine="23" fill="#FEF9E7" height="56.5625" id="ApplicationPhase" rx="2.5" ry="2.5" style="stroke:#181818;stroke-width:0.5;" width="207" x="598.5" y="393.5137"/><ellipse cx="614.5" cy="421.7949" fill="#ADD1B2" rx="12" ry="12" style="stroke:#181818;stroke-width:1.0;"/><path d="M619.2188,429.2949 L610.1406,429.2949 L610.1406,414.7168 L619.2188,414.7168 L619.2188,417.248 L613.0156,417.248 L613.0156,420.4043 L618.6406,420.4043 L618.6406,422.9355 L613.0156,422.9355 L613.0156,426.748 L619.2188,426.748 L619.2188,429.2949 Z " fill="#000000"/><text fill="#000000" font-family="sans-serif" font-size="20" font-style="italic" lengthAdjust="spacing" textLength="83" x="674.5" y="417.0781">«entity»</text><text fill="#000000" font-family="sans-serif" font-size="20" lengthAdjust="spacing" textLength="173" x="629.5" y="440.3594">ApplicationPhase</text></g><!--class ScreeningPhase--><g id="elem_ScreeningPhase"><rect codeLine="24" fill="#FEF9E7" height="56.5625" id="ScreeningPhase" rx="2.5" ry="2.5" style="stroke:#181818;stroke-width:0.5;" width="194" x="841" y="393.5137"/><ellipse cx="857" cy="421.7949" fill="#ADD1B2" rx="12" ry="12" style="stroke:#181818;stroke-width:1.0;"/><path d="M861.7188,429.2949 L852.6406,429.2949 L852.6406,414.7168 L861.7188,414.7168 L861.7188,417.248 L855.5156,417.248 L855.5156,420.4043 L861.1406,420.4043 L861.1406,422.9355 L855.5156,422.9355 L855.5156,426.748 L861.7188,426.748 L861.7188,429.2949 Z " fill="#000000"/><text fill="#000000" font-family="sans-serif" font-size="20" font-style="italic" lengthAdjust="spacing" textLength="83" x="910.5" y="417.0781">«entity»</text><text fill="#000000" font-family="sans-serif" font-size="20" lengthAdjust="spacing" textLength="160" x="872" y="440.3594">ScreeningPhase</text></g><!--class InterviewPhase--><g id="elem_InterviewPhase"><rect codeLine="25" fill="#FEF9E7" height="56.5625" id="InterviewPhase" rx="2.5" ry="2.5" style="stroke:#181818;stroke-width:0.5;" width="186" x="1070" y="393.5137"/><ellipse cx="1086" cy="421.7949" fill="#ADD1B2" rx="12" ry="12" style="stroke:#181818;stroke-width:1.0;"/><path d="M1090.7188,429.2949 L1081.6406,429.2949 L1081.6406,414.7168 L1090.7188,414.7168 L1090.7188,417.248 L1084.5156,417.248 L1084.5156,420.4043 L1090.1406,420.4043 L1090.1406,422.9355 L1084.5156,422.9355 L1084.5156,426.748 L1090.7188,426.748 L1090.7188,429.2949 Z " fill="#000000"/><text fill="#000000" font-family="sans-serif" font-size="20" font-style="italic" lengthAdjust="spacing" textLength="83" x="1135.5" y="417.0781">«entity»</text><text fill="#000000" font-family="sans-serif" font-size="20" lengthAdjust="spacing" textLength="152" x="1101" y="440.3594">InterviewPhase</text></g><!--class AnalysisPhase--><g id="elem_AnalysisPhase"><rect codeLine="26" fill="#FEF9E7" height="56.5625" id="AnalysisPhase" rx="2.5" ry="2.5" style="stroke:#181818;stroke-width:0.5;" width="175" x="1291.5" y="393.5137"/><ellipse cx="1307.5" cy="421.7949" fill="#ADD1B2" rx="12" ry="12" style="stroke:#181818;stroke-width:1.0;"/><path d="M1312.2188,429.2949 L1303.1406,429.2949 L1303.1406,414.7168 L1312.2188,414.7168 L1312.2188,417.248 L1306.0156,417.248 L1306.0156,420.4043 L1311.6406,420.4043 L1311.6406,422.9355 L1306.0156,422.9355 L1306.0156,426.748 L1312.2188,426.748 L1312.2188,429.2949 Z " fill="#000000"/><text fill="#000000" font-family="sans-serif" font-size="20" font-style="italic" lengthAdjust="spacing" textLength="83" x="1351.5" y="417.0781">«entity»</text><text fill="#000000" font-family="sans-serif" font-size="20" lengthAdjust="spacing" textLength="141" x="1322.5" y="440.3594">AnalysisPhase</text></g><!--class ResultPhase--><g id="elem_ResultPhase"><rect codeLine="27" fill="#FEF9E7" height="56.5625" id="ResultPhase" rx="2.5" ry="2.5" style="stroke:#181818;stroke-width:0.5;" width="156" x="1502" y="393.5137"/><ellipse cx="1518" cy="421.7949" fill="#ADD1B2" rx="12" ry="12" style="stroke:#181818;stroke-width:1.0;"/><path d="M1522.7188,429.2949 L1513.6406,429.2949 L1513.6406,414.7168 L1522.7188,414.7168 L1522.7188,417.248 L1516.5156,417.248 L1516.5156,420.4043 L1522.1406,420.4043 L1522.1406,422.9355 L1516.5156,422.9355 L1516.5156,426.748 L1522.7188,426.748 L1522.7188,429.2949 Z " fill="#000000"/><text fill="#000000" font-family="sans-serif" font-size="20" font-style="italic" lengthAdjust="spacing" textLength="83" x="1552.5" y="417.0781">«entity»</text><text fill="#000000" font-family="sans-serif" font-size="20" lengthAdjust="spacing" textLength="122" x="1533" y="440.3594">ResultPhase</text></g><!--class InitialDate--><g id="elem_InitialDate"><rect codeLine="29" fill="#D6EAF8" height="56.5625" id="InitialDate" rx="2.5" ry="2.5" style="stroke:#181818;stroke-width:0.5;" width="175" x="1693.5" y="393.5137"/><ellipse cx="1709.5" cy="421.7949" fill="#FF8B40" rx="12" ry="12" style="stroke:#181818;stroke-width:1.0;"/><path d="M1709.5156,427.6387 L1712.0781,415.4668 L1714.9844,415.4668 L1711.5156,430.0449 L1707.5313,430.0449 L1704.0625,415.4668 L1706.9531,415.4668 L1709.5156,427.6387 Z " fill="#000000"/><text fill="#000000" font-family="sans-serif" font-size="20" font-style="italic" lengthAdjust="spacing" textLength="145" x="1722.5" y="417.0781">«valueObject»</text><text fill="#000000" font-family="sans-serif" font-size="20" lengthAdjust="spacing" textLength="104" x="1743" y="440.3594">InitialDate</text></g><!--class FinalDate--><g id="elem_FinalDate"><rect codeLine="30" fill="#D6EAF8" height="56.5625" id="FinalDate" rx="2.5" ry="2.5" style="stroke:#181818;stroke-width:0.5;" width="175" x="1903.5" y="393.5137"/><ellipse cx="1919.5" cy="421.7949" fill="#FF8B40" rx="12" ry="12" style="stroke:#181818;stroke-width:1.0;"/><path d="M1919.5156,427.6387 L1922.0781,415.4668 L1924.9844,415.4668 L1921.5156,430.0449 L1917.5313,430.0449 L1914.0625,415.4668 L1916.9531,415.4668 L1919.5156,427.6387 Z " fill="#000000"/><text fill="#000000" font-family="sans-serif" font-size="20" font-style="italic" lengthAdjust="spacing" textLength="145" x="1932.5" y="417.0781">«valueObject»</text><text fill="#000000" font-family="sans-serif" font-size="20" lengthAdjust="spacing" textLength="96" x="1957" y="440.3594">FinalDate</text></g><!--class State--><g id="elem_State"><rect codeLine="31" fill="#D6EAF8" height="56.5625" id="State" rx="2.5" ry="2.5" style="stroke:#181818;stroke-width:0.5;" width="175" x="22.5" y="393.5137"/><ellipse cx="38.5" cy="421.7949" fill="#FF8B40" rx="12" ry="12" style="stroke:#181818;stroke-width:1.0;"/><path d="M38.5156,427.6387 L41.0781,415.4668 L43.9844,415.4668 L40.5156,430.0449 L36.5313,430.0449 L33.0625,415.4668 L35.9531,415.4668 L38.5156,427.6387 Z " fill="#000000"/><text fill="#000000" font-family="sans-serif" font-size="20" font-style="italic" lengthAdjust="spacing" textLength="145" x="51.5" y="417.0781">«valueObject»</text><text fill="#000000" font-family="sans-serif" font-size="20" lengthAdjust="spacing" textLength="53" x="97.5" y="440.3594">State</text></g><g id="elem_GMN13"><path d="M232.5,405.5137 L232.5,418.0137 L197.75,422.0137 L232.5,426.0137 L232.5,438.7949 A0,0 0 0 0 232.5,438.7949 L563.5,438.7949 A0,0 0 0 0 563.5,438.7949 L563.5,415.5137 L553.5,405.5137 L232.5,405.5137 A0,0 0 0 0 232.5,405.5137 " fill="#FEFFDD" style="stroke:#181818;stroke-width:0.5;"/><path d="M553.5,405.5137 L553.5,415.5137 L563.5,415.5137 L553.5,405.5137 " fill="#FEFFDD" style="stroke:#181818;stroke-width:0.5;"/><text fill="#000000" font-family="sans-serif" font-size="20" lengthAdjust="spacing" textLength="310" x="238.5" y="429.0781">State can be Opened or Closed</text></g><!--link RecruitmentProcess to Phase--><g id="link_RecruitmentProcess_Phase"><path codeLine="37" d="M1271,166.5337 C1271,191.1437 1271,222.5837 1271,245.9737 " fill="none" id="RecruitmentProcess-to-Phase" style="stroke:#000000;stroke-width:1.0;"/><polygon fill="#000000" points="1271,251.1337,1275,242.1337,1271,246.1337,1267,242.1337,1271,251.1337" style="stroke:#000000;stroke-width:1.0;"/><text fill="#000000" font-family="sans-serif" font-size="20" lengthAdjust="spacing" textLength="35" x="1272" y="216.0781">has</text><text fill="#000000" font-family="sans-serif" font-size="20" lengthAdjust="spacing" textLength="13" x="1257.0047" y="193.0206">1</text><text fill="#000000" font-family="sans-serif" font-size="20" lengthAdjust="spacing" textLength="10" x="1260.0156" y="238.8191">*</text></g><!--link Phase to State--><g id="link_Phase_State"><path codeLine="40" d="M1214.48,284.0437 C1055.8,293.1937 593.12,324.2637 215,393.5137 C210.94,394.2537 206.8,395.0737 202.63,395.9537 " fill="none" id="Phase-to-State" style="stroke:#000000;stroke-width:1.0;"/><polygon fill="#000000" points="197.72,397.0037,207.3567,399.0368,202.6098,395.9599,205.6867,391.2131,197.72,397.0037" style="stroke:#000000;stroke-width:1.0;"/><text fill="#000000" font-family="sans-serif" font-size="20" lengthAdjust="spacing" textLength="35" x="562" y="358.0781">has</text><text fill="#000000" font-family="sans-serif" font-size="20" lengthAdjust="spacing" textLength="13" x="1193.4056" y="278.6971">1</text><text fill="#000000" font-family="sans-serif" font-size="20" lengthAdjust="spacing" textLength="13" x="205.5226" y="389.5744">1</text></g><!--link Phase to InitialDate--><g id="link_Phase_InitialDate"><path codeLine="41" d="M1327.72,295.7837 C1371.54,307.2637 1433.67,323.6737 1488,338.5137 C1555.19,356.8737 1630.85,378.1937 1688.46,394.5637 " fill="none" id="Phase-to-InitialDate" style="stroke:#000000;stroke-width:1.0;"/><polygon fill="#000000" points="1693.27,395.9337,1685.6978,389.6359,1688.4586,394.5733,1683.5212,397.3341,1693.27,395.9337" style="stroke:#000000;stroke-width:1.0;"/><text fill="#000000" font-family="sans-serif" font-size="20" lengthAdjust="spacing" textLength="35" x="1577" y="358.0781">has</text><text fill="#000000" font-family="sans-serif" font-size="20" lengthAdjust="spacing" textLength="13" x="1335.4249" y="291.9123">1</text><text fill="#000000" font-family="sans-serif" font-size="20" lengthAdjust="spacing" textLength="13" x="1672.4666" y="388.4158">1</text></g><!--link Phase to FinalDate--><g id="link_Phase_FinalDate"><path codeLine="42" d="M1327.5,289.5537 C1396.8,300.1937 1517.78,319.3337 1621,338.5137 C1739.26,360.4937 1768.89,366.0437 1886,393.5137 C1890.09,394.4737 1894.26,395.4737 1898.47,396.5037 " fill="none" id="Phase-to-FinalDate" style="stroke:#000000;stroke-width:1.0;"/><polygon fill="#000000" points="1903.43,397.7137,1895.6521,391.6718,1898.5759,396.5144,1893.7333,399.4383,1903.43,397.7137" style="stroke:#000000;stroke-width:1.0;"/><text fill="#000000" font-family="sans-serif" font-size="20" lengthAdjust="spacing" textLength="35" x="1750" y="358.0781">has</text><text fill="#000000" font-family="sans-serif" font-size="20" lengthAdjust="spacing" textLength="13" x="1335.5719" y="310.8599">1</text><text fill="#000000" font-family="sans-serif" font-size="20" lengthAdjust="spacing" textLength="13" x="1882.6398" y="390.3432">1</text></g><!--reverse link Phase to ApplicationPhase--><g id="link_Phase_ApplicationPhase"><path codeLine="44" d="M1194.77,299.7737 C1094.5,324.4437 917.9,367.8937 805.59,395.5237 " fill="none" id="Phase-backto-ApplicationPhase" style="stroke:#000000;stroke-width:1.0;"/><polygon fill="none" points="1193.27,292.9337,1214.36,294.9537,1196.61,306.5237,1193.27,292.9337" style="stroke:#000000;stroke-width:1.0;"/><text fill="#000000" font-family="sans-serif" font-size="20" lengthAdjust="spacing" textLength="34" x="1021" y="358.0781">is a</text></g><!--reverse link Phase to ScreeningPhase--><g id="link_Phase_ScreeningPhase"><path codeLine="45" d="M1195.4,312.8037 C1137.56,337.1137 1058.64,370.2937 1003.49,393.4837 " fill="none" id="Phase-backto-ScreeningPhase" style="stroke:#000000;stroke-width:1.0;"/><polygon fill="none" points="1192.98,306.2237,1214.13,304.9237,1198.41,319.1237,1192.98,306.2237" style="stroke:#000000;stroke-width:1.0;"/><text fill="#000000" font-family="sans-serif" font-size="20" lengthAdjust="spacing" textLength="34" x="1125" y="358.0781">is a</text></g><!--reverse link Phase to InterviewPhase--><g id="link_Phase_InterviewPhase"><path codeLine="46" d="M1237.21,324.8237 C1219.91,347.2437 1199.37,373.8637 1184.29,393.4137 " fill="none" id="Phase-backto-InterviewPhase" style="stroke:#000000;stroke-width:1.0;"/><polygon fill="none" points="1231.9,320.2337,1249.66,308.6737,1242.99,328.7837,1231.9,320.2337" style="stroke:#000000;stroke-width:1.0;"/><text fill="#000000" font-family="sans-serif" font-size="20" lengthAdjust="spacing" textLength="34" x="1224" y="358.0781">is a</text></g><!--reverse link Phase to AnalysisPhase--><g id="link_Phase_AnalysisPhase"><path codeLine="47" d="M1304.79,324.8237 C1322.09,347.2437 1342.63,373.8637 1357.71,393.4137 " fill="none" id="Phase-backto-AnalysisPhase" style="stroke:#000000;stroke-width:1.0;"/><polygon fill="none" points="1299.01,328.7837,1292.34,308.6737,1310.1,320.2337,1299.01,328.7837" style="stroke:#000000;stroke-width:1.0;"/><text fill="#000000" font-family="sans-serif" font-size="20" lengthAdjust="spacing" textLength="34" x="1332" y="358.0781">is a</text></g><!--reverse link Phase to ResultPhase--><g id="link_Phase_ResultPhase"><path codeLine="48" d="M1346.05,315.0137 C1399.19,339.0937 1469.55,370.9737 1519.19,393.4637 " fill="none" id="Phase-backto-ResultPhase" style="stroke:#000000;stroke-width:1.0;"/><polygon fill="none" points="1343,321.3237,1327.68,306.6937,1348.78,308.5737,1343,321.3237" style="stroke:#000000;stroke-width:1.0;"/><text fill="#000000" font-family="sans-serif" font-size="20" lengthAdjust="spacing" textLength="34" x="1445" y="358.0781">is a</text></g><!--SRC=[dPDHQzim58NVzIikxaEtCODJjhKB9X3NDXGsMXgsTqM-jRN8af7abgphVvzYEwcJg6Gi3p6vzpj7DrV7PiLbGpMjXM8hBA301zeAcojf5_mtmaL4YELM8AIgfbp2TrMWW11-B2PHT4b8nGi4h1kxXXhh9Mf3pitM5BvnYNRT82XjAqN8QuS9QWmy4t2VXB9LgLKhYsibb8xZHofQl5t-GcPdCpXBlsJp_CgFQgKw9a-p98tyZ47zo1bsLfFy8ajycBF8yg_PPTURQwsU-d8Y74TUnhCtha9Bz4yFPrcIVywJZUGSxf7fbjiQfRtJYg7xp_Eor5XIYsJh4yGntHRTaCUQO3ZALRXRjCSqZlkUa-zsylmo5jrLrE2Oss_FcqPmHYrNyWIvO1fHSbcUu6watUmTdqwTBAbO6svEOFTeN33VWhglFbCtabjEHUgM2OTHYkDtFp-wcywlaa_H-rTvhyov_2_TmlwhfXD9vMZDoyg2UkZ5qy63KGbBXDi6fNiPNPYkXJ9O76K9jlUkKNHtPYhU6E89HZ0980nd47m8XWXCmJqsVltFVOU-jXEvvp3VHdFS7EtwBMItrE7Sew25RHF-cVNJJ84ReEGWOXxY85mUOZzM7c0SA4_xBm00]--></g></svg>