<?xml version="1.0" encoding="UTF-8" standalone="no"?><svg xmlns="http://www.w3.org/2000/svg" xmlns:xlink="http://www.w3.org/1999/xlink" contentStyleType="text/css" height="1672px" preserveAspectRatio="none" style="width:972px;height:1672px;background:#FFFFFF;" version="1.1" viewBox="0 0 972 1672" width="972px" zoomAndPan="magnify"><defs/><g><!--cluster System--><g id="cluster_System"><rect fill="none" height="802" rx="2.5" ry="2.5" style="stroke:#181818;stroke-width:1.0;" width="721" x="245" y="864"/><text fill="#000000" font-family="sans-serif" font-size="20" font-weight="bold" lengthAdjust="spacing" textLength="70" x="570.5" y="886.7617">System</text></g><!--cluster Backoffice--><g id="cluster_Backoffice"><rect fill="none" height="417" rx="2.5" ry="2.5" style="stroke:#181818;stroke-width:1.0;" width="402" x="404.5" y="423"/><text fill="#000000" font-family="sans-serif" font-size="20" font-weight="bold" lengthAdjust="spacing" textLength="100" x="555.5" y="445.7617">Backoffice</text></g><!--cluster Candidate App--><g id="cluster_Candidate App"><rect fill="none" height="112" rx="2.5" ry="2.5" style="stroke:#181818;stroke-width:1.0;" width="261" x="475" y="287"/><text fill="#000000" font-family="sans-serif" font-size="20" font-weight="bold" lengthAdjust="spacing" textLength="138" x="536.5" y="309.7617">Candidate App</text></g><!--cluster Applications File Bot--><g id="cluster_Applications File Bot"><rect fill="none" height="118" rx="2.5" ry="2.5" style="stroke:#181818;stroke-width:1.0;" width="300" x="455.5" y="145"/><text fill="#000000" font-family="sans-serif" font-size="20" font-weight="bold" lengthAdjust="spacing" textLength="194" x="508.5" y="167.7617">Applications File Bot</text></g><!--cluster Customer App--><g id="cluster_Customer App"><rect fill="none" height="114" rx="2.5" ry="2.5" style="stroke:#181818;stroke-width:1.0;" width="274" x="468.5" y="7"/><text fill="#000000" font-family="sans-serif" font-size="20" font-weight="bold" lengthAdjust="spacing" textLength="135" x="538" y="29.7617">Customer App</text></g><g id="elem_G001"><ellipse cx="605.3605" cy="965.9721" fill="#F1F1F1" rx="275.3605" ry="57.4721" style="stroke:#181818;stroke-width:0.5;"/><text fill="#000000" font-family="sans-serif" font-size="20" lengthAdjust="spacing" textLength="518" x="346.3605" y="972.1557">Follow the technical constraints and concerns of the project</text></g><g id="elem_G002"><ellipse cx="605.3436" cy="1129.7687" fill="#F1F1F1" rx="344.3436" ry="71.2687" style="stroke:#181818;stroke-width:0.5;"/><text fill="#000000" font-family="sans-serif" font-size="20" lengthAdjust="spacing" textLength="659" x="275.8436" y="1135.9523">Use the defined project repository and setup a tool for project management</text></g><g id="elem_G003"><ellipse cx="605.5157" cy="1270.1031" fill="#F1F1F1" rx="156.0157" ry="33.6031" style="stroke:#181818;stroke-width:0.5;"/><text fill="#000000" font-family="sans-serif" font-size="20" lengthAdjust="spacing" textLength="266" x="469.5157" y="1277.734">Configure the project structure</text></g><g id="elem_G004"><ellipse cx="605.3928" cy="1377.8786" fill="#F1F1F1" rx="182.3928" ry="38.8786" style="stroke:#181818;stroke-width:0.5;"/><text fill="#000000" font-family="sans-serif" font-size="20" lengthAdjust="spacing" textLength="324" x="442.8347" y="1384.3603">Setup a continuous integration server</text></g><g id="elem_G005"><ellipse cx="605.6148" cy="1493.823" fill="#F1F1F1" rx="194.6148" ry="41.323" style="stroke:#181818;stroke-width:0.5;"/><text fill="#000000" font-family="sans-serif" font-size="20" lengthAdjust="spacing" textLength="350" x="430.6148" y="1500.0066">Add the necessary scripts to the project</text></g><g id="elem_G006"><ellipse cx="605.6069" cy="1610.2214" fill="#F1F1F1" rx="186.6069" ry="39.7214" style="stroke:#181818;stroke-width:0.5;"/><text fill="#000000" font-family="sans-serif" font-size="20" lengthAdjust="spacing" textLength="333" x="439.1069" y="1616.405">Elaborate a Domain Model using DDD</text></g><g id="elem_UC1"><ellipse cx="605.6989" cy="506.9398" fill="#F1F1F1" rx="185.1989" ry="39.4398" style="stroke:#181818;stroke-width:0.5;"/><text fill="#000000" font-family="sans-serif" font-size="20" lengthAdjust="spacing" textLength="330" x="440.5462" y="513.2064">Manage Customers and its Managers</text></g><g id="elem_UC2"><ellipse cx="605.6376" cy="791.9275" fill="#F1F1F1" rx="147.6376" ry="31.9275" style="stroke:#181818;stroke-width:0.5;"/><text fill="#000000" font-family="sans-serif" font-size="20" lengthAdjust="spacing" textLength="247" x="479.1376" y="799.5584">Deploy and Configure Plugin</text></g><g id="elem_UC3"><ellipse cx="605.4903" cy="607.8981" fill="#F1F1F1" rx="117.4903" ry="25.8981" style="stroke:#181818;stroke-width:0.5;"/><text fill="#000000" font-family="sans-serif" font-size="20" lengthAdjust="spacing" textLength="175" x="514.9903" y="615.5289">Register Application</text></g><g id="elem_UC4"><ellipse cx="605.2812" cy="696.7562" fill="#F1F1F1" rx="126.7812" ry="27.7562" style="stroke:#181818;stroke-width:0.5;"/><text fill="#000000" font-family="sans-serif" font-size="20" lengthAdjust="spacing" textLength="198" x="503.2812" y="704.3871">Manage Job Openings</text></g><g id="elem_UC5"><ellipse cx="605.7443" cy="356.8489" fill="#F1F1F1" rx="114.7443" ry="25.3489" style="stroke:#181818;stroke-width:0.5;"/><text fill="#000000" font-family="sans-serif" font-size="20" lengthAdjust="spacing" textLength="168" x="518.7443" y="364.4797">Follow Applications</text></g><g id="elem_UC6"><ellipse cx="605.3741" cy="218.1748" fill="#F1F1F1" rx="133.8741" ry="29.1748" style="stroke:#181818;stroke-width:0.5;"/><text fill="#000000" font-family="sans-serif" font-size="20" lengthAdjust="spacing" textLength="215" x="494.8741" y="225.8057">Import Applications Files</text></g><g id="elem_UC7"><ellipse cx="605.5796" cy="78.1159" fill="#F1F1F1" rx="121.0796" ry="26.6159" style="stroke:#181818;stroke-width:0.5;"/><text fill="#000000" font-family="sans-serif" font-size="20" lengthAdjust="spacing" textLength="184" x="510.5796" y="85.7468">Follow Job Openings</text></g><!--entity PM--><g id="elem_PM"><ellipse cx="103.5" cy="1290" fill="#FFFFFF" rx="8" ry="8" style="stroke:#000000;stroke-width:2.0;"/><path d="M103.5,1298 L103.5,1325 M90.5,1306 L116.5,1306 M103.5,1325 L90.5,1340 M103.5,1325 L116.5,1340 " fill="none" style="stroke:#000000;stroke-width:2.0;"/><text fill="#000000" font-family="sans-serif" font-size="20" lengthAdjust="spacing" textLength="146" x="30.5" y="1363.7617">Project Manager</text></g><!--entity AD--><g id="elem_AD"><ellipse cx="103.5" cy="449" fill="#FFFFFF" rx="8" ry="8" style="stroke:#FF0000;stroke-width:2.0;"/><path d="M103.5,457 L103.5,484 M90.5,465 L116.5,465 M103.5,484 L90.5,499 M103.5,484 L116.5,499 " fill="none" style="stroke:#FF0000;stroke-width:2.0;"/><text fill="#000000" font-family="sans-serif" font-size="20" lengthAdjust="spacing" textLength="54" x="76.5" y="522.7617">Admin</text></g><!--entity OP--><g id="elem_OP"><ellipse cx="103.5" cy="572" fill="#FFFFFF" rx="8" ry="8" style="stroke:#0000FF;stroke-width:2.0;"/><path d="M103.5,580 L103.5,607 M90.5,588 L116.5,588 M103.5,607 L90.5,622 M103.5,607 L116.5,622 " fill="none" style="stroke:#0000FF;stroke-width:2.0;"/><text fill="#000000" font-family="sans-serif" font-size="20" lengthAdjust="spacing" textLength="80" x="63.5" y="645.7617">Operator</text></g><!--entity CM--><g id="elem_CM"><ellipse cx="103.5" cy="695" fill="#FFFFFF" rx="8" ry="8" style="stroke:#008000;stroke-width:2.0;"/><path d="M103.5,703 L103.5,730 M90.5,711 L116.5,711 M103.5,730 L90.5,745 M103.5,730 L116.5,745 " fill="none" style="stroke:#008000;stroke-width:2.0;"/><text fill="#000000" font-family="sans-serif" font-size="20" lengthAdjust="spacing" textLength="169" x="19" y="768.7617">Customer Manager</text></g><!--entity LE--><g id="elem_LE"><ellipse cx="103.5" cy="818" fill="#FFFFFF" rx="8" ry="8" style="stroke:#800080;stroke-width:2.0;"/><path d="M103.5,826 L103.5,853 M90.5,834 L116.5,834 M103.5,853 L90.5,868 M103.5,853 L116.5,868 " fill="none" style="stroke:#800080;stroke-width:2.0;"/><text fill="#000000" font-family="sans-serif" font-size="20" lengthAdjust="spacing" textLength="169" x="19" y="891.7617">Language Engineer</text></g><!--entity CA--><g id="elem_CA"><ellipse cx="103.5" cy="323" fill="#FFFFFF" rx="8" ry="8" style="stroke:#FFA500;stroke-width:2.0;"/><path d="M103.5,331 L103.5,358 M90.5,339 L116.5,339 M103.5,358 L90.5,373 M103.5,358 L116.5,373 " fill="none" style="stroke:#FFA500;stroke-width:2.0;"/><text fill="#000000" font-family="sans-serif" font-size="20" lengthAdjust="spacing" textLength="89" x="59" y="396.7617">Candidate</text></g><!--entity EB--><g id="elem_EB"><ellipse cx="103.5" cy="184" fill="#FFFFFF" rx="8" ry="8" style="stroke:#A52A2A;stroke-width:2.0;"/><path d="M103.5,192 L103.5,219 M90.5,200 L116.5,200 M103.5,219 L90.5,234 M103.5,219 L116.5,234 " fill="none" style="stroke:#A52A2A;stroke-width:2.0;"/><text fill="#000000" font-family="sans-serif" font-size="20" lengthAdjust="spacing" textLength="195" x="6" y="257.7617">Applications Email Bot</text></g><!--entity CU--><g id="elem_CU"><ellipse cx="103.5" cy="44" fill="#FFFFFF" rx="8" ry="8" style="stroke:#9ACD32;stroke-width:2.0;"/><path d="M103.5,52 L103.5,79 M90.5,60 L116.5,60 M103.5,79 L90.5,94 M103.5,79 L116.5,94 " fill="none" style="stroke:#9ACD32;stroke-width:2.0;"/><text fill="#000000" font-family="sans-serif" font-size="20" lengthAdjust="spacing" textLength="85" x="61" y="117.7617">Customer</text></g><!--link PM to G001--><g id="link_PM_G001"><path d="M112.32,1279.96 C125.94,1216.78 160.28,1101.42 237,1041 C267.84,1016.71 304.54,999.7 342.63,987.89 " fill="none" id="PM-to-G001" style="stroke:#181818;stroke-width:1.0;"/><polygon fill="#181818" points="347.77,986.33,337.9985,985.0982,342.9828,987.7733,340.3077,992.7577,347.77,986.33" style="stroke:#181818;stroke-width:1.0;"/></g><!--link PM to G002--><g id="link_PM_G002"><path d="M149.85,1279.92 C173.99,1258.68 205.21,1234.51 237,1219 C269.89,1202.95 305.88,1189.68 342.07,1178.72 " fill="none" id="PM-to-G002" style="stroke:#181818;stroke-width:1.0;"/><polygon fill="#181818" points="346.94,1177.26,337.1685,1176.0282,342.1528,1178.7033,339.4777,1183.6877,346.94,1177.26" style="stroke:#181818;stroke-width:1.0;"/></g><!--link PM to G003--><g id="link_PM_G003"><path d="M176.67,1316.21 C250.59,1308.22 367.52,1295.59 460.46,1285.56 " fill="none" id="PM-to-G003" style="stroke:#181818;stroke-width:1.0;"/><polygon fill="#181818" points="465.71,1284.99,456.329,1281.9906,460.7395,1285.5328,457.1974,1289.9433,465.71,1284.99" style="stroke:#181818;stroke-width:1.0;"/></g><!--link PM to G004--><g id="link_PM_G004"><path d="M176.67,1331.79 C244.55,1339.13 348.7,1350.37 437.24,1359.94 " fill="none" id="PM-to-G004" style="stroke:#181818;stroke-width:1.0;"/><polygon fill="#181818" points="442.25,1360.48,433.7233,1355.5509,437.278,1359.9514,432.8775,1363.506,442.25,1360.48" style="stroke:#181818;stroke-width:1.0;"/></g><!--link PM to G005--><g id="link_PM_G005"><path d="M145.12,1368.09 C169.45,1391.73 202.33,1419.17 237,1435 C291.07,1459.68 353.72,1474.24 411.81,1482.77 " fill="none" id="PM-to-G005" style="stroke:#181818;stroke-width:1.0;"/><polygon fill="#181818" points="417.06,1483.53,408.7225,1478.2873,412.1111,1482.8169,407.5815,1486.2055,417.06,1483.53" style="stroke:#181818;stroke-width:1.0;"/></g><!--link PM to G006--><g id="link_PM_G006"><path d="M117.18,1368.3 C134.83,1421.37 172.18,1508.65 237,1553 C288.44,1588.2 353.34,1604.95 414.24,1612.17 " fill="none" id="PM-to-G006" style="stroke:#181818;stroke-width:1.0;"/><polygon fill="#181818" points="419.37,1612.76,410.8856,1607.7584,414.4027,1612.189,409.9721,1615.7061,419.37,1612.76" style="stroke:#181818;stroke-width:1.0;"/></g><!--link AD to UC1--><g id="link_AD_UC1"><path d="M130.68,484.26 C184.33,486.83 310.89,492.91 419.72,498.13 " fill="none" id="AD-to-UC1" style="stroke:#181818;stroke-width:1.0;"/><polygon fill="#181818" points="424.89,498.38,416.0947,493.9481,419.8959,498.1374,415.7065,501.9387,424.89,498.38" style="stroke:#181818;stroke-width:1.0;"/></g><!--link LE to UC2--><g id="link_LE_UC2"><path d="M188.19,841.96 C265.27,832.71 380.95,818.83 470.82,808.04 " fill="none" id="LE-to-UC2" style="stroke:#181818;stroke-width:1.0;"/><polygon fill="#181818" points="475.89,807.43,466.4838,804.5105,470.9243,808.015,467.4198,812.4556,475.89,807.43" style="stroke:#181818;stroke-width:1.0;"/></g><!--link OP to UC3--><g id="link_OP_UC3"><path d="M143.73,606.16 C215.86,606.45 372.22,607.07 482.74,607.51 " fill="none" id="OP-to-UC3" style="stroke:#181818;stroke-width:1.0;"/><polygon fill="#181818" points="487.97,607.53,478.9815,603.5043,482.97,607.5157,478.9586,611.5043,487.97,607.53" style="stroke:#181818;stroke-width:1.0;"/></g><!--link CM to UC4--><g id="link_CM_UC4"><path d="M188.19,723.64 C267.31,718.58 387.12,710.91 477.92,705.1 " fill="none" id="CM-to-UC4" style="stroke:#181818;stroke-width:1.0;"/><polygon fill="#181818" points="483.04,704.77,473.8062,701.3441,478.0499,705.0846,474.3095,709.3283,483.04,704.77" style="stroke:#181818;stroke-width:1.0;"/></g><!--link CA to UC5--><g id="link_CA_UC5"><path d="M148.43,357 C223.15,357 377.37,357 485.71,357 " fill="none" id="CA-to-UC5" style="stroke:#181818;stroke-width:1.0;"/><polygon fill="#181818" points="490.84,357,481.84,353,485.84,357,481.84,361,490.84,357" style="stroke:#181818;stroke-width:1.0;"/></g><!--link EB to UC6--><g id="link_EB_UC6"><path d="M201.2,218 C276.49,218 382,218 466.21,218 " fill="none" id="EB-to-UC6" style="stroke:#181818;stroke-width:1.0;"/><polygon fill="#181818" points="471.22,218,462.22,214,466.22,218,462.22,222,471.22,218" style="stroke:#181818;stroke-width:1.0;"/></g><!--link CU to UC7--><g id="link_CU_UC7"><path d="M146.27,78 C218.7,78 370.29,78 479.3,78 " fill="none" id="CU-to-UC7" style="stroke:#181818;stroke-width:1.0;"/><polygon fill="#181818" points="484.46,78,475.46,74,479.46,78,475.46,82,484.46,78" style="stroke:#181818;stroke-width:1.0;"/></g><!--SRC=[XLJBRjim4BppAnRkEKNgHm8qG057jeiMCM8qy0VGr4fcJP42IJLDY_vxbw8KYwxh-62iX7tCpCxA7QIkkUMLCkA0EUHOy4RvbT7-IVv265ypfh3mu0rOMUuzvDAYyD9enhZmni9eOyrtUWLhhdc9TWJSmMODxvxtqkETaXe_xXGNXpPylpCgl_FuqyUNZ8LsN9SAuUd5UQpWDmFwDGu5TmYZbL7AF8FV8tWKUoq5Lo2CTjvogRq3hlFmBD1g1wPeC-k8gSNo-VhwGzfoItyXYzWIfBpF1ekrSP98lRHD7Vgc1axSZOA2gFPvLSkqGlqwO9mEo8mkPDbO7881Gjm8Js_xgabQzTJD8p9UwiOq3eWWbfO7lGcE_T79IxNJj7QUv-qiZGATuyJ02IjhaeSsTqQHMLg-L7ndQ0xI-8MfI5XOcnmLPKXTmcAnw0jls1_6QBrNLv-YiiTuF8WdWtWwY6U3-ERLGlEyahgTC5yanh6OdxTDL_XO8w4sKPN7pOdf6hnOd3NEcmfjujmiTMvf4VN5BWzateRAOQbBIklQF2oJDdLZQuLlNi0zFPkYa09Fho12X1voTBsazNRONJjrcvquVO6rCj7DHqzkL5DsSc-p4-T-mrBI5LgOrxMYKmlEwp8dPn5zDJkWBMYoIOzX6Yn2Ymnh3eX8YnYE6QqeXXEMhRjm-cg3Z73Ad5mODp5F92Hxwl9j2OzD0eNHVxuc0tOzwbb0JJCZgDdHcuDKMD9fABWtyOwMzwdXh7dMRmDC6gvaM7leTmBqIrKRw-6Vv1vkUuS48C8zdbBla2ZXDW7uWe7y1KidElRNSK76Cyk_RMNSThXksLy0]--></g></svg>