<?xml version="1.0" encoding="UTF-8" standalone="no"?><svg xmlns="http://www.w3.org/2000/svg" xmlns:xlink="http://www.w3.org/1999/xlink" contentStyleType="text/css" height="928px" preserveAspectRatio="none" style="width:1823px;height:928px;background:#FFFFFF;" version="1.1" viewBox="0 0 1823 928" width="1823px" zoomAndPan="magnify"><defs/><g><text fill="#000000" font-family="sans-serif" font-size="14" font-weight="bold" lengthAdjust="spacing" textLength="187" x="811" y="22.9951">Domain Model - US1001</text><!--cluster <<aggregate>> User--><g id="cluster_&lt;&lt;aggregate&gt;&gt; User"><path d="M929.5,357.5137 L1133.5,357.5137 A3.75,3.75 0 0 1 1136,360.0137 L1143,386.7949 L1813.5,386.7949 A2.5,2.5 0 0 1 1816,389.2949 L1816,919.0137 A2.5,2.5 0 0 1 1813.5,921.5137 L929.5,921.5137 A2.5,2.5 0 0 1 927,919.0137 L927,360.0137 A2.5,2.5 0 0 1 929.5,357.5137 " fill="#EBF5FB" style="stroke:#000000;stroke-width:1.5;"/><line style="stroke:#000000;stroke-width:1.5;" x1="927" x2="1143" y1="386.7949" y2="386.7949"/><text fill="#000000" font-family="sans-serif" font-size="20" font-weight="bold" lengthAdjust="spacing" textLength="203" x="931" y="378.0781">«aggregate» User</text></g><!--cluster <<aggregate>> Customer--><g id="cluster_&lt;&lt;aggregate&gt;&gt; Customer"><path d="M8.5,44.5137 L270.5,44.5137 A3.75,3.75 0 0 1 273,47.0137 L280,73.7949 L440.5,73.7949 A2.5,2.5 0 0 1 443,76.2949 L443,322.0137 A2.5,2.5 0 0 1 440.5,324.5137 L8.5,324.5137 A2.5,2.5 0 0 1 6,322.0137 L6,47.0137 A2.5,2.5 0 0 1 8.5,44.5137 " fill="#EBF5FB" style="stroke:#000000;stroke-width:1.5;"/><line style="stroke:#000000;stroke-width:1.5;" x1="6" x2="280" y1="73.7949" y2="73.7949"/><text fill="#000000" font-family="sans-serif" font-size="20" font-weight="bold" lengthAdjust="spacing" textLength="261" x="10" y="65.0781">«aggregate» Customer</text></g><!--class User--><g id="elem_User"><rect codeLine="21" fill="#FDEBD0" height="79.8438" id="User" rx="2.5" ry="2.5" style="stroke:#181818;stroke-width:0.5;" width="113" x="1198.5" y="399.5137"/><ellipse cx="1214.5" cy="439.4355" fill="#ADD1B2" rx="12" ry="12" style="stroke:#181818;stroke-width:1.0;"/><path d="M1219.2188,446.9355 L1210.1406,446.9355 L1210.1406,432.3574 L1219.2188,432.3574 L1219.2188,434.8887 L1213.0156,434.8887 L1213.0156,438.0449 L1218.6406,438.0449 L1218.6406,440.5762 L1213.0156,440.5762 L1213.0156,444.3887 L1219.2188,444.3887 L1219.2188,446.9355 Z " fill="#000000"/><text fill="#000000" font-family="sans-serif" font-size="20" font-style="italic" lengthAdjust="spacing" textLength="83" x="1227.5" y="423.0781">«entity»</text><text fill="#000000" font-family="sans-serif" font-size="20" font-style="italic" lengthAdjust="spacing" textLength="64" x="1237" y="446.3594">«root»</text><text fill="#000000" font-family="sans-serif" font-size="20" lengthAdjust="spacing" textLength="45" x="1246.5" y="469.6406">User</text></g><!--class Password--><g id="elem_Password"><rect codeLine="23" fill="#D6EAF8" height="56.5625" id="Password" rx="2.5" ry="2.5" style="stroke:#181818;stroke-width:0.5;" width="175" x="1480.5" y="706.5137"/><ellipse cx="1496.5" cy="734.7949" fill="#FF8B40" rx="12" ry="12" style="stroke:#181818;stroke-width:1.0;"/><path d="M1496.5156,740.6387 L1499.0781,728.4668 L1501.9844,728.4668 L1498.5156,743.0449 L1494.5313,743.0449 L1491.0625,728.4668 L1493.9531,728.4668 L1496.5156,740.6387 Z " fill="#000000"/><text fill="#000000" font-family="sans-serif" font-size="20" font-style="italic" lengthAdjust="spacing" textLength="145" x="1509.5" y="730.0781">«valueObject»</text><text fill="#000000" font-family="sans-serif" font-size="20" lengthAdjust="spacing" textLength="94" x="1535" y="753.3594">Password</text></g><!--class Role--><g id="elem_Role"><rect codeLine="24" fill="#D6EAF8" height="56.5625" id="Role" rx="2.5" ry="2.5" style="stroke:#181818;stroke-width:0.5;" width="175" x="1274.5" y="564.5137"/><ellipse cx="1290.5" cy="592.7949" fill="#FF8B40" rx="12" ry="12" style="stroke:#181818;stroke-width:1.0;"/><path d="M1290.5156,598.6387 L1293.0781,586.4668 L1295.9844,586.4668 L1292.5156,601.0449 L1288.5313,601.0449 L1285.0625,586.4668 L1287.9531,586.4668 L1290.5156,598.6387 Z " fill="#000000"/><text fill="#000000" font-family="sans-serif" font-size="20" font-style="italic" lengthAdjust="spacing" textLength="145" x="1303.5" y="588.0781">«valueObject»</text><text fill="#000000" font-family="sans-serif" font-size="20" lengthAdjust="spacing" textLength="44" x="1354" y="611.3594">Role</text></g><!--class IsActive--><g id="elem_IsActive"><rect codeLine="25" fill="#D6EAF8" height="56.5625" id="IsActive" rx="2.5" ry="2.5" style="stroke:#181818;stroke-width:0.5;" width="175" x="1484.5" y="564.5137"/><ellipse cx="1500.5" cy="592.7949" fill="#FF8B40" rx="12" ry="12" style="stroke:#181818;stroke-width:1.0;"/><path d="M1500.5156,598.6387 L1503.0781,586.4668 L1505.9844,586.4668 L1502.5156,601.0449 L1498.5313,601.0449 L1495.0625,586.4668 L1497.9531,586.4668 L1500.5156,598.6387 Z " fill="#000000"/><text fill="#000000" font-family="sans-serif" font-size="20" font-style="italic" lengthAdjust="spacing" textLength="145" x="1513.5" y="588.0781">«valueObject»</text><text fill="#000000" font-family="sans-serif" font-size="20" lengthAdjust="spacing" textLength="78" x="1547" y="611.3594">IsActive</text></g><!--class Authentication--><g id="elem_Authentication"><rect codeLine="27" fill="#D1F2EB" height="56.5625" id="Authentication" rx="2.5" ry="2.5" style="stroke:#181818;stroke-width:0.5;" width="183" x="1056.5" y="564.5137"/><ellipse cx="1072.5" cy="592.7949" fill="#85C1E9" rx="12" ry="12" style="stroke:#181818;stroke-width:1.0;"/><path d="M1071.9844,593.9043 Q1069.7969,593.0605 1069.0313,592.1543 Q1068.2656,591.248 1068.2656,589.7012 Q1068.2656,587.7168 1069.5313,586.5918 Q1070.7969,585.4512 1073.0156,585.4512 Q1074.0156,585.4512 1075.0156,585.6855 Q1076.0313,585.9043 1077.0156,586.3574 L1077.0156,589.1699 Q1076.0938,588.5137 1075.125,588.1699 Q1074.1719,587.8262 1073.2344,587.8262 Q1072.2031,587.8262 1071.6406,588.248 Q1071.0781,588.6699 1071.0781,589.4512 Q1071.0781,590.0605 1071.4844,590.4668 Q1071.8906,590.8574 1073.1875,591.3262 L1074.4219,591.7949 Q1076.1875,592.4355 1077.0156,593.5137 Q1077.8438,594.5762 1077.8438,596.1855 Q1077.8438,598.4043 1076.5313,599.498 Q1075.2344,600.5762 1072.5938,600.5762 Q1071.5156,600.5762 1070.4219,600.3105 Q1069.3281,600.0605 1068.3125,599.5449 L1068.3125,596.5762 Q1069.4688,597.3887 1070.5469,597.7949 Q1071.625,598.2012 1072.6875,598.2012 Q1073.75,598.2012 1074.3281,597.7168 Q1074.9219,597.2324 1074.9219,596.3574 Q1074.9219,595.7012 1074.5313,595.2168 Q1074.1406,594.7168 1073.3906,594.4355 L1071.9844,593.9043 Z " fill="#000000"/><text fill="#000000" font-family="sans-serif" font-size="20" font-style="italic" lengthAdjust="spacing" textLength="95" x="1114.5" y="588.0781">«service»</text><text fill="#000000" font-family="sans-serif" font-size="20" lengthAdjust="spacing" textLength="149" x="1087.5" y="611.3594">Authentication</text></g><!--class Token--><g id="elem_Token"><rect codeLine="29" fill="#D6EAF8" height="56.5625" id="Token" rx="2.5" ry="2.5" style="stroke:#181818;stroke-width:0.5;" width="175" x="1060.5" y="706.5137"/><ellipse cx="1076.5" cy="734.7949" fill="#FF8B40" rx="12" ry="12" style="stroke:#181818;stroke-width:1.0;"/><path d="M1076.5156,740.6387 L1079.0781,728.4668 L1081.9844,728.4668 L1078.5156,743.0449 L1074.5313,743.0449 L1071.0625,728.4668 L1073.9531,728.4668 L1076.5156,740.6387 Z " fill="#000000"/><text fill="#000000" font-family="sans-serif" font-size="20" font-style="italic" lengthAdjust="spacing" textLength="145" x="1089.5" y="730.0781">«valueObject»</text><text fill="#000000" font-family="sans-serif" font-size="20" lengthAdjust="spacing" textLength="61" x="1131.5" y="753.3594">Token</text></g><!--class createdOn--><g id="elem_createdOn"><rect codeLine="30" fill="#D6EAF8" height="56.5625" id="createdOn" rx="2.5" ry="2.5" style="stroke:#181818;stroke-width:0.5;" width="175" x="1270.5" y="706.5137"/><ellipse cx="1286.5" cy="734.7949" fill="#FF8B40" rx="12" ry="12" style="stroke:#181818;stroke-width:1.0;"/><path d="M1286.5156,740.6387 L1289.0781,728.4668 L1291.9844,728.4668 L1288.5156,743.0449 L1284.5313,743.0449 L1281.0625,728.4668 L1283.9531,728.4668 L1286.5156,740.6387 Z " fill="#000000"/><text fill="#000000" font-family="sans-serif" font-size="20" font-style="italic" lengthAdjust="spacing" textLength="145" x="1299.5" y="730.0781">«valueObject»</text><text fill="#000000" font-family="sans-serif" font-size="20" lengthAdjust="spacing" textLength="105" x="1319.5" y="753.3594">createdOn</text></g><!--class PasswordPolicy--><g id="elem_PasswordPolicy"><rect codeLine="31" fill="#D1F2EB" height="56.5625" id="PasswordPolicy" rx="2.5" ry="2.5" style="stroke:#181818;stroke-width:0.5;" width="186" x="1545" y="848.5137"/><ellipse cx="1561" cy="876.7949" fill="#85C1E9" rx="12" ry="12" style="stroke:#181818;stroke-width:1.0;"/><path d="M1560.4844,877.9043 Q1558.2969,877.0605 1557.5313,876.1543 Q1556.7656,875.248 1556.7656,873.7012 Q1556.7656,871.7168 1558.0313,870.5918 Q1559.2969,869.4512 1561.5156,869.4512 Q1562.5156,869.4512 1563.5156,869.6855 Q1564.5313,869.9043 1565.5156,870.3574 L1565.5156,873.1699 Q1564.5938,872.5137 1563.625,872.1699 Q1562.6719,871.8262 1561.7344,871.8262 Q1560.7031,871.8262 1560.1406,872.248 Q1559.5781,872.6699 1559.5781,873.4512 Q1559.5781,874.0605 1559.9844,874.4668 Q1560.3906,874.8574 1561.6875,875.3262 L1562.9219,875.7949 Q1564.6875,876.4355 1565.5156,877.5137 Q1566.3438,878.5762 1566.3438,880.1855 Q1566.3438,882.4043 1565.0313,883.498 Q1563.7344,884.5762 1561.0938,884.5762 Q1560.0156,884.5762 1558.9219,884.3105 Q1557.8281,884.0605 1556.8125,883.5449 L1556.8125,880.5762 Q1557.9688,881.3887 1559.0469,881.7949 Q1560.125,882.2012 1561.1875,882.2012 Q1562.25,882.2012 1562.8281,881.7168 Q1563.4219,881.2324 1563.4219,880.3574 Q1563.4219,879.7012 1563.0313,879.2168 Q1562.6406,878.7168 1561.8906,878.4355 L1560.4844,877.9043 Z " fill="#000000"/><text fill="#000000" font-family="sans-serif" font-size="20" font-style="italic" lengthAdjust="spacing" textLength="95" x="1604.5" y="872.0781">«service»</text><text fill="#000000" font-family="sans-serif" font-size="20" lengthAdjust="spacing" textLength="152" x="1576" y="895.3594">PasswordPolicy</text></g><!--class PasswordEncoder--><g id="elem_PasswordEncoder"><rect codeLine="32" fill="#D1F2EB" height="56.5625" id="PasswordEncoder" rx="2.5" ry="2.5" style="stroke:#181818;stroke-width:0.5;" width="210" x="1122" y="848.5137"/><ellipse cx="1138" cy="876.7949" fill="#85C1E9" rx="12" ry="12" style="stroke:#181818;stroke-width:1.0;"/><path d="M1137.4844,877.9043 Q1135.2969,877.0605 1134.5313,876.1543 Q1133.7656,875.248 1133.7656,873.7012 Q1133.7656,871.7168 1135.0313,870.5918 Q1136.2969,869.4512 1138.5156,869.4512 Q1139.5156,869.4512 1140.5156,869.6855 Q1141.5313,869.9043 1142.5156,870.3574 L1142.5156,873.1699 Q1141.5938,872.5137 1140.625,872.1699 Q1139.6719,871.8262 1138.7344,871.8262 Q1137.7031,871.8262 1137.1406,872.248 Q1136.5781,872.6699 1136.5781,873.4512 Q1136.5781,874.0605 1136.9844,874.4668 Q1137.3906,874.8574 1138.6875,875.3262 L1139.9219,875.7949 Q1141.6875,876.4355 1142.5156,877.5137 Q1143.3438,878.5762 1143.3438,880.1855 Q1143.3438,882.4043 1142.0313,883.498 Q1140.7344,884.5762 1138.0938,884.5762 Q1137.0156,884.5762 1135.9219,884.3105 Q1134.8281,884.0605 1133.8125,883.5449 L1133.8125,880.5762 Q1134.9688,881.3887 1136.0469,881.7949 Q1137.125,882.2012 1138.1875,882.2012 Q1139.25,882.2012 1139.8281,881.7168 Q1140.4219,881.2324 1140.4219,880.3574 Q1140.4219,879.7012 1140.0313,879.2168 Q1139.6406,878.7168 1138.8906,878.4355 L1137.4844,877.9043 Z " fill="#000000"/><text fill="#000000" font-family="sans-serif" font-size="20" font-style="italic" lengthAdjust="spacing" textLength="95" x="1193.5" y="872.0781">«service»</text><text fill="#000000" font-family="sans-serif" font-size="20" lengthAdjust="spacing" textLength="176" x="1153" y="895.3594">PasswordEncoder</text></g><!--class Customer--><g id="elem_Customer"><rect codeLine="40" fill="#FDEBD0" height="79.8438" id="Customer" rx="2.5" ry="2.5" style="stroke:#181818;stroke-width:0.5;" width="131" x="295.5" y="86.5137"/><ellipse cx="311.5" cy="126.4355" fill="#ADD1B2" rx="12" ry="12" style="stroke:#181818;stroke-width:1.0;"/><path d="M316.2188,133.9355 L307.1406,133.9355 L307.1406,119.3574 L316.2188,119.3574 L316.2188,121.8887 L310.0156,121.8887 L310.0156,125.0449 L315.6406,125.0449 L315.6406,127.5762 L310.0156,127.5762 L310.0156,131.3887 L316.2188,131.3887 L316.2188,133.9355 Z " fill="#000000"/><text fill="#000000" font-family="sans-serif" font-size="20" font-style="italic" lengthAdjust="spacing" textLength="83" x="333.5" y="110.0781">«entity»</text><text fill="#000000" font-family="sans-serif" font-size="20" font-style="italic" lengthAdjust="spacing" textLength="64" x="343" y="133.3594">«root»</text><text fill="#000000" font-family="sans-serif" font-size="20" lengthAdjust="spacing" textLength="97" x="326.5" y="156.6406">Customer</text></g><!--class CompanyName--><g id="elem_CompanyName"><rect codeLine="42" fill="#D6EAF8" height="56.5625" id="CompanyName" rx="2.5" ry="2.5" style="stroke:#181818;stroke-width:0.5;" width="188" x="22" y="251.5137"/><ellipse cx="38" cy="279.7949" fill="#FF8B40" rx="12" ry="12" style="stroke:#181818;stroke-width:1.0;"/><path d="M38.0156,285.6387 L40.5781,273.4668 L43.4844,273.4668 L40.0156,288.0449 L36.0313,288.0449 L32.5625,273.4668 L35.4531,273.4668 L38.0156,285.6387 Z " fill="#000000"/><text fill="#000000" font-family="sans-serif" font-size="20" font-style="italic" lengthAdjust="spacing" textLength="145" x="57.5" y="275.0781">«valueObject»</text><text fill="#000000" font-family="sans-serif" font-size="20" lengthAdjust="spacing" textLength="154" x="53" y="298.3594">CompanyName</text></g><!--class CustomerCode--><g id="elem_CustomerCode"><rect codeLine="43" fill="#D6EAF8" height="56.5625" id="CustomerCode" rx="2.5" ry="2.5" style="stroke:#181818;stroke-width:0.5;" width="182" x="245" y="251.5137"/><ellipse cx="261" cy="279.7949" fill="#FF8B40" rx="12" ry="12" style="stroke:#181818;stroke-width:1.0;"/><path d="M261.0156,285.6387 L263.5781,273.4668 L266.4844,273.4668 L263.0156,288.0449 L259.0313,288.0449 L255.5625,273.4668 L258.4531,273.4668 L261.0156,285.6387 Z " fill="#000000"/><text fill="#000000" font-family="sans-serif" font-size="20" font-style="italic" lengthAdjust="spacing" textLength="145" x="277.5" y="275.0781">«valueObject»</text><text fill="#000000" font-family="sans-serif" font-size="20" lengthAdjust="spacing" textLength="148" x="276" y="298.3594">CustomerCode</text></g><!--class PhoneNumber--><g id="elem_PhoneNumber"><rect codeLine="35" fill="#D6EAF8" height="56.5625" id="PhoneNumber" rx="2.5" ry="2.5" style="stroke:#181818;stroke-width:0.5;" width="177" x="462.5" y="251.5137"/><ellipse cx="478.5" cy="279.7949" fill="#FF8B40" rx="12" ry="12" style="stroke:#181818;stroke-width:1.0;"/><path d="M478.5156,285.6387 L481.0781,273.4668 L483.9844,273.4668 L480.5156,288.0449 L476.5313,288.0449 L473.0625,273.4668 L475.9531,273.4668 L478.5156,285.6387 Z " fill="#000000"/><text fill="#000000" font-family="sans-serif" font-size="20" font-style="italic" lengthAdjust="spacing" textLength="145" x="492.5" y="275.0781">«valueObject»</text><text fill="#000000" font-family="sans-serif" font-size="20" lengthAdjust="spacing" textLength="143" x="493.5" y="298.3594">PhoneNumber</text></g><!--class Email--><g id="elem_Email"><rect codeLine="36" fill="#D6EAF8" height="56.5625" id="Email" rx="2.5" ry="2.5" style="stroke:#181818;stroke-width:0.5;" width="175" x="693.5" y="706.5137"/><ellipse cx="709.5" cy="734.7949" fill="#FF8B40" rx="12" ry="12" style="stroke:#181818;stroke-width:1.0;"/><path d="M709.5156,740.6387 L712.0781,728.4668 L714.9844,728.4668 L711.5156,743.0449 L707.5313,743.0449 L704.0625,728.4668 L706.9531,728.4668 L709.5156,740.6387 Z " fill="#000000"/><text fill="#000000" font-family="sans-serif" font-size="20" font-style="italic" lengthAdjust="spacing" textLength="145" x="722.5" y="730.0781">«valueObject»</text><text fill="#000000" font-family="sans-serif" font-size="20" lengthAdjust="spacing" textLength="57" x="766.5" y="753.3594">Email</text></g><!--class Address--><g id="elem_Address"><rect codeLine="46" fill="#D6EAF8" height="56.5625" id="Address" rx="2.5" ry="2.5" style="stroke:#181818;stroke-width:0.5;" width="175" x="746.5" y="251.5137"/><ellipse cx="762.5" cy="279.7949" fill="#FF8B40" rx="12" ry="12" style="stroke:#181818;stroke-width:1.0;"/><path d="M762.5156,285.6387 L765.0781,273.4668 L767.9844,273.4668 L764.5156,288.0449 L760.5313,288.0449 L757.0625,273.4668 L759.9531,273.4668 L762.5156,285.6387 Z " fill="#000000"/><text fill="#000000" font-family="sans-serif" font-size="20" font-style="italic" lengthAdjust="spacing" textLength="145" x="775.5" y="275.0781">«valueObject»</text><text fill="#000000" font-family="sans-serif" font-size="20" lengthAdjust="spacing" textLength="80" x="808" y="298.3594">Address</text></g><!--link User to Email--><g id="link_User_Email"><path codeLine="49" d="M1198.29,451.0937 C1102.5,471.9737 908.87,527.6437 804,651.5137 C792.25,665.3937 786.47,684.8537 783.65,701.3837 " fill="none" id="User-to-Email" style="stroke:#000000;stroke-width:1.0;"/><polygon fill="#000000" points="782.86,706.4137,788.2,698.1381,783.631,701.4735,780.2957,696.9045,782.86,706.4137" style="stroke:#000000;stroke-width:1.0;"/><text fill="#000000" font-family="sans-serif" font-size="20" lengthAdjust="spacing" textLength="35" x="907" y="600.0781">has</text><text fill="#000000" font-family="sans-serif" font-size="20" lengthAdjust="spacing" textLength="13" x="1177.5863" y="446.6945">1</text><text fill="#000000" font-family="sans-serif" font-size="20" lengthAdjust="spacing" textLength="13" x="768.903" y="693.7816">1</text></g><!--link User to Password--><g id="link_User_Password"><path codeLine="50" d="M1311.85,448.4237 C1416.98,464.3837 1634.93,504.1337 1677,564.5137 C1710.04,611.9237 1655.07,668.7137 1611.9,703.0437 " fill="none" id="User-to-Password" style="stroke:#000000;stroke-width:1.0;"/><polygon fill="#000000" points="1607.77,706.3037,1617.3185,703.8901,1611.7021,703.2152,1612.377,697.5987,1607.77,706.3037" style="stroke:#000000;stroke-width:1.0;"/><text fill="#000000" font-family="sans-serif" font-size="20" lengthAdjust="spacing" textLength="35" x="1688" y="600.0781">has</text><text fill="#000000" font-family="sans-serif" font-size="20" lengthAdjust="spacing" textLength="13" x="1319.5708" y="443.6991">1</text><text fill="#000000" font-family="sans-serif" font-size="20" lengthAdjust="spacing" textLength="13" x="1601.6319" y="693.6489">1</text></g><!--link User to Role--><g id="link_User_Role"><path codeLine="51" d="M1298.08,479.7137 C1306.95,488.9737 1315.78,499.1737 1323,509.5137 C1333.77,524.9337 1342.94,543.7937 1349.68,559.5837 " fill="none" id="User-to-Role" style="stroke:#000000;stroke-width:1.0;"/><polygon fill="#000000" points="1351.69,564.3837,1351.91,554.5373,1349.7619,559.7704,1344.5287,557.6223,1351.69,564.3837" style="stroke:#000000;stroke-width:1.0;"/><text fill="#000000" font-family="sans-serif" font-size="20" lengthAdjust="spacing" textLength="35" x="1338" y="529.0781">has</text><text fill="#000000" font-family="sans-serif" font-size="20" lengthAdjust="spacing" textLength="13" x="1290.4527" y="505.9037">1</text><text fill="#000000" font-family="sans-serif" font-size="20" lengthAdjust="spacing" textLength="13" x="1335.2229" y="551.7454">1</text></g><!--link User to IsActive--><g id="link_User_IsActive"><path codeLine="52" d="M1311.67,467.6037 C1367.28,494.1737 1451.87,534.6037 1509.42,562.1037 " fill="none" id="User-to-IsActive" style="stroke:#000000;stroke-width:1.0;"/><polygon fill="#000000" points="1514.21,564.3937,1507.804,556.9128,1509.6957,562.244,1504.3645,564.1357,1514.21,564.3937" style="stroke:#000000;stroke-width:1.0;"/><text fill="#000000" font-family="sans-serif" font-size="20" lengthAdjust="spacing" textLength="67" x="1452" y="529.0781">can be</text><text fill="#000000" font-family="sans-serif" font-size="20" lengthAdjust="spacing" textLength="13" x="1319.3688" y="491.0198">1</text><text fill="#000000" font-family="sans-serif" font-size="20" lengthAdjust="spacing" textLength="13" x="1487.9502" y="551.7575">1</text></g><!--link User to Authentication--><g id="link_User_Authentication"><path codeLine="53" d="M1198.44,460.8737 C1176.77,471.7637 1154.32,487.5637 1142,509.5137 C1133.67,524.3637 1134.34,543.1637 1137.47,559.0637 " fill="none" id="User-to-Authentication" style="stroke:#000000;stroke-width:1.0;"/><polygon fill="#000000" points="1138.61,564.3337,1140.6162,554.6913,1137.5526,559.4468,1132.7971,556.3832,1138.61,564.3337" style="stroke:#000000;stroke-width:1.0;"/><text fill="#000000" font-family="sans-serif" font-size="20" lengthAdjust="spacing" textLength="171" x="1143" y="529.0781">authenticated by</text><text fill="#000000" font-family="sans-serif" font-size="20" lengthAdjust="spacing" textLength="13" x="1177.3604" y="483.6763">1</text><text fill="#000000" font-family="sans-serif" font-size="20" lengthAdjust="spacing" textLength="13" x="1122.3327" y="551.6851">1</text></g><!--link Authentication to Email--><g id="link_Authentication_Email"><path codeLine="56" d="M1056.13,602.9637 C977.47,612.0637 871.47,628.1437 836,651.5137 C817.74,663.5437 804.05,683.9537 794.9,701.4637 " fill="none" id="Authentication-to-Email" style="stroke:#000000;stroke-width:1.0;stroke-dasharray:7.0,7.0;"/><polygon fill="#000000" points="792.44,706.3137,800.0665,700.0818,794.6932,701.8501,792.9249,696.4768,792.44,706.3137" style="stroke:#000000;stroke-width:1.0;"/><text fill="#000000" font-family="sans-serif" font-size="20" lengthAdjust="spacing" textLength="171" x="837" y="671.0781">authenticated by</text><text fill="#000000" font-family="sans-serif" font-size="20" lengthAdjust="spacing" textLength="13" x="1035.5985" y="598.437">1</text><text fill="#000000" font-family="sans-serif" font-size="20" lengthAdjust="spacing" textLength="13" x="796.1401" y="693.661">1</text></g><!--link Authentication to Password--><g id="link_Authentication_Password"><path codeLine="57" d="M1239.52,617.3837 C1245.43,618.8037 1251.3,620.1937 1257,621.5137 C1319.84,636.0737 1338,630.5437 1399,651.5137 C1439.17,665.3237 1482.16,686.4037 1514.73,703.8037 " fill="none" id="Authentication-to-Password" style="stroke:#000000;stroke-width:1.0;stroke-dasharray:7.0,7.0;"/><polygon fill="#000000" points="1519.45,706.3437,1513.4252,698.5526,1515.0486,703.9715,1509.6296,705.5949,1519.45,706.3437" style="stroke:#000000;stroke-width:1.0;"/><text fill="#000000" font-family="sans-serif" font-size="20" lengthAdjust="spacing" textLength="171" x="1457" y="671.0781">authenticated by</text><text fill="#000000" font-family="sans-serif" font-size="20" lengthAdjust="spacing" textLength="13" x="1247.6373" y="614.0437">1</text><text fill="#000000" font-family="sans-serif" font-size="20" lengthAdjust="spacing" textLength="13" x="1495.0959" y="693.6972">1</text></g><!--link Authentication to Token--><g id="link_Authentication_Token"><path codeLine="58" d="M1148,621.6737 C1148,644.5837 1148,677.1937 1148,701.3837 " fill="none" id="Authentication-to-Token" style="stroke:#000000;stroke-width:1.0;stroke-dasharray:7.0,7.0;"/><polygon fill="#000000" points="1148,706.4137,1152,697.4137,1148,701.4137,1144,697.4137,1148,706.4137" style="stroke:#000000;stroke-width:1.0;"/><text fill="#000000" font-family="sans-serif" font-size="20" lengthAdjust="spacing" textLength="100" x="1149" y="671.0781">generates</text><text fill="#000000" font-family="sans-serif" font-size="20" lengthAdjust="spacing" textLength="13" x="1133.8016" y="647.7089">1</text><text fill="#000000" font-family="sans-serif" font-size="20" lengthAdjust="spacing" textLength="13" x="1133.6594" y="693.7816">1</text></g><!--link Authentication to createdOn--><g id="link_Authentication_createdOn"><path codeLine="59" d="M1206.1,621.5237 C1223.24,630.3837 1241.75,640.7337 1258,651.5137 C1281.02,666.7837 1304.95,686.3737 1323.62,702.6237 " fill="none" id="Authentication-to-createdOn" style="stroke:#000000;stroke-width:1.0;stroke-dasharray:7.0,7.0;"/><polygon fill="#000000" points="1327.77,706.2537,1323.6308,697.3168,1324.0071,702.9611,1318.3628,703.3374,1327.77,706.2537" style="stroke:#000000;stroke-width:1.0;"/><text fill="#000000" font-family="sans-serif" font-size="20" lengthAdjust="spacing" textLength="100" x="1290" y="671.0781">generates</text><text fill="#000000" font-family="sans-serif" font-size="20" lengthAdjust="spacing" textLength="13" x="1202.6138" y="647.5312">1</text><text fill="#000000" font-family="sans-serif" font-size="20" lengthAdjust="spacing" textLength="13" x="1307.1944" y="693.5886">1</text></g><!--link Authentication to PasswordPolicy--><g id="link_Authentication_PasswordPolicy"><path codeLine="60" d="M1239.65,618.3137 C1245.5,619.4937 1251.32,620.5837 1257,621.5137 C1340.58,635.2537 1564.13,608.3237 1637,651.5137 C1703.87,691.1437 1716.59,745.8337 1689,818.5137 C1685.48,827.7737 1679.72,836.5037 1673.3,844.2237 " fill="none" id="Authentication-to-PasswordPolicy" style="stroke:#000000;stroke-width:1.0;stroke-dasharray:7.0,7.0;"/><polygon fill="#000000" points="1669.68,848.4137,1678.5911,844.2194,1672.9492,844.6305,1672.5381,838.9886,1669.68,848.4137" style="stroke:#000000;stroke-width:1.0;"/><text fill="#000000" font-family="sans-serif" font-size="20" lengthAdjust="spacing" textLength="72" x="1703" y="742.0781">applies</text><text fill="#000000" font-family="sans-serif" font-size="20" lengthAdjust="spacing" textLength="13" x="1247.4713" y="639.8393">1</text><text fill="#000000" font-family="sans-serif" font-size="20" lengthAdjust="spacing" textLength="13" x="1661.8734" y="835.7816">1</text></g><!--link Authentication to PasswordEncoder--><g id="link_Authentication_PasswordEncoder"><path codeLine="61" d="M1091.7,621.6437 C1035.23,653.2937 961.27,707.9637 996,763.5137 C1022.81,806.3937 1071.18,833.3537 1116.75,850.0937 " fill="none" id="Authentication-to-PasswordEncoder" style="stroke:#000000;stroke-width:1.0;stroke-dasharray:7.0,7.0;"/><polygon fill="#000000" points="1121.72,851.8837,1114.6172,845.0609,1117.0181,850.183,1111.8961,852.584,1121.72,851.8837" style="stroke:#000000;stroke-width:1.0;"/><text fill="#000000" font-family="sans-serif" font-size="20" lengthAdjust="spacing" textLength="45" x="997" y="742.0781">uses</text><text fill="#000000" font-family="sans-serif" font-size="20" lengthAdjust="spacing" textLength="13" x="1067.1213" y="647.6734">1</text><text fill="#000000" font-family="sans-serif" font-size="20" lengthAdjust="spacing" textLength="13" x="1100.8605" y="844.8978">1</text></g><!--link Password to PasswordPolicy--><g id="link_Password_PasswordPolicy"><path codeLine="64" d="M1581.83,763.6737 C1593.33,786.6837 1609.73,819.4737 1621.84,843.6837 " fill="none" id="Password-to-PasswordPolicy" style="stroke:#000000;stroke-width:1.0;stroke-dasharray:7.0,7.0;"/><polygon fill="#000000" points="1624.2,848.4137,1623.7402,838.5756,1621.9582,843.9444,1616.5894,842.1624,1624.2,848.4137" style="stroke:#000000;stroke-width:1.0;"/><text fill="#000000" font-family="sans-serif" font-size="20" lengthAdjust="spacing" textLength="72" x="1608" y="813.0781">applies</text><text fill="#000000" font-family="sans-serif" font-size="20" lengthAdjust="spacing" textLength="13" x="1570.1815" y="789.7089">1</text><text fill="#000000" font-family="sans-serif" font-size="20" lengthAdjust="spacing" textLength="13" x="1607.0131" y="835.7816">1</text></g><!--link Password to PasswordEncoder--><g id="link_Password_PasswordEncoder"><path codeLine="65" d="M1500.63,763.6737 C1442.48,787.5437 1358.7,821.9437 1299.19,846.3737 " fill="none" id="Password-to-PasswordEncoder" style="stroke:#000000;stroke-width:1.0;stroke-dasharray:7.0,7.0;"/><polygon fill="#000000" points="1294.23,848.4137,1304.0748,848.6963,1298.8555,846.515,1301.0368,841.2956,1294.23,848.4137" style="stroke:#000000;stroke-width:1.0;"/><text fill="#000000" font-family="sans-serif" font-size="20" lengthAdjust="spacing" textLength="45" x="1418" y="813.0781">uses</text><text fill="#000000" font-family="sans-serif" font-size="20" lengthAdjust="spacing" textLength="13" x="1474.0102" y="789.7089">1</text><text fill="#000000" font-family="sans-serif" font-size="20" lengthAdjust="spacing" textLength="13" x="1293.7556" y="835.7816">1</text></g><!--link Customer to CustomerCode--><g id="link_Customer_CustomerCode"><path codeLine="68" d="M354.56,166.5337 C350.5,191.1437 345.31,222.5837 341.45,245.9737 " fill="none" id="Customer-to-CustomerCode" style="stroke:#000000;stroke-width:1.0;"/><polygon fill="#000000" points="340.6,251.1337,346.0136,242.9061,341.415,246.2005,338.1206,241.602,340.6,251.1337" style="stroke:#000000;stroke-width:1.0;"/><text fill="#000000" font-family="sans-serif" font-size="20" lengthAdjust="spacing" textLength="35" x="351" y="216.0781">has</text><text fill="#000000" font-family="sans-serif" font-size="20" lengthAdjust="spacing" textLength="13" x="339.5786" y="193.0206">1</text><text fill="#000000" font-family="sans-serif" font-size="20" lengthAdjust="spacing" textLength="13" x="327.2259" y="238.8191">1</text></g><!--link Customer to CompanyName--><g id="link_Customer_CompanyName"><path codeLine="69" d="M297.91,166.5337 C256.62,192.0537 203.47,224.9237 165.29,248.5337 " fill="none" id="Customer-to-CompanyName" style="stroke:#000000;stroke-width:1.0;"/><polygon fill="#000000" points="160.71,251.3637,170.4693,250.0388,164.9644,248.7368,166.2664,243.2318,160.71,251.3637" style="stroke:#000000;stroke-width:1.0;"/><text fill="#000000" font-family="sans-serif" font-size="20" lengthAdjust="spacing" textLength="35" x="247" y="216.0781">has</text><text fill="#000000" font-family="sans-serif" font-size="20" lengthAdjust="spacing" textLength="13" x="274.689" y="192.6973">1</text><text fill="#000000" font-family="sans-serif" font-size="20" lengthAdjust="spacing" textLength="13" x="155.5908" y="238.7213">1</text></g><!--link Customer to Address--><g id="link_Customer_Address"><path codeLine="70" d="M426.51,131.6737 C500.24,138.2537 622.34,154.9237 719,196.5137 C748.32,209.1337 777.5,230.1937 799.13,247.8737 " fill="none" id="Customer-to-Address" style="stroke:#000000;stroke-width:1.0;"/><polygon fill="#000000" points="803.08,251.1337,798.688,242.3183,799.2249,247.9496,793.5936,248.4865,803.08,251.1337" style="stroke:#000000;stroke-width:1.0;"/><text fill="#000000" font-family="sans-serif" font-size="20" lengthAdjust="spacing" textLength="35" x="764" y="216.0781">has</text><text fill="#000000" font-family="sans-serif" font-size="20" lengthAdjust="spacing" textLength="13" x="434.3861" y="152.0842">1</text><text fill="#000000" font-family="sans-serif" font-size="20" lengthAdjust="spacing" textLength="13" x="782.7129" y="238.8191">1</text></g><!--link Customer to Email--><g id="link_Customer_Email"><path codeLine="71" d="M426.59,129.1637 C523.35,135.4737 693,163.0737 693,279.0137 C693,279.0137 693,279.0137 693,594.0137 C693,636.2937 722.12,676.2537 746.85,702.5737 " fill="none" id="Customer-to-Email" style="stroke:#000000;stroke-width:1.0;"/><polygon fill="#000000" points="750.47,706.3637,747.1396,697.095,747.0139,702.7505,741.3584,702.6248,750.47,706.3637" style="stroke:#000000;stroke-width:1.0;"/><text fill="#000000" font-family="sans-serif" font-size="20" lengthAdjust="spacing" textLength="35" x="694" y="446.5781">has</text><text fill="#000000" font-family="sans-serif" font-size="20" lengthAdjust="spacing" textLength="13" x="434.4748" y="123.7841">1</text><text fill="#000000" font-family="sans-serif" font-size="20" lengthAdjust="spacing" textLength="13" x="729.8326" y="693.7213">1</text></g><!--link Customer to PhoneNumber--><g id="link_Customer_PhoneNumber"><path codeLine="72" d="M409.93,166.5337 C441.81,191.9537 482.83,224.6637 512.41,248.2437 " fill="none" id="Customer-to-PhoneNumber" style="stroke:#000000;stroke-width:1.0;"/><polygon fill="#000000" points="516.33,251.3637,511.7931,242.622,512.4229,248.2437,506.8012,248.8734,516.33,251.3637" style="stroke:#000000;stroke-width:1.0;"/><text fill="#000000" font-family="sans-serif" font-size="20" lengthAdjust="spacing" textLength="35" x="480" y="216.0781">has</text><text fill="#000000" font-family="sans-serif" font-size="20" lengthAdjust="spacing" textLength="13" x="403.4271" y="193.0206">1</text><text fill="#000000" font-family="sans-serif" font-size="20" lengthAdjust="spacing" textLength="13" x="494.8387" y="238.7213">1</text></g><!--link Customer to User--><g id="link_Customer_User"><path codeLine="73" d="M426.84,132.6137 C514.98,140.5737 675.57,159.1037 808,196.5137 C868.77,213.6837 882.59,223.1437 939,251.5137 C1024.51,294.5137 1118.4,351.3937 1181.44,391.0837 " fill="none" id="Customer-to-User" style="stroke:#000000;stroke-width:1.0;"/><polygon fill="none" points="1185.22,385.1837,1198.37,401.7937,1177.73,397.0137,1185.22,385.1837" style="stroke:#000000;stroke-width:1.0;"/><text fill="#000000" font-family="sans-serif" font-size="20" lengthAdjust="spacing" textLength="35" x="1082" y="287.0781">has</text><text fill="#000000" font-family="sans-serif" font-size="20" lengthAdjust="spacing" textLength="13" x="434.3001" y="153.0157">1</text><text fill="#000000" font-family="sans-serif" font-size="20" lengthAdjust="spacing" textLength="13" x="1177.676" y="391.3861">1</text></g><!--SRC=[bLJ1Rfj04Btp5IFdu5Qg8pjgMiT2bi06gLARH7NJ-ngcGBtiecLnvARzzmuGCCR4nZuOCVFUxCpRUQIRI2HCiPXBRuC- -FYBPLoxKkXLz0VXPcmOEj8SOIbZ5Wdu9dtaC8AdrMGydXX66Fa862Tw1p76QrIfCKohel0r4gXt2O9KEfI6iSzudAKfl1X0Fvjvcq39JFWBoQKopItZ6JwiVwEdvtEuMdvoB7VQ3LLI5XXtwTZBSJScHRMDF2nAJTmRn-w2KGd7lNC-5pbBAVbSXcrEEEDVi_U48Yp0xkxXoh7TMzVEAKDuehF12WA50TDeLCo1QR8gI6tbgC5hEHIazwuaccRvHf1wqXUgc-DA0H_fxrag7zgYcUQxdnze9dTgVno_BtbxsdT9DtePvKjgUJhQzgCrU5QcmtmAZ-b82cZU1Z5Nn9pUBYREtJ7pXzoWkB1BJo59wZzSogjqV9GyydPdkpmcEi8ZPwYpJ9hmbHXAWVTPRfbUlPOiXqp8-rt141PPgcNSPm4hP6i9wmBd5t4XuuI9tJsBBrsiwf05wTUBMaje-Rv2UlQKex2KGbuiOXf6IMeKeS5a0AFHl7YM-iuWP1t9scnlv0jNlP6hxJC3ZmbOup6avPGPi7s0FithNJv42tGuJYkP5xs-FXpigEO9JcFUIsYbRsSGe415-9DzxGtRaz1oAhMM93pgnwbCEeCi9GR9MOzuA6GTxdNoIVJncRMh3i-imysTE317kLhTk8RzJi0gnvo0D1tG2MX-k3fXexybi5Zm4l4V]--></g></svg>