<?xml version="1.0" encoding="UTF-8" standalone="no"?><svg xmlns="http://www.w3.org/2000/svg" xmlns:xlink="http://www.w3.org/1999/xlink" contentStyleType="text/css" height="928px" preserveAspectRatio="none" style="width:1591px;height:928px;background:#FFFFFF;" version="1.1" viewBox="0 0 1591 928" width="1591px" zoomAndPan="magnify"><defs/><g><text fill="#000000" font-family="sans-serif" font-size="14" font-weight="bold" lengthAdjust="spacing" textLength="197" x="690" y="22.9951">Domain Model - US2000b</text><!--cluster <<aggregate>> User--><g id="cluster_&lt;&lt;aggregate&gt;&gt; User"><path d="M697.5,357.5137 L901.5,357.5137 A3.75,3.75 0 0 1 904,360.0137 L911,386.7949 L1581.5,386.7949 A2.5,2.5 0 0 1 1584,389.2949 L1584,919.0137 A2.5,2.5 0 0 1 1581.5,921.5137 L697.5,921.5137 A2.5,2.5 0 0 1 695,919.0137 L695,360.0137 A2.5,2.5 0 0 1 697.5,357.5137 " fill="#EBF5FB" style="stroke:#000000;stroke-width:1.5;"/><line style="stroke:#000000;stroke-width:1.5;" x1="695" x2="911" y1="386.7949" y2="386.7949"/><text fill="#000000" font-family="sans-serif" font-size="20" font-weight="bold" lengthAdjust="spacing" textLength="203" x="699" y="378.0781">«aggregate» User</text></g><!--cluster <<aggregate>> Candidate--><g id="cluster_&lt;&lt;aggregate&gt;&gt; Candidate"><path d="M8.5,44.5137 L276.5,44.5137 A3.75,3.75 0 0 1 279,47.0137 L286,73.7949 L421.5,73.7949 A2.5,2.5 0 0 1 424,76.2949 L424,322.0137 A2.5,2.5 0 0 1 421.5,324.5137 L8.5,324.5137 A2.5,2.5 0 0 1 6,322.0137 L6,47.0137 A2.5,2.5 0 0 1 8.5,44.5137 " fill="#EBF5FB" style="stroke:#000000;stroke-width:1.5;"/><line style="stroke:#000000;stroke-width:1.5;" x1="6" x2="286" y1="73.7949" y2="73.7949"/><text fill="#000000" font-family="sans-serif" font-size="20" font-weight="bold" lengthAdjust="spacing" textLength="267" x="10" y="65.0781">«aggregate» Candidate</text></g><!--class User--><g id="elem_User"><rect codeLine="21" fill="#FDEBD0" height="79.8438" id="User" rx="2.5" ry="2.5" style="stroke:#181818;stroke-width:0.5;" width="113" x="966.5" y="399.5137"/><ellipse cx="982.5" cy="439.4355" fill="#ADD1B2" rx="12" ry="12" style="stroke:#181818;stroke-width:1.0;"/><path d="M987.2188,446.9355 L978.1406,446.9355 L978.1406,432.3574 L987.2188,432.3574 L987.2188,434.8887 L981.0156,434.8887 L981.0156,438.0449 L986.6406,438.0449 L986.6406,440.5762 L981.0156,440.5762 L981.0156,444.3887 L987.2188,444.3887 L987.2188,446.9355 Z " fill="#000000"/><text fill="#000000" font-family="sans-serif" font-size="20" font-style="italic" lengthAdjust="spacing" textLength="83" x="995.5" y="423.0781">«entity»</text><text fill="#000000" font-family="sans-serif" font-size="20" font-style="italic" lengthAdjust="spacing" textLength="64" x="1005" y="446.3594">«root»</text><text fill="#000000" font-family="sans-serif" font-size="20" lengthAdjust="spacing" textLength="45" x="1014.5" y="469.6406">User</text></g><!--class Password--><g id="elem_Password"><rect codeLine="23" fill="#D6EAF8" height="56.5625" id="Password" rx="2.5" ry="2.5" style="stroke:#181818;stroke-width:0.5;" width="175" x="1248.5" y="706.5137"/><ellipse cx="1264.5" cy="734.7949" fill="#FF8B40" rx="12" ry="12" style="stroke:#181818;stroke-width:1.0;"/><path d="M1264.5156,740.6387 L1267.0781,728.4668 L1269.9844,728.4668 L1266.5156,743.0449 L1262.5313,743.0449 L1259.0625,728.4668 L1261.9531,728.4668 L1264.5156,740.6387 Z " fill="#000000"/><text fill="#000000" font-family="sans-serif" font-size="20" font-style="italic" lengthAdjust="spacing" textLength="145" x="1277.5" y="730.0781">«valueObject»</text><text fill="#000000" font-family="sans-serif" font-size="20" lengthAdjust="spacing" textLength="94" x="1303" y="753.3594">Password</text></g><!--class Role--><g id="elem_Role"><rect codeLine="24" fill="#D6EAF8" height="56.5625" id="Role" rx="2.5" ry="2.5" style="stroke:#181818;stroke-width:0.5;" width="175" x="1042.5" y="564.5137"/><ellipse cx="1058.5" cy="592.7949" fill="#FF8B40" rx="12" ry="12" style="stroke:#181818;stroke-width:1.0;"/><path d="M1058.5156,598.6387 L1061.0781,586.4668 L1063.9844,586.4668 L1060.5156,601.0449 L1056.5313,601.0449 L1053.0625,586.4668 L1055.9531,586.4668 L1058.5156,598.6387 Z " fill="#000000"/><text fill="#000000" font-family="sans-serif" font-size="20" font-style="italic" lengthAdjust="spacing" textLength="145" x="1071.5" y="588.0781">«valueObject»</text><text fill="#000000" font-family="sans-serif" font-size="20" lengthAdjust="spacing" textLength="44" x="1122" y="611.3594">Role</text></g><!--class IsActive--><g id="elem_IsActive"><rect codeLine="25" fill="#D6EAF8" height="56.5625" id="IsActive" rx="2.5" ry="2.5" style="stroke:#181818;stroke-width:0.5;" width="175" x="1252.5" y="564.5137"/><ellipse cx="1268.5" cy="592.7949" fill="#FF8B40" rx="12" ry="12" style="stroke:#181818;stroke-width:1.0;"/><path d="M1268.5156,598.6387 L1271.0781,586.4668 L1273.9844,586.4668 L1270.5156,601.0449 L1266.5313,601.0449 L1263.0625,586.4668 L1265.9531,586.4668 L1268.5156,598.6387 Z " fill="#000000"/><text fill="#000000" font-family="sans-serif" font-size="20" font-style="italic" lengthAdjust="spacing" textLength="145" x="1281.5" y="588.0781">«valueObject»</text><text fill="#000000" font-family="sans-serif" font-size="20" lengthAdjust="spacing" textLength="78" x="1315" y="611.3594">IsActive</text></g><!--class Authentication--><g id="elem_Authentication"><rect codeLine="27" fill="#D1F2EB" height="56.5625" id="Authentication" rx="2.5" ry="2.5" style="stroke:#181818;stroke-width:0.5;" width="183" x="824.5" y="564.5137"/><ellipse cx="840.5" cy="592.7949" fill="#85C1E9" rx="12" ry="12" style="stroke:#181818;stroke-width:1.0;"/><path d="M839.9844,593.9043 Q837.7969,593.0605 837.0313,592.1543 Q836.2656,591.248 836.2656,589.7012 Q836.2656,587.7168 837.5313,586.5918 Q838.7969,585.4512 841.0156,585.4512 Q842.0156,585.4512 843.0156,585.6855 Q844.0313,585.9043 845.0156,586.3574 L845.0156,589.1699 Q844.0938,588.5137 843.125,588.1699 Q842.1719,587.8262 841.2344,587.8262 Q840.2031,587.8262 839.6406,588.248 Q839.0781,588.6699 839.0781,589.4512 Q839.0781,590.0605 839.4844,590.4668 Q839.8906,590.8574 841.1875,591.3262 L842.4219,591.7949 Q844.1875,592.4355 845.0156,593.5137 Q845.8438,594.5762 845.8438,596.1855 Q845.8438,598.4043 844.5313,599.498 Q843.2344,600.5762 840.5938,600.5762 Q839.5156,600.5762 838.4219,600.3105 Q837.3281,600.0605 836.3125,599.5449 L836.3125,596.5762 Q837.4688,597.3887 838.5469,597.7949 Q839.625,598.2012 840.6875,598.2012 Q841.75,598.2012 842.3281,597.7168 Q842.9219,597.2324 842.9219,596.3574 Q842.9219,595.7012 842.5313,595.2168 Q842.1406,594.7168 841.3906,594.4355 L839.9844,593.9043 Z " fill="#000000"/><text fill="#000000" font-family="sans-serif" font-size="20" font-style="italic" lengthAdjust="spacing" textLength="95" x="882.5" y="588.0781">«service»</text><text fill="#000000" font-family="sans-serif" font-size="20" lengthAdjust="spacing" textLength="149" x="855.5" y="611.3594">Authentication</text></g><!--class Token--><g id="elem_Token"><rect codeLine="29" fill="#D6EAF8" height="56.5625" id="Token" rx="2.5" ry="2.5" style="stroke:#181818;stroke-width:0.5;" width="175" x="828.5" y="706.5137"/><ellipse cx="844.5" cy="734.7949" fill="#FF8B40" rx="12" ry="12" style="stroke:#181818;stroke-width:1.0;"/><path d="M844.5156,740.6387 L847.0781,728.4668 L849.9844,728.4668 L846.5156,743.0449 L842.5313,743.0449 L839.0625,728.4668 L841.9531,728.4668 L844.5156,740.6387 Z " fill="#000000"/><text fill="#000000" font-family="sans-serif" font-size="20" font-style="italic" lengthAdjust="spacing" textLength="145" x="857.5" y="730.0781">«valueObject»</text><text fill="#000000" font-family="sans-serif" font-size="20" lengthAdjust="spacing" textLength="61" x="899.5" y="753.3594">Token</text></g><!--class createdOn--><g id="elem_createdOn"><rect codeLine="30" fill="#D6EAF8" height="56.5625" id="createdOn" rx="2.5" ry="2.5" style="stroke:#181818;stroke-width:0.5;" width="175" x="1038.5" y="706.5137"/><ellipse cx="1054.5" cy="734.7949" fill="#FF8B40" rx="12" ry="12" style="stroke:#181818;stroke-width:1.0;"/><path d="M1054.5156,740.6387 L1057.0781,728.4668 L1059.9844,728.4668 L1056.5156,743.0449 L1052.5313,743.0449 L1049.0625,728.4668 L1051.9531,728.4668 L1054.5156,740.6387 Z " fill="#000000"/><text fill="#000000" font-family="sans-serif" font-size="20" font-style="italic" lengthAdjust="spacing" textLength="145" x="1067.5" y="730.0781">«valueObject»</text><text fill="#000000" font-family="sans-serif" font-size="20" lengthAdjust="spacing" textLength="105" x="1087.5" y="753.3594">createdOn</text></g><!--class PasswordPolicy--><g id="elem_PasswordPolicy"><rect codeLine="31" fill="#D1F2EB" height="56.5625" id="PasswordPolicy" rx="2.5" ry="2.5" style="stroke:#181818;stroke-width:0.5;" width="186" x="1313" y="848.5137"/><ellipse cx="1329" cy="876.7949" fill="#85C1E9" rx="12" ry="12" style="stroke:#181818;stroke-width:1.0;"/><path d="M1328.4844,877.9043 Q1326.2969,877.0605 1325.5313,876.1543 Q1324.7656,875.248 1324.7656,873.7012 Q1324.7656,871.7168 1326.0313,870.5918 Q1327.2969,869.4512 1329.5156,869.4512 Q1330.5156,869.4512 1331.5156,869.6855 Q1332.5313,869.9043 1333.5156,870.3574 L1333.5156,873.1699 Q1332.5938,872.5137 1331.625,872.1699 Q1330.6719,871.8262 1329.7344,871.8262 Q1328.7031,871.8262 1328.1406,872.248 Q1327.5781,872.6699 1327.5781,873.4512 Q1327.5781,874.0605 1327.9844,874.4668 Q1328.3906,874.8574 1329.6875,875.3262 L1330.9219,875.7949 Q1332.6875,876.4355 1333.5156,877.5137 Q1334.3438,878.5762 1334.3438,880.1855 Q1334.3438,882.4043 1333.0313,883.498 Q1331.7344,884.5762 1329.0938,884.5762 Q1328.0156,884.5762 1326.9219,884.3105 Q1325.8281,884.0605 1324.8125,883.5449 L1324.8125,880.5762 Q1325.9688,881.3887 1327.0469,881.7949 Q1328.125,882.2012 1329.1875,882.2012 Q1330.25,882.2012 1330.8281,881.7168 Q1331.4219,881.2324 1331.4219,880.3574 Q1331.4219,879.7012 1331.0313,879.2168 Q1330.6406,878.7168 1329.8906,878.4355 L1328.4844,877.9043 Z " fill="#000000"/><text fill="#000000" font-family="sans-serif" font-size="20" font-style="italic" lengthAdjust="spacing" textLength="95" x="1372.5" y="872.0781">«service»</text><text fill="#000000" font-family="sans-serif" font-size="20" lengthAdjust="spacing" textLength="152" x="1344" y="895.3594">PasswordPolicy</text></g><!--class PasswordEncoder--><g id="elem_PasswordEncoder"><rect codeLine="32" fill="#D1F2EB" height="56.5625" id="PasswordEncoder" rx="2.5" ry="2.5" style="stroke:#181818;stroke-width:0.5;" width="210" x="890" y="848.5137"/><ellipse cx="906" cy="876.7949" fill="#85C1E9" rx="12" ry="12" style="stroke:#181818;stroke-width:1.0;"/><path d="M905.4844,877.9043 Q903.2969,877.0605 902.5313,876.1543 Q901.7656,875.248 901.7656,873.7012 Q901.7656,871.7168 903.0313,870.5918 Q904.2969,869.4512 906.5156,869.4512 Q907.5156,869.4512 908.5156,869.6855 Q909.5313,869.9043 910.5156,870.3574 L910.5156,873.1699 Q909.5938,872.5137 908.625,872.1699 Q907.6719,871.8262 906.7344,871.8262 Q905.7031,871.8262 905.1406,872.248 Q904.5781,872.6699 904.5781,873.4512 Q904.5781,874.0605 904.9844,874.4668 Q905.3906,874.8574 906.6875,875.3262 L907.9219,875.7949 Q909.6875,876.4355 910.5156,877.5137 Q911.3438,878.5762 911.3438,880.1855 Q911.3438,882.4043 910.0313,883.498 Q908.7344,884.5762 906.0938,884.5762 Q905.0156,884.5762 903.9219,884.3105 Q902.8281,884.0605 901.8125,883.5449 L901.8125,880.5762 Q902.9688,881.3887 904.0469,881.7949 Q905.125,882.2012 906.1875,882.2012 Q907.25,882.2012 907.8281,881.7168 Q908.4219,881.2324 908.4219,880.3574 Q908.4219,879.7012 908.0313,879.2168 Q907.6406,878.7168 906.8906,878.4355 L905.4844,877.9043 Z " fill="#000000"/><text fill="#000000" font-family="sans-serif" font-size="20" font-style="italic" lengthAdjust="spacing" textLength="95" x="961.5" y="872.0781">«service»</text><text fill="#000000" font-family="sans-serif" font-size="20" lengthAdjust="spacing" textLength="176" x="921" y="895.3594">PasswordEncoder</text></g><!--class Candidate--><g id="elem_Candidate"><rect codeLine="37" fill="#FDEBD0" height="79.8438" id="Candidate" rx="2.5" ry="2.5" style="stroke:#181818;stroke-width:0.5;" width="137" x="270.5" y="86.5137"/><ellipse cx="286.5" cy="126.4355" fill="#ADD1B2" rx="12" ry="12" style="stroke:#181818;stroke-width:1.0;"/><path d="M291.2188,133.9355 L282.1406,133.9355 L282.1406,119.3574 L291.2188,119.3574 L291.2188,121.8887 L285.0156,121.8887 L285.0156,125.0449 L290.6406,125.0449 L290.6406,127.5762 L285.0156,127.5762 L285.0156,131.3887 L291.2188,131.3887 L291.2188,133.9355 Z " fill="#000000"/><text fill="#000000" font-family="sans-serif" font-size="20" font-style="italic" lengthAdjust="spacing" textLength="83" x="311.5" y="110.0781">«entity»</text><text fill="#000000" font-family="sans-serif" font-size="20" font-style="italic" lengthAdjust="spacing" textLength="64" x="321" y="133.3594">«root»</text><text fill="#000000" font-family="sans-serif" font-size="20" lengthAdjust="spacing" textLength="103" x="301.5" y="156.6406">Candidate</text></g><!--class FirstName--><g id="elem_FirstName"><rect codeLine="39" fill="#D6EAF8" height="56.5625" id="FirstName" rx="2.5" ry="2.5" style="stroke:#181818;stroke-width:0.5;" width="175" x="22.5" y="251.5137"/><ellipse cx="38.5" cy="279.7949" fill="#FF8B40" rx="12" ry="12" style="stroke:#181818;stroke-width:1.0;"/><path d="M38.5156,285.6387 L41.0781,273.4668 L43.9844,273.4668 L40.5156,288.0449 L36.5313,288.0449 L33.0625,273.4668 L35.9531,273.4668 L38.5156,285.6387 Z " fill="#000000"/><text fill="#000000" font-family="sans-serif" font-size="20" font-style="italic" lengthAdjust="spacing" textLength="145" x="51.5" y="275.0781">«valueObject»</text><text fill="#000000" font-family="sans-serif" font-size="20" lengthAdjust="spacing" textLength="103" x="72.5" y="298.3594">FirstName</text></g><!--class LastName--><g id="elem_LastName"><rect codeLine="40" fill="#D6EAF8" height="56.5625" id="LastName" rx="2.5" ry="2.5" style="stroke:#181818;stroke-width:0.5;" width="175" x="232.5" y="251.5137"/><ellipse cx="248.5" cy="279.7949" fill="#FF8B40" rx="12" ry="12" style="stroke:#181818;stroke-width:1.0;"/><path d="M248.5156,285.6387 L251.0781,273.4668 L253.9844,273.4668 L250.5156,288.0449 L246.5313,288.0449 L243.0625,273.4668 L245.9531,273.4668 L248.5156,285.6387 Z " fill="#000000"/><text fill="#000000" font-family="sans-serif" font-size="20" font-style="italic" lengthAdjust="spacing" textLength="145" x="261.5" y="275.0781">«valueObject»</text><text fill="#000000" font-family="sans-serif" font-size="20" lengthAdjust="spacing" textLength="100" x="284" y="298.3594">LastName</text></g><!--class PhoneNumber--><g id="elem_PhoneNumber"><rect codeLine="43" fill="#D6EAF8" height="56.5625" id="PhoneNumber" rx="2.5" ry="2.5" style="stroke:#181818;stroke-width:0.5;" width="177" x="621.5" y="251.5137"/><ellipse cx="637.5" cy="279.7949" fill="#FF8B40" rx="12" ry="12" style="stroke:#181818;stroke-width:1.0;"/><path d="M637.5156,285.6387 L640.0781,273.4668 L642.9844,273.4668 L639.5156,288.0449 L635.5313,288.0449 L632.0625,273.4668 L634.9531,273.4668 L637.5156,285.6387 Z " fill="#000000"/><text fill="#000000" font-family="sans-serif" font-size="20" font-style="italic" lengthAdjust="spacing" textLength="145" x="651.5" y="275.0781">«valueObject»</text><text fill="#000000" font-family="sans-serif" font-size="20" lengthAdjust="spacing" textLength="143" x="652.5" y="298.3594">PhoneNumber</text></g><!--class Email--><g id="elem_Email"><rect codeLine="44" fill="#D6EAF8" height="56.5625" id="Email" rx="2.5" ry="2.5" style="stroke:#181818;stroke-width:0.5;" width="175" x="461.5" y="706.5137"/><ellipse cx="477.5" cy="734.7949" fill="#FF8B40" rx="12" ry="12" style="stroke:#181818;stroke-width:1.0;"/><path d="M477.5156,740.6387 L480.0781,728.4668 L482.9844,728.4668 L479.5156,743.0449 L475.5313,743.0449 L472.0625,728.4668 L474.9531,728.4668 L477.5156,740.6387 Z " fill="#000000"/><text fill="#000000" font-family="sans-serif" font-size="20" font-style="italic" lengthAdjust="spacing" textLength="145" x="490.5" y="730.0781">«valueObject»</text><text fill="#000000" font-family="sans-serif" font-size="20" lengthAdjust="spacing" textLength="57" x="534.5" y="753.3594">Email</text></g><!--link User to Email--><g id="link_User_Email"><path codeLine="48" d="M966.29,451.0937 C870.5,471.9737 676.87,527.6437 572,651.5137 C560.25,665.3937 554.47,684.8537 551.65,701.3837 " fill="none" id="User-to-Email" style="stroke:#000000;stroke-width:1.0;"/><polygon fill="#000000" points="550.86,706.4137,556.2,698.1381,551.631,701.4735,548.2957,696.9045,550.86,706.4137" style="stroke:#000000;stroke-width:1.0;"/><text fill="#000000" font-family="sans-serif" font-size="20" lengthAdjust="spacing" textLength="35" x="675" y="600.0781">has</text><text fill="#000000" font-family="sans-serif" font-size="20" lengthAdjust="spacing" textLength="13" x="945.5863" y="446.6945">1</text><text fill="#000000" font-family="sans-serif" font-size="20" lengthAdjust="spacing" textLength="13" x="536.903" y="693.7816">1</text></g><!--link User to Password--><g id="link_User_Password"><path codeLine="49" d="M1079.85,448.4237 C1184.98,464.3837 1402.93,504.1337 1445,564.5137 C1478.04,611.9237 1423.07,668.7137 1379.9,703.0437 " fill="none" id="User-to-Password" style="stroke:#000000;stroke-width:1.0;"/><polygon fill="#000000" points="1375.77,706.3037,1385.3185,703.8901,1379.7021,703.2152,1380.377,697.5987,1375.77,706.3037" style="stroke:#000000;stroke-width:1.0;"/><text fill="#000000" font-family="sans-serif" font-size="20" lengthAdjust="spacing" textLength="35" x="1456" y="600.0781">has</text><text fill="#000000" font-family="sans-serif" font-size="20" lengthAdjust="spacing" textLength="13" x="1087.5708" y="443.6991">1</text><text fill="#000000" font-family="sans-serif" font-size="20" lengthAdjust="spacing" textLength="13" x="1369.6319" y="693.6489">1</text></g><!--link User to Role--><g id="link_User_Role"><path codeLine="50" d="M1066.08,479.7137 C1074.95,488.9737 1083.78,499.1737 1091,509.5137 C1101.77,524.9337 1110.94,543.7937 1117.68,559.5837 " fill="none" id="User-to-Role" style="stroke:#000000;stroke-width:1.0;"/><polygon fill="#000000" points="1119.69,564.3837,1119.91,554.5373,1117.7619,559.7704,1112.5287,557.6223,1119.69,564.3837" style="stroke:#000000;stroke-width:1.0;"/><text fill="#000000" font-family="sans-serif" font-size="20" lengthAdjust="spacing" textLength="35" x="1106" y="529.0781">has</text><text fill="#000000" font-family="sans-serif" font-size="20" lengthAdjust="spacing" textLength="13" x="1058.4527" y="505.9037">1</text><text fill="#000000" font-family="sans-serif" font-size="20" lengthAdjust="spacing" textLength="13" x="1103.2229" y="551.7454">1</text></g><!--link User to IsActive--><g id="link_User_IsActive"><path codeLine="51" d="M1079.67,467.6037 C1135.28,494.1737 1219.87,534.6037 1277.42,562.1037 " fill="none" id="User-to-IsActive" style="stroke:#000000;stroke-width:1.0;"/><polygon fill="#000000" points="1282.21,564.3937,1275.804,556.9128,1277.6957,562.244,1272.3645,564.1357,1282.21,564.3937" style="stroke:#000000;stroke-width:1.0;"/><text fill="#000000" font-family="sans-serif" font-size="20" lengthAdjust="spacing" textLength="67" x="1220" y="529.0781">can be</text><text fill="#000000" font-family="sans-serif" font-size="20" lengthAdjust="spacing" textLength="13" x="1087.3688" y="491.0198">1</text><text fill="#000000" font-family="sans-serif" font-size="20" lengthAdjust="spacing" textLength="13" x="1255.9502" y="551.7575">1</text></g><!--link User to Authentication--><g id="link_User_Authentication"><path codeLine="52" d="M966.44,460.8737 C944.77,471.7637 922.32,487.5637 910,509.5137 C901.67,524.3637 902.34,543.1637 905.47,559.0637 " fill="none" id="User-to-Authentication" style="stroke:#000000;stroke-width:1.0;"/><polygon fill="#000000" points="906.61,564.3337,908.6162,554.6913,905.5526,559.4468,900.7971,556.3832,906.61,564.3337" style="stroke:#000000;stroke-width:1.0;"/><text fill="#000000" font-family="sans-serif" font-size="20" lengthAdjust="spacing" textLength="171" x="911" y="529.0781">authenticated by</text><text fill="#000000" font-family="sans-serif" font-size="20" lengthAdjust="spacing" textLength="13" x="945.3604" y="483.6763">1</text><text fill="#000000" font-family="sans-serif" font-size="20" lengthAdjust="spacing" textLength="13" x="890.3327" y="551.6851">1</text></g><!--link Authentication to Email--><g id="link_Authentication_Email"><path codeLine="55" d="M824.13,602.9637 C745.47,612.0637 639.47,628.1437 604,651.5137 C585.74,663.5437 572.05,683.9537 562.9,701.4637 " fill="none" id="Authentication-to-Email" style="stroke:#000000;stroke-width:1.0;stroke-dasharray:7.0,7.0;"/><polygon fill="#000000" points="560.44,706.3137,568.0665,700.0818,562.6932,701.8501,560.9249,696.4768,560.44,706.3137" style="stroke:#000000;stroke-width:1.0;"/><text fill="#000000" font-family="sans-serif" font-size="20" lengthAdjust="spacing" textLength="171" x="605" y="671.0781">authenticated by</text><text fill="#000000" font-family="sans-serif" font-size="20" lengthAdjust="spacing" textLength="13" x="803.5985" y="598.437">1</text><text fill="#000000" font-family="sans-serif" font-size="20" lengthAdjust="spacing" textLength="13" x="564.1401" y="693.661">1</text></g><!--link Authentication to Password--><g id="link_Authentication_Password"><path codeLine="56" d="M1007.52,617.3837 C1013.43,618.8037 1019.3,620.1937 1025,621.5137 C1087.84,636.0737 1106,630.5437 1167,651.5137 C1207.17,665.3237 1250.16,686.4037 1282.73,703.8037 " fill="none" id="Authentication-to-Password" style="stroke:#000000;stroke-width:1.0;stroke-dasharray:7.0,7.0;"/><polygon fill="#000000" points="1287.45,706.3437,1281.4252,698.5526,1283.0486,703.9715,1277.6296,705.5949,1287.45,706.3437" style="stroke:#000000;stroke-width:1.0;"/><text fill="#000000" font-family="sans-serif" font-size="20" lengthAdjust="spacing" textLength="171" x="1225" y="671.0781">authenticated by</text><text fill="#000000" font-family="sans-serif" font-size="20" lengthAdjust="spacing" textLength="13" x="1015.6373" y="614.0437">1</text><text fill="#000000" font-family="sans-serif" font-size="20" lengthAdjust="spacing" textLength="13" x="1263.0959" y="693.6972">1</text></g><!--link Authentication to Token--><g id="link_Authentication_Token"><path codeLine="57" d="M916,621.6737 C916,644.5837 916,677.1937 916,701.3837 " fill="none" id="Authentication-to-Token" style="stroke:#000000;stroke-width:1.0;stroke-dasharray:7.0,7.0;"/><polygon fill="#000000" points="916,706.4137,920,697.4137,916,701.4137,912,697.4137,916,706.4137" style="stroke:#000000;stroke-width:1.0;"/><text fill="#000000" font-family="sans-serif" font-size="20" lengthAdjust="spacing" textLength="100" x="917" y="671.0781">generates</text><text fill="#000000" font-family="sans-serif" font-size="20" lengthAdjust="spacing" textLength="13" x="901.8016" y="647.7089">1</text><text fill="#000000" font-family="sans-serif" font-size="20" lengthAdjust="spacing" textLength="13" x="901.6594" y="693.7816">1</text></g><!--link Authentication to createdOn--><g id="link_Authentication_createdOn"><path codeLine="58" d="M974.1,621.5237 C991.24,630.3837 1009.75,640.7337 1026,651.5137 C1049.02,666.7837 1072.95,686.3737 1091.62,702.6237 " fill="none" id="Authentication-to-createdOn" style="stroke:#000000;stroke-width:1.0;stroke-dasharray:7.0,7.0;"/><polygon fill="#000000" points="1095.77,706.2537,1091.6308,697.3168,1092.0071,702.9611,1086.3628,703.3374,1095.77,706.2537" style="stroke:#000000;stroke-width:1.0;"/><text fill="#000000" font-family="sans-serif" font-size="20" lengthAdjust="spacing" textLength="100" x="1058" y="671.0781">generates</text><text fill="#000000" font-family="sans-serif" font-size="20" lengthAdjust="spacing" textLength="13" x="970.6138" y="647.5312">1</text><text fill="#000000" font-family="sans-serif" font-size="20" lengthAdjust="spacing" textLength="13" x="1075.1944" y="693.5886">1</text></g><!--link Authentication to PasswordPolicy--><g id="link_Authentication_PasswordPolicy"><path codeLine="59" d="M1007.65,618.3137 C1013.5,619.4937 1019.32,620.5837 1025,621.5137 C1108.58,635.2537 1332.13,608.3237 1405,651.5137 C1471.87,691.1437 1484.59,745.8337 1457,818.5137 C1453.48,827.7737 1447.72,836.5037 1441.3,844.2237 " fill="none" id="Authentication-to-PasswordPolicy" style="stroke:#000000;stroke-width:1.0;stroke-dasharray:7.0,7.0;"/><polygon fill="#000000" points="1437.68,848.4137,1446.5911,844.2194,1440.9492,844.6305,1440.5381,838.9886,1437.68,848.4137" style="stroke:#000000;stroke-width:1.0;"/><text fill="#000000" font-family="sans-serif" font-size="20" lengthAdjust="spacing" textLength="72" x="1471" y="742.0781">applies</text><text fill="#000000" font-family="sans-serif" font-size="20" lengthAdjust="spacing" textLength="13" x="1015.4713" y="639.8393">1</text><text fill="#000000" font-family="sans-serif" font-size="20" lengthAdjust="spacing" textLength="13" x="1429.8734" y="835.7816">1</text></g><!--link Authentication to PasswordEncoder--><g id="link_Authentication_PasswordEncoder"><path codeLine="60" d="M859.7,621.6437 C803.23,653.2937 729.27,707.9637 764,763.5137 C790.81,806.3937 839.18,833.3537 884.75,850.0937 " fill="none" id="Authentication-to-PasswordEncoder" style="stroke:#000000;stroke-width:1.0;stroke-dasharray:7.0,7.0;"/><polygon fill="#000000" points="889.72,851.8837,882.6172,845.0609,885.0181,850.183,879.8961,852.584,889.72,851.8837" style="stroke:#000000;stroke-width:1.0;"/><text fill="#000000" font-family="sans-serif" font-size="20" lengthAdjust="spacing" textLength="45" x="765" y="742.0781">uses</text><text fill="#000000" font-family="sans-serif" font-size="20" lengthAdjust="spacing" textLength="13" x="835.1213" y="647.6734">1</text><text fill="#000000" font-family="sans-serif" font-size="20" lengthAdjust="spacing" textLength="13" x="868.8605" y="844.8978">1</text></g><!--link Password to PasswordPolicy--><g id="link_Password_PasswordPolicy"><path codeLine="63" d="M1349.83,763.6737 C1361.33,786.6837 1377.73,819.4737 1389.84,843.6837 " fill="none" id="Password-to-PasswordPolicy" style="stroke:#000000;stroke-width:1.0;stroke-dasharray:7.0,7.0;"/><polygon fill="#000000" points="1392.2,848.4137,1391.7402,838.5756,1389.9582,843.9444,1384.5894,842.1624,1392.2,848.4137" style="stroke:#000000;stroke-width:1.0;"/><text fill="#000000" font-family="sans-serif" font-size="20" lengthAdjust="spacing" textLength="72" x="1376" y="813.0781">applies</text><text fill="#000000" font-family="sans-serif" font-size="20" lengthAdjust="spacing" textLength="13" x="1338.1815" y="789.7089">1</text><text fill="#000000" font-family="sans-serif" font-size="20" lengthAdjust="spacing" textLength="13" x="1375.0131" y="835.7816">1</text></g><!--link Password to PasswordEncoder--><g id="link_Password_PasswordEncoder"><path codeLine="64" d="M1268.63,763.6737 C1210.48,787.5437 1126.7,821.9437 1067.19,846.3737 " fill="none" id="Password-to-PasswordEncoder" style="stroke:#000000;stroke-width:1.0;stroke-dasharray:7.0,7.0;"/><polygon fill="#000000" points="1062.23,848.4137,1072.0748,848.6963,1066.8555,846.515,1069.0368,841.2956,1062.23,848.4137" style="stroke:#000000;stroke-width:1.0;"/><text fill="#000000" font-family="sans-serif" font-size="20" lengthAdjust="spacing" textLength="45" x="1186" y="813.0781">uses</text><text fill="#000000" font-family="sans-serif" font-size="20" lengthAdjust="spacing" textLength="13" x="1242.0102" y="789.7089">1</text><text fill="#000000" font-family="sans-serif" font-size="20" lengthAdjust="spacing" textLength="13" x="1061.7556" y="835.7816">1</text></g><!--link Candidate to FirstName--><g id="link_Candidate_FirstName"><path codeLine="67" d="M280.03,166.5337 C241.44,192.0537 191.76,224.9237 156.07,248.5337 " fill="none" id="Candidate-to-FirstName" style="stroke:#000000;stroke-width:1.0;"/><polygon fill="#000000" points="151.79,251.3637,161.5038,249.738,155.9612,248.6067,157.0926,243.0641,151.79,251.3637" style="stroke:#000000;stroke-width:1.0;"/><text fill="#000000" font-family="sans-serif" font-size="20" lengthAdjust="spacing" textLength="35" x="233" y="216.0781">has</text><text fill="#000000" font-family="sans-serif" font-size="20" lengthAdjust="spacing" textLength="13" x="257.0049" y="193.0206">1</text><text fill="#000000" font-family="sans-serif" font-size="20" lengthAdjust="spacing" textLength="13" x="146.0686" y="238.7213">1</text></g><!--link Candidate to LastName--><g id="link_Candidate_LastName"><path codeLine="68" d="M334.11,166.5337 C331.02,191.1437 327.08,222.5837 324.14,245.9737 " fill="none" id="Candidate-to-LastName" style="stroke:#000000;stroke-width:1.0;"/><polygon fill="#000000" points="323.5,251.1337,328.5735,242.6921,324.1132,246.1714,320.6339,241.7111,323.5,251.1337" style="stroke:#000000;stroke-width:1.0;"/><text fill="#000000" font-family="sans-serif" font-size="20" lengthAdjust="spacing" textLength="35" x="332" y="216.0781">has</text><text fill="#000000" font-family="sans-serif" font-size="20" lengthAdjust="spacing" textLength="13" x="319.3659" y="193.0206">1</text><text fill="#000000" font-family="sans-serif" font-size="20" lengthAdjust="spacing" textLength="13" x="309.9094" y="238.8191">1</text></g><!--link Candidate to PhoneNumber--><g id="link_Candidate_PhoneNumber"><path codeLine="69" d="M407.56,142.4737 C455.59,154.1637 520.64,172.4637 575,196.5137 C607.18,210.7437 640.95,231.3937 666.67,248.4637 " fill="none" id="Candidate-to-PhoneNumber" style="stroke:#000000;stroke-width:1.0;"/><polygon fill="#000000" points="671.05,251.3937,665.7803,243.0732,666.8897,248.6202,661.3427,249.7296,671.05,251.3937" style="stroke:#000000;stroke-width:1.0;"/><text fill="#000000" font-family="sans-serif" font-size="20" lengthAdjust="spacing" textLength="35" x="623" y="216.0781">has</text><text fill="#000000" font-family="sans-serif" font-size="20" lengthAdjust="spacing" textLength="13" x="415.3006" y="138.5206">1</text><text fill="#000000" font-family="sans-serif" font-size="20" lengthAdjust="spacing" textLength="13" x="648.6759" y="238.7575">1</text></g><!--link Candidate to Email--><g id="link_Candidate_Email"><path codeLine="70" d="M395.36,166.8037 C427.32,194.0837 461,233.5937 461,279.0137 C461,279.0137 461,279.0137 461,594.0137 C461,636.2937 490.12,676.2537 514.85,702.5737 " fill="none" id="Candidate-to-Email" style="stroke:#000000;stroke-width:1.0;"/><polygon fill="#000000" points="518.47,706.3637,515.1396,697.095,515.0139,702.7505,509.3584,702.6248,518.47,706.3637" style="stroke:#000000;stroke-width:1.0;"/><text fill="#000000" font-family="sans-serif" font-size="20" lengthAdjust="spacing" textLength="35" x="462" y="446.5781">has</text><text fill="#000000" font-family="sans-serif" font-size="20" lengthAdjust="spacing" textLength="13" x="389.6832" y="193.0069">1</text><text fill="#000000" font-family="sans-serif" font-size="20" lengthAdjust="spacing" textLength="13" x="497.8326" y="693.7213">1</text></g><!--link Candidate to User--><g id="link_Candidate_User"><path codeLine="71" d="M407.86,149.5437 C434.74,160.5637 464.45,176.0137 487,196.5137 C538.9,243.6737 510.49,290.9837 567,332.5137 C680.34,415.8037 848.82,434.9237 946.1,438.5737 " fill="none" id="Candidate-to-User" style="stroke:#000000;stroke-width:1.0;"/><polygon fill="none" points="946.52,431.5837,966.31,439.1437,946.12,445.5737,946.52,431.5837" style="stroke:#000000;stroke-width:1.0;"/><text fill="#000000" font-family="sans-serif" font-size="20" lengthAdjust="spacing" textLength="35" x="568" y="287.0781">has</text><text fill="#000000" font-family="sans-serif" font-size="20" lengthAdjust="spacing" textLength="13" x="415.6315" y="171.6916">1</text><text fill="#000000" font-family="sans-serif" font-size="20" lengthAdjust="spacing" textLength="13" x="945.6087" y="433.2881">1</text></g><!--SRC=[bLHTRvj047o_Nx5o7j9ATOIjfdKiPCdO85LAawXk-dw6BLmDT-Wu4hb9_tiF21_6n0O_sFBkpDxktimbEyPZAcaK2dU77dZucwQXSWHN6_ONOMeGefWA4TOYeep3T-5X26Dut4mDmzWI4Z0F0QDOxI72Q8io8PT9MHLk6KUrZn64L84WfCwu8KqIU26WFnPrTxuKAVTM8XJID9zecEBzzW-wQh60Y_KNU-dCkg5IY1pZh6rhRNHZ4fHFpCMyrCIPsbONJ9UmdHlxQvvRIYcUYx0LQXpvr-mzrX7gOtVtS65RphLZPPHBUDHdmzBt9VfK8IcP8zEaPL2tbQ56R-MGwuNl2w9f5lyqf9hqHTVDSCK27_JNiv0Uj9TccXz-VT8pEJFhi_6nuDMq7q9VwJ3AjsJfAlRKZzRWBLCLP5EuL371eNaRchdHpDdrQcBV73D_YXtoWLsw4lLAlVkXl7AF3o9axlvibyT4cxlQ6l8iCrV5YdAFURhHyzAee2rzr2NEYyHXCb5tD1fwvRTq04sV-BQHG72yIxEte1UnODdwUGdxQQkqbSGmrrGIi3WXUMWq6S5ulCX_Yufp26X7ilBDE_dS8E_aAYVCmQKSjdWCQOb-3hGEw6Tsky-6Q84Ensabiw9NLuU37TKymMdCEuHMM70EFdAK6d-ohzfxFGajq-dMuZXa_JYbt-QG9fgXrrcDUBZ8Ajphv9FeupDh5nuUMiURggXzM2Yh6rMvxXIeQR9JkAO9seZnQu79rLj0o7y0]--></g></svg>