<?xml version="1.0" encoding="UTF-8" standalone="no"?><svg xmlns="http://www.w3.org/2000/svg" xmlns:xlink="http://www.w3.org/1999/xlink" contentStyleType="text/css" height="504px" preserveAspectRatio="none" style="width:746px;height:504px;background:#FFFFFF;" version="1.1" viewBox="0 0 746 504" width="746px" zoomAndPan="magnify"><defs/><g><text fill="#000000" font-family="sans-serif" font-size="14" font-weight="bold" lengthAdjust="spacing" textLength="614" x="63.75" y="27.9951">System Sequence Diagram (SSD) - Display all the personal data of a candidate</text><rect fill="#FFFFFF" height="272.25" style="stroke:#181818;stroke-width:1.0;" width="10" x="98" y="135.5781"/><rect fill="#FFFFFF" height="122.125" style="stroke:#181818;stroke-width:1.0;" width="10" x="685" y="164.8594"/><rect fill="#FFFFFF" height="74.5625" style="stroke:#181818;stroke-width:1.0;" width="10" x="685" y="324.2656"/><line style="stroke:#181818;stroke-width:0.5;stroke-dasharray:5.0,5.0;" x1="103" x2="103" y1="125.5781" y2="416.8281"/><line style="stroke:#181818;stroke-width:0.5;stroke-dasharray:5.0,5.0;" x1="689.5" x2="689.5" y1="125.5781" y2="416.8281"/><text fill="#000000" font-family="sans-serif" font-size="20" lengthAdjust="spacing" textLength="190" x="5" y="120.8613">Costumer Manager</text><ellipse cx="103" cy="50.7969" fill="#E3E3E3" rx="8" ry="8" style="stroke:#181818;stroke-width:0.5;"/><path d="M103,58.7969 L103,85.7969 M90,66.7969 L116,66.7969 M103,85.7969 L90,100.7969 M103,85.7969 L116,100.7969 " fill="none" style="stroke:#181818;stroke-width:0.5;"/><text fill="#000000" font-family="sans-serif" font-size="20" lengthAdjust="spacing" textLength="190" x="5" y="434.3926">Costumer Manager</text><ellipse cx="103" cy="447.6094" fill="#E3E3E3" rx="8" ry="8" style="stroke:#181818;stroke-width:0.5;"/><path d="M103,455.6094 L103,482.6094 M90,463.6094 L116,463.6094 M103,482.6094 L90,497.6094 M103,482.6094 L116,497.6094 " fill="none" style="stroke:#181818;stroke-width:0.5;"/><rect fill="#E3E3E3" height="37.2813" rx="2.5" ry="2.5" style="stroke:#181818;stroke-width:0.5;" width="95" x="642.5" y="87.2969"/><text fill="#000000" font-family="sans-serif" font-size="20" lengthAdjust="spacing" textLength="81" x="649.5" y="112.8613">:System</text><rect fill="#E3E3E3" height="37.2813" rx="2.5" ry="2.5" style="stroke:#181818;stroke-width:0.5;" width="95" x="642.5" y="415.8281"/><text fill="#000000" font-family="sans-serif" font-size="20" lengthAdjust="spacing" textLength="81" x="649.5" y="441.3926">:System</text><rect fill="#FFFFFF" height="272.25" style="stroke:#181818;stroke-width:1.0;" width="10" x="98" y="135.5781"/><rect fill="#FFFFFF" height="122.125" style="stroke:#181818;stroke-width:1.0;" width="10" x="685" y="164.8594"/><rect fill="#FFFFFF" height="74.5625" style="stroke:#181818;stroke-width:1.0;" width="10" x="685" y="324.2656"/><polygon fill="#181818" points="673,160.8594,683,164.8594,673,168.8594,677,164.8594" style="stroke:#181818;stroke-width:1.0;"/><line style="stroke:#181818;stroke-width:1.0;" x1="108" x2="679" y1="164.8594" y2="164.8594"/><text fill="#000000" font-family="sans-serif" font-size="20" font-weight="bold" lengthAdjust="spacing" textLength="14" x="115" y="158.1426">1</text><text fill="#000000" font-family="sans-serif" font-size="20" lengthAdjust="spacing" textLength="256" x="133" y="158.1426">Asks for list of candidates</text><rect fill="none" height="79.8438" style="stroke:#000000;stroke-width:1.5;" width="738.5" x="2" y="172.8594"/><path d="M2,172.8594 L80,172.8594 L80,187.8594 L70,197.8594 L2,197.8594 L2,172.8594 " fill="#EEEEEE" style="stroke:#000000;stroke-width:2.0;"/><text fill="#000000" font-family="sans-serif" font-size="20" font-weight="bold" lengthAdjust="spacing" textLength="33" x="15" y="193.4238">ref</text><text fill="#000000" font-family="sans-serif" font-size="20" lengthAdjust="spacing" textLength="151" x="295.75" y="220.4238">List candidates</text><text fill="#000000" font-family="sans-serif" font-size="20" lengthAdjust="spacing" textLength="113" x="314.75" y="243.7051">(US 2000c)</text><polygon fill="#181818" points="119,282.9844,109,286.9844,119,290.9844,115,286.9844" style="stroke:#181818;stroke-width:1.0;"/><line style="stroke:#181818;stroke-width:1.0;" x1="113" x2="689" y1="286.9844" y2="286.9844"/><text fill="#000000" font-family="sans-serif" font-size="20" font-weight="bold" lengthAdjust="spacing" textLength="14" x="125" y="280.2676">2</text><text fill="#000000" font-family="sans-serif" font-size="20" lengthAdjust="spacing" textLength="470" x="143" y="280.2676">Shows list of candidates and asks to select one</text><polygon fill="#181818" points="673,320.2656,683,324.2656,673,328.2656,677,324.2656" style="stroke:#181818;stroke-width:1.0;"/><line style="stroke:#181818;stroke-width:1.0;" x1="108" x2="679" y1="324.2656" y2="324.2656"/><text fill="#000000" font-family="sans-serif" font-size="20" font-weight="bold" lengthAdjust="spacing" textLength="14" x="115" y="317.5488">3</text><text fill="#000000" font-family="sans-serif" font-size="20" lengthAdjust="spacing" textLength="196" x="133" y="317.5488">Selects a candidate</text><polygon fill="#181818" points="119,357.5469,109,361.5469,119,365.5469,115,361.5469" style="stroke:#181818;stroke-width:1.0;"/><line style="stroke:#181818;stroke-width:1.0;" x1="113" x2="684" y1="361.5469" y2="361.5469"/><text fill="#000000" font-family="sans-serif" font-size="20" font-weight="bold" lengthAdjust="spacing" textLength="14" x="125" y="354.8301">4</text><text fill="#000000" font-family="sans-serif" font-size="20" lengthAdjust="spacing" textLength="447" x="143" y="354.8301">Displays personal data of selected candidate</text><polygon fill="#181818" points="119,394.8281,109,398.8281,119,402.8281,115,398.8281" style="stroke:#181818;stroke-width:1.0;"/><line style="stroke:#181818;stroke-width:1.0;" x1="113" x2="689" y1="398.8281" y2="398.8281"/><text fill="#000000" font-family="sans-serif" font-size="20" font-weight="bold" lengthAdjust="spacing" textLength="14" x="125" y="392.1113">5</text><text fill="#000000" font-family="sans-serif" font-size="20" lengthAdjust="spacing" textLength="535" x="143" y="392.1113">Displays list of the applications sent by the candidate</text><!--SRC=[XP9DJyCm343l_HNMJfi4qiIn1oJ4n0bE4JSkNkfsqTAanEwcykjnlyOcAiZ9QUoNvpfyTA71XBMFzaW555HYw-Kb1Z7kY-1Xc_6S0dKCqHvIh0aajNHrqg0zOaL6Ea-Go0g6obydy06BU7QXWX8zKvQ94qqr7GlLOEYpfM09TWwhFdrjp6u3zxhdncC7w3t8WQ2Xn36WXm858PQ0O34KJhVAn5PYQEiz9Osjn0IhvyZIrfJW3OCAfXKWpt6cQkAiQp08hFBHPKWOmm7YJeg-L6IWQzh0_UFidyCJ7nbAlT4xbbxieiL3pOKqes5QYKg89wLDgBiPdyDhZ_hXV8Jrkz61RBTsSocVgbHbjih17EAP5qH08-rEHIK2azSnGGmqkXIqgBZKgnbA-URV_zdZakGqMVuzqj5Ct-8j_L_Gt73_Jh1flBCeBWPMeCvttmq7LwzbkUl-wpS0]--></g></svg>