<?xml version="1.0" encoding="UTF-8" standalone="no"?><svg xmlns="http://www.w3.org/2000/svg" xmlns:xlink="http://www.w3.org/1999/xlink" contentStyleType="text/css" height="457px" preserveAspectRatio="none" style="width:1040px;height:457px;background:#FFFFFF;" version="1.1" viewBox="0 0 1040 457" width="1040px" zoomAndPan="magnify"><defs/><g><text fill="#000000" font-family="sans-serif" font-size="14" font-weight="bold" lengthAdjust="spacing" textLength="546" x="246.25" y="27.9951">System Sequence Diagram (SSD) - Displayes all data of an application</text><rect fill="#FFFFFF" height="224.6875" style="stroke:#181818;stroke-width:1.0;" width="10" x="98" y="135.5781"/><rect fill="#FFFFFF" height="37.2813" style="stroke:#181818;stroke-width:1.0;" width="10" x="982" y="164.8594"/><rect fill="#FFFFFF" height="37.2813" style="stroke:#181818;stroke-width:1.0;" width="10" x="982" y="239.4219"/><rect fill="#FFFFFF" height="37.2813" style="stroke:#181818;stroke-width:1.0;" width="10" x="982" y="313.9844"/><line style="stroke:#181818;stroke-width:0.5;stroke-dasharray:5.0,5.0;" x1="103" x2="103" y1="125.5781" y2="369.2656"/><line style="stroke:#181818;stroke-width:0.5;stroke-dasharray:5.0,5.0;" x1="986.5" x2="986.5" y1="125.5781" y2="369.2656"/><text fill="#000000" font-family="sans-serif" font-size="20" lengthAdjust="spacing" textLength="190" x="5" y="120.8613">Customer Manager</text><ellipse cx="103" cy="50.7969" fill="#E3E3E3" rx="8" ry="8" style="stroke:#181818;stroke-width:0.5;"/><path d="M103,58.7969 L103,85.7969 M90,66.7969 L116,66.7969 M103,85.7969 L90,100.7969 M103,85.7969 L116,100.7969 " fill="none" style="stroke:#181818;stroke-width:0.5;"/><text fill="#000000" font-family="sans-serif" font-size="20" lengthAdjust="spacing" textLength="190" x="5" y="386.8301">Customer Manager</text><ellipse cx="103" cy="400.0469" fill="#E3E3E3" rx="8" ry="8" style="stroke:#181818;stroke-width:0.5;"/><path d="M103,408.0469 L103,435.0469 M90,416.0469 L116,416.0469 M103,435.0469 L90,450.0469 M103,435.0469 L116,450.0469 " fill="none" style="stroke:#181818;stroke-width:0.5;"/><rect fill="#E3E3E3" height="37.2813" rx="2.5" ry="2.5" style="stroke:#181818;stroke-width:0.5;" width="95" x="939.5" y="87.2969"/><text fill="#000000" font-family="sans-serif" font-size="20" lengthAdjust="spacing" textLength="81" x="946.5" y="112.8613">:System</text><rect fill="#E3E3E3" height="37.2813" rx="2.5" ry="2.5" style="stroke:#181818;stroke-width:0.5;" width="95" x="939.5" y="368.2656"/><text fill="#000000" font-family="sans-serif" font-size="20" lengthAdjust="spacing" textLength="81" x="946.5" y="393.8301">:System</text><rect fill="#FFFFFF" height="224.6875" style="stroke:#181818;stroke-width:1.0;" width="10" x="98" y="135.5781"/><rect fill="#FFFFFF" height="37.2813" style="stroke:#181818;stroke-width:1.0;" width="10" x="982" y="164.8594"/><rect fill="#FFFFFF" height="37.2813" style="stroke:#181818;stroke-width:1.0;" width="10" x="982" y="239.4219"/><rect fill="#FFFFFF" height="37.2813" style="stroke:#181818;stroke-width:1.0;" width="10" x="982" y="313.9844"/><polygon fill="#181818" points="970,160.8594,980,164.8594,970,168.8594,974,164.8594" style="stroke:#181818;stroke-width:1.0;"/><line style="stroke:#181818;stroke-width:1.0;" x1="108" x2="976" y1="164.8594" y2="164.8594"/><text fill="#000000" font-family="sans-serif" font-size="20" font-weight="bold" lengthAdjust="spacing" textLength="14" x="115" y="158.1426">1</text><text fill="#000000" font-family="sans-serif" font-size="20" lengthAdjust="spacing" textLength="526" x="133" y="158.1426">Asks to register display all the data of an application</text><polygon fill="#181818" points="119,198.1406,109,202.1406,119,206.1406,115,202.1406" style="stroke:#181818;stroke-width:1.0;"/><line style="stroke:#181818;stroke-width:1.0;" x1="113" x2="986" y1="202.1406" y2="202.1406"/><text fill="#000000" font-family="sans-serif" font-size="20" font-weight="bold" lengthAdjust="spacing" textLength="14" x="125" y="195.4238">2</text><text fill="#000000" font-family="sans-serif" font-size="20" lengthAdjust="spacing" textLength="832" x="143" y="195.4238">displays list of job openings and asks to choose of which the application belongs to</text><polygon fill="#181818" points="970,235.4219,980,239.4219,970,243.4219,974,239.4219" style="stroke:#181818;stroke-width:1.0;"/><line style="stroke:#181818;stroke-width:1.0;" x1="108" x2="976" y1="239.4219" y2="239.4219"/><text fill="#000000" font-family="sans-serif" font-size="20" font-weight="bold" lengthAdjust="spacing" textLength="14" x="115" y="232.7051">3</text><text fill="#000000" font-family="sans-serif" font-size="20" lengthAdjust="spacing" textLength="237" x="133" y="232.7051">selects one job opening</text><polygon fill="#181818" points="119,272.7031,109,276.7031,119,280.7031,115,276.7031" style="stroke:#181818;stroke-width:1.0;"/><line style="stroke:#181818;stroke-width:1.0;" x1="113" x2="986" y1="276.7031" y2="276.7031"/><text fill="#000000" font-family="sans-serif" font-size="20" font-weight="bold" lengthAdjust="spacing" textLength="14" x="125" y="269.9863">4</text><text fill="#000000" font-family="sans-serif" font-size="20" lengthAdjust="spacing" textLength="486" x="143" y="269.9863">dysplayes list of applications of the job openings</text><polygon fill="#181818" points="970,309.9844,980,313.9844,970,317.9844,974,313.9844" style="stroke:#181818;stroke-width:1.0;"/><line style="stroke:#181818;stroke-width:1.0;" x1="108" x2="976" y1="313.9844" y2="313.9844"/><text fill="#000000" font-family="sans-serif" font-size="20" font-weight="bold" lengthAdjust="spacing" textLength="14" x="115" y="307.2676">5</text><text fill="#000000" font-family="sans-serif" font-size="20" lengthAdjust="spacing" textLength="218" x="133" y="307.2676">selects an application</text><polygon fill="#181818" points="119,347.2656,109,351.2656,119,355.2656,115,351.2656" style="stroke:#181818;stroke-width:1.0;"/><line style="stroke:#181818;stroke-width:1.0;" x1="113" x2="986" y1="351.2656" y2="351.2656"/><text fill="#000000" font-family="sans-serif" font-size="20" font-weight="bold" lengthAdjust="spacing" textLength="14" x="125" y="344.5488">6</text><text fill="#000000" font-family="sans-serif" font-size="20" lengthAdjust="spacing" textLength="361" x="143" y="344.5488">dysplayes all data of the application</text><!--SRC=[dPB1JiCm38RlUGfh9pXCGXntG49Ct3Zr2RpKQyFIkCGkKtbwafPCrRJkG4-sw_Z_VYToSg77Y9rdUw8QQZhYuFMTWrRkX-3voKXfWOu3spPoHw1neCMV7kq96wfqz0IHh69e_B91Mgpvx483H_H2ngZJr5gDejH1HLy31KkmTzZazeUgsZ_2DkNIUnn90Bs76XM1Zu01iE-ziwYEWp4uA8UXEr1CiLMEi7aRH1DdX0yC2Ink0AN49Y6fiwx7eB3PpGnJmnnEGzmtAbrE64ZVNmBRbyAzWrSv2IWdpurBfGZrJ3pnQajhp7dUHQN8vc8PdKIAtguC5V1994_xv0DmJo4jDAqcr0b-vh0jir1kERVEjXF2GXSEv3cVKPxbQhf9SSkga4yNAy21blfthAov6Skb5ZiBGibvfbvQD6Q5yoxezJEPYVw9kdn_LqjTssIk_W80]--></g></svg>