<?xml version="1.0" encoding="UTF-8" standalone="no"?><svg xmlns="http://www.w3.org/2000/svg" xmlns:xlink="http://www.w3.org/1999/xlink" contentStyleType="text/css" height="233px" preserveAspectRatio="none" style="width:2689px;height:233px;background:#FFFFFF;" version="1.1" viewBox="0 0 2689 233" width="2689px" zoomAndPan="magnify"><defs/><g><text fill="#000000" font-family="sans-serif" font-size="14" font-weight="bold" lengthAdjust="spacing" textLength="418" x="1137" y="27.9951">System Sequence Diagram (SSD) - Edit a Job Opening</text><line style="stroke:#181818;stroke-width:0.5;stroke-dasharray:5.0,5.0;" x1="103" x2="103" y1="125.5781" y2="145.5781"/><line style="stroke:#181818;stroke-width:0.5;stroke-dasharray:5.0,5.0;" x1="307" x2="307" y1="125.5781" y2="145.5781"/><line style="stroke:#181818;stroke-width:0.5;stroke-dasharray:5.0,5.0;" x1="548" x2="548" y1="125.5781" y2="145.5781"/><line style="stroke:#181818;stroke-width:0.5;stroke-dasharray:5.0,5.0;" x1="758" x2="758" y1="125.5781" y2="145.5781"/><line style="stroke:#181818;stroke-width:0.5;stroke-dasharray:5.0,5.0;" x1="952" x2="952" y1="125.5781" y2="145.5781"/><line style="stroke:#181818;stroke-width:0.5;stroke-dasharray:5.0,5.0;" x1="1215" x2="1215" y1="125.5781" y2="145.5781"/><line style="stroke:#181818;stroke-width:0.5;stroke-dasharray:5.0,5.0;" x1="1511" x2="1511" y1="125.5781" y2="145.5781"/><line style="stroke:#181818;stroke-width:0.5;stroke-dasharray:5.0,5.0;" x1="1780" x2="1780" y1="125.5781" y2="145.5781"/><line style="stroke:#181818;stroke-width:0.5;stroke-dasharray:5.0,5.0;" x1="2057" x2="2057" y1="125.5781" y2="145.5781"/><line style="stroke:#181818;stroke-width:0.5;stroke-dasharray:5.0,5.0;" x1="2402" x2="2402" y1="125.5781" y2="145.5781"/><line style="stroke:#181818;stroke-width:0.5;stroke-dasharray:5.0,5.0;" x1="2638" x2="2638" y1="125.5781" y2="145.5781"/><text fill="#000000" font-family="sans-serif" font-size="20" lengthAdjust="spacing" textLength="190" x="5" y="120.8613">Customer Manager</text><ellipse cx="103" cy="50.7969" fill="#E3E3E3" rx="8" ry="8" style="stroke:#181818;stroke-width:0.5;"/><path d="M103,58.7969 L103,85.7969 M90,66.7969 L116,66.7969 M103,85.7969 L90,100.7969 M103,85.7969 L116,100.7969 " fill="none" style="stroke:#181818;stroke-width:0.5;"/><text fill="#000000" font-family="sans-serif" font-size="20" lengthAdjust="spacing" textLength="190" x="5" y="163.1426">Customer Manager</text><ellipse cx="103" cy="176.3594" fill="#E3E3E3" rx="8" ry="8" style="stroke:#181818;stroke-width:0.5;"/><path d="M103,184.3594 L103,211.3594 M90,192.3594 L116,192.3594 M103,211.3594 L90,226.3594 M103,211.3594 L116,226.3594 " fill="none" style="stroke:#181818;stroke-width:0.5;"/><rect fill="#E3E3E3" height="37.2813" rx="2.5" ry="2.5" style="stroke:#181818;stroke-width:0.5;" width="192" x="211" y="87.2969"/><text fill="#000000" font-family="sans-serif" font-size="20" lengthAdjust="spacing" textLength="178" x="218" y="112.8613">EditJobOpeningUI</text><rect fill="#E3E3E3" height="37.2813" rx="2.5" ry="2.5" style="stroke:#181818;stroke-width:0.5;" width="192" x="211" y="144.5781"/><text fill="#000000" font-family="sans-serif" font-size="20" lengthAdjust="spacing" textLength="178" x="218" y="170.1426">EditJobOpeningUI</text><rect fill="#E3E3E3" height="37.2813" rx="2.5" ry="2.5" style="stroke:#181818;stroke-width:0.5;" width="270" x="413" y="87.2969"/><text fill="#000000" font-family="sans-serif" font-size="20" lengthAdjust="spacing" textLength="256" x="420" y="112.8613">EditJobOpeningController</text><rect fill="#E3E3E3" height="37.2813" rx="2.5" ry="2.5" style="stroke:#181818;stroke-width:0.5;" width="270" x="413" y="144.5781"/><text fill="#000000" font-family="sans-serif" font-size="20" lengthAdjust="spacing" textLength="256" x="420" y="170.1426">EditJobOpeningController</text><rect fill="#E3E3E3" height="37.2813" rx="2.5" ry="2.5" style="stroke:#181818;stroke-width:0.5;" width="131" x="693" y="87.2969"/><text fill="#000000" font-family="sans-serif" font-size="20" lengthAdjust="spacing" textLength="117" x="700" y="112.8613">JobOpening</text><rect fill="#E3E3E3" height="37.2813" rx="2.5" ry="2.5" style="stroke:#181818;stroke-width:0.5;" width="131" x="693" y="144.5781"/><text fill="#000000" font-family="sans-serif" font-size="20" lengthAdjust="spacing" textLength="117" x="700" y="170.1426">JobOpening</text><rect fill="#E3E3E3" height="37.2813" rx="2.5" ry="2.5" style="stroke:#181818;stroke-width:0.5;" width="237" x="834" y="87.2969"/><text fill="#000000" font-family="sans-serif" font-size="20" lengthAdjust="spacing" textLength="223" x="841" y="112.8613">JobOpeningRepository</text><rect fill="#E3E3E3" height="37.2813" rx="2.5" ry="2.5" style="stroke:#181818;stroke-width:0.5;" width="237" x="834" y="144.5781"/><text fill="#000000" font-family="sans-serif" font-size="20" lengthAdjust="spacing" textLength="223" x="841" y="170.1426">JobOpeningRepository</text><rect fill="#E3E3E3" height="37.2813" rx="2.5" ry="2.5" style="stroke:#181818;stroke-width:0.5;" width="268" x="1081" y="87.2969"/><text fill="#000000" font-family="sans-serif" font-size="20" lengthAdjust="spacing" textLength="254" x="1088" y="112.8613">JpaJobOpeningRepository</text><rect fill="#E3E3E3" height="37.2813" rx="2.5" ry="2.5" style="stroke:#181818;stroke-width:0.5;" width="268" x="1081" y="144.5781"/><text fill="#000000" font-family="sans-serif" font-size="20" lengthAdjust="spacing" textLength="254" x="1088" y="170.1426">JpaJobOpeningRepository</text><rect fill="#E3E3E3" height="37.2813" rx="2.5" ry="2.5" style="stroke:#181818;stroke-width:0.5;" width="304" x="1359" y="87.2969"/><text fill="#000000" font-family="sans-serif" font-size="20" lengthAdjust="spacing" textLength="290" x="1366" y="112.8613">OpenOrClosePhaseController</text><rect fill="#E3E3E3" height="37.2813" rx="2.5" ry="2.5" style="stroke:#181818;stroke-width:0.5;" width="304" x="1359" y="144.5781"/><text fill="#000000" font-family="sans-serif" font-size="20" lengthAdjust="spacing" textLength="290" x="1366" y="170.1426">OpenOrClosePhaseController</text><rect fill="#E3E3E3" height="37.2813" rx="2.5" ry="2.5" style="stroke:#181818;stroke-width:0.5;" width="214" x="1673" y="87.2969"/><text fill="#000000" font-family="sans-serif" font-size="20" lengthAdjust="spacing" textLength="200" x="1680" y="112.8613">RecruitmentProcess</text><rect fill="#E3E3E3" height="37.2813" rx="2.5" ry="2.5" style="stroke:#181818;stroke-width:0.5;" width="214" x="1673" y="144.5781"/><text fill="#000000" font-family="sans-serif" font-size="20" lengthAdjust="spacing" textLength="200" x="1680" y="170.1426">RecruitmentProcess</text><rect fill="#E3E3E3" height="37.2813" rx="2.5" ry="2.5" style="stroke:#181818;stroke-width:0.5;" width="320" x="1897" y="87.2969"/><text fill="#000000" font-family="sans-serif" font-size="20" lengthAdjust="spacing" textLength="306" x="1904" y="112.8613">RecruitmentProcessRepository</text><rect fill="#E3E3E3" height="37.2813" rx="2.5" ry="2.5" style="stroke:#181818;stroke-width:0.5;" width="320" x="1897" y="144.5781"/><text fill="#000000" font-family="sans-serif" font-size="20" lengthAdjust="spacing" textLength="306" x="1904" y="170.1426">RecruitmentProcessRepository</text><rect fill="#E3E3E3" height="37.2813" rx="2.5" ry="2.5" style="stroke:#181818;stroke-width:0.5;" width="351" x="2227" y="87.2969"/><text fill="#000000" font-family="sans-serif" font-size="20" lengthAdjust="spacing" textLength="337" x="2234" y="112.8613">JpaRecruitmentProcessRepository</text><rect fill="#E3E3E3" height="37.2813" rx="2.5" ry="2.5" style="stroke:#181818;stroke-width:0.5;" width="351" x="2227" y="144.5781"/><text fill="#000000" font-family="sans-serif" font-size="20" lengthAdjust="spacing" textLength="337" x="2234" y="170.1426">JpaRecruitmentProcessRepository</text><text fill="#000000" font-family="sans-serif" font-size="20" lengthAdjust="spacing" textLength="94" x="2588" y="120.8613">Database</text><path d="M2620,66.2969 C2620,56.2969 2638,56.2969 2638,56.2969 C2638,56.2969 2656,56.2969 2656,66.2969 L2656,92.2969 C2656,102.2969 2638,102.2969 2638,102.2969 C2638,102.2969 2620,102.2969 2620,92.2969 L2620,66.2969 " fill="#E3E3E3" style="stroke:#181818;stroke-width:1.5;"/><path d="M2620,66.2969 C2620,76.2969 2638,76.2969 2638,76.2969 C2638,76.2969 2656,76.2969 2656,66.2969 " fill="none" style="stroke:#181818;stroke-width:1.5;"/><text fill="#000000" font-family="sans-serif" font-size="20" lengthAdjust="spacing" textLength="94" x="2588" y="163.1426">Database</text><path d="M2620,177.8594 C2620,167.8594 2638,167.8594 2638,167.8594 C2638,167.8594 2656,167.8594 2656,177.8594 L2656,203.8594 C2656,213.8594 2638,213.8594 2638,213.8594 C2638,213.8594 2620,213.8594 2620,203.8594 L2620,177.8594 " fill="#E3E3E3" style="stroke:#181818;stroke-width:1.5;"/><path d="M2620,177.8594 C2620,187.8594 2638,187.8594 2638,187.8594 C2638,187.8594 2656,187.8594 2656,177.8594 " fill="none" style="stroke:#181818;stroke-width:1.5;"/><!--SRC=[XP3HJiCm34NVynLMd-012V49h221D6rQnGUugTT6I-EIE4BZwqchJLixkhuvlkVUs0u7uphqs5hM1wgWeZr6A-_if32_12_FAfmHQDcnRZot1E8ZNIaTwWFMLCZH4dZIWgwsrq1eiE8VushOemsab1X9Q74CGYqKz1t9QOBSODtZ3qMHFy8Jl5L60E6JIzXqv99VAOp2BhOb-LHhOG_PAWP9KtbOeqjZ-0mmd6kL1X2ZJOTE8Ei3KzefxEjZ8AVDUvPLkendQq-Vp8dZY0inc2xFEMn77GUJTZjE31TXOkrmtls_DWxevOrVMGwqRJ3GPCzvUHop8-sZaPQSR3rh2c6mtxQNR9CTxW4tbrXCMs1KXO9bsXAo_5GDjlnLgJy0]--></g></svg>