<?xml version="1.0" encoding="UTF-8" standalone="no"?><svg xmlns="http://www.w3.org/2000/svg" xmlns:xlink="http://www.w3.org/1999/xlink" contentStyleType="text/css" height="837px" preserveAspectRatio="none" style="width:2474px;height:837px;background:#FFFFFF;" version="1.1" viewBox="0 0 2474 837" width="2474px" zoomAndPan="magnify"><defs/><g><text fill="#000000" font-family="sans-serif" font-size="14" font-weight="bold" lengthAdjust="spacing" textLength="187" x="1136.5" y="22.9951">Domain Model - US1003</text><!--cluster <<aggregate>> Job Opening--><g id="cluster_&lt;&lt;aggregate&gt;&gt; Job Opening"><path d="M8.5,44.5137 L296.5,44.5137 A3.75,3.75 0 0 1 299,47.0137 L306,73.7949 L1885.5,73.7949 A2.5,2.5 0 0 1 1888,76.2949 L1888,322.0137 A2.5,2.5 0 0 1 1885.5,324.5137 L8.5,324.5137 A2.5,2.5 0 0 1 6,322.0137 L6,47.0137 A2.5,2.5 0 0 1 8.5,44.5137 " fill="#EBF5FB" style="stroke:#000000;stroke-width:1.5;"/><line style="stroke:#000000;stroke-width:1.5;" x1="6" x2="306" y1="73.7949" y2="73.7949"/><text fill="#000000" font-family="sans-serif" font-size="20" font-weight="bold" lengthAdjust="spacing" textLength="287" x="10" y="65.0781">«aggregate» Job Opening</text></g><!--cluster <<aggregate>> Interview--><g id="cluster_&lt;&lt;aggregate&gt;&gt; Interview"><path d="M2050.5,357.5137 L2309.5,357.5137 A3.75,3.75 0 0 1 2312,360.0137 L2319,386.7949 L2464.5,386.7949 A2.5,2.5 0 0 1 2467,389.2949 L2467,674.5137 A2.5,2.5 0 0 1 2464.5,677.0137 L2050.5,677.0137 A2.5,2.5 0 0 1 2048,674.5137 L2048,360.0137 A2.5,2.5 0 0 1 2050.5,357.5137 " fill="#EBF5FB" style="stroke:#000000;stroke-width:1.5;"/><line style="stroke:#000000;stroke-width:1.5;" x1="2048" x2="2319" y1="386.7949" y2="386.7949"/><text fill="#000000" font-family="sans-serif" font-size="20" font-weight="bold" lengthAdjust="spacing" textLength="258" x="2052" y="378.0781">«aggregate» Interview</text></g><!--cluster <<aggregate>> Plugin--><g id="cluster_&lt;&lt;aggregate&gt;&gt; Plugin"><path d="M1336.5,550.5137 L1559.5,550.5137 A3.75,3.75 0 0 1 1562,553.0137 L1569,579.7949 L2021.5,579.7949 A2.5,2.5 0 0 1 2024,582.2949 L2024,828.0137 A2.5,2.5 0 0 1 2021.5,830.5137 L1336.5,830.5137 A2.5,2.5 0 0 1 1334,828.0137 L1334,553.0137 A2.5,2.5 0 0 1 1336.5,550.5137 " fill="#EBF5FB" style="stroke:#000000;stroke-width:1.5;"/><line style="stroke:#000000;stroke-width:1.5;" x1="1334" x2="1569" y1="579.7949" y2="579.7949"/><text fill="#000000" font-family="sans-serif" font-size="20" font-weight="bold" lengthAdjust="spacing" textLength="222" x="1338" y="571.0781">«aggregate» Plugin</text></g><!--class JobOpening--><g id="elem_JobOpening"><rect codeLine="21" fill="#FDEBD0" height="79.8438" id="JobOpening" rx="2.5" ry="2.5" style="stroke:#181818;stroke-width:0.5;" width="151" x="990.5" y="86.5137"/><ellipse cx="1006.5" cy="126.4355" fill="#ADD1B2" rx="12" ry="12" style="stroke:#181818;stroke-width:1.0;"/><path d="M1011.2188,133.9355 L1002.1406,133.9355 L1002.1406,119.3574 L1011.2188,119.3574 L1011.2188,121.8887 L1005.0156,121.8887 L1005.0156,125.0449 L1010.6406,125.0449 L1010.6406,127.5762 L1005.0156,127.5762 L1005.0156,131.3887 L1011.2188,131.3887 L1011.2188,133.9355 Z " fill="#000000"/><text fill="#000000" font-family="sans-serif" font-size="20" font-style="italic" lengthAdjust="spacing" textLength="83" x="1038.5" y="110.0781">«entity»</text><text fill="#000000" font-family="sans-serif" font-size="20" font-style="italic" lengthAdjust="spacing" textLength="64" x="1048" y="133.3594">«root»</text><text fill="#000000" font-family="sans-serif" font-size="20" lengthAdjust="spacing" textLength="117" x="1021.5" y="156.6406">JobOpening</text></g><!--class JobReference--><g id="elem_JobReference"><rect codeLine="23" fill="#D6EAF8" height="56.5625" id="JobReference" rx="2.5" ry="2.5" style="stroke:#181818;stroke-width:0.5;" width="175" x="22.5" y="251.5137"/><ellipse cx="38.5" cy="279.7949" fill="#FF8B40" rx="12" ry="12" style="stroke:#181818;stroke-width:1.0;"/><path d="M38.5156,285.6387 L41.0781,273.4668 L43.9844,273.4668 L40.5156,288.0449 L36.5313,288.0449 L33.0625,273.4668 L35.9531,273.4668 L38.5156,285.6387 Z " fill="#000000"/><text fill="#000000" font-family="sans-serif" font-size="20" font-style="italic" lengthAdjust="spacing" textLength="145" x="51.5" y="275.0781">«valueObject»</text><text fill="#000000" font-family="sans-serif" font-size="20" lengthAdjust="spacing" textLength="132" x="58" y="298.3594">JobReference</text></g><!--class TitleOrFunction--><g id="elem_TitleOrFunction"><rect codeLine="24" fill="#D6EAF8" height="56.5625" id="TitleOrFunction" rx="2.5" ry="2.5" style="stroke:#181818;stroke-width:0.5;" width="190" x="233" y="251.5137"/><ellipse cx="249" cy="279.7949" fill="#FF8B40" rx="12" ry="12" style="stroke:#181818;stroke-width:1.0;"/><path d="M249.0156,285.6387 L251.5781,273.4668 L254.4844,273.4668 L251.0156,288.0449 L247.0313,288.0449 L243.5625,273.4668 L246.4531,273.4668 L249.0156,285.6387 Z " fill="#000000"/><text fill="#000000" font-family="sans-serif" font-size="20" font-style="italic" lengthAdjust="spacing" textLength="145" x="269.5" y="275.0781">«valueObject»</text><text fill="#000000" font-family="sans-serif" font-size="20" lengthAdjust="spacing" textLength="156" x="264" y="298.3594">TitleOrFunction</text></g><!--class ContractType--><g id="elem_ContractType"><rect codeLine="25" fill="#D6EAF8" height="56.5625" id="ContractType" rx="2.5" ry="2.5" style="stroke:#181818;stroke-width:0.5;" width="175" x="458.5" y="251.5137"/><ellipse cx="474.5" cy="279.7949" fill="#FF8B40" rx="12" ry="12" style="stroke:#181818;stroke-width:1.0;"/><path d="M474.5156,285.6387 L477.0781,273.4668 L479.9844,273.4668 L476.5156,288.0449 L472.5313,288.0449 L469.0625,273.4668 L471.9531,273.4668 L474.5156,285.6387 Z " fill="#000000"/><text fill="#000000" font-family="sans-serif" font-size="20" font-style="italic" lengthAdjust="spacing" textLength="145" x="487.5" y="275.0781">«valueObject»</text><text fill="#000000" font-family="sans-serif" font-size="20" lengthAdjust="spacing" textLength="134" x="493" y="298.3594">ContractType</text></g><!--class Mode--><g id="elem_Mode"><rect codeLine="26" fill="#D6EAF8" height="56.5625" id="Mode" rx="2.5" ry="2.5" style="stroke:#181818;stroke-width:0.5;" width="175" x="668.5" y="251.5137"/><ellipse cx="684.5" cy="279.7949" fill="#FF8B40" rx="12" ry="12" style="stroke:#181818;stroke-width:1.0;"/><path d="M684.5156,285.6387 L687.0781,273.4668 L689.9844,273.4668 L686.5156,288.0449 L682.5313,288.0449 L679.0625,273.4668 L681.9531,273.4668 L684.5156,285.6387 Z " fill="#000000"/><text fill="#000000" font-family="sans-serif" font-size="20" font-style="italic" lengthAdjust="spacing" textLength="145" x="697.5" y="275.0781">«valueObject»</text><text fill="#000000" font-family="sans-serif" font-size="20" lengthAdjust="spacing" textLength="54" x="743" y="298.3594">Mode</text></g><!--class Company--><g id="elem_Company"><rect codeLine="27" fill="#D6EAF8" height="56.5625" id="Company" rx="2.5" ry="2.5" style="stroke:#181818;stroke-width:0.5;" width="175" x="878.5" y="251.5137"/><ellipse cx="894.5" cy="279.7949" fill="#FF8B40" rx="12" ry="12" style="stroke:#181818;stroke-width:1.0;"/><path d="M894.5156,285.6387 L897.0781,273.4668 L899.9844,273.4668 L896.5156,288.0449 L892.5313,288.0449 L889.0625,273.4668 L891.9531,273.4668 L894.5156,285.6387 Z " fill="#000000"/><text fill="#000000" font-family="sans-serif" font-size="20" font-style="italic" lengthAdjust="spacing" textLength="145" x="907.5" y="275.0781">«valueObject»</text><text fill="#000000" font-family="sans-serif" font-size="20" lengthAdjust="spacing" textLength="95" x="932.5" y="298.3594">Company</text></g><!--class NumberOfVacancies--><g id="elem_NumberOfVacancies"><rect codeLine="28" fill="#D6EAF8" height="56.5625" id="NumberOfVacancies" rx="2.5" ry="2.5" style="stroke:#181818;stroke-width:0.5;" width="239" x="1088.5" y="251.5137"/><ellipse cx="1104.5" cy="279.7949" fill="#FF8B40" rx="12" ry="12" style="stroke:#181818;stroke-width:1.0;"/><path d="M1104.5156,285.6387 L1107.0781,273.4668 L1109.9844,273.4668 L1106.5156,288.0449 L1102.5313,288.0449 L1099.0625,273.4668 L1101.9531,273.4668 L1104.5156,285.6387 Z " fill="#000000"/><text fill="#000000" font-family="sans-serif" font-size="20" font-style="italic" lengthAdjust="spacing" textLength="145" x="1149.5" y="275.0781">«valueObject»</text><text fill="#000000" font-family="sans-serif" font-size="20" lengthAdjust="spacing" textLength="205" x="1119.5" y="298.3594">NumberOfVacancies</text></g><!--class JobDescription--><g id="elem_JobDescription"><rect codeLine="29" fill="#D6EAF8" height="56.5625" id="JobDescription" rx="2.5" ry="2.5" style="stroke:#181818;stroke-width:0.5;" width="179" x="1362.5" y="251.5137"/><ellipse cx="1378.5" cy="279.7949" fill="#FF8B40" rx="12" ry="12" style="stroke:#181818;stroke-width:1.0;"/><path d="M1378.5156,285.6387 L1381.0781,273.4668 L1383.9844,273.4668 L1380.5156,288.0449 L1376.5313,288.0449 L1373.0625,273.4668 L1375.9531,273.4668 L1378.5156,285.6387 Z " fill="#000000"/><text fill="#000000" font-family="sans-serif" font-size="20" font-style="italic" lengthAdjust="spacing" textLength="145" x="1393.5" y="275.0781">«valueObject»</text><text fill="#000000" font-family="sans-serif" font-size="20" lengthAdjust="spacing" textLength="145" x="1393.5" y="298.3594">JobDescription</text></g><!--class RequirementSpecification--><g id="elem_RequirementSpecification"><rect codeLine="30" fill="#FEF9E7" height="56.5625" id="RequirementSpecification" rx="2.5" ry="2.5" style="stroke:#181818;stroke-width:0.5;" width="295" x="1576.5" y="251.5137"/><ellipse cx="1592.5" cy="279.7949" fill="#ADD1B2" rx="12" ry="12" style="stroke:#181818;stroke-width:1.0;"/><path d="M1597.2188,287.2949 L1588.1406,287.2949 L1588.1406,272.7168 L1597.2188,272.7168 L1597.2188,275.248 L1591.0156,275.248 L1591.0156,278.4043 L1596.6406,278.4043 L1596.6406,280.9355 L1591.0156,280.9355 L1591.0156,284.748 L1597.2188,284.748 L1597.2188,287.2949 Z " fill="#000000"/><text fill="#000000" font-family="sans-serif" font-size="20" font-style="italic" lengthAdjust="spacing" textLength="83" x="1696.5" y="275.0781">«entity»</text><text fill="#000000" font-family="sans-serif" font-size="20" lengthAdjust="spacing" textLength="261" x="1607.5" y="298.3594">RequirementSpecification</text></g><!--class Interview--><g id="elem_Interview"><rect codeLine="37" fill="#FDEBD0" height="79.8438" id="Interview" rx="2.5" ry="2.5" style="stroke:#181818;stroke-width:0.5;" width="127" x="2088.5" y="399.5137"/><ellipse cx="2104.5" cy="439.4355" fill="#ADD1B2" rx="12" ry="12" style="stroke:#181818;stroke-width:1.0;"/><path d="M2109.2188,446.9355 L2100.1406,446.9355 L2100.1406,432.3574 L2109.2188,432.3574 L2109.2188,434.8887 L2103.0156,434.8887 L2103.0156,438.0449 L2108.6406,438.0449 L2108.6406,440.5762 L2103.0156,440.5762 L2103.0156,444.3887 L2109.2188,444.3887 L2109.2188,446.9355 Z " fill="#000000"/><text fill="#000000" font-family="sans-serif" font-size="20" font-style="italic" lengthAdjust="spacing" textLength="83" x="2124.5" y="423.0781">«entity»</text><text fill="#000000" font-family="sans-serif" font-size="20" font-style="italic" lengthAdjust="spacing" textLength="64" x="2134" y="446.3594">«root»</text><text fill="#000000" font-family="sans-serif" font-size="20" lengthAdjust="spacing" textLength="93" x="2119.5" y="469.6406">Interview</text></g><!--class InterviewDate--><g id="elem_InterviewDate"><rect codeLine="39" fill="#D6EAF8" height="56.5625" id="InterviewDate" rx="2.5" ry="2.5" style="stroke:#181818;stroke-width:0.5;" width="175" x="2064.5" y="604.0137"/><ellipse cx="2080.5" cy="632.2949" fill="#FF8B40" rx="12" ry="12" style="stroke:#181818;stroke-width:1.0;"/><path d="M2080.5156,638.1387 L2083.0781,625.9668 L2085.9844,625.9668 L2082.5156,640.5449 L2078.5313,640.5449 L2075.0625,625.9668 L2077.9531,625.9668 L2080.5156,638.1387 Z " fill="#000000"/><text fill="#000000" font-family="sans-serif" font-size="20" font-style="italic" lengthAdjust="spacing" textLength="145" x="2093.5" y="627.5781">«valueObject»</text><text fill="#000000" font-family="sans-serif" font-size="20" lengthAdjust="spacing" textLength="140" x="2096" y="650.8594">InterviewDate</text></g><!--class InterviewTime--><g id="elem_InterviewTime"><rect codeLine="40" fill="#D6EAF8" height="56.5625" id="InterviewTime" rx="2.5" ry="2.5" style="stroke:#181818;stroke-width:0.5;" width="177" x="2274.5" y="604.0137"/><ellipse cx="2290.5" cy="632.2949" fill="#FF8B40" rx="12" ry="12" style="stroke:#181818;stroke-width:1.0;"/><path d="M2290.5156,638.1387 L2293.0781,625.9668 L2295.9844,625.9668 L2292.5156,640.5449 L2288.5313,640.5449 L2285.0625,625.9668 L2287.9531,625.9668 L2290.5156,638.1387 Z " fill="#000000"/><text fill="#000000" font-family="sans-serif" font-size="20" font-style="italic" lengthAdjust="spacing" textLength="145" x="2304.5" y="627.5781">«valueObject»</text><text fill="#000000" font-family="sans-serif" font-size="20" lengthAdjust="spacing" textLength="143" x="2305.5" y="650.8594">InterviewTime</text></g><!--class Plugin--><g id="elem_Plugin"><rect codeLine="46" fill="#FDEBD0" height="79.8438" id="Plugin" rx="2.5" ry="2.5" style="stroke:#181818;stroke-width:0.5;" width="113" x="1667.5" y="592.5137"/><ellipse cx="1683.5" cy="632.4355" fill="#ADD1B2" rx="12" ry="12" style="stroke:#181818;stroke-width:1.0;"/><path d="M1688.2188,639.9355 L1679.1406,639.9355 L1679.1406,625.3574 L1688.2188,625.3574 L1688.2188,627.8887 L1682.0156,627.8887 L1682.0156,631.0449 L1687.6406,631.0449 L1687.6406,633.5762 L1682.0156,633.5762 L1682.0156,637.3887 L1688.2188,637.3887 L1688.2188,639.9355 Z " fill="#000000"/><text fill="#000000" font-family="sans-serif" font-size="20" font-style="italic" lengthAdjust="spacing" textLength="83" x="1696.5" y="616.0781">«entity»</text><text fill="#000000" font-family="sans-serif" font-size="20" font-style="italic" lengthAdjust="spacing" textLength="64" x="1706" y="639.3594">«root»</text><text fill="#000000" font-family="sans-serif" font-size="20" lengthAdjust="spacing" textLength="63" x="1706.5" y="662.6406">Plugin</text></g><!--class RequirementModel--><g id="elem_RequirementModel"><rect codeLine="47" fill="#FEF9E7" height="56.5625" id="RequirementModel" rx="2.5" ry="2.5" style="stroke:#181818;stroke-width:0.5;" width="225" x="1350.5" y="757.5137"/><ellipse cx="1366.5" cy="785.7949" fill="#ADD1B2" rx="12" ry="12" style="stroke:#181818;stroke-width:1.0;"/><path d="M1371.2188,793.2949 L1362.1406,793.2949 L1362.1406,778.7168 L1371.2188,778.7168 L1371.2188,781.248 L1365.0156,781.248 L1365.0156,784.4043 L1370.6406,784.4043 L1370.6406,786.9355 L1365.0156,786.9355 L1365.0156,790.748 L1371.2188,790.748 L1371.2188,793.2949 Z " fill="#000000"/><text fill="#000000" font-family="sans-serif" font-size="20" font-style="italic" lengthAdjust="spacing" textLength="83" x="1435.5" y="781.0781">«entity»</text><text fill="#000000" font-family="sans-serif" font-size="20" lengthAdjust="spacing" textLength="191" x="1381.5" y="804.3594">RequirementModel</text></g><!--class InterviewModel--><g id="elem_InterviewModel"><rect codeLine="48" fill="#FEF9E7" height="56.5625" id="InterviewModel" rx="2.5" ry="2.5" style="stroke:#181818;stroke-width:0.5;" width="187" x="1610.5" y="757.5137"/><ellipse cx="1626.5" cy="785.7949" fill="#ADD1B2" rx="12" ry="12" style="stroke:#181818;stroke-width:1.0;"/><path d="M1631.2188,793.2949 L1622.1406,793.2949 L1622.1406,778.7168 L1631.2188,778.7168 L1631.2188,781.248 L1625.0156,781.248 L1625.0156,784.4043 L1630.6406,784.4043 L1630.6406,786.9355 L1625.0156,786.9355 L1625.0156,790.748 L1631.2188,790.748 L1631.2188,793.2949 Z " fill="#000000"/><text fill="#000000" font-family="sans-serif" font-size="20" font-style="italic" lengthAdjust="spacing" textLength="83" x="1676.5" y="781.0781">«entity»</text><text fill="#000000" font-family="sans-serif" font-size="20" lengthAdjust="spacing" textLength="153" x="1641.5" y="804.3594">InterviewModel</text></g><!--class Description--><g id="elem_Description"><rect codeLine="50" fill="#D6EAF8" height="56.5625" id="Description" rx="2.5" ry="2.5" style="stroke:#181818;stroke-width:0.5;" width="175" x="1832.5" y="757.5137"/><ellipse cx="1848.5" cy="785.7949" fill="#FF8B40" rx="12" ry="12" style="stroke:#181818;stroke-width:1.0;"/><path d="M1848.5156,791.6387 L1851.0781,779.4668 L1853.9844,779.4668 L1850.5156,794.0449 L1846.5313,794.0449 L1843.0625,779.4668 L1845.9531,779.4668 L1848.5156,791.6387 Z " fill="#000000"/><text fill="#000000" font-family="sans-serif" font-size="20" font-style="italic" lengthAdjust="spacing" textLength="145" x="1861.5" y="781.0781">«valueObject»</text><text fill="#000000" font-family="sans-serif" font-size="20" lengthAdjust="spacing" textLength="114" x="1877" y="804.3594">Description</text></g><!--class Address--><g id="elem_Address"><rect codeLine="33" fill="#D6EAF8" height="56.5625" id="Address" rx="2.5" ry="2.5" style="stroke:#181818;stroke-width:0.5;" width="175" x="1906.5" y="251.5137"/><ellipse cx="1922.5" cy="279.7949" fill="#FF8B40" rx="12" ry="12" style="stroke:#181818;stroke-width:1.0;"/><path d="M1922.5156,285.6387 L1925.0781,273.4668 L1927.9844,273.4668 L1924.5156,288.0449 L1920.5313,288.0449 L1917.0625,273.4668 L1919.9531,273.4668 L1922.5156,285.6387 Z " fill="#000000"/><text fill="#000000" font-family="sans-serif" font-size="20" font-style="italic" lengthAdjust="spacing" textLength="145" x="1935.5" y="275.0781">«valueObject»</text><text fill="#000000" font-family="sans-serif" font-size="20" lengthAdjust="spacing" textLength="80" x="1968" y="298.3594">Address</text></g><!--link JobOpening to JobReference--><g id="link_JobOpening_JobReference"><path codeLine="54" d="M990.24,135.0137 C840.83,150.5837 498.08,190.1537 215,251.5137 C210.9,252.4037 206.71,253.3437 202.49,254.3237 " fill="none" id="JobOpening-to-JobReference" style="stroke:#000000;stroke-width:1.0;"/><polygon fill="#000000" points="197.52,255.4937,207.1957,257.3323,202.3878,254.3517,205.3685,249.5438,197.52,255.4937" style="stroke:#000000;stroke-width:1.0;"/><text fill="#000000" font-family="sans-serif" font-size="20" lengthAdjust="spacing" textLength="35" x="495" y="216.0781">has</text><text fill="#000000" font-family="sans-serif" font-size="20" lengthAdjust="spacing" textLength="13" x="969.3996" y="130.313">1</text><text fill="#000000" font-family="sans-serif" font-size="20" lengthAdjust="spacing" textLength="13" x="205.5998" y="247.9935">1</text></g><!--link JobOpening to TitleOrFunction--><g id="link_JobOpening_TitleOrFunction"><path codeLine="55" d="M990.2,141.2837 C916.11,154.8637 800.17,176.4337 700,196.5137 C584.62,219.6337 555.74,225.3737 441,251.5137 C436.83,252.4637 432.57,253.4437 428.27,254.4437 " fill="none" id="JobOpening-to-TitleOrFunction" style="stroke:#000000;stroke-width:1.0;"/><polygon fill="#000000" points="423.21,255.6337,432.8818,257.493,428.0803,254.5021,431.0712,249.7005,423.21,255.6337" style="stroke:#000000;stroke-width:1.0;"/><text fill="#000000" font-family="sans-serif" font-size="20" lengthAdjust="spacing" textLength="35" x="701" y="216.0781">has</text><text fill="#000000" font-family="sans-serif" font-size="20" lengthAdjust="spacing" textLength="13" x="969.613" y="162.2901">1</text><text fill="#000000" font-family="sans-serif" font-size="20" lengthAdjust="spacing" textLength="13" x="430.9972" y="248.4786">1</text></g><!--link JobOpening to ContractType--><g id="link_JobOpening_ContractType"><path codeLine="56" d="M990.39,149.5437 C897.31,176.6637 739.29,222.7037 638.91,251.9437 " fill="none" id="JobOpening-to-ContractType" style="stroke:#000000;stroke-width:1.0;"/><polygon fill="#000000" points="633.88,253.4137,643.64,254.7337,638.68,252.0137,641.4,247.0537,633.88,253.4137" style="stroke:#000000;stroke-width:1.0;"/><text fill="#000000" font-family="sans-serif" font-size="20" lengthAdjust="spacing" textLength="35" x="823" y="216.0781">has</text><text fill="#000000" font-family="sans-serif" font-size="20" lengthAdjust="spacing" textLength="13" x="969.5639" y="171.4201">1</text><text fill="#000000" font-family="sans-serif" font-size="20" lengthAdjust="spacing" textLength="13" x="641.4009" y="245.9707">1</text></g><!--link JobOpening to Mode--><g id="link_JobOpening_Mode"><path codeLine="57" d="M990.17,164.5737 C937.03,190.5437 866.93,224.8037 817.32,249.0437 " fill="none" id="JobOpening-to-Mode" style="stroke:#000000;stroke-width:1.0;"/><polygon fill="#000000" points="812.58,251.3637,822.4223,251.0043,817.0719,249.1676,818.9086,243.8172,812.58,251.3637" style="stroke:#000000;stroke-width:1.0;"/><text fill="#000000" font-family="sans-serif" font-size="20" lengthAdjust="spacing" textLength="35" x="922" y="216.0781">has</text><text fill="#000000" font-family="sans-serif" font-size="20" lengthAdjust="spacing" textLength="13" x="976.5207" y="192.9383">1</text><text fill="#000000" font-family="sans-serif" font-size="20" lengthAdjust="spacing" textLength="13" x="809.909" y="238.7213">1</text></g><!--link JobOpening to Address--><g id="link_JobOpening_Address"><path codeLine="58" d="M1141.55,136.2337 C1286.91,153.6137 1615.28,195.7237 1888,251.5137 C1892.38,252.4137 1896.84,253.3737 1901.35,254.3837 " fill="none" id="JobOpening-to-Address" style="stroke:#000000;stroke-width:1.0;"/><polygon fill="#000000" points="1906.24,255.4937,1898.3585,249.5876,1901.3659,254.3788,1896.5747,257.3861,1906.24,255.4937" style="stroke:#000000;stroke-width:1.0;"/><text fill="#000000" font-family="sans-serif" font-size="20" lengthAdjust="spacing" textLength="35" x="1710" y="216.0781">has</text><text fill="#000000" font-family="sans-serif" font-size="20" lengthAdjust="spacing" textLength="13" x="1149.6268" y="131.6444">1</text><text fill="#000000" font-family="sans-serif" font-size="20" lengthAdjust="spacing" textLength="13" x="1885.4341" y="248.105">1</text></g><!--link JobOpening to Company--><g id="link_JobOpening_Company"><path codeLine="59" d="M1040.25,166.5337 C1023.79,191.4537 1002.72,223.3837 987.23,246.8537 " fill="none" id="JobOpening-to-Company" style="stroke:#000000;stroke-width:1.0;"/><polygon fill="#000000" points="984.41,251.1337,992.7096,245.8311,987.167,246.9625,986.0356,241.4199,984.41,251.1337" style="stroke:#000000;stroke-width:1.0;"/><text fill="#000000" font-family="sans-serif" font-size="20" lengthAdjust="spacing" textLength="35" x="1020" y="216.0781">has</text><text fill="#000000" font-family="sans-serif" font-size="20" lengthAdjust="spacing" textLength="13" x="1022.3117" y="193.0206">1</text><text fill="#000000" font-family="sans-serif" font-size="20" lengthAdjust="spacing" textLength="13" x="973.7548" y="238.8191">1</text></g><!--link JobOpening to NumberOfVacancies--><g id="link_JobOpening_NumberOfVacancies"><path codeLine="60" d="M1102.57,166.5337 C1126.13,191.6637 1156.35,223.9137 1178.4,247.4337 " fill="none" id="JobOpening-to-NumberOfVacancies" style="stroke:#000000;stroke-width:1.0;"/><polygon fill="#000000" points="1181.86,251.1337,1178.6239,241.8317,1178.4408,247.4855,1172.7869,247.3024,1181.86,251.1337" style="stroke:#000000;stroke-width:1.0;"/><text fill="#000000" font-family="sans-serif" font-size="20" lengthAdjust="spacing" textLength="35" x="1155" y="216.0781">has</text><text fill="#000000" font-family="sans-serif" font-size="20" lengthAdjust="spacing" textLength="13" x="1094.1745" y="193.0206">1</text><text fill="#000000" font-family="sans-serif" font-size="20" lengthAdjust="spacing" textLength="13" x="1162.434" y="238.8191">1</text></g><!--link JobOpening to JobDescription--><g id="link_JobOpening_JobDescription"><path codeLine="61" d="M1141.8,157.2637 C1209.88,183.9837 1309.26,222.9937 1377.07,249.6037 " fill="none" id="JobOpening-to-JobDescription" style="stroke:#000000;stroke-width:1.0;"/><polygon fill="#000000" points="1381.9,251.4937,1374.9845,244.4811,1377.2459,249.6663,1372.0607,251.9277,1381.9,251.4937" style="stroke:#000000;stroke-width:1.0;"/><text fill="#000000" font-family="sans-serif" font-size="20" lengthAdjust="spacing" textLength="35" x="1306" y="216.0781">has</text><text fill="#000000" font-family="sans-serif" font-size="20" lengthAdjust="spacing" textLength="13" x="1149.387" y="179.7432">1</text><text fill="#000000" font-family="sans-serif" font-size="20" lengthAdjust="spacing" textLength="13" x="1353.1013" y="238.8781">1</text></g><!--link JobOpening to RequirementSpecification--><g id="link_JobOpening_RequirementSpecification"><path codeLine="62" d="M1141.8,144.9637 C1253.66,170.7237 1464.2,219.1937 1599.09,250.2537 " fill="none" id="JobOpening-to-RequirementSpecification" style="stroke:#000000;stroke-width:1.0;"/><polygon fill="#000000" points="1604.26,251.4437,1596.3785,245.5376,1599.3859,250.3288,1594.5947,253.3361,1604.26,251.4437" style="stroke:#000000;stroke-width:1.0;"/><text fill="#000000" font-family="sans-serif" font-size="20" lengthAdjust="spacing" textLength="35" x="1474" y="216.0781">has</text><text fill="#000000" font-family="sans-serif" font-size="20" lengthAdjust="spacing" textLength="13" x="1149.387" y="166.3093">1</text><text fill="#000000" font-family="sans-serif" font-size="20" lengthAdjust="spacing" textLength="13" x="1565.223" y="238.8178">1</text></g><!--link JobOpening to Interview--><g id="link_JobOpening_Interview"><path codeLine="63" d="M1141.51,131.6537 C1367.53,144.7237 2027.51,188.0037 2099,251.5137 C2139.24,287.2637 2149.91,351.0637 2152.24,394.0837 " fill="none" id="JobOpening-to-Interview" style="stroke:#000000;stroke-width:1.0;"/><polygon fill="#000000" points="2152.48,399.2237,2156.0374,390.0397,2152.2367,394.2296,2148.0469,390.4289,2152.48,399.2237" style="stroke:#000000;stroke-width:1.0;"/><text fill="#000000" font-family="sans-serif" font-size="20" lengthAdjust="spacing" textLength="90" x="2144" y="287.0781">can have</text><text fill="#000000" font-family="sans-serif" font-size="20" lengthAdjust="spacing" textLength="13" x="1149.5829" y="126.6136">1</text><text fill="#000000" font-family="sans-serif" font-size="20" lengthAdjust="spacing" textLength="13" x="2138.5582" y="386.8913">1</text></g><!--link Plugin to Description--><g id="link_Plugin_Description"><path codeLine="66" d="M1774.47,672.5337 C1807.37,697.9537 1849.68,730.6637 1880.19,754.2437 " fill="none" id="Plugin-to-Description" style="stroke:#000000;stroke-width:1.0;"/><polygon fill="#000000" points="1884.23,757.3637,1879.5533,748.696,1880.2733,754.3068,1874.6624,755.0268,1884.23,757.3637" style="stroke:#000000;stroke-width:1.0;"/><text fill="#000000" font-family="sans-serif" font-size="20" lengthAdjust="spacing" textLength="35" x="1846" y="722.0781">has</text><text fill="#000000" font-family="sans-serif" font-size="20" lengthAdjust="spacing" textLength="13" x="1768.2029" y="699.0206">1</text><text fill="#000000" font-family="sans-serif" font-size="20" lengthAdjust="spacing" textLength="13" x="1862.5118" y="744.7213">1</text></g><!--link Plugin to InterviewModel--><g id="link_Plugin_InterviewModel"><path codeLine="67" d="M1718.85,672.5337 C1715.95,694.4537 1712.35,721.8037 1709.41,744.0337 " fill="none" id="Plugin-to-InterviewModel" style="stroke:#000000;stroke-width:1.0;"/><polygon fill="#000000" points="1707.68,757.1337,1712.4304,751.7084,1709.2495,745.2368,1704.4991,750.662,1707.68,757.1337" style="stroke:#000000;stroke-width:1.0;"/></g><!--link Plugin to RequirementModel--><g id="link_Plugin_RequirementModel"><path codeLine="68" d="M1667.37,666.3837 C1624.43,691.3137 1565.58,725.4737 1522.05,750.7337 " fill="none" id="Plugin-to-RequirementModel" style="stroke:#000000;stroke-width:1.0;"/><polygon fill="#000000" points="1510.78,757.2837,1517.9769,757.7366,1521.163,751.2676,1513.9661,750.8146,1510.78,757.2837" style="stroke:#000000;stroke-width:1.0;"/></g><!--link Interview to InterviewDate--><g id="link_Interview_InterviewDate"><path codeLine="71" d="M2152,479.6237 C2152,514.7437 2152,565.7137 2152,598.7437 " fill="none" id="Interview-to-InterviewDate" style="stroke:#000000;stroke-width:1.0;"/><polygon fill="#000000" points="2152,603.8837,2156,594.8837,2152,598.8837,2148,594.8837,2152,603.8837" style="stroke:#000000;stroke-width:1.0;"/><text fill="#000000" font-family="sans-serif" font-size="20" lengthAdjust="spacing" textLength="35" x="2153" y="529.0781">has</text><text fill="#000000" font-family="sans-serif" font-size="20" lengthAdjust="spacing" textLength="13" x="2138.0453" y="505.8005">1</text><text fill="#000000" font-family="sans-serif" font-size="20" lengthAdjust="spacing" textLength="13" x="2137.6594" y="591.2454">1</text></g><!--link Interview to InterviewTime--><g id="link_Interview_InterviewTime"><path codeLine="72" d="M2195.21,479.6237 C2234.64,515.3237 2292.17,567.3937 2328.58,600.3537 " fill="none" id="Interview-to-InterviewTime" style="stroke:#000000;stroke-width:1.0;"/><polygon fill="#000000" points="2332.47,603.8837,2328.4926,594.8737,2328.7671,600.5239,2323.1169,600.7984,2332.47,603.8837" style="stroke:#000000;stroke-width:1.0;"/><text fill="#000000" font-family="sans-serif" font-size="20" lengthAdjust="spacing" textLength="35" x="2252" y="529.0781">has</text><text fill="#000000" font-family="sans-serif" font-size="20" lengthAdjust="spacing" textLength="13" x="2187.6018" y="505.8005">1</text><text fill="#000000" font-family="sans-serif" font-size="20" lengthAdjust="spacing" textLength="13" x="2311.8326" y="591.2454">1</text></g><!--link Interview to Plugin--><g id="link_Interview_Plugin"><path codeLine="73" d="M2088.39,468.9037 C2006.76,505.3237 1866.12,568.0937 1785.52,604.0637 " fill="none" id="Interview-to-Plugin" style="stroke:#000000;stroke-width:1.0;"/><polygon fill="#000000" points="1780.77,606.1737,1790.6189,606.1679,1785.3379,604.1403,1787.3655,598.8593,1780.77,606.1737" style="stroke:#000000;stroke-width:1.0;"/><text fill="#000000" font-family="sans-serif" font-size="20" lengthAdjust="spacing" textLength="45" x="1989" y="529.0781">uses</text><text fill="#000000" font-family="sans-serif" font-size="20" lengthAdjust="spacing" textLength="13" x="2067.2835" y="466.5619">1</text><text fill="#000000" font-family="sans-serif" font-size="20" lengthAdjust="spacing" textLength="13" x="1788.481" y="597.153">1</text></g><!--link RequirementSpecification to Plugin--><g id="link_RequirementSpecification_Plugin"><path codeLine="76" d="M1724,308.5137 C1724,368.9537 1724,513.7937 1724,587.2237 " fill="none" id="RequirementSpecification-to-Plugin" style="stroke:#000000;stroke-width:1.0;"/><polygon fill="#000000" points="1724,592.3837,1728,583.3837,1724,587.3837,1720,583.3837,1724,592.3837" style="stroke:#000000;stroke-width:1.0;"/><text fill="#000000" font-family="sans-serif" font-size="20" lengthAdjust="spacing" textLength="45" x="1725" y="446.5781">uses</text><text fill="#000000" font-family="sans-serif" font-size="20" lengthAdjust="spacing" textLength="13" x="1709.8016" y="334.5194">1</text><text fill="#000000" font-family="sans-serif" font-size="20" lengthAdjust="spacing" textLength="13" x="1709.9641" y="579.7545">1</text></g><!--SRC=[bLJRZjem47ttLrZimxPLaM1xsw88YMmIgLLRgeNkkt66u9BOgUs0wAh_NkS6IGXXanV4-9ovdXcrPJmcaaIXe5lmiGzhaeJQ4rmls5_0ToE4DDCXO4T4X77yNVWGuY7-jHYFHkyGsZ0VC4InFk08eXL8XMvLwHH_Onpq8GOifDu8X4ulD2HAuMU4pMSJkWsaIBZ_848XBMj7mWJcgzz0zNIARvoFxioxRuTA8JACvxYsCsh7A90xHY5pDVRkNBiDPboutcVtK_OsarBiSxCT6XpwLyqzDXOIG7ls-CQrlG-UdL9kyLUnmlCOEEC1dWM1X81eGAM3WMMHqcYogu07XNFWflk7zANqObcvpU2FrJ-RM2awRwe1Fy8Q970AkDbCothrzDRKwjtRxqUlS-w9kan7FPTUmgbcWlTaFnZLI4BrCfruFseggzxHefZmGq_MZoGLwNpzH2ZXb87goJVDTK1HoU9U3Ihc-0X_4YOXCdyNCL2sPfGKVevJDGmppZpQpFSbg9VbQDJsXUjKwh2_hhKZjA6qaulhGZjY7UEpPn-Ft2MBNiOreKs9FyCaC6VeQdqvhb5SGRvGMVkSyeDNdqzRloxXqgzITr_nd5qH2M4c6RLXiKALmp0O3_1mECr-QoTWWZVa8hAvyPtWse9t8hDzxaIKqhuICD_nJj3vIdV26nlSYRsqh-qaN-nvoJpjqGIRj0n-1nNzrgTO6AkHprCiG7cKDmtXDL-R0gvVXthqaxsQG7svynIk8BDLxa8MIKvmea2bALNInFM3M4_nujqyzruu_my0]--></g></svg>