<?xml version="1.0" encoding="UTF-8" standalone="no"?><svg xmlns="http://www.w3.org/2000/svg" xmlns:xlink="http://www.w3.org/1999/xlink" contentStyleType="text/css" height="869px" preserveAspectRatio="none" style="width:1028px;height:869px;background:#FFFFFF;" version="1.1" viewBox="0 0 1028 869" width="1028px" zoomAndPan="magnify"><defs/><g><text fill="#000000" font-family="sans-serif" font-size="14" font-weight="bold" lengthAdjust="spacing" textLength="661" x="185.25" y="27.9951">System Sequence Diagram (SSD) - List of candidates, using the job interview points</text><rect fill="#FFFFFF" height="636.625" style="stroke:#181818;stroke-width:1.0;" width="10" x="133" y="135.5781"/><rect fill="#FFFFFF" height="37.2813" style="stroke:#181818;stroke-width:1.0;" width="10" x="940" y="164.8594"/><rect fill="#FFFFFF" height="37.2813" style="stroke:#181818;stroke-width:1.0;" width="10" x="940" y="528.2344"/><rect fill="#FFFFFF" height="113.8438" style="stroke:#181818;stroke-width:1.0;" width="10" x="940" y="643.3594"/><rect fill="none" height="340.375" style="stroke:#000000;stroke-width:1.5;" width="1012.5" x="10" y="424.8281"/><rect fill="none" height="255.5313" style="stroke:#000000;stroke-width:1.5;" width="992.5" x="20" y="465.3906"/><rect fill="none" height="133.4063" style="stroke:#000000;stroke-width:1.5;" width="972.5" x="30" y="580.5156"/><line style="stroke:#181818;stroke-width:0.5;stroke-dasharray:5.0,5.0;" x1="138" x2="138" y1="125.5781" y2="782.2031"/><line style="stroke:#181818;stroke-width:0.5;stroke-dasharray:5.0,5.0;" x1="944.5" x2="944.5" y1="125.5781" y2="782.2031"/><text fill="#000000" font-family="sans-serif" font-size="20" lengthAdjust="spacing" textLength="190" x="40" y="120.8613">Customer Manager</text><ellipse cx="138" cy="50.7969" fill="#E3E3E3" rx="8" ry="8" style="stroke:#181818;stroke-width:0.5;"/><path d="M138,58.7969 L138,85.7969 M125,66.7969 L151,66.7969 M138,85.7969 L125,100.7969 M138,85.7969 L151,100.7969 " fill="none" style="stroke:#181818;stroke-width:0.5;"/><text fill="#000000" font-family="sans-serif" font-size="20" lengthAdjust="spacing" textLength="190" x="40" y="799.7676">Customer Manager</text><ellipse cx="138" cy="812.9844" fill="#E3E3E3" rx="8" ry="8" style="stroke:#181818;stroke-width:0.5;"/><path d="M138,820.9844 L138,847.9844 M125,828.9844 L151,828.9844 M138,847.9844 L125,862.9844 M138,847.9844 L151,862.9844 " fill="none" style="stroke:#181818;stroke-width:0.5;"/><rect fill="#E3E3E3" height="37.2813" rx="2.5" ry="2.5" style="stroke:#181818;stroke-width:0.5;" width="95" x="897.5" y="87.2969"/><text fill="#000000" font-family="sans-serif" font-size="20" lengthAdjust="spacing" textLength="81" x="904.5" y="112.8613">:System</text><rect fill="#E3E3E3" height="37.2813" rx="2.5" ry="2.5" style="stroke:#181818;stroke-width:0.5;" width="95" x="897.5" y="781.2031"/><text fill="#000000" font-family="sans-serif" font-size="20" lengthAdjust="spacing" textLength="81" x="904.5" y="806.7676">:System</text><rect fill="#FFFFFF" height="636.625" style="stroke:#181818;stroke-width:1.0;" width="10" x="133" y="135.5781"/><rect fill="#FFFFFF" height="37.2813" style="stroke:#181818;stroke-width:1.0;" width="10" x="940" y="164.8594"/><rect fill="#FFFFFF" height="37.2813" style="stroke:#181818;stroke-width:1.0;" width="10" x="940" y="528.2344"/><rect fill="#FFFFFF" height="113.8438" style="stroke:#181818;stroke-width:1.0;" width="10" x="940" y="643.3594"/><polygon fill="#181818" points="928,160.8594,938,164.8594,928,168.8594,932,164.8594" style="stroke:#181818;stroke-width:1.0;"/><line style="stroke:#181818;stroke-width:1.0;" x1="143" x2="934" y1="164.8594" y2="164.8594"/><text fill="#000000" font-family="sans-serif" font-size="20" font-weight="bold" lengthAdjust="spacing" textLength="14" x="150" y="158.1426">1</text><text fill="#000000" font-family="sans-serif" font-size="20" lengthAdjust="spacing" textLength="471" x="168" y="158.1426">Asks for a list of candidates by interview points</text><polygon fill="#181818" points="154,198.1406,144,202.1406,154,206.1406,150,202.1406" style="stroke:#181818;stroke-width:1.0;"/><line style="stroke:#181818;stroke-width:1.0;stroke-dasharray:2.0,2.0;" x1="148" x2="944" y1="202.1406" y2="202.1406"/><text fill="#000000" font-family="sans-serif" font-size="20" font-weight="bold" lengthAdjust="spacing" textLength="14" x="160" y="195.4238">2</text><text fill="#000000" font-family="sans-serif" font-size="20" lengthAdjust="spacing" textLength="283" x="178" y="195.4238">Displays list of Job Openings</text><path d="M148,215.1406 L148,271.1406 L800,271.1406 L800,225.1406 L790,215.1406 L148,215.1406 " fill="#FAFAFA" style="stroke:#181818;stroke-width:0.5;"/><path d="M790,215.1406 L790,225.1406 L800,225.1406 L790,215.1406 " fill="#FAFAFA" style="stroke:#181818;stroke-width:0.5;"/><text fill="#000000" font-family="sans-serif" font-size="20" lengthAdjust="spacing" textLength="631" x="154" y="238.7051">The list of Job Openings contains the onesthat have candidates</text><text fill="#000000" font-family="sans-serif" font-size="20" lengthAdjust="spacing" textLength="391" x="154" y="261.9863">with interview points assigned to them</text><polygon fill="#181818" points="933,301.9844,943,305.9844,933,309.9844,937,305.9844" style="stroke:#181818;stroke-width:1.0;"/><line style="stroke:#181818;stroke-width:1.0;" x1="143" x2="939" y1="305.9844" y2="305.9844"/><text fill="#000000" font-family="sans-serif" font-size="20" font-weight="bold" lengthAdjust="spacing" textLength="14" x="150" y="299.2676">3</text><text fill="#000000" font-family="sans-serif" font-size="20" lengthAdjust="spacing" textLength="219" x="168" y="299.2676">Selects a Job Opening</text><polygon fill="#181818" points="154,339.2656,144,343.2656,154,347.2656,150,343.2656" style="stroke:#181818;stroke-width:1.0;"/><line style="stroke:#181818;stroke-width:1.0;stroke-dasharray:2.0,2.0;" x1="148" x2="944" y1="343.2656" y2="343.2656"/><text fill="#000000" font-family="sans-serif" font-size="20" font-weight="bold" lengthAdjust="spacing" textLength="14" x="160" y="336.5488">4</text><text fill="#000000" font-family="sans-serif" font-size="20" lengthAdjust="spacing" textLength="760" x="178" y="336.5488">Displays list of candidates for that Job Opening and provides sorting options</text><path d="M148,356.2656 L148,412.2656 L734,412.2656 L734,366.2656 L724,356.2656 L148,356.2656 " fill="#FAFAFA" style="stroke:#181818;stroke-width:0.5;"/><path d="M724,356.2656 L724,366.2656 L734,366.2656 L724,356.2656 " fill="#FAFAFA" style="stroke:#181818;stroke-width:0.5;"/><text fill="#000000" font-family="sans-serif" font-size="20" lengthAdjust="spacing" textLength="565" x="154" y="379.8301">The list of candidates is ordered by points in descending</text><text fill="#000000" font-family="sans-serif" font-size="20" lengthAdjust="spacing" textLength="160" x="154" y="403.1113">order by default</text><path d="M10,424.8281 L104,424.8281 L104,440.1094 L94,450.1094 L10,450.1094 L10,424.8281 " fill="#EEEEEE" style="stroke:#000000;stroke-width:1.5;"/><rect fill="none" height="340.375" style="stroke:#000000;stroke-width:1.5;" width="1012.5" x="10" y="424.8281"/><text fill="#000000" font-family="sans-serif" font-size="20" font-weight="bold" lengthAdjust="spacing" textLength="49" x="25" y="444.3926">loop</text><text fill="#000000" font-family="sans-serif" font-size="20" font-weight="bold" lengthAdjust="spacing" textLength="470" x="119" y="445.3926">[until Customer Manager decides to exit]</text><path d="M20,465.3906 L103,465.3906 L103,480.6719 L93,490.6719 L20,490.6719 L20,465.3906 " fill="#EEEEEE" style="stroke:#000000;stroke-width:1.5;"/><rect fill="none" height="255.5313" style="stroke:#000000;stroke-width:1.5;" width="992.5" x="20" y="465.3906"/><text fill="#000000" font-family="sans-serif" font-size="20" font-weight="bold" lengthAdjust="spacing" textLength="38" x="35" y="484.9551">opt</text><text fill="#000000" font-family="sans-serif" font-size="20" font-weight="bold" lengthAdjust="spacing" textLength="119" x="118" y="485.9551">[sorts list]</text><polygon fill="#181818" points="928,524.2344,938,528.2344,928,532.2344,932,528.2344" style="stroke:#181818;stroke-width:1.0;"/><line style="stroke:#181818;stroke-width:1.0;" x1="143" x2="934" y1="528.2344" y2="528.2344"/><text fill="#000000" font-family="sans-serif" font-size="20" font-weight="bold" lengthAdjust="spacing" textLength="14" x="150" y="521.5176">5</text><text fill="#000000" font-family="sans-serif" font-size="20" lengthAdjust="spacing" textLength="332" x="168" y="521.5176">Asks to sort the list of candidates</text><polygon fill="#181818" points="154,561.5156,144,565.5156,154,569.5156,150,565.5156" style="stroke:#181818;stroke-width:1.0;"/><line style="stroke:#181818;stroke-width:1.0;stroke-dasharray:2.0,2.0;" x1="148" x2="944" y1="565.5156" y2="565.5156"/><text fill="#000000" font-family="sans-serif" font-size="20" font-weight="bold" lengthAdjust="spacing" textLength="14" x="160" y="558.7988">6</text><text fill="#000000" font-family="sans-serif" font-size="20" lengthAdjust="spacing" textLength="240" x="178" y="558.7988">Provides sorting options</text><path d="M30,580.5156 L106,580.5156 L106,595.7969 L96,605.7969 L30,605.7969 L30,580.5156 " fill="#EEEEEE" style="stroke:#000000;stroke-width:1.5;"/><rect fill="none" height="133.4063" style="stroke:#000000;stroke-width:1.5;" width="972.5" x="30" y="580.5156"/><text fill="#000000" font-family="sans-serif" font-size="20" font-weight="bold" lengthAdjust="spacing" textLength="31" x="45" y="600.0801">alt</text><text fill="#000000" font-family="sans-serif" font-size="20" font-weight="bold" lengthAdjust="spacing" textLength="236" x="121" y="601.0801">[by ascending order]</text><polygon fill="#181818" points="928,639.3594,938,643.3594,928,647.3594,932,643.3594" style="stroke:#181818;stroke-width:1.0;"/><line style="stroke:#181818;stroke-width:1.0;" x1="143" x2="934" y1="643.3594" y2="643.3594"/><text fill="#000000" font-family="sans-serif" font-size="20" font-weight="bold" lengthAdjust="spacing" textLength="14" x="150" y="636.6426">7</text><text fill="#000000" font-family="sans-serif" font-size="20" lengthAdjust="spacing" textLength="350" x="168" y="636.6426">Asks to sort list by ascending order</text><line style="stroke:#000000;stroke-width:1.0;stroke-dasharray:2.0,2.0;" x1="30" x2="1002.5" y1="652.3594" y2="652.3594"/><text fill="#000000" font-family="sans-serif" font-size="20" font-weight="bold" lengthAdjust="spacing" textLength="250" x="35" y="670.9238">[by descending order]</text><polygon fill="#181818" points="928,701.9219,938,705.9219,928,709.9219,932,705.9219" style="stroke:#181818;stroke-width:1.0;"/><line style="stroke:#181818;stroke-width:1.0;" x1="143" x2="934" y1="705.9219" y2="705.9219"/><text fill="#000000" font-family="sans-serif" font-size="20" font-weight="bold" lengthAdjust="spacing" textLength="14" x="150" y="699.2051">8</text><text fill="#000000" font-family="sans-serif" font-size="20" lengthAdjust="spacing" textLength="363" x="168" y="699.2051">Asks to sort list by descending order</text><polygon fill="#181818" points="154,753.2031,144,757.2031,154,761.2031,150,757.2031" style="stroke:#181818;stroke-width:1.0;"/><line style="stroke:#181818;stroke-width:1.0;stroke-dasharray:2.0,2.0;" x1="148" x2="944" y1="757.2031" y2="757.2031"/><text fill="#000000" font-family="sans-serif" font-size="20" font-weight="bold" lengthAdjust="spacing" textLength="14" x="160" y="750.4863">9</text><text fill="#000000" font-family="sans-serif" font-size="20" lengthAdjust="spacing" textLength="620" x="178" y="750.4863">Displays sorted list of candidates and provides sorting options</text><!--SRC=[hLJ1ZjD03BtFLrWzWKIb5SSUa10h3eWLIE6ub-d4JKoddZ1sMihNuwHD5INTxguWbquzzlFpyqjaIzpux7SnXIsMKEB6jr4_9zQ2_Y2yltDEXXpO9KwXpcc7eBd5qKtZmzPNMEWn8cGCwhcAumIfVPaEn1LiV1HqJaajjJYAuWuA_DKY1uHxybMN_gOexj_24hwIAAGD1CybbLvHta4h7OpM23_J6eWLyvxm04soipZdMqtSxjQOxHmqPLXyQaMDTOO7pqOpBy0B3C5pp1bHfK2DPuN5wiIiJpmTUp3Q6uTPfPi4OFbXc6m57sKhi34M7k9i6bWVvnDS-WoDprXBWvrsMfbaqaH_b0lw5rFbMuDiAeahSOR6oVvagke-UmAuWXycx3Ke26OAJoozz8bHjFOAjT_ZQA17Ff3MivbCHg6ApM6QkdgZSLEq0gEPoCh655uhn4ZcJl-UxWWEx1gQdFPKMeOasxu5KwEK-5-56xKcWPHBp3QxBVii1x6zQXBGihXwv3wXkpw_Vyx5b1feMId2rBoM57hA9YN-9dLWZz7kHpXDtuUwvrbZ6aPNrkzqJlw2CzDYkBYvaUzFYJjKNn7vqZ5g9uWVH3g9UBb-rN3zOC-0JOaCSRIlrMap_vF9asWMTEFVbpc-mpP_NN7VJOzVNq7NUcp_wTVkBm00]--></g></svg>