<?xml version="1.0" encoding="UTF-8" standalone="no"?><svg xmlns="http://www.w3.org/2000/svg" xmlns:xlink="http://www.w3.org/1999/xlink" contentStyleType="text/css" height="728px" preserveAspectRatio="none" style="width:893px;height:728px;background:#FFFFFF;" version="1.1" viewBox="0 0 893 728" width="893px" zoomAndPan="magnify"><defs/><g><text fill="#000000" font-family="sans-serif" font-size="14" font-weight="bold" lengthAdjust="spacing" textLength="661" x="117.75" y="27.9951">System Sequence Diagram (SSD) - List of candidates, using the job interview points</text><rect fill="#FFFFFF" height="495.5" style="stroke:#181818;stroke-width:1.0;" width="10" x="133" y="135.5781"/><rect fill="#FFFFFF" height="37.2813" style="stroke:#181818;stroke-width:1.0;" width="10" x="805" y="164.8594"/><rect fill="#FFFFFF" height="37.2813" style="stroke:#181818;stroke-width:1.0;" width="10" x="805" y="387.1094"/><rect fill="#FFFFFF" height="113.8438" style="stroke:#181818;stroke-width:1.0;" width="10" x="805" y="502.2344"/><rect fill="none" height="340.375" style="stroke:#000000;stroke-width:1.5;" width="877.5" x="10" y="283.7031"/><rect fill="none" height="255.5313" style="stroke:#000000;stroke-width:1.5;" width="857.5" x="20" y="324.2656"/><rect fill="none" height="133.4063" style="stroke:#000000;stroke-width:1.5;" width="837.5" x="30" y="439.3906"/><line style="stroke:#181818;stroke-width:0.5;stroke-dasharray:5.0,5.0;" x1="138" x2="138" y1="125.5781" y2="641.0781"/><line style="stroke:#181818;stroke-width:0.5;stroke-dasharray:5.0,5.0;" x1="809.5" x2="809.5" y1="125.5781" y2="641.0781"/><text fill="#000000" font-family="sans-serif" font-size="20" lengthAdjust="spacing" textLength="190" x="40" y="120.8613">Customer Manager</text><ellipse cx="138" cy="50.7969" fill="#E3E3E3" rx="8" ry="8" style="stroke:#181818;stroke-width:0.5;"/><path d="M138,58.7969 L138,85.7969 M125,66.7969 L151,66.7969 M138,85.7969 L125,100.7969 M138,85.7969 L151,100.7969 " fill="none" style="stroke:#181818;stroke-width:0.5;"/><text fill="#000000" font-family="sans-serif" font-size="20" lengthAdjust="spacing" textLength="190" x="40" y="658.6426">Customer Manager</text><ellipse cx="138" cy="671.8594" fill="#E3E3E3" rx="8" ry="8" style="stroke:#181818;stroke-width:0.5;"/><path d="M138,679.8594 L138,706.8594 M125,687.8594 L151,687.8594 M138,706.8594 L125,721.8594 M138,706.8594 L151,721.8594 " fill="none" style="stroke:#181818;stroke-width:0.5;"/><rect fill="#E3E3E3" height="37.2813" rx="2.5" ry="2.5" style="stroke:#181818;stroke-width:0.5;" width="95" x="762.5" y="87.2969"/><text fill="#000000" font-family="sans-serif" font-size="20" lengthAdjust="spacing" textLength="81" x="769.5" y="112.8613">:System</text><rect fill="#E3E3E3" height="37.2813" rx="2.5" ry="2.5" style="stroke:#181818;stroke-width:0.5;" width="95" x="762.5" y="640.0781"/><text fill="#000000" font-family="sans-serif" font-size="20" lengthAdjust="spacing" textLength="81" x="769.5" y="665.6426">:System</text><rect fill="#FFFFFF" height="495.5" style="stroke:#181818;stroke-width:1.0;" width="10" x="133" y="135.5781"/><rect fill="#FFFFFF" height="37.2813" style="stroke:#181818;stroke-width:1.0;" width="10" x="805" y="164.8594"/><rect fill="#FFFFFF" height="37.2813" style="stroke:#181818;stroke-width:1.0;" width="10" x="805" y="387.1094"/><rect fill="#FFFFFF" height="113.8438" style="stroke:#181818;stroke-width:1.0;" width="10" x="805" y="502.2344"/><polygon fill="#181818" points="793,160.8594,803,164.8594,793,168.8594,797,164.8594" style="stroke:#181818;stroke-width:1.0;"/><line style="stroke:#181818;stroke-width:1.0;" x1="143" x2="799" y1="164.8594" y2="164.8594"/><text fill="#000000" font-family="sans-serif" font-size="20" font-weight="bold" lengthAdjust="spacing" textLength="14" x="150" y="158.1426">1</text><text fill="#000000" font-family="sans-serif" font-size="20" lengthAdjust="spacing" textLength="508" x="168" y="158.1426">Asks for a list of candidates by job interview points</text><polygon fill="#181818" points="154,198.1406,144,202.1406,154,206.1406,150,202.1406" style="stroke:#181818;stroke-width:1.0;"/><line style="stroke:#181818;stroke-width:1.0;stroke-dasharray:2.0,2.0;" x1="148" x2="809" y1="202.1406" y2="202.1406"/><text fill="#000000" font-family="sans-serif" font-size="20" font-weight="bold" lengthAdjust="spacing" textLength="14" x="160" y="195.4238">2</text><text fill="#000000" font-family="sans-serif" font-size="20" lengthAdjust="spacing" textLength="551" x="178" y="195.4238">Displays list of candidates and provides sorting options</text><path d="M148,215.1406 L148,271.1406 L721,271.1406 L721,225.1406 L711,215.1406 L148,215.1406 " fill="#FAFAFA" style="stroke:#181818;stroke-width:0.5;"/><path d="M711,215.1406 L711,225.1406 L721,225.1406 L711,215.1406 " fill="#FAFAFA" style="stroke:#181818;stroke-width:0.5;"/><text fill="#000000" font-family="sans-serif" font-size="20" lengthAdjust="spacing" textLength="552" x="154" y="238.7051">The list of candidates is ordered by points in ascending</text><text fill="#000000" font-family="sans-serif" font-size="20" lengthAdjust="spacing" textLength="160" x="154" y="261.9863">order by default</text><path d="M10,283.7031 L104,283.7031 L104,298.9844 L94,308.9844 L10,308.9844 L10,283.7031 " fill="#EEEEEE" style="stroke:#000000;stroke-width:1.5;"/><rect fill="none" height="340.375" style="stroke:#000000;stroke-width:1.5;" width="877.5" x="10" y="283.7031"/><text fill="#000000" font-family="sans-serif" font-size="20" font-weight="bold" lengthAdjust="spacing" textLength="49" x="25" y="303.2676">loop</text><text fill="#000000" font-family="sans-serif" font-size="20" font-weight="bold" lengthAdjust="spacing" textLength="470" x="119" y="304.2676">[until Customer Manager decides to exit]</text><path d="M20,324.2656 L103,324.2656 L103,339.5469 L93,349.5469 L20,349.5469 L20,324.2656 " fill="#EEEEEE" style="stroke:#000000;stroke-width:1.5;"/><rect fill="none" height="255.5313" style="stroke:#000000;stroke-width:1.5;" width="857.5" x="20" y="324.2656"/><text fill="#000000" font-family="sans-serif" font-size="20" font-weight="bold" lengthAdjust="spacing" textLength="38" x="35" y="343.8301">opt</text><text fill="#000000" font-family="sans-serif" font-size="20" font-weight="bold" lengthAdjust="spacing" textLength="119" x="118" y="344.8301">[sorts list]</text><polygon fill="#181818" points="793,383.1094,803,387.1094,793,391.1094,797,387.1094" style="stroke:#181818;stroke-width:1.0;"/><line style="stroke:#181818;stroke-width:1.0;" x1="143" x2="799" y1="387.1094" y2="387.1094"/><text fill="#000000" font-family="sans-serif" font-size="20" font-weight="bold" lengthAdjust="spacing" textLength="14" x="150" y="380.3926">3</text><text fill="#000000" font-family="sans-serif" font-size="20" lengthAdjust="spacing" textLength="332" x="168" y="380.3926">Asks to sort the list of candidates</text><polygon fill="#181818" points="154,420.3906,144,424.3906,154,428.3906,150,424.3906" style="stroke:#181818;stroke-width:1.0;"/><line style="stroke:#181818;stroke-width:1.0;stroke-dasharray:2.0,2.0;" x1="148" x2="809" y1="424.3906" y2="424.3906"/><text fill="#000000" font-family="sans-serif" font-size="20" font-weight="bold" lengthAdjust="spacing" textLength="14" x="160" y="417.6738">4</text><text fill="#000000" font-family="sans-serif" font-size="20" lengthAdjust="spacing" textLength="240" x="178" y="417.6738">Provides sorting options</text><path d="M30,439.3906 L106,439.3906 L106,454.6719 L96,464.6719 L30,464.6719 L30,439.3906 " fill="#EEEEEE" style="stroke:#000000;stroke-width:1.5;"/><rect fill="none" height="133.4063" style="stroke:#000000;stroke-width:1.5;" width="837.5" x="30" y="439.3906"/><text fill="#000000" font-family="sans-serif" font-size="20" font-weight="bold" lengthAdjust="spacing" textLength="31" x="45" y="458.9551">alt</text><text fill="#000000" font-family="sans-serif" font-size="20" font-weight="bold" lengthAdjust="spacing" textLength="236" x="121" y="459.9551">[by ascending order]</text><polygon fill="#181818" points="793,498.2344,803,502.2344,793,506.2344,797,502.2344" style="stroke:#181818;stroke-width:1.0;"/><line style="stroke:#181818;stroke-width:1.0;" x1="143" x2="799" y1="502.2344" y2="502.2344"/><text fill="#000000" font-family="sans-serif" font-size="20" font-weight="bold" lengthAdjust="spacing" textLength="14" x="150" y="495.5176">5</text><text fill="#000000" font-family="sans-serif" font-size="20" lengthAdjust="spacing" textLength="350" x="168" y="495.5176">Asks to sort list by ascending order</text><line style="stroke:#000000;stroke-width:1.0;stroke-dasharray:2.0,2.0;" x1="30" x2="867.5" y1="511.2344" y2="511.2344"/><text fill="#000000" font-family="sans-serif" font-size="20" font-weight="bold" lengthAdjust="spacing" textLength="250" x="35" y="529.7988">[by descending order]</text><polygon fill="#181818" points="793,560.7969,803,564.7969,793,568.7969,797,564.7969" style="stroke:#181818;stroke-width:1.0;"/><line style="stroke:#181818;stroke-width:1.0;" x1="143" x2="799" y1="564.7969" y2="564.7969"/><text fill="#000000" font-family="sans-serif" font-size="20" font-weight="bold" lengthAdjust="spacing" textLength="14" x="150" y="558.0801">6</text><text fill="#000000" font-family="sans-serif" font-size="20" lengthAdjust="spacing" textLength="363" x="168" y="558.0801">Asks to sort list by descending order</text><polygon fill="#181818" points="154,612.0781,144,616.0781,154,620.0781,150,616.0781" style="stroke:#181818;stroke-width:1.0;"/><line style="stroke:#181818;stroke-width:1.0;stroke-dasharray:2.0,2.0;" x1="148" x2="809" y1="616.0781" y2="616.0781"/><text fill="#000000" font-family="sans-serif" font-size="20" font-weight="bold" lengthAdjust="spacing" textLength="14" x="160" y="609.3613">7</text><text fill="#000000" font-family="sans-serif" font-size="20" lengthAdjust="spacing" textLength="620" x="178" y="609.3613">Displays sorted list of candidates and provides sorting options</text><!--SRC=[hLF1Rjim3BthAuYSLc01XXrpA52is6a31dZ7NHIPSRZ8eYVIwRAlBst7Hc2xwmhC5qiazVZU4oKdIetFleuSJbX2YGVVHltCIGlwW_3nWtCora3DYSCnSusWkSMRJEF3oLTOw2KYP0pgKnLl2-JeItwYLC71Hq7dbDHAYuierb3WhnPJG7WaNtNbxuhYyGwsy8L4WGyGV2gfz8ho7bhfOFI8y9FtG4andmcVe65RYtE-LKvjlSTiww2SOVEf5JNM6RxwP3Jp1hp06Bp6d15L2jJufB3P3Spwmc7PWz7PE2nEkba0jlUZiXqyo4dWO2myn8KQs5_MLKoznkPNlAr1pxljp3Pfeh_8MWTRGPFvJALjX4sZkSUD4YTn9IuQ9RPDfkhO0yrwxU2x-RxIXGGubvXjXapI8C9KcNq1hIXLFrAVxxBN8NCkCZVG9gK8ynkoej0pLWRyJUh0FcFTAnXqzg7kUzLzm-YEzJEpv3xXBAmO4t_r_jjBtewdLpoUEaRj39bC6ZoSqcyIrmjx1MnEP8oZFSdXPludanVHBEXk__yssnssZTTRHtpz2hhMjzC_VzBF]--></g></svg>