<?xml version="1.0" encoding="UTF-8" standalone="no"?><svg xmlns="http://www.w3.org/2000/svg" xmlns:xlink="http://www.w3.org/1999/xlink" contentStyleType="text/css" height="613px" preserveAspectRatio="none" style="width:1356px;height:613px;background:#FFFFFF;" version="1.1" viewBox="0 0 1356 613" width="1356px" zoomAndPan="magnify"><defs/><g><text fill="#000000" font-family="sans-serif" font-size="14" font-weight="bold" lengthAdjust="spacing" textLength="450" x="452.25" y="27.9951">System Sequence Diagram (SSD) - Register Job Openings</text><rect fill="#FFFFFF" height="381.0938" style="stroke:#181818;stroke-width:1.0;" width="10" x="98" y="135.5781"/><rect fill="#FFFFFF" height="37.2813" style="stroke:#181818;stroke-width:1.0;" width="10" x="1298" y="164.8594"/><rect fill="#FFFFFF" height="37.2813" style="stroke:#181818;stroke-width:1.0;" width="10" x="1298" y="305.9844"/><rect fill="#FFFFFF" height="46.2813" style="stroke:#181818;stroke-width:1.0;" width="10" x="1298" y="470.3906"/><line style="stroke:#181818;stroke-width:0.5;stroke-dasharray:5.0,5.0;" x1="103" x2="103" y1="125.5781" y2="525.6719"/><line style="stroke:#181818;stroke-width:0.5;stroke-dasharray:5.0,5.0;" x1="1302.5" x2="1302.5" y1="125.5781" y2="525.6719"/><text fill="#000000" font-family="sans-serif" font-size="20" lengthAdjust="spacing" textLength="190" x="5" y="120.8613">Costumer Manager</text><ellipse cx="103" cy="50.7969" fill="#E3E3E3" rx="8" ry="8" style="stroke:#181818;stroke-width:0.5;"/><path d="M103,58.7969 L103,85.7969 M90,66.7969 L116,66.7969 M103,85.7969 L90,100.7969 M103,85.7969 L116,100.7969 " fill="none" style="stroke:#181818;stroke-width:0.5;"/><text fill="#000000" font-family="sans-serif" font-size="20" lengthAdjust="spacing" textLength="190" x="5" y="543.2363">Costumer Manager</text><ellipse cx="103" cy="556.4531" fill="#E3E3E3" rx="8" ry="8" style="stroke:#181818;stroke-width:0.5;"/><path d="M103,564.4531 L103,591.4531 M90,572.4531 L116,572.4531 M103,591.4531 L90,606.4531 M103,591.4531 L116,606.4531 " fill="none" style="stroke:#181818;stroke-width:0.5;"/><rect fill="#E3E3E3" height="37.2813" rx="2.5" ry="2.5" style="stroke:#181818;stroke-width:0.5;" width="95" x="1255.5" y="87.2969"/><text fill="#000000" font-family="sans-serif" font-size="20" lengthAdjust="spacing" textLength="81" x="1262.5" y="112.8613">:System</text><rect fill="#E3E3E3" height="37.2813" rx="2.5" ry="2.5" style="stroke:#181818;stroke-width:0.5;" width="95" x="1255.5" y="524.6719"/><text fill="#000000" font-family="sans-serif" font-size="20" lengthAdjust="spacing" textLength="81" x="1262.5" y="550.2363">:System</text><rect fill="#FFFFFF" height="381.0938" style="stroke:#181818;stroke-width:1.0;" width="10" x="98" y="135.5781"/><rect fill="#FFFFFF" height="37.2813" style="stroke:#181818;stroke-width:1.0;" width="10" x="1298" y="164.8594"/><rect fill="#FFFFFF" height="37.2813" style="stroke:#181818;stroke-width:1.0;" width="10" x="1298" y="305.9844"/><rect fill="#FFFFFF" height="46.2813" style="stroke:#181818;stroke-width:1.0;" width="10" x="1298" y="470.3906"/><polygon fill="#181818" points="1286,160.8594,1296,164.8594,1286,168.8594,1290,164.8594" style="stroke:#181818;stroke-width:1.0;"/><line style="stroke:#181818;stroke-width:1.0;" x1="108" x2="1292" y1="164.8594" y2="164.8594"/><text fill="#000000" font-family="sans-serif" font-size="20" font-weight="bold" lengthAdjust="spacing" textLength="14" x="115" y="158.1426">1</text><text fill="#000000" font-family="sans-serif" font-size="20" lengthAdjust="spacing" textLength="280" x="133" y="158.1426">Asks to register job opening</text><polygon fill="#181818" points="119,198.1406,109,202.1406,119,206.1406,115,202.1406" style="stroke:#181818;stroke-width:1.0;"/><line style="stroke:#181818;stroke-width:1.0;stroke-dasharray:2.0,2.0;" x1="113" x2="1302" y1="202.1406" y2="202.1406"/><text fill="#000000" font-family="sans-serif" font-size="20" font-weight="bold" lengthAdjust="spacing" textLength="14" x="125" y="195.4238">2</text><text fill="#000000" font-family="sans-serif" font-size="20" lengthAdjust="spacing" textLength="1148" x="143" y="195.4238">Asks for information (Title or function, Contract Type, Mode, Address, Company, Number of vacancies, Description)</text><path d="M857,215.1406 L857,271.1406 L1298,271.1406 L1298,225.1406 L1288,215.1406 L857,215.1406 " fill="#FAFAFA" style="stroke:#181818;stroke-width:0.5;"/><path d="M1288,215.1406 L1288,225.1406 L1298,225.1406 L1288,215.1406 " fill="#FAFAFA" style="stroke:#181818;stroke-width:0.5;"/><text fill="#000000" font-family="sans-serif" font-size="20" lengthAdjust="spacing" textLength="420" x="863" y="238.7051">The Costumer Manager has to provide the</text><text fill="#000000" font-family="sans-serif" font-size="20" lengthAdjust="spacing" textLength="277" x="863" y="261.9863">all the information required</text><polygon fill="#181818" points="1286,301.9844,1296,305.9844,1286,309.9844,1290,305.9844" style="stroke:#181818;stroke-width:1.0;"/><line style="stroke:#181818;stroke-width:1.0;" x1="108" x2="1292" y1="305.9844" y2="305.9844"/><text fill="#000000" font-family="sans-serif" font-size="20" font-weight="bold" lengthAdjust="spacing" textLength="14" x="115" y="299.2676">3</text><text fill="#000000" font-family="sans-serif" font-size="20" lengthAdjust="spacing" textLength="207" x="133" y="299.2676">Provides information</text><polygon fill="#181818" points="119,339.2656,109,343.2656,119,347.2656,115,343.2656" style="stroke:#181818;stroke-width:1.0;"/><line style="stroke:#181818;stroke-width:1.0;stroke-dasharray:2.0,2.0;" x1="113" x2="1302" y1="343.2656" y2="343.2656"/><text fill="#000000" font-family="sans-serif" font-size="20" font-weight="bold" lengthAdjust="spacing" textLength="14" x="125" y="336.5488">4</text><text fill="#000000" font-family="sans-serif" font-size="20" lengthAdjust="spacing" textLength="385" x="143" y="336.5488">Asks to select one of the requirements</text><path d="M754,356.2656 L754,435.2656 L1298,435.2656 L1298,366.2656 L1288,356.2656 L754,356.2656 " fill="#FAFAFA" style="stroke:#181818;stroke-width:0.5;"/><path d="M1288,356.2656 L1288,366.2656 L1298,366.2656 L1288,356.2656 " fill="#FAFAFA" style="stroke:#181818;stroke-width:0.5;"/><text fill="#000000" font-family="sans-serif" font-size="20" lengthAdjust="spacing" textLength="455" x="760" y="379.8301">The Costumer Manager has to pick one of the</text><text fill="#000000" font-family="sans-serif" font-size="20" lengthAdjust="spacing" textLength="517" x="760" y="403.1113">requirements from the ones available in the system</text><text fill="#000000" font-family="sans-serif" font-size="20" lengthAdjust="spacing" textLength="102" x="760" y="426.3926">(US 1009)</text><polygon fill="#181818" points="1286,466.3906,1296,470.3906,1286,474.3906,1290,470.3906" style="stroke:#181818;stroke-width:1.0;"/><line style="stroke:#181818;stroke-width:1.0;" x1="108" x2="1292" y1="470.3906" y2="470.3906"/><text fill="#000000" font-family="sans-serif" font-size="20" font-weight="bold" lengthAdjust="spacing" textLength="14" x="115" y="463.6738">5</text><text fill="#000000" font-family="sans-serif" font-size="20" lengthAdjust="spacing" textLength="320" x="133" y="463.6738">Selects one of the requirements</text><polygon fill="#181818" points="119,503.6719,109,507.6719,119,511.6719,115,507.6719" style="stroke:#181818;stroke-width:1.0;"/><line style="stroke:#181818;stroke-width:1.0;stroke-dasharray:2.0,2.0;" x1="113" x2="1297" y1="507.6719" y2="507.6719"/><text fill="#000000" font-family="sans-serif" font-size="20" font-weight="bold" lengthAdjust="spacing" textLength="14" x="125" y="500.9551">6</text><text fill="#000000" font-family="sans-serif" font-size="20" lengthAdjust="spacing" textLength="255" x="143" y="500.9551">Informs success or failure</text><!--SRC=[fLF1Rjim3BtxAuYS4Y01ijtQmu2YmO0Dw5RCsIqNHgPjpJBbYNA6xEj7oqxc5UlGOZm8jFJq-FX4IsEvmu2jywQX0WegiNVnlUUOsvy4RxUPN23GUlQc3hubYA6dsKc7fi6AydXs185CHAxS720r5lw7vGfAT49P5crKQ7wMI2tazBqdDWGxYzK0N-RvRWKR-4ALLKI0Z_u8dpjYPP0impvwxjiZ1SrDz04MzrvYtoho0LcLX0MWNF9CDKHhR8SSON4x5as0CKqazeIHhZSoq9W-OFFk8lGMxgGHY5wRd9HzKsL-L9OkNQacRfZYcanK6sMz59XeIst4igujHkiPbljaakwMFPjXQmtt-Z91Qy3-tD4Q7doXwrrH118PJbjjyho6JyaTy2MSq20RItgw8p71TWFHwYfd2FQgrr4PV_UvhmcUUWerfjwxu4-sq26ewS3et93y8JpeUzf0nMXZGKyzUTRTnv5Pvcn_TVK5RgfG8QUp29vfS69GEIbhYQFybmNMD3FU0y-9eTH_99LJX02Uq3eyki6Zj2jZXGCll-RmPhkzMRtQg3nr9lzixNMUVKYE2qXlZCvIcZhLtGVAVW40]--></g></svg>