<?xml version="1.0" encoding="UTF-8" standalone="no"?><svg xmlns="http://www.w3.org/2000/svg" xmlns:xlink="http://www.w3.org/1999/xlink" contentStyleType="text/css" height="839px" preserveAspectRatio="none" style="width:4646px;height:839px;background:#FFFFFF;" version="1.1" viewBox="0 0 4646 839" width="4646px" zoomAndPan="magnify"><defs/><g><text fill="#000000" font-family="sans-serif" font-size="14" font-weight="bold" lengthAdjust="spacing" textLength="187" x="2222.5" y="22.9951">Domain Model - US1013</text><!--cluster <<aggregate>> Rank--><g id="cluster_&lt;&lt;aggregate&gt;&gt; Rank"><path d="M3118.5,44.5137 L3326.5,44.5137 A3.75,3.75 0 0 1 3329,47.0137 L3336,73.7949 L3336.5,73.7949 A2.5,2.5 0 0 1 3339,76.2949 L3339,180.0137 A2.5,2.5 0 0 1 3336.5,182.5137 L3118.5,182.5137 A2.5,2.5 0 0 1 3116,180.0137 L3116,47.0137 A2.5,2.5 0 0 1 3118.5,44.5137 " fill="#EBF5FB" style="stroke:#000000;stroke-width:1.5;"/><line style="stroke:#000000;stroke-width:1.5;" x1="3116" x2="3336" y1="73.7949" y2="73.7949"/><text fill="#000000" font-family="sans-serif" font-size="20" font-weight="bold" lengthAdjust="spacing" textLength="207" x="3120" y="65.0781">«aggregate» Rank</text></g><!--cluster <<aggregate>> Candidate--><g id="cluster_&lt;&lt;aggregate&gt;&gt; Candidate"><path d="M1395.5,239.5137 L1663.5,239.5137 A3.75,3.75 0 0 1 1666,242.0137 L1673,268.7949 L1808.5,268.7949 A2.5,2.5 0 0 1 1811,271.2949 L1811,517.0137 A2.5,2.5 0 0 1 1808.5,519.5137 L1395.5,519.5137 A2.5,2.5 0 0 1 1393,517.0137 L1393,242.0137 A2.5,2.5 0 0 1 1395.5,239.5137 " fill="#EBF5FB" style="stroke:#000000;stroke-width:1.5;"/><line style="stroke:#000000;stroke-width:1.5;" x1="1393" x2="1673" y1="268.7949" y2="268.7949"/><text fill="#000000" font-family="sans-serif" font-size="20" font-weight="bold" lengthAdjust="spacing" textLength="267" x="1397" y="260.0781">«aggregate» Candidate</text></g><!--cluster <<aggregate>> Application--><g id="cluster_&lt;&lt;aggregate&gt;&gt; Application"><path d="M8.5,44.5137 L288.5,44.5137 A3.75,3.75 0 0 1 291,47.0137 L298,73.7949 L1366.5,73.7949 A2.5,2.5 0 0 1 1369,76.2949 L1369,517.0137 A2.5,2.5 0 0 1 1366.5,519.5137 L8.5,519.5137 A2.5,2.5 0 0 1 6,517.0137 L6,47.0137 A2.5,2.5 0 0 1 8.5,44.5137 " fill="#EBF5FB" style="stroke:#000000;stroke-width:1.5;"/><line style="stroke:#000000;stroke-width:1.5;" x1="6" x2="298" y1="73.7949" y2="73.7949"/><text fill="#000000" font-family="sans-serif" font-size="20" font-weight="bold" lengthAdjust="spacing" textLength="279" x="10" y="65.0781">«aggregate» Application</text></g><!--cluster <<aggregate>> Job Opening--><g id="cluster_&lt;&lt;aggregate&gt;&gt; Job Opening"><path d="M2237.5,239.5137 L2525.5,239.5137 A3.75,3.75 0 0 1 2528,242.0137 L2535,268.7949 L3904.5,268.7949 A2.5,2.5 0 0 1 3907,271.2949 L3907,517.0137 A2.5,2.5 0 0 1 3904.5,519.5137 L2237.5,519.5137 A2.5,2.5 0 0 1 2235,517.0137 L2235,242.0137 A2.5,2.5 0 0 1 2237.5,239.5137 " fill="#EBF5FB" style="stroke:#000000;stroke-width:1.5;"/><line style="stroke:#000000;stroke-width:1.5;" x1="2235" x2="2535" y1="268.7949" y2="268.7949"/><text fill="#000000" font-family="sans-serif" font-size="20" font-weight="bold" lengthAdjust="spacing" textLength="287" x="2239" y="260.0781">«aggregate» Job Opening</text></g><!--cluster <<aggregate>> Interview--><g id="cluster_&lt;&lt;aggregate&gt;&gt; Interview"><path d="M4222.5,552.5137 L4481.5,552.5137 A3.75,3.75 0 0 1 4484,555.0137 L4491,581.7949 L4636.5,581.7949 A2.5,2.5 0 0 1 4639,584.2949 L4639,830.0137 A2.5,2.5 0 0 1 4636.5,832.5137 L4222.5,832.5137 A2.5,2.5 0 0 1 4220,830.0137 L4220,555.0137 A2.5,2.5 0 0 1 4222.5,552.5137 " fill="#EBF5FB" style="stroke:#000000;stroke-width:1.5;"/><line style="stroke:#000000;stroke-width:1.5;" x1="4220" x2="4491" y1="581.7949" y2="581.7949"/><text fill="#000000" font-family="sans-serif" font-size="20" font-weight="bold" lengthAdjust="spacing" textLength="258" x="4224" y="573.0781">«aggregate» Interview</text></g><!--class Rank--><g id="elem_Rank"><rect codeLine="24" fill="#FDEBD0" height="79.8438" id="Rank" rx="2.5" ry="2.5" style="stroke:#181818;stroke-width:0.5;" width="113" x="3170.5" y="86.5137"/><ellipse cx="3186.5" cy="126.4355" fill="#ADD1B2" rx="12" ry="12" style="stroke:#181818;stroke-width:1.0;"/><path d="M3191.2188,133.9355 L3182.1406,133.9355 L3182.1406,119.3574 L3191.2188,119.3574 L3191.2188,121.8887 L3185.0156,121.8887 L3185.0156,125.0449 L3190.6406,125.0449 L3190.6406,127.5762 L3185.0156,127.5762 L3185.0156,131.3887 L3191.2188,131.3887 L3191.2188,133.9355 Z " fill="#000000"/><text fill="#000000" font-family="sans-serif" font-size="20" font-style="italic" lengthAdjust="spacing" textLength="83" x="3199.5" y="110.0781">«entity»</text><text fill="#000000" font-family="sans-serif" font-size="20" font-style="italic" lengthAdjust="spacing" textLength="64" x="3209" y="133.3594">«root»</text><text fill="#000000" font-family="sans-serif" font-size="20" lengthAdjust="spacing" textLength="51" x="3215.5" y="156.6406">Rank</text></g><!--class Candidate--><g id="elem_Candidate"><rect codeLine="29" fill="#FDEBD0" height="79.8438" id="Candidate" rx="2.5" ry="2.5" style="stroke:#181818;stroke-width:0.5;" width="137" x="1638.5" y="281.5137"/><ellipse cx="1654.5" cy="321.4355" fill="#ADD1B2" rx="12" ry="12" style="stroke:#181818;stroke-width:1.0;"/><path d="M1659.2188,328.9355 L1650.1406,328.9355 L1650.1406,314.3574 L1659.2188,314.3574 L1659.2188,316.8887 L1653.0156,316.8887 L1653.0156,320.0449 L1658.6406,320.0449 L1658.6406,322.5762 L1653.0156,322.5762 L1653.0156,326.3887 L1659.2188,326.3887 L1659.2188,328.9355 Z " fill="#000000"/><text fill="#000000" font-family="sans-serif" font-size="20" font-style="italic" lengthAdjust="spacing" textLength="83" x="1679.5" y="305.0781">«entity»</text><text fill="#000000" font-family="sans-serif" font-size="20" font-style="italic" lengthAdjust="spacing" textLength="64" x="1689" y="328.3594">«root»</text><text fill="#000000" font-family="sans-serif" font-size="20" lengthAdjust="spacing" textLength="103" x="1669.5" y="351.6406">Candidate</text></g><!--class FirstName--><g id="elem_FirstName"><rect codeLine="31" fill="#D6EAF8" height="56.5625" id="FirstName" rx="2.5" ry="2.5" style="stroke:#181818;stroke-width:0.5;" width="175" x="1409.5" y="446.5137"/><ellipse cx="1425.5" cy="474.7949" fill="#FF8B40" rx="12" ry="12" style="stroke:#181818;stroke-width:1.0;"/><path d="M1425.5156,480.6387 L1428.0781,468.4668 L1430.9844,468.4668 L1427.5156,483.0449 L1423.5313,483.0449 L1420.0625,468.4668 L1422.9531,468.4668 L1425.5156,480.6387 Z " fill="#000000"/><text fill="#000000" font-family="sans-serif" font-size="20" font-style="italic" lengthAdjust="spacing" textLength="145" x="1438.5" y="470.0781">«valueObject»</text><text fill="#000000" font-family="sans-serif" font-size="20" lengthAdjust="spacing" textLength="103" x="1459.5" y="493.3594">FirstName</text></g><!--class LastName--><g id="elem_LastName"><rect codeLine="32" fill="#D6EAF8" height="56.5625" id="LastName" rx="2.5" ry="2.5" style="stroke:#181818;stroke-width:0.5;" width="175" x="1619.5" y="446.5137"/><ellipse cx="1635.5" cy="474.7949" fill="#FF8B40" rx="12" ry="12" style="stroke:#181818;stroke-width:1.0;"/><path d="M1635.5156,480.6387 L1638.0781,468.4668 L1640.9844,468.4668 L1637.5156,483.0449 L1633.5313,483.0449 L1630.0625,468.4668 L1632.9531,468.4668 L1635.5156,480.6387 Z " fill="#000000"/><text fill="#000000" font-family="sans-serif" font-size="20" font-style="italic" lengthAdjust="spacing" textLength="145" x="1648.5" y="470.0781">«valueObject»</text><text fill="#000000" font-family="sans-serif" font-size="20" lengthAdjust="spacing" textLength="100" x="1671" y="493.3594">LastName</text></g><!--class Application--><g id="elem_Application"><rect codeLine="37" fill="#FDEBD0" height="79.8438" id="Application" rx="2.5" ry="2.5" style="stroke:#181818;stroke-width:0.5;" width="148" x="1164" y="86.5137"/><ellipse cx="1180" cy="126.4355" fill="#ADD1B2" rx="12" ry="12" style="stroke:#181818;stroke-width:1.0;"/><path d="M1184.7188,133.9355 L1175.6406,133.9355 L1175.6406,119.3574 L1184.7188,119.3574 L1184.7188,121.8887 L1178.5156,121.8887 L1178.5156,125.0449 L1184.1406,125.0449 L1184.1406,127.5762 L1178.5156,127.5762 L1178.5156,131.3887 L1184.7188,131.3887 L1184.7188,133.9355 Z " fill="#000000"/><text fill="#000000" font-family="sans-serif" font-size="20" font-style="italic" lengthAdjust="spacing" textLength="83" x="1210.5" y="110.0781">«entity»</text><text fill="#000000" font-family="sans-serif" font-size="20" font-style="italic" lengthAdjust="spacing" textLength="64" x="1220" y="133.3594">«root»</text><text fill="#000000" font-family="sans-serif" font-size="20" lengthAdjust="spacing" textLength="114" x="1195" y="156.6406">Application</text></g><!--class Result--><g id="elem_Result"><rect codeLine="38" fill="#FEF9E7" height="56.5625" id="Result" rx="2.5" ry="2.5" style="stroke:#181818;stroke-width:0.5;" width="113" x="745.5" y="293.0137"/><ellipse cx="761.5" cy="321.2949" fill="#ADD1B2" rx="12" ry="12" style="stroke:#181818;stroke-width:1.0;"/><path d="M766.2188,328.7949 L757.1406,328.7949 L757.1406,314.2168 L766.2188,314.2168 L766.2188,316.748 L760.0156,316.748 L760.0156,319.9043 L765.6406,319.9043 L765.6406,322.4355 L760.0156,322.4355 L760.0156,326.248 L766.2188,326.248 L766.2188,328.7949 Z " fill="#000000"/><text fill="#000000" font-family="sans-serif" font-size="20" font-style="italic" lengthAdjust="spacing" textLength="83" x="774.5" y="316.5781">«entity»</text><text fill="#000000" font-family="sans-serif" font-size="20" lengthAdjust="spacing" textLength="63" x="784.5" y="339.8594">Result</text></g><!--class ApplicationDate--><g id="elem_ApplicationDate"><rect codeLine="40" fill="#D6EAF8" height="56.5625" id="ApplicationDate" rx="2.5" ry="2.5" style="stroke:#181818;stroke-width:0.5;" width="195" x="893.5" y="293.0137"/><ellipse cx="909.5" cy="321.2949" fill="#FF8B40" rx="12" ry="12" style="stroke:#181818;stroke-width:1.0;"/><path d="M909.5156,327.1387 L912.0781,314.9668 L914.9844,314.9668 L911.5156,329.5449 L907.5313,329.5449 L904.0625,314.9668 L906.9531,314.9668 L909.5156,327.1387 Z " fill="#000000"/><text fill="#000000" font-family="sans-serif" font-size="20" font-style="italic" lengthAdjust="spacing" textLength="145" x="932.5" y="316.5781">«valueObject»</text><text fill="#000000" font-family="sans-serif" font-size="20" lengthAdjust="spacing" textLength="161" x="924.5" y="339.8594">ApplicationDate</text></g><!--class ApplicationNumber--><g id="elem_ApplicationNumber"><rect codeLine="41" fill="#D6EAF8" height="56.5625" id="ApplicationNumber" rx="2.5" ry="2.5" style="stroke:#181818;stroke-width:0.5;" width="229" x="1123.5" y="293.0137"/><ellipse cx="1139.5" cy="321.2949" fill="#FF8B40" rx="12" ry="12" style="stroke:#181818;stroke-width:1.0;"/><path d="M1139.5156,327.1387 L1142.0781,314.9668 L1144.9844,314.9668 L1141.5156,329.5449 L1137.5313,329.5449 L1134.0625,314.9668 L1136.9531,314.9668 L1139.5156,327.1387 Z " fill="#000000"/><text fill="#000000" font-family="sans-serif" font-size="20" font-style="italic" lengthAdjust="spacing" textLength="145" x="1179.5" y="316.5781">«valueObject»</text><text fill="#000000" font-family="sans-serif" font-size="20" lengthAdjust="spacing" textLength="195" x="1154.5" y="339.8594">ApplicationNumber</text></g><!--class Outcome--><g id="elem_Outcome"><rect codeLine="42" fill="#D6EAF8" height="56.5625" id="Outcome" rx="2.5" ry="2.5" style="stroke:#181818;stroke-width:0.5;" width="175" x="22.5" y="446.5137"/><ellipse cx="38.5" cy="474.7949" fill="#FF8B40" rx="12" ry="12" style="stroke:#181818;stroke-width:1.0;"/><path d="M38.5156,480.6387 L41.0781,468.4668 L43.9844,468.4668 L40.5156,483.0449 L36.5313,483.0449 L33.0625,468.4668 L35.9531,468.4668 L38.5156,480.6387 Z " fill="#000000"/><text fill="#000000" font-family="sans-serif" font-size="20" font-style="italic" lengthAdjust="spacing" textLength="145" x="51.5" y="470.0781">«valueObject»</text><text fill="#000000" font-family="sans-serif" font-size="20" lengthAdjust="spacing" textLength="92" x="78" y="493.3594">Outcome</text></g><!--class Justification--><g id="elem_Justification"><rect codeLine="43" fill="#D6EAF8" height="56.5625" id="Justification" rx="2.5" ry="2.5" style="stroke:#181818;stroke-width:0.5;" width="175" x="1177.5" y="446.5137"/><ellipse cx="1193.5" cy="474.7949" fill="#FF8B40" rx="12" ry="12" style="stroke:#181818;stroke-width:1.0;"/><path d="M1193.5156,480.6387 L1196.0781,468.4668 L1198.9844,468.4668 L1195.5156,483.0449 L1191.5313,483.0449 L1188.0625,468.4668 L1190.9531,468.4668 L1193.5156,480.6387 Z " fill="#000000"/><text fill="#000000" font-family="sans-serif" font-size="20" font-style="italic" lengthAdjust="spacing" textLength="145" x="1206.5" y="470.0781">«valueObject»</text><text fill="#000000" font-family="sans-serif" font-size="20" lengthAdjust="spacing" textLength="118" x="1220" y="493.3594">Justification</text></g><g id="elem_GMN17"><path d="M233,458.5137 L233,471.0137 L197.82,475.0137 L233,479.0137 L233,491.7949 A0,0 0 0 0 233,491.7949 L641,491.7949 A0,0 0 0 0 641,491.7949 L641,468.5137 L631,458.5137 L233,458.5137 A0,0 0 0 0 233,458.5137 " fill="#FEFFDD" style="stroke:#181818;stroke-width:0.5;"/><path d="M631,458.5137 L631,468.5137 L641,468.5137 L631,458.5137 " fill="#FEFFDD" style="stroke:#181818;stroke-width:0.5;"/><text fill="#000000" font-family="sans-serif" font-size="20" lengthAdjust="spacing" textLength="387" x="239" y="482.0781">Outcome can be Approved or Rejected</text></g><g id="elem_GMN20"><path d="M676,458.5137 L676,491.7949 A0,0 0 0 0 676,491.7949 L1142,491.7949 A0,0 0 0 0 1142,491.7949 L1142,479.0137 L1177.27,475.0137 L1142,471.0137 L1142,468.5137 L1132,458.5137 L676,458.5137 A0,0 0 0 0 676,458.5137 " fill="#FEFFDD" style="stroke:#181818;stroke-width:0.5;"/><path d="M1132,458.5137 L1132,468.5137 L1142,468.5137 L1132,458.5137 " fill="#FEFFDD" style="stroke:#181818;stroke-width:0.5;"/><text fill="#000000" font-family="sans-serif" font-size="20" lengthAdjust="spacing" textLength="445" x="682" y="482.0781">Rejected outcomes must have a justification</text></g><!--class JobOpening--><g id="elem_JobOpening"><rect codeLine="53" fill="#FDEBD0" height="79.8438" id="JobOpening" rx="2.5" ry="2.5" style="stroke:#181818;stroke-width:0.5;" width="151" x="3151.5" y="281.5137"/><ellipse cx="3167.5" cy="321.4355" fill="#ADD1B2" rx="12" ry="12" style="stroke:#181818;stroke-width:1.0;"/><path d="M3172.2188,328.9355 L3163.1406,328.9355 L3163.1406,314.3574 L3172.2188,314.3574 L3172.2188,316.8887 L3166.0156,316.8887 L3166.0156,320.0449 L3171.6406,320.0449 L3171.6406,322.5762 L3166.0156,322.5762 L3166.0156,326.3887 L3172.2188,326.3887 L3172.2188,328.9355 Z " fill="#000000"/><text fill="#000000" font-family="sans-serif" font-size="20" font-style="italic" lengthAdjust="spacing" textLength="83" x="3199.5" y="305.0781">«entity»</text><text fill="#000000" font-family="sans-serif" font-size="20" font-style="italic" lengthAdjust="spacing" textLength="64" x="3209" y="328.3594">«root»</text><text fill="#000000" font-family="sans-serif" font-size="20" lengthAdjust="spacing" textLength="117" x="3182.5" y="351.6406">JobOpening</text></g><!--class JobReference--><g id="elem_JobReference"><rect codeLine="55" fill="#D6EAF8" height="56.5625" id="JobReference" rx="2.5" ry="2.5" style="stroke:#181818;stroke-width:0.5;" width="175" x="2251.5" y="446.5137"/><ellipse cx="2267.5" cy="474.7949" fill="#FF8B40" rx="12" ry="12" style="stroke:#181818;stroke-width:1.0;"/><path d="M2267.5156,480.6387 L2270.0781,468.4668 L2272.9844,468.4668 L2269.5156,483.0449 L2265.5313,483.0449 L2262.0625,468.4668 L2264.9531,468.4668 L2267.5156,480.6387 Z " fill="#000000"/><text fill="#000000" font-family="sans-serif" font-size="20" font-style="italic" lengthAdjust="spacing" textLength="145" x="2280.5" y="470.0781">«valueObject»</text><text fill="#000000" font-family="sans-serif" font-size="20" lengthAdjust="spacing" textLength="132" x="2287" y="493.3594">JobReference</text></g><!--class TitleOrFunction--><g id="elem_TitleOrFunction"><rect codeLine="56" fill="#D6EAF8" height="56.5625" id="TitleOrFunction" rx="2.5" ry="2.5" style="stroke:#181818;stroke-width:0.5;" width="190" x="2462" y="446.5137"/><ellipse cx="2478" cy="474.7949" fill="#FF8B40" rx="12" ry="12" style="stroke:#181818;stroke-width:1.0;"/><path d="M2478.0156,480.6387 L2480.5781,468.4668 L2483.4844,468.4668 L2480.0156,483.0449 L2476.0313,483.0449 L2472.5625,468.4668 L2475.4531,468.4668 L2478.0156,480.6387 Z " fill="#000000"/><text fill="#000000" font-family="sans-serif" font-size="20" font-style="italic" lengthAdjust="spacing" textLength="145" x="2498.5" y="470.0781">«valueObject»</text><text fill="#000000" font-family="sans-serif" font-size="20" lengthAdjust="spacing" textLength="156" x="2493" y="493.3594">TitleOrFunction</text></g><!--class ContractType--><g id="elem_ContractType"><rect codeLine="57" fill="#D6EAF8" height="56.5625" id="ContractType" rx="2.5" ry="2.5" style="stroke:#181818;stroke-width:0.5;" width="175" x="2687.5" y="446.5137"/><ellipse cx="2703.5" cy="474.7949" fill="#FF8B40" rx="12" ry="12" style="stroke:#181818;stroke-width:1.0;"/><path d="M2703.5156,480.6387 L2706.0781,468.4668 L2708.9844,468.4668 L2705.5156,483.0449 L2701.5313,483.0449 L2698.0625,468.4668 L2700.9531,468.4668 L2703.5156,480.6387 Z " fill="#000000"/><text fill="#000000" font-family="sans-serif" font-size="20" font-style="italic" lengthAdjust="spacing" textLength="145" x="2716.5" y="470.0781">«valueObject»</text><text fill="#000000" font-family="sans-serif" font-size="20" lengthAdjust="spacing" textLength="134" x="2722" y="493.3594">ContractType</text></g><!--class Mode--><g id="elem_Mode"><rect codeLine="58" fill="#D6EAF8" height="56.5625" id="Mode" rx="2.5" ry="2.5" style="stroke:#181818;stroke-width:0.5;" width="175" x="2897.5" y="446.5137"/><ellipse cx="2913.5" cy="474.7949" fill="#FF8B40" rx="12" ry="12" style="stroke:#181818;stroke-width:1.0;"/><path d="M2913.5156,480.6387 L2916.0781,468.4668 L2918.9844,468.4668 L2915.5156,483.0449 L2911.5313,483.0449 L2908.0625,468.4668 L2910.9531,468.4668 L2913.5156,480.6387 Z " fill="#000000"/><text fill="#000000" font-family="sans-serif" font-size="20" font-style="italic" lengthAdjust="spacing" textLength="145" x="2926.5" y="470.0781">«valueObject»</text><text fill="#000000" font-family="sans-serif" font-size="20" lengthAdjust="spacing" textLength="54" x="2972" y="493.3594">Mode</text></g><!--class NumberOfVacancies--><g id="elem_NumberOfVacancies"><rect codeLine="59" fill="#D6EAF8" height="56.5625" id="NumberOfVacancies" rx="2.5" ry="2.5" style="stroke:#181818;stroke-width:0.5;" width="239" x="3107.5" y="446.5137"/><ellipse cx="3123.5" cy="474.7949" fill="#FF8B40" rx="12" ry="12" style="stroke:#181818;stroke-width:1.0;"/><path d="M3123.5156,480.6387 L3126.0781,468.4668 L3128.9844,468.4668 L3125.5156,483.0449 L3121.5313,483.0449 L3118.0625,468.4668 L3120.9531,468.4668 L3123.5156,480.6387 Z " fill="#000000"/><text fill="#000000" font-family="sans-serif" font-size="20" font-style="italic" lengthAdjust="spacing" textLength="145" x="3168.5" y="470.0781">«valueObject»</text><text fill="#000000" font-family="sans-serif" font-size="20" lengthAdjust="spacing" textLength="205" x="3138.5" y="493.3594">NumberOfVacancies</text></g><!--class JobDescription--><g id="elem_JobDescription"><rect codeLine="60" fill="#D6EAF8" height="56.5625" id="JobDescription" rx="2.5" ry="2.5" style="stroke:#181818;stroke-width:0.5;" width="179" x="3381.5" y="446.5137"/><ellipse cx="3397.5" cy="474.7949" fill="#FF8B40" rx="12" ry="12" style="stroke:#181818;stroke-width:1.0;"/><path d="M3397.5156,480.6387 L3400.0781,468.4668 L3402.9844,468.4668 L3399.5156,483.0449 L3395.5313,483.0449 L3392.0625,468.4668 L3394.9531,468.4668 L3397.5156,480.6387 Z " fill="#000000"/><text fill="#000000" font-family="sans-serif" font-size="20" font-style="italic" lengthAdjust="spacing" textLength="145" x="3412.5" y="470.0781">«valueObject»</text><text fill="#000000" font-family="sans-serif" font-size="20" lengthAdjust="spacing" textLength="145" x="3412.5" y="493.3594">JobDescription</text></g><!--class RequirementSpecification--><g id="elem_RequirementSpecification"><rect codeLine="61" fill="#FEF9E7" height="56.5625" id="RequirementSpecification" rx="2.5" ry="2.5" style="stroke:#181818;stroke-width:0.5;" width="295" x="3595.5" y="446.5137"/><ellipse cx="3611.5" cy="474.7949" fill="#ADD1B2" rx="12" ry="12" style="stroke:#181818;stroke-width:1.0;"/><path d="M3616.2188,482.2949 L3607.1406,482.2949 L3607.1406,467.7168 L3616.2188,467.7168 L3616.2188,470.248 L3610.0156,470.248 L3610.0156,473.4043 L3615.6406,473.4043 L3615.6406,475.9355 L3610.0156,475.9355 L3610.0156,479.748 L3616.2188,479.748 L3616.2188,482.2949 Z " fill="#000000"/><text fill="#000000" font-family="sans-serif" font-size="20" font-style="italic" lengthAdjust="spacing" textLength="83" x="3715.5" y="470.0781">«entity»</text><text fill="#000000" font-family="sans-serif" font-size="20" lengthAdjust="spacing" textLength="261" x="3626.5" y="493.3594">RequirementSpecification</text></g><!--class Interview--><g id="elem_Interview"><rect codeLine="66" fill="#FDEBD0" height="79.8438" id="Interview" rx="2.5" ry="2.5" style="stroke:#181818;stroke-width:0.5;" width="127" x="4331.5" y="594.5137"/><ellipse cx="4347.5" cy="634.4355" fill="#ADD1B2" rx="12" ry="12" style="stroke:#181818;stroke-width:1.0;"/><path d="M4352.2188,641.9355 L4343.1406,641.9355 L4343.1406,627.3574 L4352.2188,627.3574 L4352.2188,629.8887 L4346.0156,629.8887 L4346.0156,633.0449 L4351.6406,633.0449 L4351.6406,635.5762 L4346.0156,635.5762 L4346.0156,639.3887 L4352.2188,639.3887 L4352.2188,641.9355 Z " fill="#000000"/><text fill="#000000" font-family="sans-serif" font-size="20" font-style="italic" lengthAdjust="spacing" textLength="83" x="4367.5" y="618.0781">«entity»</text><text fill="#000000" font-family="sans-serif" font-size="20" font-style="italic" lengthAdjust="spacing" textLength="64" x="4377" y="641.3594">«root»</text><text fill="#000000" font-family="sans-serif" font-size="20" lengthAdjust="spacing" textLength="93" x="4362.5" y="664.6406">Interview</text></g><!--class InterviewDate--><g id="elem_InterviewDate"><rect codeLine="68" fill="#D6EAF8" height="56.5625" id="InterviewDate" rx="2.5" ry="2.5" style="stroke:#181818;stroke-width:0.5;" width="175" x="4236.5" y="759.5137"/><ellipse cx="4252.5" cy="787.7949" fill="#FF8B40" rx="12" ry="12" style="stroke:#181818;stroke-width:1.0;"/><path d="M4252.5156,793.6387 L4255.0781,781.4668 L4257.9844,781.4668 L4254.5156,796.0449 L4250.5313,796.0449 L4247.0625,781.4668 L4249.9531,781.4668 L4252.5156,793.6387 Z " fill="#000000"/><text fill="#000000" font-family="sans-serif" font-size="20" font-style="italic" lengthAdjust="spacing" textLength="145" x="4265.5" y="783.0781">«valueObject»</text><text fill="#000000" font-family="sans-serif" font-size="20" lengthAdjust="spacing" textLength="140" x="4268" y="806.3594">InterviewDate</text></g><!--class InterviewTime--><g id="elem_InterviewTime"><rect codeLine="69" fill="#D6EAF8" height="56.5625" id="InterviewTime" rx="2.5" ry="2.5" style="stroke:#181818;stroke-width:0.5;" width="177" x="4446.5" y="759.5137"/><ellipse cx="4462.5" cy="787.7949" fill="#FF8B40" rx="12" ry="12" style="stroke:#181818;stroke-width:1.0;"/><path d="M4462.5156,793.6387 L4465.0781,781.4668 L4467.9844,781.4668 L4464.5156,796.0449 L4460.5313,796.0449 L4457.0625,781.4668 L4459.9531,781.4668 L4462.5156,793.6387 Z " fill="#000000"/><text fill="#000000" font-family="sans-serif" font-size="20" font-style="italic" lengthAdjust="spacing" textLength="145" x="4476.5" y="783.0781">«valueObject»</text><text fill="#000000" font-family="sans-serif" font-size="20" lengthAdjust="spacing" textLength="143" x="4477.5" y="806.3594">InterviewTime</text></g><!--class PhoneNumber--><g id="elem_PhoneNumber"><rect codeLine="19" fill="#D6EAF8" height="56.5625" id="PhoneNumber" rx="2.5" ry="2.5" style="stroke:#181818;stroke-width:0.5;" width="177" x="1829.5" y="446.5137"/><ellipse cx="1845.5" cy="474.7949" fill="#FF8B40" rx="12" ry="12" style="stroke:#181818;stroke-width:1.0;"/><path d="M1845.5156,480.6387 L1848.0781,468.4668 L1850.9844,468.4668 L1847.5156,483.0449 L1843.5313,483.0449 L1840.0625,468.4668 L1842.9531,468.4668 L1845.5156,480.6387 Z " fill="#000000"/><text fill="#000000" font-family="sans-serif" font-size="20" font-style="italic" lengthAdjust="spacing" textLength="145" x="1859.5" y="470.0781">«valueObject»</text><text fill="#000000" font-family="sans-serif" font-size="20" lengthAdjust="spacing" textLength="143" x="1860.5" y="493.3594">PhoneNumber</text></g><!--class Email--><g id="elem_Email"><rect codeLine="20" fill="#D6EAF8" height="56.5625" id="Email" rx="2.5" ry="2.5" style="stroke:#181818;stroke-width:0.5;" width="175" x="2041.5" y="446.5137"/><ellipse cx="2057.5" cy="474.7949" fill="#FF8B40" rx="12" ry="12" style="stroke:#181818;stroke-width:1.0;"/><path d="M2057.5156,480.6387 L2060.0781,468.4668 L2062.9844,468.4668 L2059.5156,483.0449 L2055.5313,483.0449 L2052.0625,468.4668 L2054.9531,468.4668 L2057.5156,480.6387 Z " fill="#000000"/><text fill="#000000" font-family="sans-serif" font-size="20" font-style="italic" lengthAdjust="spacing" textLength="145" x="2070.5" y="470.0781">«valueObject»</text><text fill="#000000" font-family="sans-serif" font-size="20" lengthAdjust="spacing" textLength="57" x="2114.5" y="493.3594">Email</text></g><!--class CompanyName--><g id="elem_CompanyName"><rect codeLine="49" fill="#D6EAF8" height="56.5625" id="CompanyName" rx="2.5" ry="2.5" style="stroke:#181818;stroke-width:0.5;" width="188" x="3926" y="446.5137"/><ellipse cx="3942" cy="474.7949" fill="#FF8B40" rx="12" ry="12" style="stroke:#181818;stroke-width:1.0;"/><path d="M3942.0156,480.6387 L3944.5781,468.4668 L3947.4844,468.4668 L3944.0156,483.0449 L3940.0313,483.0449 L3936.5625,468.4668 L3939.4531,468.4668 L3942.0156,480.6387 Z " fill="#000000"/><text fill="#000000" font-family="sans-serif" font-size="20" font-style="italic" lengthAdjust="spacing" textLength="145" x="3961.5" y="470.0781">«valueObject»</text><text fill="#000000" font-family="sans-serif" font-size="20" lengthAdjust="spacing" textLength="154" x="3957" y="493.3594">CompanyName</text></g><!--class Address--><g id="elem_Address"><rect codeLine="72" fill="#D6EAF8" height="56.5625" id="Address" rx="2.5" ry="2.5" style="stroke:#181818;stroke-width:0.5;" width="175" x="4149.5" y="446.5137"/><ellipse cx="4165.5" cy="474.7949" fill="#FF8B40" rx="12" ry="12" style="stroke:#181818;stroke-width:1.0;"/><path d="M4165.5156,480.6387 L4168.0781,468.4668 L4170.9844,468.4668 L4167.5156,483.0449 L4163.5313,483.0449 L4160.0625,468.4668 L4162.9531,468.4668 L4165.5156,480.6387 Z " fill="#000000"/><text fill="#000000" font-family="sans-serif" font-size="20" font-style="italic" lengthAdjust="spacing" textLength="145" x="4178.5" y="470.0781">«valueObject»</text><text fill="#000000" font-family="sans-serif" font-size="20" lengthAdjust="spacing" textLength="80" x="4211" y="493.3594">Address</text></g><!--link JobOpening to JobReference--><g id="link_JobOpening_JobReference"><path codeLine="75" d="M3151.24,331.5437 C3010.95,348.9137 2701.64,390.3237 2445,446.5137 C2440.57,447.4837 2436.04,448.5137 2431.47,449.5837 " fill="none" id="JobOpening-to-JobReference" style="stroke:#000000;stroke-width:1.0;"/><polygon fill="#000000" points="2426.51,450.7537,2436.1869,452.586,2431.3771,449.6085,2434.3546,444.7986,2426.51,450.7537" style="stroke:#000000;stroke-width:1.0;"/><text fill="#000000" font-family="sans-serif" font-size="20" lengthAdjust="spacing" textLength="35" x="2723" y="411.0781">has</text><text fill="#000000" font-family="sans-serif" font-size="20" lengthAdjust="spacing" textLength="13" x="3130.3996" y="352.1811">1</text><text fill="#000000" font-family="sans-serif" font-size="20" lengthAdjust="spacing" textLength="13" x="2434.589" y="443.2759">1</text></g><!--link JobOpening to TitleOrFunction--><g id="link_JobOpening_TitleOrFunction"><path codeLine="76" d="M3151.37,338.0437 C3085.43,351.7137 2987.26,372.3637 2902,391.5137 C2798.61,414.7437 2773.04,421.7637 2670,446.5137 C2665.84,447.5137 2661.59,448.5337 2657.3,449.5737 " fill="none" id="JobOpening-to-TitleOrFunction" style="stroke:#000000;stroke-width:1.0;"/><polygon fill="#000000" points="2652.24,450.7937,2661.9258,452.5786,2657.1014,449.6247,2660.0553,444.8003,2652.24,450.7937" style="stroke:#000000;stroke-width:1.0;"/><text fill="#000000" font-family="sans-serif" font-size="20" lengthAdjust="spacing" textLength="35" x="2903" y="411.0781">has</text><text fill="#000000" font-family="sans-serif" font-size="20" lengthAdjust="spacing" textLength="13" x="3130.542" y="334.1084">1</text><text fill="#000000" font-family="sans-serif" font-size="20" lengthAdjust="spacing" textLength="13" x="2660.0295" y="443.6508">1</text></g><!--link JobOpening to ContractType--><g id="link_JobOpening_ContractType"><path codeLine="77" d="M3151.35,347.8737 C3071.63,374.5937 2946.25,416.6137 2862.38,444.7237 " fill="none" id="JobOpening-to-ContractType" style="stroke:#000000;stroke-width:1.0;"/><polygon fill="#000000" points="2857.41,446.3937,2867.2139,447.3335,2862.152,444.8082,2864.6772,439.7463,2857.41,446.3937" style="stroke:#000000;stroke-width:1.0;"/><text fill="#000000" font-family="sans-serif" font-size="20" lengthAdjust="spacing" textLength="35" x="3015" y="411.0781">has</text><text fill="#000000" font-family="sans-serif" font-size="20" lengthAdjust="spacing" textLength="13" x="3130.5201" y="370.0675">1</text><text fill="#000000" font-family="sans-serif" font-size="20" lengthAdjust="spacing" textLength="13" x="2860.0664" y="433.7575">1</text></g><!--link JobOpening to Mode--><g id="link_JobOpening_Mode"><path codeLine="78" d="M3164.68,361.5337 C3123.9,387.0537 3071.4,419.9237 3033.69,443.5337 " fill="none" id="JobOpening-to-Mode" style="stroke:#000000;stroke-width:1.0;"/><polygon fill="#000000" points="3029.16,446.3637,3038.9086,444.962,3033.3936,443.7034,3034.6522,438.1883,3029.16,446.3637" style="stroke:#000000;stroke-width:1.0;"/><text fill="#000000" font-family="sans-serif" font-size="20" lengthAdjust="spacing" textLength="35" x="3114" y="411.0781">has</text><text fill="#000000" font-family="sans-serif" font-size="20" lengthAdjust="spacing" textLength="13" x="3141.1419" y="388.0206">1</text><text fill="#000000" font-family="sans-serif" font-size="20" lengthAdjust="spacing" textLength="13" x="3023.9274" y="433.7213">1</text></g><!--link JobOpening to Address--><g id="link_JobOpening_Address"><path codeLine="79" d="M3302.75,329.0337 C3459.03,343.3237 3828.06,381.4437 4132,446.5137 C4136.11,447.3937 4140.29,448.3237 4144.51,449.3037 " fill="none" id="JobOpening-to-Address" style="stroke:#000000;stroke-width:1.0;"/><polygon fill="#000000" points="4149.48,450.4637,4141.6188,444.5305,4144.6097,449.3321,4139.8082,452.323,4149.48,450.4637" style="stroke:#000000;stroke-width:1.0;"/><text fill="#000000" font-family="sans-serif" font-size="20" lengthAdjust="spacing" textLength="35" x="3961" y="411.0781">has</text><text fill="#000000" font-family="sans-serif" font-size="20" lengthAdjust="spacing" textLength="13" x="3310.5895" y="349.4318">1</text><text fill="#000000" font-family="sans-serif" font-size="20" lengthAdjust="spacing" textLength="13" x="4128.4002" y="442.961">1</text></g><!--link JobOpening to CompanyName--><g id="link_JobOpening_CompanyName"><path codeLine="80" d="M3302.75,334.8437 C3428.64,355.6637 3688.68,400.0837 3907,446.5137 C3911.5,447.4737 3916.09,448.4737 3920.72,449.5037 " fill="none" id="JobOpening-to-CompanyName" style="stroke:#000000;stroke-width:1.0;"/><polygon fill="#000000" points="3925.76,450.6437,3917.842,444.7865,3920.8791,449.559,3916.1066,452.596,3925.76,450.6437" style="stroke:#000000;stroke-width:1.0;"/><text fill="#000000" font-family="sans-serif" font-size="20" lengthAdjust="spacing" textLength="35" x="3759" y="411.0781">has</text><text fill="#000000" font-family="sans-serif" font-size="20" lengthAdjust="spacing" textLength="13" x="3310.5895" y="330.6034">1</text><text fill="#000000" font-family="sans-serif" font-size="20" lengthAdjust="spacing" textLength="13" x="3905.0471" y="443.4893">1</text></g><!--link JobOpening to NumberOfVacancies--><g id="link_JobOpening_NumberOfVacancies"><path codeLine="81" d="M3227,361.5337 C3227,386.1437 3227,417.5837 3227,440.9737 " fill="none" id="JobOpening-to-NumberOfVacancies" style="stroke:#000000;stroke-width:1.0;"/><polygon fill="#000000" points="3227,446.1337,3231,437.1337,3227,441.1337,3223,437.1337,3227,446.1337" style="stroke:#000000;stroke-width:1.0;"/><text fill="#000000" font-family="sans-serif" font-size="20" lengthAdjust="spacing" textLength="35" x="3228" y="411.0781">has</text><text fill="#000000" font-family="sans-serif" font-size="20" lengthAdjust="spacing" textLength="13" x="3213.0047" y="388.0206">1</text><text fill="#000000" font-family="sans-serif" font-size="20" lengthAdjust="spacing" textLength="13" x="3212.7203" y="433.8191">1</text></g><!--link JobOpening to JobDescription--><g id="link_JobOpening_JobDescription"><path codeLine="82" d="M3289.84,361.5337 C3330.95,387.0537 3383.89,419.9237 3421.91,443.5337 " fill="none" id="JobOpening-to-JobDescription" style="stroke:#000000;stroke-width:1.0;"/><polygon fill="#000000" points="3426.47,446.3637,3420.9457,438.21,3422.226,443.7201,3416.7159,445.0004,3426.47,446.3637" style="stroke:#000000;stroke-width:1.0;"/><text fill="#000000" font-family="sans-serif" font-size="20" lengthAdjust="spacing" textLength="35" x="3379" y="411.0781">has</text><text fill="#000000" font-family="sans-serif" font-size="20" lengthAdjust="spacing" textLength="13" x="3285.4671" y="388.0206">1</text><text fill="#000000" font-family="sans-serif" font-size="20" lengthAdjust="spacing" textLength="13" x="3402.9451" y="433.7213">1</text></g><!--link JobOpening to RequirementSpecification--><g id="link_JobOpening_RequirementSpecification"><path codeLine="83" d="M3302.58,344.7037 C3393.01,371.2537 3544.66,415.7837 3644.27,445.0237 " fill="none" id="JobOpening-to-RequirementSpecification" style="stroke:#000000;stroke-width:1.0;"/><polygon fill="#000000" points="3649.27,446.4937,3641.7675,440.1131,3644.4739,445.0805,3639.5064,447.7869,3649.27,446.4937" style="stroke:#000000;stroke-width:1.0;"/><text fill="#000000" font-family="sans-serif" font-size="20" lengthAdjust="spacing" textLength="35" x="3547" y="411.0781">has</text><text fill="#000000" font-family="sans-serif" font-size="20" lengthAdjust="spacing" textLength="13" x="3310.4033" y="366.5954">1</text><text fill="#000000" font-family="sans-serif" font-size="20" lengthAdjust="spacing" textLength="13" x="3615.5976" y="433.8781">1</text></g><!--link JobOpening to Interview--><g id="link_JobOpening_Interview"><path codeLine="84" d="M3302.57,325.9137 C3540.72,337.2937 4264.41,377.3237 4342,446.5137 C4382.18,482.3337 4392.86,546.1237 4395.21,589.1137 " fill="none" id="JobOpening-to-Interview" style="stroke:#000000;stroke-width:1.0;"/><polygon fill="#000000" points="4395.46,594.2537,4399.0174,585.0697,4395.2167,589.2596,4391.0269,585.4589,4395.46,594.2537" style="stroke:#000000;stroke-width:1.0;"/><text fill="#000000" font-family="sans-serif" font-size="20" lengthAdjust="spacing" textLength="90" x="4387" y="482.0781">can have</text><text fill="#000000" font-family="sans-serif" font-size="20" lengthAdjust="spacing" textLength="13" x="3310.3923" y="320.8223">1</text><text fill="#000000" font-family="sans-serif" font-size="20" lengthAdjust="spacing" textLength="13" x="4381.5351" y="581.9259">1</text></g><!--link Candidate to FirstName--><g id="link_Candidate_FirstName"><path codeLine="87" d="M1652.92,361.5337 C1617.68,386.9537 1572.34,419.6637 1539.65,443.2437 " fill="none" id="Candidate-to-FirstName" style="stroke:#000000;stroke-width:1.0;"/><polygon fill="#000000" points="1535.32,446.3637,1544.9633,444.3618,1539.3809,443.4467,1540.2961,437.8643,1535.32,446.3637" style="stroke:#000000;stroke-width:1.0;"/><text fill="#000000" font-family="sans-serif" font-size="20" lengthAdjust="spacing" textLength="35" x="1610" y="411.0781">has</text><text fill="#000000" font-family="sans-serif" font-size="20" lengthAdjust="spacing" textLength="13" x="1630.6437" y="388.0206">1</text><text fill="#000000" font-family="sans-serif" font-size="20" lengthAdjust="spacing" textLength="13" x="1528.8829" y="433.7213">1</text></g><!--link Candidate to LastName--><g id="link_Candidate_LastName"><path codeLine="88" d="M1707,361.5337 C1707,386.1437 1707,417.5837 1707,440.9737 " fill="none" id="Candidate-to-LastName" style="stroke:#000000;stroke-width:1.0;"/><polygon fill="#000000" points="1707,446.1337,1711,437.1337,1707,441.1337,1703,437.1337,1707,446.1337" style="stroke:#000000;stroke-width:1.0;"/><text fill="#000000" font-family="sans-serif" font-size="20" lengthAdjust="spacing" textLength="35" x="1708" y="411.0781">has</text><text fill="#000000" font-family="sans-serif" font-size="20" lengthAdjust="spacing" textLength="13" x="1693.0047" y="388.0206">1</text><text fill="#000000" font-family="sans-serif" font-size="20" lengthAdjust="spacing" textLength="13" x="1692.7203" y="433.8191">1</text></g><!--link Candidate to PhoneNumber--><g id="link_Candidate_PhoneNumber"><path codeLine="89" d="M1761.34,361.5337 C1796.75,386.9537 1842.3,419.6637 1875.15,443.2437 " fill="none" id="Candidate-to-PhoneNumber" style="stroke:#000000;stroke-width:1.0;"/><polygon fill="#000000" points="1879.49,446.3637,1874.4998,437.8726,1875.4242,443.4534,1869.8434,444.3779,1879.49,446.3637" style="stroke:#000000;stroke-width:1.0;"/><text fill="#000000" font-family="sans-serif" font-size="20" lengthAdjust="spacing" textLength="35" x="1839" y="411.0781">has</text><text fill="#000000" font-family="sans-serif" font-size="20" lengthAdjust="spacing" textLength="13" x="1755.6655" y="388.0206">1</text><text fill="#000000" font-family="sans-serif" font-size="20" lengthAdjust="spacing" textLength="13" x="1857.2067" y="433.7213">1</text></g><!--link Candidate to Email--><g id="link_Candidate_Email"><path codeLine="90" d="M1775.74,347.1937 C1849.9,373.8137 1967.94,416.1937 2046.92,444.5437 " fill="none" id="Candidate-to-Email" style="stroke:#000000;stroke-width:1.0;"/><polygon fill="#000000" points="2052.06,446.3937,2044.9323,439.5969,2047.3519,444.7102,2042.2387,447.1298,2052.06,446.3937" style="stroke:#000000;stroke-width:1.0;"/><text fill="#000000" font-family="sans-serif" font-size="20" lengthAdjust="spacing" textLength="35" x="1970" y="411.0781">has</text><text fill="#000000" font-family="sans-serif" font-size="20" lengthAdjust="spacing" textLength="13" x="1783.4991" y="344.243">1</text><text fill="#000000" font-family="sans-serif" font-size="20" lengthAdjust="spacing" textLength="13" x="2021.8505" y="433.7575">1</text></g><!--link Rank to JobOpening--><g id="link_Rank_JobOpening"><path codeLine="93" d="M3227,166.5737 C3227,198.2537 3227,242.9137 3227,275.9837 " fill="none" id="Rank-to-JobOpening" style="stroke:#000000;stroke-width:1.0;"/><polygon fill="#000000" points="3227,281.1837,3231,272.1837,3227,276.1837,3223,272.1837,3227,281.1837" style="stroke:#000000;stroke-width:1.0;"/><text fill="#000000" font-family="sans-serif" font-size="20" lengthAdjust="spacing" textLength="27" x="3228" y="218.0781">for</text><text fill="#000000" font-family="sans-serif" font-size="20" lengthAdjust="spacing" textLength="13" x="3213.0047" y="193.0667">1</text><text fill="#000000" font-family="sans-serif" font-size="20" lengthAdjust="spacing" textLength="13" x="3213.0047" y="268.8452">1</text></g><!--link Application to ApplicationDate--><g id="link_Application_ApplicationDate"><path codeLine="96" d="M1188.02,166.5737 C1141.59,202.8537 1073.36,256.1637 1030.59,289.5737 " fill="none" id="Application-to-ApplicationDate" style="stroke:#000000;stroke-width:1.0;"/><polygon fill="#000000" points="1026.54,292.7437,1036.0981,290.3684,1030.4845,289.671,1031.1819,284.0573,1026.54,292.7437" style="stroke:#000000;stroke-width:1.0;"/><text fill="#000000" font-family="sans-serif" font-size="20" lengthAdjust="spacing" textLength="35" x="1145" y="218.0781">has</text><text fill="#000000" font-family="sans-serif" font-size="20" lengthAdjust="spacing" textLength="13" x="1166.3715" y="193.0667">1</text><text fill="#000000" font-family="sans-serif" font-size="20" lengthAdjust="spacing" textLength="13" x="1019.5295" y="280.0766">1</text></g><!--link Application to ApplicationNumber--><g id="link_Application_ApplicationNumber"><path codeLine="97" d="M1238,166.5737 C1238,202.1137 1238,254.0137 1238,287.5337 " fill="none" id="Application-to-ApplicationNumber" style="stroke:#000000;stroke-width:1.0;"/><polygon fill="#000000" points="1238,292.7437,1242,283.7437,1238,287.7437,1234,283.7437,1238,292.7437" style="stroke:#000000;stroke-width:1.0;"/><text fill="#000000" font-family="sans-serif" font-size="20" lengthAdjust="spacing" textLength="35" x="1239" y="218.0781">has</text><text fill="#000000" font-family="sans-serif" font-size="20" lengthAdjust="spacing" textLength="13" x="1224.0047" y="193.0667">1</text><text fill="#000000" font-family="sans-serif" font-size="20" lengthAdjust="spacing" textLength="13" x="1223.6594" y="280.0766">1</text></g><!--link Application to Result--><g id="link_Application_Result"><path codeLine="98" d="M1163.65,135.8037 C1086.47,147.2537 964.83,173.5037 876,231.5137 C853.63,246.1237 834.54,269.5537 821.35,288.7137 " fill="none" id="Application-to-Result" style="stroke:#000000;stroke-width:1.0;"/><polygon fill="#000000" points="818.46,292.9837,826.8221,287.7803,821.2665,288.8456,820.2011,283.2899,818.46,292.9837" style="stroke:#000000;stroke-width:1.0;"/><text fill="#000000" font-family="sans-serif" font-size="20" lengthAdjust="spacing" textLength="35" x="931" y="218.0781">has</text><text fill="#000000" font-family="sans-serif" font-size="20" lengthAdjust="spacing" textLength="13" x="1142.944" y="131.1783">1</text><text fill="#000000" font-family="sans-serif" font-size="20" lengthAdjust="spacing" textLength="38" x="779.9361" y="280.3661">0..1</text></g><!--link Application to JobOpening--><g id="link_Application_JobOpening"><path codeLine="99" d="M1312.04,134.6937 C1623.09,164.8837 2822.86,281.2937 3146.29,312.6837 " fill="none" id="Application-to-JobOpening" style="stroke:#000000;stroke-width:1.0;"/><polygon fill="#000000" points="3151.45,313.1837,3142.8803,308.3299,3146.4736,312.6989,3142.1046,316.2922,3151.45,313.1837" style="stroke:#000000;stroke-width:1.0;"/><text fill="#000000" font-family="sans-serif" font-size="20" lengthAdjust="spacing" textLength="27" x="2173" y="218.0781">for</text><text fill="#000000" font-family="sans-serif" font-size="20" lengthAdjust="spacing" textLength="13" x="1319.9682" y="129.9528">1</text><text fill="#000000" font-family="sans-serif" font-size="20" lengthAdjust="spacing" textLength="13" x="3130.3732" y="306.8176">1</text></g><!--link Application to Candidate--><g id="link_Application_Candidate"><path codeLine="100" d="M1312.06,157.9837 C1400.05,194.2037 1545.95,254.2437 1633.64,290.3237 " fill="none" id="Application-to-Candidate" style="stroke:#000000;stroke-width:1.0;"/><polygon fill="#000000" points="1638.29,292.2437,1631.4832,285.1256,1633.6645,290.345,1628.4452,292.5263,1638.29,292.2437" style="stroke:#000000;stroke-width:1.0;"/><text fill="#000000" font-family="sans-serif" font-size="20" lengthAdjust="spacing" textLength="47" x="1460" y="218.0781">from</text><text fill="#000000" font-family="sans-serif" font-size="20" lengthAdjust="spacing" textLength="13" x="1319.9901" y="155.5355">1</text><text fill="#000000" font-family="sans-serif" font-size="20" lengthAdjust="spacing" textLength="13" x="1617.534" y="283.6263">1</text></g><!--link Result to Outcome--><g id="link_Result_Outcome"><path codeLine="103" d="M745.13,333.5837 C640.07,354.2437 408.61,400.7437 215,446.5137 C210.91,447.4837 206.74,448.4837 202.54,449.5137 " fill="none" id="Result-to-Outcome" style="stroke:#000000;stroke-width:1.0;"/><polygon fill="#000000" points="197.58,450.7437,207.2767,452.4683,202.4341,449.5444,205.3579,444.7018,197.58,450.7437" style="stroke:#000000;stroke-width:1.0;"/><text fill="#000000" font-family="sans-serif" font-size="20" lengthAdjust="spacing" textLength="35" x="458" y="411.0781">has</text><text fill="#000000" font-family="sans-serif" font-size="20" lengthAdjust="spacing" textLength="13" x="724.4068" y="329.2614">1</text><text fill="#000000" font-family="sans-serif" font-size="20" lengthAdjust="spacing" textLength="13" x="205.371" y="443.3757">1</text></g><!--link Result to Justification--><g id="link_Result_Justification"><path codeLine="104" d="M851.1,350.1637 C859.28,354.2537 867.78,358.2037 876,361.5137 C929.7,383.1637 1075.34,423.5337 1172.38,449.5637 " fill="none" id="Result-to-Justification" style="stroke:#000000;stroke-width:1.0;"/><polygon fill="#000000" points="1177.25,450.8737,1169.5994,444.6714,1172.4219,449.5738,1167.5196,452.3964,1177.25,450.8737" style="stroke:#000000;stroke-width:1.0;"/><text fill="#000000" font-family="sans-serif" font-size="20" lengthAdjust="spacing" textLength="90" x="1050" y="411.0781">can have</text><text fill="#000000" font-family="sans-serif" font-size="20" lengthAdjust="spacing" textLength="13" x="845.9544" y="376.197">1</text><text fill="#000000" font-family="sans-serif" font-size="20" lengthAdjust="spacing" textLength="13" x="1156.4449" y="443.5164">1</text></g><!--link Interview to InterviewDate--><g id="link_Interview_InterviewDate"><path codeLine="107" d="M4376.72,674.5337 C4365.08,699.3537 4350.2,731.1137 4339.21,754.5537 " fill="none" id="Interview-to-InterviewDate" style="stroke:#000000;stroke-width:1.0;"/><polygon fill="#000000" points="4337.07,759.1337,4344.5018,752.6708,4339.1852,754.6031,4337.2529,749.2865,4337.07,759.1337" style="stroke:#000000;stroke-width:1.0;"/><text fill="#000000" font-family="sans-serif" font-size="20" lengthAdjust="spacing" textLength="35" x="4362" y="724.0781">has</text><text fill="#000000" font-family="sans-serif" font-size="20" lengthAdjust="spacing" textLength="13" x="4359.9256" y="701.0206">1</text><text fill="#000000" font-family="sans-serif" font-size="20" lengthAdjust="spacing" textLength="13" x="4325.3635" y="746.8191">1</text></g><!--link Interview to InterviewTime--><g id="link_Interview_InterviewTime"><path codeLine="108" d="M4431.05,674.5337 C4454.28,699.6637 4484.08,731.9137 4505.82,755.4337 " fill="none" id="Interview-to-InterviewTime" style="stroke:#000000;stroke-width:1.0;"/><polygon fill="#000000" points="4509.23,759.1337,4506.0692,749.8058,4505.8404,755.458,4500.1882,755.2292,4509.23,759.1337" style="stroke:#000000;stroke-width:1.0;"/><text fill="#000000" font-family="sans-serif" font-size="20" lengthAdjust="spacing" textLength="35" x="4482" y="724.0781">has</text><text fill="#000000" font-family="sans-serif" font-size="20" lengthAdjust="spacing" textLength="13" x="4422.5748" y="701.0206">1</text><text fill="#000000" font-family="sans-serif" font-size="20" lengthAdjust="spacing" textLength="13" x="4489.8768" y="746.8191">1</text></g><!--SRC=[dPPRJzim5CVVyociyi0c3TIo6wiYfDuY3J4w0UFTJKvRqyJE7AUeGtptENOJEo5D6dX1TNxdwh-FdMm8ZJ77KSZy3GGeW2LEG-4nAkx9Fq0NVSSHH8I0fYp2XA9VB80GdQ4_zuF-uBFZh4a02A9Ox504qG9uufmckLDqGoY8NGo8SR5cZcE- -25E4lJY8FatnlvcnLbAWmaB6NVTBGvJc2-Um1TNL-Xa-cqsyYxhKSwOOhpfR3pjrpC9y2tnGRaQU1UpSHqcNSoy7xFlwjk8S_QibyUXv9nNE_TOhk0Lr6UFJcPZxwitpanqaR_NZC9jcZK7LMjptG-FdsHextByfVzHBhoyxgrcijtXKRnpYkumtQ3HQiLXXGKuUO8zryNvecGpghVF6gZSrfqsT5tzI_dVDrJwLPudc0OaaFRjxWkq4iEuE118mRfgZ_14tE88ZghSsDtW3cQgi54SXyJ7WZ3QNfe5LugptHmepsut9F9qsM2vVClRL3UiInCiwmvoC_RpLFYiS-klqqIGfUd14OBDZ2cJzN6oMWl4bddeOP63ZobQG5OIPrivcEJ1keFC9mJ6F8IbiYwbC2n0nBIp14KIG6ky1OJHamsRKpfXKOpfxcWHIGbTimMQnq09NRLBo88h4f9VSY_j1qJ2Tx043jJlkb4FsHoVSo-b_j5RPQmdyahWs1SFsJZlPfhT6HrDj7xdoqSiXU0JkOKTHSaMKqXyJk9EfHR7z6zAE4JovtqClgrk- -0g4Voa8hjUuBbT0WLQ4O1nqRx_1VkE-L3OFf3Z9-L-j0G1XoHvpydW4Ahc9MiI9uubzjwWXyxEhjJ_ago7ygWU9AigReHBecqabKORYRm5BG7D56a4tmgy4Q_ekP4zfDvweu0zqzpI276e1d0sCSkFWF9ccdKxlhd3TSHwghYnco3xwTJ4wSUI9lBdK3bLjLJfQDw78LeoNdqJbCtjBoLHL2vidS8HTAceMhv_VgusKxqOcls-gUKGQBedESuYrImTeT8klMZRvZUpJgK6A3y4oWeooYh7CUksf_AGqm5RI3NIzWBu3m00]--></g></svg>