<?xml version="1.0" encoding="UTF-8" standalone="no"?><svg xmlns="http://www.w3.org/2000/svg" xmlns:xlink="http://www.w3.org/1999/xlink" contentStyleType="text/css" height="1030px" preserveAspectRatio="none" style="width:4894px;height:1030px;background:#FFFFFF;" version="1.1" viewBox="0 0 4894 1030" width="4894px" zoomAndPan="magnify"><defs/><g><text fill="#000000" font-family="sans-serif" font-size="14" font-weight="bold" lengthAdjust="spacing" textLength="187" x="2346.5" y="22.9951">Domain Model - US1013</text><!--cluster <<aggregate>> Rank--><g id="cluster_&lt;&lt;aggregate&gt;&gt; Rank"><path d="M8.5,44.5137 L216.5,44.5137 A3.75,3.75 0 0 1 219,47.0137 L226,73.7949 L227.5,73.7949 A2.5,2.5 0 0 1 230,76.2949 L230,361.5137 A2.5,2.5 0 0 1 227.5,364.0137 L8.5,364.0137 A2.5,2.5 0 0 1 6,361.5137 L6,47.0137 A2.5,2.5 0 0 1 8.5,44.5137 " fill="#EBF5FB" style="stroke:#000000;stroke-width:1.5;"/><line style="stroke:#000000;stroke-width:1.5;" x1="6" x2="226" y1="73.7949" y2="73.7949"/><text fill="#000000" font-family="sans-serif" font-size="20" font-weight="bold" lengthAdjust="spacing" textLength="207" x="10" y="65.0781">«aggregate» Rank</text></g><!--cluster <<aggregate>> Candidate--><g id="cluster_&lt;&lt;aggregate&gt;&gt; Candidate"><path d="M2043.5,430.5137 L2311.5,430.5137 A3.75,3.75 0 0 1 2314,433.0137 L2321,459.7949 L2456.5,459.7949 A2.5,2.5 0 0 1 2459,462.2949 L2459,708.0137 A2.5,2.5 0 0 1 2456.5,710.5137 L2043.5,710.5137 A2.5,2.5 0 0 1 2041,708.0137 L2041,433.0137 A2.5,2.5 0 0 1 2043.5,430.5137 " fill="#EBF5FB" style="stroke:#000000;stroke-width:1.5;"/><line style="stroke:#000000;stroke-width:1.5;" x1="2041" x2="2321" y1="459.7949" y2="459.7949"/><text fill="#000000" font-family="sans-serif" font-size="20" font-weight="bold" lengthAdjust="spacing" textLength="267" x="2045" y="451.0781">«aggregate» Candidate</text></g><!--cluster <<aggregate>> Application--><g id="cluster_&lt;&lt;aggregate&gt;&gt; Application"><path d="M256.5,237.5137 L536.5,237.5137 A3.75,3.75 0 0 1 539,240.0137 L546,266.7949 L1614.5,266.7949 A2.5,2.5 0 0 1 1617,269.2949 L1617,708.0137 A2.5,2.5 0 0 1 1614.5,710.5137 L256.5,710.5137 A2.5,2.5 0 0 1 254,708.0137 L254,240.0137 A2.5,2.5 0 0 1 256.5,237.5137 " fill="#EBF5FB" style="stroke:#000000;stroke-width:1.5;"/><line style="stroke:#000000;stroke-width:1.5;" x1="254" x2="546" y1="266.7949" y2="266.7949"/><text fill="#000000" font-family="sans-serif" font-size="20" font-weight="bold" lengthAdjust="spacing" textLength="279" x="258" y="258.0781">«aggregate» Application</text></g><!--cluster <<aggregate>> Job Opening--><g id="cluster_&lt;&lt;aggregate&gt;&gt; Job Opening"><path d="M2485.5,430.5137 L2773.5,430.5137 A3.75,3.75 0 0 1 2776,433.0137 L2783,459.7949 L4152.5,459.7949 A2.5,2.5 0 0 1 4155,462.2949 L4155,708.0137 A2.5,2.5 0 0 1 4152.5,710.5137 L2485.5,710.5137 A2.5,2.5 0 0 1 2483,708.0137 L2483,433.0137 A2.5,2.5 0 0 1 2485.5,430.5137 " fill="#EBF5FB" style="stroke:#000000;stroke-width:1.5;"/><line style="stroke:#000000;stroke-width:1.5;" x1="2483" x2="2783" y1="459.7949" y2="459.7949"/><text fill="#000000" font-family="sans-serif" font-size="20" font-weight="bold" lengthAdjust="spacing" textLength="287" x="2487" y="451.0781">«aggregate» Job Opening</text></g><!--cluster <<aggregate>> Interview--><g id="cluster_&lt;&lt;aggregate&gt;&gt; Interview"><path d="M4470.5,743.5137 L4729.5,743.5137 A3.75,3.75 0 0 1 4732,746.0137 L4739,772.7949 L4884.5,772.7949 A2.5,2.5 0 0 1 4887,775.2949 L4887,1021.0137 A2.5,2.5 0 0 1 4884.5,1023.5137 L4470.5,1023.5137 A2.5,2.5 0 0 1 4468,1021.0137 L4468,746.0137 A2.5,2.5 0 0 1 4470.5,743.5137 " fill="#EBF5FB" style="stroke:#000000;stroke-width:1.5;"/><line style="stroke:#000000;stroke-width:1.5;" x1="4468" x2="4739" y1="772.7949" y2="772.7949"/><text fill="#000000" font-family="sans-serif" font-size="20" font-weight="bold" lengthAdjust="spacing" textLength="258" x="4472" y="764.0781">«aggregate» Interview</text></g><!--class Rank--><g id="elem_Rank"><rect codeLine="24" fill="#FDEBD0" height="79.8438" id="Rank" rx="2.5" ry="2.5" style="stroke:#181818;stroke-width:0.5;" width="113" x="90.5" y="86.5137"/><ellipse cx="106.5" cy="126.4355" fill="#ADD1B2" rx="12" ry="12" style="stroke:#181818;stroke-width:1.0;"/><path d="M111.2188,133.9355 L102.1406,133.9355 L102.1406,119.3574 L111.2188,119.3574 L111.2188,121.8887 L105.0156,121.8887 L105.0156,125.0449 L110.6406,125.0449 L110.6406,127.5762 L105.0156,127.5762 L105.0156,131.3887 L111.2188,131.3887 L111.2188,133.9355 Z " fill="#000000"/><text fill="#000000" font-family="sans-serif" font-size="20" font-style="italic" lengthAdjust="spacing" textLength="83" x="119.5" y="110.0781">«entity»</text><text fill="#000000" font-family="sans-serif" font-size="20" font-style="italic" lengthAdjust="spacing" textLength="64" x="129" y="133.3594">«root»</text><text fill="#000000" font-family="sans-serif" font-size="20" lengthAdjust="spacing" textLength="51" x="135.5" y="156.6406">Rank</text></g><!--class RankPlacement--><g id="elem_RankPlacement"><rect codeLine="25" fill="#D6EAF8" height="56.5625" id="RankPlacement" rx="2.5" ry="2.5" style="stroke:#181818;stroke-width:0.5;" width="191" x="22.5" y="291.0137"/><ellipse cx="38.5" cy="319.2949" fill="#FF8B40" rx="12" ry="12" style="stroke:#181818;stroke-width:1.0;"/><path d="M38.5156,325.1387 L41.0781,312.9668 L43.9844,312.9668 L40.5156,327.5449 L36.5313,327.5449 L33.0625,312.9668 L35.9531,312.9668 L38.5156,325.1387 Z " fill="#000000"/><text fill="#000000" font-family="sans-serif" font-size="20" font-style="italic" lengthAdjust="spacing" textLength="145" x="59.5" y="314.5781">«valueObject»</text><text fill="#000000" font-family="sans-serif" font-size="20" lengthAdjust="spacing" textLength="157" x="53.5" y="337.8594">RankPlacement</text></g><!--class Candidate--><g id="elem_Candidate"><rect codeLine="30" fill="#FDEBD0" height="79.8438" id="Candidate" rx="2.5" ry="2.5" style="stroke:#181818;stroke-width:0.5;" width="137" x="2057.5" y="472.5137"/><ellipse cx="2073.5" cy="512.4355" fill="#ADD1B2" rx="12" ry="12" style="stroke:#181818;stroke-width:1.0;"/><path d="M2078.2188,519.9355 L2069.1406,519.9355 L2069.1406,505.3574 L2078.2188,505.3574 L2078.2188,507.8887 L2072.0156,507.8887 L2072.0156,511.0449 L2077.6406,511.0449 L2077.6406,513.5762 L2072.0156,513.5762 L2072.0156,517.3887 L2078.2188,517.3887 L2078.2188,519.9355 Z " fill="#000000"/><text fill="#000000" font-family="sans-serif" font-size="20" font-style="italic" lengthAdjust="spacing" textLength="83" x="2098.5" y="496.0781">«entity»</text><text fill="#000000" font-family="sans-serif" font-size="20" font-style="italic" lengthAdjust="spacing" textLength="64" x="2108" y="519.3594">«root»</text><text fill="#000000" font-family="sans-serif" font-size="20" lengthAdjust="spacing" textLength="103" x="2088.5" y="542.6406">Candidate</text></g><!--class FirstName--><g id="elem_FirstName"><rect codeLine="32" fill="#D6EAF8" height="56.5625" id="FirstName" rx="2.5" ry="2.5" style="stroke:#181818;stroke-width:0.5;" width="175" x="2057.5" y="637.5137"/><ellipse cx="2073.5" cy="665.7949" fill="#FF8B40" rx="12" ry="12" style="stroke:#181818;stroke-width:1.0;"/><path d="M2073.5156,671.6387 L2076.0781,659.4668 L2078.9844,659.4668 L2075.5156,674.0449 L2071.5313,674.0449 L2068.0625,659.4668 L2070.9531,659.4668 L2073.5156,671.6387 Z " fill="#000000"/><text fill="#000000" font-family="sans-serif" font-size="20" font-style="italic" lengthAdjust="spacing" textLength="145" x="2086.5" y="661.0781">«valueObject»</text><text fill="#000000" font-family="sans-serif" font-size="20" lengthAdjust="spacing" textLength="103" x="2107.5" y="684.3594">FirstName</text></g><!--class LastName--><g id="elem_LastName"><rect codeLine="33" fill="#D6EAF8" height="56.5625" id="LastName" rx="2.5" ry="2.5" style="stroke:#181818;stroke-width:0.5;" width="175" x="2267.5" y="637.5137"/><ellipse cx="2283.5" cy="665.7949" fill="#FF8B40" rx="12" ry="12" style="stroke:#181818;stroke-width:1.0;"/><path d="M2283.5156,671.6387 L2286.0781,659.4668 L2288.9844,659.4668 L2285.5156,674.0449 L2281.5313,674.0449 L2278.0625,659.4668 L2280.9531,659.4668 L2283.5156,671.6387 Z " fill="#000000"/><text fill="#000000" font-family="sans-serif" font-size="20" font-style="italic" lengthAdjust="spacing" textLength="145" x="2296.5" y="661.0781">«valueObject»</text><text fill="#000000" font-family="sans-serif" font-size="20" lengthAdjust="spacing" textLength="100" x="2319" y="684.3594">LastName</text></g><!--class Application--><g id="elem_Application"><rect codeLine="38" fill="#FDEBD0" height="79.8438" id="Application" rx="2.5" ry="2.5" style="stroke:#181818;stroke-width:0.5;" width="148" x="1288" y="279.5137"/><ellipse cx="1304" cy="319.4355" fill="#ADD1B2" rx="12" ry="12" style="stroke:#181818;stroke-width:1.0;"/><path d="M1308.7188,326.9355 L1299.6406,326.9355 L1299.6406,312.3574 L1308.7188,312.3574 L1308.7188,314.8887 L1302.5156,314.8887 L1302.5156,318.0449 L1308.1406,318.0449 L1308.1406,320.5762 L1302.5156,320.5762 L1302.5156,324.3887 L1308.7188,324.3887 L1308.7188,326.9355 Z " fill="#000000"/><text fill="#000000" font-family="sans-serif" font-size="20" font-style="italic" lengthAdjust="spacing" textLength="83" x="1334.5" y="303.0781">«entity»</text><text fill="#000000" font-family="sans-serif" font-size="20" font-style="italic" lengthAdjust="spacing" textLength="64" x="1344" y="326.3594">«root»</text><text fill="#000000" font-family="sans-serif" font-size="20" lengthAdjust="spacing" textLength="114" x="1319" y="349.6406">Application</text></g><!--class Result--><g id="elem_Result"><rect codeLine="39" fill="#FEF9E7" height="56.5625" id="Result" rx="2.5" ry="2.5" style="stroke:#181818;stroke-width:0.5;" width="113" x="993.5" y="484.0137"/><ellipse cx="1009.5" cy="512.2949" fill="#ADD1B2" rx="12" ry="12" style="stroke:#181818;stroke-width:1.0;"/><path d="M1014.2188,519.7949 L1005.1406,519.7949 L1005.1406,505.2168 L1014.2188,505.2168 L1014.2188,507.748 L1008.0156,507.748 L1008.0156,510.9043 L1013.6406,510.9043 L1013.6406,513.4355 L1008.0156,513.4355 L1008.0156,517.248 L1014.2188,517.248 L1014.2188,519.7949 Z " fill="#000000"/><text fill="#000000" font-family="sans-serif" font-size="20" font-style="italic" lengthAdjust="spacing" textLength="83" x="1022.5" y="507.5781">«entity»</text><text fill="#000000" font-family="sans-serif" font-size="20" lengthAdjust="spacing" textLength="63" x="1032.5" y="530.8594">Result</text></g><!--class ApplicationDate--><g id="elem_ApplicationDate"><rect codeLine="41" fill="#D6EAF8" height="56.5625" id="ApplicationDate" rx="2.5" ry="2.5" style="stroke:#181818;stroke-width:0.5;" width="195" x="1141.5" y="484.0137"/><ellipse cx="1157.5" cy="512.2949" fill="#FF8B40" rx="12" ry="12" style="stroke:#181818;stroke-width:1.0;"/><path d="M1157.5156,518.1387 L1160.0781,505.9668 L1162.9844,505.9668 L1159.5156,520.5449 L1155.5313,520.5449 L1152.0625,505.9668 L1154.9531,505.9668 L1157.5156,518.1387 Z " fill="#000000"/><text fill="#000000" font-family="sans-serif" font-size="20" font-style="italic" lengthAdjust="spacing" textLength="145" x="1180.5" y="507.5781">«valueObject»</text><text fill="#000000" font-family="sans-serif" font-size="20" lengthAdjust="spacing" textLength="161" x="1172.5" y="530.8594">ApplicationDate</text></g><!--class ApplicationNumber--><g id="elem_ApplicationNumber"><rect codeLine="42" fill="#D6EAF8" height="56.5625" id="ApplicationNumber" rx="2.5" ry="2.5" style="stroke:#181818;stroke-width:0.5;" width="229" x="1371.5" y="484.0137"/><ellipse cx="1387.5" cy="512.2949" fill="#FF8B40" rx="12" ry="12" style="stroke:#181818;stroke-width:1.0;"/><path d="M1387.5156,518.1387 L1390.0781,505.9668 L1392.9844,505.9668 L1389.5156,520.5449 L1385.5313,520.5449 L1382.0625,505.9668 L1384.9531,505.9668 L1387.5156,518.1387 Z " fill="#000000"/><text fill="#000000" font-family="sans-serif" font-size="20" font-style="italic" lengthAdjust="spacing" textLength="145" x="1427.5" y="507.5781">«valueObject»</text><text fill="#000000" font-family="sans-serif" font-size="20" lengthAdjust="spacing" textLength="195" x="1402.5" y="530.8594">ApplicationNumber</text></g><!--class Outcome--><g id="elem_Outcome"><rect codeLine="43" fill="#D6EAF8" height="56.5625" id="Outcome" rx="2.5" ry="2.5" style="stroke:#181818;stroke-width:0.5;" width="175" x="270.5" y="637.5137"/><ellipse cx="286.5" cy="665.7949" fill="#FF8B40" rx="12" ry="12" style="stroke:#181818;stroke-width:1.0;"/><path d="M286.5156,671.6387 L289.0781,659.4668 L291.9844,659.4668 L288.5156,674.0449 L284.5313,674.0449 L281.0625,659.4668 L283.9531,659.4668 L286.5156,671.6387 Z " fill="#000000"/><text fill="#000000" font-family="sans-serif" font-size="20" font-style="italic" lengthAdjust="spacing" textLength="145" x="299.5" y="661.0781">«valueObject»</text><text fill="#000000" font-family="sans-serif" font-size="20" lengthAdjust="spacing" textLength="92" x="326" y="684.3594">Outcome</text></g><!--class Justification--><g id="elem_Justification"><rect codeLine="44" fill="#D6EAF8" height="56.5625" id="Justification" rx="2.5" ry="2.5" style="stroke:#181818;stroke-width:0.5;" width="175" x="1425.5" y="637.5137"/><ellipse cx="1441.5" cy="665.7949" fill="#FF8B40" rx="12" ry="12" style="stroke:#181818;stroke-width:1.0;"/><path d="M1441.5156,671.6387 L1444.0781,659.4668 L1446.9844,659.4668 L1443.5156,674.0449 L1439.5313,674.0449 L1436.0625,659.4668 L1438.9531,659.4668 L1441.5156,671.6387 Z " fill="#000000"/><text fill="#000000" font-family="sans-serif" font-size="20" font-style="italic" lengthAdjust="spacing" textLength="145" x="1454.5" y="661.0781">«valueObject»</text><text fill="#000000" font-family="sans-serif" font-size="20" lengthAdjust="spacing" textLength="118" x="1468" y="684.3594">Justification</text></g><g id="elem_GMN18"><path d="M481,649.5137 L481,662.0137 L445.82,666.0137 L481,670.0137 L481,682.7949 A0,0 0 0 0 481,682.7949 L889,682.7949 A0,0 0 0 0 889,682.7949 L889,659.5137 L879,649.5137 L481,649.5137 A0,0 0 0 0 481,649.5137 " fill="#FEFFDD" style="stroke:#181818;stroke-width:0.5;"/><path d="M879,649.5137 L879,659.5137 L889,659.5137 L879,649.5137 " fill="#FEFFDD" style="stroke:#181818;stroke-width:0.5;"/><text fill="#000000" font-family="sans-serif" font-size="20" lengthAdjust="spacing" textLength="387" x="487" y="673.0781">Outcome can be Approved or Rejected</text></g><g id="elem_GMN21"><path d="M924,649.5137 L924,682.7949 A0,0 0 0 0 924,682.7949 L1390,682.7949 A0,0 0 0 0 1390,682.7949 L1390,670.0137 L1425.27,666.0137 L1390,662.0137 L1390,659.5137 L1380,649.5137 L924,649.5137 A0,0 0 0 0 924,649.5137 " fill="#FEFFDD" style="stroke:#181818;stroke-width:0.5;"/><path d="M1380,649.5137 L1380,659.5137 L1390,659.5137 L1380,649.5137 " fill="#FEFFDD" style="stroke:#181818;stroke-width:0.5;"/><text fill="#000000" font-family="sans-serif" font-size="20" lengthAdjust="spacing" textLength="445" x="930" y="673.0781">Rejected outcomes must have a justification</text></g><!--class JobOpening--><g id="elem_JobOpening"><rect codeLine="54" fill="#FDEBD0" height="79.8438" id="JobOpening" rx="2.5" ry="2.5" style="stroke:#181818;stroke-width:0.5;" width="151" x="3399.5" y="472.5137"/><ellipse cx="3415.5" cy="512.4355" fill="#ADD1B2" rx="12" ry="12" style="stroke:#181818;stroke-width:1.0;"/><path d="M3420.2188,519.9355 L3411.1406,519.9355 L3411.1406,505.3574 L3420.2188,505.3574 L3420.2188,507.8887 L3414.0156,507.8887 L3414.0156,511.0449 L3419.6406,511.0449 L3419.6406,513.5762 L3414.0156,513.5762 L3414.0156,517.3887 L3420.2188,517.3887 L3420.2188,519.9355 Z " fill="#000000"/><text fill="#000000" font-family="sans-serif" font-size="20" font-style="italic" lengthAdjust="spacing" textLength="83" x="3447.5" y="496.0781">«entity»</text><text fill="#000000" font-family="sans-serif" font-size="20" font-style="italic" lengthAdjust="spacing" textLength="64" x="3457" y="519.3594">«root»</text><text fill="#000000" font-family="sans-serif" font-size="20" lengthAdjust="spacing" textLength="117" x="3430.5" y="542.6406">JobOpening</text></g><!--class JobReference--><g id="elem_JobReference"><rect codeLine="56" fill="#D6EAF8" height="56.5625" id="JobReference" rx="2.5" ry="2.5" style="stroke:#181818;stroke-width:0.5;" width="175" x="2499.5" y="637.5137"/><ellipse cx="2515.5" cy="665.7949" fill="#FF8B40" rx="12" ry="12" style="stroke:#181818;stroke-width:1.0;"/><path d="M2515.5156,671.6387 L2518.0781,659.4668 L2520.9844,659.4668 L2517.5156,674.0449 L2513.5313,674.0449 L2510.0625,659.4668 L2512.9531,659.4668 L2515.5156,671.6387 Z " fill="#000000"/><text fill="#000000" font-family="sans-serif" font-size="20" font-style="italic" lengthAdjust="spacing" textLength="145" x="2528.5" y="661.0781">«valueObject»</text><text fill="#000000" font-family="sans-serif" font-size="20" lengthAdjust="spacing" textLength="132" x="2535" y="684.3594">JobReference</text></g><!--class TitleOrFunction--><g id="elem_TitleOrFunction"><rect codeLine="57" fill="#D6EAF8" height="56.5625" id="TitleOrFunction" rx="2.5" ry="2.5" style="stroke:#181818;stroke-width:0.5;" width="190" x="2710" y="637.5137"/><ellipse cx="2726" cy="665.7949" fill="#FF8B40" rx="12" ry="12" style="stroke:#181818;stroke-width:1.0;"/><path d="M2726.0156,671.6387 L2728.5781,659.4668 L2731.4844,659.4668 L2728.0156,674.0449 L2724.0313,674.0449 L2720.5625,659.4668 L2723.4531,659.4668 L2726.0156,671.6387 Z " fill="#000000"/><text fill="#000000" font-family="sans-serif" font-size="20" font-style="italic" lengthAdjust="spacing" textLength="145" x="2746.5" y="661.0781">«valueObject»</text><text fill="#000000" font-family="sans-serif" font-size="20" lengthAdjust="spacing" textLength="156" x="2741" y="684.3594">TitleOrFunction</text></g><!--class ContractType--><g id="elem_ContractType"><rect codeLine="58" fill="#D6EAF8" height="56.5625" id="ContractType" rx="2.5" ry="2.5" style="stroke:#181818;stroke-width:0.5;" width="175" x="2935.5" y="637.5137"/><ellipse cx="2951.5" cy="665.7949" fill="#FF8B40" rx="12" ry="12" style="stroke:#181818;stroke-width:1.0;"/><path d="M2951.5156,671.6387 L2954.0781,659.4668 L2956.9844,659.4668 L2953.5156,674.0449 L2949.5313,674.0449 L2946.0625,659.4668 L2948.9531,659.4668 L2951.5156,671.6387 Z " fill="#000000"/><text fill="#000000" font-family="sans-serif" font-size="20" font-style="italic" lengthAdjust="spacing" textLength="145" x="2964.5" y="661.0781">«valueObject»</text><text fill="#000000" font-family="sans-serif" font-size="20" lengthAdjust="spacing" textLength="134" x="2970" y="684.3594">ContractType</text></g><!--class Mode--><g id="elem_Mode"><rect codeLine="59" fill="#D6EAF8" height="56.5625" id="Mode" rx="2.5" ry="2.5" style="stroke:#181818;stroke-width:0.5;" width="175" x="3145.5" y="637.5137"/><ellipse cx="3161.5" cy="665.7949" fill="#FF8B40" rx="12" ry="12" style="stroke:#181818;stroke-width:1.0;"/><path d="M3161.5156,671.6387 L3164.0781,659.4668 L3166.9844,659.4668 L3163.5156,674.0449 L3159.5313,674.0449 L3156.0625,659.4668 L3158.9531,659.4668 L3161.5156,671.6387 Z " fill="#000000"/><text fill="#000000" font-family="sans-serif" font-size="20" font-style="italic" lengthAdjust="spacing" textLength="145" x="3174.5" y="661.0781">«valueObject»</text><text fill="#000000" font-family="sans-serif" font-size="20" lengthAdjust="spacing" textLength="54" x="3220" y="684.3594">Mode</text></g><!--class NumberOfVacancies--><g id="elem_NumberOfVacancies"><rect codeLine="60" fill="#D6EAF8" height="56.5625" id="NumberOfVacancies" rx="2.5" ry="2.5" style="stroke:#181818;stroke-width:0.5;" width="239" x="3355.5" y="637.5137"/><ellipse cx="3371.5" cy="665.7949" fill="#FF8B40" rx="12" ry="12" style="stroke:#181818;stroke-width:1.0;"/><path d="M3371.5156,671.6387 L3374.0781,659.4668 L3376.9844,659.4668 L3373.5156,674.0449 L3369.5313,674.0449 L3366.0625,659.4668 L3368.9531,659.4668 L3371.5156,671.6387 Z " fill="#000000"/><text fill="#000000" font-family="sans-serif" font-size="20" font-style="italic" lengthAdjust="spacing" textLength="145" x="3416.5" y="661.0781">«valueObject»</text><text fill="#000000" font-family="sans-serif" font-size="20" lengthAdjust="spacing" textLength="205" x="3386.5" y="684.3594">NumberOfVacancies</text></g><!--class JobDescription--><g id="elem_JobDescription"><rect codeLine="61" fill="#D6EAF8" height="56.5625" id="JobDescription" rx="2.5" ry="2.5" style="stroke:#181818;stroke-width:0.5;" width="179" x="3629.5" y="637.5137"/><ellipse cx="3645.5" cy="665.7949" fill="#FF8B40" rx="12" ry="12" style="stroke:#181818;stroke-width:1.0;"/><path d="M3645.5156,671.6387 L3648.0781,659.4668 L3650.9844,659.4668 L3647.5156,674.0449 L3643.5313,674.0449 L3640.0625,659.4668 L3642.9531,659.4668 L3645.5156,671.6387 Z " fill="#000000"/><text fill="#000000" font-family="sans-serif" font-size="20" font-style="italic" lengthAdjust="spacing" textLength="145" x="3660.5" y="661.0781">«valueObject»</text><text fill="#000000" font-family="sans-serif" font-size="20" lengthAdjust="spacing" textLength="145" x="3660.5" y="684.3594">JobDescription</text></g><!--class RequirementSpecification--><g id="elem_RequirementSpecification"><rect codeLine="62" fill="#FEF9E7" height="56.5625" id="RequirementSpecification" rx="2.5" ry="2.5" style="stroke:#181818;stroke-width:0.5;" width="295" x="3843.5" y="637.5137"/><ellipse cx="3859.5" cy="665.7949" fill="#ADD1B2" rx="12" ry="12" style="stroke:#181818;stroke-width:1.0;"/><path d="M3864.2188,673.2949 L3855.1406,673.2949 L3855.1406,658.7168 L3864.2188,658.7168 L3864.2188,661.248 L3858.0156,661.248 L3858.0156,664.4043 L3863.6406,664.4043 L3863.6406,666.9355 L3858.0156,666.9355 L3858.0156,670.748 L3864.2188,670.748 L3864.2188,673.2949 Z " fill="#000000"/><text fill="#000000" font-family="sans-serif" font-size="20" font-style="italic" lengthAdjust="spacing" textLength="83" x="3963.5" y="661.0781">«entity»</text><text fill="#000000" font-family="sans-serif" font-size="20" lengthAdjust="spacing" textLength="261" x="3874.5" y="684.3594">RequirementSpecification</text></g><!--class Interview--><g id="elem_Interview"><rect codeLine="67" fill="#FDEBD0" height="79.8438" id="Interview" rx="2.5" ry="2.5" style="stroke:#181818;stroke-width:0.5;" width="127" x="4579.5" y="785.5137"/><ellipse cx="4595.5" cy="825.4355" fill="#ADD1B2" rx="12" ry="12" style="stroke:#181818;stroke-width:1.0;"/><path d="M4600.2188,832.9355 L4591.1406,832.9355 L4591.1406,818.3574 L4600.2188,818.3574 L4600.2188,820.8887 L4594.0156,820.8887 L4594.0156,824.0449 L4599.6406,824.0449 L4599.6406,826.5762 L4594.0156,826.5762 L4594.0156,830.3887 L4600.2188,830.3887 L4600.2188,832.9355 Z " fill="#000000"/><text fill="#000000" font-family="sans-serif" font-size="20" font-style="italic" lengthAdjust="spacing" textLength="83" x="4615.5" y="809.0781">«entity»</text><text fill="#000000" font-family="sans-serif" font-size="20" font-style="italic" lengthAdjust="spacing" textLength="64" x="4625" y="832.3594">«root»</text><text fill="#000000" font-family="sans-serif" font-size="20" lengthAdjust="spacing" textLength="93" x="4610.5" y="855.6406">Interview</text></g><!--class InterviewDate--><g id="elem_InterviewDate"><rect codeLine="69" fill="#D6EAF8" height="56.5625" id="InterviewDate" rx="2.5" ry="2.5" style="stroke:#181818;stroke-width:0.5;" width="175" x="4484.5" y="950.5137"/><ellipse cx="4500.5" cy="978.7949" fill="#FF8B40" rx="12" ry="12" style="stroke:#181818;stroke-width:1.0;"/><path d="M4500.5156,984.6387 L4503.0781,972.4668 L4505.9844,972.4668 L4502.5156,987.0449 L4498.5313,987.0449 L4495.0625,972.4668 L4497.9531,972.4668 L4500.5156,984.6387 Z " fill="#000000"/><text fill="#000000" font-family="sans-serif" font-size="20" font-style="italic" lengthAdjust="spacing" textLength="145" x="4513.5" y="974.0781">«valueObject»</text><text fill="#000000" font-family="sans-serif" font-size="20" lengthAdjust="spacing" textLength="140" x="4516" y="997.3594">InterviewDate</text></g><!--class InterviewTime--><g id="elem_InterviewTime"><rect codeLine="70" fill="#D6EAF8" height="56.5625" id="InterviewTime" rx="2.5" ry="2.5" style="stroke:#181818;stroke-width:0.5;" width="177" x="4694.5" y="950.5137"/><ellipse cx="4710.5" cy="978.7949" fill="#FF8B40" rx="12" ry="12" style="stroke:#181818;stroke-width:1.0;"/><path d="M4710.5156,984.6387 L4713.0781,972.4668 L4715.9844,972.4668 L4712.5156,987.0449 L4708.5313,987.0449 L4705.0625,972.4668 L4707.9531,972.4668 L4710.5156,984.6387 Z " fill="#000000"/><text fill="#000000" font-family="sans-serif" font-size="20" font-style="italic" lengthAdjust="spacing" textLength="145" x="4724.5" y="974.0781">«valueObject»</text><text fill="#000000" font-family="sans-serif" font-size="20" lengthAdjust="spacing" textLength="143" x="4725.5" y="997.3594">InterviewTime</text></g><!--class PhoneNumber--><g id="elem_PhoneNumber"><rect codeLine="19" fill="#D6EAF8" height="56.5625" id="PhoneNumber" rx="2.5" ry="2.5" style="stroke:#181818;stroke-width:0.5;" width="177" x="1635.5" y="637.5137"/><ellipse cx="1651.5" cy="665.7949" fill="#FF8B40" rx="12" ry="12" style="stroke:#181818;stroke-width:1.0;"/><path d="M1651.5156,671.6387 L1654.0781,659.4668 L1656.9844,659.4668 L1653.5156,674.0449 L1649.5313,674.0449 L1646.0625,659.4668 L1648.9531,659.4668 L1651.5156,671.6387 Z " fill="#000000"/><text fill="#000000" font-family="sans-serif" font-size="20" font-style="italic" lengthAdjust="spacing" textLength="145" x="1665.5" y="661.0781">«valueObject»</text><text fill="#000000" font-family="sans-serif" font-size="20" lengthAdjust="spacing" textLength="143" x="1666.5" y="684.3594">PhoneNumber</text></g><!--class Email--><g id="elem_Email"><rect codeLine="20" fill="#D6EAF8" height="56.5625" id="Email" rx="2.5" ry="2.5" style="stroke:#181818;stroke-width:0.5;" width="175" x="1847.5" y="637.5137"/><ellipse cx="1863.5" cy="665.7949" fill="#FF8B40" rx="12" ry="12" style="stroke:#181818;stroke-width:1.0;"/><path d="M1863.5156,671.6387 L1866.0781,659.4668 L1868.9844,659.4668 L1865.5156,674.0449 L1861.5313,674.0449 L1858.0625,659.4668 L1860.9531,659.4668 L1863.5156,671.6387 Z " fill="#000000"/><text fill="#000000" font-family="sans-serif" font-size="20" font-style="italic" lengthAdjust="spacing" textLength="145" x="1876.5" y="661.0781">«valueObject»</text><text fill="#000000" font-family="sans-serif" font-size="20" lengthAdjust="spacing" textLength="57" x="1920.5" y="684.3594">Email</text></g><!--class CompanyName--><g id="elem_CompanyName"><rect codeLine="50" fill="#D6EAF8" height="56.5625" id="CompanyName" rx="2.5" ry="2.5" style="stroke:#181818;stroke-width:0.5;" width="188" x="4174" y="637.5137"/><ellipse cx="4190" cy="665.7949" fill="#FF8B40" rx="12" ry="12" style="stroke:#181818;stroke-width:1.0;"/><path d="M4190.0156,671.6387 L4192.5781,659.4668 L4195.4844,659.4668 L4192.0156,674.0449 L4188.0313,674.0449 L4184.5625,659.4668 L4187.4531,659.4668 L4190.0156,671.6387 Z " fill="#000000"/><text fill="#000000" font-family="sans-serif" font-size="20" font-style="italic" lengthAdjust="spacing" textLength="145" x="4209.5" y="661.0781">«valueObject»</text><text fill="#000000" font-family="sans-serif" font-size="20" lengthAdjust="spacing" textLength="154" x="4205" y="684.3594">CompanyName</text></g><!--class Address--><g id="elem_Address"><rect codeLine="73" fill="#D6EAF8" height="56.5625" id="Address" rx="2.5" ry="2.5" style="stroke:#181818;stroke-width:0.5;" width="175" x="4397.5" y="637.5137"/><ellipse cx="4413.5" cy="665.7949" fill="#FF8B40" rx="12" ry="12" style="stroke:#181818;stroke-width:1.0;"/><path d="M4413.5156,671.6387 L4416.0781,659.4668 L4418.9844,659.4668 L4415.5156,674.0449 L4411.5313,674.0449 L4408.0625,659.4668 L4410.9531,659.4668 L4413.5156,671.6387 Z " fill="#000000"/><text fill="#000000" font-family="sans-serif" font-size="20" font-style="italic" lengthAdjust="spacing" textLength="145" x="4426.5" y="661.0781">«valueObject»</text><text fill="#000000" font-family="sans-serif" font-size="20" lengthAdjust="spacing" textLength="80" x="4459" y="684.3594">Address</text></g><!--link JobOpening to JobReference--><g id="link_JobOpening_JobReference"><path codeLine="76" d="M3399.24,522.5437 C3258.95,539.9137 2949.64,581.3237 2693,637.5137 C2688.57,638.4837 2684.04,639.5137 2679.47,640.5837 " fill="none" id="JobOpening-to-JobReference" style="stroke:#000000;stroke-width:1.0;"/><polygon fill="#000000" points="2674.51,641.7537,2684.1869,643.586,2679.3771,640.6085,2682.3546,635.7986,2674.51,641.7537" style="stroke:#000000;stroke-width:1.0;"/><text fill="#000000" font-family="sans-serif" font-size="20" lengthAdjust="spacing" textLength="35" x="2971" y="602.0781">has</text><text fill="#000000" font-family="sans-serif" font-size="20" lengthAdjust="spacing" textLength="13" x="3378.3996" y="543.1811">1</text><text fill="#000000" font-family="sans-serif" font-size="20" lengthAdjust="spacing" textLength="13" x="2682.589" y="634.2759">1</text></g><!--link JobOpening to TitleOrFunction--><g id="link_JobOpening_TitleOrFunction"><path codeLine="77" d="M3399.37,529.0437 C3333.43,542.7137 3235.26,563.3637 3150,582.5137 C3046.61,605.7437 3021.04,612.7637 2918,637.5137 C2913.84,638.5137 2909.59,639.5337 2905.3,640.5737 " fill="none" id="JobOpening-to-TitleOrFunction" style="stroke:#000000;stroke-width:1.0;"/><polygon fill="#000000" points="2900.24,641.7937,2909.9258,643.5786,2905.1014,640.6247,2908.0553,635.8003,2900.24,641.7937" style="stroke:#000000;stroke-width:1.0;"/><text fill="#000000" font-family="sans-serif" font-size="20" lengthAdjust="spacing" textLength="35" x="3151" y="602.0781">has</text><text fill="#000000" font-family="sans-serif" font-size="20" lengthAdjust="spacing" textLength="13" x="3378.542" y="525.1084">1</text><text fill="#000000" font-family="sans-serif" font-size="20" lengthAdjust="spacing" textLength="13" x="2908.0295" y="634.6508">1</text></g><!--link JobOpening to ContractType--><g id="link_JobOpening_ContractType"><path codeLine="78" d="M3399.35,538.8737 C3319.63,565.5937 3194.25,607.6137 3110.38,635.7237 " fill="none" id="JobOpening-to-ContractType" style="stroke:#000000;stroke-width:1.0;"/><polygon fill="#000000" points="3105.41,637.3937,3115.2139,638.3335,3110.152,635.8082,3112.6772,630.7463,3105.41,637.3937" style="stroke:#000000;stroke-width:1.0;"/><text fill="#000000" font-family="sans-serif" font-size="20" lengthAdjust="spacing" textLength="35" x="3263" y="602.0781">has</text><text fill="#000000" font-family="sans-serif" font-size="20" lengthAdjust="spacing" textLength="13" x="3378.5201" y="561.0675">1</text><text fill="#000000" font-family="sans-serif" font-size="20" lengthAdjust="spacing" textLength="13" x="3108.0664" y="624.7575">1</text></g><!--link JobOpening to Mode--><g id="link_JobOpening_Mode"><path codeLine="79" d="M3412.68,552.5337 C3371.9,578.0537 3319.4,610.9237 3281.69,634.5337 " fill="none" id="JobOpening-to-Mode" style="stroke:#000000;stroke-width:1.0;"/><polygon fill="#000000" points="3277.16,637.3637,3286.9086,635.962,3281.3936,634.7034,3282.6522,629.1883,3277.16,637.3637" style="stroke:#000000;stroke-width:1.0;"/><text fill="#000000" font-family="sans-serif" font-size="20" lengthAdjust="spacing" textLength="35" x="3362" y="602.0781">has</text><text fill="#000000" font-family="sans-serif" font-size="20" lengthAdjust="spacing" textLength="13" x="3389.1419" y="579.0206">1</text><text fill="#000000" font-family="sans-serif" font-size="20" lengthAdjust="spacing" textLength="13" x="3271.9274" y="624.7213">1</text></g><!--link JobOpening to Address--><g id="link_JobOpening_Address"><path codeLine="80" d="M3550.75,520.0337 C3707.03,534.3237 4076.06,572.4437 4380,637.5137 C4384.11,638.3937 4388.29,639.3237 4392.51,640.3037 " fill="none" id="JobOpening-to-Address" style="stroke:#000000;stroke-width:1.0;"/><polygon fill="#000000" points="4397.48,641.4637,4389.6188,635.5305,4392.6097,640.3321,4387.8082,643.323,4397.48,641.4637" style="stroke:#000000;stroke-width:1.0;"/><text fill="#000000" font-family="sans-serif" font-size="20" lengthAdjust="spacing" textLength="35" x="4209" y="602.0781">has</text><text fill="#000000" font-family="sans-serif" font-size="20" lengthAdjust="spacing" textLength="13" x="3558.5895" y="540.4318">1</text><text fill="#000000" font-family="sans-serif" font-size="20" lengthAdjust="spacing" textLength="13" x="4376.4002" y="633.961">1</text></g><!--link JobOpening to CompanyName--><g id="link_JobOpening_CompanyName"><path codeLine="81" d="M3550.75,525.8437 C3676.64,546.6637 3936.68,591.0837 4155,637.5137 C4159.5,638.4737 4164.09,639.4737 4168.72,640.5037 " fill="none" id="JobOpening-to-CompanyName" style="stroke:#000000;stroke-width:1.0;"/><polygon fill="#000000" points="4173.76,641.6437,4165.842,635.7865,4168.8791,640.559,4164.1066,643.596,4173.76,641.6437" style="stroke:#000000;stroke-width:1.0;"/><text fill="#000000" font-family="sans-serif" font-size="20" lengthAdjust="spacing" textLength="35" x="4007" y="602.0781">has</text><text fill="#000000" font-family="sans-serif" font-size="20" lengthAdjust="spacing" textLength="13" x="3558.5895" y="521.6034">1</text><text fill="#000000" font-family="sans-serif" font-size="20" lengthAdjust="spacing" textLength="13" x="4153.0471" y="634.4893">1</text></g><!--link JobOpening to NumberOfVacancies--><g id="link_JobOpening_NumberOfVacancies"><path codeLine="82" d="M3475,552.5337 C3475,577.1437 3475,608.5837 3475,631.9737 " fill="none" id="JobOpening-to-NumberOfVacancies" style="stroke:#000000;stroke-width:1.0;"/><polygon fill="#000000" points="3475,637.1337,3479,628.1337,3475,632.1337,3471,628.1337,3475,637.1337" style="stroke:#000000;stroke-width:1.0;"/><text fill="#000000" font-family="sans-serif" font-size="20" lengthAdjust="spacing" textLength="35" x="3476" y="602.0781">has</text><text fill="#000000" font-family="sans-serif" font-size="20" lengthAdjust="spacing" textLength="13" x="3461.0047" y="579.0206">1</text><text fill="#000000" font-family="sans-serif" font-size="20" lengthAdjust="spacing" textLength="13" x="3460.7203" y="624.8191">1</text></g><!--link JobOpening to JobDescription--><g id="link_JobOpening_JobDescription"><path codeLine="83" d="M3537.84,552.5337 C3578.95,578.0537 3631.89,610.9237 3669.91,634.5337 " fill="none" id="JobOpening-to-JobDescription" style="stroke:#000000;stroke-width:1.0;"/><polygon fill="#000000" points="3674.47,637.3637,3668.9457,629.21,3670.226,634.7201,3664.7159,636.0004,3674.47,637.3637" style="stroke:#000000;stroke-width:1.0;"/><text fill="#000000" font-family="sans-serif" font-size="20" lengthAdjust="spacing" textLength="35" x="3627" y="602.0781">has</text><text fill="#000000" font-family="sans-serif" font-size="20" lengthAdjust="spacing" textLength="13" x="3533.4671" y="579.0206">1</text><text fill="#000000" font-family="sans-serif" font-size="20" lengthAdjust="spacing" textLength="13" x="3650.9451" y="624.7213">1</text></g><!--link JobOpening to RequirementSpecification--><g id="link_JobOpening_RequirementSpecification"><path codeLine="84" d="M3550.58,535.7037 C3641.01,562.2537 3792.66,606.7837 3892.27,636.0237 " fill="none" id="JobOpening-to-RequirementSpecification" style="stroke:#000000;stroke-width:1.0;"/><polygon fill="#000000" points="3897.27,637.4937,3889.7675,631.1131,3892.4739,636.0805,3887.5064,638.7869,3897.27,637.4937" style="stroke:#000000;stroke-width:1.0;"/><text fill="#000000" font-family="sans-serif" font-size="20" lengthAdjust="spacing" textLength="35" x="3795" y="602.0781">has</text><text fill="#000000" font-family="sans-serif" font-size="20" lengthAdjust="spacing" textLength="13" x="3558.4033" y="557.5954">1</text><text fill="#000000" font-family="sans-serif" font-size="20" lengthAdjust="spacing" textLength="13" x="3863.5976" y="624.8781">1</text></g><!--link JobOpening to Interview--><g id="link_JobOpening_Interview"><path codeLine="85" d="M3550.57,516.9137 C3788.72,528.2937 4512.41,568.3237 4590,637.5137 C4630.18,673.3337 4640.86,737.1237 4643.21,780.1137 " fill="none" id="JobOpening-to-Interview" style="stroke:#000000;stroke-width:1.0;"/><polygon fill="#000000" points="4643.46,785.2537,4647.0174,776.0697,4643.2167,780.2596,4639.0269,776.4589,4643.46,785.2537" style="stroke:#000000;stroke-width:1.0;"/><text fill="#000000" font-family="sans-serif" font-size="20" lengthAdjust="spacing" textLength="90" x="4635" y="673.0781">can have</text><text fill="#000000" font-family="sans-serif" font-size="20" lengthAdjust="spacing" textLength="13" x="3558.3923" y="511.8223">1</text><text fill="#000000" font-family="sans-serif" font-size="20" lengthAdjust="spacing" textLength="13" x="4629.5351" y="772.9259">1</text></g><!--link Candidate to FirstName--><g id="link_Candidate_FirstName"><path codeLine="88" d="M2130.89,552.5337 C2133.98,577.1437 2137.92,608.5837 2140.86,631.9737 " fill="none" id="Candidate-to-FirstName" style="stroke:#000000;stroke-width:1.0;"/><polygon fill="#000000" points="2141.5,637.1337,2144.3661,627.7111,2140.8868,632.1714,2136.4265,628.6921,2141.5,637.1337" style="stroke:#000000;stroke-width:1.0;"/><text fill="#000000" font-family="sans-serif" font-size="20" lengthAdjust="spacing" textLength="35" x="2138" y="602.0781">has</text><text fill="#000000" font-family="sans-serif" font-size="20" lengthAdjust="spacing" textLength="13" x="2117.6435" y="579.0206">1</text><text fill="#000000" font-family="sans-serif" font-size="20" lengthAdjust="spacing" textLength="13" x="2126.5313" y="624.8191">1</text></g><!--link Candidate to LastName--><g id="link_Candidate_LastName"><path codeLine="89" d="M2184.97,552.5337 C2223.56,578.0537 2273.24,610.9237 2308.93,634.5337 " fill="none" id="Candidate-to-LastName" style="stroke:#000000;stroke-width:1.0;"/><polygon fill="#000000" points="2313.21,637.3637,2307.9074,629.0641,2309.0388,634.6067,2303.4962,635.738,2313.21,637.3637" style="stroke:#000000;stroke-width:1.0;"/><text fill="#000000" font-family="sans-serif" font-size="20" lengthAdjust="spacing" textLength="35" x="2268" y="602.0781">has</text><text fill="#000000" font-family="sans-serif" font-size="20" lengthAdjust="spacing" textLength="13" x="2180.0045" y="579.0206">1</text><text fill="#000000" font-family="sans-serif" font-size="20" lengthAdjust="spacing" textLength="13" x="2290.2502" y="624.7213">1</text></g><!--link Candidate to PhoneNumber--><g id="link_Candidate_PhoneNumber"><path codeLine="90" d="M2057.35,539.3837 C1986.47,566.0937 1876.07,607.7037 1801.95,635.6337 " fill="none" id="Candidate-to-PhoneNumber" style="stroke:#000000;stroke-width:1.0;"/><polygon fill="#000000" points="1797.13,637.4537,1806.9615,638.0389,1801.8116,635.6981,1804.1525,630.5482,1797.13,637.4537" style="stroke:#000000;stroke-width:1.0;"/><text fill="#000000" font-family="sans-serif" font-size="20" lengthAdjust="spacing" textLength="35" x="1938" y="602.0781">has</text><text fill="#000000" font-family="sans-serif" font-size="20" lengthAdjust="spacing" textLength="13" x="2036.6002" y="536.5557">1</text><text fill="#000000" font-family="sans-serif" font-size="20" lengthAdjust="spacing" textLength="13" x="1797.8724" y="624.8299">1</text></g><!--link Candidate to Email--><g id="link_Candidate_Email"><path codeLine="91" d="M2076.81,552.5337 C2044.76,577.9537 2003.53,610.6637 1973.79,634.2437 " fill="none" id="Candidate-to-Email" style="stroke:#000000;stroke-width:1.0;"/><polygon fill="#000000" points="1969.86,637.3637,1979.4031,634.9287,1973.7851,634.2664,1974.4474,628.6484,1969.86,637.3637" style="stroke:#000000;stroke-width:1.0;"/><text fill="#000000" font-family="sans-serif" font-size="20" lengthAdjust="spacing" textLength="35" x="2037" y="602.0781">has</text><text fill="#000000" font-family="sans-serif" font-size="20" lengthAdjust="spacing" textLength="13" x="2055.2825" y="579.0206">1</text><text fill="#000000" font-family="sans-serif" font-size="20" lengthAdjust="spacing" textLength="13" x="1962.7092" y="624.7213">1</text></g><!--link Rank to Application--><g id="link_Rank_Application"><path codeLine="94" d="M203.57,136.4037 C400.29,167.3337 1054.96,270.2437 1282.92,306.0837 " fill="none" id="Rank-to-Application" style="stroke:#000000;stroke-width:1.0;"/><polygon fill="#000000" points="1287.89,306.8637,1279.632,301.4967,1282.9524,306.0765,1278.3725,309.3969,1287.89,306.8637" style="stroke:#000000;stroke-width:1.0;"/><text fill="#000000" font-family="sans-serif" font-size="20" lengthAdjust="spacing" textLength="27" x="720" y="216.0781">for</text><text fill="#000000" font-family="sans-serif" font-size="20" lengthAdjust="spacing" textLength="13" x="211.6508" y="131.7899">1</text><text fill="#000000" font-family="sans-serif" font-size="20" lengthAdjust="spacing" textLength="13" x="1266.955" y="300.0724">1</text></g><!--link Rank to RankPlacement--><g id="link_Rank_RankPlacement"><path codeLine="95" d="M141.06,166.6237 C135.73,201.7437 127.99,252.7137 122.98,285.7437 " fill="none" id="Rank-to-RankPlacement" style="stroke:#000000;stroke-width:1.0;"/><polygon fill="#000000" points="122.2,290.8837,127.5166,282.5931,122.9571,285.9413,119.6088,281.3818,122.2,290.8837" style="stroke:#000000;stroke-width:1.0;"/><text fill="#000000" font-family="sans-serif" font-size="20" lengthAdjust="spacing" textLength="35" x="137" y="216.0781">has</text><text fill="#000000" font-family="sans-serif" font-size="20" lengthAdjust="spacing" textLength="13" x="126.2329" y="192.8005">1</text><text fill="#000000" font-family="sans-serif" font-size="20" lengthAdjust="spacing" textLength="13" x="108.7256" y="278.2454">1</text></g><!--link Application to ApplicationDate--><g id="link_Application_ApplicationDate"><path codeLine="99" d="M1336.81,359.6237 C1314.01,395.0337 1280.83,446.5537 1259.58,479.5537 " fill="none" id="Application-to-ApplicationDate" style="stroke:#000000;stroke-width:1.0;"/><polygon fill="#000000" points="1256.79,483.8837,1265.0215,478.4761,1259.4938,479.6778,1258.2921,474.15,1256.79,483.8837" style="stroke:#000000;stroke-width:1.0;"/><text fill="#000000" font-family="sans-serif" font-size="20" lengthAdjust="spacing" textLength="35" x="1316" y="409.0781">has</text><text fill="#000000" font-family="sans-serif" font-size="20" lengthAdjust="spacing" textLength="13" x="1319.1555" y="385.8005">1</text><text fill="#000000" font-family="sans-serif" font-size="20" lengthAdjust="spacing" textLength="13" x="1246.1186" y="471.2454">1</text></g><!--link Application to ApplicationNumber--><g id="link_Application_ApplicationNumber"><path codeLine="100" d="M1387.39,359.6237 C1410.38,395.0337 1443.83,446.5537 1465.25,479.5537 " fill="none" id="Application-to-ApplicationNumber" style="stroke:#000000;stroke-width:1.0;"/><polygon fill="#000000" points="1468.06,483.8837,1466.5112,474.1574,1465.3361,479.6908,1459.8026,478.5157,1468.06,483.8837" style="stroke:#000000;stroke-width:1.0;"/><text fill="#000000" font-family="sans-serif" font-size="20" lengthAdjust="spacing" textLength="35" x="1421" y="409.0781">has</text><text fill="#000000" font-family="sans-serif" font-size="20" lengthAdjust="spacing" textLength="13" x="1377.1645" y="385.8005">1</text><text fill="#000000" font-family="sans-serif" font-size="20" lengthAdjust="spacing" textLength="13" x="1450.0192" y="471.2454">1</text></g><!--link Application to Result--><g id="link_Application_Result"><path codeLine="101" d="M1287.8,342.1737 C1238.29,358.9637 1173.45,385.6137 1124,422.5137 C1103.04,438.1537 1084.26,460.8937 1070.87,479.4737 " fill="none" id="Application-to-Result" style="stroke:#000000;stroke-width:1.0;"/><polygon fill="#000000" points="1067.92,483.6137,1076.3994,478.6038,1070.8208,479.5411,1069.8834,473.9625,1067.92,483.6137" style="stroke:#000000;stroke-width:1.0;"/><text fill="#000000" font-family="sans-serif" font-size="20" lengthAdjust="spacing" textLength="35" x="1172" y="409.0781">has</text><text fill="#000000" font-family="sans-serif" font-size="20" lengthAdjust="spacing" textLength="13" x="1267.1083" y="338.8227">1</text><text fill="#000000" font-family="sans-serif" font-size="20" lengthAdjust="spacing" textLength="38" x="1029.7074" y="471.2951">0..1</text></g><!--link Application to JobOpening--><g id="link_Application_JobOpening"><path codeLine="102" d="M1436.27,327.2237 C1761.19,356.5937 3056.3,473.6637 3394.09,504.2037 " fill="none" id="Application-to-JobOpening" style="stroke:#000000;stroke-width:1.0;"/><polygon fill="#000000" points="3399.48,504.6837,3390.8828,499.8786,3394.5009,504.2271,3390.1524,507.8452,3399.48,504.6837" style="stroke:#000000;stroke-width:1.0;"/><text fill="#000000" font-family="sans-serif" font-size="20" lengthAdjust="spacing" textLength="27" x="2356" y="409.0781">for</text><text fill="#000000" font-family="sans-serif" font-size="20" lengthAdjust="spacing" textLength="13" x="1443.9684" y="322.4477">1</text><text fill="#000000" font-family="sans-serif" font-size="20" lengthAdjust="spacing" textLength="13" x="3378.4062" y="498.3669">1</text></g><!--link Application to Candidate--><g id="link_Application_Candidate"><path codeLine="103" d="M1436.3,339.0837 C1582.59,375.6637 1906.37,456.6037 2052.23,493.0737 " fill="none" id="Application-to-Candidate" style="stroke:#000000;stroke-width:1.0;"/><polygon fill="#000000" points="2057.34,494.3537,2049.5831,488.2849,2052.4901,493.1376,2047.6374,496.0447,2057.34,494.3537" style="stroke:#000000;stroke-width:1.0;"/><text fill="#000000" font-family="sans-serif" font-size="20" lengthAdjust="spacing" textLength="47" x="1722" y="409.0781">from</text><text fill="#000000" font-family="sans-serif" font-size="20" lengthAdjust="spacing" textLength="13" x="1444.0013" y="335.4381">1</text><text fill="#000000" font-family="sans-serif" font-size="20" lengthAdjust="spacing" textLength="13" x="2036.5891" y="486.882">1</text></g><!--link Result to Outcome--><g id="link_Result_Outcome"><path codeLine="106" d="M993.13,524.5837 C888.07,545.2437 656.61,591.7437 463,637.5137 C458.91,638.4837 454.74,639.4837 450.54,640.5137 " fill="none" id="Result-to-Outcome" style="stroke:#000000;stroke-width:1.0;"/><polygon fill="#000000" points="445.58,641.7437,455.2767,643.4683,450.4341,640.5444,453.3579,635.7018,445.58,641.7437" style="stroke:#000000;stroke-width:1.0;"/><text fill="#000000" font-family="sans-serif" font-size="20" lengthAdjust="spacing" textLength="35" x="706" y="602.0781">has</text><text fill="#000000" font-family="sans-serif" font-size="20" lengthAdjust="spacing" textLength="13" x="972.4068" y="520.2614">1</text><text fill="#000000" font-family="sans-serif" font-size="20" lengthAdjust="spacing" textLength="13" x="453.371" y="634.3757">1</text></g><!--link Result to Justification--><g id="link_Result_Justification"><path codeLine="107" d="M1099.1,541.1637 C1107.28,545.2537 1115.78,549.2037 1124,552.5137 C1177.7,574.1637 1323.34,614.5337 1420.38,640.5637 " fill="none" id="Result-to-Justification" style="stroke:#000000;stroke-width:1.0;"/><polygon fill="#000000" points="1425.25,641.8737,1417.5994,635.6714,1420.4219,640.5738,1415.5196,643.3964,1425.25,641.8737" style="stroke:#000000;stroke-width:1.0;"/><text fill="#000000" font-family="sans-serif" font-size="20" lengthAdjust="spacing" textLength="90" x="1297" y="602.0781">can have</text><text fill="#000000" font-family="sans-serif" font-size="20" lengthAdjust="spacing" textLength="13" x="1093.9544" y="567.197">1</text><text fill="#000000" font-family="sans-serif" font-size="20" lengthAdjust="spacing" textLength="13" x="1404.4449" y="634.5164">1</text></g><!--link Interview to InterviewDate--><g id="link_Interview_InterviewDate"><path codeLine="110" d="M4624.72,865.5337 C4613.08,890.3537 4598.2,922.1137 4587.21,945.5537 " fill="none" id="Interview-to-InterviewDate" style="stroke:#000000;stroke-width:1.0;"/><polygon fill="#000000" points="4585.07,950.1337,4592.5018,943.6708,4587.1852,945.6031,4585.2529,940.2865,4585.07,950.1337" style="stroke:#000000;stroke-width:1.0;"/><text fill="#000000" font-family="sans-serif" font-size="20" lengthAdjust="spacing" textLength="35" x="4610" y="915.0781">has</text><text fill="#000000" font-family="sans-serif" font-size="20" lengthAdjust="spacing" textLength="13" x="4607.9256" y="892.0206">1</text><text fill="#000000" font-family="sans-serif" font-size="20" lengthAdjust="spacing" textLength="13" x="4573.3635" y="937.8191">1</text></g><!--link Interview to InterviewTime--><g id="link_Interview_InterviewTime"><path codeLine="111" d="M4679.05,865.5337 C4702.28,890.6637 4732.08,922.9137 4753.82,946.4337 " fill="none" id="Interview-to-InterviewTime" style="stroke:#000000;stroke-width:1.0;"/><polygon fill="#000000" points="4757.23,950.1337,4754.0692,940.8058,4753.8404,946.458,4748.1882,946.2292,4757.23,950.1337" style="stroke:#000000;stroke-width:1.0;"/><text fill="#000000" font-family="sans-serif" font-size="20" lengthAdjust="spacing" textLength="35" x="4730" y="915.0781">has</text><text fill="#000000" font-family="sans-serif" font-size="20" lengthAdjust="spacing" textLength="13" x="4670.5748" y="892.0206">1</text><text fill="#000000" font-family="sans-serif" font-size="20" lengthAdjust="spacing" textLength="13" x="4737.8768" y="937.8191">1</text></g><!--SRC=[dPPRJzim68RlyokiSi4c3TIo4wiYf9uYRM8K0UFUJRwsfecTEMvHX_ZlS-mcTaAQ0znKECztVdr8DeJ6cECePFu60XJ04cz3uJ4gxia_G1Tznn54X82cBCA4ejyiW12TeJ_tW_xWi-EiIG08ebZiKGJH0dZYd2QPKtHDA8Xz38XniMQEOxxu8KuIzE8W-JV6_cR5sPO64nOoxhex76vXldW2NrnTePFfjzd8kwn6EMEAyQQpyRHVpIJ0TyG7vMhWNSp6LPXqCVD-pBwhRoFEsRDU7eUISrxjt6EvWbTGdJqwcOszhzuuDT55tguPXPjjsXnKhirrFpn-ag6zo_6N_aUvyF9wi9h9TeUjUESKtM6wGQFLYiCA2t2o17kkYxD5oQPKxv0rK3dMlJPqNVsVydzegFIROZgNbBgLVO18WgroKbbDC0r886CtfvQZfVoCYoD9MbbwX2VY1aVGAaDZTuqxcAd2Hd4S4XyBmcXpQHPSAivsKpE3R5IGo9rfWyNoBMzJtR0kJR2iEqZLsC-tmcUTM_zhcmYoD3re8VRKc39P7oUhjK1icOKUvZducA85f2LnjfE7cjoKTv3wXC2OXx1KreKKXZc8c7QMe4W2Q8rtW31wic6pmoSiYZ7TjnQHbD0lja3p62YXgsO9MN19Gl9BvgLvWqZu3fR0WVfT1_MGtW5pxcsfttfKndeYhnEEVV6GNWNTJDFxfgE9rkzy-OYb47mYHzXHb6mnXSJd9EvKQhvD_su9LoVbVGo-hMvxuoeH_AGYlPhWkLa2ELeIW77HFF-SVSVvaDi-aFOdvU5e2G8EIVAUdS4XLCrBrYHE74lilK4FdPrTgT-2h8TognuboogkXGkYhIMLHck9h0KD0SqfKWk-5NWjNj9pBNjClTL60NkccQKHub0TmEc9MNm458TfrktuvWxN4Qkf_CQkW-ndLnsd7rgQo9vInLJLKc6SriKzH4l6toB59zF1U-dfK8nYVpaIJErRxQi5NQYzak-VdwkPguT5lLzhzBhYOw1fikGuYrHFTOHIL_MYRPjTu3gL2g3uNYWApGYm6CUisvwAPw4Es42ga-ymoVy0]--></g></svg>