<?xml version="1.0" encoding="UTF-8" standalone="no"?><svg xmlns="http://www.w3.org/2000/svg" xmlns:xlink="http://www.w3.org/1999/xlink" contentStyleType="text/css" height="384px" preserveAspectRatio="none" style="width:623px;height:384px;background:#FFFFFF;" version="1.1" viewBox="0 0 623 384" width="623px" zoomAndPan="magnify"><defs/><g><text fill="#000000" font-family="sans-serif" font-size="14" font-weight="bold" lengthAdjust="spacing" textLength="187" x="211" y="22.9951">Domain Model - US1013</text><!--cluster <<aggregate>> Rank--><g id="cluster_&lt;&lt;aggregate&gt;&gt; Rank"><path d="M71.5,44.5137 L279.5,44.5137 A3.75,3.75 0 0 1 282,47.0137 L289,73.7949 L289.5,73.7949 A2.5,2.5 0 0 1 292,76.2949 L292,180.0137 A2.5,2.5 0 0 1 289.5,182.5137 L71.5,182.5137 A2.5,2.5 0 0 1 69,180.0137 L69,47.0137 A2.5,2.5 0 0 1 71.5,44.5137 " fill="#EBF5FB" style="stroke:#000000;stroke-width:1.5;"/><line style="stroke:#000000;stroke-width:1.5;" x1="69" x2="289" y1="73.7949" y2="73.7949"/><text fill="#000000" font-family="sans-serif" font-size="20" font-weight="bold" lengthAdjust="spacing" textLength="207" x="73" y="65.0781">«aggregate» Rank</text></g><!--cluster <<aggregate>> Candidate--><g id="cluster_&lt;&lt;aggregate&gt;&gt; Candidate"><path d="M335.5,239.5137 L603.5,239.5137 A3.75,3.75 0 0 1 606,242.0137 L613,268.7949 L613.5,268.7949 A2.5,2.5 0 0 1 616,271.2949 L616,375.0137 A2.5,2.5 0 0 1 613.5,377.5137 L335.5,377.5137 A2.5,2.5 0 0 1 333,375.0137 L333,242.0137 A2.5,2.5 0 0 1 335.5,239.5137 " fill="#EBF5FB" style="stroke:#000000;stroke-width:1.5;"/><line style="stroke:#000000;stroke-width:1.5;" x1="333" x2="613" y1="268.7949" y2="268.7949"/><text fill="#000000" font-family="sans-serif" font-size="20" font-weight="bold" lengthAdjust="spacing" textLength="267" x="337" y="260.0781">«aggregate» Candidate</text></g><!--cluster <<aggregate>> Application--><g id="cluster_&lt;&lt;aggregate&gt;&gt; Application"><path d="M321.5,44.5137 L601.5,44.5137 A3.75,3.75 0 0 1 604,47.0137 L611,73.7949 L611.5,73.7949 A2.5,2.5 0 0 1 614,76.2949 L614,180.0137 A2.5,2.5 0 0 1 611.5,182.5137 L321.5,182.5137 A2.5,2.5 0 0 1 319,180.0137 L319,47.0137 A2.5,2.5 0 0 1 321.5,44.5137 " fill="#EBF5FB" style="stroke:#000000;stroke-width:1.5;"/><line style="stroke:#000000;stroke-width:1.5;" x1="319" x2="611" y1="73.7949" y2="73.7949"/><text fill="#000000" font-family="sans-serif" font-size="20" font-weight="bold" lengthAdjust="spacing" textLength="279" x="323" y="65.0781">«aggregate» Application</text></g><!--cluster <<aggregate>> Job Opening--><g id="cluster_&lt;&lt;aggregate&gt;&gt; Job Opening"><path d="M8.5,239.5137 L296.5,239.5137 A3.75,3.75 0 0 1 299,242.0137 L306,268.7949 L306.5,268.7949 A2.5,2.5 0 0 1 309,271.2949 L309,375.0137 A2.5,2.5 0 0 1 306.5,377.5137 L8.5,377.5137 A2.5,2.5 0 0 1 6,375.0137 L6,242.0137 A2.5,2.5 0 0 1 8.5,239.5137 " fill="#EBF5FB" style="stroke:#000000;stroke-width:1.5;"/><line style="stroke:#000000;stroke-width:1.5;" x1="6" x2="306" y1="268.7949" y2="268.7949"/><text fill="#000000" font-family="sans-serif" font-size="20" font-weight="bold" lengthAdjust="spacing" textLength="287" x="10" y="260.0781">«aggregate» Job Opening</text></g><!--class Rank--><g id="elem_Rank"><rect codeLine="22" fill="#FDEBD0" height="79.8438" id="Rank" rx="2.5" ry="2.5" style="stroke:#181818;stroke-width:0.5;" width="113" x="160.5" y="86.5137"/><ellipse cx="176.5" cy="126.4355" fill="#ADD1B2" rx="12" ry="12" style="stroke:#181818;stroke-width:1.0;"/><path d="M181.2188,133.9355 L172.1406,133.9355 L172.1406,119.3574 L181.2188,119.3574 L181.2188,121.8887 L175.0156,121.8887 L175.0156,125.0449 L180.6406,125.0449 L180.6406,127.5762 L175.0156,127.5762 L175.0156,131.3887 L181.2188,131.3887 L181.2188,133.9355 Z " fill="#000000"/><text fill="#000000" font-family="sans-serif" font-size="20" font-style="italic" lengthAdjust="spacing" textLength="83" x="189.5" y="110.0781">«entity»</text><text fill="#000000" font-family="sans-serif" font-size="20" font-style="italic" lengthAdjust="spacing" textLength="64" x="199" y="133.3594">«root»</text><text fill="#000000" font-family="sans-serif" font-size="20" lengthAdjust="spacing" textLength="51" x="205.5" y="156.6406">Rank</text></g><!--class Candidate--><g id="elem_Candidate"><rect codeLine="28" fill="#FDEBD0" height="79.8438" id="Candidate" rx="2.5" ry="2.5" style="stroke:#181818;stroke-width:0.5;" width="137" x="349.5" y="281.5137"/><ellipse cx="365.5" cy="321.4355" fill="#ADD1B2" rx="12" ry="12" style="stroke:#181818;stroke-width:1.0;"/><path d="M370.2188,328.9355 L361.1406,328.9355 L361.1406,314.3574 L370.2188,314.3574 L370.2188,316.8887 L364.0156,316.8887 L364.0156,320.0449 L369.6406,320.0449 L369.6406,322.5762 L364.0156,322.5762 L364.0156,326.3887 L370.2188,326.3887 L370.2188,328.9355 Z " fill="#000000"/><text fill="#000000" font-family="sans-serif" font-size="20" font-style="italic" lengthAdjust="spacing" textLength="83" x="390.5" y="305.0781">«entity»</text><text fill="#000000" font-family="sans-serif" font-size="20" font-style="italic" lengthAdjust="spacing" textLength="64" x="400" y="328.3594">«root»</text><text fill="#000000" font-family="sans-serif" font-size="20" lengthAdjust="spacing" textLength="103" x="380.5" y="351.6406">Candidate</text></g><!--class Application--><g id="elem_Application"><rect codeLine="33" fill="#FDEBD0" height="79.8438" id="Application" rx="2.5" ry="2.5" style="stroke:#181818;stroke-width:0.5;" width="148" x="340" y="86.5137"/><ellipse cx="356" cy="126.4355" fill="#ADD1B2" rx="12" ry="12" style="stroke:#181818;stroke-width:1.0;"/><path d="M360.7188,133.9355 L351.6406,133.9355 L351.6406,119.3574 L360.7188,119.3574 L360.7188,121.8887 L354.5156,121.8887 L354.5156,125.0449 L360.1406,125.0449 L360.1406,127.5762 L354.5156,127.5762 L354.5156,131.3887 L360.7188,131.3887 L360.7188,133.9355 Z " fill="#000000"/><text fill="#000000" font-family="sans-serif" font-size="20" font-style="italic" lengthAdjust="spacing" textLength="83" x="386.5" y="110.0781">«entity»</text><text fill="#000000" font-family="sans-serif" font-size="20" font-style="italic" lengthAdjust="spacing" textLength="64" x="396" y="133.3594">«root»</text><text fill="#000000" font-family="sans-serif" font-size="20" lengthAdjust="spacing" textLength="114" x="371" y="156.6406">Application</text></g><!--class JobOpening--><g id="elem_JobOpening"><rect codeLine="38" fill="#FDEBD0" height="79.8438" id="JobOpening" rx="2.5" ry="2.5" style="stroke:#181818;stroke-width:0.5;" width="151" x="141.5" y="281.5137"/><ellipse cx="157.5" cy="321.4355" fill="#ADD1B2" rx="12" ry="12" style="stroke:#181818;stroke-width:1.0;"/><path d="M162.2188,328.9355 L153.1406,328.9355 L153.1406,314.3574 L162.2188,314.3574 L162.2188,316.8887 L156.0156,316.8887 L156.0156,320.0449 L161.6406,320.0449 L161.6406,322.5762 L156.0156,322.5762 L156.0156,326.3887 L162.2188,326.3887 L162.2188,328.9355 Z " fill="#000000"/><text fill="#000000" font-family="sans-serif" font-size="20" font-style="italic" lengthAdjust="spacing" textLength="83" x="189.5" y="305.0781">«entity»</text><text fill="#000000" font-family="sans-serif" font-size="20" font-style="italic" lengthAdjust="spacing" textLength="64" x="199" y="328.3594">«root»</text><text fill="#000000" font-family="sans-serif" font-size="20" lengthAdjust="spacing" textLength="117" x="172.5" y="351.6406">JobOpening</text></g><!--link Application to JobOpening--><g id="link_Application_JobOpening"><path codeLine="43" d="M374.13,166.5737 C341.27,198.7737 294.7,244.3937 260.8,277.6037 " fill="none" id="Application-to-JobOpening" style="stroke:#000000;stroke-width:1.0;"/><polygon fill="#000000" points="257.14,281.1837,266.3676,277.7412,260.7111,277.684,260.7682,272.0275,257.14,281.1837" style="stroke:#000000;stroke-width:1.0;"/><text fill="#000000" font-family="sans-serif" font-size="20" lengthAdjust="spacing" textLength="27" x="339" y="218.0781">for</text><text fill="#000000" font-family="sans-serif" font-size="20" lengthAdjust="spacing" textLength="13" x="354.0296" y="193.0667">1</text><text fill="#000000" font-family="sans-serif" font-size="20" lengthAdjust="spacing" textLength="13" x="249.2911" y="268.8452">1</text></g><!--link Application to Candidate--><g id="link_Application_Candidate"><path codeLine="44" d="M414.81,166.5737 C415.47,198.2537 416.39,242.9137 417.08,275.9837 " fill="none" id="Application-to-Candidate" style="stroke:#000000;stroke-width:1.0;"/><polygon fill="#000000" points="417.18,281.1837,420.9992,272.1055,417.08,276.1847,413.0008,272.2655,417.18,281.1837" style="stroke:#000000;stroke-width:1.0;"/><text fill="#000000" font-family="sans-serif" font-size="20" lengthAdjust="spacing" textLength="47" x="416" y="218.0781">from</text><text fill="#000000" font-family="sans-serif" font-size="20" lengthAdjust="spacing" textLength="13" x="400.9387" y="193.0667">1</text><text fill="#000000" font-family="sans-serif" font-size="20" lengthAdjust="spacing" textLength="13" x="403.0591" y="268.8452">1</text></g><!--link Rank to JobOpening--><g id="link_Rank_JobOpening"><path codeLine="45" d="M217,166.5737 C217,198.2537 217,242.9137 217,275.9837 " fill="none" id="Rank-to-JobOpening" style="stroke:#000000;stroke-width:1.0;"/><polygon fill="#000000" points="217,281.1837,221,272.1837,217,276.1837,213,272.1837,217,281.1837" style="stroke:#000000;stroke-width:1.0;"/><text fill="#000000" font-family="sans-serif" font-size="20" lengthAdjust="spacing" textLength="27" x="218" y="218.0781">for</text><text fill="#000000" font-family="sans-serif" font-size="20" lengthAdjust="spacing" textLength="13" x="203.0047" y="193.0667">1</text><text fill="#000000" font-family="sans-serif" font-size="20" lengthAdjust="spacing" textLength="13" x="203.0047" y="268.8452">1</text></g><!--SRC=[XP7FRe9048Vl-nGJF7Wo4Pl-3J41WKFJngIc3x32Y5kM7RAiDjRuxbrHb1XKBeIPRxxVx5BbGfLSyq9IacCAAIxuIfgOb9c9FuJHa34ZZ4G8gU12mIUbA640tpDtw3umjXGf0XQbsK21nHnrnVfL8uKFeT1iIWJIPacCdJk9v5K5MmRs2NYIPvfMAfsG9ErvQovNE9t_O6B6O-Y5Jv4VltIZcgXcuZ0Amc4tKw5UYmHhbHkFeg0BiueeVesUwvwlDVqUoe6q7DkrTozjXMVOlJtqeY1-Z8Fz2El35rSv-5ccCUC6MJFgU1vlYdQlFUKSVQZiXMyEWvvt-BB8wQZRtL4zuIeLgHNSzv_GYv2pudfI7_oob2BXHf2w7zM2ByBQcbjnxpI7QObAgEn-N0k-YBETnd8bZUtpsbivhWE3mRX-jyRVO47wAdY-GyjfAbZzvswgs3y0]--></g></svg>