<?xml version="1.0" encoding="UTF-8" standalone="no"?><svg xmlns="http://www.w3.org/2000/svg" xmlns:xlink="http://www.w3.org/1999/xlink" contentStyleType="text/css" height="860px" preserveAspectRatio="none" style="width:2999px;height:860px;background:#FFFFFF;" version="1.1" viewBox="0 0 2999 860" width="2999px" zoomAndPan="magnify"><defs/><g><text fill="#000000" font-family="sans-serif" font-size="14" font-weight="bold" lengthAdjust="spacing" textLength="188" x="1398.75" y="22.9951">Class Diagram - US1001</text><!--class UI--><g id="elem_UI"><rect codeLine="13" fill="#FEF9E7" height="50" id="UI" rx="2.5" ry="2.5" style="stroke:#181818;stroke-width:0.5;" width="235" x="1718.5" y="44.2969"/><ellipse cx="1734.5" cy="61.2969" fill="#ADD1B2" rx="12" ry="12" style="stroke:#181818;stroke-width:1.0;"/><path d="M1737.5625,68.375 Q1736.875,68.7344 1736.125,68.9063 Q1735.375,69.0781 1734.5469,69.0781 Q1731.5938,69.0781 1730.0313,67.1406 Q1728.4844,65.1875 1728.4844,61.5156 Q1728.4844,57.8438 1730.0313,55.9063 Q1731.5938,53.9531 1734.5469,53.9531 Q1735.375,53.9531 1736.125,54.125 Q1736.8906,54.2969 1737.5625,54.6563 L1737.5625,57.8594 Q1736.8125,57.1719 1736.1094,56.8594 Q1735.4219,56.5469 1734.6719,56.5469 Q1733.0938,56.5469 1732.2813,57.7969 Q1731.4844,59.0469 1731.4844,61.5156 Q1731.4844,63.9844 1732.2813,65.2344 Q1733.0938,66.4844 1734.6719,66.4844 Q1735.4219,66.4844 1736.1094,66.1719 Q1736.8125,65.8594 1737.5625,65.1719 L1737.5625,68.375 Z " fill="#000000"/><text fill="#000000" font-family="sans-serif" font-size="20" lengthAdjust="spacing" textLength="201" x="1749.5" y="68.2207">RegisterCustomerUI</text><line style="stroke:#181818;stroke-width:0.5;" x1="1719.5" x2="1952.5" y1="78.2969" y2="78.2969"/><line style="stroke:#181818;stroke-width:0.5;" x1="1719.5" x2="1952.5" y1="86.2969" y2="86.2969"/></g><!--class CustomerController--><g id="elem_CustomerController"><rect codeLine="15" fill="#FEF9E7" height="73.2813" id="CustomerController" rx="2.5" ry="2.5" style="stroke:#181818;stroke-width:0.5;" width="1144" x="722" y="154.2969"/><ellipse cx="1150" cy="171.2969" fill="#ADD1B2" rx="12" ry="12" style="stroke:#181818;stroke-width:1.0;"/><path d="M1153.0625,178.375 Q1152.375,178.7344 1151.625,178.9063 Q1150.875,179.0781 1150.0469,179.0781 Q1147.0938,179.0781 1145.5313,177.1406 Q1143.9844,175.1875 1143.9844,171.5156 Q1143.9844,167.8438 1145.5313,165.9063 Q1147.0938,163.9531 1150.0469,163.9531 Q1150.875,163.9531 1151.625,164.125 Q1152.3906,164.2969 1153.0625,164.6563 L1153.0625,167.8594 Q1152.3125,167.1719 1151.6094,166.8594 Q1150.9219,166.5469 1150.1719,166.5469 Q1148.5938,166.5469 1147.7813,167.7969 Q1146.9844,169.0469 1146.9844,171.5156 Q1146.9844,173.9844 1147.7813,175.2344 Q1148.5938,176.4844 1150.1719,176.4844 Q1150.9219,176.4844 1151.6094,176.1719 Q1152.3125,175.8594 1153.0625,175.1719 L1153.0625,178.375 Z " fill="#000000"/><text fill="#000000" font-family="sans-serif" font-size="20" lengthAdjust="spacing" textLength="279" x="1172" y="178.2207">RegisterCustomerController</text><line style="stroke:#181818;stroke-width:0.5;" x1="723" x2="1865" y1="188.2969" y2="188.2969"/><line style="stroke:#181818;stroke-width:0.5;" x1="723" x2="1865" y1="196.2969" y2="196.2969"/><ellipse cx="733" cy="213.4375" fill="#84BE84" rx="3" ry="3" style="stroke:#038048;stroke-width:1.0;"/><text fill="#000000" font-family="sans-serif" font-size="20" lengthAdjust="spacing" textLength="1117" x="743" y="218.8613">addCustomer(companyName: String, address: String, customerCode: String, email: String, phone: String): void</text></g><!--class CustomerService--><g id="elem_CustomerService"><rect codeLine="19" fill="#FEF9E7" height="73.2813" id="CustomerService" rx="2.5" ry="2.5" style="stroke:#181818;stroke-width:0.5;" width="1199" x="659.5" y="287.2969"/><ellipse cx="1169.5" cy="304.2969" fill="#ADD1B2" rx="12" ry="12" style="stroke:#181818;stroke-width:1.0;"/><path d="M1172.5625,311.375 Q1171.875,311.7344 1171.125,311.9063 Q1170.375,312.0781 1169.5469,312.0781 Q1166.5938,312.0781 1165.0313,310.1406 Q1163.4844,308.1875 1163.4844,304.5156 Q1163.4844,300.8438 1165.0313,298.9063 Q1166.5938,296.9531 1169.5469,296.9531 Q1170.375,296.9531 1171.125,297.125 Q1171.8906,297.2969 1172.5625,297.6563 L1172.5625,300.8594 Q1171.8125,300.1719 1171.1094,299.8594 Q1170.4219,299.5469 1169.6719,299.5469 Q1168.0938,299.5469 1167.2813,300.7969 Q1166.4844,302.0469 1166.4844,304.5156 Q1166.4844,306.9844 1167.2813,308.2344 Q1168.0938,309.4844 1169.6719,309.4844 Q1170.4219,309.4844 1171.1094,309.1719 Q1171.8125,308.8594 1172.5625,308.1719 L1172.5625,311.375 Z " fill="#000000"/><text fill="#000000" font-family="sans-serif" font-size="20" lengthAdjust="spacing" textLength="170" x="1191.5" y="311.2207">CustomerService</text><line style="stroke:#181818;stroke-width:0.5;" x1="660.5" x2="1857.5" y1="321.2969" y2="321.2969"/><line style="stroke:#181818;stroke-width:0.5;" x1="660.5" x2="1857.5" y1="329.2969" y2="329.2969"/><ellipse cx="670.5" cy="346.4375" fill="#84BE84" rx="3" ry="3" style="stroke:#038048;stroke-width:1.0;"/><text fill="#000000" font-family="sans-serif" font-size="20" lengthAdjust="spacing" textLength="1172" x="680.5" y="351.8613">addCustomer(companyName: String, address: String, customerCode: String, email: String, phone: String): Customer</text></g><!--class Customer--><g id="elem_Customer"><rect codeLine="23" fill="#FEF9E7" height="189.6875" id="Customer" rx="2.5" ry="2.5" style="stroke:#181818;stroke-width:0.5;" width="1224" x="7" y="420.2969"/><ellipse cx="566" cy="437.2969" fill="#ADD1B2" rx="12" ry="12" style="stroke:#181818;stroke-width:1.0;"/><path d="M569.0625,444.375 Q568.375,444.7344 567.625,444.9063 Q566.875,445.0781 566.0469,445.0781 Q563.0938,445.0781 561.5313,443.1406 Q559.9844,441.1875 559.9844,437.5156 Q559.9844,433.8438 561.5313,431.9063 Q563.0938,429.9531 566.0469,429.9531 Q566.875,429.9531 567.625,430.125 Q568.3906,430.2969 569.0625,430.6563 L569.0625,433.8594 Q568.3125,433.1719 567.6094,432.8594 Q566.9219,432.5469 566.1719,432.5469 Q564.5938,432.5469 563.7813,433.7969 Q562.9844,435.0469 562.9844,437.5156 Q562.9844,439.9844 563.7813,441.2344 Q564.5938,442.4844 566.1719,442.4844 Q566.9219,442.4844 567.6094,442.1719 Q568.3125,441.8594 569.0625,441.1719 L569.0625,444.375 Z " fill="#000000"/><text fill="#000000" font-family="sans-serif" font-size="20" lengthAdjust="spacing" textLength="97" x="588" y="444.2207">Customer</text><line style="stroke:#181818;stroke-width:0.5;" x1="8" x2="1230" y1="454.2969" y2="454.2969"/><rect fill="none" height="6" style="stroke:#C82930;stroke-width:1.0;" width="6" x="15" y="468.4375"/><text fill="#000000" font-family="sans-serif" font-size="20" lengthAdjust="spacing" textLength="225" x="28" y="476.8613">companyName: String</text><rect fill="none" height="6" style="stroke:#C82930;stroke-width:1.0;" width="6" x="15" y="491.7188"/><text fill="#000000" font-family="sans-serif" font-size="20" lengthAdjust="spacing" textLength="152" x="28" y="500.1426">address: String</text><rect fill="none" height="6" style="stroke:#C82930;stroke-width:1.0;" width="6" x="15" y="515"/><text fill="#000000" font-family="sans-serif" font-size="20" lengthAdjust="spacing" textLength="219" x="28" y="523.4238">customerCode: String</text><rect fill="none" height="6" style="stroke:#C82930;stroke-width:1.0;" width="6" x="15" y="538.2813"/><text fill="#000000" font-family="sans-serif" font-size="20" lengthAdjust="spacing" textLength="130" x="28" y="546.7051">email: String</text><rect fill="none" height="6" style="stroke:#C82930;stroke-width:1.0;" width="6" x="15" y="561.5625"/><text fill="#000000" font-family="sans-serif" font-size="20" lengthAdjust="spacing" textLength="137" x="28" y="569.9863">phone: String</text><line style="stroke:#181818;stroke-width:0.5;" x1="8" x2="1230" y1="578.7031" y2="578.7031"/><ellipse cx="18" cy="595.8438" fill="#84BE84" rx="3" ry="3" style="stroke:#038048;stroke-width:1.0;"/><text fill="#000000" font-family="sans-serif" font-size="20" lengthAdjust="spacing" textLength="1197" x="28" y="601.2676">createCustomer(companyName: String, address: String, customerCode: String, email: String, phone: String): Customer</text></g><!--class CustomerRepository--><g id="elem_CustomerRepository"><rect codeLine="32" fill="#FEF9E7" height="73.2813" id="CustomerRepository" rx="2.5" ry="2.5" style="stroke:#181818;stroke-width:0.5;" width="402" x="1266" y="478.7969"/><ellipse cx="1361" cy="495.7969" fill="#ADD1B2" rx="12" ry="12" style="stroke:#181818;stroke-width:1.0;"/><path d="M1364.0625,502.875 Q1363.375,503.2344 1362.625,503.4063 Q1361.875,503.5781 1361.0469,503.5781 Q1358.0938,503.5781 1356.5313,501.6406 Q1354.9844,499.6875 1354.9844,496.0156 Q1354.9844,492.3438 1356.5313,490.4063 Q1358.0938,488.4531 1361.0469,488.4531 Q1361.875,488.4531 1362.625,488.625 Q1363.3906,488.7969 1364.0625,489.1563 L1364.0625,492.3594 Q1363.3125,491.6719 1362.6094,491.3594 Q1361.9219,491.0469 1361.1719,491.0469 Q1359.5938,491.0469 1358.7813,492.2969 Q1357.9844,493.5469 1357.9844,496.0156 Q1357.9844,498.4844 1358.7813,499.7344 Q1359.5938,500.9844 1361.1719,500.9844 Q1361.9219,500.9844 1362.6094,500.6719 Q1363.3125,500.3594 1364.0625,499.6719 L1364.0625,502.875 Z " fill="#000000"/><text fill="#000000" font-family="sans-serif" font-size="20" lengthAdjust="spacing" textLength="203" x="1383" y="502.7207">CustomerRepository</text><line style="stroke:#181818;stroke-width:0.5;" x1="1267" x2="1667" y1="512.7969" y2="512.7969"/><line style="stroke:#181818;stroke-width:0.5;" x1="1267" x2="1667" y1="520.7969" y2="520.7969"/><ellipse cx="1277" cy="537.9375" fill="#84BE84" rx="3" ry="3" style="stroke:#038048;stroke-width:1.0;"/><text fill="#000000" font-family="sans-serif" font-size="20" lengthAdjust="spacing" textLength="375" x="1287" y="543.3613">save(customer: Customer): Customer</text></g><!--class JpaCustomerRepository--><g id="elem_JpaCustomerRepository"><rect codeLine="36" fill="#FEF9E7" height="73.2813" id="JpaCustomerRepository" rx="2.5" ry="2.5" style="stroke:#181818;stroke-width:0.5;" width="402" x="1787" y="670.2969"/><ellipse cx="1866.5" cy="687.2969" fill="#ADD1B2" rx="12" ry="12" style="stroke:#181818;stroke-width:1.0;"/><path d="M1869.5625,694.375 Q1868.875,694.7344 1868.125,694.9063 Q1867.375,695.0781 1866.5469,695.0781 Q1863.5938,695.0781 1862.0313,693.1406 Q1860.4844,691.1875 1860.4844,687.5156 Q1860.4844,683.8438 1862.0313,681.9063 Q1863.5938,679.9531 1866.5469,679.9531 Q1867.375,679.9531 1868.125,680.125 Q1868.8906,680.2969 1869.5625,680.6563 L1869.5625,683.8594 Q1868.8125,683.1719 1868.1094,682.8594 Q1867.4219,682.5469 1866.6719,682.5469 Q1865.0938,682.5469 1864.2813,683.7969 Q1863.4844,685.0469 1863.4844,687.5156 Q1863.4844,689.9844 1864.2813,691.2344 Q1865.0938,692.4844 1866.6719,692.4844 Q1867.4219,692.4844 1868.1094,692.1719 Q1868.8125,691.8594 1869.5625,691.1719 L1869.5625,694.375 Z " fill="#000000"/><text fill="#000000" font-family="sans-serif" font-size="20" lengthAdjust="spacing" textLength="234" x="1888.5" y="694.2207">JpaCustomerRepository</text><line style="stroke:#181818;stroke-width:0.5;" x1="1788" x2="2188" y1="704.2969" y2="704.2969"/><line style="stroke:#181818;stroke-width:0.5;" x1="1788" x2="2188" y1="712.2969" y2="712.2969"/><ellipse cx="1798" cy="729.4375" fill="#84BE84" rx="3" ry="3" style="stroke:#038048;stroke-width:1.0;"/><text fill="#000000" font-family="sans-serif" font-size="20" lengthAdjust="spacing" textLength="375" x="1808" y="734.8613">save(customer: Customer): Customer</text></g><!--class CustomerUserController--><g id="elem_CustomerUserController"><rect codeLine="40" fill="#FEF9E7" height="73.2813" id="CustomerUserController" rx="2.5" ry="2.5" style="stroke:#181818;stroke-width:0.5;" width="954" x="1919" y="154.2969"/><ellipse cx="2229.5" cy="171.2969" fill="#ADD1B2" rx="12" ry="12" style="stroke:#181818;stroke-width:1.0;"/><path d="M2232.5625,178.375 Q2231.875,178.7344 2231.125,178.9063 Q2230.375,179.0781 2229.5469,179.0781 Q2226.5938,179.0781 2225.0313,177.1406 Q2223.4844,175.1875 2223.4844,171.5156 Q2223.4844,167.8438 2225.0313,165.9063 Q2226.5938,163.9531 2229.5469,163.9531 Q2230.375,163.9531 2231.125,164.125 Q2231.8906,164.2969 2232.5625,164.6563 L2232.5625,167.8594 Q2231.8125,167.1719 2231.1094,166.8594 Q2230.4219,166.5469 2229.6719,166.5469 Q2228.0938,166.5469 2227.2813,167.7969 Q2226.4844,169.0469 2226.4844,171.5156 Q2226.4844,173.9844 2227.2813,175.2344 Q2228.0938,176.4844 2229.6719,176.4844 Q2230.4219,176.4844 2231.1094,176.1719 Q2231.8125,175.8594 2232.5625,175.1719 L2232.5625,178.375 Z " fill="#000000"/><text fill="#000000" font-family="sans-serif" font-size="20" lengthAdjust="spacing" textLength="324" x="2251.5" y="178.2207">RegisterCustomerUserController</text><line style="stroke:#181818;stroke-width:0.5;" x1="1920" x2="2872" y1="188.2969" y2="188.2969"/><line style="stroke:#181818;stroke-width:0.5;" x1="1920" x2="2872" y1="196.2969" y2="196.2969"/><ellipse cx="1930" cy="213.4375" fill="#84BE84" rx="3" ry="3" style="stroke:#038048;stroke-width:1.0;"/><text fill="#000000" font-family="sans-serif" font-size="20" lengthAdjust="spacing" textLength="927" x="1940" y="218.8613">addCustomerUser(email: String, password: String, firstName: String, lastName: String): void</text></g><!--class ManagementService--><g id="elem_ManagementService"><rect codeLine="44" fill="#FEF9E7" height="73.2813" id="ManagementService" rx="2.5" ry="2.5" style="stroke:#181818;stroke-width:0.5;" width="1040" x="1894" y="287.2969"/><ellipse cx="2284.5" cy="304.2969" fill="#ADD1B2" rx="12" ry="12" style="stroke:#181818;stroke-width:1.0;"/><path d="M2287.5625,311.375 Q2286.875,311.7344 2286.125,311.9063 Q2285.375,312.0781 2284.5469,312.0781 Q2281.5938,312.0781 2280.0313,310.1406 Q2278.4844,308.1875 2278.4844,304.5156 Q2278.4844,300.8438 2280.0313,298.9063 Q2281.5938,296.9531 2284.5469,296.9531 Q2285.375,296.9531 2286.125,297.125 Q2286.8906,297.2969 2287.5625,297.6563 L2287.5625,300.8594 Q2286.8125,300.1719 2286.1094,299.8594 Q2285.4219,299.5469 2284.6719,299.5469 Q2283.0938,299.5469 2282.2813,300.7969 Q2281.4844,302.0469 2281.4844,304.5156 Q2281.4844,306.9844 2282.2813,308.2344 Q2283.0938,309.4844 2284.6719,309.4844 Q2285.4219,309.4844 2286.1094,309.1719 Q2286.8125,308.8594 2287.5625,308.1719 L2287.5625,311.375 Z " fill="#000000"/><text fill="#000000" font-family="sans-serif" font-size="20" lengthAdjust="spacing" textLength="250" x="2306.5" y="311.2207">UserManagementService</text><line style="stroke:#181818;stroke-width:0.5;" x1="1895" x2="2933" y1="321.2969" y2="321.2969"/><line style="stroke:#181818;stroke-width:0.5;" x1="1895" x2="2933" y1="329.2969" y2="329.2969"/><ellipse cx="1905" cy="346.4375" fill="#84BE84" rx="3" ry="3" style="stroke:#038048;stroke-width:1.0;"/><text fill="#000000" font-family="sans-serif" font-size="20" lengthAdjust="spacing" textLength="1013" x="1915" y="351.8613">registerNewCustomerUser(email: String, password: String, firstName: String, lastName: String): User</text></g><!--class Factory--><g id="elem_Factory"><rect codeLine="48" fill="#FEF9E7" height="73.2813" id="Factory" rx="2.5" ry="2.5" style="stroke:#181818;stroke-width:0.5;" width="1007" x="1703.5" y="478.7969"/><ellipse cx="2114" cy="495.7969" fill="#ADD1B2" rx="12" ry="12" style="stroke:#181818;stroke-width:1.0;"/><path d="M2117.0625,502.875 Q2116.375,503.2344 2115.625,503.4063 Q2114.875,503.5781 2114.0469,503.5781 Q2111.0938,503.5781 2109.5313,501.6406 Q2107.9844,499.6875 2107.9844,496.0156 Q2107.9844,492.3438 2109.5313,490.4063 Q2111.0938,488.4531 2114.0469,488.4531 Q2114.875,488.4531 2115.625,488.625 Q2116.3906,488.7969 2117.0625,489.1563 L2117.0625,492.3594 Q2116.3125,491.6719 2115.6094,491.3594 Q2114.9219,491.0469 2114.1719,491.0469 Q2112.5938,491.0469 2111.7813,492.2969 Q2110.9844,493.5469 2110.9844,496.0156 Q2110.9844,498.4844 2111.7813,499.7344 Q2112.5938,500.9844 2114.1719,500.9844 Q2114.9219,500.9844 2115.6094,500.6719 Q2116.3125,500.3594 2117.0625,499.6719 L2117.0625,502.875 Z " fill="#000000"/><text fill="#000000" font-family="sans-serif" font-size="20" lengthAdjust="spacing" textLength="177" x="2136" y="502.7207">UserTypesFactory</text><line style="stroke:#181818;stroke-width:0.5;" x1="1704.5" x2="2709.5" y1="512.7969" y2="512.7969"/><line style="stroke:#181818;stroke-width:0.5;" x1="1704.5" x2="2709.5" y1="520.7969" y2="520.7969"/><ellipse cx="1714.5" cy="537.9375" fill="#84BE84" rx="3" ry="3" style="stroke:#038048;stroke-width:1.0;"/><text fill="#000000" font-family="sans-serif" font-size="20" lengthAdjust="spacing" textLength="980" x="1724.5" y="543.3613">withRoleCustomerUser(email: String, password: String, firstName: String, lastName: String): User</text></g><!--class UserRepository--><g id="elem_UserRepository"><rect codeLine="52" fill="#FEF9E7" height="73.2813" id="UserRepository" rx="2.5" ry="2.5" style="stroke:#181818;stroke-width:0.5;" width="247" x="2745.5" y="478.7969"/><ellipse cx="2789.4" cy="495.7969" fill="#ADD1B2" rx="12" ry="12" style="stroke:#181818;stroke-width:1.0;"/><path d="M2792.4625,502.875 Q2791.775,503.2344 2791.025,503.4063 Q2790.275,503.5781 2789.4469,503.5781 Q2786.4938,503.5781 2784.9313,501.6406 Q2783.3844,499.6875 2783.3844,496.0156 Q2783.3844,492.3438 2784.9313,490.4063 Q2786.4938,488.4531 2789.4469,488.4531 Q2790.275,488.4531 2791.025,488.625 Q2791.7906,488.7969 2792.4625,489.1563 L2792.4625,492.3594 Q2791.7125,491.6719 2791.0094,491.3594 Q2790.3219,491.0469 2789.5719,491.0469 Q2787.9938,491.0469 2787.1813,492.2969 Q2786.3844,493.5469 2786.3844,496.0156 Q2786.3844,498.4844 2787.1813,499.7344 Q2787.9938,500.9844 2789.5719,500.9844 Q2790.3219,500.9844 2791.0094,500.6719 Q2791.7125,500.3594 2792.4625,499.6719 L2792.4625,502.875 Z " fill="#000000"/><text fill="#000000" font-family="sans-serif" font-size="20" lengthAdjust="spacing" textLength="151" x="2810.6" y="502.7207">UserRepository</text><line style="stroke:#181818;stroke-width:0.5;" x1="2746.5" x2="2991.5" y1="512.7969" y2="512.7969"/><line style="stroke:#181818;stroke-width:0.5;" x1="2746.5" x2="2991.5" y1="520.7969" y2="520.7969"/><ellipse cx="2756.5" cy="537.9375" fill="#84BE84" rx="3" ry="3" style="stroke:#038048;stroke-width:1.0;"/><text fill="#000000" font-family="sans-serif" font-size="20" lengthAdjust="spacing" textLength="220" x="2766.5" y="543.3613">save(user: User): User</text></g><!--class JpaUserRepository--><g id="elem_JpaUserRepository"><rect codeLine="56" fill="#FEF9E7" height="73.2813" id="JpaUserRepository" rx="2.5" ry="2.5" style="stroke:#181818;stroke-width:0.5;" width="247" x="2484.5" y="670.2969"/><ellipse cx="2514.45" cy="687.2969" fill="#ADD1B2" rx="12" ry="12" style="stroke:#181818;stroke-width:1.0;"/><path d="M2517.5125,694.375 Q2516.825,694.7344 2516.075,694.9063 Q2515.325,695.0781 2514.4969,695.0781 Q2511.5438,695.0781 2509.9813,693.1406 Q2508.4344,691.1875 2508.4344,687.5156 Q2508.4344,683.8438 2509.9813,681.9063 Q2511.5438,679.9531 2514.4969,679.9531 Q2515.325,679.9531 2516.075,680.125 Q2516.8406,680.2969 2517.5125,680.6563 L2517.5125,683.8594 Q2516.7625,683.1719 2516.0594,682.8594 Q2515.3719,682.5469 2514.6219,682.5469 Q2513.0438,682.5469 2512.2313,683.7969 Q2511.4344,685.0469 2511.4344,687.5156 Q2511.4344,689.9844 2512.2313,691.2344 Q2513.0438,692.4844 2514.6219,692.4844 Q2515.3719,692.4844 2516.0594,692.1719 Q2516.7625,691.8594 2517.5125,691.1719 L2517.5125,694.375 Z " fill="#000000"/><text fill="#000000" font-family="sans-serif" font-size="20" lengthAdjust="spacing" textLength="182" x="2532.55" y="694.2207">JpaUserRepository</text><line style="stroke:#181818;stroke-width:0.5;" x1="2485.5" x2="2730.5" y1="704.2969" y2="704.2969"/><line style="stroke:#181818;stroke-width:0.5;" x1="2485.5" x2="2730.5" y1="712.2969" y2="712.2969"/><ellipse cx="2495.5" cy="729.4375" fill="#84BE84" rx="3" ry="3" style="stroke:#038048;stroke-width:1.0;"/><text fill="#000000" font-family="sans-serif" font-size="20" lengthAdjust="spacing" textLength="220" x="2505.5" y="734.8613">save(user: User): User</text></g><!--class DB--><g id="elem_DB"><rect codeLine="60" fill="#FEF9E7" height="50" id="DB" rx="2.5" ry="2.5" style="stroke:#181818;stroke-width:0.5;" width="128" x="2104" y="803.2969"/><ellipse cx="2120" cy="820.2969" fill="#8BEBFF" rx="12" ry="12" style="stroke:#181818;stroke-width:1.0;"/><path d="M2120.2188,815.8125 L2120.2188,825.2031 L2121,825.2031 Q2122.7031,825.2031 2123.4219,824.1406 Q2124.1406,823.0625 2124.1406,820.4844 Q2124.1406,817.9375 2123.4219,816.875 Q2122.7031,815.8125 2121,815.8125 L2120.2188,815.8125 Z M2117.3438,813.2188 L2120.4219,813.2188 Q2124,813.2188 2125.5625,814.9219 Q2127.1406,816.625 2127.1406,820.4844 Q2127.1406,824.375 2125.5625,826.0938 Q2124,827.7969 2120.4219,827.7969 L2117.3438,827.7969 L2117.3438,813.2188 Z " fill="#000000"/><text fill="#000000" font-family="sans-serif" font-size="20" lengthAdjust="spacing" textLength="94" x="2135" y="827.2207">Database</text><line style="stroke:#181818;stroke-width:0.5;" x1="2105" x2="2231" y1="837.2969" y2="837.2969"/><line style="stroke:#181818;stroke-width:0.5;" x1="2105" x2="2231" y1="845.2969" y2="845.2969"/></g><!--link UI to CustomerController--><g id="link_UI_CustomerController"><path codeLine="63" d="M1726.97,94.3369 C1650.44,111.2069 1546.69,134.0869 1459.93,153.2069 " fill="none" id="UI-to-CustomerController" style="stroke:#000000;stroke-width:1.0;"/><polygon fill="#000000" points="1455.03,154.2969,1464.6779,156.2762,1459.9139,153.2258,1462.9643,148.4619,1455.03,154.2969" style="stroke:#000000;stroke-width:1.0;"/></g><!--link CustomerController to CustomerService--><g id="link_CustomerController_CustomerService"><path codeLine="64" d="M1284.44,227.5969 C1279.92,244.4869 1274.51,264.7269 1269.85,282.1969 " fill="none" id="CustomerController-to-CustomerService" style="stroke:#000000;stroke-width:1.0;"/><polygon fill="#000000" points="1268.55,287.0469,1274.7522,279.3962,1269.8499,282.2188,1267.0273,277.3164,1268.55,287.0469" style="stroke:#000000;stroke-width:1.0;"/></g><!--link CustomerService to Customer--><g id="link_CustomerService_Customer"><path codeLine="65" d="M1139,360.3269 C1082.53,377.0469 1012.2,397.8769 941.69,418.7469 " fill="none" id="CustomerService-to-Customer" style="stroke:#000000;stroke-width:1.0;"/><polygon fill="#000000" points="936.61,420.2569,946.3781,421.5154,941.4011,418.8267,944.0898,413.8497,936.61,420.2569" style="stroke:#000000;stroke-width:1.0;"/></g><!--link CustomerService to CustomerRepository--><g id="link_CustomerService_CustomerRepository"><path codeLine="66" d="M1298.12,360.4369 C1333.89,393.0269 1386.7,441.1369 1423.72,474.8669 " fill="none" id="CustomerService-to-CustomerRepository" style="stroke:#000000;stroke-width:1.0;"/><polygon fill="#000000" points="1427.7,478.4869,1423.7416,469.4685,1424.0042,475.1193,1418.3534,475.3818,1427.7,478.4869" style="stroke:#000000;stroke-width:1.0;"/></g><!--link CustomerRepository to JpaCustomerRepository--><g id="link_CustomerRepository_JpaCustomerRepository"><path codeLine="67" d="M1544.54,551.8069 C1586.09,570.2669 1638.39,592.6069 1686,610.2969 C1742.91,631.4469 1806.91,652.1269 1861.3,668.7969 " fill="none" id="CustomerRepository-to-JpaCustomerRepository" style="stroke:#000000;stroke-width:1.0;"/><polygon fill="#000000" points="1866.2,670.2969,1858.773,663.8285,1861.4208,668.8274,1856.4219,671.4753,1866.2,670.2969" style="stroke:#000000;stroke-width:1.0;"/></g><!--link JpaCustomerRepository to DB--><g id="link_JpaCustomerRepository_DB"><path codeLine="68" d="M2041.52,743.3269 C2069.05,761.6069 2102.06,783.5169 2127.45,800.3769 " fill="none" id="JpaCustomerRepository-to-DB" style="stroke:#000000;stroke-width:1.0;"/><polygon fill="#000000" points="2131.78,803.2469,2126.5103,794.9264,2127.6197,800.4734,2122.0727,801.5828,2131.78,803.2469" style="stroke:#000000;stroke-width:1.0;"/></g><!--link UI to CustomerUserController--><g id="link_UI_CustomerUserController"><path codeLine="69" d="M1948.65,94.3369 C2027.72,111.2069 2134.92,134.0869 2224.55,153.2069 " fill="none" id="UI-to-CustomerUserController" style="stroke:#000000;stroke-width:1.0;"/><polygon fill="#000000" points="2229.62,154.2969,2221.6533,148.5063,2224.7302,153.2531,2219.9833,156.33,2229.62,154.2969" style="stroke:#000000;stroke-width:1.0;"/></g><!--link CustomerUserController to ManagementService--><g id="link_CustomerUserController_ManagementService"><path codeLine="70" d="M2400.92,227.5969 C2403.22,244.3469 2405.97,264.3869 2408.36,281.7469 " fill="none" id="CustomerUserController-to-ManagementService" style="stroke:#000000;stroke-width:1.0;"/><polygon fill="#000000" points="2409.09,287.0469,2411.8458,277.5914,2408.4189,282.0921,2403.9182,278.6652,2409.09,287.0469" style="stroke:#000000;stroke-width:1.0;"/></g><!--link ManagementService to Factory--><g id="link_ManagementService_Factory"><path codeLine="71" d="M2375.06,360.4369 C2339.47,393.0269 2286.91,441.1369 2250.07,474.8669 " fill="none" id="ManagementService-to-Factory" style="stroke:#000000;stroke-width:1.0;"/><polygon fill="#000000" points="2246.11,478.4869,2255.4506,475.3638,2249.7993,475.1121,2250.051,469.4609,2246.11,478.4869" style="stroke:#000000;stroke-width:1.0;"/></g><!--link ManagementService to UserRepository--><g id="link_ManagementService_UserRepository"><path codeLine="72" d="M2562.72,360.3769 C2616.12,375.6469 2675.97,395.6969 2728,420.2969 C2759.94,435.3969 2792.94,457.0069 2818.97,475.7069 " fill="none" id="ManagementService-to-UserRepository" style="stroke:#000000;stroke-width:1.0;"/><polygon fill="#000000" points="2823.09,478.6869,2818.1337,470.176,2819.0359,475.7605,2813.4514,476.6627,2823.09,478.6869" style="stroke:#000000;stroke-width:1.0;"/></g><!--link UserRepository to JpaUserRepository--><g id="link_UserRepository_JpaUserRepository"><path codeLine="73" d="M2819.91,551.9369 C2774.76,584.7269 2707.96,633.2269 2661.47,666.9769 " fill="none" id="UserRepository-to-JpaUserRepository" style="stroke:#000000;stroke-width:1.0;"/><polygon fill="#000000" points="2657.31,669.9869,2666.9404,667.9242,2661.3524,667.0443,2662.2324,661.4563,2657.31,669.9869" style="stroke:#000000;stroke-width:1.0;"/></g><!--link JpaUserRepository to DB--><g id="link_JpaUserRepository_DB"><path codeLine="74" d="M2484.26,741.4069 C2404.37,763.0969 2303.38,790.5269 2237.31,808.4769 " fill="none" id="JpaUserRepository-to-DB" style="stroke:#000000;stroke-width:1.0;"/><polygon fill="#000000" points="2232.21,809.8569,2241.9446,811.3527,2237.0345,808.5437,2239.8435,803.6336,2232.21,809.8569" style="stroke:#000000;stroke-width:1.0;"/></g><!--SRC=[nLHTQzim57tNhn3jIyeQIFUohPH07SUGmVgGB3_WrhvnH6J9I792LlRV9yTs7CdA68DrVhBFFRxtt4-zOw841GMNwGupck46AcuIASoA_K3wSKA8OOOZdN7GciOCSikcOxfUFKmc3uJepWDDJumtGktZeS_6AFPQ6LoaKfmSJpnQ2UaESboPeusbC3KWSeuUIMyXamScShe1hdqhPmBDiKHQIdwiFqxso3hEbQn4DfDSAdgRp9ClyqydsxDIyj304RSyyfEG9ekR9UPC6rIpIXjPe5elRYXekbxGj-kacIsRafoZEf67S5kT3v1bdN6Kog84SNo10X_fojP9vFVK4XHgtGFfsLTsGSC26Ey_owqKP-lT8zrBbbtar8LSeTgp51sDBVRE0hiO0P6EkbRME22bCNXoMdP0KcDnP3MG8wqfGgeG3FxdEYonb9ePgOvEHNguQvc6FOwwwBtBiFUl9Lm94BJyLOp12kch6-AQ0aDO4qP-4MsKWrHPZsoOqiRjZvNY8CEjg5r_0s6FJu7swbtinW3jXAasinSy_0k1jIzFu7TxrtG2wRbDxNkdwC3CTYavlfCSRsPSo1cMIjU3KXE6dkoe1PmDq3_s5uE1Lz1Dy-A8FZsDudjw-pcQHqboDvrQHvPiJ_XuF0qSPnAurvVCTWY8Vp8lERyrzYcHm8hLpE3oaV1ArlmuyjDnDubSMR3wZy5qa-6yrxnsqgvOtLOHhtDjJXvfsE4sbry0]--></g></svg>