<?xml version="1.0" encoding="UTF-8" standalone="no"?><svg xmlns="http://www.w3.org/2000/svg" xmlns:xlink="http://www.w3.org/1999/xlink" contentStyleType="text/css" height="2343px" preserveAspectRatio="none" style="width:3976px;height:2343px;background:#FFFFFF;" version="1.1" viewBox="0 0 3976 2343" width="3976px" zoomAndPan="magnify"><defs/><g><text fill="#000000" font-family="sans-serif" font-size="14" font-weight="bold" lengthAdjust="spacing" textLength="225" x="1877" y="27.9951">Sequence Diagram - US1001</text><rect fill="#FFFFFF" height="2102.4063" style="stroke:#181818;stroke-width:1.0;" width="10" x="134" y="135.5781"/><rect fill="#FFFFFF" height="293.375" style="stroke:#181818;stroke-width:1.0;" width="10" x="385.5" y="211.4219"/><rect fill="#FFFFFF" height="1672.625" style="stroke:#181818;stroke-width:1.0;" width="10" x="385.5" y="565.3594"/><rect fill="#FFFFFF" height="405.375" style="stroke:#181818;stroke-width:1.0;" width="10" x="714.5" y="672.4844"/><rect fill="#FFFFFF" height="37.2813" style="stroke:#181818;stroke-width:1.0;" width="10" x="962.5" y="779.6094"/><rect fill="#FFFFFF" height="186.4063" style="stroke:#181818;stroke-width:1.0;" width="10" x="1172.5" y="854.1719"/><rect fill="#FFFFFF" height="111.8438" style="stroke:#181818;stroke-width:1.0;" width="10" x="1415" y="891.4531"/><rect fill="#FFFFFF" height="549.7813" style="stroke:#181818;stroke-width:1.0;" width="10" x="1648" y="1184.9844"/><rect fill="#FFFFFF" height="405.375" style="stroke:#181818;stroke-width:1.0;" width="10" x="1913" y="1292.1094"/><rect fill="#FFFFFF" height="37.2813" style="stroke:#181818;stroke-width:1.0;" width="10" x="2178" y="1399.2344"/><rect fill="#FFFFFF" height="186.4063" style="stroke:#181818;stroke-width:1.0;" width="10" x="2366" y="1473.7969"/><rect fill="#FFFFFF" height="111.8438" style="stroke:#181818;stroke-width:1.0;" width="10" x="2556.5" y="1511.0781"/><rect fill="#FFFFFF" height="358.8125" style="stroke:#181818;stroke-width:1.0;" width="10" x="2833.5" y="1795.3281"/><rect fill="#FFFFFF" height="37.2813" style="stroke:#181818;stroke-width:1.0;" width="10" x="3126.5" y="1855.8906"/><rect fill="#FFFFFF" height="186.4063" style="stroke:#181818;stroke-width:1.0;" width="10" x="3381.5" y="1930.4531"/><rect fill="#FFFFFF" height="111.8438" style="stroke:#181818;stroke-width:1.0;" width="10" x="3669" y="1967.7344"/><rect fill="#FFFFFF" height="37.2813" style="stroke:#181818;stroke-width:1.0;" width="10" x="3920" y="928.7344"/><rect fill="#FFFFFF" height="37.2813" style="stroke:#181818;stroke-width:1.0;" width="10" x="3920" y="1548.3594"/><rect fill="#FFFFFF" height="37.2813" style="stroke:#181818;stroke-width:1.0;" width="10" x="3920" y="2005.0156"/><line style="stroke:#181818;stroke-width:0.5;stroke-dasharray:5.0,5.0;" x1="139" x2="139" y1="125.5781" y2="2255.9844"/><line style="stroke:#181818;stroke-width:0.5;stroke-dasharray:5.0,5.0;" x1="390" x2="390" y1="125.5781" y2="2255.9844"/><line style="stroke:#181818;stroke-width:0.5;stroke-dasharray:5.0,5.0;" x1="719" x2="719" y1="125.5781" y2="2255.9844"/><line style="stroke:#181818;stroke-width:0.5;stroke-dasharray:5.0,5.0;" x1="967" x2="967" y1="125.5781" y2="2255.9844"/><line style="stroke:#181818;stroke-width:0.5;stroke-dasharray:5.0,5.0;" x1="1177" x2="1177" y1="125.5781" y2="2255.9844"/><line style="stroke:#181818;stroke-width:0.5;stroke-dasharray:5.0,5.0;" x1="1420" x2="1420" y1="125.5781" y2="2255.9844"/><line style="stroke:#181818;stroke-width:0.5;stroke-dasharray:5.0,5.0;" x1="1653" x2="1653" y1="125.5781" y2="2255.9844"/><line style="stroke:#181818;stroke-width:0.5;stroke-dasharray:5.0,5.0;" x1="1918" x2="1918" y1="125.5781" y2="2255.9844"/><line style="stroke:#181818;stroke-width:0.5;stroke-dasharray:5.0,5.0;" x1="2182.5" x2="2182.5" y1="125.5781" y2="2255.9844"/><line style="stroke:#181818;stroke-width:0.5;stroke-dasharray:5.0,5.0;" x1="2370.5" x2="2370.5" y1="125.5781" y2="2255.9844"/><line style="stroke:#181818;stroke-width:0.5;stroke-dasharray:5.0,5.0;" x1="2561.5" x2="2561.5" y1="125.5781" y2="2255.9844"/><line style="stroke:#181818;stroke-width:0.5;stroke-dasharray:5.0,5.0;" x1="2838.5" x2="2838.5" y1="125.5781" y2="2255.9844"/><line style="stroke:#181818;stroke-width:0.5;stroke-dasharray:5.0,5.0;" x1="3131.5" x2="3131.5" y1="125.5781" y2="2255.9844"/><line style="stroke:#181818;stroke-width:0.5;stroke-dasharray:5.0,5.0;" x1="3386.5" x2="3386.5" y1="125.5781" y2="2255.9844"/><line style="stroke:#181818;stroke-width:0.5;stroke-dasharray:5.0,5.0;" x1="3673.5" x2="3673.5" y1="125.5781" y2="2255.9844"/><line style="stroke:#181818;stroke-width:0.5;stroke-dasharray:5.0,5.0;" x1="3925" x2="3925" y1="125.5781" y2="2255.9844"/><text fill="#000000" font-family="sans-serif" font-size="20" lengthAdjust="spacing" text-decoration="underline" textLength="262" x="5" y="120.8613">CustomerBuilder Manager</text><ellipse cx="139" cy="50.7969" fill="#E2E2F0" rx="8" ry="8" style="stroke:#181818;stroke-width:0.5;"/><path d="M139,58.7969 L139,85.7969 M126,66.7969 L152,66.7969 M139,85.7969 L126,100.7969 M139,85.7969 L152,100.7969 " fill="none" style="stroke:#181818;stroke-width:0.5;"/><text fill="#000000" font-family="sans-serif" font-size="20" lengthAdjust="spacing" text-decoration="underline" textLength="262" x="5" y="2273.5488">CustomerBuilder Manager</text><ellipse cx="139" cy="2286.7656" fill="#E2E2F0" rx="8" ry="8" style="stroke:#181818;stroke-width:0.5;"/><path d="M139,2294.7656 L139,2321.7656 M126,2302.7656 L152,2302.7656 M139,2321.7656 L126,2336.7656 M139,2321.7656 L152,2336.7656 " fill="none" style="stroke:#181818;stroke-width:0.5;"/><rect fill="#E2E2F0" height="37.2813" rx="2.5" ry="2.5" style="stroke:#181818;stroke-width:0.5;" width="215" x="283" y="87.2969"/><text fill="#000000" font-family="sans-serif" font-size="20" lengthAdjust="spacing" text-decoration="underline" textLength="201" x="290" y="112.8613">RegisterCustomerUI</text><rect fill="#E2E2F0" height="37.2813" rx="2.5" ry="2.5" style="stroke:#181818;stroke-width:0.5;" width="215" x="283" y="2254.9844"/><text fill="#000000" font-family="sans-serif" font-size="20" lengthAdjust="spacing" text-decoration="underline" textLength="201" x="290" y="2280.5488">RegisterCustomerUI</text><rect fill="#E2E2F0" height="37.2813" rx="2.5" ry="2.5" style="stroke:#181818;stroke-width:0.5;" width="293" x="573" y="87.2969"/><text fill="#000000" font-family="sans-serif" font-size="20" lengthAdjust="spacing" text-decoration="underline" textLength="279" x="580" y="112.8613">RegisterCustomerController</text><rect fill="#E2E2F0" height="37.2813" rx="2.5" ry="2.5" style="stroke:#181818;stroke-width:0.5;" width="293" x="573" y="2254.9844"/><text fill="#000000" font-family="sans-serif" font-size="20" lengthAdjust="spacing" text-decoration="underline" textLength="279" x="580" y="2280.5488">RegisterCustomerController</text><rect fill="#E2E2F0" height="37.2813" rx="2.5" ry="2.5" style="stroke:#181818;stroke-width:0.5;" width="183" x="876" y="87.2969"/><text fill="#000000" font-family="sans-serif" font-size="20" lengthAdjust="spacing" text-decoration="underline" textLength="169" x="883" y="112.8613">CustomerBuilder</text><rect fill="#E2E2F0" height="37.2813" rx="2.5" ry="2.5" style="stroke:#181818;stroke-width:0.5;" width="183" x="876" y="2254.9844"/><text fill="#000000" font-family="sans-serif" font-size="20" lengthAdjust="spacing" text-decoration="underline" textLength="169" x="883" y="2280.5488">CustomerBuilder</text><rect fill="#E2E2F0" height="37.2813" rx="2.5" ry="2.5" style="stroke:#181818;stroke-width:0.5;" width="217" x="1069" y="87.2969"/><text fill="#000000" font-family="sans-serif" font-size="20" lengthAdjust="spacing" text-decoration="underline" textLength="203" x="1076" y="112.8613">CustomerRepository</text><rect fill="#E2E2F0" height="37.2813" rx="2.5" ry="2.5" style="stroke:#181818;stroke-width:0.5;" width="217" x="1069" y="2254.9844"/><text fill="#000000" font-family="sans-serif" font-size="20" lengthAdjust="spacing" text-decoration="underline" textLength="203" x="1076" y="2280.5488">CustomerRepository</text><rect fill="#E2E2F0" height="37.2813" rx="2.5" ry="2.5" style="stroke:#181818;stroke-width:0.5;" width="248" x="1296" y="87.2969"/><text fill="#000000" font-family="sans-serif" font-size="20" lengthAdjust="spacing" text-decoration="underline" textLength="234" x="1303" y="112.8613">JpaCustomerRepository</text><rect fill="#E2E2F0" height="37.2813" rx="2.5" ry="2.5" style="stroke:#181818;stroke-width:0.5;" width="248" x="1296" y="2254.9844"/><text fill="#000000" font-family="sans-serif" font-size="20" lengthAdjust="spacing" text-decoration="underline" textLength="234" x="1303" y="2280.5488">JpaCustomerRepository</text><rect fill="#E2E2F0" height="37.2813" rx="2.5" ry="2.5" style="stroke:#181818;stroke-width:0.5;" width="198" x="1554" y="87.2969"/><text fill="#000000" font-family="sans-serif" font-size="20" lengthAdjust="spacing" text-decoration="underline" textLength="184" x="1561" y="112.8613">AddUserController</text><rect fill="#E2E2F0" height="37.2813" rx="2.5" ry="2.5" style="stroke:#181818;stroke-width:0.5;" width="198" x="1554" y="2254.9844"/><text fill="#000000" font-family="sans-serif" font-size="20" lengthAdjust="spacing" text-decoration="underline" textLength="184" x="1561" y="2280.5488">AddUserController</text><rect fill="#E2E2F0" height="37.2813" rx="2.5" ry="2.5" style="stroke:#181818;stroke-width:0.5;" width="264" x="1786" y="87.2969"/><text fill="#000000" font-family="sans-serif" font-size="20" lengthAdjust="spacing" text-decoration="underline" textLength="250" x="1793" y="112.8613">UserManagementService</text><rect fill="#E2E2F0" height="37.2813" rx="2.5" ry="2.5" style="stroke:#181818;stroke-width:0.5;" width="264" x="1786" y="2254.9844"/><text fill="#000000" font-family="sans-serif" font-size="20" lengthAdjust="spacing" text-decoration="underline" textLength="250" x="1793" y="2280.5488">UserManagementService</text><rect fill="#E2E2F0" height="37.2813" rx="2.5" ry="2.5" style="stroke:#181818;stroke-width:0.5;" width="191" x="2087.5" y="87.2969"/><text fill="#000000" font-family="sans-serif" font-size="20" lengthAdjust="spacing" text-decoration="underline" textLength="177" x="2094.5" y="112.8613">UserTypesFactory</text><rect fill="#E2E2F0" height="37.2813" rx="2.5" ry="2.5" style="stroke:#181818;stroke-width:0.5;" width="191" x="2087.5" y="2254.9844"/><text fill="#000000" font-family="sans-serif" font-size="20" lengthAdjust="spacing" text-decoration="underline" textLength="177" x="2094.5" y="2280.5488">UserTypesFactory</text><rect fill="#E2E2F0" height="37.2813" rx="2.5" ry="2.5" style="stroke:#181818;stroke-width:0.5;" width="165" x="2288.5" y="87.2969"/><text fill="#000000" font-family="sans-serif" font-size="20" lengthAdjust="spacing" text-decoration="underline" textLength="151" x="2295.5" y="112.8613">UserRepository</text><rect fill="#E2E2F0" height="37.2813" rx="2.5" ry="2.5" style="stroke:#181818;stroke-width:0.5;" width="165" x="2288.5" y="2254.9844"/><text fill="#000000" font-family="sans-serif" font-size="20" lengthAdjust="spacing" text-decoration="underline" textLength="151" x="2295.5" y="2280.5488">UserRepository</text><rect fill="#E2E2F0" height="37.2813" rx="2.5" ry="2.5" style="stroke:#181818;stroke-width:0.5;" width="196" x="2463.5" y="87.2969"/><text fill="#000000" font-family="sans-serif" font-size="20" lengthAdjust="spacing" text-decoration="underline" textLength="182" x="2470.5" y="112.8613">JpaUserRepository</text><rect fill="#E2E2F0" height="37.2813" rx="2.5" ry="2.5" style="stroke:#181818;stroke-width:0.5;" width="196" x="2463.5" y="2254.9844"/><text fill="#000000" font-family="sans-serif" font-size="20" lengthAdjust="spacing" text-decoration="underline" textLength="182" x="2470.5" y="2280.5488">JpaUserRepository</text><rect fill="#E2E2F0" height="37.2813" rx="2.5" ry="2.5" style="stroke:#181818;stroke-width:0.5;" width="338" x="2669.5" y="87.2969"/><text fill="#000000" font-family="sans-serif" font-size="20" lengthAdjust="spacing" text-decoration="underline" textLength="324" x="2676.5" y="112.8613">RegisterCustomerUserController</text><rect fill="#E2E2F0" height="37.2813" rx="2.5" ry="2.5" style="stroke:#181818;stroke-width:0.5;" width="338" x="2669.5" y="2254.9844"/><text fill="#000000" font-family="sans-serif" font-size="20" lengthAdjust="spacing" text-decoration="underline" textLength="324" x="2676.5" y="2280.5488">RegisterCustomerUserController</text><rect fill="#E2E2F0" height="37.2813" rx="2.5" ry="2.5" style="stroke:#181818;stroke-width:0.5;" width="228" x="3017.5" y="87.2969"/><text fill="#000000" font-family="sans-serif" font-size="20" lengthAdjust="spacing" text-decoration="underline" textLength="214" x="3024.5" y="112.8613">CustomerUserBuilder</text><rect fill="#E2E2F0" height="37.2813" rx="2.5" ry="2.5" style="stroke:#181818;stroke-width:0.5;" width="228" x="3017.5" y="2254.9844"/><text fill="#000000" font-family="sans-serif" font-size="20" lengthAdjust="spacing" text-decoration="underline" textLength="214" x="3024.5" y="2280.5488">CustomerUserBuilder</text><rect fill="#E2E2F0" height="37.2813" rx="2.5" ry="2.5" style="stroke:#181818;stroke-width:0.5;" width="262" x="3255.5" y="87.2969"/><text fill="#000000" font-family="sans-serif" font-size="20" lengthAdjust="spacing" text-decoration="underline" textLength="248" x="3262.5" y="112.8613">CustomerUserRepository</text><rect fill="#E2E2F0" height="37.2813" rx="2.5" ry="2.5" style="stroke:#181818;stroke-width:0.5;" width="262" x="3255.5" y="2254.9844"/><text fill="#000000" font-family="sans-serif" font-size="20" lengthAdjust="spacing" text-decoration="underline" textLength="248" x="3262.5" y="2280.5488">CustomerUserRepository</text><rect fill="#E2E2F0" height="37.2813" rx="2.5" ry="2.5" style="stroke:#181818;stroke-width:0.5;" width="293" x="3527.5" y="87.2969"/><text fill="#000000" font-family="sans-serif" font-size="20" lengthAdjust="spacing" text-decoration="underline" textLength="279" x="3534.5" y="112.8613">JpaCustomerUserRepository</text><rect fill="#E2E2F0" height="37.2813" rx="2.5" ry="2.5" style="stroke:#181818;stroke-width:0.5;" width="293" x="3527.5" y="2254.9844"/><text fill="#000000" font-family="sans-serif" font-size="20" lengthAdjust="spacing" text-decoration="underline" textLength="279" x="3534.5" y="2280.5488">JpaCustomerUserRepository</text><text fill="#000000" font-family="sans-serif" font-size="20" lengthAdjust="spacing" text-decoration="underline" textLength="94" x="3875" y="120.8613">Database</text><path d="M3907,66.2969 C3907,56.2969 3925,56.2969 3925,56.2969 C3925,56.2969 3943,56.2969 3943,66.2969 L3943,92.2969 C3943,102.2969 3925,102.2969 3925,102.2969 C3925,102.2969 3907,102.2969 3907,92.2969 L3907,66.2969 " fill="#E2E2F0" style="stroke:#181818;stroke-width:1.5;"/><path d="M3907,66.2969 C3907,76.2969 3925,76.2969 3925,76.2969 C3925,76.2969 3943,76.2969 3943,66.2969 " fill="none" style="stroke:#181818;stroke-width:1.5;"/><text fill="#000000" font-family="sans-serif" font-size="20" lengthAdjust="spacing" text-decoration="underline" textLength="94" x="3875" y="2273.5488">Database</text><path d="M3907,2288.2656 C3907,2278.2656 3925,2278.2656 3925,2278.2656 C3925,2278.2656 3943,2278.2656 3943,2288.2656 L3943,2314.2656 C3943,2324.2656 3925,2324.2656 3925,2324.2656 C3925,2324.2656 3907,2324.2656 3907,2314.2656 L3907,2288.2656 " fill="#E2E2F0" style="stroke:#181818;stroke-width:1.5;"/><path d="M3907,2288.2656 C3907,2298.2656 3925,2298.2656 3925,2298.2656 C3925,2298.2656 3943,2298.2656 3943,2288.2656 " fill="none" style="stroke:#181818;stroke-width:1.5;"/><rect fill="#FFFFFF" height="2102.4063" style="stroke:#181818;stroke-width:1.0;" width="10" x="134" y="135.5781"/><rect fill="#FFFFFF" height="293.375" style="stroke:#181818;stroke-width:1.0;" width="10" x="385.5" y="211.4219"/><rect fill="#FFFFFF" height="1672.625" style="stroke:#181818;stroke-width:1.0;" width="10" x="385.5" y="565.3594"/><rect fill="#FFFFFF" height="405.375" style="stroke:#181818;stroke-width:1.0;" width="10" x="714.5" y="672.4844"/><rect fill="#FFFFFF" height="37.2813" style="stroke:#181818;stroke-width:1.0;" width="10" x="962.5" y="779.6094"/><rect fill="#FFFFFF" height="186.4063" style="stroke:#181818;stroke-width:1.0;" width="10" x="1172.5" y="854.1719"/><rect fill="#FFFFFF" height="111.8438" style="stroke:#181818;stroke-width:1.0;" width="10" x="1415" y="891.4531"/><rect fill="#FFFFFF" height="549.7813" style="stroke:#181818;stroke-width:1.0;" width="10" x="1648" y="1184.9844"/><rect fill="#FFFFFF" height="405.375" style="stroke:#181818;stroke-width:1.0;" width="10" x="1913" y="1292.1094"/><rect fill="#FFFFFF" height="37.2813" style="stroke:#181818;stroke-width:1.0;" width="10" x="2178" y="1399.2344"/><rect fill="#FFFFFF" height="186.4063" style="stroke:#181818;stroke-width:1.0;" width="10" x="2366" y="1473.7969"/><rect fill="#FFFFFF" height="111.8438" style="stroke:#181818;stroke-width:1.0;" width="10" x="2556.5" y="1511.0781"/><rect fill="#FFFFFF" height="358.8125" style="stroke:#181818;stroke-width:1.0;" width="10" x="2833.5" y="1795.3281"/><rect fill="#FFFFFF" height="37.2813" style="stroke:#181818;stroke-width:1.0;" width="10" x="3126.5" y="1855.8906"/><rect fill="#FFFFFF" height="186.4063" style="stroke:#181818;stroke-width:1.0;" width="10" x="3381.5" y="1930.4531"/><rect fill="#FFFFFF" height="111.8438" style="stroke:#181818;stroke-width:1.0;" width="10" x="3669" y="1967.7344"/><rect fill="#FFFFFF" height="37.2813" style="stroke:#181818;stroke-width:1.0;" width="10" x="3920" y="928.7344"/><rect fill="#FFFFFF" height="37.2813" style="stroke:#181818;stroke-width:1.0;" width="10" x="3920" y="1548.3594"/><rect fill="#FFFFFF" height="37.2813" style="stroke:#181818;stroke-width:1.0;" width="10" x="3920" y="2005.0156"/><polygon fill="#181818" points="373.5,207.4219,383.5,211.4219,373.5,215.4219,377.5,211.4219" style="stroke:#181818;stroke-width:1.0;"/><line style="stroke:#181818;stroke-width:1.0;" x1="144" x2="379.5" y1="211.4219" y2="211.4219"/><text fill="#000000" font-family="sans-serif" font-size="20" lengthAdjust="spacing" textLength="46" x="151" y="158.1426">Asks</text><text fill="#000000" font-family="sans-serif" font-size="20" lengthAdjust="spacing" textLength="6" x="197" y="158.1426"> </text><text fill="#000000" font-family="sans-serif" font-size="20" lengthAdjust="spacing" textLength="20" x="203" y="158.1426">to</text><text fill="#000000" font-family="sans-serif" font-size="20" lengthAdjust="spacing" textLength="77" x="151" y="181.4238">register</text><text fill="#000000" font-family="sans-serif" font-size="20" lengthAdjust="spacing" textLength="6" x="228" y="181.4238"> </text><text fill="#000000" font-family="sans-serif" font-size="20" lengthAdjust="spacing" textLength="12" x="234" y="181.4238">a</text><text fill="#000000" font-family="sans-serif" font-size="20" lengthAdjust="spacing" textLength="94" x="151" y="204.7051">customer</text><polygon fill="#181818" points="155,500.7969,145,504.7969,155,508.7969,151,504.7969" style="stroke:#181818;stroke-width:1.0;"/><line style="stroke:#181818;stroke-width:1.0;stroke-dasharray:2.0,2.0;" x1="149" x2="389.5" y1="504.7969" y2="504.7969"/><text fill="#000000" font-family="sans-serif" font-size="20" lengthAdjust="spacing" textLength="46" x="161" y="241.9863">Asks</text><text fill="#000000" font-family="sans-serif" font-size="20" lengthAdjust="spacing" textLength="6" x="207" y="241.9863"> </text><text fill="#000000" font-family="sans-serif" font-size="20" lengthAdjust="spacing" textLength="27" x="213" y="241.9863">for</text><text fill="#000000" font-family="sans-serif" font-size="20" lengthAdjust="spacing" textLength="117" x="161" y="265.2676">information</text><text fill="#000000" font-family="sans-serif" font-size="20" lengthAdjust="spacing" textLength="100" x="161" y="288.5488">(company</text><text fill="#000000" font-family="sans-serif" font-size="20" lengthAdjust="spacing" textLength="63" x="161" y="311.8301">name,</text><text fill="#000000" font-family="sans-serif" font-size="20" lengthAdjust="spacing" textLength="84" x="161" y="335.1113">address,</text><text fill="#000000" font-family="sans-serif" font-size="20" lengthAdjust="spacing" textLength="94" x="161" y="358.3926">customer</text><text fill="#000000" font-family="sans-serif" font-size="20" lengthAdjust="spacing" textLength="54" x="161" y="381.6738">code,</text><text fill="#000000" font-family="sans-serif" font-size="20" lengthAdjust="spacing" textLength="94" x="161" y="404.9551">customer</text><text fill="#000000" font-family="sans-serif" font-size="20" lengthAdjust="spacing" textLength="62" x="161" y="428.2363">email,</text><text fill="#000000" font-family="sans-serif" font-size="20" lengthAdjust="spacing" textLength="6" x="223" y="428.2363"> </text><text fill="#000000" font-family="sans-serif" font-size="20" lengthAdjust="spacing" textLength="63" x="229" y="428.2363">phone</text><text fill="#000000" font-family="sans-serif" font-size="20" lengthAdjust="spacing" textLength="85" x="161" y="451.5176">number,</text><text fill="#000000" font-family="sans-serif" font-size="20" lengthAdjust="spacing" textLength="6" x="246" y="451.5176"> </text><text fill="#000000" font-family="sans-serif" font-size="20" lengthAdjust="spacing" textLength="39" x="252" y="451.5176">first</text><text fill="#000000" font-family="sans-serif" font-size="20" lengthAdjust="spacing" textLength="63" x="161" y="474.7988">name,</text><text fill="#000000" font-family="sans-serif" font-size="20" lengthAdjust="spacing" textLength="6" x="224" y="474.7988"> </text><text fill="#000000" font-family="sans-serif" font-size="20" lengthAdjust="spacing" textLength="36" x="230" y="474.7988">last</text><text fill="#000000" font-family="sans-serif" font-size="20" lengthAdjust="spacing" textLength="63" x="161" y="498.0801">name,</text><text fill="#000000" font-family="sans-serif" font-size="20" lengthAdjust="spacing" textLength="6" x="224" y="498.0801"> </text><text fill="#000000" font-family="sans-serif" font-size="20" lengthAdjust="spacing" textLength="64" x="230" y="498.0801">email)</text><polygon fill="#181818" points="373.5,561.3594,383.5,565.3594,373.5,569.3594,377.5,565.3594" style="stroke:#181818;stroke-width:1.0;"/><line style="stroke:#181818;stroke-width:1.0;" x1="144" x2="379.5" y1="565.3594" y2="565.3594"/><text fill="#000000" font-family="sans-serif" font-size="20" lengthAdjust="spacing" textLength="84" x="151" y="535.3613">Provides</text><text fill="#000000" font-family="sans-serif" font-size="20" lengthAdjust="spacing" textLength="117" x="151" y="558.6426">information</text><polygon fill="#181818" points="702.5,668.4844,712.5,672.4844,702.5,676.4844,706.5,672.4844" style="stroke:#181818;stroke-width:1.0;"/><line style="stroke:#181818;stroke-width:1.0;" x1="395.5" x2="708.5" y1="672.4844" y2="672.4844"/><text fill="#000000" font-family="sans-serif" font-size="20" lengthAdjust="spacing" textLength="300" x="402.5" y="595.9238">addCustomer(companyName,</text><text fill="#000000" font-family="sans-serif" font-size="20" lengthAdjust="spacing" textLength="84" x="402.5" y="619.2051">address,</text><text fill="#000000" font-family="sans-serif" font-size="20" lengthAdjust="spacing" textLength="151" x="402.5" y="642.4863">customerCode,</text><text fill="#000000" font-family="sans-serif" font-size="20" lengthAdjust="spacing" textLength="62" x="402.5" y="665.7676">email,</text><text fill="#000000" font-family="sans-serif" font-size="20" lengthAdjust="spacing" textLength="6" x="464.5" y="665.7676"> </text><text fill="#000000" font-family="sans-serif" font-size="20" lengthAdjust="spacing" textLength="71" x="470.5" y="665.7676">phone)</text><polygon fill="#181818" points="950.5,775.6094,960.5,779.6094,950.5,783.6094,954.5,779.6094" style="stroke:#181818;stroke-width:1.0;"/><line style="stroke:#181818;stroke-width:1.0;" x1="724.5" x2="956.5" y1="779.6094" y2="779.6094"/><text fill="#000000" font-family="sans-serif" font-size="20" lengthAdjust="spacing" textLength="209" x="731.5" y="703.0488">with(companyName,</text><text fill="#000000" font-family="sans-serif" font-size="20" lengthAdjust="spacing" textLength="84" x="731.5" y="726.3301">address,</text><text fill="#000000" font-family="sans-serif" font-size="20" lengthAdjust="spacing" textLength="151" x="731.5" y="749.6113">customerCode,</text><text fill="#000000" font-family="sans-serif" font-size="20" lengthAdjust="spacing" textLength="62" x="731.5" y="772.8926">email,</text><text fill="#000000" font-family="sans-serif" font-size="20" lengthAdjust="spacing" textLength="6" x="793.5" y="772.8926"> </text><text fill="#000000" font-family="sans-serif" font-size="20" lengthAdjust="spacing" textLength="71" x="799.5" y="772.8926">phone)</text><polygon fill="#181818" points="735.5,812.8906,725.5,816.8906,735.5,820.8906,731.5,816.8906" style="stroke:#181818;stroke-width:1.0;"/><line style="stroke:#181818;stroke-width:1.0;stroke-dasharray:2.0,2.0;" x1="729.5" x2="966.5" y1="816.8906" y2="816.8906"/><text fill="#000000" font-family="sans-serif" font-size="20" lengthAdjust="spacing" textLength="97" x="741.5" y="810.1738">Customer</text><polygon fill="#181818" points="1160.5,850.1719,1170.5,854.1719,1160.5,858.1719,1164.5,854.1719" style="stroke:#181818;stroke-width:1.0;"/><line style="stroke:#181818;stroke-width:1.0;stroke-dasharray:2.0,2.0;" x1="724.5" x2="1166.5" y1="854.1719" y2="854.1719"/><text fill="#000000" font-family="sans-serif" font-size="20" lengthAdjust="spacing" textLength="155" x="731.5" y="847.4551">save(customer)</text><polygon fill="#181818" points="1403,887.4531,1413,891.4531,1403,895.4531,1407,891.4531" style="stroke:#181818;stroke-width:1.0;"/><line style="stroke:#181818;stroke-width:1.0;stroke-dasharray:2.0,2.0;" x1="1182.5" x2="1409" y1="891.4531" y2="891.4531"/><text fill="#000000" font-family="sans-serif" font-size="20" lengthAdjust="spacing" textLength="155" x="1189.5" y="884.7363">save(customer)</text><polygon fill="#181818" points="3908,924.7344,3918,928.7344,3908,932.7344,3912,928.7344" style="stroke:#181818;stroke-width:1.0;"/><line style="stroke:#181818;stroke-width:1.0;" x1="1425" x2="3914" y1="928.7344" y2="928.7344"/><text fill="#000000" font-family="sans-serif" font-size="20" lengthAdjust="spacing" textLength="177" x="1432" y="922.0176">persist(customer)</text><polygon fill="#181818" points="1436,962.0156,1426,966.0156,1436,970.0156,1432,966.0156" style="stroke:#181818;stroke-width:1.0;"/><line style="stroke:#181818;stroke-width:1.0;stroke-dasharray:2.0,2.0;" x1="1430" x2="3924" y1="966.0156" y2="966.0156"/><text fill="#000000" font-family="sans-serif" font-size="20" lengthAdjust="spacing" textLength="97" x="1442" y="959.2988">Customer</text><polygon fill="#181818" points="1193.5,999.2969,1183.5,1003.2969,1193.5,1007.2969,1189.5,1003.2969" style="stroke:#181818;stroke-width:1.0;"/><line style="stroke:#181818;stroke-width:1.0;stroke-dasharray:2.0,2.0;" x1="1187.5" x2="1419" y1="1003.2969" y2="1003.2969"/><text fill="#000000" font-family="sans-serif" font-size="20" lengthAdjust="spacing" textLength="97" x="1199.5" y="996.5801">Customer</text><polygon fill="#181818" points="735.5,1036.5781,725.5,1040.5781,735.5,1044.5781,731.5,1040.5781" style="stroke:#181818;stroke-width:1.0;"/><line style="stroke:#181818;stroke-width:1.0;stroke-dasharray:2.0,2.0;" x1="729.5" x2="1176.5" y1="1040.5781" y2="1040.5781"/><text fill="#000000" font-family="sans-serif" font-size="20" lengthAdjust="spacing" textLength="97" x="741.5" y="1033.8613">Customer</text><polygon fill="#181818" points="406.5,1073.8594,396.5,1077.8594,406.5,1081.8594,402.5,1077.8594" style="stroke:#181818;stroke-width:1.0;"/><line style="stroke:#181818;stroke-width:1.0;stroke-dasharray:2.0,2.0;" x1="400.5" x2="718.5" y1="1077.8594" y2="1077.8594"/><text fill="#000000" font-family="sans-serif" font-size="20" lengthAdjust="spacing" textLength="97" x="412.5" y="1071.1426">Customer</text><polygon fill="#181818" points="1636,1180.9844,1646,1184.9844,1636,1188.9844,1640,1184.9844" style="stroke:#181818;stroke-width:1.0;"/><line style="stroke:#181818;stroke-width:1.0;" x1="395.5" x2="1642" y1="1184.9844" y2="1184.9844"/><text fill="#000000" font-family="sans-serif" font-size="20" lengthAdjust="spacing" textLength="153" x="402.5" y="1108.4238">addUser(email,</text><text fill="#000000" font-family="sans-serif" font-size="20" lengthAdjust="spacing" textLength="101" x="402.5" y="1131.7051">password,</text><text fill="#000000" font-family="sans-serif" font-size="20" lengthAdjust="spacing" textLength="6" x="503.5" y="1131.7051"> </text><text fill="#000000" font-family="sans-serif" font-size="20" lengthAdjust="spacing" textLength="39" x="509.5" y="1131.7051">first</text><text fill="#000000" font-family="sans-serif" font-size="20" lengthAdjust="spacing" textLength="63" x="402.5" y="1154.9863">name,</text><text fill="#000000" font-family="sans-serif" font-size="20" lengthAdjust="spacing" textLength="6" x="465.5" y="1154.9863"> </text><text fill="#000000" font-family="sans-serif" font-size="20" lengthAdjust="spacing" textLength="36" x="471.5" y="1154.9863">last</text><text fill="#000000" font-family="sans-serif" font-size="20" lengthAdjust="spacing" textLength="65" x="402.5" y="1178.2676">name)</text><polygon fill="#181818" points="1901,1288.1094,1911,1292.1094,1901,1296.1094,1905,1292.1094" style="stroke:#181818;stroke-width:1.0;"/><line style="stroke:#181818;stroke-width:1.0;" x1="1658" x2="1907" y1="1292.1094" y2="1292.1094"/><text fill="#000000" font-family="sans-serif" font-size="20" lengthAdjust="spacing" textLength="236" x="1665" y="1215.5488">registerNewUser(email,</text><text fill="#000000" font-family="sans-serif" font-size="20" lengthAdjust="spacing" textLength="101" x="1665" y="1238.8301">password,</text><text fill="#000000" font-family="sans-serif" font-size="20" lengthAdjust="spacing" textLength="6" x="1766" y="1238.8301"> </text><text fill="#000000" font-family="sans-serif" font-size="20" lengthAdjust="spacing" textLength="39" x="1772" y="1238.8301">first</text><text fill="#000000" font-family="sans-serif" font-size="20" lengthAdjust="spacing" textLength="63" x="1665" y="1262.1113">name,</text><text fill="#000000" font-family="sans-serif" font-size="20" lengthAdjust="spacing" textLength="6" x="1728" y="1262.1113"> </text><text fill="#000000" font-family="sans-serif" font-size="20" lengthAdjust="spacing" textLength="36" x="1734" y="1262.1113">last</text><text fill="#000000" font-family="sans-serif" font-size="20" lengthAdjust="spacing" textLength="63" x="1665" y="1285.3926">name,</text><text fill="#000000" font-family="sans-serif" font-size="20" lengthAdjust="spacing" textLength="6" x="1728" y="1285.3926"> </text><text fill="#000000" font-family="sans-serif" font-size="20" lengthAdjust="spacing" textLength="46" x="1734" y="1285.3926">role)</text><polygon fill="#181818" points="2166,1395.2344,2176,1399.2344,2166,1403.2344,2170,1399.2344" style="stroke:#181818;stroke-width:1.0;"/><line style="stroke:#181818;stroke-width:1.0;" x1="1923" x2="2172" y1="1399.2344" y2="1399.2344"/><text fill="#000000" font-family="sans-serif" font-size="20" lengthAdjust="spacing" textLength="236" x="1930" y="1322.6738">registerNewUser(email,</text><text fill="#000000" font-family="sans-serif" font-size="20" lengthAdjust="spacing" textLength="101" x="1930" y="1345.9551">password,</text><text fill="#000000" font-family="sans-serif" font-size="20" lengthAdjust="spacing" textLength="6" x="2031" y="1345.9551"> </text><text fill="#000000" font-family="sans-serif" font-size="20" lengthAdjust="spacing" textLength="39" x="2037" y="1345.9551">first</text><text fill="#000000" font-family="sans-serif" font-size="20" lengthAdjust="spacing" textLength="63" x="1930" y="1369.2363">name,</text><text fill="#000000" font-family="sans-serif" font-size="20" lengthAdjust="spacing" textLength="6" x="1993" y="1369.2363"> </text><text fill="#000000" font-family="sans-serif" font-size="20" lengthAdjust="spacing" textLength="36" x="1999" y="1369.2363">last</text><text fill="#000000" font-family="sans-serif" font-size="20" lengthAdjust="spacing" textLength="63" x="1930" y="1392.5176">name,</text><text fill="#000000" font-family="sans-serif" font-size="20" lengthAdjust="spacing" textLength="6" x="1993" y="1392.5176"> </text><text fill="#000000" font-family="sans-serif" font-size="20" lengthAdjust="spacing" textLength="46" x="1999" y="1392.5176">role)</text><polygon fill="#181818" points="1934,1432.5156,1924,1436.5156,1934,1440.5156,1930,1436.5156" style="stroke:#181818;stroke-width:1.0;"/><line style="stroke:#181818;stroke-width:1.0;stroke-dasharray:2.0,2.0;" x1="1928" x2="2182" y1="1436.5156" y2="1436.5156"/><text fill="#000000" font-family="sans-serif" font-size="20" lengthAdjust="spacing" textLength="43" x="1940" y="1429.7988">user</text><polygon fill="#181818" points="2354,1469.7969,2364,1473.7969,2354,1477.7969,2358,1473.7969" style="stroke:#181818;stroke-width:1.0;"/><line style="stroke:#181818;stroke-width:1.0;" x1="1923" x2="2360" y1="1473.7969" y2="1473.7969"/><text fill="#000000" font-family="sans-serif" font-size="20" lengthAdjust="spacing" textLength="104" x="1930" y="1467.0801">save(user)</text><polygon fill="#181818" points="2544.5,1507.0781,2554.5,1511.0781,2544.5,1515.0781,2548.5,1511.0781" style="stroke:#181818;stroke-width:1.0;"/><line style="stroke:#181818;stroke-width:1.0;" x1="2376" x2="2550.5" y1="1511.0781" y2="1511.0781"/><text fill="#000000" font-family="sans-serif" font-size="20" lengthAdjust="spacing" textLength="104" x="2383" y="1504.3613">save(user)</text><polygon fill="#181818" points="3908,1544.3594,3918,1548.3594,3908,1552.3594,3912,1548.3594" style="stroke:#181818;stroke-width:1.0;"/><line style="stroke:#181818;stroke-width:1.0;" x1="2566.5" x2="3914" y1="1548.3594" y2="1548.3594"/><text fill="#000000" font-family="sans-serif" font-size="20" lengthAdjust="spacing" textLength="126" x="2573.5" y="1541.6426">persist(user)</text><polygon fill="#181818" points="2577.5,1581.6406,2567.5,1585.6406,2577.5,1589.6406,2573.5,1585.6406" style="stroke:#181818;stroke-width:1.0;"/><line style="stroke:#181818;stroke-width:1.0;stroke-dasharray:2.0,2.0;" x1="2571.5" x2="3924" y1="1585.6406" y2="1585.6406"/><text fill="#000000" font-family="sans-serif" font-size="20" lengthAdjust="spacing" textLength="45" x="2583.5" y="1578.9238">User</text><polygon fill="#181818" points="2387,1618.9219,2377,1622.9219,2387,1626.9219,2383,1622.9219" style="stroke:#181818;stroke-width:1.0;"/><line style="stroke:#181818;stroke-width:1.0;stroke-dasharray:2.0,2.0;" x1="2381" x2="2560.5" y1="1622.9219" y2="1622.9219"/><text fill="#000000" font-family="sans-serif" font-size="20" lengthAdjust="spacing" textLength="45" x="2393" y="1616.2051">User</text><polygon fill="#181818" points="1934,1656.2031,1924,1660.2031,1934,1664.2031,1930,1660.2031" style="stroke:#181818;stroke-width:1.0;"/><line style="stroke:#181818;stroke-width:1.0;stroke-dasharray:2.0,2.0;" x1="1928" x2="2370" y1="1660.2031" y2="1660.2031"/><text fill="#000000" font-family="sans-serif" font-size="20" lengthAdjust="spacing" textLength="45" x="1940" y="1653.4863">User</text><polygon fill="#181818" points="1669,1693.4844,1659,1697.4844,1669,1701.4844,1665,1697.4844" style="stroke:#181818;stroke-width:1.0;"/><line style="stroke:#181818;stroke-width:1.0;stroke-dasharray:2.0,2.0;" x1="1663" x2="1917" y1="1697.4844" y2="1697.4844"/><text fill="#000000" font-family="sans-serif" font-size="20" lengthAdjust="spacing" textLength="45" x="1675" y="1690.7676">User</text><polygon fill="#181818" points="406.5,1730.7656,396.5,1734.7656,406.5,1738.7656,402.5,1734.7656" style="stroke:#181818;stroke-width:1.0;"/><line style="stroke:#181818;stroke-width:1.0;stroke-dasharray:2.0,2.0;" x1="400.5" x2="1652" y1="1734.7656" y2="1734.7656"/><text fill="#000000" font-family="sans-serif" font-size="20" lengthAdjust="spacing" textLength="45" x="412.5" y="1728.0488">User</text><polygon fill="#181818" points="2821.5,1791.3281,2831.5,1795.3281,2821.5,1799.3281,2825.5,1795.3281" style="stroke:#181818;stroke-width:1.0;"/><line style="stroke:#181818;stroke-width:1.0;" x1="395.5" x2="2827.5" y1="1795.3281" y2="1795.3281"/><text fill="#000000" font-family="sans-serif" font-size="20" lengthAdjust="spacing" textLength="327" x="402.5" y="1765.3301">registerCustomerUser(customer,</text><text fill="#000000" font-family="sans-serif" font-size="20" lengthAdjust="spacing" textLength="51" x="402.5" y="1788.6113">user)</text><polygon fill="#181818" points="3114.5,1851.8906,3124.5,1855.8906,3114.5,1859.8906,3118.5,1855.8906" style="stroke:#181818;stroke-width:1.0;"/><line style="stroke:#181818;stroke-width:1.0;" x1="2843.5" x2="3120.5" y1="1855.8906" y2="1855.8906"/><text fill="#000000" font-family="sans-serif" font-size="20" lengthAdjust="spacing" textLength="152" x="2850.5" y="1825.8926">with(customer,</text><text fill="#000000" font-family="sans-serif" font-size="20" lengthAdjust="spacing" textLength="51" x="2850.5" y="1849.1738">user)</text><polygon fill="#181818" points="2854.5,1889.1719,2844.5,1893.1719,2854.5,1897.1719,2850.5,1893.1719" style="stroke:#181818;stroke-width:1.0;"/><line style="stroke:#181818;stroke-width:1.0;stroke-dasharray:2.0,2.0;" x1="2848.5" x2="3130.5" y1="1893.1719" y2="1893.1719"/><text fill="#000000" font-family="sans-serif" font-size="20" lengthAdjust="spacing" textLength="142" x="2860.5" y="1886.4551">CustomerUser</text><polygon fill="#181818" points="3369.5,1926.4531,3379.5,1930.4531,3369.5,1934.4531,3373.5,1930.4531" style="stroke:#181818;stroke-width:1.0;"/><line style="stroke:#181818;stroke-width:1.0;" x1="2843.5" x2="3375.5" y1="1930.4531" y2="1930.4531"/><text fill="#000000" font-family="sans-serif" font-size="20" lengthAdjust="spacing" textLength="200" x="2850.5" y="1923.7363">save(customerUser)</text><polygon fill="#181818" points="3657,1963.7344,3667,1967.7344,3657,1971.7344,3661,1967.7344" style="stroke:#181818;stroke-width:1.0;"/><line style="stroke:#181818;stroke-width:1.0;" x1="3391.5" x2="3663" y1="1967.7344" y2="1967.7344"/><text fill="#000000" font-family="sans-serif" font-size="20" lengthAdjust="spacing" textLength="200" x="3398.5" y="1961.0176">save(customerUser)</text><polygon fill="#181818" points="3908,2001.0156,3918,2005.0156,3908,2009.0156,3912,2005.0156" style="stroke:#181818;stroke-width:1.0;"/><line style="stroke:#181818;stroke-width:1.0;" x1="3679" x2="3914" y1="2005.0156" y2="2005.0156"/><text fill="#000000" font-family="sans-serif" font-size="20" lengthAdjust="spacing" textLength="222" x="3686" y="1998.2988">persist(customerUser)</text><polygon fill="#181818" points="3690,2038.2969,3680,2042.2969,3690,2046.2969,3686,2042.2969" style="stroke:#181818;stroke-width:1.0;"/><line style="stroke:#181818;stroke-width:1.0;stroke-dasharray:2.0,2.0;" x1="3684" x2="3924" y1="2042.2969" y2="2042.2969"/><text fill="#000000" font-family="sans-serif" font-size="20" lengthAdjust="spacing" textLength="142" x="3696" y="2035.5801">CustomerUser</text><polygon fill="#181818" points="3402.5,2075.5781,3392.5,2079.5781,3402.5,2083.5781,3398.5,2079.5781" style="stroke:#181818;stroke-width:1.0;"/><line style="stroke:#181818;stroke-width:1.0;stroke-dasharray:2.0,2.0;" x1="3396.5" x2="3673" y1="2079.5781" y2="2079.5781"/><text fill="#000000" font-family="sans-serif" font-size="20" lengthAdjust="spacing" textLength="142" x="3408.5" y="2072.8613">CustomerUser</text><polygon fill="#181818" points="2854.5,2112.8594,2844.5,2116.8594,2854.5,2120.8594,2850.5,2116.8594" style="stroke:#181818;stroke-width:1.0;"/><line style="stroke:#181818;stroke-width:1.0;stroke-dasharray:2.0,2.0;" x1="2848.5" x2="3385.5" y1="2116.8594" y2="2116.8594"/><text fill="#000000" font-family="sans-serif" font-size="20" lengthAdjust="spacing" textLength="142" x="2860.5" y="2110.1426">CustomerUser</text><polygon fill="#181818" points="406.5,2150.1406,396.5,2154.1406,406.5,2158.1406,402.5,2154.1406" style="stroke:#181818;stroke-width:1.0;"/><line style="stroke:#181818;stroke-width:1.0;stroke-dasharray:2.0,2.0;" x1="400.5" x2="2837.5" y1="2154.1406" y2="2154.1406"/><text fill="#000000" font-family="sans-serif" font-size="20" lengthAdjust="spacing" textLength="142" x="412.5" y="2147.4238">CustomerUser</text><polygon fill="#181818" points="150,2233.9844,140,2237.9844,150,2241.9844,146,2237.9844" style="stroke:#181818;stroke-width:1.0;"/><line style="stroke:#181818;stroke-width:1.0;stroke-dasharray:2.0,2.0;" x1="144" x2="389.5" y1="2237.9844" y2="2237.9844"/><text fill="#000000" font-family="sans-serif" font-size="20" lengthAdjust="spacing" textLength="76" x="156" y="2184.7051">Informs</text><text fill="#000000" font-family="sans-serif" font-size="20" lengthAdjust="spacing" textLength="77" x="156" y="2207.9863">success</text><text fill="#000000" font-family="sans-serif" font-size="20" lengthAdjust="spacing" textLength="6" x="233" y="2207.9863"> </text><text fill="#000000" font-family="sans-serif" font-size="20" lengthAdjust="spacing" textLength="20" x="239" y="2207.9863">or</text><text fill="#000000" font-family="sans-serif" font-size="20" lengthAdjust="spacing" textLength="64" x="156" y="2231.2676">failure</text><!--SRC=[hLVRQkCm47ttLmnvQY21T65Vyb1e4WfPs5BQpGUezgGLzMqbETtkrw_io8uk8oTbguVWZ3pdp6XkidpZPSq4A_8gVSCCCjop9bTtLQcU-5-4RuiaKLpb24_uky4oHTXmzg8LO0wxf-l5uZf9P0y2EIzHVTG8bL2lbRLHi3y5IibUKBQmrzyNrgOqq0zCA9xocfKAcZ93qS8b2KjL9M2oRgIg2XIhXkTw3twoKiE92J09gTapiYIfBQZ98xvmgL3q2BjjfxJRZh-sreSWgZmt7A7OLVViStICZ5PunBgINFluuUYSnAxQZvf5DCaTL_asotOoS2sGkahjtl5a2zHvWUB0K-mK0sce-4kdWxphOdYqqZo7RthUkABW30YDG7ec3MGqncEdORz3nTgInnKZCJ_ZymX2T3V9c6BFJ29CDkQfKzYikihY1wOmh1zF0FCRNIvBk9Ll4bG5mXmbi47LGjE51NhjjZ3NUXwK0TdhakQb_YsOubK9LsbLQ3y_e6G5pe1bcT3zOZPeGrfbQFt5Wl5y1lLhLIAKJV6COWPxBgGo23aR7hjtfqc6jeKn5nz4TU0PIjiwshSReYKiMyjxSU_JFUtIklF8TcJQORThu2EwJlzEk6NRP59m2UzSlNwb9NrkWxNytZoF74ul6vIjcCJmAJSj-5EcBq6o0rxrJaqT2mCQgqB0M-4h7IFPNaT97MAwEmEno3VRs6vMIwXHI5rx8umEgovpYApDQioj85Jsii8M8OZu40bSbCmYkkpypf2E9cCa8IDiaRniUyWbQUuLzB6X18EuwoUjwAglJYRbUoMoIBERdZfLEDIJGDHo1ZDyERJtUtp_1FSCDAYsu6H2U3reNGsahHNcLl2_t0DrVyje2Srp5vwGV0cDvh6dGw-Ra9QwuzNKVmjXU-xDu2x2qY_duBxYWDc9Jy05Khz1755YpU1K_Bu9xV-4BdA2apYGdNUSeVq9WKAaeG_aen3XeMl81mhpaYeDKyo-Cb5Nxct0PnV4lNDetpFmeXsvWjeT9wnXukxP3twFXvo5zfNLRs_MdjD9VIzjUHBfUJxFPGv5X-rkt2EYRzFRu4x12pbZmpr2xGt5yTgbsSuDzd2W-wu4GJe_q4Ti7eaJIKGFyq-6wWjIq6EBPQ4tpFq-42dKs5VFjlkSa22RDDMNRz3VFtizsHg1_eU9zTV_Bli7]--></g></svg>