<?xml version="1.0" encoding="UTF-8" standalone="no"?><svg xmlns="http://www.w3.org/2000/svg" xmlns:xlink="http://www.w3.org/1999/xlink" contentStyleType="text/css" height="978px" preserveAspectRatio="none" style="width:1257px;height:978px;background:#FFFFFF;" version="1.1" viewBox="0 0 1257 978" width="1257px" zoomAndPan="magnify"><defs/><g><text fill="#000000" font-family="sans-serif" font-size="14" font-weight="bold" lengthAdjust="spacing" textLength="188" x="527.5" y="22.9951">Class Diagram - US1003</text><!--class UI--><g id="elem_UI"><rect codeLine="13" fill="#FEF9E7" height="50" id="UI" rx="2.5" ry="2.5" style="stroke:#181818;stroke-width:0.5;" width="207" x="485.5" y="44.2969"/><ellipse cx="501.5" cy="61.2969" fill="#ADD1B2" rx="12" ry="12" style="stroke:#181818;stroke-width:1.0;"/><path d="M504.5625,68.375 Q503.875,68.7344 503.125,68.9063 Q502.375,69.0781 501.5469,69.0781 Q498.5938,69.0781 497.0313,67.1406 Q495.4844,65.1875 495.4844,61.5156 Q495.4844,57.8438 497.0313,55.9063 Q498.5938,53.9531 501.5469,53.9531 Q502.375,53.9531 503.125,54.125 Q503.8906,54.2969 504.5625,54.6563 L504.5625,57.8594 Q503.8125,57.1719 503.1094,56.8594 Q502.4219,56.5469 501.6719,56.5469 Q500.0938,56.5469 499.2813,57.7969 Q498.4844,59.0469 498.4844,61.5156 Q498.4844,63.9844 499.2813,65.2344 Q500.0938,66.4844 501.6719,66.4844 Q502.4219,66.4844 503.1094,66.1719 Q503.8125,65.8594 504.5625,65.1719 L504.5625,68.375 Z " fill="#000000"/><text fill="#000000" font-family="sans-serif" font-size="20" lengthAdjust="spacing" textLength="173" x="516.5" y="68.2207">ListJobOpeningUI</text><line style="stroke:#181818;stroke-width:0.5;" x1="486.5" x2="691.5" y1="78.2969" y2="78.2969"/><line style="stroke:#181818;stroke-width:0.5;" x1="486.5" x2="691.5" y1="86.2969" y2="86.2969"/></g><!--class ListJobOpeningController--><g id="elem_ListJobOpeningController"><rect codeLine="15" fill="#FEF9E7" height="96.5625" id="ListJobOpeningController" rx="2.5" ry="2.5" style="stroke:#181818;stroke-width:0.5;" width="465" x="356.5" y="154.2969"/><ellipse cx="476.5" cy="171.2969" fill="#ADD1B2" rx="12" ry="12" style="stroke:#181818;stroke-width:1.0;"/><path d="M479.5625,178.375 Q478.875,178.7344 478.125,178.9063 Q477.375,179.0781 476.5469,179.0781 Q473.5938,179.0781 472.0313,177.1406 Q470.4844,175.1875 470.4844,171.5156 Q470.4844,167.8438 472.0313,165.9063 Q473.5938,163.9531 476.5469,163.9531 Q477.375,163.9531 478.125,164.125 Q478.8906,164.2969 479.5625,164.6563 L479.5625,167.8594 Q478.8125,167.1719 478.1094,166.8594 Q477.4219,166.5469 476.6719,166.5469 Q475.0938,166.5469 474.2813,167.7969 Q473.4844,169.0469 473.4844,171.5156 Q473.4844,173.9844 474.2813,175.2344 Q475.0938,176.4844 476.6719,176.4844 Q477.4219,176.4844 478.1094,176.1719 Q478.8125,175.8594 479.5625,175.1719 L479.5625,178.375 Z " fill="#000000"/><text fill="#000000" font-family="sans-serif" font-size="20" lengthAdjust="spacing" textLength="216" x="498.5" y="178.2207">JobOpeningController</text><line style="stroke:#181818;stroke-width:0.5;" x1="357.5" x2="820.5" y1="188.2969" y2="188.2969"/><line style="stroke:#181818;stroke-width:0.5;" x1="357.5" x2="820.5" y1="196.2969" y2="196.2969"/><ellipse cx="367.5" cy="213.4375" fill="#84BE84" rx="3" ry="3" style="stroke:#038048;stroke-width:1.0;"/><text fill="#000000" font-family="sans-serif" font-size="20" lengthAdjust="spacing" textLength="222" x="377.5" y="218.8613">allJobOpenings(): void</text><ellipse cx="367.5" cy="236.7188" fill="#84BE84" rx="3" ry="3" style="stroke:#038048;stroke-width:1.0;"/><text fill="#000000" font-family="sans-serif" font-size="20" lengthAdjust="spacing" textLength="438" x="377.5" y="242.1426">applyFilter(filterCriteria: FilterCriteria): void</text></g><!--class JobOpeningService--><g id="elem_JobOpeningService"><rect codeLine="20" fill="#FEF9E7" height="96.5625" id="JobOpeningService" rx="2.5" ry="2.5" style="stroke:#181818;stroke-width:0.5;" width="694" x="242" y="311.2969"/><ellipse cx="489.5" cy="328.2969" fill="#ADD1B2" rx="12" ry="12" style="stroke:#181818;stroke-width:1.0;"/><path d="M492.5625,335.375 Q491.875,335.7344 491.125,335.9063 Q490.375,336.0781 489.5469,336.0781 Q486.5938,336.0781 485.0313,334.1406 Q483.4844,332.1875 483.4844,328.5156 Q483.4844,324.8438 485.0313,322.9063 Q486.5938,320.9531 489.5469,320.9531 Q490.375,320.9531 491.125,321.125 Q491.8906,321.2969 492.5625,321.6563 L492.5625,324.8594 Q491.8125,324.1719 491.1094,323.8594 Q490.4219,323.5469 489.6719,323.5469 Q488.0938,323.5469 487.2813,324.7969 Q486.4844,326.0469 486.4844,328.5156 Q486.4844,330.9844 487.2813,332.2344 Q488.0938,333.4844 489.6719,333.4844 Q490.4219,333.4844 491.1094,333.1719 Q491.8125,332.8594 492.5625,332.1719 L492.5625,335.375 Z " fill="#000000"/><text fill="#000000" font-family="sans-serif" font-size="20" lengthAdjust="spacing" textLength="190" x="511.5" y="335.2207">JobOpeningService</text><line style="stroke:#181818;stroke-width:0.5;" x1="243" x2="935" y1="345.2969" y2="345.2969"/><line style="stroke:#181818;stroke-width:0.5;" x1="243" x2="935" y1="353.2969" y2="353.2969"/><ellipse cx="253" cy="370.4375" fill="#84BE84" rx="3" ry="3" style="stroke:#038048;stroke-width:1.0;"/><text fill="#000000" font-family="sans-serif" font-size="20" lengthAdjust="spacing" textLength="451" x="263" y="375.8613">allJobOpenings(): Iterable&lt;JobOpeningDTO&gt;</text><ellipse cx="253" cy="393.7188" fill="#84BE84" rx="3" ry="3" style="stroke:#038048;stroke-width:1.0;"/><text fill="#000000" font-family="sans-serif" font-size="20" lengthAdjust="spacing" textLength="667" x="263" y="399.1426">applyFilter(filterCriteria: FilterCriteria): Iterable&lt;JobOpeningDTO&gt;</text></g><!--class JobOpening--><g id="elem_JobOpening"><rect codeLine="25" fill="#FEF9E7" height="236.25" id="JobOpening" rx="2.5" ry="2.5" style="stroke:#181818;stroke-width:0.5;" width="448" x="56" y="468.2969"/><ellipse cx="217" cy="485.2969" fill="#ADD1B2" rx="12" ry="12" style="stroke:#181818;stroke-width:1.0;"/><path d="M220.0625,492.375 Q219.375,492.7344 218.625,492.9063 Q217.875,493.0781 217.0469,493.0781 Q214.0938,493.0781 212.5313,491.1406 Q210.9844,489.1875 210.9844,485.5156 Q210.9844,481.8438 212.5313,479.9063 Q214.0938,477.9531 217.0469,477.9531 Q217.875,477.9531 218.625,478.125 Q219.3906,478.2969 220.0625,478.6563 L220.0625,481.8594 Q219.3125,481.1719 218.6094,480.8594 Q217.9219,480.5469 217.1719,480.5469 Q215.5938,480.5469 214.7813,481.7969 Q213.9844,483.0469 213.9844,485.5156 Q213.9844,487.9844 214.7813,489.2344 Q215.5938,490.4844 217.1719,490.4844 Q217.9219,490.4844 218.6094,490.1719 Q219.3125,489.8594 220.0625,489.1719 L220.0625,492.375 Z " fill="#000000"/><text fill="#000000" font-family="sans-serif" font-size="20" lengthAdjust="spacing" textLength="117" x="239" y="492.2207">JobOpening</text><line style="stroke:#181818;stroke-width:0.5;" x1="57" x2="503" y1="502.2969" y2="502.2969"/><rect fill="none" height="6" style="stroke:#C82930;stroke-width:1.0;" width="6" x="64" y="516.4375"/><text fill="#000000" font-family="sans-serif" font-size="20" lengthAdjust="spacing" textLength="277" x="77" y="524.8613">jobReference: JobReference</text><rect fill="none" height="6" style="stroke:#C82930;stroke-width:1.0;" width="6" x="64" y="539.7188"/><text fill="#000000" font-family="sans-serif" font-size="20" lengthAdjust="spacing" textLength="321" x="77" y="548.1426">titleOrFunction: TitleOrFunction</text><rect fill="none" height="6" style="stroke:#C82930;stroke-width:1.0;" width="6" x="64" y="563"/><text fill="#000000" font-family="sans-serif" font-size="20" lengthAdjust="spacing" textLength="278" x="77" y="571.4238">contractType: ContractType</text><rect fill="none" height="6" style="stroke:#C82930;stroke-width:1.0;" width="6" x="64" y="586.2813"/><text fill="#000000" font-family="sans-serif" font-size="20" lengthAdjust="spacing" textLength="124" x="77" y="594.7051">mode: Mode</text><rect fill="none" height="6" style="stroke:#C82930;stroke-width:1.0;" width="6" x="64" y="609.5625"/><text fill="#000000" font-family="sans-serif" font-size="20" lengthAdjust="spacing" textLength="200" x="77" y="617.9863">company: Company</text><rect fill="none" height="6" style="stroke:#C82930;stroke-width:1.0;" width="6" x="64" y="632.8438"/><text fill="#000000" font-family="sans-serif" font-size="20" lengthAdjust="spacing" textLength="421" x="77" y="641.2676">numberOfVacancies: NumberOfVacancies</text><rect fill="none" height="6" style="stroke:#C82930;stroke-width:1.0;" width="6" x="64" y="656.125"/><text fill="#000000" font-family="sans-serif" font-size="20" lengthAdjust="spacing" textLength="303" x="77" y="664.5488">jobDescription: JobDescription</text><line style="stroke:#181818;stroke-width:0.5;" x1="57" x2="503" y1="673.2656" y2="673.2656"/><ellipse cx="67" cy="690.4063" fill="#84BE84" rx="3" ry="3" style="stroke:#038048;stroke-width:1.0;"/><text fill="#000000" font-family="sans-serif" font-size="20" lengthAdjust="spacing" textLength="252" x="77" y="695.8301">toDTO(): JobOpeningDTO</text></g><!--class JobOpeningDTO--><g id="elem_JobOpeningDTO"><rect codeLine="36" fill="#FEF9E7" height="73.2813" id="JobOpeningDTO" rx="2.5" ry="2.5" style="stroke:#181818;stroke-width:0.5;" width="526" x="7" y="776.2969"/><ellipse cx="185.5" cy="793.2969" fill="#ADD1B2" rx="12" ry="12" style="stroke:#181818;stroke-width:1.0;"/><path d="M188.5625,800.375 Q187.875,800.7344 187.125,800.9063 Q186.375,801.0781 185.5469,801.0781 Q182.5938,801.0781 181.0313,799.1406 Q179.4844,797.1875 179.4844,793.5156 Q179.4844,789.8438 181.0313,787.9063 Q182.5938,785.9531 185.5469,785.9531 Q186.375,785.9531 187.125,786.125 Q187.8906,786.2969 188.5625,786.6563 L188.5625,789.8594 Q187.8125,789.1719 187.1094,788.8594 Q186.4219,788.5469 185.6719,788.5469 Q184.0938,788.5469 183.2813,789.7969 Q182.4844,791.0469 182.4844,793.5156 Q182.4844,795.9844 183.2813,797.2344 Q184.0938,798.4844 185.6719,798.4844 Q186.4219,798.4844 187.1094,798.1719 Q187.8125,797.8594 188.5625,797.1719 L188.5625,800.375 Z " fill="#000000"/><text fill="#000000" font-family="sans-serif" font-size="20" lengthAdjust="spacing" textLength="160" x="207.5" y="800.2207">JobOpeningDTO</text><line style="stroke:#181818;stroke-width:0.5;" x1="8" x2="532" y1="810.2969" y2="810.2969"/><line style="stroke:#181818;stroke-width:0.5;" x1="8" x2="532" y1="818.2969" y2="818.2969"/><ellipse cx="18" cy="835.4375" fill="#84BE84" rx="3" ry="3" style="stroke:#038048;stroke-width:1.0;"/><text fill="#000000" font-family="sans-serif" font-size="20" lengthAdjust="spacing" textLength="499" x="28" y="840.8613">create(jobOpening: JobOpening): JobOpeningDTO</text></g><!--class JobOpeningRepository--><g id="elem_JobOpeningRepository"><rect codeLine="40" fill="#FEF9E7" height="96.5625" id="JobOpeningRepository" rx="2.5" ry="2.5" style="stroke:#181818;stroke-width:0.5;" width="682" x="558" y="537.7969"/><ellipse cx="783" cy="554.7969" fill="#ADD1B2" rx="12" ry="12" style="stroke:#181818;stroke-width:1.0;"/><path d="M786.0625,561.875 Q785.375,562.2344 784.625,562.4063 Q783.875,562.5781 783.0469,562.5781 Q780.0938,562.5781 778.5313,560.6406 Q776.9844,558.6875 776.9844,555.0156 Q776.9844,551.3438 778.5313,549.4063 Q780.0938,547.4531 783.0469,547.4531 Q783.875,547.4531 784.625,547.625 Q785.3906,547.7969 786.0625,548.1563 L786.0625,551.3594 Q785.3125,550.6719 784.6094,550.3594 Q783.9219,550.0469 783.1719,550.0469 Q781.5938,550.0469 780.7813,551.2969 Q779.9844,552.5469 779.9844,555.0156 Q779.9844,557.4844 780.7813,558.7344 Q781.5938,559.9844 783.1719,559.9844 Q783.9219,559.9844 784.6094,559.6719 Q785.3125,559.3594 786.0625,558.6719 L786.0625,561.875 Z " fill="#000000"/><text fill="#000000" font-family="sans-serif" font-size="20" lengthAdjust="spacing" textLength="223" x="805" y="561.7207">JobOpeningRepository</text><line style="stroke:#181818;stroke-width:0.5;" x1="559" x2="1239" y1="571.7969" y2="571.7969"/><line style="stroke:#181818;stroke-width:0.5;" x1="559" x2="1239" y1="579.7969" y2="579.7969"/><ellipse cx="569" cy="596.9375" fill="#84BE84" rx="3" ry="3" style="stroke:#038048;stroke-width:1.0;"/><text fill="#000000" font-family="sans-serif" font-size="20" lengthAdjust="spacing" textLength="322" x="579" y="602.3613">findAll(): Iterable&lt;JobOpening&gt;</text><ellipse cx="569" cy="620.2188" fill="#84BE84" rx="3" ry="3" style="stroke:#038048;stroke-width:1.0;"/><text fill="#000000" font-family="sans-serif" font-size="20" lengthAdjust="spacing" textLength="655" x="579" y="625.6426">findByCriteria(filterCriteria: FilterCriteria): Iterable&lt;JobOpening&gt;</text></g><!--class JpaJobOpeningRepository--><g id="elem_JpaJobOpeningRepository"><rect codeLine="45" fill="#FEF9E7" height="96.5625" id="JpaJobOpeningRepository" rx="2.5" ry="2.5" style="stroke:#181818;stroke-width:0.5;" width="682" x="568" y="764.2969"/><ellipse cx="777.5" cy="781.2969" fill="#ADD1B2" rx="12" ry="12" style="stroke:#181818;stroke-width:1.0;"/><path d="M780.5625,788.375 Q779.875,788.7344 779.125,788.9063 Q778.375,789.0781 777.5469,789.0781 Q774.5938,789.0781 773.0313,787.1406 Q771.4844,785.1875 771.4844,781.5156 Q771.4844,777.8438 773.0313,775.9063 Q774.5938,773.9531 777.5469,773.9531 Q778.375,773.9531 779.125,774.125 Q779.8906,774.2969 780.5625,774.6563 L780.5625,777.8594 Q779.8125,777.1719 779.1094,776.8594 Q778.4219,776.5469 777.6719,776.5469 Q776.0938,776.5469 775.2813,777.7969 Q774.4844,779.0469 774.4844,781.5156 Q774.4844,783.9844 775.2813,785.2344 Q776.0938,786.4844 777.6719,786.4844 Q778.4219,786.4844 779.1094,786.1719 Q779.8125,785.8594 780.5625,785.1719 L780.5625,788.375 Z " fill="#000000"/><text fill="#000000" font-family="sans-serif" font-size="20" lengthAdjust="spacing" textLength="254" x="799.5" y="788.2207">JpaJobOpeningRepository</text><line style="stroke:#181818;stroke-width:0.5;" x1="569" x2="1249" y1="798.2969" y2="798.2969"/><line style="stroke:#181818;stroke-width:0.5;" x1="569" x2="1249" y1="806.2969" y2="806.2969"/><ellipse cx="579" cy="823.4375" fill="#84BE84" rx="3" ry="3" style="stroke:#038048;stroke-width:1.0;"/><text fill="#000000" font-family="sans-serif" font-size="20" lengthAdjust="spacing" textLength="322" x="589" y="828.8613">findAll(): Iterable&lt;JobOpening&gt;</text><ellipse cx="579" cy="846.7188" fill="#84BE84" rx="3" ry="3" style="stroke:#038048;stroke-width:1.0;"/><text fill="#000000" font-family="sans-serif" font-size="20" lengthAdjust="spacing" textLength="655" x="589" y="852.1426">findByCriteria(filterCriteria: FilterCriteria): Iterable&lt;JobOpening&gt;</text></g><!--class DB--><g id="elem_DB"><rect codeLine="50" fill="#FEF9E7" height="50" id="DB" rx="2.5" ry="2.5" style="stroke:#181818;stroke-width:0.5;" width="128" x="845" y="921.2969"/><ellipse cx="861" cy="938.2969" fill="#8BEBFF" rx="12" ry="12" style="stroke:#181818;stroke-width:1.0;"/><path d="M861.2188,933.8125 L861.2188,943.2031 L862,943.2031 Q863.7031,943.2031 864.4219,942.1406 Q865.1406,941.0625 865.1406,938.4844 Q865.1406,935.9375 864.4219,934.875 Q863.7031,933.8125 862,933.8125 L861.2188,933.8125 Z M858.3438,931.2188 L861.4219,931.2188 Q865,931.2188 866.5625,932.9219 Q868.1406,934.625 868.1406,938.4844 Q868.1406,942.375 866.5625,944.0938 Q865,945.7969 861.4219,945.7969 L858.3438,945.7969 L858.3438,931.2188 Z " fill="#000000"/><text fill="#000000" font-family="sans-serif" font-size="20" lengthAdjust="spacing" textLength="94" x="876" y="945.2207">Database</text><line style="stroke:#181818;stroke-width:0.5;" x1="846" x2="972" y1="955.2969" y2="955.2969"/><line style="stroke:#181818;stroke-width:0.5;" x1="846" x2="972" y1="963.2969" y2="963.2969"/></g><!--link UI to ListJobOpeningController--><g id="link_UI_ListJobOpeningController"><path codeLine="52" d="M589,94.4169 C589,109.6669 589,129.9869 589,148.8469 " fill="none" id="UI-to-ListJobOpeningController" style="stroke:#000000;stroke-width:1.0;"/><polygon fill="#000000" points="589,154.1269,593,145.1269,589,149.1269,585,145.1269,589,154.1269" style="stroke:#000000;stroke-width:1.0;"/></g><!--link ListJobOpeningController to JobOpeningService--><g id="link_ListJobOpeningController_JobOpeningService"><path codeLine="53" d="M589,251.5669 C589,268.7369 589,288.2069 589,305.7869 " fill="none" id="ListJobOpeningController-to-JobOpeningService" style="stroke:#000000;stroke-width:1.0;"/><polygon fill="#000000" points="589,311.1869,593,302.1869,589,306.1869,585,302.1869,589,311.1869" style="stroke:#000000;stroke-width:1.0;"/></g><!--link JobOpeningService to JobOpening--><g id="link_JobOpeningService_JobOpening"><path codeLine="54" d="M523.47,408.4069 C500.25,425.2769 472.97,445.0969 445.22,465.2569 " fill="none" id="JobOpeningService-to-JobOpening" style="stroke:#000000;stroke-width:1.0;"/><polygon fill="#000000" points="441.13,468.2369,450.7604,466.1742,445.1724,465.2943,446.0524,459.7063,441.13,468.2369" style="stroke:#000000;stroke-width:1.0;"/></g><!--link JobOpening to JobOpeningDTO--><g id="link_JobOpening_JobOpeningDTO"><path codeLine="55" d="M274.78,704.4769 C273.72,728.3869 272.66,751.9969 271.82,770.9569 " fill="none" id="JobOpening-to-JobOpeningDTO" style="stroke:#000000;stroke-width:1.0;"/><polygon fill="#000000" points="271.59,776.1769,275.9968,767.3689,271.8183,771.1821,268.0052,767.0036,271.59,776.1769" style="stroke:#000000;stroke-width:1.0;"/></g><!--link JobOpeningService to JobOpeningRepository--><g id="link_JobOpeningService_JobOpeningRepository"><path codeLine="56" d="M654.74,408.4069 C705.91,445.4669 776.77,496.7769 828.99,534.5969 " fill="none" id="JobOpeningService-to-JobOpeningRepository" style="stroke:#000000;stroke-width:1.0;"/><polygon fill="#000000" points="833.35,537.7569,828.4079,529.2377,829.3008,534.8237,823.7148,535.7165,833.35,537.7569" style="stroke:#000000;stroke-width:1.0;"/></g><!--link JobOpeningRepository to JpaJobOpeningRepository--><g id="link_JobOpeningRepository_JpaJobOpeningRepository"><path codeLine="57" d="M901.12,634.9069 C902.74,671.2169 904.97,721.2269 906.64,758.8069 " fill="none" id="JobOpeningRepository-to-JpaJobOpeningRepository" style="stroke:#000000;stroke-width:1.0;"/><polygon fill="#000000" points="906.88,764.2569,910.491,755.0939,906.6659,759.2615,902.4983,755.4364,906.88,764.2569" style="stroke:#000000;stroke-width:1.0;"/></g><!--link JpaJobOpeningRepository to DB--><g id="link_JpaJobOpeningRepository_DB"><path codeLine="58" d="M909,861.6469 C909,879.8569 909,900.0469 909,916.0269 " fill="none" id="JpaJobOpeningRepository-to-DB" style="stroke:#000000;stroke-width:1.0;"/><polygon fill="#000000" points="909,921.2769,913,912.2769,909,916.2769,905,912.2769,909,921.2769" style="stroke:#000000;stroke-width:1.0;"/></g><!--SRC=[nLJ1Zjem4BtxAwpT2wiMYRQ7TYE4H0YHMBL5Mg3tYJD9lHWxiiskqbN_lKv220c9Mksb749ctflno_FOPizb1XeEGh4znZJ618x2XahQ3V-5zEE44CkjGBeGO0mDEAIEJSTqj_amcNmYnDGTA2iPhuIwNoSxjrRpw6XnnPGi6qywj0pO7bBSsDojfP5PaAd03idyX5YzS9dI18Jfee9Bj7c6D5CYBu8IzrtZLAkZZ1TAA4rlmsLul_nSOdEjrKkLzeNZaT-4L5znyvKR-w2YTORIhRTRtL0mTBUYhmsbWHVEBgs4G5tIshKDUFBc7GZHm6Pqvz5dnUCJbcKY3xcmg4T9-RVGt3qvU3HinNLPdw0DwcVEi5HpbHsMiNAD8H8uRVB1TZrxWxAXJdrYEofFyiPFAdh413LAXbw1dwCAByTohSEZP9OhwT5jEr6nME4-CBjrW-7HnKLKuGSLk_mtzwpvXmnaNb3BboehZuS8zJhv0GmausWy-hsREgiEq33DiqhKGokkdBJAUL7utJAdrnkNxzZZClK6CerWSVHqnYux_bFxHyoKuLRflBDA0zIB9Lp6So46ncJMaFoydeCtZKbhHZ8OrjgF_K-v0LY8m5J7Bl3fT3eAtjFRB_xI3yExsQoyFDmTCXxF1ky8CdXv55LNPvbSd-usxuBGGOgP-5jruolfDRjazsy46TgWeYRmoHy0]--></g></svg>