<?xml version="1.0" encoding="UTF-8" standalone="no"?><svg xmlns="http://www.w3.org/2000/svg" xmlns:xlink="http://www.w3.org/1999/xlink" contentStyleType="text/css" height="2829px" preserveAspectRatio="none" style="width:2627px;height:2829px;background:#FFFFFF;" version="1.1" viewBox="0 0 2627 2829" width="2627px" zoomAndPan="magnify"><defs/><g><text fill="#000000" font-family="sans-serif" font-size="14" font-weight="bold" lengthAdjust="spacing" textLength="225" x="1202" y="27.9951">Sequence Diagram - US1003</text><rect fill="#FFFFFF" height="2596.0625" style="stroke:#181818;stroke-width:1.0;" width="10" x="133" y="135.5781"/><rect fill="#FFFFFF" height="729.1875" style="stroke:#181818;stroke-width:1.0;" width="10" x="334.5" y="211.4219"/><rect fill="#FFFFFF" height="1626.0625" style="stroke:#181818;stroke-width:1.0;" width="10" x="334.5" y="1105.5781"/><rect fill="#FFFFFF" height="631.3438" style="stroke:#181818;stroke-width:1.0;" width="10" x="647.5" y="248.7031"/><rect fill="#FFFFFF" height="1458.6563" style="stroke:#181818;stroke-width:1.0;" width="10" x="647.5" y="1183.4219"/><rect fill="#FFFFFF" height="556.7813" style="stroke:#181818;stroke-width:1.0;" width="10" x="960.5" y="285.9844"/><rect fill="#FFFFFF" height="1384.0938" style="stroke:#181818;stroke-width:1.0;" width="10" x="960.5" y="1220.7031"/><rect fill="#FFFFFF" height="285.5313" style="stroke:#181818;stroke-width:1.0;" width="10" x="1361.5" y="323.2656"/><rect fill="#FFFFFF" height="279.5313" style="stroke:#181818;stroke-width:1.0;" width="10" x="1361.5" y="1257.9844"/><rect fill="#FFFFFF" height="279.5313" style="stroke:#181818;stroke-width:1.0;" width="10" x="1361.5" y="1674.6406"/><rect fill="#FFFFFF" height="279.5313" style="stroke:#181818;stroke-width:1.0;" width="10" x="1361.5" y="2091.2969"/><rect fill="#FFFFFF" height="210.9688" style="stroke:#181818;stroke-width:1.0;" width="10" x="1669.5" y="360.5469"/><rect fill="#FFFFFF" height="204.9688" style="stroke:#181818;stroke-width:1.0;" width="10" x="1669.5" y="1295.2656"/><rect fill="#FFFFFF" height="204.9688" style="stroke:#181818;stroke-width:1.0;" width="10" x="1669.5" y="1711.9219"/><rect fill="#FFFFFF" height="204.9688" style="stroke:#181818;stroke-width:1.0;" width="10" x="1669.5" y="2128.5781"/><rect fill="#FFFFFF" height="111.8438" style="stroke:#181818;stroke-width:1.0;" width="10" x="1879" y="686.6406"/><rect fill="#FFFFFF" height="111.8438" style="stroke:#181818;stroke-width:1.0;" width="10" x="1879" y="2448.6719"/><rect fill="#FFFFFF" height="37.2813" style="stroke:#181818;stroke-width:1.0;" width="10" x="2073" y="723.9219"/><rect fill="#FFFFFF" height="37.2813" style="stroke:#181818;stroke-width:1.0;" width="10" x="2073" y="2485.9531"/><rect fill="#FFFFFF" height="51.9219" style="stroke:#181818;stroke-width:1.0;" width="10" x="2220" y="467.6719"/><rect fill="#FFFFFF" height="37.2813" style="stroke:#181818;stroke-width:1.0;" width="10" x="2220" y="1425.6719"/><rect fill="#FFFFFF" height="37.2813" style="stroke:#181818;stroke-width:1.0;" width="10" x="2220" y="1842.3281"/><rect fill="#FFFFFF" height="37.2813" style="stroke:#181818;stroke-width:1.0;" width="10" x="2220" y="2258.9844"/><rect fill="none" height="182.6875" style="stroke:#000000;stroke-width:1.5;" width="1339" x="836" y="623.7969"/><rect fill="none" height="1769.0313" style="stroke:#000000;stroke-width:1.5;" width="2295" x="10" y="955.6094"/><rect fill="none" height="1721.4688" style="stroke:#000000;stroke-width:1.5;" width="2275" x="20" y="996.1719"/><rect fill="none" height="1590.0625" style="stroke:#000000;stroke-width:1.5;" width="2255" x="30" y="1120.5781"/><rect fill="none" height="182.6875" style="stroke:#000000;stroke-width:1.5;" width="1339" x="836" y="2385.8281"/><line style="stroke:#181818;stroke-width:0.5;stroke-dasharray:5.0,5.0;" x1="138" x2="138" y1="125.5781" y2="2741.6406"/><line style="stroke:#181818;stroke-width:0.5;stroke-dasharray:5.0,5.0;" x1="339" x2="339" y1="125.5781" y2="2741.6406"/><line style="stroke:#181818;stroke-width:0.5;stroke-dasharray:5.0,5.0;" x1="652" x2="652" y1="125.5781" y2="2741.6406"/><line style="stroke:#181818;stroke-width:0.5;stroke-dasharray:5.0,5.0;" x1="965" x2="965" y1="125.5781" y2="2741.6406"/><line style="stroke:#181818;stroke-width:0.5;stroke-dasharray:5.0,5.0;" x1="1366" x2="1366" y1="125.5781" y2="2741.6406"/><line style="stroke:#181818;stroke-width:0.5;stroke-dasharray:5.0,5.0;" x1="1674.5" x2="1674.5" y1="125.5781" y2="2741.6406"/><line style="stroke:#181818;stroke-width:0.5;stroke-dasharray:5.0,5.0;" x1="1883.5" x2="1883.5" y1="125.5781" y2="2741.6406"/><line style="stroke:#181818;stroke-width:0.5;stroke-dasharray:5.0,5.0;" x1="2078" x2="2078" y1="125.5781" y2="2741.6406"/><line style="stroke:#181818;stroke-width:0.5;stroke-dasharray:5.0,5.0;" x1="2225" x2="2225" y1="125.5781" y2="2741.6406"/><text fill="#000000" font-family="sans-serif" font-size="20" lengthAdjust="spacing" text-decoration="underline" textLength="190" x="40" y="120.8613">Customer Manager</text><ellipse cx="138" cy="50.7969" fill="#E2E2F0" rx="8" ry="8" style="stroke:#181818;stroke-width:0.5;"/><path d="M138,58.7969 L138,85.7969 M125,66.7969 L151,66.7969 M138,85.7969 L125,100.7969 M138,85.7969 L151,100.7969 " fill="none" style="stroke:#181818;stroke-width:0.5;"/><text fill="#000000" font-family="sans-serif" font-size="20" lengthAdjust="spacing" text-decoration="underline" textLength="190" x="40" y="2759.2051">Customer Manager</text><ellipse cx="138" cy="2772.4219" fill="#E2E2F0" rx="8" ry="8" style="stroke:#181818;stroke-width:0.5;"/><path d="M138,2780.4219 L138,2807.4219 M125,2788.4219 L151,2788.4219 M138,2807.4219 L125,2822.4219 M138,2807.4219 L151,2822.4219 " fill="none" style="stroke:#181818;stroke-width:0.5;"/><rect fill="#E2E2F0" height="37.2813" rx="2.5" ry="2.5" style="stroke:#181818;stroke-width:0.5;" width="187" x="246" y="87.2969"/><text fill="#000000" font-family="sans-serif" font-size="20" lengthAdjust="spacing" text-decoration="underline" textLength="173" x="253" y="112.8613">ListJobOpeningUI</text><rect fill="#E2E2F0" height="37.2813" rx="2.5" ry="2.5" style="stroke:#181818;stroke-width:0.5;" width="187" x="246" y="2740.6406"/><text fill="#000000" font-family="sans-serif" font-size="20" lengthAdjust="spacing" text-decoration="underline" textLength="173" x="253" y="2766.2051">ListJobOpeningUI</text><rect fill="#E2E2F0" height="37.2813" rx="2.5" ry="2.5" style="stroke:#181818;stroke-width:0.5;" width="265" x="520" y="87.2969"/><text fill="#000000" font-family="sans-serif" font-size="20" lengthAdjust="spacing" text-decoration="underline" textLength="251" x="527" y="112.8613">ListJobOpeningController</text><rect fill="#E2E2F0" height="37.2813" rx="2.5" ry="2.5" style="stroke:#181818;stroke-width:0.5;" width="265" x="520" y="2740.6406"/><text fill="#000000" font-family="sans-serif" font-size="20" lengthAdjust="spacing" text-decoration="underline" textLength="251" x="527" y="2766.2051">ListJobOpeningController</text><rect fill="#E2E2F0" height="37.2813" rx="2.5" ry="2.5" style="stroke:#181818;stroke-width:0.5;" width="239" x="846" y="87.2969"/><text fill="#000000" font-family="sans-serif" font-size="20" lengthAdjust="spacing" text-decoration="underline" textLength="225" x="853" y="112.8613">ListJobOpeningService</text><rect fill="#E2E2F0" height="37.2813" rx="2.5" ry="2.5" style="stroke:#181818;stroke-width:0.5;" width="239" x="846" y="2740.6406"/><text fill="#000000" font-family="sans-serif" font-size="20" lengthAdjust="spacing" text-decoration="underline" textLength="225" x="853" y="2766.2051">ListJobOpeningService</text><rect fill="#E2E2F0" height="37.2813" rx="2.5" ry="2.5" style="stroke:#181818;stroke-width:0.5;" width="237" x="1248" y="87.2969"/><text fill="#000000" font-family="sans-serif" font-size="20" lengthAdjust="spacing" text-decoration="underline" textLength="223" x="1255" y="112.8613">JobOpeningRepository</text><rect fill="#E2E2F0" height="37.2813" rx="2.5" ry="2.5" style="stroke:#181818;stroke-width:0.5;" width="237" x="1248" y="2740.6406"/><text fill="#000000" font-family="sans-serif" font-size="20" lengthAdjust="spacing" text-decoration="underline" textLength="223" x="1255" y="2766.2051">JobOpeningRepository</text><rect fill="#E2E2F0" height="37.2813" rx="2.5" ry="2.5" style="stroke:#181818;stroke-width:0.5;" width="268" x="1540.5" y="87.2969"/><text fill="#000000" font-family="sans-serif" font-size="20" lengthAdjust="spacing" text-decoration="underline" textLength="254" x="1547.5" y="112.8613">JpaJobOpeningRepository</text><rect fill="#E2E2F0" height="37.2813" rx="2.5" ry="2.5" style="stroke:#181818;stroke-width:0.5;" width="268" x="1540.5" y="2740.6406"/><text fill="#000000" font-family="sans-serif" font-size="20" lengthAdjust="spacing" text-decoration="underline" textLength="254" x="1547.5" y="2766.2051">JpaJobOpeningRepository</text><rect fill="#E2E2F0" height="37.2813" rx="2.5" ry="2.5" style="stroke:#181818;stroke-width:0.5;" width="131" x="1818.5" y="87.2969"/><text fill="#000000" font-family="sans-serif" font-size="20" lengthAdjust="spacing" text-decoration="underline" textLength="117" x="1825.5" y="112.8613">JobOpening</text><rect fill="#E2E2F0" height="37.2813" rx="2.5" ry="2.5" style="stroke:#181818;stroke-width:0.5;" width="131" x="1818.5" y="2740.6406"/><text fill="#000000" font-family="sans-serif" font-size="20" lengthAdjust="spacing" text-decoration="underline" textLength="117" x="1825.5" y="2766.2051">JobOpening</text><rect fill="#E2E2F0" height="37.2813" rx="2.5" ry="2.5" style="stroke:#181818;stroke-width:0.5;" width="174" x="1991" y="87.2969"/><text fill="#000000" font-family="sans-serif" font-size="20" lengthAdjust="spacing" text-decoration="underline" textLength="160" x="1998" y="112.8613">JobOpeningDTO</text><rect fill="#E2E2F0" height="37.2813" rx="2.5" ry="2.5" style="stroke:#181818;stroke-width:0.5;" width="174" x="1991" y="2740.6406"/><text fill="#000000" font-family="sans-serif" font-size="20" lengthAdjust="spacing" text-decoration="underline" textLength="160" x="1998" y="2766.2051">JobOpeningDTO</text><text fill="#000000" font-family="sans-serif" font-size="20" lengthAdjust="spacing" text-decoration="underline" textLength="94" x="2175" y="120.8613">Database</text><path d="M2207,66.2969 C2207,56.2969 2225,56.2969 2225,56.2969 C2225,56.2969 2243,56.2969 2243,66.2969 L2243,92.2969 C2243,102.2969 2225,102.2969 2225,102.2969 C2225,102.2969 2207,102.2969 2207,92.2969 L2207,66.2969 " fill="#E2E2F0" style="stroke:#181818;stroke-width:1.5;"/><path d="M2207,66.2969 C2207,76.2969 2225,76.2969 2225,76.2969 C2225,76.2969 2243,76.2969 2243,66.2969 " fill="none" style="stroke:#181818;stroke-width:1.5;"/><text fill="#000000" font-family="sans-serif" font-size="20" lengthAdjust="spacing" text-decoration="underline" textLength="94" x="2175" y="2759.2051">Database</text><path d="M2207,2773.9219 C2207,2763.9219 2225,2763.9219 2225,2763.9219 C2225,2763.9219 2243,2763.9219 2243,2773.9219 L2243,2799.9219 C2243,2809.9219 2225,2809.9219 2225,2809.9219 C2225,2809.9219 2207,2809.9219 2207,2799.9219 L2207,2773.9219 " fill="#E2E2F0" style="stroke:#181818;stroke-width:1.5;"/><path d="M2207,2773.9219 C2207,2783.9219 2225,2783.9219 2225,2783.9219 C2225,2783.9219 2243,2783.9219 2243,2773.9219 " fill="none" style="stroke:#181818;stroke-width:1.5;"/><rect fill="#FFFFFF" height="2596.0625" style="stroke:#181818;stroke-width:1.0;" width="10" x="133" y="135.5781"/><rect fill="#FFFFFF" height="729.1875" style="stroke:#181818;stroke-width:1.0;" width="10" x="334.5" y="211.4219"/><rect fill="#FFFFFF" height="1626.0625" style="stroke:#181818;stroke-width:1.0;" width="10" x="334.5" y="1105.5781"/><rect fill="#FFFFFF" height="631.3438" style="stroke:#181818;stroke-width:1.0;" width="10" x="647.5" y="248.7031"/><rect fill="#FFFFFF" height="1458.6563" style="stroke:#181818;stroke-width:1.0;" width="10" x="647.5" y="1183.4219"/><rect fill="#FFFFFF" height="556.7813" style="stroke:#181818;stroke-width:1.0;" width="10" x="960.5" y="285.9844"/><rect fill="#FFFFFF" height="1384.0938" style="stroke:#181818;stroke-width:1.0;" width="10" x="960.5" y="1220.7031"/><rect fill="#FFFFFF" height="285.5313" style="stroke:#181818;stroke-width:1.0;" width="10" x="1361.5" y="323.2656"/><rect fill="#FFFFFF" height="279.5313" style="stroke:#181818;stroke-width:1.0;" width="10" x="1361.5" y="1257.9844"/><rect fill="#FFFFFF" height="279.5313" style="stroke:#181818;stroke-width:1.0;" width="10" x="1361.5" y="1674.6406"/><rect fill="#FFFFFF" height="279.5313" style="stroke:#181818;stroke-width:1.0;" width="10" x="1361.5" y="2091.2969"/><rect fill="#FFFFFF" height="210.9688" style="stroke:#181818;stroke-width:1.0;" width="10" x="1669.5" y="360.5469"/><rect fill="#FFFFFF" height="204.9688" style="stroke:#181818;stroke-width:1.0;" width="10" x="1669.5" y="1295.2656"/><rect fill="#FFFFFF" height="204.9688" style="stroke:#181818;stroke-width:1.0;" width="10" x="1669.5" y="1711.9219"/><rect fill="#FFFFFF" height="204.9688" style="stroke:#181818;stroke-width:1.0;" width="10" x="1669.5" y="2128.5781"/><rect fill="#FFFFFF" height="111.8438" style="stroke:#181818;stroke-width:1.0;" width="10" x="1879" y="686.6406"/><rect fill="#FFFFFF" height="111.8438" style="stroke:#181818;stroke-width:1.0;" width="10" x="1879" y="2448.6719"/><rect fill="#FFFFFF" height="37.2813" style="stroke:#181818;stroke-width:1.0;" width="10" x="2073" y="723.9219"/><rect fill="#FFFFFF" height="37.2813" style="stroke:#181818;stroke-width:1.0;" width="10" x="2073" y="2485.9531"/><rect fill="#FFFFFF" height="51.9219" style="stroke:#181818;stroke-width:1.0;" width="10" x="2220" y="467.6719"/><rect fill="#FFFFFF" height="37.2813" style="stroke:#181818;stroke-width:1.0;" width="10" x="2220" y="1425.6719"/><rect fill="#FFFFFF" height="37.2813" style="stroke:#181818;stroke-width:1.0;" width="10" x="2220" y="1842.3281"/><rect fill="#FFFFFF" height="37.2813" style="stroke:#181818;stroke-width:1.0;" width="10" x="2220" y="2258.9844"/><polygon fill="#181818" points="322.5,207.4219,332.5,211.4219,322.5,215.4219,326.5,211.4219" style="stroke:#181818;stroke-width:1.0;"/><line style="stroke:#181818;stroke-width:1.0;" x1="143" x2="328.5" y1="211.4219" y2="211.4219"/><text fill="#000000" font-family="sans-serif" font-size="20" lengthAdjust="spacing" textLength="46" x="150" y="158.1426">Asks</text><text fill="#000000" font-family="sans-serif" font-size="20" lengthAdjust="spacing" textLength="6" x="196" y="158.1426"> </text><text fill="#000000" font-family="sans-serif" font-size="20" lengthAdjust="spacing" textLength="27" x="202" y="158.1426">for</text><text fill="#000000" font-family="sans-serif" font-size="20" lengthAdjust="spacing" textLength="6" x="229" y="158.1426"> </text><text fill="#000000" font-family="sans-serif" font-size="20" lengthAdjust="spacing" textLength="12" x="235" y="158.1426">a</text><text fill="#000000" font-family="sans-serif" font-size="20" lengthAdjust="spacing" textLength="6" x="247" y="158.1426"> </text><text fill="#000000" font-family="sans-serif" font-size="20" lengthAdjust="spacing" textLength="30" x="253" y="158.1426">list</text><text fill="#000000" font-family="sans-serif" font-size="20" lengthAdjust="spacing" textLength="19" x="150" y="181.4238">of</text><text fill="#000000" font-family="sans-serif" font-size="20" lengthAdjust="spacing" textLength="6" x="169" y="181.4238"> </text><text fill="#000000" font-family="sans-serif" font-size="20" lengthAdjust="spacing" textLength="31" x="175" y="181.4238">job</text><text fill="#000000" font-family="sans-serif" font-size="20" lengthAdjust="spacing" textLength="92" x="150" y="204.7051">openings</text><polygon fill="#181818" points="635.5,244.7031,645.5,248.7031,635.5,252.7031,639.5,248.7031" style="stroke:#181818;stroke-width:1.0;"/><line style="stroke:#181818;stroke-width:1.0;stroke-dasharray:2.0,2.0;" x1="344.5" x2="641.5" y1="248.7031" y2="248.7031"/><text fill="#000000" font-family="sans-serif" font-size="20" lengthAdjust="spacing" textLength="272" x="351.5" y="241.9863">filterByCostumerManager()</text><polygon fill="#181818" points="948.5,281.9844,958.5,285.9844,948.5,289.9844,952.5,285.9844" style="stroke:#181818;stroke-width:1.0;"/><line style="stroke:#181818;stroke-width:1.0;" x1="657.5" x2="954.5" y1="285.9844" y2="285.9844"/><text fill="#000000" font-family="sans-serif" font-size="20" lengthAdjust="spacing" textLength="272" x="664.5" y="279.2676">filterByCostumerManager()</text><polygon fill="#181818" points="1349.5,319.2656,1359.5,323.2656,1349.5,327.2656,1353.5,323.2656" style="stroke:#181818;stroke-width:1.0;"/><line style="stroke:#181818;stroke-width:1.0;" x1="970.5" x2="1355.5" y1="323.2656" y2="323.2656"/><text fill="#000000" font-family="sans-serif" font-size="20" lengthAdjust="spacing" textLength="372" x="977.5" y="316.5488">filterByCostumerManager(username)</text><polygon fill="#181818" points="1657.5,356.5469,1667.5,360.5469,1657.5,364.5469,1661.5,360.5469" style="stroke:#181818;stroke-width:1.0;"/><line style="stroke:#181818;stroke-width:1.0;" x1="1371.5" x2="1663.5" y1="360.5469" y2="360.5469"/><text fill="#000000" font-family="sans-serif" font-size="20" lengthAdjust="spacing" textLength="272" x="1378.5" y="353.8301">filterByCostumerManager()</text><polygon fill="#181818" points="2208,463.6719,2218,467.6719,2208,471.6719,2212,467.6719" style="stroke:#181818;stroke-width:1.0;"/><line style="stroke:#181818;stroke-width:1.0;" x1="1679.5" x2="2214" y1="467.6719" y2="467.6719"/><text fill="#000000" font-family="sans-serif" font-size="20" lengthAdjust="spacing" textLength="217" x="1686.5" y="391.1113">createQuery("SELECT</text><text fill="#000000" font-family="sans-serif" font-size="20" lengthAdjust="spacing" textLength="10" x="1686.5" y="414.3926">*</text><text fill="#000000" font-family="sans-serif" font-size="20" lengthAdjust="spacing" textLength="6" x="1696.5" y="414.3926"> </text><text fill="#000000" font-family="sans-serif" font-size="20" lengthAdjust="spacing" textLength="59" x="1702.5" y="414.3926">FROM</text><text fill="#000000" font-family="sans-serif" font-size="20" lengthAdjust="spacing" textLength="133" x="1686.5" y="437.6738">JobOpening",</text><text fill="#000000" font-family="sans-serif" font-size="20" lengthAdjust="spacing" textLength="180" x="1686.5" y="460.9551">JobOpening.class)</text><polygon fill="#181818" points="1690.5,515.5938,1680.5,519.5938,1690.5,523.5938,1686.5,519.5938" style="stroke:#181818;stroke-width:1.0;"/><line style="stroke:#181818;stroke-width:1.0;stroke-dasharray:2.0,2.0;" x1="1684.5" x2="2224" y1="519.5938" y2="519.5938"/><text fill="#000000" font-family="sans-serif" font-size="20" lengthAdjust="spacing" textLength="228" x="1696.5" y="512.877">Iterable&lt;JobOpening&gt;</text><path d="M2235,480.6719 L2235,536.6719 L2620,536.6719 L2620,490.6719 L2610,480.6719 L2235,480.6719 " fill="#FEFFDD" style="stroke:#181818;stroke-width:0.5;"/><path d="M2610,480.6719 L2610,490.6719 L2620,490.6719 L2610,480.6719 " fill="#FEFFDD" style="stroke:#181818;stroke-width:0.5;"/><text fill="#000000" font-family="sans-serif" font-size="20" lengthAdjust="spacing" textLength="321" x="2241" y="504.2363">Should only return job openings</text><text fill="#000000" font-family="sans-serif" font-size="20" lengthAdjust="spacing" textLength="358" x="2247" y="527.5176">assigned to that customer manager</text><polygon fill="#181818" points="1382.5,567.5156,1372.5,571.5156,1382.5,575.5156,1378.5,571.5156" style="stroke:#181818;stroke-width:1.0;"/><line style="stroke:#181818;stroke-width:1.0;stroke-dasharray:2.0,2.0;" x1="1376.5" x2="1673.5" y1="571.5156" y2="571.5156"/><text fill="#000000" font-family="sans-serif" font-size="20" lengthAdjust="spacing" textLength="228" x="1388.5" y="564.7988">Iterable&lt;JobOpening&gt;</text><polygon fill="#181818" points="981.5,604.7969,971.5,608.7969,981.5,612.7969,977.5,608.7969" style="stroke:#181818;stroke-width:1.0;"/><line style="stroke:#181818;stroke-width:1.0;stroke-dasharray:2.0,2.0;" x1="975.5" x2="1365.5" y1="608.7969" y2="608.7969"/><text fill="#000000" font-family="sans-serif" font-size="20" lengthAdjust="spacing" textLength="228" x="987.5" y="602.0801">Iterable&lt;JobOpening&gt;</text><path d="M836,623.7969 L930,623.7969 L930,639.0781 L920,649.0781 L836,649.0781 L836,623.7969 " fill="#EEEEEE" style="stroke:#000000;stroke-width:1.5;"/><rect fill="none" height="182.6875" style="stroke:#000000;stroke-width:1.5;" width="1339" x="836" y="623.7969"/><text fill="#000000" font-family="sans-serif" font-size="20" font-weight="bold" lengthAdjust="spacing" textLength="49" x="851" y="643.3613">loop</text><text fill="#000000" font-family="sans-serif" font-size="20" font-weight="bold" lengthAdjust="spacing" textLength="252" x="945" y="644.3613">[for each job opening]</text><polygon fill="#181818" points="1867,682.6406,1877,686.6406,1867,690.6406,1871,686.6406" style="stroke:#181818;stroke-width:1.0;"/><line style="stroke:#181818;stroke-width:1.0;" x1="970.5" x2="1873" y1="686.6406" y2="686.6406"/><text fill="#000000" font-family="sans-serif" font-size="20" lengthAdjust="spacing" textLength="79" x="977.5" y="679.9238">toDTO()</text><polygon fill="#181818" points="2061,719.9219,2071,723.9219,2061,727.9219,2065,723.9219" style="stroke:#181818;stroke-width:1.0;"/><line style="stroke:#181818;stroke-width:1.0;stroke-dasharray:2.0,2.0;" x1="1889" x2="2067" y1="723.9219" y2="723.9219"/><text fill="#000000" font-family="sans-serif" font-size="20" lengthAdjust="spacing" textLength="63" x="1896" y="717.2051">create</text><polygon fill="#181818" points="1900,757.2031,1890,761.2031,1900,765.2031,1896,761.2031" style="stroke:#181818;stroke-width:1.0;"/><line style="stroke:#181818;stroke-width:1.0;stroke-dasharray:2.0,2.0;" x1="1894" x2="2077" y1="761.2031" y2="761.2031"/><text fill="#000000" font-family="sans-serif" font-size="20" lengthAdjust="spacing" textLength="160" x="1906" y="754.4863">JobOpeningDTO</text><polygon fill="#181818" points="981.5,794.4844,971.5,798.4844,981.5,802.4844,977.5,798.4844" style="stroke:#181818;stroke-width:1.0;"/><line style="stroke:#181818;stroke-width:1.0;stroke-dasharray:2.0,2.0;" x1="975.5" x2="1883" y1="798.4844" y2="798.4844"/><text fill="#000000" font-family="sans-serif" font-size="20" lengthAdjust="spacing" textLength="160" x="987.5" y="791.7676">JobOpeningDTO</text><polygon fill="#181818" points="668.5,838.7656,658.5,842.7656,668.5,846.7656,664.5,842.7656" style="stroke:#181818;stroke-width:1.0;"/><line style="stroke:#181818;stroke-width:1.0;stroke-dasharray:2.0,2.0;" x1="662.5" x2="964.5" y1="842.7656" y2="842.7656"/><text fill="#000000" font-family="sans-serif" font-size="20" lengthAdjust="spacing" textLength="271" x="674.5" y="836.0488">Iterable&lt;JobOpeningDTO&gt;</text><polygon fill="#181818" points="355.5,876.0469,345.5,880.0469,355.5,884.0469,351.5,880.0469" style="stroke:#181818;stroke-width:1.0;"/><line style="stroke:#181818;stroke-width:1.0;stroke-dasharray:2.0,2.0;" x1="349.5" x2="651.5" y1="880.0469" y2="880.0469"/><text fill="#000000" font-family="sans-serif" font-size="20" lengthAdjust="spacing" textLength="271" x="361.5" y="873.3301">Iterable&lt;JobOpeningDTO&gt;</text><polygon fill="#181818" points="154,936.6094,144,940.6094,154,944.6094,150,940.6094" style="stroke:#181818;stroke-width:1.0;"/><line style="stroke:#181818;stroke-width:1.0;stroke-dasharray:2.0,2.0;" x1="148" x2="338.5" y1="940.6094" y2="940.6094"/><text fill="#000000" font-family="sans-serif" font-size="20" lengthAdjust="spacing" textLength="35" x="160" y="910.6113">List</text><text fill="#000000" font-family="sans-serif" font-size="20" lengthAdjust="spacing" textLength="6" x="195" y="910.6113"> </text><text fill="#000000" font-family="sans-serif" font-size="20" lengthAdjust="spacing" textLength="19" x="201" y="910.6113">of</text><text fill="#000000" font-family="sans-serif" font-size="20" lengthAdjust="spacing" textLength="6" x="220" y="910.6113"> </text><text fill="#000000" font-family="sans-serif" font-size="20" lengthAdjust="spacing" textLength="31" x="226" y="910.6113">job</text><text fill="#000000" font-family="sans-serif" font-size="20" lengthAdjust="spacing" textLength="92" x="160" y="933.8926">openings</text><path d="M10,955.6094 L93,955.6094 L93,970.8906 L83,980.8906 L10,980.8906 L10,955.6094 " fill="#EEEEEE" style="stroke:#000000;stroke-width:1.5;"/><rect fill="none" height="1769.0313" style="stroke:#000000;stroke-width:1.5;" width="2295" x="10" y="955.6094"/><text fill="#000000" font-family="sans-serif" font-size="20" font-weight="bold" lengthAdjust="spacing" textLength="38" x="25" y="975.1738">opt</text><text fill="#000000" font-family="sans-serif" font-size="20" font-weight="bold" lengthAdjust="spacing" textLength="300" x="108" y="976.1738">[Optionally applies filters]</text><path d="M20,996.1719 L114,996.1719 L114,1011.4531 L104,1021.4531 L20,1021.4531 L20,996.1719 " fill="#EEEEEE" style="stroke:#000000;stroke-width:1.5;"/><rect fill="none" height="1721.4688" style="stroke:#000000;stroke-width:1.5;" width="2275" x="20" y="996.1719"/><text fill="#000000" font-family="sans-serif" font-size="20" font-weight="bold" lengthAdjust="spacing" textLength="49" x="35" y="1015.7363">loop</text><text fill="#000000" font-family="sans-serif" font-size="20" font-weight="bold" lengthAdjust="spacing" textLength="372" x="129" y="1016.7363">[While there are filters to apply]</text><polygon fill="#181818" points="322.5,1101.5781,332.5,1105.5781,322.5,1109.5781,326.5,1105.5781" style="stroke:#181818;stroke-width:1.0;"/><line style="stroke:#181818;stroke-width:1.0;" x1="143" x2="328.5" y1="1105.5781" y2="1105.5781"/><text fill="#000000" font-family="sans-serif" font-size="20" lengthAdjust="spacing" textLength="46" x="150" y="1052.2988">Asks</text><text fill="#000000" font-family="sans-serif" font-size="20" lengthAdjust="spacing" textLength="6" x="196" y="1052.2988"> </text><text fill="#000000" font-family="sans-serif" font-size="20" lengthAdjust="spacing" textLength="20" x="202" y="1052.2988">to</text><text fill="#000000" font-family="sans-serif" font-size="20" lengthAdjust="spacing" textLength="6" x="222" y="1052.2988"> </text><text fill="#000000" font-family="sans-serif" font-size="20" lengthAdjust="spacing" textLength="47" x="228" y="1052.2988">filter</text><text fill="#000000" font-family="sans-serif" font-size="20" lengthAdjust="spacing" textLength="33" x="150" y="1075.5801">the</text><text fill="#000000" font-family="sans-serif" font-size="20" lengthAdjust="spacing" textLength="6" x="183" y="1075.5801"> </text><text fill="#000000" font-family="sans-serif" font-size="20" lengthAdjust="spacing" textLength="30" x="189" y="1075.5801">list</text><text fill="#000000" font-family="sans-serif" font-size="20" lengthAdjust="spacing" textLength="6" x="219" y="1075.5801"> </text><text fill="#000000" font-family="sans-serif" font-size="20" lengthAdjust="spacing" textLength="19" x="225" y="1075.5801">of</text><text fill="#000000" font-family="sans-serif" font-size="20" lengthAdjust="spacing" textLength="6" x="244" y="1075.5801"> </text><text fill="#000000" font-family="sans-serif" font-size="20" lengthAdjust="spacing" textLength="31" x="250" y="1075.5801">job</text><text fill="#000000" font-family="sans-serif" font-size="20" lengthAdjust="spacing" textLength="92" x="150" y="1098.8613">openings</text><path d="M30,1120.5781 L106,1120.5781 L106,1135.8594 L96,1145.8594 L30,1145.8594 L30,1120.5781 " fill="#EEEEEE" style="stroke:#000000;stroke-width:1.5;"/><rect fill="none" height="1590.0625" style="stroke:#000000;stroke-width:1.5;" width="2255" x="30" y="1120.5781"/><text fill="#000000" font-family="sans-serif" font-size="20" font-weight="bold" lengthAdjust="spacing" textLength="31" x="45" y="1140.1426">alt</text><text fill="#000000" font-family="sans-serif" font-size="20" font-weight="bold" lengthAdjust="spacing" textLength="191" x="121" y="1141.1426">[Filter by active]</text><polygon fill="#181818" points="635.5,1179.4219,645.5,1183.4219,635.5,1187.4219,639.5,1183.4219" style="stroke:#181818;stroke-width:1.0;"/><line style="stroke:#181818;stroke-width:1.0;stroke-dasharray:2.0,2.0;" x1="344.5" x2="641.5" y1="1183.4219" y2="1183.4219"/><text fill="#000000" font-family="sans-serif" font-size="20" lengthAdjust="spacing" textLength="210" x="351.5" y="1176.7051">filterByActive(active)</text><polygon fill="#181818" points="948.5,1216.7031,958.5,1220.7031,948.5,1224.7031,952.5,1220.7031" style="stroke:#181818;stroke-width:1.0;"/><line style="stroke:#181818;stroke-width:1.0;" x1="657.5" x2="954.5" y1="1220.7031" y2="1220.7031"/><text fill="#000000" font-family="sans-serif" font-size="20" lengthAdjust="spacing" textLength="210" x="664.5" y="1213.9863">filterByActive(active)</text><polygon fill="#181818" points="1349.5,1253.9844,1359.5,1257.9844,1349.5,1261.9844,1353.5,1257.9844" style="stroke:#181818;stroke-width:1.0;"/><line style="stroke:#181818;stroke-width:1.0;" x1="970.5" x2="1355.5" y1="1257.9844" y2="1257.9844"/><text fill="#000000" font-family="sans-serif" font-size="20" lengthAdjust="spacing" textLength="210" x="977.5" y="1251.2676">filterByActive(active)</text><polygon fill="#181818" points="1657.5,1291.2656,1667.5,1295.2656,1657.5,1299.2656,1661.5,1295.2656" style="stroke:#181818;stroke-width:1.0;"/><line style="stroke:#181818;stroke-width:1.0;" x1="1371.5" x2="1663.5" y1="1295.2656" y2="1295.2656"/><text fill="#000000" font-family="sans-serif" font-size="20" lengthAdjust="spacing" textLength="210" x="1378.5" y="1288.5488">filterByActive(active)</text><polygon fill="#181818" points="2208,1421.6719,2218,1425.6719,2208,1429.6719,2212,1425.6719" style="stroke:#181818;stroke-width:1.0;"/><line style="stroke:#181818;stroke-width:1.0;" x1="1679.5" x2="2214" y1="1425.6719" y2="1425.6719"/><text fill="#000000" font-family="sans-serif" font-size="20" lengthAdjust="spacing" textLength="217" x="1686.5" y="1325.8301">createQuery("SELECT</text><text fill="#000000" font-family="sans-serif" font-size="20" lengthAdjust="spacing" textLength="10" x="1686.5" y="1349.1113">*</text><text fill="#000000" font-family="sans-serif" font-size="20" lengthAdjust="spacing" textLength="6" x="1696.5" y="1349.1113"> </text><text fill="#000000" font-family="sans-serif" font-size="20" lengthAdjust="spacing" textLength="59" x="1702.5" y="1349.1113">FROM</text><text fill="#000000" font-family="sans-serif" font-size="20" lengthAdjust="spacing" textLength="117" x="1686.5" y="1372.3926">JobOpening</text><text fill="#000000" font-family="sans-serif" font-size="20" lengthAdjust="spacing" textLength="75" x="1686.5" y="1395.6738">WHERE</text><text fill="#000000" font-family="sans-serif" font-size="20" lengthAdjust="spacing" textLength="6" x="1761.5" y="1395.6738"> </text><text fill="#000000" font-family="sans-serif" font-size="20" lengthAdjust="spacing" textLength="34" x="1767.5" y="1395.6738">...",</text><text fill="#000000" font-family="sans-serif" font-size="20" lengthAdjust="spacing" textLength="180" x="1686.5" y="1418.9551">JobOpening.class)</text><polygon fill="#181818" points="1690.5,1458.9531,1680.5,1462.9531,1690.5,1466.9531,1686.5,1462.9531" style="stroke:#181818;stroke-width:1.0;"/><line style="stroke:#181818;stroke-width:1.0;stroke-dasharray:2.0,2.0;" x1="1684.5" x2="2224" y1="1462.9531" y2="1462.9531"/><text fill="#000000" font-family="sans-serif" font-size="20" lengthAdjust="spacing" textLength="228" x="1696.5" y="1456.2363">Iterable&lt;JobOpening&gt;</text><polygon fill="#181818" points="1382.5,1496.2344,1372.5,1500.2344,1382.5,1504.2344,1378.5,1500.2344" style="stroke:#181818;stroke-width:1.0;"/><line style="stroke:#181818;stroke-width:1.0;stroke-dasharray:2.0,2.0;" x1="1376.5" x2="1673.5" y1="1500.2344" y2="1500.2344"/><text fill="#000000" font-family="sans-serif" font-size="20" lengthAdjust="spacing" textLength="228" x="1388.5" y="1493.5176">Iterable&lt;JobOpening&gt;</text><polygon fill="#181818" points="981.5,1533.5156,971.5,1537.5156,981.5,1541.5156,977.5,1537.5156" style="stroke:#181818;stroke-width:1.0;"/><line style="stroke:#181818;stroke-width:1.0;stroke-dasharray:2.0,2.0;" x1="975.5" x2="1365.5" y1="1537.5156" y2="1537.5156"/><text fill="#000000" font-family="sans-serif" font-size="20" lengthAdjust="spacing" textLength="228" x="987.5" y="1530.7988">Iterable&lt;JobOpening&gt;</text><line style="stroke:#000000;stroke-width:1.0;stroke-dasharray:2.0,2.0;" x1="30" x2="2285" y1="1546.5156" y2="1546.5156"/><text fill="#000000" font-family="sans-serif" font-size="20" font-weight="bold" lengthAdjust="spacing" textLength="228" x="35" y="1565.0801">[Filter by customer]</text><polygon fill="#181818" points="635.5,1596.0781,645.5,1600.0781,635.5,1604.0781,639.5,1600.0781" style="stroke:#181818;stroke-width:1.0;"/><line style="stroke:#181818;stroke-width:1.0;stroke-dasharray:2.0,2.0;" x1="344.5" x2="641.5" y1="1600.0781" y2="1600.0781"/><text fill="#000000" font-family="sans-serif" font-size="20" lengthAdjust="spacing" textLength="279" x="351.5" y="1593.3613">filterByCustomer(customer)</text><polygon fill="#181818" points="948.5,1633.3594,958.5,1637.3594,948.5,1641.3594,952.5,1637.3594" style="stroke:#181818;stroke-width:1.0;"/><line style="stroke:#181818;stroke-width:1.0;" x1="657.5" x2="954.5" y1="1637.3594" y2="1637.3594"/><text fill="#000000" font-family="sans-serif" font-size="20" lengthAdjust="spacing" textLength="279" x="664.5" y="1630.6426">filterByCustomer(customer)</text><polygon fill="#181818" points="1349.5,1670.6406,1359.5,1674.6406,1349.5,1678.6406,1353.5,1674.6406" style="stroke:#181818;stroke-width:1.0;"/><line style="stroke:#181818;stroke-width:1.0;" x1="970.5" x2="1355.5" y1="1674.6406" y2="1674.6406"/><text fill="#000000" font-family="sans-serif" font-size="20" lengthAdjust="spacing" textLength="279" x="977.5" y="1667.9238">filterByCustomer(customer)</text><polygon fill="#181818" points="1657.5,1707.9219,1667.5,1711.9219,1657.5,1715.9219,1661.5,1711.9219" style="stroke:#181818;stroke-width:1.0;"/><line style="stroke:#181818;stroke-width:1.0;" x1="1371.5" x2="1663.5" y1="1711.9219" y2="1711.9219"/><text fill="#000000" font-family="sans-serif" font-size="20" lengthAdjust="spacing" textLength="279" x="1378.5" y="1705.2051">filterByCustomer(customer)</text><polygon fill="#181818" points="2208,1838.3281,2218,1842.3281,2208,1846.3281,2212,1842.3281" style="stroke:#181818;stroke-width:1.0;"/><line style="stroke:#181818;stroke-width:1.0;" x1="1679.5" x2="2214" y1="1842.3281" y2="1842.3281"/><text fill="#000000" font-family="sans-serif" font-size="20" lengthAdjust="spacing" textLength="217" x="1686.5" y="1742.4863">createQuery("SELECT</text><text fill="#000000" font-family="sans-serif" font-size="20" lengthAdjust="spacing" textLength="10" x="1686.5" y="1765.7676">*</text><text fill="#000000" font-family="sans-serif" font-size="20" lengthAdjust="spacing" textLength="6" x="1696.5" y="1765.7676"> </text><text fill="#000000" font-family="sans-serif" font-size="20" lengthAdjust="spacing" textLength="59" x="1702.5" y="1765.7676">FROM</text><text fill="#000000" font-family="sans-serif" font-size="20" lengthAdjust="spacing" textLength="117" x="1686.5" y="1789.0488">JobOpening</text><text fill="#000000" font-family="sans-serif" font-size="20" lengthAdjust="spacing" textLength="75" x="1686.5" y="1812.3301">WHERE</text><text fill="#000000" font-family="sans-serif" font-size="20" lengthAdjust="spacing" textLength="6" x="1761.5" y="1812.3301"> </text><text fill="#000000" font-family="sans-serif" font-size="20" lengthAdjust="spacing" textLength="34" x="1767.5" y="1812.3301">...",</text><text fill="#000000" font-family="sans-serif" font-size="20" lengthAdjust="spacing" textLength="180" x="1686.5" y="1835.6113">JobOpening.class)</text><polygon fill="#181818" points="1690.5,1875.6094,1680.5,1879.6094,1690.5,1883.6094,1686.5,1879.6094" style="stroke:#181818;stroke-width:1.0;"/><line style="stroke:#181818;stroke-width:1.0;stroke-dasharray:2.0,2.0;" x1="1684.5" x2="2224" y1="1879.6094" y2="1879.6094"/><text fill="#000000" font-family="sans-serif" font-size="20" lengthAdjust="spacing" textLength="228" x="1696.5" y="1872.8926">Iterable&lt;JobOpening&gt;</text><polygon fill="#181818" points="1382.5,1912.8906,1372.5,1916.8906,1382.5,1920.8906,1378.5,1916.8906" style="stroke:#181818;stroke-width:1.0;"/><line style="stroke:#181818;stroke-width:1.0;stroke-dasharray:2.0,2.0;" x1="1376.5" x2="1673.5" y1="1916.8906" y2="1916.8906"/><text fill="#000000" font-family="sans-serif" font-size="20" lengthAdjust="spacing" textLength="228" x="1388.5" y="1910.1738">Iterable&lt;JobOpening&gt;</text><polygon fill="#181818" points="981.5,1950.1719,971.5,1954.1719,981.5,1958.1719,977.5,1954.1719" style="stroke:#181818;stroke-width:1.0;"/><line style="stroke:#181818;stroke-width:1.0;stroke-dasharray:2.0,2.0;" x1="975.5" x2="1365.5" y1="1954.1719" y2="1954.1719"/><text fill="#000000" font-family="sans-serif" font-size="20" lengthAdjust="spacing" textLength="228" x="987.5" y="1947.4551">Iterable&lt;JobOpening&gt;</text><line style="stroke:#000000;stroke-width:1.0;stroke-dasharray:2.0,2.0;" x1="30" x2="2285" y1="1963.1719" y2="1963.1719"/><text fill="#000000" font-family="sans-serif" font-size="20" font-weight="bold" lengthAdjust="spacing" textLength="208" x="35" y="1981.7363">[Filter by periode]</text><polygon fill="#181818" points="635.5,2012.7344,645.5,2016.7344,635.5,2020.7344,639.5,2016.7344" style="stroke:#181818;stroke-width:1.0;"/><line style="stroke:#181818;stroke-width:1.0;stroke-dasharray:2.0,2.0;" x1="344.5" x2="641.5" y1="2016.7344" y2="2016.7344"/><text fill="#000000" font-family="sans-serif" font-size="20" lengthAdjust="spacing" textLength="208" x="351.5" y="2010.0176">filterByPeriode(date)</text><polygon fill="#181818" points="948.5,2050.0156,958.5,2054.0156,948.5,2058.0156,952.5,2054.0156" style="stroke:#181818;stroke-width:1.0;"/><line style="stroke:#181818;stroke-width:1.0;" x1="657.5" x2="954.5" y1="2054.0156" y2="2054.0156"/><text fill="#000000" font-family="sans-serif" font-size="20" lengthAdjust="spacing" textLength="208" x="664.5" y="2047.2988">filterByPeriode(date)</text><polygon fill="#181818" points="1349.5,2087.2969,1359.5,2091.2969,1349.5,2095.2969,1353.5,2091.2969" style="stroke:#181818;stroke-width:1.0;"/><line style="stroke:#181818;stroke-width:1.0;" x1="970.5" x2="1355.5" y1="2091.2969" y2="2091.2969"/><text fill="#000000" font-family="sans-serif" font-size="20" lengthAdjust="spacing" textLength="208" x="977.5" y="2084.5801">filterByPeriode(date)</text><polygon fill="#181818" points="1657.5,2124.5781,1667.5,2128.5781,1657.5,2132.5781,1661.5,2128.5781" style="stroke:#181818;stroke-width:1.0;"/><line style="stroke:#181818;stroke-width:1.0;" x1="1371.5" x2="1663.5" y1="2128.5781" y2="2128.5781"/><text fill="#000000" font-family="sans-serif" font-size="20" lengthAdjust="spacing" textLength="208" x="1378.5" y="2121.8613">filterByPeriode(date)</text><polygon fill="#181818" points="2208,2254.9844,2218,2258.9844,2208,2262.9844,2212,2258.9844" style="stroke:#181818;stroke-width:1.0;"/><line style="stroke:#181818;stroke-width:1.0;" x1="1679.5" x2="2214" y1="2258.9844" y2="2258.9844"/><text fill="#000000" font-family="sans-serif" font-size="20" lengthAdjust="spacing" textLength="217" x="1686.5" y="2159.1426">createQuery("SELECT</text><text fill="#000000" font-family="sans-serif" font-size="20" lengthAdjust="spacing" textLength="10" x="1686.5" y="2182.4238">*</text><text fill="#000000" font-family="sans-serif" font-size="20" lengthAdjust="spacing" textLength="6" x="1696.5" y="2182.4238"> </text><text fill="#000000" font-family="sans-serif" font-size="20" lengthAdjust="spacing" textLength="59" x="1702.5" y="2182.4238">FROM</text><text fill="#000000" font-family="sans-serif" font-size="20" lengthAdjust="spacing" textLength="117" x="1686.5" y="2205.7051">JobOpening</text><text fill="#000000" font-family="sans-serif" font-size="20" lengthAdjust="spacing" textLength="75" x="1686.5" y="2228.9863">WHERE</text><text fill="#000000" font-family="sans-serif" font-size="20" lengthAdjust="spacing" textLength="6" x="1761.5" y="2228.9863"> </text><text fill="#000000" font-family="sans-serif" font-size="20" lengthAdjust="spacing" textLength="34" x="1767.5" y="2228.9863">...",</text><text fill="#000000" font-family="sans-serif" font-size="20" lengthAdjust="spacing" textLength="180" x="1686.5" y="2252.2676">JobOpening.class)</text><polygon fill="#181818" points="1690.5,2292.2656,1680.5,2296.2656,1690.5,2300.2656,1686.5,2296.2656" style="stroke:#181818;stroke-width:1.0;"/><line style="stroke:#181818;stroke-width:1.0;stroke-dasharray:2.0,2.0;" x1="1684.5" x2="2224" y1="2296.2656" y2="2296.2656"/><text fill="#000000" font-family="sans-serif" font-size="20" lengthAdjust="spacing" textLength="228" x="1696.5" y="2289.5488">Iterable&lt;JobOpening&gt;</text><polygon fill="#181818" points="1382.5,2329.5469,1372.5,2333.5469,1382.5,2337.5469,1378.5,2333.5469" style="stroke:#181818;stroke-width:1.0;"/><line style="stroke:#181818;stroke-width:1.0;stroke-dasharray:2.0,2.0;" x1="1376.5" x2="1673.5" y1="2333.5469" y2="2333.5469"/><text fill="#000000" font-family="sans-serif" font-size="20" lengthAdjust="spacing" textLength="228" x="1388.5" y="2326.8301">Iterable&lt;JobOpening&gt;</text><polygon fill="#181818" points="981.5,2366.8281,971.5,2370.8281,981.5,2374.8281,977.5,2370.8281" style="stroke:#181818;stroke-width:1.0;"/><line style="stroke:#181818;stroke-width:1.0;stroke-dasharray:2.0,2.0;" x1="975.5" x2="1365.5" y1="2370.8281" y2="2370.8281"/><text fill="#000000" font-family="sans-serif" font-size="20" lengthAdjust="spacing" textLength="228" x="987.5" y="2364.1113">Iterable&lt;JobOpening&gt;</text><path d="M836,2385.8281 L930,2385.8281 L930,2401.1094 L920,2411.1094 L836,2411.1094 L836,2385.8281 " fill="#EEEEEE" style="stroke:#000000;stroke-width:1.5;"/><rect fill="none" height="182.6875" style="stroke:#000000;stroke-width:1.5;" width="1339" x="836" y="2385.8281"/><text fill="#000000" font-family="sans-serif" font-size="20" font-weight="bold" lengthAdjust="spacing" textLength="49" x="851" y="2405.3926">loop</text><text fill="#000000" font-family="sans-serif" font-size="20" font-weight="bold" lengthAdjust="spacing" textLength="252" x="945" y="2406.3926">[for each job opening]</text><polygon fill="#181818" points="1867,2444.6719,1877,2448.6719,1867,2452.6719,1871,2448.6719" style="stroke:#181818;stroke-width:1.0;"/><line style="stroke:#181818;stroke-width:1.0;" x1="970.5" x2="1873" y1="2448.6719" y2="2448.6719"/><text fill="#000000" font-family="sans-serif" font-size="20" lengthAdjust="spacing" textLength="79" x="977.5" y="2441.9551">toDTO()</text><polygon fill="#181818" points="2061,2481.9531,2071,2485.9531,2061,2489.9531,2065,2485.9531" style="stroke:#181818;stroke-width:1.0;"/><line style="stroke:#181818;stroke-width:1.0;stroke-dasharray:2.0,2.0;" x1="1889" x2="2067" y1="2485.9531" y2="2485.9531"/><text fill="#000000" font-family="sans-serif" font-size="20" lengthAdjust="spacing" textLength="63" x="1896" y="2479.2363">create</text><polygon fill="#181818" points="1900,2519.2344,1890,2523.2344,1900,2527.2344,1896,2523.2344" style="stroke:#181818;stroke-width:1.0;"/><line style="stroke:#181818;stroke-width:1.0;stroke-dasharray:2.0,2.0;" x1="1894" x2="2077" y1="2523.2344" y2="2523.2344"/><text fill="#000000" font-family="sans-serif" font-size="20" lengthAdjust="spacing" textLength="160" x="1906" y="2516.5176">JobOpeningDTO</text><polygon fill="#181818" points="981.5,2556.5156,971.5,2560.5156,981.5,2564.5156,977.5,2560.5156" style="stroke:#181818;stroke-width:1.0;"/><line style="stroke:#181818;stroke-width:1.0;stroke-dasharray:2.0,2.0;" x1="975.5" x2="1883" y1="2560.5156" y2="2560.5156"/><text fill="#000000" font-family="sans-serif" font-size="20" lengthAdjust="spacing" textLength="160" x="987.5" y="2553.7988">JobOpeningDTO</text><polygon fill="#181818" points="668.5,2600.7969,658.5,2604.7969,668.5,2608.7969,664.5,2604.7969" style="stroke:#181818;stroke-width:1.0;"/><line style="stroke:#181818;stroke-width:1.0;stroke-dasharray:2.0,2.0;" x1="662.5" x2="964.5" y1="2604.7969" y2="2604.7969"/><text fill="#000000" font-family="sans-serif" font-size="20" lengthAdjust="spacing" textLength="271" x="674.5" y="2598.0801">Iterable&lt;JobOpeningDTO&gt;</text><polygon fill="#181818" points="355.5,2638.0781,345.5,2642.0781,355.5,2646.0781,351.5,2642.0781" style="stroke:#181818;stroke-width:1.0;"/><line style="stroke:#181818;stroke-width:1.0;stroke-dasharray:2.0,2.0;" x1="349.5" x2="651.5" y1="2642.0781" y2="2642.0781"/><text fill="#000000" font-family="sans-serif" font-size="20" lengthAdjust="spacing" textLength="271" x="361.5" y="2635.3613">Iterable&lt;JobOpeningDTO&gt;</text><polygon fill="#181818" points="154,2698.6406,144,2702.6406,154,2706.6406,150,2702.6406" style="stroke:#181818;stroke-width:1.0;"/><line style="stroke:#181818;stroke-width:1.0;stroke-dasharray:2.0,2.0;" x1="148" x2="333.5" y1="2702.6406" y2="2702.6406"/><text fill="#000000" font-family="sans-serif" font-size="20" lengthAdjust="spacing" textLength="35" x="160" y="2672.6426">List</text><text fill="#000000" font-family="sans-serif" font-size="20" lengthAdjust="spacing" textLength="6" x="195" y="2672.6426"> </text><text fill="#000000" font-family="sans-serif" font-size="20" lengthAdjust="spacing" textLength="19" x="201" y="2672.6426">of</text><text fill="#000000" font-family="sans-serif" font-size="20" lengthAdjust="spacing" textLength="6" x="220" y="2672.6426"> </text><text fill="#000000" font-family="sans-serif" font-size="20" lengthAdjust="spacing" textLength="31" x="226" y="2672.6426">job</text><text fill="#000000" font-family="sans-serif" font-size="20" lengthAdjust="spacing" textLength="92" x="160" y="2695.9238">openings</text><!--SRC=[xLdFRzem5BxdhtZY1DEewAPTK5Mf1QenjMfNYdhPnP1Ny1hip7QgiRz-JWWa93PnqghR0KkeOBzViP-_z-LLFbCM4a5M0Py_emy-Ff4eK5USgGdzW_2fvtcAgW1XWhyYP7E48IKBhG1Tc4vEUxtFdYUtHY2W3DKwHE12BNbkOKL-hr1Aia0PcptzqiijojJq7H6Apcb8c8A8-IXYSvv7veeBQ0qYgVWA1TmGfks85X09ytGodVEyC6UZTKsb-iPdjo4ooXRJSQ8o7HyI6kWd5pm8KlksnKCc9YXUw1mJ_TBilcAsV8yXbrG_wBgWboqKL4DYrpQlsNmNFDh4XW-t1Kazu_b4aHcH2ArX-YqH6buc1qTVYCBoAHKce7kkZwKF5_9PmfC-RA8pIIhWJ_2Jpu1llCcSHNs8eCTq35sjQpkbFZpHGA6uN0-uL57ciDr9r7VchCSCwR09n96NphZAxPxhSeP0RfHMznrcPslt6KaKZAomisVOu3-NA50O9g4a4dEYkMn0EH1Bqe9XM6JZa8QNVPWBr1Q_HoZMxTPaT3qQFC07kBg_lSazIUjZxiV9F21ITepETX7gd0RB65ucYMZTZx7U3J8By2nRFhSQOrmx4tInL7sOB7aK-C1Pi0Q1AX9ixqhyOFgoIRfW6hiL1xKaQdVRDEXkhfl9XuzLZsNSuBDkzvKFcNFiUkBbIv24yJOnk0GGS1uckAJrbldzhzWuuvtjwuFImDckIBOS7jlo91FP95yUbxUNmAfiS1J3kOEl_SrFVBdPC6wxcrFpmRiuDZejIIBplQOPOgqD-y7kYeCXHNNmMPOQVHUBWxqWfRNqa9USXuELBoslXMhTJvHAnJbdL5TdZuSARaD5EIE1nYuIXW55cHO6wUskrUEIQdQfbYWGYFwa0Z6QnJhPLXiv0wIaGKjl56DBPl9GIloKGoHpWOAhZVvilP7OlpaLH0EoYdUHABStDYmrjv9kDA8TRa7K81-rIOXx1FKfI4CgKY-aneJ4YPY08pE1nw-Z-n6Sd9muSvGwNCMDiq1Dqk96AfgIYxhHD60PzTb6dQ1S2me6-bKgWw8jw3K4e-qxStjhf_Dc4EDWkYbsE9f-R_nm3Ek88KSC-Qym94H1kT-KpznjjDk-Tljsw77OQbFWgBRwtfXH7T4HBevmyM_Xedcdm-6Umk5sHzsMHrNR0ohx7Wrw7rNz3-ZNC5Ix2UAI8F2g5enHkjWHQP9HzJeZKDqQSMwFEBH8e5OdflALtTmh0KkpfBZByT_uKsYYv7uM_uVo5m00]--></g></svg>