<?xml version="1.0" encoding="UTF-8" standalone="no"?><svg xmlns="http://www.w3.org/2000/svg" xmlns:xlink="http://www.w3.org/1999/xlink" contentStyleType="text/css" height="1948px" preserveAspectRatio="none" style="width:2500px;height:1948px;background:#FFFFFF;" version="1.1" viewBox="0 0 2500 1948" width="2500px" zoomAndPan="magnify"><defs/><g><text fill="#000000" font-family="sans-serif" font-size="14" font-weight="bold" lengthAdjust="spacing" textLength="225" x="1138.5" y="27.9951">Sequence Diagram - US1003</text><rect fill="#FFFFFF" height="1715.1875" style="stroke:#181818;stroke-width:1.0;" width="10" x="123" y="135.5781"/><rect fill="#FFFFFF" height="729.1875" style="stroke:#181818;stroke-width:1.0;" width="10" x="324.5" y="211.4219"/><rect fill="#FFFFFF" height="745.1875" style="stroke:#181818;stroke-width:1.0;" width="10" x="324.5" y="1105.5781"/><rect fill="#FFFFFF" height="631.3438" style="stroke:#181818;stroke-width:1.0;" width="10" x="629.5" y="248.7031"/><rect fill="#FFFFFF" height="625.3438" style="stroke:#181818;stroke-width:1.0;" width="10" x="629.5" y="1142.8594"/><rect fill="#FFFFFF" height="556.7813" style="stroke:#181818;stroke-width:1.0;" width="10" x="934.5" y="285.9844"/><rect fill="#FFFFFF" height="550.7813" style="stroke:#181818;stroke-width:1.0;" width="10" x="934.5" y="1180.1406"/><rect fill="#FFFFFF" height="285.5313" style="stroke:#181818;stroke-width:1.0;" width="10" x="1238.5" y="323.2656"/><rect fill="#FFFFFF" height="279.5313" style="stroke:#181818;stroke-width:1.0;" width="10" x="1238.5" y="1217.4219"/><rect fill="#FFFFFF" height="210.9688" style="stroke:#181818;stroke-width:1.0;" width="10" x="1542.5" y="360.5469"/><rect fill="#FFFFFF" height="204.9688" style="stroke:#181818;stroke-width:1.0;" width="10" x="1542.5" y="1254.7031"/><rect fill="#FFFFFF" height="111.8438" style="stroke:#181818;stroke-width:1.0;" width="10" x="1752" y="686.6406"/><rect fill="#FFFFFF" height="111.8438" style="stroke:#181818;stroke-width:1.0;" width="10" x="1752" y="1574.7969"/><rect fill="#FFFFFF" height="37.2813" style="stroke:#181818;stroke-width:1.0;" width="10" x="1946" y="723.9219"/><rect fill="#FFFFFF" height="37.2813" style="stroke:#181818;stroke-width:1.0;" width="10" x="1946" y="1612.0781"/><rect fill="#FFFFFF" height="51.9219" style="stroke:#181818;stroke-width:1.0;" width="10" x="2093" y="467.6719"/><rect fill="#FFFFFF" height="37.2813" style="stroke:#181818;stroke-width:1.0;" width="10" x="2093" y="1385.1094"/><rect fill="none" height="182.6875" style="stroke:#000000;stroke-width:1.5;" width="1220.5" x="827.5" y="623.7969"/><rect fill="none" height="888.1563" style="stroke:#000000;stroke-width:1.5;" width="2158" x="10" y="955.6094"/><rect fill="none" height="840.5938" style="stroke:#000000;stroke-width:1.5;" width="2138" x="20" y="996.1719"/><rect fill="none" height="182.6875" style="stroke:#000000;stroke-width:1.5;" width="1220.5" x="827.5" y="1511.9531"/><line style="stroke:#181818;stroke-width:0.5;stroke-dasharray:5.0,5.0;" x1="128" x2="128" y1="125.5781" y2="1860.7656"/><line style="stroke:#181818;stroke-width:0.5;stroke-dasharray:5.0,5.0;" x1="329" x2="329" y1="125.5781" y2="1860.7656"/><line style="stroke:#181818;stroke-width:0.5;stroke-dasharray:5.0,5.0;" x1="634.5" x2="634.5" y1="125.5781" y2="1860.7656"/><line style="stroke:#181818;stroke-width:0.5;stroke-dasharray:5.0,5.0;" x1="939.5" x2="939.5" y1="125.5781" y2="1860.7656"/><line style="stroke:#181818;stroke-width:0.5;stroke-dasharray:5.0,5.0;" x1="1243" x2="1243" y1="125.5781" y2="1860.7656"/><line style="stroke:#181818;stroke-width:0.5;stroke-dasharray:5.0,5.0;" x1="1547.5" x2="1547.5" y1="125.5781" y2="1860.7656"/><line style="stroke:#181818;stroke-width:0.5;stroke-dasharray:5.0,5.0;" x1="1756.5" x2="1756.5" y1="125.5781" y2="1860.7656"/><line style="stroke:#181818;stroke-width:0.5;stroke-dasharray:5.0,5.0;" x1="1951" x2="1951" y1="125.5781" y2="1860.7656"/><line style="stroke:#181818;stroke-width:0.5;stroke-dasharray:5.0,5.0;" x1="2098" x2="2098" y1="125.5781" y2="1860.7656"/><text fill="#000000" font-family="sans-serif" font-size="20" lengthAdjust="spacing" text-decoration="underline" textLength="190" x="30" y="120.8613">Customer Manager</text><ellipse cx="128" cy="50.7969" fill="#E2E2F0" rx="8" ry="8" style="stroke:#181818;stroke-width:0.5;"/><path d="M128,58.7969 L128,85.7969 M115,66.7969 L141,66.7969 M128,85.7969 L115,100.7969 M128,85.7969 L141,100.7969 " fill="none" style="stroke:#181818;stroke-width:0.5;"/><text fill="#000000" font-family="sans-serif" font-size="20" lengthAdjust="spacing" text-decoration="underline" textLength="190" x="30" y="1878.3301">Customer Manager</text><ellipse cx="128" cy="1891.5469" fill="#E2E2F0" rx="8" ry="8" style="stroke:#181818;stroke-width:0.5;"/><path d="M128,1899.5469 L128,1926.5469 M115,1907.5469 L141,1907.5469 M128,1926.5469 L115,1941.5469 M128,1926.5469 L141,1941.5469 " fill="none" style="stroke:#181818;stroke-width:0.5;"/><rect fill="#E2E2F0" height="37.2813" rx="2.5" ry="2.5" style="stroke:#181818;stroke-width:0.5;" width="187" x="236" y="87.2969"/><text fill="#000000" font-family="sans-serif" font-size="20" lengthAdjust="spacing" text-decoration="underline" textLength="173" x="243" y="112.8613">ListJobOpeningUI</text><rect fill="#E2E2F0" height="37.2813" rx="2.5" ry="2.5" style="stroke:#181818;stroke-width:0.5;" width="187" x="236" y="1859.7656"/><text fill="#000000" font-family="sans-serif" font-size="20" lengthAdjust="spacing" text-decoration="underline" textLength="173" x="243" y="1885.3301">ListJobOpeningUI</text><rect fill="#E2E2F0" height="37.2813" rx="2.5" ry="2.5" style="stroke:#181818;stroke-width:0.5;" width="230" x="519.5" y="87.2969"/><text fill="#000000" font-family="sans-serif" font-size="20" lengthAdjust="spacing" text-decoration="underline" textLength="216" x="526.5" y="112.8613">JobOpeningController</text><rect fill="#E2E2F0" height="37.2813" rx="2.5" ry="2.5" style="stroke:#181818;stroke-width:0.5;" width="230" x="519.5" y="1859.7656"/><text fill="#000000" font-family="sans-serif" font-size="20" lengthAdjust="spacing" text-decoration="underline" textLength="216" x="526.5" y="1885.3301">JobOpeningController</text><rect fill="#E2E2F0" height="37.2813" rx="2.5" ry="2.5" style="stroke:#181818;stroke-width:0.5;" width="204" x="837.5" y="87.2969"/><text fill="#000000" font-family="sans-serif" font-size="20" lengthAdjust="spacing" text-decoration="underline" textLength="190" x="844.5" y="112.8613">JobOpeningService</text><rect fill="#E2E2F0" height="37.2813" rx="2.5" ry="2.5" style="stroke:#181818;stroke-width:0.5;" width="204" x="837.5" y="1859.7656"/><text fill="#000000" font-family="sans-serif" font-size="20" lengthAdjust="spacing" text-decoration="underline" textLength="190" x="844.5" y="1885.3301">JobOpeningService</text><rect fill="#E2E2F0" height="37.2813" rx="2.5" ry="2.5" style="stroke:#181818;stroke-width:0.5;" width="237" x="1125" y="87.2969"/><text fill="#000000" font-family="sans-serif" font-size="20" lengthAdjust="spacing" text-decoration="underline" textLength="223" x="1132" y="112.8613">JobOpeningRepository</text><rect fill="#E2E2F0" height="37.2813" rx="2.5" ry="2.5" style="stroke:#181818;stroke-width:0.5;" width="237" x="1125" y="1859.7656"/><text fill="#000000" font-family="sans-serif" font-size="20" lengthAdjust="spacing" text-decoration="underline" textLength="223" x="1132" y="1885.3301">JobOpeningRepository</text><rect fill="#E2E2F0" height="37.2813" rx="2.5" ry="2.5" style="stroke:#181818;stroke-width:0.5;" width="268" x="1413.5" y="87.2969"/><text fill="#000000" font-family="sans-serif" font-size="20" lengthAdjust="spacing" text-decoration="underline" textLength="254" x="1420.5" y="112.8613">JpaJobOpeningRepository</text><rect fill="#E2E2F0" height="37.2813" rx="2.5" ry="2.5" style="stroke:#181818;stroke-width:0.5;" width="268" x="1413.5" y="1859.7656"/><text fill="#000000" font-family="sans-serif" font-size="20" lengthAdjust="spacing" text-decoration="underline" textLength="254" x="1420.5" y="1885.3301">JpaJobOpeningRepository</text><rect fill="#E2E2F0" height="37.2813" rx="2.5" ry="2.5" style="stroke:#181818;stroke-width:0.5;" width="131" x="1691.5" y="87.2969"/><text fill="#000000" font-family="sans-serif" font-size="20" lengthAdjust="spacing" text-decoration="underline" textLength="117" x="1698.5" y="112.8613">JobOpening</text><rect fill="#E2E2F0" height="37.2813" rx="2.5" ry="2.5" style="stroke:#181818;stroke-width:0.5;" width="131" x="1691.5" y="1859.7656"/><text fill="#000000" font-family="sans-serif" font-size="20" lengthAdjust="spacing" text-decoration="underline" textLength="117" x="1698.5" y="1885.3301">JobOpening</text><rect fill="#E2E2F0" height="37.2813" rx="2.5" ry="2.5" style="stroke:#181818;stroke-width:0.5;" width="174" x="1864" y="87.2969"/><text fill="#000000" font-family="sans-serif" font-size="20" lengthAdjust="spacing" text-decoration="underline" textLength="160" x="1871" y="112.8613">JobOpeningDTO</text><rect fill="#E2E2F0" height="37.2813" rx="2.5" ry="2.5" style="stroke:#181818;stroke-width:0.5;" width="174" x="1864" y="1859.7656"/><text fill="#000000" font-family="sans-serif" font-size="20" lengthAdjust="spacing" text-decoration="underline" textLength="160" x="1871" y="1885.3301">JobOpeningDTO</text><text fill="#000000" font-family="sans-serif" font-size="20" lengthAdjust="spacing" text-decoration="underline" textLength="94" x="2048" y="120.8613">Database</text><path d="M2080,66.2969 C2080,56.2969 2098,56.2969 2098,56.2969 C2098,56.2969 2116,56.2969 2116,66.2969 L2116,92.2969 C2116,102.2969 2098,102.2969 2098,102.2969 C2098,102.2969 2080,102.2969 2080,92.2969 L2080,66.2969 " fill="#E2E2F0" style="stroke:#181818;stroke-width:1.5;"/><path d="M2080,66.2969 C2080,76.2969 2098,76.2969 2098,76.2969 C2098,76.2969 2116,76.2969 2116,66.2969 " fill="none" style="stroke:#181818;stroke-width:1.5;"/><text fill="#000000" font-family="sans-serif" font-size="20" lengthAdjust="spacing" text-decoration="underline" textLength="94" x="2048" y="1878.3301">Database</text><path d="M2080,1893.0469 C2080,1883.0469 2098,1883.0469 2098,1883.0469 C2098,1883.0469 2116,1883.0469 2116,1893.0469 L2116,1919.0469 C2116,1929.0469 2098,1929.0469 2098,1929.0469 C2098,1929.0469 2080,1929.0469 2080,1919.0469 L2080,1893.0469 " fill="#E2E2F0" style="stroke:#181818;stroke-width:1.5;"/><path d="M2080,1893.0469 C2080,1903.0469 2098,1903.0469 2098,1903.0469 C2098,1903.0469 2116,1903.0469 2116,1893.0469 " fill="none" style="stroke:#181818;stroke-width:1.5;"/><rect fill="#FFFFFF" height="1715.1875" style="stroke:#181818;stroke-width:1.0;" width="10" x="123" y="135.5781"/><rect fill="#FFFFFF" height="729.1875" style="stroke:#181818;stroke-width:1.0;" width="10" x="324.5" y="211.4219"/><rect fill="#FFFFFF" height="745.1875" style="stroke:#181818;stroke-width:1.0;" width="10" x="324.5" y="1105.5781"/><rect fill="#FFFFFF" height="631.3438" style="stroke:#181818;stroke-width:1.0;" width="10" x="629.5" y="248.7031"/><rect fill="#FFFFFF" height="625.3438" style="stroke:#181818;stroke-width:1.0;" width="10" x="629.5" y="1142.8594"/><rect fill="#FFFFFF" height="556.7813" style="stroke:#181818;stroke-width:1.0;" width="10" x="934.5" y="285.9844"/><rect fill="#FFFFFF" height="550.7813" style="stroke:#181818;stroke-width:1.0;" width="10" x="934.5" y="1180.1406"/><rect fill="#FFFFFF" height="285.5313" style="stroke:#181818;stroke-width:1.0;" width="10" x="1238.5" y="323.2656"/><rect fill="#FFFFFF" height="279.5313" style="stroke:#181818;stroke-width:1.0;" width="10" x="1238.5" y="1217.4219"/><rect fill="#FFFFFF" height="210.9688" style="stroke:#181818;stroke-width:1.0;" width="10" x="1542.5" y="360.5469"/><rect fill="#FFFFFF" height="204.9688" style="stroke:#181818;stroke-width:1.0;" width="10" x="1542.5" y="1254.7031"/><rect fill="#FFFFFF" height="111.8438" style="stroke:#181818;stroke-width:1.0;" width="10" x="1752" y="686.6406"/><rect fill="#FFFFFF" height="111.8438" style="stroke:#181818;stroke-width:1.0;" width="10" x="1752" y="1574.7969"/><rect fill="#FFFFFF" height="37.2813" style="stroke:#181818;stroke-width:1.0;" width="10" x="1946" y="723.9219"/><rect fill="#FFFFFF" height="37.2813" style="stroke:#181818;stroke-width:1.0;" width="10" x="1946" y="1612.0781"/><rect fill="#FFFFFF" height="51.9219" style="stroke:#181818;stroke-width:1.0;" width="10" x="2093" y="467.6719"/><rect fill="#FFFFFF" height="37.2813" style="stroke:#181818;stroke-width:1.0;" width="10" x="2093" y="1385.1094"/><polygon fill="#181818" points="312.5,207.4219,322.5,211.4219,312.5,215.4219,316.5,211.4219" style="stroke:#181818;stroke-width:1.0;"/><line style="stroke:#181818;stroke-width:1.0;" x1="133" x2="318.5" y1="211.4219" y2="211.4219"/><text fill="#000000" font-family="sans-serif" font-size="20" lengthAdjust="spacing" textLength="46" x="140" y="158.1426">Asks</text><text fill="#000000" font-family="sans-serif" font-size="20" lengthAdjust="spacing" textLength="6" x="186" y="158.1426"> </text><text fill="#000000" font-family="sans-serif" font-size="20" lengthAdjust="spacing" textLength="27" x="192" y="158.1426">for</text><text fill="#000000" font-family="sans-serif" font-size="20" lengthAdjust="spacing" textLength="6" x="219" y="158.1426"> </text><text fill="#000000" font-family="sans-serif" font-size="20" lengthAdjust="spacing" textLength="12" x="225" y="158.1426">a</text><text fill="#000000" font-family="sans-serif" font-size="20" lengthAdjust="spacing" textLength="6" x="237" y="158.1426"> </text><text fill="#000000" font-family="sans-serif" font-size="20" lengthAdjust="spacing" textLength="30" x="243" y="158.1426">list</text><text fill="#000000" font-family="sans-serif" font-size="20" lengthAdjust="spacing" textLength="19" x="140" y="181.4238">of</text><text fill="#000000" font-family="sans-serif" font-size="20" lengthAdjust="spacing" textLength="6" x="159" y="181.4238"> </text><text fill="#000000" font-family="sans-serif" font-size="20" lengthAdjust="spacing" textLength="31" x="165" y="181.4238">job</text><text fill="#000000" font-family="sans-serif" font-size="20" lengthAdjust="spacing" textLength="92" x="140" y="204.7051">openings</text><polygon fill="#181818" points="617.5,244.7031,627.5,248.7031,617.5,252.7031,621.5,248.7031" style="stroke:#181818;stroke-width:1.0;"/><line style="stroke:#181818;stroke-width:1.0;stroke-dasharray:2.0,2.0;" x1="334.5" x2="623.5" y1="248.7031" y2="248.7031"/><text fill="#000000" font-family="sans-serif" font-size="20" lengthAdjust="spacing" textLength="167" x="341.5" y="241.9863">allJobOpenings()</text><polygon fill="#181818" points="922.5,281.9844,932.5,285.9844,922.5,289.9844,926.5,285.9844" style="stroke:#181818;stroke-width:1.0;"/><line style="stroke:#181818;stroke-width:1.0;" x1="639.5" x2="928.5" y1="285.9844" y2="285.9844"/><text fill="#000000" font-family="sans-serif" font-size="20" lengthAdjust="spacing" textLength="167" x="646.5" y="279.2676">allJobOpenings()</text><polygon fill="#181818" points="1226.5,319.2656,1236.5,323.2656,1226.5,327.2656,1230.5,323.2656" style="stroke:#181818;stroke-width:1.0;"/><line style="stroke:#181818;stroke-width:1.0;" x1="944.5" x2="1232.5" y1="323.2656" y2="323.2656"/><text fill="#000000" font-family="sans-serif" font-size="20" lengthAdjust="spacing" textLength="81" x="951.5" y="316.5488">findAll()</text><polygon fill="#181818" points="1530.5,356.5469,1540.5,360.5469,1530.5,364.5469,1534.5,360.5469" style="stroke:#181818;stroke-width:1.0;"/><line style="stroke:#181818;stroke-width:1.0;" x1="1248.5" x2="1536.5" y1="360.5469" y2="360.5469"/><text fill="#000000" font-family="sans-serif" font-size="20" lengthAdjust="spacing" textLength="81" x="1255.5" y="353.8301">findAll()</text><polygon fill="#181818" points="2081,463.6719,2091,467.6719,2081,471.6719,2085,467.6719" style="stroke:#181818;stroke-width:1.0;"/><line style="stroke:#181818;stroke-width:1.0;" x1="1552.5" x2="2087" y1="467.6719" y2="467.6719"/><text fill="#000000" font-family="sans-serif" font-size="20" lengthAdjust="spacing" textLength="217" x="1559.5" y="391.1113">createQuery("SELECT</text><text fill="#000000" font-family="sans-serif" font-size="20" lengthAdjust="spacing" textLength="10" x="1559.5" y="414.3926">*</text><text fill="#000000" font-family="sans-serif" font-size="20" lengthAdjust="spacing" textLength="6" x="1569.5" y="414.3926"> </text><text fill="#000000" font-family="sans-serif" font-size="20" lengthAdjust="spacing" textLength="59" x="1575.5" y="414.3926">FROM</text><text fill="#000000" font-family="sans-serif" font-size="20" lengthAdjust="spacing" textLength="133" x="1559.5" y="437.6738">JobOpening",</text><text fill="#000000" font-family="sans-serif" font-size="20" lengthAdjust="spacing" textLength="180" x="1559.5" y="460.9551">JobOpening.class)</text><polygon fill="#181818" points="1563.5,515.5938,1553.5,519.5938,1563.5,523.5938,1559.5,519.5938" style="stroke:#181818;stroke-width:1.0;"/><line style="stroke:#181818;stroke-width:1.0;stroke-dasharray:2.0,2.0;" x1="1557.5" x2="2097" y1="519.5938" y2="519.5938"/><text fill="#000000" font-family="sans-serif" font-size="20" lengthAdjust="spacing" textLength="228" x="1569.5" y="512.877">Iterable&lt;JobOpening&gt;</text><path d="M2108,480.6719 L2108,536.6719 L2493,536.6719 L2493,490.6719 L2483,480.6719 L2108,480.6719 " fill="#FEFFDD" style="stroke:#181818;stroke-width:0.5;"/><path d="M2483,480.6719 L2483,490.6719 L2493,490.6719 L2483,480.6719 " fill="#FEFFDD" style="stroke:#181818;stroke-width:0.5;"/><text fill="#000000" font-family="sans-serif" font-size="20" lengthAdjust="spacing" textLength="321" x="2114" y="504.2363">Should only return job openings</text><text fill="#000000" font-family="sans-serif" font-size="20" lengthAdjust="spacing" textLength="358" x="2120" y="527.5176">assigned to that customer manager</text><polygon fill="#181818" points="1259.5,567.5156,1249.5,571.5156,1259.5,575.5156,1255.5,571.5156" style="stroke:#181818;stroke-width:1.0;"/><line style="stroke:#181818;stroke-width:1.0;stroke-dasharray:2.0,2.0;" x1="1253.5" x2="1546.5" y1="571.5156" y2="571.5156"/><text fill="#000000" font-family="sans-serif" font-size="20" lengthAdjust="spacing" textLength="228" x="1265.5" y="564.7988">Iterable&lt;JobOpening&gt;</text><polygon fill="#181818" points="955.5,604.7969,945.5,608.7969,955.5,612.7969,951.5,608.7969" style="stroke:#181818;stroke-width:1.0;"/><line style="stroke:#181818;stroke-width:1.0;stroke-dasharray:2.0,2.0;" x1="949.5" x2="1242.5" y1="608.7969" y2="608.7969"/><text fill="#000000" font-family="sans-serif" font-size="20" lengthAdjust="spacing" textLength="228" x="961.5" y="602.0801">Iterable&lt;JobOpening&gt;</text><path d="M827.5,623.7969 L921.5,623.7969 L921.5,639.0781 L911.5,649.0781 L827.5,649.0781 L827.5,623.7969 " fill="#EEEEEE" style="stroke:#000000;stroke-width:1.5;"/><rect fill="none" height="182.6875" style="stroke:#000000;stroke-width:1.5;" width="1220.5" x="827.5" y="623.7969"/><text fill="#000000" font-family="sans-serif" font-size="20" font-weight="bold" lengthAdjust="spacing" textLength="49" x="842.5" y="643.3613">loop</text><text fill="#000000" font-family="sans-serif" font-size="20" font-weight="bold" lengthAdjust="spacing" textLength="252" x="936.5" y="644.3613">[for each job opening]</text><polygon fill="#181818" points="1740,682.6406,1750,686.6406,1740,690.6406,1744,686.6406" style="stroke:#181818;stroke-width:1.0;"/><line style="stroke:#181818;stroke-width:1.0;" x1="944.5" x2="1746" y1="686.6406" y2="686.6406"/><text fill="#000000" font-family="sans-serif" font-size="20" lengthAdjust="spacing" textLength="79" x="951.5" y="679.9238">toDTO()</text><polygon fill="#181818" points="1934,719.9219,1944,723.9219,1934,727.9219,1938,723.9219" style="stroke:#181818;stroke-width:1.0;"/><line style="stroke:#181818;stroke-width:1.0;stroke-dasharray:2.0,2.0;" x1="1762" x2="1940" y1="723.9219" y2="723.9219"/><text fill="#000000" font-family="sans-serif" font-size="20" lengthAdjust="spacing" textLength="63" x="1769" y="717.2051">create</text><polygon fill="#181818" points="1773,757.2031,1763,761.2031,1773,765.2031,1769,761.2031" style="stroke:#181818;stroke-width:1.0;"/><line style="stroke:#181818;stroke-width:1.0;stroke-dasharray:2.0,2.0;" x1="1767" x2="1950" y1="761.2031" y2="761.2031"/><text fill="#000000" font-family="sans-serif" font-size="20" lengthAdjust="spacing" textLength="160" x="1779" y="754.4863">JobOpeningDTO</text><polygon fill="#181818" points="955.5,794.4844,945.5,798.4844,955.5,802.4844,951.5,798.4844" style="stroke:#181818;stroke-width:1.0;"/><line style="stroke:#181818;stroke-width:1.0;stroke-dasharray:2.0,2.0;" x1="949.5" x2="1756" y1="798.4844" y2="798.4844"/><text fill="#000000" font-family="sans-serif" font-size="20" lengthAdjust="spacing" textLength="160" x="961.5" y="791.7676">JobOpeningDTO</text><polygon fill="#181818" points="650.5,838.7656,640.5,842.7656,650.5,846.7656,646.5,842.7656" style="stroke:#181818;stroke-width:1.0;"/><line style="stroke:#181818;stroke-width:1.0;stroke-dasharray:2.0,2.0;" x1="644.5" x2="938.5" y1="842.7656" y2="842.7656"/><text fill="#000000" font-family="sans-serif" font-size="20" lengthAdjust="spacing" textLength="271" x="656.5" y="836.0488">Iterable&lt;JobOpeningDTO&gt;</text><polygon fill="#181818" points="345.5,876.0469,335.5,880.0469,345.5,884.0469,341.5,880.0469" style="stroke:#181818;stroke-width:1.0;"/><line style="stroke:#181818;stroke-width:1.0;stroke-dasharray:2.0,2.0;" x1="339.5" x2="633.5" y1="880.0469" y2="880.0469"/><text fill="#000000" font-family="sans-serif" font-size="20" lengthAdjust="spacing" textLength="271" x="351.5" y="873.3301">Iterable&lt;JobOpeningDTO&gt;</text><polygon fill="#181818" points="144,936.6094,134,940.6094,144,944.6094,140,940.6094" style="stroke:#181818;stroke-width:1.0;"/><line style="stroke:#181818;stroke-width:1.0;stroke-dasharray:2.0,2.0;" x1="138" x2="328.5" y1="940.6094" y2="940.6094"/><text fill="#000000" font-family="sans-serif" font-size="20" lengthAdjust="spacing" textLength="35" x="150" y="910.6113">List</text><text fill="#000000" font-family="sans-serif" font-size="20" lengthAdjust="spacing" textLength="6" x="185" y="910.6113"> </text><text fill="#000000" font-family="sans-serif" font-size="20" lengthAdjust="spacing" textLength="19" x="191" y="910.6113">of</text><text fill="#000000" font-family="sans-serif" font-size="20" lengthAdjust="spacing" textLength="6" x="210" y="910.6113"> </text><text fill="#000000" font-family="sans-serif" font-size="20" lengthAdjust="spacing" textLength="31" x="216" y="910.6113">job</text><text fill="#000000" font-family="sans-serif" font-size="20" lengthAdjust="spacing" textLength="92" x="150" y="933.8926">openings</text><path d="M10,955.6094 L93,955.6094 L93,970.8906 L83,980.8906 L10,980.8906 L10,955.6094 " fill="#EEEEEE" style="stroke:#000000;stroke-width:1.5;"/><rect fill="none" height="888.1563" style="stroke:#000000;stroke-width:1.5;" width="2158" x="10" y="955.6094"/><text fill="#000000" font-family="sans-serif" font-size="20" font-weight="bold" lengthAdjust="spacing" textLength="38" x="25" y="975.1738">opt</text><text fill="#000000" font-family="sans-serif" font-size="20" font-weight="bold" lengthAdjust="spacing" textLength="300" x="108" y="976.1738">[Optionally applies filters]</text><path d="M20,996.1719 L114,996.1719 L114,1011.4531 L104,1021.4531 L20,1021.4531 L20,996.1719 " fill="#EEEEEE" style="stroke:#000000;stroke-width:1.5;"/><rect fill="none" height="840.5938" style="stroke:#000000;stroke-width:1.5;" width="2138" x="20" y="996.1719"/><text fill="#000000" font-family="sans-serif" font-size="20" font-weight="bold" lengthAdjust="spacing" textLength="49" x="35" y="1015.7363">loop</text><text fill="#000000" font-family="sans-serif" font-size="20" font-weight="bold" lengthAdjust="spacing" textLength="372" x="129" y="1016.7363">[While there are filters to apply]</text><polygon fill="#181818" points="312.5,1101.5781,322.5,1105.5781,312.5,1109.5781,316.5,1105.5781" style="stroke:#181818;stroke-width:1.0;"/><line style="stroke:#181818;stroke-width:1.0;" x1="133" x2="318.5" y1="1105.5781" y2="1105.5781"/><text fill="#000000" font-family="sans-serif" font-size="20" lengthAdjust="spacing" textLength="46" x="140" y="1052.2988">Asks</text><text fill="#000000" font-family="sans-serif" font-size="20" lengthAdjust="spacing" textLength="6" x="186" y="1052.2988"> </text><text fill="#000000" font-family="sans-serif" font-size="20" lengthAdjust="spacing" textLength="20" x="192" y="1052.2988">to</text><text fill="#000000" font-family="sans-serif" font-size="20" lengthAdjust="spacing" textLength="6" x="212" y="1052.2988"> </text><text fill="#000000" font-family="sans-serif" font-size="20" lengthAdjust="spacing" textLength="47" x="218" y="1052.2988">filter</text><text fill="#000000" font-family="sans-serif" font-size="20" lengthAdjust="spacing" textLength="33" x="140" y="1075.5801">the</text><text fill="#000000" font-family="sans-serif" font-size="20" lengthAdjust="spacing" textLength="6" x="173" y="1075.5801"> </text><text fill="#000000" font-family="sans-serif" font-size="20" lengthAdjust="spacing" textLength="30" x="179" y="1075.5801">list</text><text fill="#000000" font-family="sans-serif" font-size="20" lengthAdjust="spacing" textLength="6" x="209" y="1075.5801"> </text><text fill="#000000" font-family="sans-serif" font-size="20" lengthAdjust="spacing" textLength="19" x="215" y="1075.5801">of</text><text fill="#000000" font-family="sans-serif" font-size="20" lengthAdjust="spacing" textLength="6" x="234" y="1075.5801"> </text><text fill="#000000" font-family="sans-serif" font-size="20" lengthAdjust="spacing" textLength="31" x="240" y="1075.5801">job</text><text fill="#000000" font-family="sans-serif" font-size="20" lengthAdjust="spacing" textLength="92" x="140" y="1098.8613">openings</text><polygon fill="#181818" points="617.5,1138.8594,627.5,1142.8594,617.5,1146.8594,621.5,1142.8594" style="stroke:#181818;stroke-width:1.0;"/><line style="stroke:#181818;stroke-width:1.0;stroke-dasharray:2.0,2.0;" x1="334.5" x2="623.5" y1="1142.8594" y2="1142.8594"/><text fill="#000000" font-family="sans-serif" font-size="20" lengthAdjust="spacing" textLength="244" x="341.5" y="1136.1426">applyFilter(filterCriteria)</text><polygon fill="#181818" points="922.5,1176.1406,932.5,1180.1406,922.5,1184.1406,926.5,1180.1406" style="stroke:#181818;stroke-width:1.0;"/><line style="stroke:#181818;stroke-width:1.0;" x1="639.5" x2="928.5" y1="1180.1406" y2="1180.1406"/><text fill="#000000" font-family="sans-serif" font-size="20" lengthAdjust="spacing" textLength="244" x="646.5" y="1173.4238">applyFilter(filterCriteria)</text><polygon fill="#181818" points="1226.5,1213.4219,1236.5,1217.4219,1226.5,1221.4219,1230.5,1217.4219" style="stroke:#181818;stroke-width:1.0;"/><line style="stroke:#181818;stroke-width:1.0;" x1="944.5" x2="1232.5" y1="1217.4219" y2="1217.4219"/><text fill="#000000" font-family="sans-serif" font-size="20" lengthAdjust="spacing" textLength="275" x="951.5" y="1210.7051">findByCriteria(filterCriteria)</text><polygon fill="#181818" points="1530.5,1250.7031,1540.5,1254.7031,1530.5,1258.7031,1534.5,1254.7031" style="stroke:#181818;stroke-width:1.0;"/><line style="stroke:#181818;stroke-width:1.0;" x1="1248.5" x2="1536.5" y1="1254.7031" y2="1254.7031"/><text fill="#000000" font-family="sans-serif" font-size="20" lengthAdjust="spacing" textLength="275" x="1255.5" y="1247.9863">findByCriteria(filterCriteria)</text><polygon fill="#181818" points="2081,1381.1094,2091,1385.1094,2081,1389.1094,2085,1385.1094" style="stroke:#181818;stroke-width:1.0;"/><line style="stroke:#181818;stroke-width:1.0;" x1="1552.5" x2="2087" y1="1385.1094" y2="1385.1094"/><text fill="#000000" font-family="sans-serif" font-size="20" lengthAdjust="spacing" textLength="217" x="1559.5" y="1285.2676">createQuery("SELECT</text><text fill="#000000" font-family="sans-serif" font-size="20" lengthAdjust="spacing" textLength="10" x="1559.5" y="1308.5488">*</text><text fill="#000000" font-family="sans-serif" font-size="20" lengthAdjust="spacing" textLength="6" x="1569.5" y="1308.5488"> </text><text fill="#000000" font-family="sans-serif" font-size="20" lengthAdjust="spacing" textLength="59" x="1575.5" y="1308.5488">FROM</text><text fill="#000000" font-family="sans-serif" font-size="20" lengthAdjust="spacing" textLength="117" x="1559.5" y="1331.8301">JobOpening</text><text fill="#000000" font-family="sans-serif" font-size="20" lengthAdjust="spacing" textLength="75" x="1559.5" y="1355.1113">WHERE</text><text fill="#000000" font-family="sans-serif" font-size="20" lengthAdjust="spacing" textLength="6" x="1634.5" y="1355.1113"> </text><text fill="#000000" font-family="sans-serif" font-size="20" lengthAdjust="spacing" textLength="34" x="1640.5" y="1355.1113">...",</text><text fill="#000000" font-family="sans-serif" font-size="20" lengthAdjust="spacing" textLength="180" x="1559.5" y="1378.3926">JobOpening.class)</text><polygon fill="#181818" points="1563.5,1418.3906,1553.5,1422.3906,1563.5,1426.3906,1559.5,1422.3906" style="stroke:#181818;stroke-width:1.0;"/><line style="stroke:#181818;stroke-width:1.0;stroke-dasharray:2.0,2.0;" x1="1557.5" x2="2097" y1="1422.3906" y2="1422.3906"/><text fill="#000000" font-family="sans-serif" font-size="20" lengthAdjust="spacing" textLength="228" x="1569.5" y="1415.6738">Iterable&lt;JobOpening&gt;</text><polygon fill="#181818" points="1259.5,1455.6719,1249.5,1459.6719,1259.5,1463.6719,1255.5,1459.6719" style="stroke:#181818;stroke-width:1.0;"/><line style="stroke:#181818;stroke-width:1.0;stroke-dasharray:2.0,2.0;" x1="1253.5" x2="1546.5" y1="1459.6719" y2="1459.6719"/><text fill="#000000" font-family="sans-serif" font-size="20" lengthAdjust="spacing" textLength="228" x="1265.5" y="1452.9551">Iterable&lt;JobOpening&gt;</text><polygon fill="#181818" points="955.5,1492.9531,945.5,1496.9531,955.5,1500.9531,951.5,1496.9531" style="stroke:#181818;stroke-width:1.0;"/><line style="stroke:#181818;stroke-width:1.0;stroke-dasharray:2.0,2.0;" x1="949.5" x2="1242.5" y1="1496.9531" y2="1496.9531"/><text fill="#000000" font-family="sans-serif" font-size="20" lengthAdjust="spacing" textLength="228" x="961.5" y="1490.2363">Iterable&lt;JobOpening&gt;</text><path d="M827.5,1511.9531 L921.5,1511.9531 L921.5,1527.2344 L911.5,1537.2344 L827.5,1537.2344 L827.5,1511.9531 " fill="#EEEEEE" style="stroke:#000000;stroke-width:1.5;"/><rect fill="none" height="182.6875" style="stroke:#000000;stroke-width:1.5;" width="1220.5" x="827.5" y="1511.9531"/><text fill="#000000" font-family="sans-serif" font-size="20" font-weight="bold" lengthAdjust="spacing" textLength="49" x="842.5" y="1531.5176">loop</text><text fill="#000000" font-family="sans-serif" font-size="20" font-weight="bold" lengthAdjust="spacing" textLength="252" x="936.5" y="1532.5176">[for each job opening]</text><polygon fill="#181818" points="1740,1570.7969,1750,1574.7969,1740,1578.7969,1744,1574.7969" style="stroke:#181818;stroke-width:1.0;"/><line style="stroke:#181818;stroke-width:1.0;" x1="944.5" x2="1746" y1="1574.7969" y2="1574.7969"/><text fill="#000000" font-family="sans-serif" font-size="20" lengthAdjust="spacing" textLength="79" x="951.5" y="1568.0801">toDTO()</text><polygon fill="#181818" points="1934,1608.0781,1944,1612.0781,1934,1616.0781,1938,1612.0781" style="stroke:#181818;stroke-width:1.0;"/><line style="stroke:#181818;stroke-width:1.0;stroke-dasharray:2.0,2.0;" x1="1762" x2="1940" y1="1612.0781" y2="1612.0781"/><text fill="#000000" font-family="sans-serif" font-size="20" lengthAdjust="spacing" textLength="63" x="1769" y="1605.3613">create</text><polygon fill="#181818" points="1773,1645.3594,1763,1649.3594,1773,1653.3594,1769,1649.3594" style="stroke:#181818;stroke-width:1.0;"/><line style="stroke:#181818;stroke-width:1.0;stroke-dasharray:2.0,2.0;" x1="1767" x2="1950" y1="1649.3594" y2="1649.3594"/><text fill="#000000" font-family="sans-serif" font-size="20" lengthAdjust="spacing" textLength="160" x="1779" y="1642.6426">JobOpeningDTO</text><polygon fill="#181818" points="955.5,1682.6406,945.5,1686.6406,955.5,1690.6406,951.5,1686.6406" style="stroke:#181818;stroke-width:1.0;"/><line style="stroke:#181818;stroke-width:1.0;stroke-dasharray:2.0,2.0;" x1="949.5" x2="1756" y1="1686.6406" y2="1686.6406"/><text fill="#000000" font-family="sans-serif" font-size="20" lengthAdjust="spacing" textLength="160" x="961.5" y="1679.9238">JobOpeningDTO</text><polygon fill="#181818" points="650.5,1726.9219,640.5,1730.9219,650.5,1734.9219,646.5,1730.9219" style="stroke:#181818;stroke-width:1.0;"/><line style="stroke:#181818;stroke-width:1.0;stroke-dasharray:2.0,2.0;" x1="644.5" x2="938.5" y1="1730.9219" y2="1730.9219"/><text fill="#000000" font-family="sans-serif" font-size="20" lengthAdjust="spacing" textLength="271" x="656.5" y="1724.2051">Iterable&lt;JobOpeningDTO&gt;</text><polygon fill="#181818" points="345.5,1764.2031,335.5,1768.2031,345.5,1772.2031,341.5,1768.2031" style="stroke:#181818;stroke-width:1.0;"/><line style="stroke:#181818;stroke-width:1.0;stroke-dasharray:2.0,2.0;" x1="339.5" x2="633.5" y1="1768.2031" y2="1768.2031"/><text fill="#000000" font-family="sans-serif" font-size="20" lengthAdjust="spacing" textLength="271" x="351.5" y="1761.4863">Iterable&lt;JobOpeningDTO&gt;</text><polygon fill="#181818" points="144,1824.7656,134,1828.7656,144,1832.7656,140,1828.7656" style="stroke:#181818;stroke-width:1.0;"/><line style="stroke:#181818;stroke-width:1.0;stroke-dasharray:2.0,2.0;" x1="138" x2="323.5" y1="1828.7656" y2="1828.7656"/><text fill="#000000" font-family="sans-serif" font-size="20" lengthAdjust="spacing" textLength="35" x="150" y="1798.7676">List</text><text fill="#000000" font-family="sans-serif" font-size="20" lengthAdjust="spacing" textLength="6" x="185" y="1798.7676"> </text><text fill="#000000" font-family="sans-serif" font-size="20" lengthAdjust="spacing" textLength="19" x="191" y="1798.7676">of</text><text fill="#000000" font-family="sans-serif" font-size="20" lengthAdjust="spacing" textLength="6" x="210" y="1798.7676"> </text><text fill="#000000" font-family="sans-serif" font-size="20" lengthAdjust="spacing" textLength="31" x="216" y="1798.7676">job</text><text fill="#000000" font-family="sans-serif" font-size="20" lengthAdjust="spacing" textLength="92" x="150" y="1822.0488">openings</text><!--SRC=[hLZTRzem47_FNt7YYKu3qKrxYQfAvQCQKwjkfQWlUp690Q_6pcnJZVtrSq8WJc8tSJfBLE3x-9rzvxkVAby8Iv10EygZ5nn3ZDTeJzKjPsf1_cBuD0e2HHJ5iC2_zvX56AO4RRG1362vk1oDFWU1F3a1IXXMXmG35shB3S4E_TbXAT46ozJjvPUH8PIvw-z8A1AH1345UnPZaReB0XGfBg0tsKl5TrZ0FMBQZ-W1aX3bc_bU42I6ZzuTaUeRNpqac16sMSupa-Myh5GeJFIf1QSqzrssBeGkymKMhoJ2cMrjrsNqY1CkYJxWeM9N22gc2N9RssKkx0gYIstwz53Hr3j1Z1HQ8OcXDys_PKhJSPOmyeeKhcUdiW63QvsE46xaYuIrJZBI5IGLy3NyuYlWHpHfUDJ90xsMSnXeMrU6Ga2K5WBPlyYipbwScOLykHJIW6kfTQ2L4Elr0CQgISiuHIP3M1CMtr1gO3XmZFH3PTcKCaHx-RX0oy2EqWFBSkYc8Kp78KG2Quy_zbWS-ht5x6usUO8FSFluS6z4tlje_1X654bvOGKxHwWh4nnhEixAoNd-kS82hIY-AiJNJcUCQp11DbiLmcBBzpG6pkW115PxmKg5_PFf9oF9XkdEgpYeBLBdDwDRvl7Hs31Yt7GiwmLV3GRlFAG1t3RZzUBEmlW_CRG9W7AUPDr5sstD-s-uEEjR37MYTFlhDnIRqLLTTLAe78lFxAwdH-0qjW2bJRa5LldoCwnsFgpNtWxKdlWsm5RGcYPcST2rGfojlXpikTTRIbG7NrIf5RlQzDtp9P-8Rw4O26yEidn8LcPkc1dLHgpXLC_OW2SA7X95EDEpxG0eIIZ1UaOJgWEJmVbPFM-9vePgYmK6f3-vGjhDKflYggsJ7_BHhxMFXgadEmMe5NxE14whWH5ef2oUsmocVqIR2AB_4kIOfOqieHDRy8Z4Wq5uCmauJlNnuGJT68a_p-Z8Dxg5rfcDj68bq9AMmFFNsUCCXiDXQuBYGrJQ4HRmP2pj64LNPk4RJGUAuKyrV8BovHl-dAF5ouMtYOSl-MWY8D38G3gma2Oc0g678sywqgP0u5raoAfTvIPTAigFeq0pIMbDL5gG5V3YH8r3rSvQm45RJZUSVYeKnlXP_J_4Fm00]--></g></svg>