<?xml version="1.0" encoding="UTF-8" standalone="no"?><svg xmlns="http://www.w3.org/2000/svg" xmlns:xlink="http://www.w3.org/1999/xlink" contentStyleType="text/css" height="5088px" preserveAspectRatio="none" style="width:1983px;height:5088px;background:#FFFFFF;" version="1.1" viewBox="0 0 1983 5088" width="1983px" zoomAndPan="magnify"><defs/><g><!--cluster System--><g id="cluster_System"><rect fill="none" height="1392" rx="2.5" ry="2.5" style="stroke:#181818;stroke-width:1.0;" width="1365" x="444.5" y="3690.2168"/><text fill="#000000" font-family="sans-serif" font-size="20" font-weight="bold" lengthAdjust="spacing" textLength="84" x="1085" y="3710.7813">System</text></g><!--cluster Backoffice--><g id="cluster_Backoffice"><rect fill="none" height="3239" rx="2.5" ry="2.5" style="stroke:#181818;stroke-width:1.0;" width="1700" x="277" y="427.2168"/><text fill="#000000" font-family="sans-serif" font-size="20" font-weight="bold" lengthAdjust="spacing" textLength="119" x="1067.5" y="447.7813">Backoffice</text></g><!--cluster Candidate App--><g id="cluster_Candidate App"><rect fill="none" height="112" rx="2.5" ry="2.5" style="stroke:#181818;stroke-width:1.0;" width="279" x="987.5" y="291.2168"/><text fill="#000000" font-family="sans-serif" font-size="20" font-weight="bold" lengthAdjust="spacing" textLength="166" x="1044" y="311.7813">Candidate App</text></g><!--cluster Applications File Bot--><g id="cluster_Applications File Bot"><rect fill="none" height="122" rx="2.5" ry="2.5" style="stroke:#181818;stroke-width:1.0;" width="325" x="964.5" y="145.2168"/><text fill="#000000" font-family="sans-serif" font-size="20" font-weight="bold" lengthAdjust="spacing" textLength="235" x="1009.5" y="165.7813">Applications File Bot</text></g><!--cluster Customer App--><g id="cluster_Customer App"><rect fill="none" height="114" rx="2.5" ry="2.5" style="stroke:#181818;stroke-width:1.0;" width="286" x="984" y="7.2168"/><text fill="#000000" font-family="sans-serif" font-size="20" font-weight="bold" lengthAdjust="spacing" textLength="160" x="1047" y="27.7813">Customer App</text></g><g id="elem_G001"><ellipse cx="1126.9949" cy="3797.4158" fill="#F1F1F1" rx="313.9949" ry="65.199" style="stroke:#181818;stroke-width:0.5;"/><text fill="#000000" font-family="sans-serif" font-size="20" lengthAdjust="spacing" textLength="599" x="827.4949" y="3802.3396">Follow the technical constraints and concerns of the project</text></g><g id="elem_G002"><ellipse cx="1126.8746" cy="3978.0917" fill="#F1F1F1" rx="392.3746" ry="80.8749" style="stroke:#181818;stroke-width:0.5;"/><text fill="#000000" font-family="sans-serif" font-size="20" lengthAdjust="spacing" textLength="758" x="747.8746" y="3983.0156">Use the defined project repository and setup a tool for project management</text></g><g id="elem_G003"><ellipse cx="1126.8343" cy="4131.9837" fill="#F1F1F1" rx="174.3343" ry="37.2669" style="stroke:#181818;stroke-width:0.5;"/><text fill="#000000" font-family="sans-serif" font-size="20" lengthAdjust="spacing" textLength="310" x="969.5075" y="4138.1948">Configure the project structure</text></g><g id="elem_G004"><ellipse cx="1127.0009" cy="4248.417" fill="#F1F1F1" rx="206.5009" ry="43.7002" style="stroke:#181818;stroke-width:0.5;"/><text fill="#000000" font-family="sans-serif" font-size="20" lengthAdjust="spacing" textLength="378" x="938.0009" y="4253.3408">Setup a continuous integration server</text></g><g id="elem_G005"><ellipse cx="1127.1214" cy="4372.2411" fill="#F1F1F1" rx="215.6214" ry="45.5243" style="stroke:#181818;stroke-width:0.5;"/><text fill="#000000" font-family="sans-serif" font-size="20" lengthAdjust="spacing" textLength="397" x="928.6214" y="4377.1649">Add the necessary scripts to the project</text></g><g id="elem_G006"><ellipse cx="1127.0428" cy="4496.2254" fill="#F1F1F1" rx="205.5428" ry="43.5086" style="stroke:#181818;stroke-width:0.5;"/><text fill="#000000" font-family="sans-serif" font-size="20" lengthAdjust="spacing" textLength="376" x="939.0428" y="4501.1492">Elaborate a Domain Model using DDD</text></g><g id="elem_G007"><ellipse cx="1126.8114" cy="4666.9791" fill="#F1F1F1" rx="449.3114" ry="92.2623" style="stroke:#181818;stroke-width:0.5;"/><text fill="#000000" font-family="sans-serif" font-size="20" lengthAdjust="spacing" textLength="873" x="690.3114" y="4671.9029">Support and apply authentication and authorization for all its users and functionalities.</text></g><g id="elem_2001"><ellipse cx="1127.0575" cy="4930.4283" fill="#F1F1F1" rx="666.5575" ry="135.7115" style="stroke:#181818;stroke-width:0.5;"/><text fill="#000000" font-family="sans-serif" font-size="20" lengthAdjust="spacing" textLength="1310" x="472.0575" y="4935.3521">Process the files produced by the Applications Email Bot, so that they can be imported into the system by initiative of the Operator</text></g><g id="elem_UC1"><ellipse cx="1127.193" cy="671.0554" fill="#F1F1F1" rx="202.193" ry="42.8386" style="stroke:#181818;stroke-width:0.5;"/><text fill="#000000" font-family="sans-serif" font-size="20" lengthAdjust="spacing" textLength="369" x="942.693" y="675.9792">Manage Customers and its Managers</text></g><g id="elem_UC2"><ellipse cx="1127.2282" cy="1230.4624" fill="#F1F1F1" rx="126.7282" ry="27.7456" style="stroke:#181818;stroke-width:0.5;"/><text fill="#000000" font-family="sans-serif" font-size="20" lengthAdjust="spacing" textLength="203" x="1022.7282" y="1236.9947">Register Application</text></g><g id="elem_UC3"><ellipse cx="1127.1246" cy="2142.2417" fill="#F1F1F1" rx="133.1246" ry="29.0249" style="stroke:#181818;stroke-width:0.5;"/><text fill="#000000" font-family="sans-serif" font-size="20" lengthAdjust="spacing" textLength="218" x="1015.1246" y="2148.7739">Manage Job Openings</text></g><g id="elem_US1000"><ellipse cx="1126.8623" cy="531.0893" fill="#F1F1F1" rx="294.8623" ry="61.3725" style="stroke:#181818;stroke-width:0.5;"/><text fill="#000000" font-family="sans-serif" font-size="20" lengthAdjust="spacing" textLength="560" x="846.8623" y="536.0131">Register, disable/enable, and list users of the backoffice</text></g><g id="elem_US1001"><ellipse cx="1126.7944" cy="2444.3757" fill="#F1F1F1" rx="451.2944" ry="92.6589" style="stroke:#181818;stroke-width:0.5;"/><text fill="#000000" font-family="sans-serif" font-size="20" lengthAdjust="spacing" textLength="877" x="688.2944" y="2449.2995">Register a customer and that the system automatically creates a user for that customer</text></g><g id="elem_US1002"><ellipse cx="1127.083" cy="2601.4334" fill="#F1F1F1" rx="136.583" ry="29.7166" style="stroke:#181818;stroke-width:0.5;"/><text fill="#000000" font-family="sans-serif" font-size="20" lengthAdjust="spacing" textLength="226" x="1011.083" y="2607.9656">Register a job opening</text></g><g id="elem_US1003"><ellipse cx="1127.1472" cy="2691.2462" fill="#F1F1F1" rx="113.1472" ry="25.0294" style="stroke:#181818;stroke-width:0.5;"/><text fill="#000000" font-family="sans-serif" font-size="20" lengthAdjust="spacing" textLength="170" x="1039.1472" y="2697.7785">List job openings</text></g><g id="elem_US2000a"><ellipse cx="1127.1027" cy="808.3373" fill="#F1F1F1" rx="283.6027" ry="59.1205" style="stroke:#181818;stroke-width:0.5;"/><text fill="#000000" font-family="sans-serif" font-size="20" lengthAdjust="spacing" textLength="537" x="858.6027" y="813.2612">Register a candidate and create a corresponding user</text></g><g id="elem_US2000c"><ellipse cx="1127.0891" cy="928.1346" fill="#F1F1F1" rx="117.5891" ry="25.9178" style="stroke:#181818;stroke-width:0.5;"/><text fill="#000000" font-family="sans-serif" font-size="20" lengthAdjust="spacing" textLength="181" x="1033.5891" y="934.6668">List all candidates</text></g><g id="elem_US2002"><ellipse cx="1126.9485" cy="1078.4065" fill="#F1F1F1" rx="433.9485" ry="89.1897" style="stroke:#181818;stroke-width:0.5;"/><text fill="#000000" font-family="sans-serif" font-size="20" lengthAdjust="spacing" textLength="842" x="705.9485" y="1083.3303">Register an application of a candidate for a job opening and import all files received</text></g><g id="elem_US1005"><ellipse cx="1127.193" cy="1708.0554" fill="#F1F1F1" rx="202.193" ry="42.8386" style="stroke:#181818;stroke-width:0.5;"/><text fill="#000000" font-family="sans-serif" font-size="20" lengthAdjust="spacing" textLength="369" x="942.693" y="1712.9792">List all applications for a job opening</text></g><g id="elem_US1006"><ellipse cx="1126.9704" cy="1835.3109" fill="#F1F1F1" rx="233.4704" ry="49.0941" style="stroke:#181818;stroke-width:0.5;"/><text fill="#000000" font-family="sans-serif" font-size="20" lengthAdjust="spacing" textLength="434" x="909.9704" y="1840.2347">Display all the personal data of a candidate</text></g><g id="elem_US1006b"><ellipse cx="1126.9605" cy="1998.1089" fill="#F1F1F1" rx="384.9605" ry="79.3921" style="stroke:#181818;stroke-width:0.5;"/><text fill="#000000" font-family="sans-serif" font-size="20" lengthAdjust="spacing" textLength="743" x="755.4605" y="2003.0327">Display all the personal data of a candidate, including his/her applications</text></g><g id="elem_US1007"><ellipse cx="1127.0832" cy="2261.3334" fill="#F1F1F1" rx="263.5832" ry="55.1166" style="stroke:#181818;stroke-width:0.5;"/><text fill="#000000" font-family="sans-serif" font-size="20" lengthAdjust="spacing" textLength="496" x="879.0832" y="2266.2573">Setup the phases of the process for a job opening</text></g><g id="elem_US1008"><ellipse cx="1126.99" cy="3534.3148" fill="#F1F1F1" rx="570.99" ry="116.598" style="stroke:#181818;stroke-width:0.5;"/><text fill="#000000" font-family="sans-serif" font-size="20" lengthAdjust="spacing" textLength="1118" x="567.99" y="3539.2386">Deploy and configure a plugin (i.e., Job Requirement Specification or Interview Model) to be used by the system</text></g><g id="elem_US1009"><ellipse cx="1126.9892" cy="2823.1146" fill="#F1F1F1" rx="344.9892" ry="71.3978" style="stroke:#181818;stroke-width:0.5;"/><text fill="#000000" font-family="sans-serif" font-size="20" lengthAdjust="spacing" textLength="662" x="795.9892" y="2828.0385">Select the requirements specification to be used for a job opening</text></g><g id="elem_US1011"><ellipse cx="1126.8931" cy="3033.3954" fill="#F1F1F1" rx="503.8931" ry="103.1786" style="stroke:#181818;stroke-width:0.5;"/><text fill="#000000" font-family="sans-serif" font-size="20" lengthAdjust="spacing" textLength="983" x="635.3931" y="3038.3192">Select the interview model to use for the interviews of a job opening (for their evaluation/grading)</text></g><g id="elem_US1012"><ellipse cx="1126.8201" cy="3277.0808" fill="#F1F1F1" rx="514.8201" ry="105.364" style="stroke:#181818;stroke-width:0.5;"/><text fill="#000000" font-family="sans-serif" font-size="20" lengthAdjust="spacing" textLength="1005" x="624.3201" y="3282.0047">Generate and export a template text file to help collect the candidate answers during the interviews</text></g><g id="elem_US2003"><ellipse cx="1127.0407" cy="1461.4249" fill="#F1F1F1" rx="834.0407" ry="169.2081" style="stroke:#181818;stroke-width:0.5;"/><text fill="#000000" font-family="sans-serif" font-size="20" lengthAdjust="spacing" textLength="1646" x="304.0407" y="1466.3488">Generate and export a template text file to help collect data fields for candidates of a job opening (so the data is used to verify the requirements of the job opening)</text></g><g id="elem_UC5"><ellipse cx="1126.8689" cy="360.2906" fill="#F1F1F1" rx="123.3689" ry="27.0738" style="stroke:#181818;stroke-width:0.5;"/><text fill="#000000" font-family="sans-serif" font-size="20" lengthAdjust="spacing" textLength="195" x="1026.3689" y="366.8228">Follow Applications</text></g><g id="elem_UC6"><ellipse cx="1127.1825" cy="219.4533" fill="#F1F1F1" rx="146.6825" ry="31.7365" style="stroke:#181818;stroke-width:0.5;"/><text fill="#000000" font-family="sans-serif" font-size="20" lengthAdjust="spacing" textLength="249" x="999.6825" y="225.9855">Import Applications Files</text></g><g id="elem_UC7"><ellipse cx="1127.1508" cy="77.047" fill="#F1F1F1" rx="127.1508" ry="27.8302" style="stroke:#181818;stroke-width:0.5;"/><text fill="#000000" font-family="sans-serif" font-size="20" lengthAdjust="spacing" textLength="204" x="1022.1508" y="83.5792">Follow Job Openings</text></g><!--entity PM--><g id="elem_PM"><ellipse cx="119.5" cy="4277.2168" fill="#FFFFFF" rx="8" ry="8" style="stroke:#000000;stroke-width:2.0;"/><path d="M119.5,4285.2168 L119.5,4312.2168 M106.5,4293.2168 L132.5,4293.2168 M119.5,4312.2168 L106.5,4327.2168 M119.5,4312.2168 L132.5,4327.2168 " fill="none" style="stroke:#000000;stroke-width:2.0;"/><text fill="#000000" font-family="sans-serif" font-size="20" lengthAdjust="spacing" textLength="162" x="38.5" y="4348.7813">Project Manager</text></g><!--entity AD--><g id="elem_AD"><ellipse cx="119.5" cy="568.2168" fill="#FFFFFF" rx="8" ry="8" style="stroke:#FF0000;stroke-width:2.0;"/><path d="M119.5,576.2168 L119.5,603.2168 M106.5,584.2168 L132.5,584.2168 M119.5,603.2168 L106.5,618.2168 M119.5,603.2168 L132.5,618.2168 " fill="none" style="stroke:#FF0000;stroke-width:2.0;"/><text fill="#000000" font-family="sans-serif" font-size="20" lengthAdjust="spacing" textLength="66" x="86.5" y="639.7813">Admin</text></g><!--entity OP--><g id="elem_OP"><ellipse cx="119.5" cy="1045.2168" fill="#FFFFFF" rx="8" ry="8" style="stroke:#0000FF;stroke-width:2.0;"/><path d="M119.5,1053.2168 L119.5,1080.2168 M106.5,1061.2168 L132.5,1061.2168 M119.5,1080.2168 L106.5,1095.2168 M119.5,1080.2168 L132.5,1095.2168 " fill="none" style="stroke:#0000FF;stroke-width:2.0;"/><text fill="#000000" font-family="sans-serif" font-size="20" lengthAdjust="spacing" textLength="89" x="75" y="1116.7813">Operator</text></g><!--entity CM--><g id="elem_CM"><ellipse cx="119.5" cy="2411.2168" fill="#FFFFFF" rx="8" ry="8" style="stroke:#008000;stroke-width:2.0;"/><path d="M119.5,2419.2168 L119.5,2446.2168 M106.5,2427.2168 L132.5,2427.2168 M119.5,2446.2168 L106.5,2461.2168 M119.5,2446.2168 L132.5,2461.2168 " fill="none" style="stroke:#008000;stroke-width:2.0;"/><text fill="#000000" font-family="sans-serif" font-size="20" lengthAdjust="spacing" textLength="190" x="24.5" y="2482.7813">Customer Manager</text></g><!--entity LE--><g id="elem_LE"><ellipse cx="119.5" cy="3501.2168" fill="#FFFFFF" rx="8" ry="8" style="stroke:#800080;stroke-width:2.0;"/><path d="M119.5,3509.2168 L119.5,3536.2168 M106.5,3517.2168 L132.5,3517.2168 M119.5,3536.2168 L106.5,3551.2168 M119.5,3536.2168 L132.5,3551.2168 " fill="none" style="stroke:#800080;stroke-width:2.0;"/><text fill="#000000" font-family="sans-serif" font-size="20" lengthAdjust="spacing" textLength="195" x="22" y="3572.7813">Language Engineer</text></g><!--entity CA--><g id="elem_CA"><ellipse cx="119.5" cy="327.2168" fill="#FFFFFF" rx="8" ry="8" style="stroke:#FFA500;stroke-width:2.0;"/><path d="M119.5,335.2168 L119.5,362.2168 M106.5,343.2168 L132.5,343.2168 M119.5,362.2168 L106.5,377.2168 M119.5,362.2168 L132.5,377.2168 " fill="none" style="stroke:#FFA500;stroke-width:2.0;"/><text fill="#000000" font-family="sans-serif" font-size="20" lengthAdjust="spacing" textLength="103" x="68" y="398.7813">Candidate</text></g><!--entity EB--><g id="elem_EB"><ellipse cx="119.5" cy="186.2168" fill="#FFFFFF" rx="8" ry="8" style="stroke:#A52A2A;stroke-width:2.0;"/><path d="M119.5,194.2168 L119.5,221.2168 M106.5,202.2168 L132.5,202.2168 M119.5,221.2168 L106.5,236.2168 M119.5,221.2168 L132.5,236.2168 " fill="none" style="stroke:#A52A2A;stroke-width:2.0;"/><text fill="#000000" font-family="sans-serif" font-size="20" lengthAdjust="spacing" textLength="227" x="6" y="257.7813">Applications Email Bot</text></g><!--entity CU--><g id="elem_CU"><ellipse cx="119.5" cy="44.2168" fill="#FFFFFF" rx="8" ry="8" style="stroke:#9ACD32;stroke-width:2.0;"/><path d="M119.5,52.2168 L119.5,79.2168 M106.5,60.2168 L132.5,60.2168 M119.5,79.2168 L106.5,94.2168 M119.5,79.2168 L132.5,94.2168 " fill="none" style="stroke:#9ACD32;stroke-width:2.0;"/><text fill="#000000" font-family="sans-serif" font-size="20" lengthAdjust="spacing" textLength="97" x="71" y="115.7813">Customer</text></g><!--link PM to G001--><g id="link_PM_G001"><path d="M121.02,4267.1268 C124.66,4178.3968 146.68,3975.5668 269,3879.2168 C440.14,3744.4068 694.23,3736.5268 881.32,3754.7468 " fill="none" id="PM-to-G001" style="stroke:#181818;stroke-width:1.0;"/><polygon fill="#181818" points="886.56,3755.2668,877.9916,3750.4106,881.5837,3754.7806,877.2137,3758.3727,886.56,3755.2668" style="stroke:#181818;stroke-width:1.0;"/></g><!--link PM to G002--><g id="link_PM_G002"><path d="M134.85,4266.9768 C155.32,4212.6968 198.45,4121.3668 269,4077.2168 C410.38,3988.7368 590.91,3958.5068 749.78,3952.5768 " fill="none" id="PM-to-G002" style="stroke:#181818;stroke-width:1.0;"/><polygon fill="#181818" points="754.95,3952.3968,745.8077,3948.7336,749.9534,3952.5824,746.1047,3956.7281,754.95,3952.3968" style="stroke:#181818;stroke-width:1.0;"/></g><!--link PM to G003--><g id="link_PM_G003"><path d="M158.4,4267.0768 C185.98,4238.9268 225.91,4204.3268 269,4187.2168 C499.01,4095.9068 791.04,4099.8768 967.96,4113.9668 " fill="none" id="PM-to-G003" style="stroke:#181818;stroke-width:1.0;"/><polygon fill="#181818" points="973.16,4114.3868,964.5087,4109.6799,968.176,4113.9869,963.8689,4117.6542,973.16,4114.3868" style="stroke:#181818;stroke-width:1.0;"/></g><!--link PM to G004--><g id="link_PM_G004"><path d="M200.66,4305.2768 C355.77,4295.7068 701.19,4274.4068 923.34,4260.7168 " fill="none" id="PM-to-G004" style="stroke:#181818;stroke-width:1.0;"/><polygon fill="#181818" points="928.56,4260.3868,919.336,4256.9346,923.569,4260.6871,919.8165,4264.9201,928.56,4260.3868" style="stroke:#181818;stroke-width:1.0;"/></g><!--link PM to G005--><g id="link_PM_G005"><path d="M200.66,4315.1568 C353.75,4324.5968 692.23,4345.4668 914.6,4359.1768 " fill="none" id="PM-to-G005" style="stroke:#181818;stroke-width:1.0;"/><polygon fill="#181818" points="919.83,4359.5068,911.0987,4354.9501,914.8398,4359.1931,910.5968,4362.9343,919.83,4359.5068" style="stroke:#181818;stroke-width:1.0;"/></g><!--link PM to G006--><g id="link_PM_G006"><path d="M157.71,4353.3368 C185.26,4382.0168 225.44,4417.5468 269,4435.2168 C485.54,4523.0568 757.98,4526.2368 936.82,4515.4668 " fill="none" id="PM-to-G006" style="stroke:#181818;stroke-width:1.0;"/><polygon fill="#181818" points="941.82,4515.1668,932.5862,4511.7409,936.8299,4515.4814,933.0895,4519.7251,941.82,4515.1668" style="stroke:#181818;stroke-width:1.0;"/></g><!--link PM to G007--><g id="link_PM_G007"><path d="M133.34,4353.3968 C152.73,4410.3768 195.27,4509.0668 269,4557.2168 C389.32,4635.7968 539.6,4670.9768 680.57,4684.2168 " fill="none" id="PM-to-G007" style="stroke:#181818;stroke-width:1.0;"/><polygon fill="#181818" points="685.59,4684.6868,676.9928,4679.8817,680.6109,4684.2303,676.2624,4687.8483,685.59,4684.6868" style="stroke:#181818;stroke-width:1.0;"/></g><!--link PM to 2001--><g id="link_PM_2001"><path d="M120.39,4353.4668 C122.67,4446.4268 142.01,4665.8868 269,4777.2168 C329.19,4829.9868 401.15,4867.4668 477.45,4893.7368 " fill="none" id="PM-to-2001" style="stroke:#181818;stroke-width:1.0;"/><polygon fill="#181818" points="482.48,4895.4468,475.255,4888.7536,477.7481,4893.8314,472.6703,4896.3245,482.48,4895.4468" style="stroke:#181818;stroke-width:1.0;"/></g><!--link AD to UC1--><g id="link_AD_UC1"><path d="M152.53,603.4468 C269.64,611.5968 680.67,640.2168 929.65,657.5468 " fill="none" id="AD-to-UC1" style="stroke:#181818;stroke-width:1.0;"/><polygon fill="#181818" points="934.77,657.9068,926.0647,653.3005,929.7817,657.5647,925.5174,661.2817,934.77,657.9068" style="stroke:#181818;stroke-width:1.0;"/></g><!--link AD to US1000--><g id="link_AD_US1000"><path d="M152.53,598.9868 C256.71,591.7368 593.47,568.2868 841.84,550.9968 " fill="none" id="AD-to-US1000" style="stroke:#181818;stroke-width:1.0;"/><polygon fill="#181818" points="846.96,550.6468,837.7068,547.2737,841.9718,550.9898,838.2556,555.2548,846.96,550.6468" style="stroke:#181818;stroke-width:1.0;"/></g><!--link LE to US1008--><g id="link_LE_US1008"><path d="M217.37,3534.2168 C298.38,3534.2168 421.21,3534.2168 550.59,3534.2168 " fill="none" id="LE-to-US1008" style="stroke:#181818;stroke-width:1.0;"/><polygon fill="#181818" points="555.98,3534.2168,546.98,3530.2168,550.98,3534.2168,546.98,3538.2168,555.98,3534.2168" style="stroke:#181818;stroke-width:1.0;"/></g><!--link OP to UC2--><g id="link_OP_UC2"><path d="M164.13,1119.5468 C191.87,1143.0668 229.84,1170.5068 269,1184.2168 C521.85,1272.7468 842.26,1259.6068 1010.61,1243.9468 " fill="none" id="OP-to-UC2" style="stroke:#181818;stroke-width:1.0;"/><polygon fill="#181818" points="1016.04,1243.4368,1006.7026,1240.3043,1011.0623,1243.9088,1007.4578,1248.2686,1016.04,1243.4368" style="stroke:#181818;stroke-width:1.0;"/></g><!--link OP to US2000a--><g id="link_OP_US2000a"><path d="M140.21,1034.8868 C163.72,988.7868 207.68,917.9468 269,884.2168 C453.6,782.6568 694.95,769.9468 874.47,778.9968 " fill="none" id="OP-to-US2000a" style="stroke:#181818;stroke-width:1.0;"/><polygon fill="#181818" points="879.5,779.2568,870.718,774.7985,874.5066,778.9993,870.3059,782.7879,879.5,779.2568" style="stroke:#181818;stroke-width:1.0;"/></g><!--link OP to US2000c--><g id="link_OP_US2000c"><path d="M164.04,1036.4468 C191.75,1012.6868 229.72,984.9868 269,971.2168 C526.28,880.9968 853.69,897.7968 1019.48,914.7068 " fill="none" id="OP-to-US2000c" style="stroke:#181818;stroke-width:1.0;"/><polygon fill="#181818" points="1024.82,915.2568,1016.2655,910.3762,1019.8451,914.7564,1015.4649,918.3361,1024.82,915.2568" style="stroke:#181818;stroke-width:1.0;"/></g><!--link OP to US2002--><g id="link_OP_US2002"><path d="M164.03,1078.2168 C256.13,1078.2168 479.39,1078.2168 687.66,1078.2168 " fill="none" id="OP-to-US2002" style="stroke:#181818;stroke-width:1.0;"/><polygon fill="#181818" points="692.89,1078.2168,683.89,1074.2168,687.89,1078.2168,683.89,1082.2168,692.89,1078.2168" style="stroke:#181818;stroke-width:1.0;"/></g><!--link OP to US2003--><g id="link_OP_US2003"><path d="M141.33,1121.5868 C165.53,1167.1568 209.84,1237.3568 269,1275.2168 C322.98,1309.7568 382.37,1337.9768 443.94,1360.9968 " fill="none" id="OP-to-US2003" style="stroke:#181818;stroke-width:1.0;"/><polygon fill="#181818" points="448.76,1362.7868,441.7191,1355.9002,444.0737,1361.0437,438.9301,1363.3983,448.76,1362.7868" style="stroke:#181818;stroke-width:1.0;"/></g><!--link CM to UC3--><g id="link_CM_UC3"><path d="M131.58,2401.2068 C149.44,2341.6768 190.78,2236.1068 269,2188.2168 C386.83,2116.0768 783.67,2124.3168 993.45,2134.3368 " fill="none" id="CM-to-UC3" style="stroke:#181818;stroke-width:1.0;"/><polygon fill="#181818" points="998.68,2134.5868,989.8847,2130.1549,993.6859,2134.3442,989.4965,2138.1455,998.68,2134.5868" style="stroke:#181818;stroke-width:1.0;"/></g><!--link CM to US1001--><g id="link_CM_US1001"><path d="M214.64,2444.2168 C320.15,2444.2168 498.97,2444.2168 670.41,2444.2168 " fill="none" id="CM-to-US1001" style="stroke:#181818;stroke-width:1.0;"/><polygon fill="#181818" points="675.48,2444.2168,666.48,2440.2168,670.48,2444.2168,666.48,2448.2168,675.48,2444.2168" style="stroke:#181818;stroke-width:1.0;"/></g><!--link CM to US1002--><g id="link_CM_US1002"><path d="M164.18,2487.3668 C191.79,2511.7068 229.61,2540.0068 269,2554.2168 C517.28,2643.7668 832.26,2631.8968 1002.78,2616.0868 " fill="none" id="CM-to-US1002" style="stroke:#181818;stroke-width:1.0;"/><polygon fill="#181818" points="1007.79,2615.6168,998.4534,2612.4818,1002.8122,2616.0875,999.2065,2620.4463,1007.79,2615.6168" style="stroke:#181818;stroke-width:1.0;"/></g><!--link CM to US1003--><g id="link_CM_US1003"><path d="M138.13,2487.5468 C160.54,2536.2868 204.27,2613.2068 269,2648.2168 C394.07,2715.8668 809.17,2706.5368 1012.2,2697.4168 " fill="none" id="CM-to-US1003" style="stroke:#181818;stroke-width:1.0;"/><polygon fill="#181818" points="1017.25,2697.1868,1008.0763,2693.6032,1012.2552,2697.4158,1008.4426,2701.5948,1017.25,2697.1868" style="stroke:#181818;stroke-width:1.0;"/></g><!--link CM to US1005--><g id="link_CM_US1005"><path d="M123.43,2400.9668 C133.57,2265.2568 172.02,1851.9468 269,1768.2168 C364.21,1686.0168 705.99,1686.0868 928.1,1695.7068 " fill="none" id="CM-to-US1005" style="stroke:#181818;stroke-width:1.0;"/><polygon fill="#181818" points="933.32,1695.9268,924.5001,1691.544,928.3246,1695.7121,924.1565,1699.5366,933.32,1695.9268" style="stroke:#181818;stroke-width:1.0;"/></g><!--link CM to US1006--><g id="link_CM_US1006"><path d="M125.94,2400.9368 C141.58,2283.9568 190.63,1965.9468 269,1901.2168 C464.3,1739.9068 777.39,1763.4968 966.2,1797.7068 " fill="none" id="CM-to-US1006" style="stroke:#181818;stroke-width:1.0;"/><polygon fill="#181818" points="971.2,1798.6168,963.065,1793.0651,966.2813,1797.7186,961.6279,1800.935,971.2,1798.6168" style="stroke:#181818;stroke-width:1.0;"/></g><!--link CM to US1006b--><g id="link_CM_US1006b"><path d="M125.06,2401.1968 C135.57,2325.6068 168.83,2169.8968 269,2095.2168 C414.18,1986.9868 613.44,1959.3668 783.28,1960.3468 " fill="none" id="CM-to-US1006b" style="stroke:#181818;stroke-width:1.0;"/><polygon fill="#181818" points="788.3,1960.3868,779.323,1956.3354,783.3001,1960.3582,779.2773,1964.3353,788.3,1960.3868" style="stroke:#181818;stroke-width:1.0;"/></g><!--link CM to US1007--><g id="link_CM_US1007"><path d="M164.97,2400.9368 C192.59,2376.8768 230.13,2348.9068 269,2334.2168 C460.57,2261.8268 692.85,2246.0568 867.23,2247.0068 " fill="none" id="CM-to-US1007" style="stroke:#181818;stroke-width:1.0;"/><polygon fill="#181818" points="872.38,2247.0368,863.403,2242.9854,867.3801,2247.0082,863.3573,2250.9853,872.38,2247.0368" style="stroke:#181818;stroke-width:1.0;"/></g><!--link CM to US1009--><g id="link_CM_US1009"><path d="M129.12,2487.3568 C144.65,2552.6068 183.94,2674.9768 269,2733.2168 C429.13,2842.8568 647.02,2864.4868 823.03,2859.1568 " fill="none" id="CM-to-US1009" style="stroke:#181818;stroke-width:1.0;"/><polygon fill="#181818" points="828.22,2858.9968,819.0985,2855.2823,823.2225,2859.1543,819.3505,2863.2783,828.22,2858.9968" style="stroke:#181818;stroke-width:1.0;"/></g><!--link CM to US1011--><g id="link_CM_US1011"><path d="M120.05,2487.5568 C121.63,2581.2068 139.63,2802.8268 269,2912.2168 C369.04,2996.8068 500.35,3037.8168 630.03,3055.1068 " fill="none" id="CM-to-US1011" style="stroke:#181818;stroke-width:1.0;"/><polygon fill="#181818" points="635.03,3055.7668,626.6318,3050.6219,630.0731,3055.1116,625.5834,3058.5529,635.03,3055.7668" style="stroke:#181818;stroke-width:1.0;"/></g><!--link CM to US1012--><g id="link_CM_US1012"><path d="M123.22,2487.2768 C132.96,2626.5368 170.79,3060.9868 269,3153.2168 C364.55,3242.9468 494.43,3285.9368 624.16,3303.6268 " fill="none" id="CM-to-US1012" style="stroke:#181818;stroke-width:1.0;"/><polygon fill="#181818" points="629.17,3304.2968,620.7737,3299.1488,624.2134,3303.6397,619.7224,3307.0794,629.17,3304.2968" style="stroke:#181818;stroke-width:1.0;"/></g><!--link CA to UC5--><g id="link_CA_UC5"><path d="M171.05,360.2168 C322.29,360.2168 774.54,360.2168 998.06,360.2168 " fill="none" id="CA-to-UC5" style="stroke:#181818;stroke-width:1.0;"/><polygon fill="#181818" points="1003.3,360.2168,994.3,356.2168,998.3,360.2168,994.3,364.2168,1003.3,360.2168" style="stroke:#181818;stroke-width:1.0;"/></g><!--link EB to UC6--><g id="link_EB_UC6"><path d="M233.4,219.2168 C415.04,219.2168 772.27,219.2168 975.4,219.2168 " fill="none" id="EB-to-UC6" style="stroke:#181818;stroke-width:1.0;"/><polygon fill="#181818" points="980.47,219.2168,971.47,215.2168,975.47,219.2168,971.47,223.2168,980.47,219.2168" style="stroke:#181818;stroke-width:1.0;"/></g><!--link CU to UC7--><g id="link_CU_UC7"><path d="M168.32,77.2168 C315.95,77.2168 768.18,77.2168 994.35,77.2168 " fill="none" id="CU-to-UC7" style="stroke:#181818;stroke-width:1.0;"/><polygon fill="#181818" points="999.65,77.2168,990.65,73.2168,994.65,77.2168,990.65,81.2168,999.65,77.2168" style="stroke:#181818;stroke-width:1.0;"/></g><!--SRC=[hLPjJniv4Fw-lyAYNuf48IHDQA_III61gYTGKH4_mF7E9YvUUy_s0kdf_lkDxNsnboH8rVK3jJVZcMVUdXdpo6L5DIs5Oe-GanmAMWjxhQIzvx-0Z4TP9g2mn2gY-NfZISurCCkLp3BAhDBaw4whd_Y9t599rw2F23NaxfQyUzvm2ry4b_37Ib3sw8-dAoNoBnPURFYOPKuTbMi1v7vhB9JadupWlze0emR8qRKIGZqJkm5YWMqaPrGGfgIncd9f3Q4oTtS6MXgY2YzP1KmUozVHw3nL-O1_d1HwYv3oLffeg9JXwDJMApLWwufGz5q9Kg2hhLpfFIr1TWR6gO65aWLVrnfYC0GHrypYr_RL97rrtzX3PooNjQeDGGTXhQcBDyBHJqruyUt7zEqypxqj2GoCeUY1OPfN61xCt8w8JDFdLuAk5De1DBzK9GQMtAeS14fmkIRBvR9zE1jWhgjAQUlZHQjAOEHgD8SEi83Q_u2VbEQ_mXSNIIe4uGWEzUYGmQAMlgoeu9Q3EMtjNQJsiDYSWzwbWWimph6yPfZ5rTP_dIEAnhWXL-YA89VAdX3Zua2jazaIHYLP0U6b0uzlCSuXJ2RK8EhY4e6WcYTeY-fx1HWY5L8mTbNrRvPXfN_uy6SeiluyZiwJwFmnEa-ZyomwNxHdRwBjidbUSkajpvT9Rsd8TtTMyp11_Vrkq9Sr77oyg8rL9UYakHTfSwyrW3oevGRxkyRdv4gkKQnHStELgAbgNGbuaoGkyQwAWZCO4aM0I5h8eQnSaJNOZRVwi1YGmGzOSyovZWkdaHplDF2NMhbIaDWOhSh9RfKdo9Q6hWISWNJ_dNX80dzh2hyfh5NdKz1tVpuQZVQWH7feS-AKjINT5Yws6hQlwpw1lSWqO4zZ9Bmzttd-GQkYDtU-rznFT5S5TtlnGMHkd4kHeEab9_lzGFmyzvpZ6Dn3zUodDPXAuO_8F0vtempROKHts7LSqkaoaJ3RPrfwgceP2fCGW_7q53iJwgWCD8Us0krWHG9oGzxR6-_1HcD2UgMzZzI0afVSL89klGfFu5WmZXu9egG3qBsIsUyhEK7AOwBsOTzmSxPneOgmHqPMkmQNrx_13_4KzcHzmEa1lI-X4chRZlHcXb9IYHg9Wxpdft1wuXlm1_nTuoRYPZ2vhu3neakd9jzmQked3izXY1sx6OXiZrQwAH7QfSVnQUYHS1FRIUhUaY4cCHMfFU3YvxsgUOUpzCCMzQ5OqwRHpoPaAgx9zuqGrmIUgAWze3DS5LpwZZlZvuE-_WeITDjoy19g6lUg4gl4kWNhnVhwTb0s82hCWkZWnWrhdXr_vRLsO5AmlV7n_sJS5sl1GUIXblfktn4O4mQvVyDDo0ugnDM95zlN6MrADL9ntBVqn4rudBTk6hl1qHu3GUC0wswVCXojGMpS7HlAIguikQQoasnnsoZfZu6TuziukQMIq-GsIs-hv7gHt3x7j_F48EQnsmSInbdCamcE2wHSlpt1UoLkv1xjsVVdhvXdCNNPG9iXGjD-DTgvyVb7LvVflgFLitmROABmsbMarpS0-YsCX5V2BToPWui00jnPDjofGWWV4e1RSCuVsAYIEBQBm84mxbXMBdmO7nfS5zb_]--></g></svg>