<?xml version="1.0" encoding="UTF-8" standalone="no"?><svg xmlns="http://www.w3.org/2000/svg" xmlns:xlink="http://www.w3.org/1999/xlink" contentStyleType="text/css" height="5195px" preserveAspectRatio="none" style="width:1983px;height:5195px;background:#FFFFFF;" version="1.1" viewBox="0 0 1983 5195" width="1983px" zoomAndPan="magnify"><defs/><g><!--cluster System--><g id="cluster_System"><rect fill="none" height="1392" rx="2.5" ry="2.5" style="stroke:#181818;stroke-width:1.0;" width="1365" x="444.5" y="3797.2168"/><text fill="#000000" font-family="sans-serif" font-size="20" font-weight="bold" lengthAdjust="spacing" textLength="84" x="1085" y="3817.7813">System</text></g><!--cluster Backoffice--><g id="cluster_Backoffice"><rect fill="none" height="3346" rx="2.5" ry="2.5" style="stroke:#181818;stroke-width:1.0;" width="1700" x="277" y="427.2168"/><text fill="#000000" font-family="sans-serif" font-size="20" font-weight="bold" lengthAdjust="spacing" textLength="119" x="1067.5" y="447.7813">Backoffice</text></g><!--cluster Candidate App--><g id="cluster_Candidate App"><rect fill="none" height="112" rx="2.5" ry="2.5" style="stroke:#181818;stroke-width:1.0;" width="279" x="987.5" y="291.2168"/><text fill="#000000" font-family="sans-serif" font-size="20" font-weight="bold" lengthAdjust="spacing" textLength="166" x="1044" y="311.7813">Candidate App</text></g><!--cluster Applications File Bot--><g id="cluster_Applications File Bot"><rect fill="none" height="122" rx="2.5" ry="2.5" style="stroke:#181818;stroke-width:1.0;" width="325" x="964.5" y="145.2168"/><text fill="#000000" font-family="sans-serif" font-size="20" font-weight="bold" lengthAdjust="spacing" textLength="235" x="1009.5" y="165.7813">Applications File Bot</text></g><!--cluster Customer App--><g id="cluster_Customer App"><rect fill="none" height="114" rx="2.5" ry="2.5" style="stroke:#181818;stroke-width:1.0;" width="286" x="984" y="7.2168"/><text fill="#000000" font-family="sans-serif" font-size="20" font-weight="bold" lengthAdjust="spacing" textLength="160" x="1047" y="27.7813">Customer App</text></g><g id="elem_G001"><ellipse cx="1126.9949" cy="3904.4158" fill="#F1F1F1" rx="313.9949" ry="65.199" style="stroke:#181818;stroke-width:0.5;"/><text fill="#000000" font-family="sans-serif" font-size="20" lengthAdjust="spacing" textLength="599" x="827.4949" y="3909.3396">Follow the technical constraints and concerns of the project</text></g><g id="elem_G002"><ellipse cx="1126.8746" cy="4085.0917" fill="#F1F1F1" rx="392.3746" ry="80.8749" style="stroke:#181818;stroke-width:0.5;"/><text fill="#000000" font-family="sans-serif" font-size="20" lengthAdjust="spacing" textLength="758" x="747.8746" y="4090.0156">Use the defined project repository and setup a tool for project management</text></g><g id="elem_G003"><ellipse cx="1126.8343" cy="4238.9837" fill="#F1F1F1" rx="174.3343" ry="37.2669" style="stroke:#181818;stroke-width:0.5;"/><text fill="#000000" font-family="sans-serif" font-size="20" lengthAdjust="spacing" textLength="310" x="969.5075" y="4245.1948">Configure the project structure</text></g><g id="elem_G004"><ellipse cx="1127.0009" cy="4355.417" fill="#F1F1F1" rx="206.5009" ry="43.7002" style="stroke:#181818;stroke-width:0.5;"/><text fill="#000000" font-family="sans-serif" font-size="20" lengthAdjust="spacing" textLength="378" x="938.0009" y="4360.3408">Setup a continuous integration server</text></g><g id="elem_G005"><ellipse cx="1127.1214" cy="4479.2411" fill="#F1F1F1" rx="215.6214" ry="45.5243" style="stroke:#181818;stroke-width:0.5;"/><text fill="#000000" font-family="sans-serif" font-size="20" lengthAdjust="spacing" textLength="397" x="928.6214" y="4484.1649">Add the necessary scripts to the project</text></g><g id="elem_G006"><ellipse cx="1127.0428" cy="4603.2254" fill="#F1F1F1" rx="205.5428" ry="43.5086" style="stroke:#181818;stroke-width:0.5;"/><text fill="#000000" font-family="sans-serif" font-size="20" lengthAdjust="spacing" textLength="376" x="939.0428" y="4608.1492">Elaborate a Domain Model using DDD</text></g><g id="elem_G007"><ellipse cx="1126.8114" cy="4773.9791" fill="#F1F1F1" rx="449.3114" ry="92.2623" style="stroke:#181818;stroke-width:0.5;"/><text fill="#000000" font-family="sans-serif" font-size="20" lengthAdjust="spacing" textLength="873" x="690.3114" y="4778.9029">Support and apply authentication and authorization for all its users and functionalities.</text></g><g id="elem_2001"><ellipse cx="1127.0575" cy="5037.4283" fill="#F1F1F1" rx="666.5575" ry="135.7115" style="stroke:#181818;stroke-width:0.5;"/><text fill="#000000" font-family="sans-serif" font-size="20" lengthAdjust="spacing" textLength="1310" x="472.0575" y="5042.3521">Process the files produced by the Applications Email Bot, so that they can be imported into the system by initiative of the Operator</text></g><g id="elem_UC1"><ellipse cx="1127.193" cy="512.0554" fill="#F1F1F1" rx="202.193" ry="42.8386" style="stroke:#181818;stroke-width:0.5;"/><text fill="#000000" font-family="sans-serif" font-size="20" lengthAdjust="spacing" textLength="369" x="942.693" y="516.9792">Manage Customers and its Managers</text></g><g id="elem_UC2"><ellipse cx="1126.826" cy="3722.282" fill="#F1F1F1" rx="163.326" ry="35.0652" style="stroke:#181818;stroke-width:0.5;"/><text fill="#000000" font-family="sans-serif" font-size="20" lengthAdjust="spacing" textLength="286" x="980.826" y="3728.8142">Deploy and Configure Plugin</text></g><g id="elem_UC3"><ellipse cx="1127.2282" cy="1603.4624" fill="#F1F1F1" rx="126.7282" ry="27.7456" style="stroke:#181818;stroke-width:0.5;"/><text fill="#000000" font-family="sans-serif" font-size="20" lengthAdjust="spacing" textLength="203" x="1022.7282" y="1609.9947">Register Application</text></g><g id="elem_UC4"><ellipse cx="1127.1246" cy="2389.2417" fill="#F1F1F1" rx="133.1246" ry="29.0249" style="stroke:#181818;stroke-width:0.5;"/><text fill="#000000" font-family="sans-serif" font-size="20" lengthAdjust="spacing" textLength="218" x="1015.1246" y="2395.7739">Manage Job Openings</text></g><g id="elem_US1000"><ellipse cx="1126.8623" cy="652.0893" fill="#F1F1F1" rx="294.8623" ry="61.3725" style="stroke:#181818;stroke-width:0.5;"/><text fill="#000000" font-family="sans-serif" font-size="20" lengthAdjust="spacing" textLength="560" x="846.8623" y="657.0131">Register, disable/enable, and list users of the backoffice</text></g><g id="elem_US1001"><ellipse cx="1126.7944" cy="2691.3757" fill="#F1F1F1" rx="451.2944" ry="92.6589" style="stroke:#181818;stroke-width:0.5;"/><text fill="#000000" font-family="sans-serif" font-size="20" lengthAdjust="spacing" textLength="877" x="688.2944" y="2696.2995">Register a customer and that the system automatically creates a user for that customer</text></g><g id="elem_US1002"><ellipse cx="1127.083" cy="2848.4334" fill="#F1F1F1" rx="136.583" ry="29.7166" style="stroke:#181818;stroke-width:0.5;"/><text fill="#000000" font-family="sans-serif" font-size="20" lengthAdjust="spacing" textLength="226" x="1011.083" y="2854.9656">Register a job opening</text></g><g id="elem_US1003"><ellipse cx="1127.1472" cy="2938.2462" fill="#F1F1F1" rx="113.1472" ry="25.0294" style="stroke:#181818;stroke-width:0.5;"/><text fill="#000000" font-family="sans-serif" font-size="20" lengthAdjust="spacing" textLength="170" x="1039.1472" y="2944.7785">List job openings</text></g><g id="elem_US2000a"><ellipse cx="1127.1027" cy="1181.3373" fill="#F1F1F1" rx="283.6027" ry="59.1205" style="stroke:#181818;stroke-width:0.5;"/><text fill="#000000" font-family="sans-serif" font-size="20" lengthAdjust="spacing" textLength="537" x="858.6027" y="1186.2612">Register a candidate and create a corresponding user</text></g><g id="elem_US2000c"><ellipse cx="1127.0891" cy="1301.1346" fill="#F1F1F1" rx="117.5891" ry="25.9178" style="stroke:#181818;stroke-width:0.5;"/><text fill="#000000" font-family="sans-serif" font-size="20" lengthAdjust="spacing" textLength="181" x="1033.5891" y="1307.6668">List all candidates</text></g><g id="elem_US2002"><ellipse cx="1126.9485" cy="1451.4065" fill="#F1F1F1" rx="433.9485" ry="89.1897" style="stroke:#181818;stroke-width:0.5;"/><text fill="#000000" font-family="sans-serif" font-size="20" lengthAdjust="spacing" textLength="842" x="705.9485" y="1456.3303">Register an application of a candidate for a job opening and import all files received</text></g><g id="elem_US1005"><ellipse cx="1127.193" cy="1955.0554" fill="#F1F1F1" rx="202.193" ry="42.8386" style="stroke:#181818;stroke-width:0.5;"/><text fill="#000000" font-family="sans-serif" font-size="20" lengthAdjust="spacing" textLength="369" x="942.693" y="1959.9792">List all applications for a job opening</text></g><g id="elem_US1006"><ellipse cx="1126.9704" cy="2082.3109" fill="#F1F1F1" rx="233.4704" ry="49.0941" style="stroke:#181818;stroke-width:0.5;"/><text fill="#000000" font-family="sans-serif" font-size="20" lengthAdjust="spacing" textLength="434" x="909.9704" y="2087.2347">Display all the personal data of a candidate</text></g><g id="elem_US1006b"><ellipse cx="1126.9605" cy="2245.1089" fill="#F1F1F1" rx="384.9605" ry="79.3921" style="stroke:#181818;stroke-width:0.5;"/><text fill="#000000" font-family="sans-serif" font-size="20" lengthAdjust="spacing" textLength="743" x="755.4605" y="2250.0327">Display all the personal data of a candidate, including his/her applications</text></g><g id="elem_US1007"><ellipse cx="1127.0832" cy="2508.3334" fill="#F1F1F1" rx="263.5832" ry="55.1166" style="stroke:#181818;stroke-width:0.5;"/><text fill="#000000" font-family="sans-serif" font-size="20" lengthAdjust="spacing" textLength="496" x="879.0832" y="2513.2573">Setup the phases of the process for a job opening</text></g><g id="elem_US1008"><ellipse cx="1126.99" cy="3535.3148" fill="#F1F1F1" rx="570.99" ry="116.598" style="stroke:#181818;stroke-width:0.5;"/><text fill="#000000" font-family="sans-serif" font-size="20" lengthAdjust="spacing" textLength="1118" x="567.99" y="3540.2386">Deploy and configure a plugin (i.e., Job Requirement Specification or Interview Model) to be used by the system</text></g><g id="elem_US1009"><ellipse cx="1126.9892" cy="3070.1146" fill="#F1F1F1" rx="344.9892" ry="71.3978" style="stroke:#181818;stroke-width:0.5;"/><text fill="#000000" font-family="sans-serif" font-size="20" lengthAdjust="spacing" textLength="662" x="795.9892" y="3075.0385">Select the requirements specification to be used for a job opening</text></g><g id="elem_US1011"><ellipse cx="1126.8931" cy="3280.3954" fill="#F1F1F1" rx="503.8931" ry="103.1786" style="stroke:#181818;stroke-width:0.5;"/><text fill="#000000" font-family="sans-serif" font-size="20" lengthAdjust="spacing" textLength="983" x="635.3931" y="3285.3192">Select the interview model to use for the interviews of a job opening (for their evaluation/grading)</text></g><g id="elem_US1012"><ellipse cx="1126.8201" cy="1771.0808" fill="#F1F1F1" rx="514.8201" ry="105.364" style="stroke:#181818;stroke-width:0.5;"/><text fill="#000000" font-family="sans-serif" font-size="20" lengthAdjust="spacing" textLength="1005" x="624.3201" y="1776.0047">Generate and export a template text file to help collect the candidate answers during the interviews</text></g><g id="elem_US2003"><ellipse cx="1127.0407" cy="918.4249" fill="#F1F1F1" rx="834.0407" ry="169.2081" style="stroke:#181818;stroke-width:0.5;"/><text fill="#000000" font-family="sans-serif" font-size="20" lengthAdjust="spacing" textLength="1646" x="304.0407" y="923.3488">Generate and export a template text file to help collect data fields for candidates of a job opening (so the data is used to verify the requirements of the job opening)</text></g><g id="elem_UC5"><ellipse cx="1126.8689" cy="360.2906" fill="#F1F1F1" rx="123.3689" ry="27.0738" style="stroke:#181818;stroke-width:0.5;"/><text fill="#000000" font-family="sans-serif" font-size="20" lengthAdjust="spacing" textLength="195" x="1026.3689" y="366.8228">Follow Applications</text></g><g id="elem_UC6"><ellipse cx="1127.1825" cy="219.4533" fill="#F1F1F1" rx="146.6825" ry="31.7365" style="stroke:#181818;stroke-width:0.5;"/><text fill="#000000" font-family="sans-serif" font-size="20" lengthAdjust="spacing" textLength="249" x="999.6825" y="225.9855">Import Applications Files</text></g><g id="elem_UC7"><ellipse cx="1127.1508" cy="77.047" fill="#F1F1F1" rx="127.1508" ry="27.8302" style="stroke:#181818;stroke-width:0.5;"/><text fill="#000000" font-family="sans-serif" font-size="20" lengthAdjust="spacing" textLength="204" x="1022.1508" y="83.5792">Follow Job Openings</text></g><!--entity PM--><g id="elem_PM"><ellipse cx="119.5" cy="4384.2168" fill="#FFFFFF" rx="8" ry="8" style="stroke:#000000;stroke-width:2.0;"/><path d="M119.5,4392.2168 L119.5,4419.2168 M106.5,4400.2168 L132.5,4400.2168 M119.5,4419.2168 L106.5,4434.2168 M119.5,4419.2168 L132.5,4434.2168 " fill="none" style="stroke:#000000;stroke-width:2.0;"/><text fill="#000000" font-family="sans-serif" font-size="20" lengthAdjust="spacing" textLength="162" x="38.5" y="4455.7813">Project Manager</text></g><!--entity AD--><g id="elem_AD"><ellipse cx="119.5" cy="549.2168" fill="#FFFFFF" rx="8" ry="8" style="stroke:#FF0000;stroke-width:2.0;"/><path d="M119.5,557.2168 L119.5,584.2168 M106.5,565.2168 L132.5,565.2168 M119.5,584.2168 L106.5,599.2168 M119.5,584.2168 L132.5,599.2168 " fill="none" style="stroke:#FF0000;stroke-width:2.0;"/><text fill="#000000" font-family="sans-serif" font-size="20" lengthAdjust="spacing" textLength="66" x="86.5" y="620.7813">Admin</text></g><!--entity OP--><g id="elem_OP"><ellipse cx="119.5" cy="1268.2168" fill="#FFFFFF" rx="8" ry="8" style="stroke:#0000FF;stroke-width:2.0;"/><path d="M119.5,1276.2168 L119.5,1303.2168 M106.5,1284.2168 L132.5,1284.2168 M119.5,1303.2168 L106.5,1318.2168 M119.5,1303.2168 L132.5,1318.2168 " fill="none" style="stroke:#0000FF;stroke-width:2.0;"/><text fill="#000000" font-family="sans-serif" font-size="20" lengthAdjust="spacing" textLength="89" x="75" y="1339.7813">Operator</text></g><!--entity CM--><g id="elem_CM"><ellipse cx="119.5" cy="2475.2168" fill="#FFFFFF" rx="8" ry="8" style="stroke:#008000;stroke-width:2.0;"/><path d="M119.5,2483.2168 L119.5,2510.2168 M106.5,2491.2168 L132.5,2491.2168 M119.5,2510.2168 L106.5,2525.2168 M119.5,2510.2168 L132.5,2525.2168 " fill="none" style="stroke:#008000;stroke-width:2.0;"/><text fill="#000000" font-family="sans-serif" font-size="20" lengthAdjust="spacing" textLength="190" x="24.5" y="2546.7813">Customer Manager</text></g><!--entity LE--><g id="elem_LE"><ellipse cx="119.5" cy="3596.2168" fill="#FFFFFF" rx="8" ry="8" style="stroke:#800080;stroke-width:2.0;"/><path d="M119.5,3604.2168 L119.5,3631.2168 M106.5,3612.2168 L132.5,3612.2168 M119.5,3631.2168 L106.5,3646.2168 M119.5,3631.2168 L132.5,3646.2168 " fill="none" style="stroke:#800080;stroke-width:2.0;"/><text fill="#000000" font-family="sans-serif" font-size="20" lengthAdjust="spacing" textLength="195" x="22" y="3667.7813">Language Engineer</text></g><!--entity CA--><g id="elem_CA"><ellipse cx="119.5" cy="327.2168" fill="#FFFFFF" rx="8" ry="8" style="stroke:#FFA500;stroke-width:2.0;"/><path d="M119.5,335.2168 L119.5,362.2168 M106.5,343.2168 L132.5,343.2168 M119.5,362.2168 L106.5,377.2168 M119.5,362.2168 L132.5,377.2168 " fill="none" style="stroke:#FFA500;stroke-width:2.0;"/><text fill="#000000" font-family="sans-serif" font-size="20" lengthAdjust="spacing" textLength="103" x="68" y="398.7813">Candidate</text></g><!--entity EB--><g id="elem_EB"><ellipse cx="119.5" cy="186.2168" fill="#FFFFFF" rx="8" ry="8" style="stroke:#A52A2A;stroke-width:2.0;"/><path d="M119.5,194.2168 L119.5,221.2168 M106.5,202.2168 L132.5,202.2168 M119.5,221.2168 L106.5,236.2168 M119.5,221.2168 L132.5,236.2168 " fill="none" style="stroke:#A52A2A;stroke-width:2.0;"/><text fill="#000000" font-family="sans-serif" font-size="20" lengthAdjust="spacing" textLength="227" x="6" y="257.7813">Applications Email Bot</text></g><!--entity CU--><g id="elem_CU"><ellipse cx="119.5" cy="44.2168" fill="#FFFFFF" rx="8" ry="8" style="stroke:#9ACD32;stroke-width:2.0;"/><path d="M119.5,52.2168 L119.5,79.2168 M106.5,60.2168 L132.5,60.2168 M119.5,79.2168 L106.5,94.2168 M119.5,79.2168 L132.5,94.2168 " fill="none" style="stroke:#9ACD32;stroke-width:2.0;"/><text fill="#000000" font-family="sans-serif" font-size="20" lengthAdjust="spacing" textLength="97" x="71" y="115.7813">Customer</text></g><!--link PM to G001--><g id="link_PM_G001"><path d="M121.02,4374.1268 C124.66,4285.3968 146.68,4082.5668 269,3986.2168 C440.14,3851.4068 694.23,3843.5268 881.32,3861.7468 " fill="none" id="PM-to-G001" style="stroke:#181818;stroke-width:1.0;"/><polygon fill="#181818" points="886.56,3862.2668,877.9916,3857.4106,881.5837,3861.7806,877.2137,3865.3727,886.56,3862.2668" style="stroke:#181818;stroke-width:1.0;"/></g><!--link PM to G002--><g id="link_PM_G002"><path d="M134.85,4373.9768 C155.32,4319.6968 198.45,4228.3668 269,4184.2168 C410.38,4095.7368 590.91,4065.5068 749.78,4059.5768 " fill="none" id="PM-to-G002" style="stroke:#181818;stroke-width:1.0;"/><polygon fill="#181818" points="754.95,4059.3968,745.8077,4055.7336,749.9534,4059.5824,746.1047,4063.7281,754.95,4059.3968" style="stroke:#181818;stroke-width:1.0;"/></g><!--link PM to G003--><g id="link_PM_G003"><path d="M158.4,4374.0768 C185.98,4345.9268 225.91,4311.3268 269,4294.2168 C499.01,4202.9068 791.04,4206.8768 967.96,4220.9668 " fill="none" id="PM-to-G003" style="stroke:#181818;stroke-width:1.0;"/><polygon fill="#181818" points="973.16,4221.3868,964.5087,4216.6799,968.176,4220.9869,963.8689,4224.6542,973.16,4221.3868" style="stroke:#181818;stroke-width:1.0;"/></g><!--link PM to G004--><g id="link_PM_G004"><path d="M200.66,4412.2768 C355.77,4402.7068 701.19,4381.4068 923.34,4367.7168 " fill="none" id="PM-to-G004" style="stroke:#181818;stroke-width:1.0;"/><polygon fill="#181818" points="928.56,4367.3868,919.336,4363.9346,923.569,4367.6871,919.8165,4371.9201,928.56,4367.3868" style="stroke:#181818;stroke-width:1.0;"/></g><!--link PM to G005--><g id="link_PM_G005"><path d="M200.66,4422.1568 C353.75,4431.5968 692.23,4452.4668 914.6,4466.1768 " fill="none" id="PM-to-G005" style="stroke:#181818;stroke-width:1.0;"/><polygon fill="#181818" points="919.83,4466.5068,911.0987,4461.9501,914.8398,4466.1931,910.5968,4469.9343,919.83,4466.5068" style="stroke:#181818;stroke-width:1.0;"/></g><!--link PM to G006--><g id="link_PM_G006"><path d="M157.71,4460.3368 C185.26,4489.0168 225.44,4524.5468 269,4542.2168 C485.54,4630.0568 757.98,4633.2368 936.82,4622.4668 " fill="none" id="PM-to-G006" style="stroke:#181818;stroke-width:1.0;"/><polygon fill="#181818" points="941.82,4622.1668,932.5862,4618.7409,936.8299,4622.4814,933.0895,4626.7251,941.82,4622.1668" style="stroke:#181818;stroke-width:1.0;"/></g><!--link PM to G007--><g id="link_PM_G007"><path d="M133.34,4460.3968 C152.73,4517.3768 195.27,4616.0668 269,4664.2168 C389.32,4742.7968 539.6,4777.9768 680.57,4791.2168 " fill="none" id="PM-to-G007" style="stroke:#181818;stroke-width:1.0;"/><polygon fill="#181818" points="685.59,4791.6868,676.9928,4786.8817,680.6109,4791.2303,676.2624,4794.8483,685.59,4791.6868" style="stroke:#181818;stroke-width:1.0;"/></g><!--link PM to 2001--><g id="link_PM_2001"><path d="M120.39,4460.4668 C122.67,4553.4268 142.01,4772.8868 269,4884.2168 C329.19,4936.9868 401.15,4974.4668 477.45,5000.7368 " fill="none" id="PM-to-2001" style="stroke:#181818;stroke-width:1.0;"/><polygon fill="#181818" points="482.48,5002.4468,475.255,4995.7536,477.7481,5000.8314,472.6703,5003.3245,482.48,5002.4468" style="stroke:#181818;stroke-width:1.0;"/></g><!--link AD to UC1--><g id="link_AD_UC1"><path d="M152.53,579.9868 C269.64,571.8368 680.67,543.2168 929.65,525.8868 " fill="none" id="AD-to-UC1" style="stroke:#181818;stroke-width:1.0;"/><polygon fill="#181818" points="934.77,525.5268,925.5174,522.1519,929.7817,525.8689,926.0647,530.1331,934.77,525.5268" style="stroke:#181818;stroke-width:1.0;"/></g><!--link AD to US1000--><g id="link_AD_US1000"><path d="M152.53,584.4468 C256.71,591.6968 593.47,615.1468 841.84,632.4368 " fill="none" id="AD-to-US1000" style="stroke:#181818;stroke-width:1.0;"/><polygon fill="#181818" points="846.96,632.7868,838.2556,628.1788,841.9718,632.4438,837.7068,636.1599,846.96,632.7868" style="stroke:#181818;stroke-width:1.0;"/></g><!--link LE to UC2--><g id="link_LE_UC2"><path d="M217.34,3658.3068 C234.42,3662.5668 252.14,3666.4568 269,3669.2168 C506.26,3708.0968 784.73,3719.0268 958.3,3721.7868 " fill="none" id="LE-to-UC2" style="stroke:#181818;stroke-width:1.0;"/><polygon fill="#181818" points="963.41,3721.8668,954.4799,3717.7131,958.4107,3721.7811,954.3428,3725.7119,963.41,3721.8668" style="stroke:#181818;stroke-width:1.0;"/></g><!--link LE to US1008--><g id="link_LE_US1008"><path d="M217.37,3620.1568 C309.12,3611.5868 454.51,3597.9868 602.32,3584.1768 " fill="none" id="LE-to-US1008" style="stroke:#181818;stroke-width:1.0;"/><polygon fill="#181818" points="607.58,3583.6868,598.2515,3580.5277,602.601,3584.1446,598.9841,3588.4941,607.58,3583.6868" style="stroke:#181818;stroke-width:1.0;"/></g><!--link OP to UC3--><g id="link_OP_UC3"><path d="M131.58,1344.2268 C149.44,1403.7568 190.78,1509.3268 269,1557.2168 C388.01,1630.0768 791.65,1620.9468 999.71,1610.7968 " fill="none" id="OP-to-UC3" style="stroke:#181818;stroke-width:1.0;"/><polygon fill="#181818" points="1004.89,1610.5468,995.7065,1606.9881,999.8959,1610.7894,996.0947,1614.9787,1004.89,1610.5468" style="stroke:#181818;stroke-width:1.0;"/></g><!--link OP to US2000a--><g id="link_OP_US2000a"><path d="M164.12,1285.7868 C193.41,1276.0468 233.08,1264.0568 269,1257.2168 C458.24,1221.1668 674.33,1202.1468 842.17,1192.1568 " fill="none" id="OP-to-US2000a" style="stroke:#181818;stroke-width:1.0;"/><polygon fill="#181818" points="847.62,1191.8268,838.3966,1188.373,842.629,1192.1263,838.8757,1196.3586,847.62,1191.8268" style="stroke:#181818;stroke-width:1.0;"/></g><!--link OP to US2000c--><g id="link_OP_US2000c"><path d="M164.03,1301.2168 C309.05,1301.2168 779.27,1301.2168 1004.1,1301.2168 " fill="none" id="OP-to-US2000c" style="stroke:#181818;stroke-width:1.0;"/><polygon fill="#181818" points="1009.36,1301.2168,1000.36,1297.2168,1004.36,1301.2168,1000.36,1305.2168,1009.36,1301.2168" style="stroke:#181818;stroke-width:1.0;"/></g><!--link OP to US2002--><g id="link_OP_US2002"><path d="M164.23,1315.8568 C193.57,1325.1768 233.25,1336.8568 269,1344.2168 C416.68,1374.6168 580.57,1397.6468 725.15,1414.4068 " fill="none" id="OP-to-US2002" style="stroke:#181818;stroke-width:1.0;"/><polygon fill="#181818" points="730.29,1414.9968,721.8073,1409.9925,725.3229,1414.4242,720.8911,1417.9398,730.29,1414.9968" style="stroke:#181818;stroke-width:1.0;"/></g><!--link OP to US2003--><g id="link_OP_US2003"><path d="M141.33,1257.8468 C165.53,1212.2768 209.84,1142.0768 269,1104.2168 C322.98,1069.6768 382.37,1041.4568 443.94,1018.4368 " fill="none" id="OP-to-US2003" style="stroke:#181818;stroke-width:1.0;"/><polygon fill="#181818" points="448.76,1016.6468,438.9301,1016.0353,444.0737,1018.3899,441.7191,1023.5334,448.76,1016.6468" style="stroke:#181818;stroke-width:1.0;"/></g><!--link CM to UC4--><g id="link_CM_UC4"><path d="M193.38,2465.1368 C216.77,2453.3168 243.29,2441.9268 269,2435.2168 C519.55,2369.8368 824.87,2372.0268 995.13,2380.1768 " fill="none" id="CM-to-UC4" style="stroke:#181818;stroke-width:1.0;"/><polygon fill="#181818" points="1000.13,2380.4168,991.3353,2375.9837,995.1359,2380.1735,990.946,2383.9742,1000.13,2380.4168" style="stroke:#181818;stroke-width:1.0;"/></g><!--link CM to US1001--><g id="link_CM_US1001"><path d="M197.21,2551.2268 C219.74,2562.2468 244.84,2573.0068 269,2580.2168 C403.57,2620.3968 554.31,2646.0268 691.41,2662.3868 " fill="none" id="CM-to-US1001" style="stroke:#181818;stroke-width:1.0;"/><polygon fill="#181818" points="696.69,2663.0168,688.2198,2657.9912,691.7243,2662.4318,687.2838,2665.9363,696.69,2663.0168" style="stroke:#181818;stroke-width:1.0;"/></g><!--link CM to US1002--><g id="link_CM_US1002"><path d="M128.34,2551.3668 C142.96,2617.9368 181.25,2743.9468 269,2801.2168 C384.24,2876.4268 779.31,2867.5768 990.43,2856.8168 " fill="none" id="CM-to-US1002" style="stroke:#181818;stroke-width:1.0;"/><polygon fill="#181818" points="995.69,2856.5368,986.4964,2853.0043,990.6966,2856.7936,986.9073,2860.9938,995.69,2856.5368" style="stroke:#181818;stroke-width:1.0;"/></g><!--link CM to US1003--><g id="link_CM_US1003"><path d="M122.55,2551.2168 C129.04,2633.7468 156.11,2813.3768 269,2895.2168 C385.1,2979.3768 811.23,2961.2768 1015.44,2947.1268 " fill="none" id="CM-to-US1003" style="stroke:#181818;stroke-width:1.0;"/><polygon fill="#181818" points="1020.52,2946.7668,1011.2579,2943.4182,1015.5327,2947.123,1011.8279,2951.3979,1020.52,2946.7668" style="stroke:#181818;stroke-width:1.0;"/></g><!--link CM to US1005--><g id="link_CM_US1005"><path d="M127.18,2464.9268 C145,2355.5168 197.24,2072.5468 269,2015.2168 C366.84,1937.0568 705.08,1935.6168 926.23,1943.8768 " fill="none" id="CM-to-US1005" style="stroke:#181818;stroke-width:1.0;"/><polygon fill="#181818" points="931.44,1944.0768,922.6071,1939.7203,926.444,1943.877,922.2873,1947.7139,931.44,1944.0768" style="stroke:#181818;stroke-width:1.0;"/></g><!--link CM to US1006--><g id="link_CM_US1006"><path d="M124.15,2465.0568 C133.28,2387.1468 164.52,2224.1068 269,2148.2168 C469.15,2002.8268 769.47,2018.0668 956.28,2046.8568 " fill="none" id="CM-to-US1006" style="stroke:#181818;stroke-width:1.0;"/><polygon fill="#181818" points="961.22,2047.6268,952.9445,2042.2868,956.2798,2046.8558,951.7108,2050.1911,961.22,2047.6268" style="stroke:#181818;stroke-width:1.0;"/></g><!--link CM to US1006b--><g id="link_CM_US1006b"><path d="M146,2465.0668 C171.71,2425.8468 215.23,2369.9968 269,2342.2168 C413.27,2267.6868 589.1,2238.8968 743.86,2230.4668 " fill="none" id="CM-to-US1006b" style="stroke:#181818;stroke-width:1.0;"/><polygon fill="#181818" points="748.9,2230.1968,739.6959,2226.692,743.9074,2230.4686,740.1308,2234.6801,748.9,2230.1968" style="stroke:#181818;stroke-width:1.0;"/></g><!--link CM to US1007--><g id="link_CM_US1007"><path d="M214.64,2508.2168 C360.26,2508.2168 645.52,2508.2168 858.29,2508.2168 " fill="none" id="CM-to-US1007" style="stroke:#181818;stroke-width:1.0;"/><polygon fill="#181818" points="863.31,2508.2168,854.31,2504.2168,858.31,2508.2168,854.31,2512.2168,863.31,2508.2168" style="stroke:#181818;stroke-width:1.0;"/></g><!--link CM to US1009--><g id="link_CM_US1009"><path d="M119.62,2551.5468 C120.29,2646.2568 136.48,2871.8868 269,2980.2168 C428.22,3110.3768 663.55,3126.6968 847.34,3113.9168 " fill="none" id="CM-to-US1009" style="stroke:#181818;stroke-width:1.0;"/><polygon fill="#181818" points="852.49,3113.5468,843.2272,3110.2001,847.5028,3113.904,843.7988,3118.1796,852.49,3113.5468" style="stroke:#181818;stroke-width:1.0;"/></g><!--link CM to US1011--><g id="link_CM_US1011"><path d="M124.09,2551.4668 C135.96,2683.2568 178.43,3075.9568 269,3159.2168 C368.79,3250.9568 504.68,3293.0668 638.83,3309.1368 " fill="none" id="CM-to-US1011" style="stroke:#181818;stroke-width:1.0;"/><polygon fill="#181818" points="644,3309.7368,635.5298,3304.7112,639.0343,3309.1518,634.5938,3312.6563,644,3309.7368" style="stroke:#181818;stroke-width:1.0;"/></g><!--link CM to US1012--><g id="link_CM_US1012"><path d="M124.72,2465.1868 C138.03,2338.6968 183.4,1972.0668 269,1894.2168 C364.83,1807.0568 493.26,1764.6468 621.49,1746.7268 " fill="none" id="CM-to-US1012" style="stroke:#181818;stroke-width:1.0;"/><polygon fill="#181818" points="626.82,1745.9968,617.3646,1743.241,621.8652,1746.6679,618.4383,1751.1686,626.82,1745.9968" style="stroke:#181818;stroke-width:1.0;"/></g><!--link CA to UC5--><g id="link_CA_UC5"><path d="M171.05,360.2168 C322.29,360.2168 774.54,360.2168 998.06,360.2168 " fill="none" id="CA-to-UC5" style="stroke:#181818;stroke-width:1.0;"/><polygon fill="#181818" points="1003.3,360.2168,994.3,356.2168,998.3,360.2168,994.3,364.2168,1003.3,360.2168" style="stroke:#181818;stroke-width:1.0;"/></g><!--link EB to UC6--><g id="link_EB_UC6"><path d="M233.4,219.2168 C415.04,219.2168 772.27,219.2168 975.4,219.2168 " fill="none" id="EB-to-UC6" style="stroke:#181818;stroke-width:1.0;"/><polygon fill="#181818" points="980.47,219.2168,971.47,215.2168,975.47,219.2168,971.47,223.2168,980.47,219.2168" style="stroke:#181818;stroke-width:1.0;"/></g><!--link CU to UC7--><g id="link_CU_UC7"><path d="M168.32,77.2168 C315.95,77.2168 768.18,77.2168 994.35,77.2168 " fill="none" id="CU-to-UC7" style="stroke:#181818;stroke-width:1.0;"/><polygon fill="#181818" points="999.65,77.2168,990.65,73.2168,994.65,77.2168,990.65,81.2168,999.65,77.2168" style="stroke:#181818;stroke-width:1.0;"/></g><!--SRC=[hLTjJniv4Fw-lyBYlXI9GaWWkLwbaq82LIjGKH4_mF7ERbmSUy_s0kdf_lkDxNsnboH8f-C3sDxnp3FZUMO6yyHbHJNT2CMU82Sv5BGMzaP9-y1_0HcFian0OObLHFDoRKdEDJ3BbSmoogpIvEXUgvzuHEwef2Ne8q8DkRyZlxsikONFWaluOoKeU_BBqvKI-MSBhpOSPfbJHsKfW3niZOKD-JiZ-5CRODG0ERfHGgWNOjT0BB2rv8mAmfGqLbCkhI5KvcxFG4j3LE4bgu39O_ao6fsdAX_nbvD2Rn5ItaeJ3PKo79tQUgK6R5qHYhuhGGfqjPNRU4yt83i3uzJ0Gic2bxM660n1n3MpUDhUcgIt7Xfxw8pbibQr8UWWb9gwU2CS_To45-zUf7VdUUvjIM1W34KF3DEyml3Wo-s8o6Lw_LhGbK8xWEQNQeE19NSg1u4IN9PakLos5wS3p7LLAMrzl6XL2OnSZURG0HPG-mzuf3J_5KvS9AaGX2CurAF32nQrz6b51RSSp6bhRvRQmsHp3dgN2Yx0ECVock4hhhR-T8ue6kE6NAChWbmfUqACYmErJcPB69La1OHl77YyYt4EOJ8X1r4NbmW4rJn3crJVAy0GgV04OvTL_sGPPlh7Zt-69ElNusWzYTONqVeoMa-ZzQnTUnCjo-RvXajlURvCkAKXtysivcA2-llzW9Sr7Boyg8rL6z09kHSfkKiD80zgkKL-rtYTNCiInHerjzU9cghMbO1tYyGLxbLHS0R3GX4WaXPoI2kNP0rsuwq-BWR5O0cLK87mFMtlHLqsuNvS3CZz0qgEIQBZJ6ia9piHVLChbpiIcTHYkDYjyWJBgw4h0MSWtPyJ3qlWjuOfJIQkkY04VG_dez5e3qgi9-qZEcKj1zfCHsuYtnrT1PANQS0YWA7pzZnL_OLMHM_kVA-vd-Yk2kxsueCOtZgN8a7JIqxs-u7uUUwBb2lv7gelbrg3gHH-n5BbS3VAa3yZkiEkApwTBXC9itscfQzjRKd3HuZ1-7eMEnCIRnFg8jeATGfJ6B2OvBszyHviDAvWRxJtaHhKy2KtbQ1Rhy9NV4mOLqy9egG3qBsIwNzNSe8raedQXttDpTdQXIh27XbPxUfqNlyQ3-AsxQlx0QTdUzdBElPIKdd-aW_y54vFF05_m5yrZYwkQPE72XWlkkVKv2ksMVtCuILqlMFNDB4ze9MkhGIwz3X-7teaN8jtahgtP8X9J4Lg3xZuQQzgtk7S-EwC-b2ieMdqsOINYdFoGoF4DO5dAceFw0nd2_Tynvtnym6llu04tL8ENaDEuo2smIonRY9xjJw_7PGrY0fVGNHmOyAQ5rU_ybexC2dOtlZuVpBkaxNW8FAGIptRTmJ6XCxlxt0JNWSLugp5Y-tR5srIDL9nt5DwuaO2RD2kVRjEqov3WSQE5pwCksL89MpBuSEaMpRLAzcoP3jETfDiSTSekUYMeL37kt6ocoIxosGtJNUhP3jBTf_YtNbY49-qcoMIuhEO9zqVXqzPlj_zUoMk-nxj-LzX_gO8BIxTmw3D4A7BVgpQEItwIzTNwQoarOjy7s2YyCObfzSt0FerT8StmYtSgOEB00BSQJQSnq887nE0Mt3E7vZ6aZYsCy61CEwOMsO-Z8yDhbdsBm00]--></g></svg>