<?xml version="1.0" encoding="UTF-8" standalone="no"?><svg xmlns="http://www.w3.org/2000/svg" xmlns:xlink="http://www.w3.org/1999/xlink" contentStyleType="text/css" height="2881px" preserveAspectRatio="none" style="width:1648px;height:2881px;background:#FFFFFF;" version="1.1" viewBox="0 0 1648 2881" width="1648px" zoomAndPan="magnify"><defs/><g><!--cluster System--><g id="cluster_System"><rect fill="none" height="1392" rx="2.5" ry="2.5" style="stroke:#181818;stroke-width:1.0;" width="1365" x="277" y="1483.2168"/><text fill="#000000" font-family="sans-serif" font-size="20" font-weight="bold" lengthAdjust="spacing" textLength="84" x="917.5" y="1503.7813">System</text></g><!--cluster Backoffice--><g id="cluster_Backoffice"><rect fill="none" height="1032" rx="2.5" ry="2.5" style="stroke:#181818;stroke-width:1.0;" width="432" x="743.5" y="427.2168"/><text fill="#000000" font-family="sans-serif" font-size="20" font-weight="bold" lengthAdjust="spacing" textLength="119" x="900" y="447.7813">Backoffice</text></g><!--cluster Candidate App--><g id="cluster_Candidate App"><rect fill="none" height="112" rx="2.5" ry="2.5" style="stroke:#181818;stroke-width:1.0;" width="279" x="820" y="291.2168"/><text fill="#000000" font-family="sans-serif" font-size="20" font-weight="bold" lengthAdjust="spacing" textLength="166" x="876.5" y="311.7813">Candidate App</text></g><!--cluster Applications File Bot--><g id="cluster_Applications File Bot"><rect fill="none" height="122" rx="2.5" ry="2.5" style="stroke:#181818;stroke-width:1.0;" width="325" x="797" y="145.2168"/><text fill="#000000" font-family="sans-serif" font-size="20" font-weight="bold" lengthAdjust="spacing" textLength="235" x="842" y="165.7813">Applications File Bot</text></g><!--cluster Customer App--><g id="cluster_Customer App"><rect fill="none" height="114" rx="2.5" ry="2.5" style="stroke:#181818;stroke-width:1.0;" width="286" x="816.5" y="7.2168"/><text fill="#000000" font-family="sans-serif" font-size="20" font-weight="bold" lengthAdjust="spacing" textLength="160" x="879.5" y="27.7813">Customer App</text></g><g id="elem_G001"><ellipse cx="959.4949" cy="1590.4158" fill="#F1F1F1" rx="313.9949" ry="65.199" style="stroke:#181818;stroke-width:0.5;"/><text fill="#000000" font-family="sans-serif" font-size="20" lengthAdjust="spacing" textLength="599" x="659.9949" y="1595.3396">Follow the technical constraints and concerns of the project</text></g><g id="elem_G002"><ellipse cx="959.3746" cy="1771.0917" fill="#F1F1F1" rx="392.3746" ry="80.8749" style="stroke:#181818;stroke-width:0.5;"/><text fill="#000000" font-family="sans-serif" font-size="20" lengthAdjust="spacing" textLength="758" x="580.3746" y="1776.0156">Use the defined project repository and setup a tool for project management</text></g><g id="elem_G003"><ellipse cx="959.3343" cy="1924.9837" fill="#F1F1F1" rx="174.3343" ry="37.2669" style="stroke:#181818;stroke-width:0.5;"/><text fill="#000000" font-family="sans-serif" font-size="20" lengthAdjust="spacing" textLength="310" x="802.0075" y="1931.1948">Configure the project structure</text></g><g id="elem_G004"><ellipse cx="959.5009" cy="2041.417" fill="#F1F1F1" rx="206.5009" ry="43.7002" style="stroke:#181818;stroke-width:0.5;"/><text fill="#000000" font-family="sans-serif" font-size="20" lengthAdjust="spacing" textLength="378" x="770.5009" y="2046.3408">Setup a continuous integration server</text></g><g id="elem_G005"><ellipse cx="959.6214" cy="2165.2411" fill="#F1F1F1" rx="215.6214" ry="45.5243" style="stroke:#181818;stroke-width:0.5;"/><text fill="#000000" font-family="sans-serif" font-size="20" lengthAdjust="spacing" textLength="397" x="761.1214" y="2170.1649">Add the necessary scripts to the project</text></g><g id="elem_G006"><ellipse cx="959.5428" cy="2289.2254" fill="#F1F1F1" rx="205.5428" ry="43.5086" style="stroke:#181818;stroke-width:0.5;"/><text fill="#000000" font-family="sans-serif" font-size="20" lengthAdjust="spacing" textLength="376" x="771.5428" y="2294.1492">Elaborate a Domain Model using DDD</text></g><g id="elem_G007"><ellipse cx="959.3114" cy="2459.9791" fill="#F1F1F1" rx="449.3114" ry="92.2623" style="stroke:#181818;stroke-width:0.5;"/><text fill="#000000" font-family="sans-serif" font-size="20" lengthAdjust="spacing" textLength="873" x="522.8114" y="2464.9029">Support and apply authentication and authorization for all its users and functionalities.</text></g><g id="elem_2001"><ellipse cx="959.5575" cy="2723.4283" fill="#F1F1F1" rx="666.5575" ry="135.7115" style="stroke:#181818;stroke-width:0.5;"/><text fill="#000000" font-family="sans-serif" font-size="20" lengthAdjust="spacing" textLength="1310" x="304.5575" y="2728.3521">Process the files produced by the Applications Email Bot, so that they can be imported into the system by initiative of the Operator</text></g><g id="elem_UC1"><ellipse cx="959.4081" cy="509.1984" fill="#F1F1F1" rx="187.9081" ry="39.9816" style="stroke:#181818;stroke-width:0.5;"/><text fill="#000000" font-family="sans-serif" font-size="20" lengthAdjust="spacing" textLength="339" x="789.3487" y="514.4596">Manage Customers and Managers</text></g><g id="elem_US1000"><ellipse cx="959.6264" cy="616.0421" fill="#F1F1F1" rx="147.1264" ry="31.8253" style="stroke:#181818;stroke-width:0.5;"/><text fill="#000000" font-family="sans-serif" font-size="20" lengthAdjust="spacing" textLength="250" x="831.6264" y="622.5743">Manage Backoffice Users</text></g><g id="elem_US1002"><ellipse cx="959.6246" cy="895.2417" fill="#F1F1F1" rx="133.1246" ry="29.0249" style="stroke:#181818;stroke-width:0.5;"/><text fill="#000000" font-family="sans-serif" font-size="20" lengthAdjust="spacing" textLength="218" x="847.6246" y="901.7739">Manage Job Openings</text></g><g id="elem_US2000a"><ellipse cx="959.6241" cy="711.0416" fill="#F1F1F1" rx="124.6241" ry="27.3248" style="stroke:#181818;stroke-width:0.5;"/><text fill="#000000" font-family="sans-serif" font-size="20" lengthAdjust="spacing" textLength="198" x="857.6241" y="717.5738">Manage Candidates</text></g><g id="elem_US2002"><ellipse cx="959.2722" cy="801.9712" fill="#F1F1F1" rx="129.2722" ry="28.2544" style="stroke:#181818;stroke-width:0.5;"/><text fill="#000000" font-family="sans-serif" font-size="20" lengthAdjust="spacing" textLength="209" x="851.7722" y="808.5035">Manage Applications</text></g><g id="elem_US1007"><ellipse cx="959.3035" cy="1206.0775" fill="#F1F1F1" rx="199.8035" ry="42.3607" style="stroke:#181818;stroke-width:0.5;"/><text fill="#000000" font-family="sans-serif" font-size="20" lengthAdjust="spacing" textLength="364" x="777.3035" y="1211.0013">Manage Job Opening Process Phases</text></g><g id="elem_US1008"><ellipse cx="959.4154" cy="1419.2999" fill="#F1F1F1" rx="108.4154" ry="24.0831" style="stroke:#181818;stroke-width:0.5;"/><text fill="#000000" font-family="sans-serif" font-size="20" lengthAdjust="spacing" textLength="158" x="877.4154" y="1425.8321">Manage Plugins</text></g><g id="elem_US1009"><ellipse cx="959.5094" cy="1001.2187" fill="#F1F1F1" rx="195.5094" ry="41.5019" style="stroke:#181818;stroke-width:0.5;"/><text fill="#000000" font-family="sans-serif" font-size="20" lengthAdjust="spacing" textLength="355" x="782.0094" y="1006.1425">Manage Job Opening Requirements</text></g><g id="elem_US1012"><ellipse cx="959.5154" cy="1322.3199" fill="#F1F1F1" rx="178.5154" ry="38.1031" style="stroke:#181818;stroke-width:0.5;"/><text fill="#000000" font-family="sans-serif" font-size="20" lengthAdjust="spacing" textLength="319" x="798.2663" y="1328.2384">Generate and Export Templates</text></g><g id="elem_US1013"><ellipse cx="959.6472" cy="1103.2462" fill="#F1F1F1" rx="113.1472" ry="25.0294" style="stroke:#181818;stroke-width:0.5;"/><text fill="#000000" font-family="sans-serif" font-size="20" lengthAdjust="spacing" textLength="170" x="871.6472" y="1109.7785">Rank Candidates</text></g><g id="elem_UC5"><ellipse cx="959.3689" cy="360.2906" fill="#F1F1F1" rx="123.3689" ry="27.0738" style="stroke:#181818;stroke-width:0.5;"/><text fill="#000000" font-family="sans-serif" font-size="20" lengthAdjust="spacing" textLength="195" x="858.8689" y="366.8228">Follow Applications</text></g><g id="elem_UC6"><ellipse cx="959.6825" cy="219.4533" fill="#F1F1F1" rx="146.6825" ry="31.7365" style="stroke:#181818;stroke-width:0.5;"/><text fill="#000000" font-family="sans-serif" font-size="20" lengthAdjust="spacing" textLength="249" x="832.1825" y="225.9855">Import Applications Files</text></g><g id="elem_UC7"><ellipse cx="959.6508" cy="77.047" fill="#F1F1F1" rx="127.1508" ry="27.8302" style="stroke:#181818;stroke-width:0.5;"/><text fill="#000000" font-family="sans-serif" font-size="20" lengthAdjust="spacing" textLength="204" x="854.6508" y="83.5792">Follow Job Openings</text></g><!--entity PM--><g id="elem_PM"><ellipse cx="119.5" cy="2070.2168" fill="#FFFFFF" rx="8" ry="8" style="stroke:#000000;stroke-width:2.0;"/><path d="M119.5,2078.2168 L119.5,2105.2168 M106.5,2086.2168 L132.5,2086.2168 M119.5,2105.2168 L106.5,2120.2168 M119.5,2105.2168 L132.5,2120.2168 " fill="none" style="stroke:#000000;stroke-width:2.0;"/><text fill="#000000" font-family="sans-serif" font-size="20" lengthAdjust="spacing" textLength="162" x="38.5" y="2141.7813">Project Manager</text></g><!--entity AD--><g id="elem_AD"><ellipse cx="119.5" cy="530.2168" fill="#FFFFFF" rx="8" ry="8" style="stroke:#FF0000;stroke-width:2.0;"/><path d="M119.5,538.2168 L119.5,565.2168 M106.5,546.2168 L132.5,546.2168 M119.5,565.2168 L106.5,580.2168 M119.5,565.2168 L132.5,580.2168 " fill="none" style="stroke:#FF0000;stroke-width:2.0;"/><text fill="#000000" font-family="sans-serif" font-size="20" lengthAdjust="spacing" textLength="66" x="86.5" y="601.7813">Admin</text></g><!--entity OP--><g id="elem_OP"><ellipse cx="119.5" cy="724.2168" fill="#FFFFFF" rx="8" ry="8" style="stroke:#0000FF;stroke-width:2.0;"/><path d="M119.5,732.2168 L119.5,759.2168 M106.5,740.2168 L132.5,740.2168 M119.5,759.2168 L106.5,774.2168 M119.5,759.2168 L132.5,774.2168 " fill="none" style="stroke:#0000FF;stroke-width:2.0;"/><text fill="#000000" font-family="sans-serif" font-size="20" lengthAdjust="spacing" textLength="89" x="75" y="795.7813">Operator</text></g><!--entity CM--><g id="elem_CM"><ellipse cx="119.5" cy="1070.2168" fill="#FFFFFF" rx="8" ry="8" style="stroke:#008000;stroke-width:2.0;"/><path d="M119.5,1078.2168 L119.5,1105.2168 M106.5,1086.2168 L132.5,1086.2168 M119.5,1105.2168 L106.5,1120.2168 M119.5,1105.2168 L132.5,1120.2168 " fill="none" style="stroke:#008000;stroke-width:2.0;"/><text fill="#000000" font-family="sans-serif" font-size="20" lengthAdjust="spacing" textLength="190" x="24.5" y="1141.7813">Customer Manager</text></g><!--entity LE--><g id="elem_LE"><ellipse cx="119.5" cy="1338.2168" fill="#FFFFFF" rx="8" ry="8" style="stroke:#800080;stroke-width:2.0;"/><path d="M119.5,1346.2168 L119.5,1373.2168 M106.5,1354.2168 L132.5,1354.2168 M119.5,1373.2168 L106.5,1388.2168 M119.5,1373.2168 L132.5,1388.2168 " fill="none" style="stroke:#800080;stroke-width:2.0;"/><text fill="#000000" font-family="sans-serif" font-size="20" lengthAdjust="spacing" textLength="195" x="22" y="1409.7813">Language Engineer</text></g><!--entity CA--><g id="elem_CA"><ellipse cx="119.5" cy="327.2168" fill="#FFFFFF" rx="8" ry="8" style="stroke:#FFA500;stroke-width:2.0;"/><path d="M119.5,335.2168 L119.5,362.2168 M106.5,343.2168 L132.5,343.2168 M119.5,362.2168 L106.5,377.2168 M119.5,362.2168 L132.5,377.2168 " fill="none" style="stroke:#FFA500;stroke-width:2.0;"/><text fill="#000000" font-family="sans-serif" font-size="20" lengthAdjust="spacing" textLength="103" x="68" y="398.7813">Candidate</text></g><!--entity EB--><g id="elem_EB"><ellipse cx="119.5" cy="186.2168" fill="#FFFFFF" rx="8" ry="8" style="stroke:#A52A2A;stroke-width:2.0;"/><path d="M119.5,194.2168 L119.5,221.2168 M106.5,202.2168 L132.5,202.2168 M119.5,221.2168 L106.5,236.2168 M119.5,221.2168 L132.5,236.2168 " fill="none" style="stroke:#A52A2A;stroke-width:2.0;"/><text fill="#000000" font-family="sans-serif" font-size="20" lengthAdjust="spacing" textLength="227" x="6" y="257.7813">Applications Email Bot</text></g><!--entity CU--><g id="elem_CU"><ellipse cx="119.5" cy="44.2168" fill="#FFFFFF" rx="8" ry="8" style="stroke:#9ACD32;stroke-width:2.0;"/><path d="M119.5,52.2168 L119.5,79.2168 M106.5,60.2168 L132.5,60.2168 M119.5,79.2168 L106.5,94.2168 M119.5,79.2168 L132.5,94.2168 " fill="none" style="stroke:#9ACD32;stroke-width:2.0;"/><text fill="#000000" font-family="sans-serif" font-size="20" lengthAdjust="spacing" textLength="97" x="71" y="115.7813">Customer</text></g><!--link PM to G001--><g id="link_PM_G001"><path d="M121.22,2060.0168 C125.24,1971.5368 147.95,1769.8468 269,1672.2168 C382.6,1580.5968 542.97,1557.2968 680.45,1558.1868 " fill="none" id="PM-to-G001" style="stroke:#181818;stroke-width:1.0;"/><polygon fill="#181818" points="685.75,1558.2268,676.7846,1554.1498,680.7502,1558.1839,676.716,1562.1495,685.75,1558.2268" style="stroke:#181818;stroke-width:1.0;"/></g><!--link PM to G002--><g id="link_PM_G002"><path d="M135.22,2059.8068 C155.97,2005.7968 199.27,1915.2068 269,1870.2168 C355.19,1814.6068 459.96,1784.9768 561.53,1770.2168 " fill="none" id="PM-to-G002" style="stroke:#181818;stroke-width:1.0;"/><polygon fill="#181818" points="566.67,1769.4868,557.1915,1766.8113,561.7211,1770.1999,558.3325,1774.7295,566.67,1769.4868" style="stroke:#181818;stroke-width:1.0;"/></g><!--link PM to G003--><g id="link_PM_G003"><path d="M158.78,2059.9868 C186.39,2031.9768 226.2,1997.5968 269,1980.2168 C437.65,1911.7468 648.31,1905.0768 792.11,1911.0268 " fill="none" id="PM-to-G003" style="stroke:#181818;stroke-width:1.0;"/><polygon fill="#181818" points="797.2,1911.2468,788.3795,1906.8651,792.2046,1911.0327,788.037,1914.8578,797.2,1911.2468" style="stroke:#181818;stroke-width:1.0;"/></g><!--link PM to G004--><g id="link_PM_G004"><path d="M200.85,2097.2768 C328.39,2087.8368 580.97,2069.1468 759.36,2055.9468 " fill="none" id="PM-to-G004" style="stroke:#181818;stroke-width:1.0;"/><polygon fill="#181818" points="764.35,2055.5768,755.0872,2052.2301,759.3628,2055.934,755.6588,2060.2096,764.35,2055.5768" style="stroke:#181818;stroke-width:1.0;"/></g><!--link PM to G005--><g id="link_PM_G005"><path d="M200.85,2109.1568 C326.3,2118.4468 572.72,2136.6768 750.53,2149.8268 " fill="none" id="PM-to-G005" style="stroke:#181818;stroke-width:1.0;"/><polygon fill="#181818" points="755.77,2150.2168,747.092,2145.5592,750.7838,2149.8453,746.4977,2153.5371,755.77,2150.2168" style="stroke:#181818;stroke-width:1.0;"/></g><!--link PM to G006--><g id="link_PM_G006"><path d="M158.1,2146.4168 C185.68,2174.9268 225.75,2210.2368 269,2228.2168 C424.73,2292.9468 616.92,2305.0468 758.8,2302.7568 " fill="none" id="PM-to-G006" style="stroke:#181818;stroke-width:1.0;"/><polygon fill="#181818" points="763.83,2302.6668,754.7628,2298.8216,758.8307,2302.7525,754.8999,2306.8205,763.83,2302.6668" style="stroke:#181818;stroke-width:1.0;"/></g><!--link PM to G007--><g id="link_PM_G007"><path d="M133.73,2146.5468 C153.44,2203.2268 196.22,2301.0768 269,2350.2168 C339.92,2398.0968 424.16,2427.9368 508.98,2446.0468 " fill="none" id="PM-to-G007" style="stroke:#181818;stroke-width:1.0;"/><polygon fill="#181818" points="514.05,2447.1168,506.0798,2441.3309,509.1595,2446.076,504.4145,2449.1557,514.05,2447.1168" style="stroke:#181818;stroke-width:1.0;"/></g><!--link PM to 2001--><g id="link_PM_2001"><path d="M120.76,2146.4168 C123.78,2238.7968 144.52,2456.4068 269,2570.2168 C304.36,2602.5468 344.99,2628.5768 388.46,2649.4668 " fill="none" id="PM-to-2001" style="stroke:#181818;stroke-width:1.0;"/><polygon fill="#181818" points="393.23,2651.7268,386.8057,2644.2617,388.7104,2649.5882,383.3839,2651.493,393.23,2651.7268" style="stroke:#181818;stroke-width:1.0;"/></g><!--link AD to UC1--><g id="link_AD_UC1"><path d="M152.58,561.1468 C253.4,554.6568 569.28,534.2968 774.34,521.0868 " fill="none" id="AD-to-UC1" style="stroke:#181818;stroke-width:1.0;"/><polygon fill="#181818" points="779.46,520.7568,770.2164,517.3573,774.4708,521.0856,770.7425,525.34,779.46,520.7568" style="stroke:#181818;stroke-width:1.0;"/></g><!--link AD to US1000--><g id="link_AD_US1000"><path d="M152.58,565.2468 C260.01,572.0368 611.68,594.2768 813.19,607.0268 " fill="none" id="AD-to-US1000" style="stroke:#181818;stroke-width:1.0;"/><polygon fill="#181818" points="818.22,607.3468,809.4895,602.7885,813.2299,607.0322,808.9862,610.7727,818.22,607.3468" style="stroke:#181818;stroke-width:1.0;"/></g><!--link CM to US1002--><g id="link_CM_US1002"><path d="M146.54,1060.0768 C172.34,1021.6868 215.68,967.7668 269,942.2168 C455.06,853.0468 702.27,862.4668 844.52,878.2568 " fill="none" id="CM-to-US1002" style="stroke:#181818;stroke-width:1.0;"/><polygon fill="#181818" points="849.54,878.8268,841.0415,873.8493,844.5711,878.2699,840.1505,881.7996,849.54,878.8268" style="stroke:#181818;stroke-width:1.0;"/></g><!--link OP to US2000a--><g id="link_OP_US2000a"><path d="M164.08,754.8268 C287.46,748.0568 642.56,728.5568 833.49,718.0768 " fill="none" id="OP-to-US2000a" style="stroke:#181818;stroke-width:1.0;"/><polygon fill="#181818" points="838.53,717.8068,829.3264,714.3005,833.5374,718.0778,829.7601,722.2888,838.53,717.8068" style="stroke:#181818;stroke-width:1.0;"/></g><!--link OP to US2002--><g id="link_OP_US2002"><path d="M164.08,759.5568 C286.38,766.1268 636.35,784.9168 828.43,795.2368 " fill="none" id="OP-to-US2002" style="stroke:#181818;stroke-width:1.0;"/><polygon fill="#181818" points="833.5,795.5068,824.7301,791.0248,828.5074,795.2358,824.2964,799.0131,833.5,795.5068" style="stroke:#181818;stroke-width:1.0;"/></g><!--link CM to US1007--><g id="link_CM_US1007"><path d="M214.54,1132.6768 C232.48,1137.4768 251.21,1141.9468 269,1145.2168 C431.78,1175.1668 618.98,1190.5468 757.21,1198.3668 " fill="none" id="CM-to-US1007" style="stroke:#181818;stroke-width:1.0;"/><polygon fill="#181818" points="762.52,1198.6568,753.7636,1194.1484,757.5282,1198.3707,753.3059,1202.1353,762.52,1198.6568" style="stroke:#181818;stroke-width:1.0;"/></g><!--link LE to US1008--><g id="link_LE_US1008"><path d="M217.04,1376.7468 C374.03,1385.7368 683.7,1403.4768 848.8,1412.9368 " fill="none" id="LE-to-US1008" style="stroke:#181818;stroke-width:1.0;"/><polygon fill="#181818" points="854.12,1413.2368,845.3636,1408.7284,849.1282,1412.9507,844.9059,1416.7153,854.12,1413.2368" style="stroke:#181818;stroke-width:1.0;"/></g><!--link CM to US1009--><g id="link_CM_US1009"><path d="M214.9,1072.8768 C232.72,1068.0068 251.32,1063.4968 269,1060.2168 C433.15,1029.7368 622.26,1014.9568 760.86,1007.8268 " fill="none" id="CM-to-US1009" style="stroke:#181818;stroke-width:1.0;"/><polygon fill="#181818" points="766.18,1007.5468,756.9864,1004.0143,761.1866,1007.8036,757.3973,1012.0038,766.18,1007.5468" style="stroke:#181818;stroke-width:1.0;"/></g><!--link CM to US1012--><g id="link_CM_US1012"><path d="M146.24,1146.3468 C171.98,1185.1268 215.4,1239.8968 269,1266.2168 C435.87,1348.1568 653.02,1351.4868 798.65,1341.3068 " fill="none" id="CM-to-US1012" style="stroke:#181818;stroke-width:1.0;"/><polygon fill="#181818" points="803.8,1340.9368,794.5372,1337.5901,798.8128,1341.294,795.1088,1345.5696,803.8,1340.9368" style="stroke:#181818;stroke-width:1.0;"/></g><!--link LE to US1012--><g id="link_LE_US1012"><path d="M217.04,1365.5768 C354.8,1357.5168 610.11,1342.5868 782.15,1332.5268 " fill="none" id="LE-to-US1012" style="stroke:#181818;stroke-width:1.0;"/><polygon fill="#181818" points="787.21,1332.2368,777.9959,1328.7583,782.2182,1332.5229,778.4536,1336.7452,787.21,1332.2368" style="stroke:#181818;stroke-width:1.0;"/></g><!--link CM to US1013--><g id="link_CM_US1013"><path d="M214.59,1103.2168 C368.35,1103.2168 673.08,1103.2168 840.87,1103.2168 " fill="none" id="CM-to-US1013" style="stroke:#181818;stroke-width:1.0;"/><polygon fill="#181818" points="846.29,1103.2168,837.29,1099.2168,841.29,1103.2168,837.29,1107.2168,846.29,1103.2168" style="stroke:#181818;stroke-width:1.0;"/></g><!--link CA to UC5--><g id="link_CA_UC5"><path d="M171.03,360.2168 C299.61,360.2168 642.28,360.2168 830.42,360.2168 " fill="none" id="CA-to-UC5" style="stroke:#181818;stroke-width:1.0;"/><polygon fill="#181818" points="835.66,360.2168,826.66,356.2168,830.66,360.2168,826.66,364.2168,835.66,360.2168" style="stroke:#181818;stroke-width:1.0;"/></g><!--link EB to UC6--><g id="link_EB_UC6"><path d="M233.08,219.2168 C381.23,219.2168 642.14,219.2168 807.36,219.2168 " fill="none" id="EB-to-UC6" style="stroke:#181818;stroke-width:1.0;"/><polygon fill="#181818" points="812.71,219.2168,803.71,215.2168,807.71,219.2168,803.71,223.2168,812.71,219.2168" style="stroke:#181818;stroke-width:1.0;"/></g><!--link CU to UC7--><g id="link_CU_UC7"><path d="M168.26,77.2168 C293.89,77.2168 636.98,77.2168 827.17,77.2168 " fill="none" id="CU-to-UC7" style="stroke:#181818;stroke-width:1.0;"/><polygon fill="#181818" points="832.19,77.2168,823.19,73.2168,827.19,77.2168,823.19,81.2168,832.19,77.2168" style="stroke:#181818;stroke-width:1.0;"/></g><!--SRC=[XLNRJXin47tVhnZHruAIS0aKgL980ce58eBc0vpTsOsBrzxw0gHL_xrZEqlM8ILvYCREcPapnpCJyyHbmpIhXSgVi802I-Q4lLRIFlBV28DUbWaiBLW5cbTB2mNNc5kkP9Qnt2eD1pEjVj8Lt379AjG7m0pCxk3Jov9Rl1HSufU5OFbJC8yMIXIN5bzjlCmo7ux9IY0yhep56lvaG1zdC6S6uU1Q2Q5Um2uHBEPBoNCc85VIMCsuj0QOBFmvHoqDg38WcyWfSBdfzVffo3bzUHHLIvIA5WqQ6sKu5RKAGGrQrm2ZsfM0aafjSNMej4Rvbc2G9XWhMVBAQUoI0MBiSakthTTnwlMupaV5M2wTSWQeGAmqyteJ7VsybfTyJrBVKL64N19pD8PH1IRNl25vwELsA7AQkay5MoZAWvH-eceI5kvKWO8GN5OmcKnQnxCjpgvfbBP1BzOqWfHpb8uAo2Fhy0DTASr_nnkl91C2E96ZE3g-OEbaQ2ickELeZjfympGVDPilC9HKSe765rQud5vniGgt8sAnJcvWIgK8k5BsCnYl0xCUiuASILWWyDgJ9r_IESfaOWzIB2w928LvnhQfxXiaYLHyWe7lghzPHfr-UFWrDjd67dJiuuvzqh5FE_PPnnwsTaZHJjcegBaCcKUJPBOq5hidQ-sOiBwVRSsbmm-TnyvOLQDEXdkS3dUb4UM7KMvflXsvmrHM15k7kPqcOHgd6u5xbyGLdLLPyXot5qMa22tbs5PhtYPad8_xErqwCUVc3VpOx_LwE_7VrS8tWwJHw607k-aG2rxGPBL8UjKUsmdjTku6FDX70TgPc2q9qI4qtEav4uuUeGCxtvlW0NyvMlj-uNNyBbA_6vGODmZ9FdqDM-47reterDxlzRVAUM3owRr6X3lsmqMjxWV1lrjhnbSPtsrEWuowEfwYjjtZ884ECsgwjzDvyjj5zqGqEyX-4eMelOr7IppEnIXfQDgdijhVq9iWlW4E_lFtzxutngTU8SeP5JhTR8gT2p0uJQ_IyTVgHUudc0Iyvdu8VRmjej_2BeLtu9RkcQTB12BTisnxnKG9vmd15VhYFrWmYOxjhlf0nlUJEnu66UThNiFi7m00]--></g></svg>