<?xml version="1.0" encoding="UTF-8" standalone="no"?><svg xmlns="http://www.w3.org/2000/svg" xmlns:xlink="http://www.w3.org/1999/xlink" contentStyleType="text/css" height="2003px" preserveAspectRatio="none" style="width:4449px;height:2003px;background:#FFFFFF;" version="1.1" viewBox="0 0 4449 2003" width="4449px" zoomAndPan="magnify"><defs/><g><text fill="#000000" font-family="sans-serif" font-size="14" font-weight="bold" lengthAdjust="spacing" textLength="739" x="1856.5" y="27.9951">UI Sequence Diagram (SSD) - Get an ordered list of candidates, using the job interview points</text><rect fill="#FFFFFF" height="1770.625" style="stroke:#181818;stroke-width:1.0;" width="10" x="133" y="135.5781"/><rect fill="#FFFFFF" height="98.8438" style="stroke:#181818;stroke-width:1.0;" width="10" x="651" y="164.8594"/><rect fill="#FFFFFF" height="606.7813" style="stroke:#181818;stroke-width:1.0;" width="10" x="651" y="300.9844"/><rect fill="#FFFFFF" height="37.2813" style="stroke:#181818;stroke-width:1.0;" width="10" x="651" y="1026.1719"/><rect fill="#FFFFFF" height="742.9063" style="stroke:#181818;stroke-width:1.0;" width="10" x="651" y="1141.2969"/><rect fill="#FFFFFF" height="532.2188" style="stroke:#181818;stroke-width:1.0;" width="10" x="1441" y="338.2656"/><rect fill="#FFFFFF" height="532.2188" style="stroke:#181818;stroke-width:1.0;" width="10" x="1441" y="1314.7031"/><rect fill="#FFFFFF" height="457.6563" style="stroke:#181818;stroke-width:1.0;" width="10" x="2258" y="375.5469"/><rect fill="#FFFFFF" height="457.6563" style="stroke:#181818;stroke-width:1.0;" width="10" x="2258" y="1351.9844"/><rect fill="#FFFFFF" height="186.4063" style="stroke:#181818;stroke-width:1.0;" width="10" x="2852" y="412.8281"/><rect fill="#FFFFFF" height="186.4063" style="stroke:#181818;stroke-width:1.0;" width="10" x="2852" y="1389.2656"/><rect fill="#FFFFFF" height="111.8438" style="stroke:#181818;stroke-width:1.0;" width="10" x="3446" y="450.1094"/><rect fill="#FFFFFF" height="111.8438" style="stroke:#181818;stroke-width:1.0;" width="10" x="3446" y="1426.5469"/><rect fill="#FFFFFF" height="111.8438" style="stroke:#181818;stroke-width:1.0;" width="10" x="3631.5" y="677.0781"/><rect fill="#FFFFFF" height="111.8438" style="stroke:#181818;stroke-width:1.0;" width="10" x="3631.5" y="1653.5156"/><rect fill="#FFFFFF" height="37.2813" style="stroke:#181818;stroke-width:1.0;" width="10" x="3833.5" y="714.3594"/><rect fill="#FFFFFF" height="37.2813" style="stroke:#181818;stroke-width:1.0;" width="10" x="3833.5" y="1690.7969"/><rect fill="#FFFFFF" height="37.2813" style="stroke:#181818;stroke-width:1.0;" width="10" x="4368" y="487.3906"/><rect fill="#FFFFFF" height="37.2813" style="stroke:#181818;stroke-width:1.0;" width="10" x="4368" y="1463.8281"/><rect fill="none" height="182.6875" style="stroke:#000000;stroke-width:1.5;" width="1783" x="2140.5" y="614.2344"/><rect fill="none" height="976.4375" style="stroke:#000000;stroke-width:1.5;" width="4433" x="10" y="922.7656"/><rect fill="none" height="928.875" style="stroke:#000000;stroke-width:1.5;" width="4413" x="20" y="963.3281"/><rect fill="none" height="133.4063" style="stroke:#000000;stroke-width:1.5;" width="817" x="30" y="1078.4531"/><rect fill="none" height="182.6875" style="stroke:#000000;stroke-width:1.5;" width="1783" x="2140.5" y="1590.6719"/><line style="stroke:#181818;stroke-width:0.5;stroke-dasharray:5.0,5.0;" x1="138" x2="138" y1="125.5781" y2="1916.2031"/><line style="stroke:#181818;stroke-width:0.5;stroke-dasharray:5.0,5.0;" x1="656" x2="656" y1="125.5781" y2="1916.2031"/><line style="stroke:#181818;stroke-width:0.5;stroke-dasharray:5.0,5.0;" x1="1446" x2="1446" y1="125.5781" y2="1916.2031"/><line style="stroke:#181818;stroke-width:0.5;stroke-dasharray:5.0,5.0;" x1="2262.5" x2="2262.5" y1="125.5781" y2="1916.2031"/><line style="stroke:#181818;stroke-width:0.5;stroke-dasharray:5.0,5.0;" x1="2856.5" x2="2856.5" y1="125.5781" y2="1916.2031"/><line style="stroke:#181818;stroke-width:0.5;stroke-dasharray:5.0,5.0;" x1="3451" x2="3451" y1="125.5781" y2="1916.2031"/><line style="stroke:#181818;stroke-width:0.5;stroke-dasharray:5.0,5.0;" x1="3636" x2="3636" y1="125.5781" y2="1916.2031"/><line style="stroke:#181818;stroke-width:0.5;stroke-dasharray:5.0,5.0;" x1="3838.5" x2="3838.5" y1="125.5781" y2="1916.2031"/><line style="stroke:#181818;stroke-width:0.5;stroke-dasharray:5.0,5.0;" x1="4373" x2="4373" y1="125.5781" y2="1916.2031"/><text fill="#000000" font-family="sans-serif" font-size="20" lengthAdjust="spacing" textLength="190" x="40" y="120.8613">Customer Manager</text><ellipse cx="138" cy="50.7969" fill="#E3E3E3" rx="8" ry="8" style="stroke:#181818;stroke-width:0.5;"/><path d="M138,58.7969 L138,85.7969 M125,66.7969 L151,66.7969 M138,85.7969 L125,100.7969 M138,85.7969 L151,100.7969 " fill="none" style="stroke:#181818;stroke-width:0.5;"/><text fill="#000000" font-family="sans-serif" font-size="20" lengthAdjust="spacing" textLength="190" x="40" y="1933.7676">Customer Manager</text><ellipse cx="138" cy="1946.9844" fill="#E3E3E3" rx="8" ry="8" style="stroke:#181818;stroke-width:0.5;"/><path d="M138,1954.9844 L138,1981.9844 M125,1962.9844 L151,1962.9844 M138,1981.9844 L125,1996.9844 M138,1981.9844 L151,1996.9844 " fill="none" style="stroke:#181818;stroke-width:0.5;"/><rect fill="#E3E3E3" height="37.2813" rx="2.5" ry="2.5" style="stroke:#181818;stroke-width:0.5;" width="362" x="475" y="87.2969"/><text fill="#000000" font-family="sans-serif" font-size="20" lengthAdjust="spacing" textLength="348" x="482" y="112.8613">ListCandidatesByInterviewPointsUI</text><rect fill="#E3E3E3" height="37.2813" rx="2.5" ry="2.5" style="stroke:#181818;stroke-width:0.5;" width="362" x="475" y="1915.2031"/><text fill="#000000" font-family="sans-serif" font-size="20" lengthAdjust="spacing" textLength="348" x="482" y="1940.7676">ListCandidatesByInterviewPointsUI</text><rect fill="#E3E3E3" height="37.2813" rx="2.5" ry="2.5" style="stroke:#181818;stroke-width:0.5;" width="440" x="1226" y="87.2969"/><text fill="#000000" font-family="sans-serif" font-size="20" lengthAdjust="spacing" textLength="426" x="1233" y="112.8613">ListCandidatesByInterviewPointsController</text><rect fill="#E3E3E3" height="37.2813" rx="2.5" ry="2.5" style="stroke:#181818;stroke-width:0.5;" width="440" x="1226" y="1915.2031"/><text fill="#000000" font-family="sans-serif" font-size="20" lengthAdjust="spacing" textLength="426" x="1233" y="1940.7676">ListCandidatesByInterviewPointsController</text><rect fill="#E3E3E3" height="37.2813" rx="2.5" ry="2.5" style="stroke:#181818;stroke-width:0.5;" width="225" x="2150.5" y="87.2969"/><text fill="#000000" font-family="sans-serif" font-size="20" lengthAdjust="spacing" textLength="211" x="2157.5" y="112.8613">ListInterviewsService</text><rect fill="#E3E3E3" height="37.2813" rx="2.5" ry="2.5" style="stroke:#181818;stroke-width:0.5;" width="225" x="2150.5" y="1915.2031"/><text fill="#000000" font-family="sans-serif" font-size="20" lengthAdjust="spacing" textLength="211" x="2157.5" y="1940.7676">ListInterviewsService</text><rect fill="#E3E3E3" height="37.2813" rx="2.5" ry="2.5" style="stroke:#181818;stroke-width:0.5;" width="213" x="2750.5" y="87.2969"/><text fill="#000000" font-family="sans-serif" font-size="20" lengthAdjust="spacing" textLength="199" x="2757.5" y="112.8613">InterviewRepository</text><rect fill="#E3E3E3" height="37.2813" rx="2.5" ry="2.5" style="stroke:#181818;stroke-width:0.5;" width="213" x="2750.5" y="1915.2031"/><text fill="#000000" font-family="sans-serif" font-size="20" lengthAdjust="spacing" textLength="199" x="2757.5" y="1940.7676">InterviewRepository</text><rect fill="#E3E3E3" height="37.2813" rx="2.5" ry="2.5" style="stroke:#181818;stroke-width:0.5;" width="244" x="3329" y="87.2969"/><text fill="#000000" font-family="sans-serif" font-size="20" lengthAdjust="spacing" textLength="230" x="3336" y="112.8613">JpaInterviewRepository</text><rect fill="#E3E3E3" height="37.2813" rx="2.5" ry="2.5" style="stroke:#181818;stroke-width:0.5;" width="244" x="3329" y="1915.2031"/><text fill="#000000" font-family="sans-serif" font-size="20" lengthAdjust="spacing" textLength="230" x="3336" y="1940.7676">JpaInterviewRepository</text><rect fill="#E3E3E3" height="37.2813" rx="2.5" ry="2.5" style="stroke:#181818;stroke-width:0.5;" width="107" x="3583" y="87.2969"/><text fill="#000000" font-family="sans-serif" font-size="20" lengthAdjust="spacing" textLength="93" x="3590" y="112.8613">Interview</text><rect fill="#E3E3E3" height="37.2813" rx="2.5" ry="2.5" style="stroke:#181818;stroke-width:0.5;" width="107" x="3583" y="1915.2031"/><text fill="#000000" font-family="sans-serif" font-size="20" lengthAdjust="spacing" textLength="93" x="3590" y="1940.7676">Interview</text><rect fill="#E3E3E3" height="37.2813" rx="2.5" ry="2.5" style="stroke:#181818;stroke-width:0.5;" width="150" x="3763.5" y="87.2969"/><text fill="#000000" font-family="sans-serif" font-size="20" lengthAdjust="spacing" textLength="136" x="3770.5" y="112.8613">InterviewDTO</text><rect fill="#E3E3E3" height="37.2813" rx="2.5" ry="2.5" style="stroke:#181818;stroke-width:0.5;" width="150" x="3763.5" y="1915.2031"/><text fill="#000000" font-family="sans-serif" font-size="20" lengthAdjust="spacing" textLength="136" x="3770.5" y="1940.7676">InterviewDTO</text><text fill="#000000" font-family="sans-serif" font-size="20" lengthAdjust="spacing" textLength="94" x="4323" y="120.8613">Database</text><path d="M4355,66.2969 C4355,56.2969 4373,56.2969 4373,56.2969 C4373,56.2969 4391,56.2969 4391,66.2969 L4391,92.2969 C4391,102.2969 4373,102.2969 4373,102.2969 C4373,102.2969 4355,102.2969 4355,92.2969 L4355,66.2969 " fill="#E3E3E3" style="stroke:#181818;stroke-width:1.5;"/><path d="M4355,66.2969 C4355,76.2969 4373,76.2969 4373,76.2969 C4373,76.2969 4391,76.2969 4391,66.2969 " fill="none" style="stroke:#181818;stroke-width:1.5;"/><text fill="#000000" font-family="sans-serif" font-size="20" lengthAdjust="spacing" textLength="94" x="4323" y="1933.7676">Database</text><path d="M4355,1948.4844 C4355,1938.4844 4373,1938.4844 4373,1938.4844 C4373,1938.4844 4391,1938.4844 4391,1948.4844 L4391,1974.4844 C4391,1984.4844 4373,1984.4844 4373,1984.4844 C4373,1984.4844 4355,1984.4844 4355,1974.4844 L4355,1948.4844 " fill="#E3E3E3" style="stroke:#181818;stroke-width:1.5;"/><path d="M4355,1948.4844 C4355,1958.4844 4373,1958.4844 4373,1958.4844 C4373,1958.4844 4391,1958.4844 4391,1948.4844 " fill="none" style="stroke:#181818;stroke-width:1.5;"/><rect fill="#FFFFFF" height="1770.625" style="stroke:#181818;stroke-width:1.0;" width="10" x="133" y="135.5781"/><rect fill="#FFFFFF" height="98.8438" style="stroke:#181818;stroke-width:1.0;" width="10" x="651" y="164.8594"/><rect fill="#FFFFFF" height="606.7813" style="stroke:#181818;stroke-width:1.0;" width="10" x="651" y="300.9844"/><rect fill="#FFFFFF" height="37.2813" style="stroke:#181818;stroke-width:1.0;" width="10" x="651" y="1026.1719"/><rect fill="#FFFFFF" height="742.9063" style="stroke:#181818;stroke-width:1.0;" width="10" x="651" y="1141.2969"/><rect fill="#FFFFFF" height="532.2188" style="stroke:#181818;stroke-width:1.0;" width="10" x="1441" y="338.2656"/><rect fill="#FFFFFF" height="532.2188" style="stroke:#181818;stroke-width:1.0;" width="10" x="1441" y="1314.7031"/><rect fill="#FFFFFF" height="457.6563" style="stroke:#181818;stroke-width:1.0;" width="10" x="2258" y="375.5469"/><rect fill="#FFFFFF" height="457.6563" style="stroke:#181818;stroke-width:1.0;" width="10" x="2258" y="1351.9844"/><rect fill="#FFFFFF" height="186.4063" style="stroke:#181818;stroke-width:1.0;" width="10" x="2852" y="412.8281"/><rect fill="#FFFFFF" height="186.4063" style="stroke:#181818;stroke-width:1.0;" width="10" x="2852" y="1389.2656"/><rect fill="#FFFFFF" height="111.8438" style="stroke:#181818;stroke-width:1.0;" width="10" x="3446" y="450.1094"/><rect fill="#FFFFFF" height="111.8438" style="stroke:#181818;stroke-width:1.0;" width="10" x="3446" y="1426.5469"/><rect fill="#FFFFFF" height="111.8438" style="stroke:#181818;stroke-width:1.0;" width="10" x="3631.5" y="677.0781"/><rect fill="#FFFFFF" height="111.8438" style="stroke:#181818;stroke-width:1.0;" width="10" x="3631.5" y="1653.5156"/><rect fill="#FFFFFF" height="37.2813" style="stroke:#181818;stroke-width:1.0;" width="10" x="3833.5" y="714.3594"/><rect fill="#FFFFFF" height="37.2813" style="stroke:#181818;stroke-width:1.0;" width="10" x="3833.5" y="1690.7969"/><rect fill="#FFFFFF" height="37.2813" style="stroke:#181818;stroke-width:1.0;" width="10" x="4368" y="487.3906"/><rect fill="#FFFFFF" height="37.2813" style="stroke:#181818;stroke-width:1.0;" width="10" x="4368" y="1463.8281"/><polygon fill="#181818" points="639,160.8594,649,164.8594,639,168.8594,643,164.8594" style="stroke:#181818;stroke-width:1.0;"/><line style="stroke:#181818;stroke-width:1.0;" x1="143" x2="645" y1="164.8594" y2="164.8594"/><text fill="#000000" font-family="sans-serif" font-size="20" font-weight="bold" lengthAdjust="spacing" textLength="14" x="150" y="158.1426">1</text><text fill="#000000" font-family="sans-serif" font-size="20" lengthAdjust="spacing" textLength="471" x="168" y="158.1426">Asks for a list of candidates by interview points</text><rect fill="none" height="56.5625" style="stroke:#000000;stroke-width:1.5;" width="3954" x="472" y="172.8594"/><path d="M472,172.8594 L550,172.8594 L550,187.8594 L540,197.8594 L472,197.8594 L472,172.8594 " fill="#EEEEEE" style="stroke:#000000;stroke-width:2.0;"/><text fill="#000000" font-family="sans-serif" font-size="20" font-weight="bold" lengthAdjust="spacing" textLength="33" x="485" y="193.4238">ref</text><text fill="#000000" font-family="sans-serif" font-size="20" lengthAdjust="spacing" textLength="273" x="2312.5" y="220.4238">US1003 - List Job Openings</text><polygon fill="#181818" points="154,259.7031,144,263.7031,154,267.7031,150,263.7031" style="stroke:#181818;stroke-width:1.0;"/><line style="stroke:#181818;stroke-width:1.0;" x1="148" x2="655" y1="263.7031" y2="263.7031"/><text fill="#000000" font-family="sans-serif" font-size="20" font-weight="bold" lengthAdjust="spacing" textLength="14" x="160" y="256.9863">2</text><text fill="#000000" font-family="sans-serif" font-size="20" lengthAdjust="spacing" textLength="361" x="178" y="256.9863">Shows list of available Job Openings</text><polygon fill="#181818" points="639,296.9844,649,300.9844,639,304.9844,643,300.9844" style="stroke:#181818;stroke-width:1.0;"/><line style="stroke:#181818;stroke-width:1.0;" x1="143" x2="645" y1="300.9844" y2="300.9844"/><text fill="#000000" font-family="sans-serif" font-size="20" font-weight="bold" lengthAdjust="spacing" textLength="14" x="150" y="294.2676">3</text><text fill="#000000" font-family="sans-serif" font-size="20" lengthAdjust="spacing" textLength="219" x="168" y="294.2676">Selects a Job Opening</text><polygon fill="#181818" points="1429,334.2656,1439,338.2656,1429,342.2656,1433,338.2656" style="stroke:#181818;stroke-width:1.0;"/><line style="stroke:#181818;stroke-width:1.0;" x1="661" x2="1435" y1="338.2656" y2="338.2656"/><text fill="#000000" font-family="sans-serif" font-size="20" font-weight="bold" lengthAdjust="spacing" textLength="14" x="668" y="331.5488">4</text><text fill="#000000" font-family="sans-serif" font-size="20" lengthAdjust="spacing" textLength="696" x="686" y="331.5488">sortedCandidatesByInterviewPointsForJobOpening(jobOpening, false)</text><polygon fill="#181818" points="2246,371.5469,2256,375.5469,2246,379.5469,2250,375.5469" style="stroke:#181818;stroke-width:1.0;"/><line style="stroke:#181818;stroke-width:1.0;" x1="1451" x2="2252" y1="375.5469" y2="375.5469"/><text fill="#000000" font-family="sans-serif" font-size="20" font-weight="bold" lengthAdjust="spacing" textLength="14" x="1458" y="368.8301">5</text><text fill="#000000" font-family="sans-serif" font-size="20" lengthAdjust="spacing" textLength="723" x="1476" y="368.8301">allCandidatesSortedByInterviewPointsForJobOpening(jobOpening, false)</text><polygon fill="#181818" points="2840,408.8281,2850,412.8281,2840,416.8281,2844,412.8281" style="stroke:#181818;stroke-width:1.0;"/><line style="stroke:#181818;stroke-width:1.0;" x1="2268" x2="2846" y1="412.8281" y2="412.8281"/><text fill="#000000" font-family="sans-serif" font-size="20" font-weight="bold" lengthAdjust="spacing" textLength="14" x="2275" y="406.1113">6</text><text fill="#000000" font-family="sans-serif" font-size="20" lengthAdjust="spacing" textLength="500" x="2293" y="406.1113">sortedInterviewsByJobOpening(jobOpening, false)</text><polygon fill="#181818" points="3434,446.1094,3444,450.1094,3434,454.1094,3438,450.1094" style="stroke:#181818;stroke-width:1.0;"/><line style="stroke:#181818;stroke-width:1.0;" x1="2862" x2="3440" y1="450.1094" y2="450.1094"/><text fill="#000000" font-family="sans-serif" font-size="20" font-weight="bold" lengthAdjust="spacing" textLength="14" x="2869" y="443.3926">7</text><text fill="#000000" font-family="sans-serif" font-size="20" lengthAdjust="spacing" textLength="500" x="2887" y="443.3926">sortedInterviewsByJobOpening(jobOpening, false)</text><polygon fill="#181818" points="4356,483.3906,4366,487.3906,4356,491.3906,4360,487.3906" style="stroke:#181818;stroke-width:1.0;"/><line style="stroke:#181818;stroke-width:1.0;" x1="3456" x2="4362" y1="487.3906" y2="487.3906"/><text fill="#000000" font-family="sans-serif" font-size="20" font-weight="bold" lengthAdjust="spacing" textLength="14" x="3463" y="480.6738">8</text><text fill="#000000" font-family="sans-serif" font-size="20" lengthAdjust="spacing" textLength="861" x="3481" y="480.6738">match("e.application.jobOpening=:jobOpening ORDER BY e.grade " + order, params)</text><polygon fill="#181818" points="3467,520.6719,3457,524.6719,3467,528.6719,3463,524.6719" style="stroke:#181818;stroke-width:1.0;"/><line style="stroke:#181818;stroke-width:1.0;stroke-dasharray:2.0,2.0;" x1="3461" x2="4372" y1="524.6719" y2="524.6719"/><text fill="#000000" font-family="sans-serif" font-size="20" font-weight="bold" lengthAdjust="spacing" textLength="14" x="3473" y="517.9551">9</text><text fill="#000000" font-family="sans-serif" font-size="20" lengthAdjust="spacing" textLength="204" x="3491" y="517.9551">Iterable&lt;Interview&gt;</text><polygon fill="#181818" points="2873,557.9531,2863,561.9531,2873,565.9531,2869,561.9531" style="stroke:#181818;stroke-width:1.0;"/><line style="stroke:#181818;stroke-width:1.0;stroke-dasharray:2.0,2.0;" x1="2867" x2="3450" y1="561.9531" y2="561.9531"/><text fill="#000000" font-family="sans-serif" font-size="20" font-weight="bold" lengthAdjust="spacing" textLength="28" x="2879" y="555.2363">10</text><text fill="#000000" font-family="sans-serif" font-size="20" lengthAdjust="spacing" textLength="204" x="2911" y="555.2363">Iterable&lt;Interview&gt;</text><polygon fill="#181818" points="2279,595.2344,2269,599.2344,2279,603.2344,2275,599.2344" style="stroke:#181818;stroke-width:1.0;"/><line style="stroke:#181818;stroke-width:1.0;stroke-dasharray:2.0,2.0;" x1="2273" x2="2856" y1="599.2344" y2="599.2344"/><text fill="#000000" font-family="sans-serif" font-size="20" font-weight="bold" lengthAdjust="spacing" textLength="28" x="2285" y="592.5176">11</text><text fill="#000000" font-family="sans-serif" font-size="20" lengthAdjust="spacing" textLength="204" x="2317" y="592.5176">Iterable&lt;Interview&gt;</text><path d="M2140.5,614.2344 L2234.5,614.2344 L2234.5,629.5156 L2224.5,639.5156 L2140.5,639.5156 L2140.5,614.2344 " fill="#EEEEEE" style="stroke:#000000;stroke-width:1.5;"/><rect fill="none" height="182.6875" style="stroke:#000000;stroke-width:1.5;" width="1783" x="2140.5" y="614.2344"/><text fill="#000000" font-family="sans-serif" font-size="20" font-weight="bold" lengthAdjust="spacing" textLength="49" x="2155.5" y="633.7988">loop</text><text fill="#000000" font-family="sans-serif" font-size="20" font-weight="bold" lengthAdjust="spacing" textLength="226" x="2249.5" y="634.7988">[for each interview]</text><polygon fill="#181818" points="3619.5,673.0781,3629.5,677.0781,3619.5,681.0781,3623.5,677.0781" style="stroke:#181818;stroke-width:1.0;"/><line style="stroke:#181818;stroke-width:1.0;" x1="2268" x2="3625.5" y1="677.0781" y2="677.0781"/><text fill="#000000" font-family="sans-serif" font-size="20" font-weight="bold" lengthAdjust="spacing" textLength="28" x="2275" y="670.3613">12</text><text fill="#000000" font-family="sans-serif" font-size="20" lengthAdjust="spacing" textLength="79" x="2307" y="670.3613">toDTO()</text><polygon fill="#181818" points="3821.5,710.3594,3831.5,714.3594,3821.5,718.3594,3825.5,714.3594" style="stroke:#181818;stroke-width:1.0;"/><line style="stroke:#181818;stroke-width:1.0;stroke-dasharray:2.0,2.0;" x1="3641.5" x2="3827.5" y1="714.3594" y2="714.3594"/><text fill="#000000" font-family="sans-serif" font-size="20" font-weight="bold" lengthAdjust="spacing" textLength="28" x="3648.5" y="707.6426">13</text><text fill="#000000" font-family="sans-serif" font-size="20" lengthAdjust="spacing" textLength="63" x="3680.5" y="707.6426">create</text><polygon fill="#181818" points="3652.5,747.6406,3642.5,751.6406,3652.5,755.6406,3648.5,751.6406" style="stroke:#181818;stroke-width:1.0;"/><line style="stroke:#181818;stroke-width:1.0;stroke-dasharray:2.0,2.0;" x1="3646.5" x2="3837.5" y1="751.6406" y2="751.6406"/><text fill="#000000" font-family="sans-serif" font-size="20" font-weight="bold" lengthAdjust="spacing" textLength="28" x="3658.5" y="744.9238">14</text><text fill="#000000" font-family="sans-serif" font-size="20" lengthAdjust="spacing" textLength="136" x="3690.5" y="744.9238">InterviewDTO</text><polygon fill="#181818" points="2279,784.9219,2269,788.9219,2279,792.9219,2275,788.9219" style="stroke:#181818;stroke-width:1.0;"/><line style="stroke:#181818;stroke-width:1.0;stroke-dasharray:2.0,2.0;" x1="2273" x2="3635.5" y1="788.9219" y2="788.9219"/><text fill="#000000" font-family="sans-serif" font-size="20" font-weight="bold" lengthAdjust="spacing" textLength="28" x="2285" y="782.2051">15</text><text fill="#000000" font-family="sans-serif" font-size="20" lengthAdjust="spacing" textLength="136" x="2317" y="782.2051">InterviewDTO</text><polygon fill="#181818" points="1462,829.2031,1452,833.2031,1462,837.2031,1458,833.2031" style="stroke:#181818;stroke-width:1.0;"/><line style="stroke:#181818;stroke-width:1.0;stroke-dasharray:2.0,2.0;" x1="1456" x2="2262" y1="833.2031" y2="833.2031"/><text fill="#000000" font-family="sans-serif" font-size="20" font-weight="bold" lengthAdjust="spacing" textLength="28" x="1468" y="826.4863">16</text><text fill="#000000" font-family="sans-serif" font-size="20" lengthAdjust="spacing" textLength="247" x="1500" y="826.4863">Iterable&lt;InterviewDTO&gt;</text><polygon fill="#181818" points="672,866.4844,662,870.4844,672,874.4844,668,870.4844" style="stroke:#181818;stroke-width:1.0;"/><line style="stroke:#181818;stroke-width:1.0;stroke-dasharray:2.0,2.0;" x1="666" x2="1445" y1="870.4844" y2="870.4844"/><text fill="#000000" font-family="sans-serif" font-size="20" font-weight="bold" lengthAdjust="spacing" textLength="28" x="678" y="863.7676">17</text><text fill="#000000" font-family="sans-serif" font-size="20" lengthAdjust="spacing" textLength="247" x="710" y="863.7676">Iterable&lt;InterviewDTO&gt;</text><polygon fill="#181818" points="154,903.7656,144,907.7656,154,911.7656,150,907.7656" style="stroke:#181818;stroke-width:1.0;"/><line style="stroke:#181818;stroke-width:1.0;stroke-dasharray:2.0,2.0;" x1="148" x2="655" y1="907.7656" y2="907.7656"/><text fill="#000000" font-family="sans-serif" font-size="20" font-weight="bold" lengthAdjust="spacing" textLength="28" x="160" y="901.0488">18</text><text fill="#000000" font-family="sans-serif" font-size="20" lengthAdjust="spacing" textLength="373" x="192" y="901.0488">List of candidates by interview points</text><path d="M10,922.7656 L93,922.7656 L93,938.0469 L83,948.0469 L10,948.0469 L10,922.7656 " fill="#EEEEEE" style="stroke:#000000;stroke-width:1.5;"/><rect fill="none" height="976.4375" style="stroke:#000000;stroke-width:1.5;" width="4433" x="10" y="922.7656"/><text fill="#000000" font-family="sans-serif" font-size="20" font-weight="bold" lengthAdjust="spacing" textLength="38" x="25" y="942.3301">opt</text><text fill="#000000" font-family="sans-serif" font-size="20" font-weight="bold" lengthAdjust="spacing" textLength="119" x="108" y="943.3301">[sorts list]</text><path d="M20,963.3281 L114,963.3281 L114,978.6094 L104,988.6094 L20,988.6094 L20,963.3281 " fill="#EEEEEE" style="stroke:#000000;stroke-width:1.5;"/><rect fill="none" height="928.875" style="stroke:#000000;stroke-width:1.5;" width="4413" x="20" y="963.3281"/><text fill="#000000" font-family="sans-serif" font-size="20" font-weight="bold" lengthAdjust="spacing" textLength="49" x="35" y="982.8926">loop</text><text fill="#000000" font-family="sans-serif" font-size="20" font-weight="bold" lengthAdjust="spacing" textLength="470" x="129" y="983.8926">[until Customer Manager decides to exit]</text><polygon fill="#181818" points="639,1022.1719,649,1026.1719,639,1030.1719,643,1026.1719" style="stroke:#181818;stroke-width:1.0;"/><line style="stroke:#181818;stroke-width:1.0;" x1="143" x2="645" y1="1026.1719" y2="1026.1719"/><text fill="#000000" font-family="sans-serif" font-size="20" font-weight="bold" lengthAdjust="spacing" textLength="28" x="150" y="1019.4551">19</text><text fill="#000000" font-family="sans-serif" font-size="20" lengthAdjust="spacing" textLength="332" x="182" y="1019.4551">Asks to sort the list of candidates</text><polygon fill="#181818" points="154,1059.4531,144,1063.4531,154,1067.4531,150,1063.4531" style="stroke:#181818;stroke-width:1.0;"/><line style="stroke:#181818;stroke-width:1.0;stroke-dasharray:2.0,2.0;" x1="148" x2="655" y1="1063.4531" y2="1063.4531"/><text fill="#000000" font-family="sans-serif" font-size="20" font-weight="bold" lengthAdjust="spacing" textLength="28" x="160" y="1056.7363">20</text><text fill="#000000" font-family="sans-serif" font-size="20" lengthAdjust="spacing" textLength="240" x="192" y="1056.7363">Provides sorting options</text><path d="M30,1078.4531 L106,1078.4531 L106,1093.7344 L96,1103.7344 L30,1103.7344 L30,1078.4531 " fill="#EEEEEE" style="stroke:#000000;stroke-width:1.5;"/><rect fill="none" height="133.4063" style="stroke:#000000;stroke-width:1.5;" width="817" x="30" y="1078.4531"/><text fill="#000000" font-family="sans-serif" font-size="20" font-weight="bold" lengthAdjust="spacing" textLength="31" x="45" y="1098.0176">alt</text><text fill="#000000" font-family="sans-serif" font-size="20" font-weight="bold" lengthAdjust="spacing" textLength="236" x="121" y="1099.0176">[by ascending order]</text><polygon fill="#181818" points="639,1137.2969,649,1141.2969,639,1145.2969,643,1141.2969" style="stroke:#181818;stroke-width:1.0;"/><line style="stroke:#181818;stroke-width:1.0;" x1="143" x2="645" y1="1141.2969" y2="1141.2969"/><text fill="#000000" font-family="sans-serif" font-size="20" font-weight="bold" lengthAdjust="spacing" textLength="28" x="150" y="1134.5801">21</text><text fill="#000000" font-family="sans-serif" font-size="20" lengthAdjust="spacing" textLength="350" x="182" y="1134.5801">Asks to sort list by ascending order</text><line style="stroke:#000000;stroke-width:1.0;stroke-dasharray:2.0,2.0;" x1="30" x2="847" y1="1150.2969" y2="1150.2969"/><text fill="#000000" font-family="sans-serif" font-size="20" font-weight="bold" lengthAdjust="spacing" textLength="250" x="35" y="1168.8613">[by descending order]</text><polygon fill="#181818" points="639,1199.8594,649,1203.8594,639,1207.8594,643,1203.8594" style="stroke:#181818;stroke-width:1.0;"/><line style="stroke:#181818;stroke-width:1.0;" x1="143" x2="645" y1="1203.8594" y2="1203.8594"/><text fill="#000000" font-family="sans-serif" font-size="20" font-weight="bold" lengthAdjust="spacing" textLength="28" x="150" y="1197.1426">22</text><text fill="#000000" font-family="sans-serif" font-size="20" lengthAdjust="spacing" textLength="363" x="182" y="1197.1426">Asks to sort list by descending order</text><path d="M666,1223.8594 L666,1279.8594 L1431,1279.8594 L1431,1233.8594 L1421,1223.8594 L666,1223.8594 " fill="#FAFAFA" style="stroke:#181818;stroke-width:0.5;"/><path d="M1421,1223.8594 L1421,1233.8594 L1431,1233.8594 L1421,1223.8594 " fill="#FAFAFA" style="stroke:#181818;stroke-width:0.5;"/><text fill="#000000" font-family="sans-serif" font-size="20" lengthAdjust="spacing" textLength="744" x="672" y="1247.4238">The boolean parameter is true if the list is to be sorted in ascending order,</text><text fill="#000000" font-family="sans-serif" font-size="20" lengthAdjust="spacing" textLength="151" x="672" y="1270.7051">false otherwise</text><polygon fill="#181818" points="1429,1310.7031,1439,1314.7031,1429,1318.7031,1433,1314.7031" style="stroke:#181818;stroke-width:1.0;"/><line style="stroke:#181818;stroke-width:1.0;" x1="661" x2="1435" y1="1314.7031" y2="1314.7031"/><text fill="#000000" font-family="sans-serif" font-size="20" font-weight="bold" lengthAdjust="spacing" textLength="28" x="668" y="1307.9863">23</text><text fill="#000000" font-family="sans-serif" font-size="20" lengthAdjust="spacing" textLength="729" x="700" y="1307.9863">sortedCandidatesByInterviewPointsForJobOpening(jobOpening, boolean)</text><polygon fill="#181818" points="2246,1347.9844,2256,1351.9844,2246,1355.9844,2250,1351.9844" style="stroke:#181818;stroke-width:1.0;"/><line style="stroke:#181818;stroke-width:1.0;" x1="1451" x2="2252" y1="1351.9844" y2="1351.9844"/><text fill="#000000" font-family="sans-serif" font-size="20" font-weight="bold" lengthAdjust="spacing" textLength="28" x="1458" y="1345.2676">24</text><text fill="#000000" font-family="sans-serif" font-size="20" lengthAdjust="spacing" textLength="756" x="1490" y="1345.2676">allCandidatesSortedByInterviewPointsForJobOpening(jobOpening, boolean)</text><polygon fill="#181818" points="2840,1385.2656,2850,1389.2656,2840,1393.2656,2844,1389.2656" style="stroke:#181818;stroke-width:1.0;"/><line style="stroke:#181818;stroke-width:1.0;" x1="2268" x2="2846" y1="1389.2656" y2="1389.2656"/><text fill="#000000" font-family="sans-serif" font-size="20" font-weight="bold" lengthAdjust="spacing" textLength="28" x="2275" y="1382.5488">25</text><text fill="#000000" font-family="sans-serif" font-size="20" lengthAdjust="spacing" textLength="533" x="2307" y="1382.5488">sortedInterviewsByJobOpening(jobOpening, boolean)</text><polygon fill="#181818" points="3434,1422.5469,3444,1426.5469,3434,1430.5469,3438,1426.5469" style="stroke:#181818;stroke-width:1.0;"/><line style="stroke:#181818;stroke-width:1.0;" x1="2862" x2="3440" y1="1426.5469" y2="1426.5469"/><text fill="#000000" font-family="sans-serif" font-size="20" font-weight="bold" lengthAdjust="spacing" textLength="28" x="2869" y="1419.8301">26</text><text fill="#000000" font-family="sans-serif" font-size="20" lengthAdjust="spacing" textLength="533" x="2901" y="1419.8301">sortedInterviewsByJobOpening(jobOpening, boolean)</text><polygon fill="#181818" points="4356,1459.8281,4366,1463.8281,4356,1467.8281,4360,1463.8281" style="stroke:#181818;stroke-width:1.0;"/><line style="stroke:#181818;stroke-width:1.0;" x1="3456" x2="4362" y1="1463.8281" y2="1463.8281"/><text fill="#000000" font-family="sans-serif" font-size="20" font-weight="bold" lengthAdjust="spacing" textLength="28" x="3463" y="1457.1113">27</text><text fill="#000000" font-family="sans-serif" font-size="20" lengthAdjust="spacing" textLength="861" x="3495" y="1457.1113">match("e.application.jobOpening=:jobOpening ORDER BY e.grade " + order, params)</text><polygon fill="#181818" points="3467,1497.1094,3457,1501.1094,3467,1505.1094,3463,1501.1094" style="stroke:#181818;stroke-width:1.0;"/><line style="stroke:#181818;stroke-width:1.0;stroke-dasharray:2.0,2.0;" x1="3461" x2="4372" y1="1501.1094" y2="1501.1094"/><text fill="#000000" font-family="sans-serif" font-size="20" font-weight="bold" lengthAdjust="spacing" textLength="28" x="3473" y="1494.3926">28</text><text fill="#000000" font-family="sans-serif" font-size="20" lengthAdjust="spacing" textLength="204" x="3505" y="1494.3926">Iterable&lt;Interview&gt;</text><polygon fill="#181818" points="2873,1534.3906,2863,1538.3906,2873,1542.3906,2869,1538.3906" style="stroke:#181818;stroke-width:1.0;"/><line style="stroke:#181818;stroke-width:1.0;stroke-dasharray:2.0,2.0;" x1="2867" x2="3450" y1="1538.3906" y2="1538.3906"/><text fill="#000000" font-family="sans-serif" font-size="20" font-weight="bold" lengthAdjust="spacing" textLength="28" x="2879" y="1531.6738">29</text><text fill="#000000" font-family="sans-serif" font-size="20" lengthAdjust="spacing" textLength="204" x="2911" y="1531.6738">Iterable&lt;Interview&gt;</text><polygon fill="#181818" points="2279,1571.6719,2269,1575.6719,2279,1579.6719,2275,1575.6719" style="stroke:#181818;stroke-width:1.0;"/><line style="stroke:#181818;stroke-width:1.0;stroke-dasharray:2.0,2.0;" x1="2273" x2="2856" y1="1575.6719" y2="1575.6719"/><text fill="#000000" font-family="sans-serif" font-size="20" font-weight="bold" lengthAdjust="spacing" textLength="28" x="2285" y="1568.9551">30</text><text fill="#000000" font-family="sans-serif" font-size="20" lengthAdjust="spacing" textLength="204" x="2317" y="1568.9551">Iterable&lt;Interview&gt;</text><path d="M2140.5,1590.6719 L2234.5,1590.6719 L2234.5,1605.9531 L2224.5,1615.9531 L2140.5,1615.9531 L2140.5,1590.6719 " fill="#EEEEEE" style="stroke:#000000;stroke-width:1.5;"/><rect fill="none" height="182.6875" style="stroke:#000000;stroke-width:1.5;" width="1783" x="2140.5" y="1590.6719"/><text fill="#000000" font-family="sans-serif" font-size="20" font-weight="bold" lengthAdjust="spacing" textLength="49" x="2155.5" y="1610.2363">loop</text><text fill="#000000" font-family="sans-serif" font-size="20" font-weight="bold" lengthAdjust="spacing" textLength="226" x="2249.5" y="1611.2363">[for each interview]</text><polygon fill="#181818" points="3619.5,1649.5156,3629.5,1653.5156,3619.5,1657.5156,3623.5,1653.5156" style="stroke:#181818;stroke-width:1.0;"/><line style="stroke:#181818;stroke-width:1.0;" x1="2268" x2="3625.5" y1="1653.5156" y2="1653.5156"/><text fill="#000000" font-family="sans-serif" font-size="20" font-weight="bold" lengthAdjust="spacing" textLength="28" x="2275" y="1646.7988">31</text><text fill="#000000" font-family="sans-serif" font-size="20" lengthAdjust="spacing" textLength="79" x="2307" y="1646.7988">toDTO()</text><polygon fill="#181818" points="3821.5,1686.7969,3831.5,1690.7969,3821.5,1694.7969,3825.5,1690.7969" style="stroke:#181818;stroke-width:1.0;"/><line style="stroke:#181818;stroke-width:1.0;stroke-dasharray:2.0,2.0;" x1="3641.5" x2="3827.5" y1="1690.7969" y2="1690.7969"/><text fill="#000000" font-family="sans-serif" font-size="20" font-weight="bold" lengthAdjust="spacing" textLength="28" x="3648.5" y="1684.0801">32</text><text fill="#000000" font-family="sans-serif" font-size="20" lengthAdjust="spacing" textLength="63" x="3680.5" y="1684.0801">create</text><polygon fill="#181818" points="3652.5,1724.0781,3642.5,1728.0781,3652.5,1732.0781,3648.5,1728.0781" style="stroke:#181818;stroke-width:1.0;"/><line style="stroke:#181818;stroke-width:1.0;stroke-dasharray:2.0,2.0;" x1="3646.5" x2="3837.5" y1="1728.0781" y2="1728.0781"/><text fill="#000000" font-family="sans-serif" font-size="20" font-weight="bold" lengthAdjust="spacing" textLength="28" x="3658.5" y="1721.3613">33</text><text fill="#000000" font-family="sans-serif" font-size="20" lengthAdjust="spacing" textLength="136" x="3690.5" y="1721.3613">InterviewDTO</text><polygon fill="#181818" points="2279,1761.3594,2269,1765.3594,2279,1769.3594,2275,1765.3594" style="stroke:#181818;stroke-width:1.0;"/><line style="stroke:#181818;stroke-width:1.0;stroke-dasharray:2.0,2.0;" x1="2273" x2="3635.5" y1="1765.3594" y2="1765.3594"/><text fill="#000000" font-family="sans-serif" font-size="20" font-weight="bold" lengthAdjust="spacing" textLength="28" x="2285" y="1758.6426">34</text><text fill="#000000" font-family="sans-serif" font-size="20" lengthAdjust="spacing" textLength="136" x="2317" y="1758.6426">InterviewDTO</text><polygon fill="#181818" points="1462,1805.6406,1452,1809.6406,1462,1813.6406,1458,1809.6406" style="stroke:#181818;stroke-width:1.0;"/><line style="stroke:#181818;stroke-width:1.0;stroke-dasharray:2.0,2.0;" x1="1456" x2="2262" y1="1809.6406" y2="1809.6406"/><text fill="#000000" font-family="sans-serif" font-size="20" font-weight="bold" lengthAdjust="spacing" textLength="28" x="1468" y="1802.9238">35</text><text fill="#000000" font-family="sans-serif" font-size="20" lengthAdjust="spacing" textLength="247" x="1500" y="1802.9238">Iterable&lt;InterviewDTO&gt;</text><polygon fill="#181818" points="672,1842.9219,662,1846.9219,672,1850.9219,668,1846.9219" style="stroke:#181818;stroke-width:1.0;"/><line style="stroke:#181818;stroke-width:1.0;stroke-dasharray:2.0,2.0;" x1="666" x2="1445" y1="1846.9219" y2="1846.9219"/><text fill="#000000" font-family="sans-serif" font-size="20" font-weight="bold" lengthAdjust="spacing" textLength="28" x="678" y="1840.2051">36</text><text fill="#000000" font-family="sans-serif" font-size="20" lengthAdjust="spacing" textLength="247" x="710" y="1840.2051">Iterable&lt;InterviewDTO&gt;</text><polygon fill="#181818" points="154,1880.2031,144,1884.2031,154,1888.2031,150,1884.2031" style="stroke:#181818;stroke-width:1.0;"/><line style="stroke:#181818;stroke-width:1.0;stroke-dasharray:2.0,2.0;" x1="148" x2="655" y1="1884.2031" y2="1884.2031"/><text fill="#000000" font-family="sans-serif" font-size="20" font-weight="bold" lengthAdjust="spacing" textLength="28" x="160" y="1877.4863">37</text><text fill="#000000" font-family="sans-serif" font-size="20" lengthAdjust="spacing" textLength="373" x="192" y="1877.4863">List of candidates by interview points</text><!--SRC=[nLTRRnev57wVNt74KwA5ABlxXjfA9RGhggvIPSf3fRwOcGCuCVQiRSYoltwF3JFZkOMXPBT8KOnzpdVk5ymJbndJR2DKyeGffBXaMs4_AcbZ_W_2RxUHoKbWewHArbfj4ApUOl2IiUI9hJ2sUu6WCR5ChaH8ODOiLSzShc39XC4eijmIwNm6CVwrHPaWJ3bRETAhE9vUmmZ-G0jCWj8fQj9CS6D1BI5XCkKfisY6i3KEqQuH7jK2kBIeTnoV8LDqDb74jbR9xMQ1ciw9LHe6TrjZoG0DVp996ki1C0FvvV4k8fqjJtZ6f8N1Pn9yLmYTx6Uvc2zUodpc8UQpixZkoC5Q2N5KGFIbRWefI4ti_YVe0StXN2KlI1ymKuQJF_QUM1TVg_IVCjR5yfYn3cp_N7ph89f-lQ_IqKL4jhC5CmY3wV7aQQOJ7po-8zSq8XNLBc3qpYNL6DwR9mDBYZXhoHnOx9lPKiYWK4OQbw1sX3UV3Kc3CSpZNszlVwUqT3w7JvHkznbAIZzACn98OkkQZ25UgsTJY6SxnWLRKDPNk5Ei2Ewo9qP1PMN8d82xelD1YzwPH9X6QOlf2zGVbIPfHs5NZyLnUAZYwr9-_mIE-cj8vXppc9HbGfHSiTVy0dtp-eXo0IIhB8F2DsLnJVOzaODYYW94mgUQkGJObLpaC0XgEY6a3RF9-cg0DopB14-OvKhUb0Xln-KPxX-c7nvWyWtmXffiIZK6lnnQwn1yXpQ19Aeu4Z0gL9wHhYvntnHQlmlJbiYzMdKNdc3pzeGUgeJx17FePQ5KvakTdjTbNKT0do2y1H2XMqKDv-hQanIOimfdIJuAcOcF-1EDnD71xdfP5U7DQ5H7Q507nZNUSYigE7r18fHfaETdzeXc74XM9HH5APrHs7bNEur-HcDn3R2r3t_kDm1gdLXbrXVheODxz_fCsqhB1TJt279zmbD2jWhmRsuZp-0-BqueedOo_0xJd5C5HaMn_BBJtYzQxRmk3jfLFvb2lQ64grbQI17MEOQPX5B6yxa6KJptDiORSW8eL22_GsfuZezKVoKDEf5yJUHVf78TXQ_MtltpsHY-KZWMIWca1TItHwHS0MxytWjyMSQBUw4BFFProggwsSFlqhToKCIadxdRViCG_cyp-sZGTJEhpYYodFUdJF5k2uecbBzSFDUxPOMp9t-yQD9tY_8pCh_zBsT_Gp8DzVpkv2xGqbO2zjwxGGjCnVwpTeKMiBQulRGxjAHIrmxHSD-i5QdlJj4Dbm_w9cAV7QF5APqqlNUEbq3R- -qhxo8j2ZJQmUlj9YtIVg1zNhghj4_otDFkBtYf_sZ-5m00]--></g></svg>