<?xml version="1.0" encoding="UTF-8" standalone="no"?><svg xmlns="http://www.w3.org/2000/svg" xmlns:xlink="http://www.w3.org/1999/xlink" contentStyleType="text/css" height="233px" preserveAspectRatio="none" style="width:2570px;height:233px;background:#FFFFFF;" version="1.1" viewBox="0 0 2570 233" width="2570px" zoomAndPan="magnify"><defs/><g><text fill="#000000" font-family="sans-serif" font-size="14" font-weight="bold" lengthAdjust="spacing" textLength="782" x="895.5" y="27.9951">System Sequence Diagram (SSD) - Get an ordered list of candidates, using the job interview points</text><line style="stroke:#181818;stroke-width:0.5;stroke-dasharray:5.0,5.0;" x1="52" x2="52" y1="125.5781" y2="145.5781"/><line style="stroke:#181818;stroke-width:0.5;stroke-dasharray:5.0,5.0;" x1="276" x2="276" y1="125.5781" y2="145.5781"/><line style="stroke:#181818;stroke-width:0.5;stroke-dasharray:5.0,5.0;" x1="657" x2="657" y1="125.5781" y2="145.5781"/><line style="stroke:#181818;stroke-width:0.5;stroke-dasharray:5.0,5.0;" x1="930" x2="930" y1="125.5781" y2="145.5781"/><line style="stroke:#181818;stroke-width:0.5;stroke-dasharray:5.0,5.0;" x1="1110" x2="1110" y1="125.5781" y2="145.5781"/><line style="stroke:#181818;stroke-width:0.5;stroke-dasharray:5.0,5.0;" x1="1359" x2="1359" y1="125.5781" y2="145.5781"/><line style="stroke:#181818;stroke-width:0.5;stroke-dasharray:5.0,5.0;" x1="1623" x2="1623" y1="125.5781" y2="145.5781"/><line style="stroke:#181818;stroke-width:0.5;stroke-dasharray:5.0,5.0;" x1="1870" x2="1870" y1="125.5781" y2="145.5781"/><line style="stroke:#181818;stroke-width:0.5;stroke-dasharray:5.0,5.0;" x1="2034" x2="2034" y1="125.5781" y2="145.5781"/><line style="stroke:#181818;stroke-width:0.5;stroke-dasharray:5.0,5.0;" x1="2170" x2="2170" y1="125.5781" y2="145.5781"/><line style="stroke:#181818;stroke-width:0.5;stroke-dasharray:5.0,5.0;" x1="2361" x2="2361" y1="125.5781" y2="145.5781"/><line style="stroke:#181818;stroke-width:0.5;stroke-dasharray:5.0,5.0;" x1="2519" x2="2519" y1="125.5781" y2="145.5781"/><text fill="#000000" font-family="sans-serif" font-size="20" lengthAdjust="spacing" textLength="89" x="5" y="120.8613">Operator</text><ellipse cx="52.5" cy="50.7969" fill="#E3E3E3" rx="8" ry="8" style="stroke:#181818;stroke-width:0.5;"/><path d="M52.5,58.7969 L52.5,85.7969 M39.5,66.7969 L65.5,66.7969 M52.5,85.7969 L39.5,100.7969 M52.5,85.7969 L65.5,100.7969 " fill="none" style="stroke:#181818;stroke-width:0.5;"/><text fill="#000000" font-family="sans-serif" font-size="20" lengthAdjust="spacing" textLength="89" x="5" y="163.1426">Operator</text><ellipse cx="52.5" cy="176.3594" fill="#E3E3E3" rx="8" ry="8" style="stroke:#181818;stroke-width:0.5;"/><path d="M52.5,184.3594 L52.5,211.3594 M39.5,192.3594 L65.5,192.3594 M52.5,211.3594 L39.5,226.3594 M52.5,211.3594 L65.5,226.3594 " fill="none" style="stroke:#181818;stroke-width:0.5;"/><rect fill="#E3E3E3" height="37.2813" rx="2.5" ry="2.5" style="stroke:#181818;stroke-width:0.5;" width="332" x="110" y="87.2969"/><text fill="#000000" font-family="sans-serif" font-size="20" lengthAdjust="spacing" textLength="318" x="117" y="112.8613">RegisterCandidateCreateUserUI</text><rect fill="#E3E3E3" height="37.2813" rx="2.5" ry="2.5" style="stroke:#181818;stroke-width:0.5;" width="332" x="110" y="144.5781"/><text fill="#000000" font-family="sans-serif" font-size="20" lengthAdjust="spacing" textLength="318" x="117" y="170.1426">RegisterCandidateCreateUserUI</text><rect fill="#E3E3E3" height="37.2813" rx="2.5" ry="2.5" style="stroke:#181818;stroke-width:0.5;" width="410" x="452" y="87.2969"/><text fill="#000000" font-family="sans-serif" font-size="20" lengthAdjust="spacing" textLength="396" x="459" y="112.8613">RegisterCandidateCreateUserController</text><rect fill="#E3E3E3" height="37.2813" rx="2.5" ry="2.5" style="stroke:#181818;stroke-width:0.5;" width="410" x="452" y="144.5781"/><text fill="#000000" font-family="sans-serif" font-size="20" lengthAdjust="spacing" textLength="396" x="459" y="170.1426">RegisterCandidateCreateUserController</text><rect fill="#E3E3E3" height="37.2813" rx="2.5" ry="2.5" style="stroke:#181818;stroke-width:0.5;" width="117" x="872" y="87.2969"/><text fill="#000000" font-family="sans-serif" font-size="20" lengthAdjust="spacing" textLength="103" x="879" y="112.8613">Candidate</text><rect fill="#E3E3E3" height="37.2813" rx="2.5" ry="2.5" style="stroke:#181818;stroke-width:0.5;" width="117" x="872" y="144.5781"/><text fill="#000000" font-family="sans-serif" font-size="20" lengthAdjust="spacing" textLength="103" x="879" y="170.1426">Candidate</text><rect fill="#E3E3E3" height="37.2813" rx="2.5" ry="2.5" style="stroke:#181818;stroke-width:0.5;" width="223" x="999" y="87.2969"/><text fill="#000000" font-family="sans-serif" font-size="20" lengthAdjust="spacing" textLength="209" x="1006" y="112.8613">CandidateRepository</text><rect fill="#E3E3E3" height="37.2813" rx="2.5" ry="2.5" style="stroke:#181818;stroke-width:0.5;" width="223" x="999" y="144.5781"/><text fill="#000000" font-family="sans-serif" font-size="20" lengthAdjust="spacing" textLength="209" x="1006" y="170.1426">CandidateRepository</text><rect fill="#E3E3E3" height="37.2813" rx="2.5" ry="2.5" style="stroke:#181818;stroke-width:0.5;" width="254" x="1232" y="87.2969"/><text fill="#000000" font-family="sans-serif" font-size="20" lengthAdjust="spacing" textLength="240" x="1239" y="112.8613">JpaCandidateRepository</text><rect fill="#E3E3E3" height="37.2813" rx="2.5" ry="2.5" style="stroke:#181818;stroke-width:0.5;" width="254" x="1232" y="144.5781"/><text fill="#000000" font-family="sans-serif" font-size="20" lengthAdjust="spacing" textLength="240" x="1239" y="170.1426">JpaCandidateRepository</text><rect fill="#E3E3E3" height="37.2813" rx="2.5" ry="2.5" style="stroke:#181818;stroke-width:0.5;" width="255" x="1496" y="87.2969"/><text fill="#000000" font-family="sans-serif" font-size="20" lengthAdjust="spacing" textLength="241" x="1503" y="112.8613">CustomerUserController</text><rect fill="#E3E3E3" height="37.2813" rx="2.5" ry="2.5" style="stroke:#181818;stroke-width:0.5;" width="255" x="1496" y="144.5781"/><text fill="#000000" font-family="sans-serif" font-size="20" lengthAdjust="spacing" textLength="241" x="1503" y="170.1426">CustomerUserController</text><rect fill="#E3E3E3" height="37.2813" rx="2.5" ry="2.5" style="stroke:#181818;stroke-width:0.5;" width="219" x="1761" y="87.2969"/><text fill="#000000" font-family="sans-serif" font-size="20" lengthAdjust="spacing" textLength="205" x="1768" y="112.8613">ManagementService</text><rect fill="#E3E3E3" height="37.2813" rx="2.5" ry="2.5" style="stroke:#181818;stroke-width:0.5;" width="219" x="1761" y="144.5781"/><text fill="#000000" font-family="sans-serif" font-size="20" lengthAdjust="spacing" textLength="205" x="1768" y="170.1426">ManagementService</text><rect fill="#E3E3E3" height="37.2813" rx="2.5" ry="2.5" style="stroke:#181818;stroke-width:0.5;" width="88" x="1990" y="87.2969"/><text fill="#000000" font-family="sans-serif" font-size="20" lengthAdjust="spacing" textLength="74" x="1997" y="112.8613">Factory</text><rect fill="#E3E3E3" height="37.2813" rx="2.5" ry="2.5" style="stroke:#181818;stroke-width:0.5;" width="88" x="1990" y="144.5781"/><text fill="#000000" font-family="sans-serif" font-size="20" lengthAdjust="spacing" textLength="74" x="1997" y="170.1426">Factory</text><rect fill="#E3E3E3" height="37.2813" rx="2.5" ry="2.5" style="stroke:#181818;stroke-width:0.5;" width="165" x="2088" y="87.2969"/><text fill="#000000" font-family="sans-serif" font-size="20" lengthAdjust="spacing" textLength="151" x="2095" y="112.8613">UserRepository</text><rect fill="#E3E3E3" height="37.2813" rx="2.5" ry="2.5" style="stroke:#181818;stroke-width:0.5;" width="165" x="2088" y="144.5781"/><text fill="#000000" font-family="sans-serif" font-size="20" lengthAdjust="spacing" textLength="151" x="2095" y="170.1426">UserRepository</text><rect fill="#E3E3E3" height="37.2813" rx="2.5" ry="2.5" style="stroke:#181818;stroke-width:0.5;" width="196" x="2263" y="87.2969"/><text fill="#000000" font-family="sans-serif" font-size="20" lengthAdjust="spacing" textLength="182" x="2270" y="112.8613">JpaUserRepository</text><rect fill="#E3E3E3" height="37.2813" rx="2.5" ry="2.5" style="stroke:#181818;stroke-width:0.5;" width="196" x="2263" y="144.5781"/><text fill="#000000" font-family="sans-serif" font-size="20" lengthAdjust="spacing" textLength="182" x="2270" y="170.1426">JpaUserRepository</text><text fill="#000000" font-family="sans-serif" font-size="20" lengthAdjust="spacing" textLength="94" x="2469" y="120.8613">Database</text><path d="M2501,66.2969 C2501,56.2969 2519,56.2969 2519,56.2969 C2519,56.2969 2537,56.2969 2537,66.2969 L2537,92.2969 C2537,102.2969 2519,102.2969 2519,102.2969 C2519,102.2969 2501,102.2969 2501,92.2969 L2501,66.2969 " fill="#E3E3E3" style="stroke:#181818;stroke-width:1.5;"/><path d="M2501,66.2969 C2501,76.2969 2519,76.2969 2519,76.2969 C2519,76.2969 2537,76.2969 2537,66.2969 " fill="none" style="stroke:#181818;stroke-width:1.5;"/><text fill="#000000" font-family="sans-serif" font-size="20" lengthAdjust="spacing" textLength="94" x="2469" y="163.1426">Database</text><path d="M2501,177.8594 C2501,167.8594 2519,167.8594 2519,167.8594 C2519,167.8594 2537,167.8594 2537,177.8594 L2537,203.8594 C2537,213.8594 2519,213.8594 2519,213.8594 C2519,213.8594 2501,213.8594 2501,203.8594 L2501,177.8594 " fill="#E3E3E3" style="stroke:#181818;stroke-width:1.5;"/><path d="M2501,177.8594 C2501,187.8594 2519,187.8594 2519,187.8594 C2519,187.8594 2537,187.8594 2537,177.8594 " fill="none" style="stroke:#181818;stroke-width:1.5;"/><!--SRC=[ZLBRQiCm37ttLuWyRR31s2UieME3CMZe1wYEchfnR4zMLhgldvEqNT8BB0_cM3v7Ef8IQ-C2CZRMwvfAA6cDhPMvTrAO7uBd9nMF56Yyyth3lY4GRcdq4b3NM54XUql0f0LTPSU4kC7IxuohO8qsab9Y956BVHHgeA2lbfmco0rM7VskAF9xU8HN4a07dalYvCwQAE3NeD6LfaIX-01jxBBAXc3hLs2S47yRsa7m2KUbi1NlscP5dB0Mpv1z1c9CA0ECy84kEMULV8hH9g0Jo1PKfLB4isEX6LCwbv5u-TRB1kV_LitIGDbRIqFHl-iqmqdPiqvjtY0jAFXeKYFxdiwdwvJ_7l2MP1lmB7SR9UsNhtc- -ZIL3yDiAFqztHeqZKOyYav5ytujWw43dXAwYcV6fw6BVgyeBg8gpGDN60co_81wOlwY5AJl5m00]--></g></svg>