<?xml version="1.0" encoding="UTF-8" standalone="no"?><svg xmlns="http://www.w3.org/2000/svg" xmlns:xlink="http://www.w3.org/1999/xlink" contentStyleType="text/css" height="412px" preserveAspectRatio="none" style="width:946px;height:412px;background:#FFFFFF;" version="1.1" viewBox="0 0 946 412" width="946px" zoomAndPan="magnify"><defs/><g><text fill="#000000" font-family="sans-serif" font-size="14" font-weight="bold" lengthAdjust="spacing" textLength="187" x="372.75" y="22.9951">Domain Model - US1000</text><!--cluster <<aggregate>> Candidate--><g id="cluster_&lt;&lt;aggregate&gt;&gt; Candidate"><path d="M8.5,44.5137 L276.5,44.5137 A3.75,3.75 0 0 1 279,47.0137 L286,73.7949 L421.5,73.7949 A2.5,2.5 0 0 1 424,76.2949 L424,322.0137 A2.5,2.5 0 0 1 421.5,324.5137 L8.5,324.5137 A2.5,2.5 0 0 1 6,322.0137 L6,47.0137 A2.5,2.5 0 0 1 8.5,44.5137 " fill="#EBF5FB" style="stroke:#000000;stroke-width:1.5;"/><line style="stroke:#000000;stroke-width:1.5;" x1="6" x2="286" y1="73.7949" y2="73.7949"/><text fill="#000000" font-family="sans-serif" font-size="20" font-weight="bold" lengthAdjust="spacing" textLength="267" x="10" y="65.0781">«aggregate» Candidate</text></g><!--class Candidate--><g id="elem_Candidate"><rect codeLine="19" fill="#FDEBD0" height="79.8438" id="Candidate" rx="2.5" ry="2.5" style="stroke:#181818;stroke-width:0.5;" width="137" x="270.5" y="86.5137"/><ellipse cx="286.5" cy="126.4355" fill="#ADD1B2" rx="12" ry="12" style="stroke:#181818;stroke-width:1.0;"/><path d="M291.2188,133.9355 L282.1406,133.9355 L282.1406,119.3574 L291.2188,119.3574 L291.2188,121.8887 L285.0156,121.8887 L285.0156,125.0449 L290.6406,125.0449 L290.6406,127.5762 L285.0156,127.5762 L285.0156,131.3887 L291.2188,131.3887 L291.2188,133.9355 Z " fill="#000000"/><text fill="#000000" font-family="sans-serif" font-size="20" font-style="italic" lengthAdjust="spacing" textLength="83" x="311.5" y="110.0781">«entity»</text><text fill="#000000" font-family="sans-serif" font-size="20" font-style="italic" lengthAdjust="spacing" textLength="64" x="321" y="133.3594">«root»</text><text fill="#000000" font-family="sans-serif" font-size="20" lengthAdjust="spacing" textLength="103" x="301.5" y="156.6406">Candidate</text></g><!--class FirstName--><g id="elem_FirstName"><rect codeLine="21" fill="#D6EAF8" height="56.5625" id="FirstName" rx="2.5" ry="2.5" style="stroke:#181818;stroke-width:0.5;" width="175" x="22.5" y="251.5137"/><ellipse cx="38.5" cy="279.7949" fill="#FF8B40" rx="12" ry="12" style="stroke:#181818;stroke-width:1.0;"/><path d="M38.5156,285.6387 L41.0781,273.4668 L43.9844,273.4668 L40.5156,288.0449 L36.5313,288.0449 L33.0625,273.4668 L35.9531,273.4668 L38.5156,285.6387 Z " fill="#000000"/><text fill="#000000" font-family="sans-serif" font-size="20" font-style="italic" lengthAdjust="spacing" textLength="145" x="51.5" y="275.0781">«valueObject»</text><text fill="#000000" font-family="sans-serif" font-size="20" lengthAdjust="spacing" textLength="103" x="72.5" y="298.3594">FirstName</text></g><!--class LastName--><g id="elem_LastName"><rect codeLine="22" fill="#D6EAF8" height="56.5625" id="LastName" rx="2.5" ry="2.5" style="stroke:#181818;stroke-width:0.5;" width="175" x="232.5" y="251.5137"/><ellipse cx="248.5" cy="279.7949" fill="#FF8B40" rx="12" ry="12" style="stroke:#181818;stroke-width:1.0;"/><path d="M248.5156,285.6387 L251.0781,273.4668 L253.9844,273.4668 L250.5156,288.0449 L246.5313,288.0449 L243.0625,273.4668 L245.9531,273.4668 L248.5156,285.6387 Z " fill="#000000"/><text fill="#000000" font-family="sans-serif" font-size="20" font-style="italic" lengthAdjust="spacing" textLength="145" x="261.5" y="275.0781">«valueObject»</text><text fill="#000000" font-family="sans-serif" font-size="20" lengthAdjust="spacing" textLength="100" x="284" y="298.3594">LastName</text></g><!--class PhoneNumber--><g id="elem_PhoneNumber"><rect codeLine="14" fill="#D6EAF8" height="56.5625" id="PhoneNumber" rx="2.5" ry="2.5" style="stroke:#181818;stroke-width:0.5;" width="177" x="442.5" y="251.5137"/><ellipse cx="458.5" cy="279.7949" fill="#FF8B40" rx="12" ry="12" style="stroke:#181818;stroke-width:1.0;"/><path d="M458.5156,285.6387 L461.0781,273.4668 L463.9844,273.4668 L460.5156,288.0449 L456.5313,288.0449 L453.0625,273.4668 L455.9531,273.4668 L458.5156,285.6387 Z " fill="#000000"/><text fill="#000000" font-family="sans-serif" font-size="20" font-style="italic" lengthAdjust="spacing" textLength="145" x="472.5" y="275.0781">«valueObject»</text><text fill="#000000" font-family="sans-serif" font-size="20" lengthAdjust="spacing" textLength="143" x="473.5" y="298.3594">PhoneNumber</text></g><!--class Email--><g id="elem_Email"><rect codeLine="15" fill="#D6EAF8" height="56.5625" id="Email" rx="2.5" ry="2.5" style="stroke:#181818;stroke-width:0.5;" width="175" x="654.5" y="251.5137"/><ellipse cx="670.5" cy="279.7949" fill="#FF8B40" rx="12" ry="12" style="stroke:#181818;stroke-width:1.0;"/><path d="M670.5156,285.6387 L673.0781,273.4668 L675.9844,273.4668 L672.5156,288.0449 L668.5313,288.0449 L665.0625,273.4668 L667.9531,273.4668 L670.5156,285.6387 Z " fill="#000000"/><text fill="#000000" font-family="sans-serif" font-size="20" font-style="italic" lengthAdjust="spacing" textLength="145" x="683.5" y="275.0781">«valueObject»</text><text fill="#000000" font-family="sans-serif" font-size="20" lengthAdjust="spacing" textLength="57" x="727.5" y="298.3594">Email</text></g><!--class User--><g id="elem_User"><rect fill="#FEF9E7" height="34" id="User" rx="2.5" ry="2.5" style="stroke:#181818;stroke-width:0.5;" width="79" x="860.5" y="371.5137"/><ellipse cx="876.5" cy="388.5137" fill="#ADD1B2" rx="12" ry="12" style="stroke:#181818;stroke-width:1.0;"/><path d="M879.5625,395.5918 Q878.875,395.9512 878.125,396.123 Q877.375,396.2949 876.5469,396.2949 Q873.5938,396.2949 872.0313,394.3574 Q870.4844,392.4043 870.4844,388.7324 Q870.4844,385.0605 872.0313,383.123 Q873.5938,381.1699 876.5469,381.1699 Q877.375,381.1699 878.125,381.3418 Q878.8906,381.5137 879.5625,381.873 L879.5625,385.0762 Q878.8125,384.3887 878.1094,384.0762 Q877.4219,383.7637 876.6719,383.7637 Q875.0938,383.7637 874.2813,385.0137 Q873.4844,386.2637 873.4844,388.7324 Q873.4844,391.2012 874.2813,392.4512 Q875.0938,393.7012 876.6719,393.7012 Q877.4219,393.7012 878.1094,393.3887 Q878.8125,393.0762 879.5625,392.3887 L879.5625,395.5918 Z " fill="#000000"/><text fill="#000000" font-family="sans-serif" font-size="20" lengthAdjust="spacing" textLength="45" x="891.5" y="395.4375">User</text></g><!--link Candidate to FirstName--><g id="link_Candidate_FirstName"><path codeLine="25" d="M280.03,166.5337 C241.44,192.0537 191.76,224.9237 156.07,248.5337 " fill="none" id="Candidate-to-FirstName" style="stroke:#000000;stroke-width:1.0;"/><polygon fill="#000000" points="151.79,251.3637,161.5038,249.738,155.9612,248.6067,157.0926,243.0641,151.79,251.3637" style="stroke:#000000;stroke-width:1.0;"/><text fill="#000000" font-family="sans-serif" font-size="20" lengthAdjust="spacing" textLength="35" x="233" y="216.0781">has</text><text fill="#000000" font-family="sans-serif" font-size="20" lengthAdjust="spacing" textLength="13" x="257.0049" y="193.0206">1</text><text fill="#000000" font-family="sans-serif" font-size="20" lengthAdjust="spacing" textLength="13" x="146.0686" y="238.7213">1</text></g><!--link Candidate to LastName--><g id="link_Candidate_LastName"><path codeLine="26" d="M334.11,166.5337 C331.02,191.1437 327.08,222.5837 324.14,245.9737 " fill="none" id="Candidate-to-LastName" style="stroke:#000000;stroke-width:1.0;"/><polygon fill="#000000" points="323.5,251.1337,328.5735,242.6921,324.1132,246.1714,320.6339,241.7111,323.5,251.1337" style="stroke:#000000;stroke-width:1.0;"/><text fill="#000000" font-family="sans-serif" font-size="20" lengthAdjust="spacing" textLength="35" x="332" y="216.0781">has</text><text fill="#000000" font-family="sans-serif" font-size="20" lengthAdjust="spacing" textLength="13" x="319.3659" y="193.0206">1</text><text fill="#000000" font-family="sans-serif" font-size="20" lengthAdjust="spacing" textLength="13" x="309.9094" y="238.8191">1</text></g><!--link Candidate to PhoneNumber--><g id="link_Candidate_PhoneNumber"><path codeLine="27" d="M388.44,166.5337 C420.66,191.9537 462.12,224.6637 492.01,248.2437 " fill="none" id="Candidate-to-PhoneNumber" style="stroke:#000000;stroke-width:1.0;"/><polygon fill="#000000" points="495.96,251.3637,491.3726,242.6484,492.0349,248.2664,486.4169,248.9287,495.96,251.3637" style="stroke:#000000;stroke-width:1.0;"/><text fill="#000000" font-family="sans-serif" font-size="20" lengthAdjust="spacing" textLength="35" x="459" y="216.0781">has</text><text fill="#000000" font-family="sans-serif" font-size="20" lengthAdjust="spacing" textLength="13" x="382.0152" y="193.0206">1</text><text fill="#000000" font-family="sans-serif" font-size="20" lengthAdjust="spacing" textLength="13" x="474.3924" y="238.7213">1</text></g><!--link Candidate to Email--><g id="link_Candidate_Email"><path codeLine="28" d="M407.82,153.3837 C478.87,180.0937 589.55,221.7037 663.85,249.6337 " fill="none" id="Candidate-to-Email" style="stroke:#000000;stroke-width:1.0;"/><polygon fill="#000000" points="668.69,251.4537,661.6675,244.5482,664.0084,249.6981,658.8585,252.0389,668.69,251.4537" style="stroke:#000000;stroke-width:1.0;"/><text fill="#000000" font-family="sans-serif" font-size="20" lengthAdjust="spacing" textLength="35" x="590" y="216.0781">has</text><text fill="#000000" font-family="sans-serif" font-size="20" lengthAdjust="spacing" textLength="13" x="415.5874" y="150.5557">1</text><text fill="#000000" font-family="sans-serif" font-size="20" lengthAdjust="spacing" textLength="13" x="639.2292" y="238.8299">1</text></g><!--link Candidate to User--><g id="link_Candidate_User"><path codeLine="29" d="M407.6,136.2337 C530.64,153.1537 782.08,193.8837 847,251.5137 C875.98,277.2337 889.24,320.7437 895.23,351.6137 " fill="none" id="Candidate-to-User" style="stroke:#000000;stroke-width:1.0;"/><polygon fill="none" points="902.16,350.5737,898.43,371.4337,888.33,352.7937,902.16,350.5737" style="stroke:#000000;stroke-width:1.0;"/><text fill="#000000" font-family="sans-serif" font-size="20" lengthAdjust="spacing" textLength="35" x="892" y="287.0781">has</text><text fill="#000000" font-family="sans-serif" font-size="20" lengthAdjust="spacing" textLength="13" x="415.3447" y="131.6371">1</text><text fill="#000000" font-family="sans-serif" font-size="20" lengthAdjust="spacing" textLength="13" x="883.0594" y="358.6441">1</text></g><!--SRC=[bPBVJy8m4CVV-rTSy05D91d47sWM4WRh4w89mVUodLkbQvUsO13vtoqRC3IJO5_Qt7tkss_lQkPSvaopJAXeZZ74-COMmb8bxOH_8dGyGYot0c6eCiObFAaO1RHWEcbxdakcF4R0BBSho32ReJQaQVQYCE8IxIf7KDgcYf0g4mbc3Am9k1MmQ9vejP3nG0cbVN_9n0AVP-yOsLuFBePtOPzswr6jLC7GOHWClNh6e5xo20kfDks4GHtc94Bw4DuNkRxMwgCC1y9nP4DAmo-faZXUR1yAlttw_kNhjPEXtU36ktA1zRugTAqJP_6a2GCcOnupYz1F4es9Ev7SUM09GiFtsJxe2WveOzT9b6vOgoC9toz3nNMxNcslsSAbDygriMEMuLd-gheH-qVPviUxD0fckP8cvRaXLRpHRa2hrIlsojOZfEmlwc3Y57GyirDSEQLwelLLCbDp43dwpFlnhEi_LXZGMngu9f1l]--></g></svg>