<?xml version="1.0" encoding="UTF-8" standalone="no"?><svg xmlns="http://www.w3.org/2000/svg" xmlns:xlink="http://www.w3.org/1999/xlink" contentStyleType="text/css" height="963px" preserveAspectRatio="none" style="width:902px;height:963px;background:#FFFFFF;" version="1.1" viewBox="0 0 902 963" width="902px" zoomAndPan="magnify"><defs/><g><text fill="#000000" font-family="sans-serif" font-size="14" font-weight="bold" lengthAdjust="spacing" textLength="423" x="241.25" y="27.9951">System Sequence Diagram (SSD) - Edit a Job Opening.</text><rect fill="#FFFFFF" height="722.1875" style="stroke:#181818;stroke-width:1.0;" width="10" x="123" y="135.5781"/><rect fill="#FFFFFF" height="37.2813" style="stroke:#181818;stroke-width:1.0;" width="10" x="824" y="164.8594"/><rect fill="#FFFFFF" height="543.7813" style="stroke:#181818;stroke-width:1.0;" width="10" x="824" y="239.4219"/><rect fill="#FFFFFF" height="37.2813" style="stroke:#181818;stroke-width:1.0;" width="10" x="824" y="820.4844"/><rect fill="none" height="492.5" style="stroke:#000000;stroke-width:1.5;" width="886.5" x="10" y="254.4219"/><rect fill="none" height="182.6875" style="stroke:#000000;stroke-width:1.5;" width="866.5" x="20" y="482.6719"/><line style="stroke:#181818;stroke-width:0.5;stroke-dasharray:5.0,5.0;" x1="128" x2="128" y1="125.5781" y2="875.7656"/><line style="stroke:#181818;stroke-width:0.5;stroke-dasharray:5.0,5.0;" x1="828.5" x2="828.5" y1="125.5781" y2="875.7656"/><text fill="#000000" font-family="sans-serif" font-size="20" lengthAdjust="spacing" textLength="190" x="30" y="120.8613">Customer Manager</text><ellipse cx="128" cy="50.7969" fill="#E3E3E3" rx="8" ry="8" style="stroke:#181818;stroke-width:0.5;"/><path d="M128,58.7969 L128,85.7969 M115,66.7969 L141,66.7969 M128,85.7969 L115,100.7969 M128,85.7969 L141,100.7969 " fill="none" style="stroke:#181818;stroke-width:0.5;"/><text fill="#000000" font-family="sans-serif" font-size="20" lengthAdjust="spacing" textLength="190" x="30" y="893.3301">Customer Manager</text><ellipse cx="128" cy="906.5469" fill="#E3E3E3" rx="8" ry="8" style="stroke:#181818;stroke-width:0.5;"/><path d="M128,914.5469 L128,941.5469 M115,922.5469 L141,922.5469 M128,941.5469 L115,956.5469 M128,941.5469 L141,956.5469 " fill="none" style="stroke:#181818;stroke-width:0.5;"/><rect fill="#E3E3E3" height="37.2813" rx="2.5" ry="2.5" style="stroke:#181818;stroke-width:0.5;" width="95" x="781.5" y="87.2969"/><text fill="#000000" font-family="sans-serif" font-size="20" lengthAdjust="spacing" textLength="81" x="788.5" y="112.8613">:System</text><rect fill="#E3E3E3" height="37.2813" rx="2.5" ry="2.5" style="stroke:#181818;stroke-width:0.5;" width="95" x="781.5" y="874.7656"/><text fill="#000000" font-family="sans-serif" font-size="20" lengthAdjust="spacing" textLength="81" x="788.5" y="900.3301">:System</text><rect fill="#FFFFFF" height="722.1875" style="stroke:#181818;stroke-width:1.0;" width="10" x="123" y="135.5781"/><rect fill="#FFFFFF" height="37.2813" style="stroke:#181818;stroke-width:1.0;" width="10" x="824" y="164.8594"/><rect fill="#FFFFFF" height="543.7813" style="stroke:#181818;stroke-width:1.0;" width="10" x="824" y="239.4219"/><rect fill="#FFFFFF" height="37.2813" style="stroke:#181818;stroke-width:1.0;" width="10" x="824" y="820.4844"/><polygon fill="#181818" points="812,160.8594,822,164.8594,812,168.8594,816,164.8594" style="stroke:#181818;stroke-width:1.0;"/><line style="stroke:#181818;stroke-width:1.0;" x1="133" x2="818" y1="164.8594" y2="164.8594"/><text fill="#000000" font-family="sans-serif" font-size="20" font-weight="bold" lengthAdjust="spacing" textLength="14" x="140" y="158.1426">1</text><text fill="#000000" font-family="sans-serif" font-size="20" lengthAdjust="spacing" textLength="260" x="158" y="158.1426">Asks to edit a job opening</text><polygon fill="#181818" points="144,198.1406,134,202.1406,144,206.1406,140,202.1406" style="stroke:#181818;stroke-width:1.0;"/><line style="stroke:#181818;stroke-width:1.0;stroke-dasharray:2.0,2.0;" x1="138" x2="828" y1="202.1406" y2="202.1406"/><text fill="#000000" font-family="sans-serif" font-size="20" font-weight="bold" lengthAdjust="spacing" textLength="14" x="150" y="195.4238">2</text><text fill="#000000" font-family="sans-serif" font-size="20" lengthAdjust="spacing" textLength="261" x="168" y="195.4238">Shows list of job openings</text><polygon fill="#181818" points="812,235.4219,822,239.4219,812,243.4219,816,239.4219" style="stroke:#181818;stroke-width:1.0;"/><line style="stroke:#181818;stroke-width:1.0;" x1="133" x2="818" y1="239.4219" y2="239.4219"/><text fill="#000000" font-family="sans-serif" font-size="20" font-weight="bold" lengthAdjust="spacing" textLength="14" x="140" y="232.7051">3</text><text fill="#000000" font-family="sans-serif" font-size="20" lengthAdjust="spacing" textLength="297" x="158" y="232.7051">Chooses a job opening to edit</text><path d="M10,254.4219 L104,254.4219 L104,269.7031 L94,279.7031 L10,279.7031 L10,254.4219 " fill="#EEEEEE" style="stroke:#000000;stroke-width:1.5;"/><rect fill="none" height="492.5" style="stroke:#000000;stroke-width:1.5;" width="886.5" x="10" y="254.4219"/><text fill="#000000" font-family="sans-serif" font-size="20" font-weight="bold" lengthAdjust="spacing" textLength="49" x="25" y="273.9863">loop</text><text fill="#000000" font-family="sans-serif" font-size="20" font-weight="bold" lengthAdjust="spacing" textLength="673" x="119" y="274.9863">[until the Customer Manager is satisfied with the changes]</text><polygon fill="#181818" points="144,313.2656,134,317.2656,144,321.2656,140,317.2656" style="stroke:#181818;stroke-width:1.0;"/><line style="stroke:#181818;stroke-width:1.0;stroke-dasharray:2.0,2.0;" x1="138" x2="823" y1="317.2656" y2="317.2656"/><text fill="#000000" font-family="sans-serif" font-size="20" font-weight="bold" lengthAdjust="spacing" textLength="14" x="150" y="310.5488">4</text><text fill="#000000" font-family="sans-serif" font-size="20" lengthAdjust="spacing" textLength="355" x="168" y="310.5488">Shows list of job opening attributes</text><path d="M138,330.2656 L138,433.2656 L785,433.2656 L785,340.2656 L775,330.2656 L138,330.2656 " fill="#FAFAFA" style="stroke:#181818;stroke-width:0.5;"/><path d="M775,330.2656 L775,340.2656 L785,340.2656 L775,330.2656 " fill="#FAFAFA" style="stroke:#181818;stroke-width:0.5;"/><text fill="#000000" font-family="sans-serif" font-size="20" lengthAdjust="spacing" textLength="626" x="144" y="353.8301">Attributes are: Title or function, Contract Type, Mode, Address,</text><text fill="#000000" font-family="sans-serif" font-size="20" lengthAdjust="spacing" textLength="621" x="144" y="377.1113">Number of vacancies, Description, Requirement Specification,</text><text fill="#000000" font-family="sans-serif" font-size="20" lengthAdjust="spacing" textLength="610" x="144" y="400.3926">Interview Model, start and end date of the phases depending</text><text fill="#000000" font-family="sans-serif" font-size="20" lengthAdjust="spacing" textLength="476" x="150" y="423.6738">on the phase that the recruitment process is in.</text><polygon fill="#181818" points="812,463.6719,822,467.6719,812,471.6719,816,467.6719" style="stroke:#181818;stroke-width:1.0;"/><line style="stroke:#181818;stroke-width:1.0;" x1="133" x2="818" y1="467.6719" y2="467.6719"/><text fill="#000000" font-family="sans-serif" font-size="20" font-weight="bold" lengthAdjust="spacing" textLength="14" x="140" y="460.9551">5</text><text fill="#000000" font-family="sans-serif" font-size="20" lengthAdjust="spacing" textLength="279" x="158" y="460.9551">Chooses an attribute to edit</text><path d="M20,482.6719 L96,482.6719 L96,497.9531 L86,507.9531 L20,507.9531 L20,482.6719 " fill="#EEEEEE" style="stroke:#000000;stroke-width:1.5;"/><rect fill="none" height="182.6875" style="stroke:#000000;stroke-width:1.5;" width="866.5" x="20" y="482.6719"/><text fill="#000000" font-family="sans-serif" font-size="20" font-weight="bold" lengthAdjust="spacing" textLength="31" x="35" y="502.2363">alt</text><text fill="#000000" font-family="sans-serif" font-size="20" font-weight="bold" lengthAdjust="spacing" textLength="523" x="111" y="503.2363">[the chosen attribute is Recruitment Process]</text><polygon fill="#181818" points="144,541.5156,134,545.5156,144,549.5156,140,545.5156" style="stroke:#181818;stroke-width:1.0;"/><line style="stroke:#181818;stroke-width:1.0;stroke-dasharray:2.0,2.0;" x1="138" x2="823" y1="545.5156" y2="545.5156"/><text fill="#000000" font-family="sans-serif" font-size="20" font-weight="bold" lengthAdjust="spacing" textLength="14" x="150" y="538.7988">6</text><text fill="#000000" font-family="sans-serif" font-size="20" lengthAdjust="spacing" textLength="473" x="168" y="538.7988">Shows list of phases of the recruitment process</text><polygon fill="#181818" points="812,578.7969,822,582.7969,812,586.7969,816,582.7969" style="stroke:#181818;stroke-width:1.0;"/><line style="stroke:#181818;stroke-width:1.0;" x1="133" x2="818" y1="582.7969" y2="582.7969"/><text fill="#000000" font-family="sans-serif" font-size="20" font-weight="bold" lengthAdjust="spacing" textLength="14" x="140" y="576.0801">7</text><text fill="#000000" font-family="sans-serif" font-size="20" lengthAdjust="spacing" textLength="238" x="158" y="576.0801">Chooses a phase to edit</text><polygon fill="#181818" points="144,616.0781,134,620.0781,144,624.0781,140,620.0781" style="stroke:#181818;stroke-width:1.0;"/><line style="stroke:#181818;stroke-width:1.0;stroke-dasharray:2.0,2.0;" x1="138" x2="823" y1="620.0781" y2="620.0781"/><text fill="#000000" font-family="sans-serif" font-size="20" font-weight="bold" lengthAdjust="spacing" textLength="14" x="150" y="613.3613">8</text><text fill="#000000" font-family="sans-serif" font-size="20" lengthAdjust="spacing" textLength="604" x="168" y="613.3613">Shows option to edit start and end date of the chosen phase</text><polygon fill="#181818" points="812,653.3594,822,657.3594,812,661.3594,816,657.3594" style="stroke:#181818;stroke-width:1.0;"/><line style="stroke:#181818;stroke-width:1.0;" x1="133" x2="818" y1="657.3594" y2="657.3594"/><text fill="#000000" font-family="sans-serif" font-size="20" font-weight="bold" lengthAdjust="spacing" textLength="14" x="140" y="650.6426">9</text><text fill="#000000" font-family="sans-serif" font-size="20" lengthAdjust="spacing" textLength="279" x="158" y="650.6426">Chooses an attribute to edit</text><polygon fill="#181818" points="144,697.6406,134,701.6406,144,705.6406,140,701.6406" style="stroke:#181818;stroke-width:1.0;"/><line style="stroke:#181818;stroke-width:1.0;stroke-dasharray:2.0,2.0;" x1="138" x2="823" y1="701.6406" y2="701.6406"/><text fill="#000000" font-family="sans-serif" font-size="20" font-weight="bold" lengthAdjust="spacing" textLength="28" x="150" y="694.9238">10</text><text fill="#000000" font-family="sans-serif" font-size="20" lengthAdjust="spacing" textLength="635" x="182" y="694.9238">Shows current value of chosen attribute and asks for new value</text><polygon fill="#181818" points="812,734.9219,822,738.9219,812,742.9219,816,738.9219" style="stroke:#181818;stroke-width:1.0;"/><line style="stroke:#181818;stroke-width:1.0;" x1="133" x2="818" y1="738.9219" y2="738.9219"/><text fill="#000000" font-family="sans-serif" font-size="20" font-weight="bold" lengthAdjust="spacing" textLength="28" x="140" y="732.2051">11</text><text fill="#000000" font-family="sans-serif" font-size="20" lengthAdjust="spacing" textLength="396" x="172" y="732.2051">Provides new value for chosen attribute</text><polygon fill="#181818" points="144,779.2031,134,783.2031,144,787.2031,140,783.2031" style="stroke:#181818;stroke-width:1.0;"/><line style="stroke:#181818;stroke-width:1.0;stroke-dasharray:2.0,2.0;" x1="138" x2="828" y1="783.2031" y2="783.2031"/><text fill="#000000" font-family="sans-serif" font-size="20" font-weight="bold" lengthAdjust="spacing" textLength="28" x="150" y="776.4863">12</text><text fill="#000000" font-family="sans-serif" font-size="20" lengthAdjust="spacing" textLength="245" x="182" y="776.4863">Asks to confirm changes</text><polygon fill="#181818" points="812,816.4844,822,820.4844,812,824.4844,816,820.4844" style="stroke:#181818;stroke-width:1.0;"/><line style="stroke:#181818;stroke-width:1.0;" x1="133" x2="818" y1="820.4844" y2="820.4844"/><text fill="#000000" font-family="sans-serif" font-size="20" font-weight="bold" lengthAdjust="spacing" textLength="28" x="140" y="813.7676">13</text><text fill="#000000" font-family="sans-serif" font-size="20" lengthAdjust="spacing" textLength="180" x="172" y="813.7676">Confirms changes</text><polygon fill="#181818" points="139,853.7656,129,857.7656,139,861.7656,135,857.7656" style="stroke:#181818;stroke-width:1.0;"/><line style="stroke:#181818;stroke-width:1.0;stroke-dasharray:2.0,2.0;" x1="133" x2="828" y1="857.7656" y2="857.7656"/><text fill="#000000" font-family="sans-serif" font-size="20" font-weight="bold" lengthAdjust="spacing" textLength="28" x="145" y="851.0488">14</text><text fill="#000000" font-family="sans-serif" font-size="20" lengthAdjust="spacing" textLength="357" x="177" y="851.0488">Informs success or failure of update</text><!--SRC=[dLHDRzim3BtxLn0zRK1Q33lcCA1eDw03kWrrZxsm4XrpiILFeX9qltwq_94iQRjc0H8x4lduI3uohjbr6B1jl5cJ1KiLfaQ-U2Sb_oRu-A4eucG3hNVUrC6t118IxTrqQDQuebAU6e90Hj2jcds3MAFrMtOhgB29L1J2egRbKnHgeQHVYPmXk6PSzURlolBwFPp3Pyi225_z8tploAd_HL5W4kzI-qX1tutu06TNAOhI2d2BJdc4Cy08q-5uLYWJOSCTEe6pvH0w6mwl6OmtA7JaMHmSmFcdYVeIBkCwWdYWWUjFvUe7hZl0ASBeTAx-Xv1BA6k_ZT1m5F3LFauiB1r1lKRfglO-KloRpSJnc5NZVGV92JSWzIxxgPZ04I8AnufL8bkMEfkPMfjCiG3z_5zUW2A17vCeIePnNba5NjNPyXZfShO73BI4-omY5K2Ld2RbtGAkLBf1CuJxfuuMSEkj_bvQ6oZ6nOFxbdNJes_Ge3DCSG7N54tWRW2uKoroe9PK9ML7XYiscAyUt8qJ2XkcRSPj5X15DGNeB91-RLzKXUwhqzNOTy2IfcerrmS7tkrkz0qb_zLf2Oabn-k2DygpBpYxYw4cR-gpsvLoRdFsnaR6PgdXlfM6kDkB_6E8d7rEREYOwPZtC-dCe6-Jx5YVCOiJ2FdSmNaKN-xDM8mSw3HopzMvTzO8-VdMOJ0fXBv26snIfdNKdvutzfkbKdaxLLms_RSaj94Rjifrzia8X_X5p_ZrTJJjDUDTnQ6Tv_tKNJIunzd_jALuuvI-UiTaycZqmuxSf93Bbhg-hyzHsZiwtEP_0000]--></g></svg>