<?xml version="1.0" encoding="UTF-8" standalone="no"?><svg xmlns="http://www.w3.org/2000/svg" xmlns:xlink="http://www.w3.org/1999/xlink" contentStyleType="text/css" height="743px" preserveAspectRatio="none" style="width:868px;height:743px;background:#FFFFFF;" version="1.1" viewBox="0 0 868 743" width="868px" zoomAndPan="magnify"><defs/><g><text fill="#000000" font-family="sans-serif" font-size="14" font-weight="bold" lengthAdjust="spacing" textLength="423" x="224.25" y="27.9951">System Sequence Diagram (SSD) - Edit a Job Opening.</text><rect fill="#FFFFFF" height="502.2188" style="stroke:#181818;stroke-width:1.0;" width="10" x="113" y="135.5781"/><rect fill="#FFFFFF" height="37.2813" style="stroke:#181818;stroke-width:1.0;" width="10" x="800" y="164.8594"/><rect fill="#FFFFFF" height="323.8125" style="stroke:#181818;stroke-width:1.0;" width="10" x="800" y="239.4219"/><rect fill="#FFFFFF" height="37.2813" style="stroke:#181818;stroke-width:1.0;" width="10" x="800" y="600.5156"/><rect fill="none" height="272.5313" style="stroke:#000000;stroke-width:1.5;" width="852.5" x="10" y="254.4219"/><line style="stroke:#181818;stroke-width:0.5;stroke-dasharray:5.0,5.0;" x1="118" x2="118" y1="125.5781" y2="655.7969"/><line style="stroke:#181818;stroke-width:0.5;stroke-dasharray:5.0,5.0;" x1="804.5" x2="804.5" y1="125.5781" y2="655.7969"/><text fill="#000000" font-family="sans-serif" font-size="20" lengthAdjust="spacing" textLength="190" x="20" y="120.8613">Customer Manager</text><ellipse cx="118" cy="50.7969" fill="#E3E3E3" rx="8" ry="8" style="stroke:#181818;stroke-width:0.5;"/><path d="M118,58.7969 L118,85.7969 M105,66.7969 L131,66.7969 M118,85.7969 L105,100.7969 M118,85.7969 L131,100.7969 " fill="none" style="stroke:#181818;stroke-width:0.5;"/><text fill="#000000" font-family="sans-serif" font-size="20" lengthAdjust="spacing" textLength="190" x="20" y="673.3613">Customer Manager</text><ellipse cx="118" cy="686.5781" fill="#E3E3E3" rx="8" ry="8" style="stroke:#181818;stroke-width:0.5;"/><path d="M118,694.5781 L118,721.5781 M105,702.5781 L131,702.5781 M118,721.5781 L105,736.5781 M118,721.5781 L131,736.5781 " fill="none" style="stroke:#181818;stroke-width:0.5;"/><rect fill="#E3E3E3" height="37.2813" rx="2.5" ry="2.5" style="stroke:#181818;stroke-width:0.5;" width="95" x="757.5" y="87.2969"/><text fill="#000000" font-family="sans-serif" font-size="20" lengthAdjust="spacing" textLength="81" x="764.5" y="112.8613">:System</text><rect fill="#E3E3E3" height="37.2813" rx="2.5" ry="2.5" style="stroke:#181818;stroke-width:0.5;" width="95" x="757.5" y="654.7969"/><text fill="#000000" font-family="sans-serif" font-size="20" lengthAdjust="spacing" textLength="81" x="764.5" y="680.3613">:System</text><rect fill="#FFFFFF" height="502.2188" style="stroke:#181818;stroke-width:1.0;" width="10" x="113" y="135.5781"/><rect fill="#FFFFFF" height="37.2813" style="stroke:#181818;stroke-width:1.0;" width="10" x="800" y="164.8594"/><rect fill="#FFFFFF" height="323.8125" style="stroke:#181818;stroke-width:1.0;" width="10" x="800" y="239.4219"/><rect fill="#FFFFFF" height="37.2813" style="stroke:#181818;stroke-width:1.0;" width="10" x="800" y="600.5156"/><polygon fill="#181818" points="788,160.8594,798,164.8594,788,168.8594,792,164.8594" style="stroke:#181818;stroke-width:1.0;"/><line style="stroke:#181818;stroke-width:1.0;" x1="123" x2="794" y1="164.8594" y2="164.8594"/><text fill="#000000" font-family="sans-serif" font-size="20" font-weight="bold" lengthAdjust="spacing" textLength="14" x="130" y="158.1426">1</text><text fill="#000000" font-family="sans-serif" font-size="20" lengthAdjust="spacing" textLength="260" x="148" y="158.1426">Asks to edit a job opening</text><polygon fill="#181818" points="134,198.1406,124,202.1406,134,206.1406,130,202.1406" style="stroke:#181818;stroke-width:1.0;"/><line style="stroke:#181818;stroke-width:1.0;stroke-dasharray:2.0,2.0;" x1="128" x2="804" y1="202.1406" y2="202.1406"/><text fill="#000000" font-family="sans-serif" font-size="20" font-weight="bold" lengthAdjust="spacing" textLength="14" x="140" y="195.4238">2</text><text fill="#000000" font-family="sans-serif" font-size="20" lengthAdjust="spacing" textLength="261" x="158" y="195.4238">Shows list of job openings</text><polygon fill="#181818" points="788,235.4219,798,239.4219,788,243.4219,792,239.4219" style="stroke:#181818;stroke-width:1.0;"/><line style="stroke:#181818;stroke-width:1.0;" x1="123" x2="794" y1="239.4219" y2="239.4219"/><text fill="#000000" font-family="sans-serif" font-size="20" font-weight="bold" lengthAdjust="spacing" textLength="14" x="130" y="232.7051">3</text><text fill="#000000" font-family="sans-serif" font-size="20" lengthAdjust="spacing" textLength="297" x="148" y="232.7051">Chooses a job opening to edit</text><path d="M10,254.4219 L104,254.4219 L104,269.7031 L94,279.7031 L10,279.7031 L10,254.4219 " fill="#EEEEEE" style="stroke:#000000;stroke-width:1.5;"/><rect fill="none" height="272.5313" style="stroke:#000000;stroke-width:1.5;" width="852.5" x="10" y="254.4219"/><text fill="#000000" font-family="sans-serif" font-size="20" font-weight="bold" lengthAdjust="spacing" textLength="49" x="25" y="273.9863">loop</text><text fill="#000000" font-family="sans-serif" font-size="20" font-weight="bold" lengthAdjust="spacing" textLength="673" x="119" y="274.9863">[until the Customer Manager is satisfied with the changes]</text><polygon fill="#181818" points="134,313.2656,124,317.2656,134,321.2656,130,317.2656" style="stroke:#181818;stroke-width:1.0;"/><line style="stroke:#181818;stroke-width:1.0;stroke-dasharray:2.0,2.0;" x1="128" x2="799" y1="317.2656" y2="317.2656"/><text fill="#000000" font-family="sans-serif" font-size="20" font-weight="bold" lengthAdjust="spacing" textLength="14" x="140" y="310.5488">4</text><text fill="#000000" font-family="sans-serif" font-size="20" lengthAdjust="spacing" textLength="355" x="158" y="310.5488">Shows list of job opening attributes</text><path d="M128,330.2656 L128,409.2656 L802,409.2656 L802,340.2656 L792,330.2656 L128,330.2656 " fill="#FAFAFA" style="stroke:#181818;stroke-width:0.5;"/><path d="M792,330.2656 L792,340.2656 L802,340.2656 L792,330.2656 " fill="#FAFAFA" style="stroke:#181818;stroke-width:0.5;"/><text fill="#000000" font-family="sans-serif" font-size="20" lengthAdjust="spacing" textLength="626" x="134" y="353.8301">Attributes are: Title or function, Contract Type, Mode, Address,</text><text fill="#000000" font-family="sans-serif" font-size="20" lengthAdjust="spacing" textLength="653" x="134" y="377.1113">Number of vacancies, Description and Requirement Specification</text><text fill="#000000" font-family="sans-serif" font-size="20" lengthAdjust="spacing" textLength="590" x="134" y="400.3926">depending on the phase that the recruitment process is in.</text><polygon fill="#181818" points="788,440.3906,798,444.3906,788,448.3906,792,444.3906" style="stroke:#181818;stroke-width:1.0;"/><line style="stroke:#181818;stroke-width:1.0;" x1="123" x2="794" y1="444.3906" y2="444.3906"/><text fill="#000000" font-family="sans-serif" font-size="20" font-weight="bold" lengthAdjust="spacing" textLength="14" x="130" y="437.6738">5</text><text fill="#000000" font-family="sans-serif" font-size="20" lengthAdjust="spacing" textLength="279" x="148" y="437.6738">Chooses an attribute to edit</text><polygon fill="#181818" points="134,477.6719,124,481.6719,134,485.6719,130,481.6719" style="stroke:#181818;stroke-width:1.0;"/><line style="stroke:#181818;stroke-width:1.0;stroke-dasharray:2.0,2.0;" x1="128" x2="799" y1="481.6719" y2="481.6719"/><text fill="#000000" font-family="sans-serif" font-size="20" font-weight="bold" lengthAdjust="spacing" textLength="14" x="140" y="474.9551">6</text><text fill="#000000" font-family="sans-serif" font-size="20" lengthAdjust="spacing" textLength="635" x="158" y="474.9551">Shows current value of chosen attribute and asks for new value</text><polygon fill="#181818" points="788,514.9531,798,518.9531,788,522.9531,792,518.9531" style="stroke:#181818;stroke-width:1.0;"/><line style="stroke:#181818;stroke-width:1.0;" x1="123" x2="794" y1="518.9531" y2="518.9531"/><text fill="#000000" font-family="sans-serif" font-size="20" font-weight="bold" lengthAdjust="spacing" textLength="14" x="130" y="512.2363">7</text><text fill="#000000" font-family="sans-serif" font-size="20" lengthAdjust="spacing" textLength="396" x="148" y="512.2363">Provides new value for chosen attribute</text><polygon fill="#181818" points="134,559.2344,124,563.2344,134,567.2344,130,563.2344" style="stroke:#181818;stroke-width:1.0;"/><line style="stroke:#181818;stroke-width:1.0;stroke-dasharray:2.0,2.0;" x1="128" x2="804" y1="563.2344" y2="563.2344"/><text fill="#000000" font-family="sans-serif" font-size="20" font-weight="bold" lengthAdjust="spacing" textLength="14" x="140" y="556.5176">8</text><text fill="#000000" font-family="sans-serif" font-size="20" lengthAdjust="spacing" textLength="245" x="158" y="556.5176">Asks to confirm changes</text><polygon fill="#181818" points="788,596.5156,798,600.5156,788,604.5156,792,600.5156" style="stroke:#181818;stroke-width:1.0;"/><line style="stroke:#181818;stroke-width:1.0;" x1="123" x2="794" y1="600.5156" y2="600.5156"/><text fill="#000000" font-family="sans-serif" font-size="20" font-weight="bold" lengthAdjust="spacing" textLength="14" x="130" y="593.7988">9</text><text fill="#000000" font-family="sans-serif" font-size="20" lengthAdjust="spacing" textLength="180" x="148" y="593.7988">Confirms changes</text><polygon fill="#181818" points="129,633.7969,119,637.7969,129,641.7969,125,637.7969" style="stroke:#181818;stroke-width:1.0;"/><line style="stroke:#181818;stroke-width:1.0;stroke-dasharray:2.0,2.0;" x1="123" x2="804" y1="637.7969" y2="637.7969"/><text fill="#000000" font-family="sans-serif" font-size="20" font-weight="bold" lengthAdjust="spacing" textLength="28" x="135" y="631.0801">10</text><text fill="#000000" font-family="sans-serif" font-size="20" lengthAdjust="spacing" textLength="357" x="167" y="631.0801">Informs success or failure of update</text><!--SRC=[dPHFZzD03CNl-HHMJo1rLuXZ3qXL5oIG5X3PurxS6QSnJMR2sDEgV7gSPDCjBTe_z52ba-StFtlULBOSEapODj5joOEd2dEZdsBGadyJl7zN539fe8qXkZh5ba1JffCt7RejRgZKGqEGo2c6JNCga1fzt7FOG8MDK54egqdBWoYrKDAlJC4Ht31kUlcRihnv2rVmqRC2mfUuXcyT1Qk_BWhC6aDkrvJisMbCC5jbKSDAS8l1ED8CK61QV5WhZ4JPSOT1OROOjnw4u-DWnZjKkgWipXRWwiE4le2bR0Kq0esiFuqrZgoFXjCE3qLNLdzkkO2oZdk1XaKXLgS-KdYwi7eAQLN7A2H_qqoCbrHDZ1taeDo0re_TJyC45X1Kbeej8dlMUf2vsWwPf03x_5zVWAg9rrdDPR09qQWIR-f1UUcqFEe14otWRWYH1Q3AmPgAOGuhYswo3k7kqD4SRgEtxwNtYKJcz-7ha9lUVOSEWsEIEToGkCHTRm0OFFomE7AYbYmePKUEAtROlxqFdWpTz-ocxQVGrIXs7MhKuQTbFsNMeRHBqTck_VWuN8yTlkZKmkDWZeVsqZ6xd5A_-GwRJ7sVhZRJKyU-G-mpMzdW0kr7wVDutrFSiJU-OytWSEvVs7oU2VfqOrmC5QVscAJNfdmibsFzwwxRvs3uLYtP3SVKnmYvoMaOM-wyEVqBwMJf_7_Y3m00]--></g></svg>