<?xml version="1.0" encoding="UTF-8" standalone="no"?><svg xmlns="http://www.w3.org/2000/svg" xmlns:xlink="http://www.w3.org/1999/xlink" contentStyleType="text/css" height="1899px" preserveAspectRatio="none" style="width:574px;height:1899px;background:#FFFFFF;" version="1.1" viewBox="0 0 574 1899" width="574px" zoomAndPan="magnify"><defs/><g><text fill="#000000" font-family="sans-serif" font-size="14" font-weight="bold" lengthAdjust="spacing" textLength="302" x="134.5" y="32.9951">Applications File Bot - Activity Diagram</text><ellipse cx="286" cy="57.2969" fill="#222222" rx="10" ry="10" style="stroke:#222222;stroke-width:1.0;"/><rect fill="none" height="225.125" style="stroke:#000000;stroke-width:1.5;" width="226" x="173" y="77.2969"/><path d="M308,77.2969 L308,93.5781 L298,103.5781 L173,103.5781 " fill="none" style="stroke:#000000;stroke-width:1.5;"/><text fill="#000000" font-family="sans-serif" font-size="20" lengthAdjust="spacing" textLength="125" x="176" y="96.8613">Initialization</text><rect fill="#F1F1F1" height="43.2813" rx="12.5" ry="12.5" style="stroke:#181818;stroke-width:0.5;" width="183" x="194.5" y="120.5781"/><text fill="#000000" font-family="sans-serif" font-size="20" lengthAdjust="spacing" textLength="163" x="204.5" y="149.1426">Initialize system</text><rect fill="#F1F1F1" height="43.2813" rx="12.5" ry="12.5" style="stroke:#181818;stroke-width:0.5;" width="165" x="203.5" y="183.8594"/><text fill="#000000" font-family="sans-serif" font-size="20" lengthAdjust="spacing" textLength="145" x="213.5" y="212.4238">setupSignals()</text><rect fill="#F1F1F1" height="43.2813" rx="12.5" ry="12.5" style="stroke:#181818;stroke-width:0.5;" width="206" x="183" y="247.1406"/><text fill="#000000" font-family="sans-serif" font-size="20" lengthAdjust="spacing" textLength="186" x="193" y="275.7051">getConfiguration()</text><rect fill="none" height="420.125" style="stroke:#000000;stroke-width:1.5;" width="552" x="11" y="312.4219"/><path d="M258,312.4219 L258,328.7031 L248,338.7031 L11,338.7031 " fill="none" style="stroke:#000000;stroke-width:1.5;"/><text fill="#000000" font-family="sans-serif" font-size="20" lengthAdjust="spacing" textLength="237" x="14" y="331.9863">NewFileCheckerProcess</text><rect fill="#555555" height="6" rx="2.5" ry="2.5" style="stroke:#555555;stroke-width:1.0;" width="532" x="21" y="355.7031"/><rect fill="#F1F1F1" height="43.2813" rx="12.5" ry="12.5" style="stroke:#181818;stroke-width:0.5;" width="86" x="33" y="516.4844"/><text fill="#000000" font-family="sans-serif" font-size="20" lengthAdjust="spacing" textLength="66" x="43" y="545.0488">parent</text><rect fill="#F1F1F1" height="43.2813" rx="12.5" ry="12.5" style="stroke:#181818;stroke-width:0.5;" width="255" x="203.5" y="381.7031"/><text fill="#000000" font-family="sans-serif" font-size="20" lengthAdjust="spacing" textLength="235" x="213.5" y="410.2676">newFileCheckerProcess</text><rect fill="#F1F1F1" height="43.2813" rx="12.5" ry="12.5" style="stroke:#181818;stroke-width:0.5;" width="201" x="230.5" y="488.9844"/><text fill="#000000" font-family="sans-serif" font-size="20" lengthAdjust="spacing" textLength="181" x="240.5" y="517.5488">checkForNewFiles</text><rect fill="#F1F1F1" height="43.2813" rx="12.5" ry="12.5" style="stroke:#181818;stroke-width:0.5;" width="212" x="225" y="567.2656"/><text fill="#000000" font-family="sans-serif" font-size="20" lengthAdjust="spacing" textLength="192" x="235" y="595.8301">sleep for n seconds</text><polygon fill="#F1F1F1" points="331,444.9844,343,456.9844,331,468.9844,319,456.9844,331,444.9844" style="stroke:#181818;stroke-width:0.5;"/><polygon fill="#F1F1F1" points="159,630.5469,503,630.5469,515,642.5469,503,654.5469,159,654.5469,147,642.5469,159,630.5469" style="stroke:#181818;stroke-width:0.5;"/><text fill="#000000" font-family="sans-serif" font-size="20" lengthAdjust="spacing" textLength="344" x="159" y="649.4707">NewFileCheckerProcess is running</text><ellipse cx="331" cy="684.5469" fill="none" rx="10" ry="10" style="stroke:#222222;stroke-width:1.5;"/><line style="stroke:#222222;stroke-width:2.5;" x1="324.8128" x2="337.1872" y1="678.3597" y2="690.7341"/><line style="stroke:#222222;stroke-width:2.5;" x1="337.1872" x2="324.8128" y1="678.3597" y2="690.7341"/><rect fill="#555555" height="6" rx="2.5" ry="2.5" style="stroke:#555555;stroke-width:1.0;" width="532" x="21" y="714.5469"/><rect fill="none" height="568.0469" style="stroke:#000000;stroke-width:1.5;" width="487" x="54.5" y="742.5469"/><path d="M211.5,742.5469 L211.5,758.8281 L201.5,768.8281 L54.5,768.8281 " fill="none" style="stroke:#000000;stroke-width:1.5;"/><text fill="#000000" font-family="sans-serif" font-size="20" lengthAdjust="spacing" textLength="147" x="57.5" y="762.1113">WorkerProcess</text><rect fill="#555555" height="6" rx="2.5" ry="2.5" style="stroke:#555555;stroke-width:1.0;" width="443" x="64.5" y="829.8281"/><rect fill="#F1F1F1" height="43.2813" rx="12.5" ry="12.5" style="stroke:#181818;stroke-width:0.5;" width="85" x="78.5" y="1026.3906"/><text fill="#000000" font-family="sans-serif" font-size="20" lengthAdjust="spacing" textLength="65" x="88.5" y="1054.9551">Parent</text><rect fill="#F1F1F1" height="43.2813" rx="12.5" ry="12.5" style="stroke:#181818;stroke-width:0.5;" width="167" x="247" y="855.8281"/><text fill="#000000" font-family="sans-serif" font-size="20" lengthAdjust="spacing" textLength="147" x="257" y="884.3926">WorkerProcess</text><rect fill="#F1F1F1" height="43.2813" rx="12.5" ry="12.5" style="stroke:#181818;stroke-width:0.5;" width="147" x="257" y="963.1094"/><text fill="#000000" font-family="sans-serif" font-size="20" lengthAdjust="spacing" textLength="127" x="267" y="991.6738">waitForWork</text><rect fill="#F1F1F1" height="43.2813" rx="12.5" ry="12.5" style="stroke:#181818;stroke-width:0.5;" width="113" x="274" y="1038.0313"/><text fill="#000000" font-family="sans-serif" font-size="20" lengthAdjust="spacing" textLength="93" x="284" y="1066.5957">copyFiles</text><rect fill="#F1F1F1" height="43.2813" rx="12.5" ry="12.5" style="stroke:#181818;stroke-width:0.5;" width="117" x="272" y="1101.3125"/><text fill="#000000" font-family="sans-serif" font-size="20" lengthAdjust="spacing" textLength="97" x="282" y="1129.877">reportFile</text><polygon fill="#F1F1F1" points="330.5,919.1094,342.5,931.1094,330.5,943.1094,318.5,931.1094,330.5,919.1094" style="stroke:#181818;stroke-width:0.5;"/><polygon fill="#F1F1F1" points="203.5,1164.5938,457.5,1164.5938,469.5,1176.5938,457.5,1188.5938,203.5,1188.5938,191.5,1176.5938,203.5,1164.5938" style="stroke:#181818;stroke-width:0.5;"/><text fill="#000000" font-family="sans-serif" font-size="20" lengthAdjust="spacing" textLength="254" x="203.5" y="1183.5176">WorkerProcess is running</text><ellipse cx="330.5" cy="1218.5938" fill="none" rx="10" ry="10" style="stroke:#222222;stroke-width:1.5;"/><line style="stroke:#222222;stroke-width:2.5;" x1="324.3128" x2="336.6872" y1="1212.4066" y2="1224.7809"/><line style="stroke:#222222;stroke-width:2.5;" x1="336.6872" x2="324.3128" y1="1212.4066" y2="1224.7809"/><rect fill="#555555" height="6" rx="2.5" ry="2.5" style="stroke:#555555;stroke-width:1.0;" width="443" x="64.5" y="1248.5938"/><polygon fill="#F1F1F1" points="286,785.8281,298,797.8281,286,809.8281,274,797.8281,286,785.8281" style="stroke:#181818;stroke-width:0.5;"/><polygon fill="#F1F1F1" points="210,1274.5938,362,1274.5938,374,1286.5938,362,1298.5938,210,1298.5938,198,1286.5938,210,1274.5938" style="stroke:#181818;stroke-width:0.5;"/><text fill="#000000" font-family="sans-serif" font-size="20" lengthAdjust="spacing" textLength="152" x="210" y="1293.5176">for N processes</text><rect fill="none" height="527.6875" style="stroke:#000000;stroke-width:1.5;" width="410" x="93" y="1320.5938"/><path d="M243,1320.5938 L243,1336.875 L233,1346.875 L93,1346.875 " fill="none" style="stroke:#000000;stroke-width:1.5;"/><text fill="#000000" font-family="sans-serif" font-size="20" lengthAdjust="spacing" textLength="140" x="96" y="1340.1582">ParentProcess</text><rect fill="#F1F1F1" height="43.2813" rx="12.5" ry="12.5" style="stroke:#181818;stroke-width:0.5;" width="366" x="103" y="1407.875"/><text fill="#000000" font-family="sans-serif" font-size="20" lengthAdjust="spacing" textLength="346" x="113" y="1436.4395">sem_wait(newFileCheckerProcess)</text><rect fill="#F1F1F1" height="43.2813" rx="12.5" ry="12.5" style="stroke:#181818;stroke-width:0.5;" width="194" x="189" y="1471.1563"/><text fill="#000000" font-family="sans-serif" font-size="20" lengthAdjust="spacing" textLength="174" x="199" y="1499.7207">listCandidatesIDs</text><rect fill="#F1F1F1" height="43.2813" rx="12.5" ry="12.5" style="stroke:#181818;stroke-width:0.5;" width="120" x="226" y="1578.4375"/><text fill="#000000" font-family="sans-serif" font-size="20" lengthAdjust="spacing" textLength="100" x="236" y="1607.002">sendWork</text><rect fill="#F1F1F1" height="43.2813" rx="12.5" ry="12.5" style="stroke:#181818;stroke-width:0.5;" width="228" x="172" y="1641.7188"/><text fill="#000000" font-family="sans-serif" font-size="20" lengthAdjust="spacing" textLength="208" x="182" y="1670.2832">sem_wait(reportFile)</text><rect fill="#F1F1F1" height="43.2813" rx="12.5" ry="12.5" style="stroke:#181818;stroke-width:0.5;" width="117" x="227.5" y="1705"/><text fill="#000000" font-family="sans-serif" font-size="20" lengthAdjust="spacing" textLength="97" x="237.5" y="1733.5645">reportFile</text><polygon fill="#F1F1F1" points="286,1534.4375,298,1546.4375,286,1558.4375,274,1546.4375,286,1534.4375" style="stroke:#181818;stroke-width:0.5;"/><polygon fill="#F1F1F1" points="140.5,1768.2813,431.5,1768.2813,443.5,1780.2813,431.5,1792.2813,140.5,1792.2813,128.5,1780.2813,140.5,1768.2813" style="stroke:#181818;stroke-width:0.5;"/><text fill="#000000" font-family="sans-serif" font-size="20" lengthAdjust="spacing" textLength="291" x="140.5" y="1787.2051">There are candidates to send</text><polygon fill="#F1F1F1" points="286,1363.875,298,1375.875,286,1387.875,274,1375.875,286,1363.875" style="stroke:#181818;stroke-width:0.5;"/><polygon fill="#F1F1F1" points="195.5,1812.2813,376.5,1812.2813,388.5,1824.2813,376.5,1836.2813,195.5,1836.2813,183.5,1824.2813,195.5,1812.2813" style="stroke:#181818;stroke-width:0.5;"/><text fill="#000000" font-family="sans-serif" font-size="20" lengthAdjust="spacing" textLength="181" x="195.5" y="1831.2051">System is running</text><ellipse cx="286" cy="1878.2813" fill="none" rx="10" ry="10" style="stroke:#222222;stroke-width:1.5;"/><line style="stroke:#222222;stroke-width:2.5;" x1="279.8128" x2="292.1872" y1="1872.0941" y2="1884.4684"/><line style="stroke:#222222;stroke-width:2.5;" x1="292.1872" x2="279.8128" y1="1872.0941" y2="1884.4684"/><line style="stroke:#181818;stroke-width:1.0;" x1="286" x2="286" y1="163.8594" y2="183.8594"/><polygon fill="#181818" points="282,173.8594,286,183.8594,290,173.8594,286,177.8594" style="stroke:#181818;stroke-width:1.0;"/><line style="stroke:#181818;stroke-width:1.0;" x1="286" x2="286" y1="227.1406" y2="247.1406"/><polygon fill="#181818" points="282,237.1406,286,247.1406,290,237.1406,286,241.1406" style="stroke:#181818;stroke-width:1.0;"/><line style="stroke:#181818;stroke-width:1.0;" x1="286" x2="286" y1="67.2969" y2="120.5781"/><polygon fill="#181818" points="282,110.5781,286,120.5781,290,110.5781,286,114.5781" style="stroke:#181818;stroke-width:1.0;"/><line style="stroke:#181818;stroke-width:1.0;" x1="331" x2="331" y1="532.2656" y2="567.2656"/><polygon fill="#181818" points="327,557.2656,331,567.2656,335,557.2656,331,561.2656" style="stroke:#181818;stroke-width:1.0;"/><line style="stroke:#181818;stroke-width:1.0;" x1="331" x2="331" y1="468.9844" y2="488.9844"/><polygon fill="#181818" points="327,478.9844,331,488.9844,335,478.9844,331,482.9844" style="stroke:#181818;stroke-width:1.0;"/><line style="stroke:#181818;stroke-width:1.0;" x1="515" x2="527" y1="642.5469" y2="642.5469"/><polygon fill="#181818" points="523,559.7656,527,549.7656,531,559.7656,527,555.7656" style="stroke:#181818;stroke-width:1.0;"/><line style="stroke:#181818;stroke-width:1.0;" x1="527" x2="527" y1="456.9844" y2="642.5469"/><line style="stroke:#181818;stroke-width:1.0;" x1="527" x2="343" y1="456.9844" y2="456.9844"/><polygon fill="#181818" points="353,452.9844,343,456.9844,353,460.9844,349,456.9844" style="stroke:#181818;stroke-width:1.0;"/><line style="stroke:#181818;stroke-width:1.0;" x1="331" x2="331" y1="610.5469" y2="630.5469"/><polygon fill="#181818" points="327,620.5469,331,630.5469,335,620.5469,331,624.5469" style="stroke:#181818;stroke-width:1.0;"/><line style="stroke:#181818;stroke-width:1.0;" x1="331" x2="331" y1="424.9844" y2="444.9844"/><polygon fill="#181818" points="327,434.9844,331,444.9844,335,434.9844,331,438.9844" style="stroke:#181818;stroke-width:1.0;"/><line style="stroke:#181818;stroke-width:1.0;" x1="331" x2="331" y1="654.5469" y2="674.5469"/><polygon fill="#181818" points="327,664.5469,331,674.5469,335,664.5469,331,668.5469" style="stroke:#181818;stroke-width:1.0;"/><line style="stroke:#181818;stroke-width:1.0;" x1="76" x2="76" y1="361.7031" y2="516.4844"/><polygon fill="#181818" points="72,506.4844,76,516.4844,80,506.4844,76,510.4844" style="stroke:#181818;stroke-width:1.0;"/><line style="stroke:#181818;stroke-width:1.0;" x1="331" x2="331" y1="361.7031" y2="381.7031"/><polygon fill="#181818" points="327,371.7031,331,381.7031,335,371.7031,331,375.7031" style="stroke:#181818;stroke-width:1.0;"/><line style="stroke:#181818;stroke-width:1.0;" x1="76" x2="76" y1="559.7656" y2="714.5469"/><polygon fill="#181818" points="72,704.5469,76,714.5469,80,704.5469,76,708.5469" style="stroke:#181818;stroke-width:1.0;"/><line style="stroke:#181818;stroke-width:1.0;" x1="286" x2="286" y1="290.4219" y2="355.7031"/><polygon fill="#181818" points="282,345.7031,286,355.7031,290,345.7031,286,349.7031" style="stroke:#181818;stroke-width:1.0;"/><line style="stroke:#181818;stroke-width:1.0;" x1="330.5" x2="330.5" y1="1006.3906" y2="1038.0313"/><polygon fill="#181818" points="326.5,1028.0313,330.5,1038.0313,334.5,1028.0313,330.5,1032.0313" style="stroke:#181818;stroke-width:1.0;"/><line style="stroke:#181818;stroke-width:1.0;" x1="330.5" x2="330.5" y1="1081.3125" y2="1101.3125"/><polygon fill="#181818" points="326.5,1091.3125,330.5,1101.3125,334.5,1091.3125,330.5,1095.3125" style="stroke:#181818;stroke-width:1.0;"/><line style="stroke:#181818;stroke-width:1.0;" x1="330.5" x2="330.5" y1="943.1094" y2="963.1094"/><polygon fill="#181818" points="326.5,953.1094,330.5,963.1094,334.5,953.1094,330.5,957.1094" style="stroke:#181818;stroke-width:1.0;"/><line style="stroke:#181818;stroke-width:1.0;" x1="469.5" x2="481.5" y1="1176.5938" y2="1176.5938"/><polygon fill="#181818" points="477.5,1069.6719,481.5,1059.6719,485.5,1069.6719,481.5,1065.6719" style="stroke:#181818;stroke-width:1.0;"/><line style="stroke:#181818;stroke-width:1.0;" x1="481.5" x2="481.5" y1="931.1094" y2="1176.5938"/><line style="stroke:#181818;stroke-width:1.0;" x1="481.5" x2="342.5" y1="931.1094" y2="931.1094"/><polygon fill="#181818" points="352.5,927.1094,342.5,931.1094,352.5,935.1094,348.5,931.1094" style="stroke:#181818;stroke-width:1.0;"/><line style="stroke:#181818;stroke-width:1.0;" x1="330.5" x2="330.5" y1="1144.5938" y2="1164.5938"/><polygon fill="#181818" points="326.5,1154.5938,330.5,1164.5938,334.5,1154.5938,330.5,1158.5938" style="stroke:#181818;stroke-width:1.0;"/><line style="stroke:#181818;stroke-width:1.0;" x1="330.5" x2="330.5" y1="899.1094" y2="919.1094"/><polygon fill="#181818" points="326.5,909.1094,330.5,919.1094,334.5,909.1094,330.5,913.1094" style="stroke:#181818;stroke-width:1.0;"/><line style="stroke:#181818;stroke-width:1.0;" x1="330.5" x2="330.5" y1="1188.5938" y2="1208.5938"/><polygon fill="#181818" points="326.5,1198.5938,330.5,1208.5938,334.5,1198.5938,330.5,1202.5938" style="stroke:#181818;stroke-width:1.0;"/><line style="stroke:#181818;stroke-width:1.0;" x1="121" x2="121" y1="835.8281" y2="1026.3906"/><polygon fill="#181818" points="117,1016.3906,121,1026.3906,125,1016.3906,121,1020.3906" style="stroke:#181818;stroke-width:1.0;"/><line style="stroke:#181818;stroke-width:1.0;" x1="330.5" x2="330.5" y1="835.8281" y2="855.8281"/><polygon fill="#181818" points="326.5,845.8281,330.5,855.8281,334.5,845.8281,330.5,849.8281" style="stroke:#181818;stroke-width:1.0;"/><line style="stroke:#181818;stroke-width:1.0;" x1="121" x2="121" y1="1069.6719" y2="1248.5938"/><polygon fill="#181818" points="117,1238.5938,121,1248.5938,125,1238.5938,121,1242.5938" style="stroke:#181818;stroke-width:1.0;"/><line style="stroke:#181818;stroke-width:1.0;" x1="286" x2="286" y1="809.8281" y2="829.8281"/><polygon fill="#181818" points="282,819.8281,286,829.8281,290,819.8281,286,823.8281" style="stroke:#181818;stroke-width:1.0;"/><line style="stroke:#181818;stroke-width:1.0;" x1="374" x2="519.5" y1="1286.5938" y2="1286.5938"/><polygon fill="#181818" points="515.5,1058.0313,519.5,1048.0313,523.5,1058.0313,519.5,1054.0313" style="stroke:#181818;stroke-width:1.0;"/><line style="stroke:#181818;stroke-width:1.0;" x1="519.5" x2="519.5" y1="797.8281" y2="1286.5938"/><line style="stroke:#181818;stroke-width:1.0;" x1="519.5" x2="298" y1="797.8281" y2="797.8281"/><polygon fill="#181818" points="308,793.8281,298,797.8281,308,801.8281,304,797.8281" style="stroke:#181818;stroke-width:1.0;"/><line style="stroke:#181818;stroke-width:1.0;" x1="286" x2="286" y1="1254.5938" y2="1274.5938"/><polygon fill="#181818" points="282,1264.5938,286,1274.5938,290,1264.5938,286,1268.5938" style="stroke:#181818;stroke-width:1.0;"/><line style="stroke:#181818;stroke-width:1.0;" x1="286" x2="286" y1="720.5469" y2="785.8281"/><polygon fill="#181818" points="282,775.8281,286,785.8281,290,775.8281,286,779.8281" style="stroke:#181818;stroke-width:1.0;"/><line style="stroke:#181818;stroke-width:1.0;" x1="286" x2="286" y1="1451.1563" y2="1471.1563"/><polygon fill="#181818" points="282,1461.1563,286,1471.1563,290,1461.1563,286,1465.1563" style="stroke:#181818;stroke-width:1.0;"/><line style="stroke:#181818;stroke-width:1.0;" x1="286" x2="286" y1="1621.7188" y2="1641.7188"/><polygon fill="#181818" points="282,1631.7188,286,1641.7188,290,1631.7188,286,1635.7188" style="stroke:#181818;stroke-width:1.0;"/><line style="stroke:#181818;stroke-width:1.0;" x1="286" x2="286" y1="1685" y2="1705"/><polygon fill="#181818" points="282,1695,286,1705,290,1695,286,1699" style="stroke:#181818;stroke-width:1.0;"/><line style="stroke:#181818;stroke-width:1.0;" x1="286" x2="286" y1="1558.4375" y2="1578.4375"/><polygon fill="#181818" points="282,1568.4375,286,1578.4375,290,1568.4375,286,1572.4375" style="stroke:#181818;stroke-width:1.0;"/><line style="stroke:#181818;stroke-width:1.0;" x1="443.5" x2="455.5" y1="1780.2813" y2="1780.2813"/><polygon fill="#181818" points="451.5,1673.3594,455.5,1663.3594,459.5,1673.3594,455.5,1669.3594" style="stroke:#181818;stroke-width:1.0;"/><line style="stroke:#181818;stroke-width:1.0;" x1="455.5" x2="455.5" y1="1546.4375" y2="1780.2813"/><line style="stroke:#181818;stroke-width:1.0;" x1="455.5" x2="298" y1="1546.4375" y2="1546.4375"/><polygon fill="#181818" points="308,1542.4375,298,1546.4375,308,1550.4375,304,1546.4375" style="stroke:#181818;stroke-width:1.0;"/><line style="stroke:#181818;stroke-width:1.0;" x1="286" x2="286" y1="1748.2813" y2="1768.2813"/><polygon fill="#181818" points="282,1758.2813,286,1768.2813,290,1758.2813,286,1762.2813" style="stroke:#181818;stroke-width:1.0;"/><line style="stroke:#181818;stroke-width:1.0;" x1="286" x2="286" y1="1514.4375" y2="1534.4375"/><polygon fill="#181818" points="282,1524.4375,286,1534.4375,290,1524.4375,286,1528.4375" style="stroke:#181818;stroke-width:1.0;"/><line style="stroke:#181818;stroke-width:1.0;" x1="286" x2="286" y1="1387.875" y2="1407.875"/><polygon fill="#181818" points="282,1397.875,286,1407.875,290,1397.875,286,1401.875" style="stroke:#181818;stroke-width:1.0;"/><line style="stroke:#181818;stroke-width:1.0;" x1="388.5" x2="481" y1="1824.2813" y2="1824.2813"/><polygon fill="#181818" points="477,1610.0781,481,1600.0781,485,1610.0781,481,1606.0781" style="stroke:#181818;stroke-width:1.0;"/><line style="stroke:#181818;stroke-width:1.0;" x1="481" x2="481" y1="1375.875" y2="1824.2813"/><line style="stroke:#181818;stroke-width:1.0;" x1="481" x2="298" y1="1375.875" y2="1375.875"/><polygon fill="#181818" points="308,1371.875,298,1375.875,308,1379.875,304,1375.875" style="stroke:#181818;stroke-width:1.0;"/><line style="stroke:#181818;stroke-width:1.0;" x1="286" x2="286" y1="1792.2813" y2="1812.2813"/><polygon fill="#181818" points="282,1802.2813,286,1812.2813,290,1802.2813,286,1806.2813" style="stroke:#181818;stroke-width:1.0;"/><line style="stroke:#181818;stroke-width:1.0;" x1="286" x2="286" y1="1298.5938" y2="1363.875"/><polygon fill="#181818" points="282,1353.875,286,1363.875,290,1353.875,286,1357.875" style="stroke:#181818;stroke-width:1.0;"/><line style="stroke:#181818;stroke-width:1.0;" x1="286" x2="286" y1="1836.2813" y2="1868.2813"/><polygon fill="#181818" points="282,1858.2813,286,1868.2813,290,1858.2813,286,1862.2813" style="stroke:#181818;stroke-width:1.0;"/><!--SRC=[TPCnRy8m48Lt_ueRoL2fwaWc2aBgWf2erB6oaYES27PaNugWwd_lsGaXJkaIHy_tpkyx9_v8fj5EdsfR7B644lUwhNbj3U_eYl3oh1GJrmYBfgcfq4pMU5YJAA-MuGaM1TCNyGLMf2jff9HdxLWfQIjEAOSt8wkkwHhTyAq0veE6u2-UyPG7rIEtpOugesi_ow9K8I-jsLFLkcWFilePjz_WEUHP7b0GtDRP0hsFf-ojEyeYNQGQ3UUz1hhIPBeTyyYTnps73MgEhr9OX8grTVrnVKq8NICseIyOy5XOKoP-E1-aVFOu9NbmhJ5agYnQq9GgFhli2UU7A2dVAE20Ae6s0-mVNDbDsjmW4bGfEckIZy25slok5hQv9EoYYTCw3chQgyTEGqznRy0Zv8a_Z7K3JUT7dwKZwKZ_6ObyJQVF039xUCTPbtTUa-UbDYMLcj6_hHvUlfTyus7SUz_vis5pEfE4wFs03a62Gp6S2cmX795DyNVntqZc9WC8G_i5]--></g></svg>