<?xml version="1.0" encoding="UTF-8" standalone="no"?><svg xmlns="http://www.w3.org/2000/svg" xmlns:xlink="http://www.w3.org/1999/xlink" contentStyleType="text/css" height="2401px" preserveAspectRatio="none" style="width:605px;height:2401px;background:#FFFFFF;" version="1.1" viewBox="0 0 605 2401" width="605px" zoomAndPan="magnify"><defs/><g><text fill="#000000" font-family="sans-serif" font-size="14" font-weight="bold" lengthAdjust="spacing" textLength="302" x="150" y="32.9951">Applications File Bot - Activity Diagram</text><ellipse cx="287" cy="57.2969" fill="#222222" rx="10" ry="10" style="stroke:#222222;stroke-width:1.0;"/><rect fill="none" height="225.125" style="stroke:#000000;stroke-width:1.5;" width="226" x="174" y="77.2969"/><path d="M309,77.2969 L309,93.5781 L299,103.5781 L174,103.5781 " fill="none" style="stroke:#000000;stroke-width:1.5;"/><text fill="#000000" font-family="sans-serif" font-size="20" lengthAdjust="spacing" textLength="125" x="177" y="96.8613">Initialization</text><rect fill="#F1F1F1" height="43.2813" rx="12.5" ry="12.5" style="stroke:#181818;stroke-width:0.5;" width="183" x="195.5" y="120.5781"/><text fill="#000000" font-family="sans-serif" font-size="20" lengthAdjust="spacing" textLength="163" x="205.5" y="149.1426">Initialize system</text><rect fill="#F1F1F1" height="43.2813" rx="12.5" ry="12.5" style="stroke:#181818;stroke-width:0.5;" width="165" x="204.5" y="183.8594"/><text fill="#000000" font-family="sans-serif" font-size="20" lengthAdjust="spacing" textLength="145" x="214.5" y="212.4238">setupSignals()</text><rect fill="#F1F1F1" height="43.2813" rx="12.5" ry="12.5" style="stroke:#181818;stroke-width:0.5;" width="206" x="184" y="247.1406"/><text fill="#000000" font-family="sans-serif" font-size="20" lengthAdjust="spacing" textLength="186" x="194" y="275.7051">getConfiguration()</text><rect fill="none" height="566.0469" style="stroke:#000000;stroke-width:1.5;" width="553" x="11" y="312.4219"/><path d="M258,312.4219 L258,328.7031 L248,338.7031 L11,338.7031 " fill="none" style="stroke:#000000;stroke-width:1.5;"/><text fill="#000000" font-family="sans-serif" font-size="20" lengthAdjust="spacing" textLength="237" x="14" y="331.9863">NewFileCheckerProcess</text><rect fill="#555555" height="6" rx="2.5" ry="2.5" style="stroke:#555555;stroke-width:1.0;" width="533" x="21" y="355.7031"/><rect fill="#F1F1F1" height="43.2813" rx="12.5" ry="12.5" style="stroke:#181818;stroke-width:0.5;" width="86" x="34" y="594.2656"/><text fill="#000000" font-family="sans-serif" font-size="20" lengthAdjust="spacing" textLength="66" x="44" y="622.8301">parent</text><rect fill="#F1F1F1" height="43.2813" rx="12.5" ry="12.5" style="stroke:#181818;stroke-width:0.5;" width="255" x="204.5" y="381.7031"/><text fill="#000000" font-family="sans-serif" font-size="20" lengthAdjust="spacing" textLength="235" x="214.5" y="410.2676">newFileCheckerProcess</text><rect fill="#F1F1F1" height="43.2813" rx="12.5" ry="12.5" style="stroke:#181818;stroke-width:0.5;" width="201" x="231.5" y="488.9844"/><text fill="#000000" font-family="sans-serif" font-size="20" lengthAdjust="spacing" textLength="181" x="241.5" y="517.5488">checkForNewFiles</text><rect fill="#F1F1F1" height="43.2813" rx="12.5" ry="12.5" style="stroke:#181818;stroke-width:0.5;" width="271" x="196.5" y="605.9063"/><text fill="#000000" font-family="sans-serif" font-size="20" lengthAdjust="spacing" textLength="251" x="206.5" y="634.4707">sem_post(sem_newFiles)</text><polygon fill="#F1F1F1" points="242.5,552.2656,421.5,552.2656,433.5,564.2656,421.5,576.2656,242.5,576.2656,230.5,564.2656,242.5,552.2656" style="stroke:#181818;stroke-width:0.5;"/><text fill="#000000" font-family="sans-serif" font-size="20" lengthAdjust="spacing" textLength="33" x="336" y="594.8301">yes</text><text fill="#000000" font-family="sans-serif" font-size="20" lengthAdjust="spacing" textLength="179" x="242.5" y="571.1895">newFilesDetected</text><polygon fill="#F1F1F1" points="332,669.1875,344,681.1875,332,693.1875,320,681.1875,332,669.1875" style="stroke:#181818;stroke-width:0.5;"/><rect fill="#F1F1F1" height="43.2813" rx="12.5" ry="12.5" style="stroke:#181818;stroke-width:0.5;" width="212" x="226" y="713.1875"/><text fill="#000000" font-family="sans-serif" font-size="20" lengthAdjust="spacing" textLength="192" x="236" y="741.752">sleep for n seconds</text><polygon fill="#F1F1F1" points="332,444.9844,344,456.9844,332,468.9844,320,456.9844,332,444.9844" style="stroke:#181818;stroke-width:0.5;"/><polygon fill="#F1F1F1" points="160,776.4688,504,776.4688,516,788.4688,504,800.4688,160,800.4688,148,788.4688,160,776.4688" style="stroke:#181818;stroke-width:0.5;"/><text fill="#000000" font-family="sans-serif" font-size="20" lengthAdjust="spacing" textLength="344" x="160" y="795.3926">NewFileCheckerProcess is running</text><ellipse cx="332" cy="830.4688" fill="none" rx="10" ry="10" style="stroke:#222222;stroke-width:1.5;"/><line style="stroke:#222222;stroke-width:2.5;" x1="325.8128" x2="338.1872" y1="824.2816" y2="836.6559"/><line style="stroke:#222222;stroke-width:2.5;" x1="338.1872" x2="325.8128" y1="824.2816" y2="836.6559"/><rect fill="#555555" height="6" rx="2.5" ry="2.5" style="stroke:#555555;stroke-width:1.0;" width="533" x="21" y="860.4688"/><rect fill="none" height="568.0469" style="stroke:#000000;stroke-width:1.5;" width="520" x="39" y="888.4688"/><path d="M196,888.4688 L196,904.75 L186,914.75 L39,914.75 " fill="none" style="stroke:#000000;stroke-width:1.5;"/><text fill="#000000" font-family="sans-serif" font-size="20" lengthAdjust="spacing" textLength="147" x="42" y="908.0332">WorkerProcess</text><rect fill="#555555" height="6" rx="2.5" ry="2.5" style="stroke:#555555;stroke-width:1.0;" width="476" x="49" y="975.75"/><rect fill="#F1F1F1" height="43.2813" rx="12.5" ry="12.5" style="stroke:#181818;stroke-width:0.5;" width="85" x="63" y="1172.3125"/><text fill="#000000" font-family="sans-serif" font-size="20" lengthAdjust="spacing" textLength="65" x="73" y="1200.877">Parent</text><rect fill="#F1F1F1" height="43.2813" rx="12.5" ry="12.5" style="stroke:#181818;stroke-width:0.5;" width="167" x="248" y="1001.75"/><text fill="#000000" font-family="sans-serif" font-size="20" lengthAdjust="spacing" textLength="147" x="258" y="1030.3145">WorkerProcess</text><rect fill="#F1F1F1" height="43.2813" rx="12.5" ry="12.5" style="stroke:#181818;stroke-width:0.5;" width="311" x="176" y="1109.0313"/><text fill="#000000" font-family="sans-serif" font-size="20" lengthAdjust="spacing" textLength="291" x="186" y="1137.5957">sem_wait(sem_startWorkers)</text><rect fill="#F1F1F1" height="43.2813" rx="12.5" ry="12.5" style="stroke:#181818;stroke-width:0.5;" width="113" x="275" y="1183.9531"/><text fill="#000000" font-family="sans-serif" font-size="20" lengthAdjust="spacing" textLength="93" x="285" y="1212.5176">copyFiles</text><rect fill="#F1F1F1" height="43.2813" rx="12.5" ry="12.5" style="stroke:#181818;stroke-width:0.5;" width="296" x="183.5" y="1247.2344"/><text fill="#000000" font-family="sans-serif" font-size="20" lengthAdjust="spacing" textLength="276" x="193.5" y="1275.7988">sem_post(sem_startReport)</text><polygon fill="#F1F1F1" points="331.5,1065.0313,343.5,1077.0313,331.5,1089.0313,319.5,1077.0313,331.5,1065.0313" style="stroke:#181818;stroke-width:0.5;"/><polygon fill="#F1F1F1" points="204.5,1310.5156,458.5,1310.5156,470.5,1322.5156,458.5,1334.5156,204.5,1334.5156,192.5,1322.5156,204.5,1310.5156" style="stroke:#181818;stroke-width:0.5;"/><text fill="#000000" font-family="sans-serif" font-size="20" lengthAdjust="spacing" textLength="254" x="204.5" y="1329.4395">WorkerProcess is running</text><ellipse cx="331.5" cy="1364.5156" fill="none" rx="10" ry="10" style="stroke:#222222;stroke-width:1.5;"/><line style="stroke:#222222;stroke-width:2.5;" x1="325.3128" x2="337.6872" y1="1358.3284" y2="1370.7028"/><line style="stroke:#222222;stroke-width:2.5;" x1="337.6872" x2="325.3128" y1="1358.3284" y2="1370.7028"/><rect fill="#555555" height="6" rx="2.5" ry="2.5" style="stroke:#555555;stroke-width:1.0;" width="476" x="49" y="1394.5156"/><polygon fill="#F1F1F1" points="287,931.75,299,943.75,287,955.75,275,943.75,287,931.75" style="stroke:#181818;stroke-width:0.5;"/><polygon fill="#F1F1F1" points="211,1420.5156,363,1420.5156,375,1432.5156,363,1444.5156,211,1444.5156,199,1432.5156,211,1420.5156" style="stroke:#181818;stroke-width:0.5;"/><text fill="#000000" font-family="sans-serif" font-size="20" lengthAdjust="spacing" textLength="152" x="211" y="1439.4395">for N processes</text><rect fill="none" height="883.8906" style="stroke:#000000;stroke-width:1.5;" width="561" x="33" y="1466.5156"/><path d="M183,1466.5156 L183,1482.7969 L173,1492.7969 L33,1492.7969 " fill="none" style="stroke:#000000;stroke-width:1.5;"/><text fill="#000000" font-family="sans-serif" font-size="20" lengthAdjust="spacing" textLength="140" x="36" y="1486.0801">ParentProcess</text><rect fill="#F1F1F1" height="43.2813" rx="12.5" ry="12.5" style="stroke:#181818;stroke-width:0.5;" width="271" x="151.5" y="1553.7969"/><text fill="#000000" font-family="sans-serif" font-size="20" lengthAdjust="spacing" textLength="251" x="161.5" y="1582.3613">sem_wait(sem_newFiles)</text><rect fill="#F1F1F1" height="43.2813" rx="12.5" ry="12.5" style="stroke:#181818;stroke-width:0.5;" width="194" x="190" y="1617.0781"/><text fill="#000000" font-family="sans-serif" font-size="20" lengthAdjust="spacing" textLength="174" x="200" y="1645.6426">listCandidatesIDs</text><rect fill="#F1F1F1" height="43.2813" rx="12.5" ry="12.5" style="stroke:#181818;stroke-width:0.5;" width="398" x="88" y="1724.3594"/><text fill="#000000" font-family="sans-serif" font-size="20" lengthAdjust="spacing" textLength="378" x="98" y="1752.9238">sem_post(sem_numberOfCandidates)</text><polygon fill="#F1F1F1" points="141.5,1680.3594,432.5,1680.3594,444.5,1692.3594,432.5,1704.3594,141.5,1704.3594,129.5,1692.3594,141.5,1680.3594" style="stroke:#181818;stroke-width:0.5;"/><text fill="#000000" font-family="sans-serif" font-size="20" lengthAdjust="spacing" textLength="291" x="141.5" y="1699.2832">There are candidates to send</text><rect fill="#F1F1F1" height="43.2813" rx="12.5" ry="12.5" style="stroke:#181818;stroke-width:0.5;" width="136" x="219" y="1897.6406"/><text fill="#000000" font-family="sans-serif" font-size="20" lengthAdjust="spacing" textLength="116" x="229" y="1926.2051">sendWork()</text><polygon fill="#F1F1F1" points="111.5,1853.6406,462.5,1853.6406,474.5,1865.6406,462.5,1877.6406,111.5,1877.6406,99.5,1865.6406,111.5,1853.6406" style="stroke:#181818;stroke-width:0.5;"/><text fill="#000000" font-family="sans-serif" font-size="20" lengthAdjust="spacing" textLength="351" x="111.5" y="1872.5645">sem_trywait(sem_bufferSize) == 0</text><rect fill="#F1F1F1" height="43.2813" rx="12.5" ry="12.5" style="stroke:#181818;stroke-width:0.5;" width="228" x="173" y="1982.9219"/><text fill="#000000" font-family="sans-serif" font-size="20" lengthAdjust="spacing" textLength="208" x="183" y="2011.4863">sem_wait(reportFile)</text><rect fill="#F1F1F1" height="43.2813" rx="12.5" ry="12.5" style="stroke:#181818;stroke-width:0.5;" width="133" x="220.5" y="2046.2031"/><text fill="#000000" font-family="sans-serif" font-size="20" lengthAdjust="spacing" textLength="113" x="230.5" y="2074.7676">reportFile()</text><rect fill="#F1F1F1" height="43.2813" rx="12.5" ry="12.5" style="stroke:#181818;stroke-width:0.5;" width="77" x="248.5" y="2163.125"/><text fill="#000000" font-family="sans-serif" font-size="20" lengthAdjust="spacing" textLength="57" x="258.5" y="2191.6895">break</text><polygon fill="#F1F1F1" points="55,2109.4844,519,2109.4844,531,2121.4844,519,2133.4844,55,2133.4844,43,2121.4844,55,2109.4844" style="stroke:#181818;stroke-width:0.5;"/><text fill="#000000" font-family="sans-serif" font-size="20" lengthAdjust="spacing" textLength="33" x="291" y="2152.0488">yes</text><text fill="#000000" font-family="sans-serif" font-size="20" lengthAdjust="spacing" textLength="464" x="55" y="2128.4082">sem_trywait(sem_numberOfCandidates) == 1</text><polygon fill="#F1F1F1" points="287,2226.4063,299,2238.4063,287,2250.4063,275,2238.4063,287,2226.4063" style="stroke:#181818;stroke-width:0.5;"/><polygon fill="#F1F1F1" points="287,1809.6406,299,1821.6406,287,1833.6406,275,1821.6406,287,1809.6406" style="stroke:#181818;stroke-width:0.5;"/><polygon fill="#F1F1F1" points="141.5,2270.4063,432.5,2270.4063,444.5,2282.4063,432.5,2294.4063,141.5,2294.4063,129.5,2282.4063,141.5,2270.4063" style="stroke:#181818;stroke-width:0.5;"/><text fill="#000000" font-family="sans-serif" font-size="20" lengthAdjust="spacing" textLength="291" x="141.5" y="2289.3301">There are candidates to send</text><polygon fill="#F1F1F1" points="287,1509.7969,299,1521.7969,287,1533.7969,275,1521.7969,287,1509.7969" style="stroke:#181818;stroke-width:0.5;"/><polygon fill="#F1F1F1" points="196.5,2314.4063,377.5,2314.4063,389.5,2326.4063,377.5,2338.4063,196.5,2338.4063,184.5,2326.4063,196.5,2314.4063" style="stroke:#181818;stroke-width:0.5;"/><text fill="#000000" font-family="sans-serif" font-size="20" lengthAdjust="spacing" textLength="181" x="196.5" y="2333.3301">System is running</text><ellipse cx="287" cy="2380.4063" fill="none" rx="10" ry="10" style="stroke:#222222;stroke-width:1.5;"/><line style="stroke:#222222;stroke-width:2.5;" x1="280.8128" x2="293.1872" y1="2374.2191" y2="2386.5934"/><line style="stroke:#222222;stroke-width:2.5;" x1="293.1872" x2="280.8128" y1="2374.2191" y2="2386.5934"/><line style="stroke:#181818;stroke-width:1.0;" x1="287" x2="287" y1="163.8594" y2="183.8594"/><polygon fill="#181818" points="283,173.8594,287,183.8594,291,173.8594,287,177.8594" style="stroke:#181818;stroke-width:1.0;"/><line style="stroke:#181818;stroke-width:1.0;" x1="287" x2="287" y1="227.1406" y2="247.1406"/><polygon fill="#181818" points="283,237.1406,287,247.1406,291,237.1406,287,241.1406" style="stroke:#181818;stroke-width:1.0;"/><line style="stroke:#181818;stroke-width:1.0;" x1="287" x2="287" y1="67.2969" y2="120.5781"/><polygon fill="#181818" points="283,110.5781,287,120.5781,291,110.5781,287,114.5781" style="stroke:#181818;stroke-width:1.0;"/><line style="stroke:#181818;stroke-width:1.0;" x1="332" x2="332" y1="576.2656" y2="605.9063"/><polygon fill="#181818" points="328,595.9063,332,605.9063,336,595.9063,332,599.9063" style="stroke:#181818;stroke-width:1.0;"/><line style="stroke:#181818;stroke-width:1.0;" x1="433.5" x2="477.5" y1="564.2656" y2="564.2656"/><polygon fill="#181818" points="473.5,617.5469,477.5,627.5469,481.5,617.5469,477.5,621.5469" style="stroke:#181818;stroke-width:1.0;"/><line style="stroke:#181818;stroke-width:1.0;" x1="477.5" x2="477.5" y1="564.2656" y2="681.1875"/><line style="stroke:#181818;stroke-width:1.0;" x1="477.5" x2="344" y1="681.1875" y2="681.1875"/><polygon fill="#181818" points="354,677.1875,344,681.1875,354,685.1875,350,681.1875" style="stroke:#181818;stroke-width:1.0;"/><line style="stroke:#181818;stroke-width:1.0;" x1="332" x2="332" y1="649.1875" y2="669.1875"/><polygon fill="#181818" points="328,659.1875,332,669.1875,336,659.1875,332,663.1875" style="stroke:#181818;stroke-width:1.0;"/><line style="stroke:#181818;stroke-width:1.0;" x1="332" x2="332" y1="532.2656" y2="552.2656"/><polygon fill="#181818" points="328,542.2656,332,552.2656,336,542.2656,332,546.2656" style="stroke:#181818;stroke-width:1.0;"/><line style="stroke:#181818;stroke-width:1.0;" x1="332" x2="332" y1="693.1875" y2="713.1875"/><polygon fill="#181818" points="328,703.1875,332,713.1875,336,703.1875,332,707.1875" style="stroke:#181818;stroke-width:1.0;"/><line style="stroke:#181818;stroke-width:1.0;" x1="332" x2="332" y1="468.9844" y2="488.9844"/><polygon fill="#181818" points="328,478.9844,332,488.9844,336,478.9844,332,482.9844" style="stroke:#181818;stroke-width:1.0;"/><line style="stroke:#181818;stroke-width:1.0;" x1="516" x2="528" y1="788.4688" y2="788.4688"/><polygon fill="#181818" points="524,637.5469,528,627.5469,532,637.5469,528,633.5469" style="stroke:#181818;stroke-width:1.0;"/><line style="stroke:#181818;stroke-width:1.0;" x1="528" x2="528" y1="456.9844" y2="788.4688"/><line style="stroke:#181818;stroke-width:1.0;" x1="528" x2="344" y1="456.9844" y2="456.9844"/><polygon fill="#181818" points="354,452.9844,344,456.9844,354,460.9844,350,456.9844" style="stroke:#181818;stroke-width:1.0;"/><line style="stroke:#181818;stroke-width:1.0;" x1="332" x2="332" y1="756.4688" y2="776.4688"/><polygon fill="#181818" points="328,766.4688,332,776.4688,336,766.4688,332,770.4688" style="stroke:#181818;stroke-width:1.0;"/><line style="stroke:#181818;stroke-width:1.0;" x1="332" x2="332" y1="424.9844" y2="444.9844"/><polygon fill="#181818" points="328,434.9844,332,444.9844,336,434.9844,332,438.9844" style="stroke:#181818;stroke-width:1.0;"/><line style="stroke:#181818;stroke-width:1.0;" x1="332" x2="332" y1="800.4688" y2="820.4688"/><polygon fill="#181818" points="328,810.4688,332,820.4688,336,810.4688,332,814.4688" style="stroke:#181818;stroke-width:1.0;"/><line style="stroke:#181818;stroke-width:1.0;" x1="77" x2="77" y1="361.7031" y2="594.2656"/><polygon fill="#181818" points="73,584.2656,77,594.2656,81,584.2656,77,588.2656" style="stroke:#181818;stroke-width:1.0;"/><line style="stroke:#181818;stroke-width:1.0;" x1="332" x2="332" y1="361.7031" y2="381.7031"/><polygon fill="#181818" points="328,371.7031,332,381.7031,336,371.7031,332,375.7031" style="stroke:#181818;stroke-width:1.0;"/><line style="stroke:#181818;stroke-width:1.0;" x1="77" x2="77" y1="637.5469" y2="860.4688"/><polygon fill="#181818" points="73,850.4688,77,860.4688,81,850.4688,77,854.4688" style="stroke:#181818;stroke-width:1.0;"/><line style="stroke:#181818;stroke-width:1.0;" x1="287" x2="287" y1="290.4219" y2="355.7031"/><polygon fill="#181818" points="283,345.7031,287,355.7031,291,345.7031,287,349.7031" style="stroke:#181818;stroke-width:1.0;"/><line style="stroke:#181818;stroke-width:1.0;" x1="331.5" x2="331.5" y1="1152.3125" y2="1183.9531"/><polygon fill="#181818" points="327.5,1173.9531,331.5,1183.9531,335.5,1173.9531,331.5,1177.9531" style="stroke:#181818;stroke-width:1.0;"/><line style="stroke:#181818;stroke-width:1.0;" x1="331.5" x2="331.5" y1="1227.2344" y2="1247.2344"/><polygon fill="#181818" points="327.5,1237.2344,331.5,1247.2344,335.5,1237.2344,331.5,1241.2344" style="stroke:#181818;stroke-width:1.0;"/><line style="stroke:#181818;stroke-width:1.0;" x1="331.5" x2="331.5" y1="1089.0313" y2="1109.0313"/><polygon fill="#181818" points="327.5,1099.0313,331.5,1109.0313,335.5,1099.0313,331.5,1103.0313" style="stroke:#181818;stroke-width:1.0;"/><line style="stroke:#181818;stroke-width:1.0;" x1="470.5" x2="499" y1="1322.5156" y2="1322.5156"/><polygon fill="#181818" points="495,1215.5938,499,1205.5938,503,1215.5938,499,1211.5938" style="stroke:#181818;stroke-width:1.0;"/><line style="stroke:#181818;stroke-width:1.0;" x1="499" x2="499" y1="1077.0313" y2="1322.5156"/><line style="stroke:#181818;stroke-width:1.0;" x1="499" x2="343.5" y1="1077.0313" y2="1077.0313"/><polygon fill="#181818" points="353.5,1073.0313,343.5,1077.0313,353.5,1081.0313,349.5,1077.0313" style="stroke:#181818;stroke-width:1.0;"/><line style="stroke:#181818;stroke-width:1.0;" x1="331.5" x2="331.5" y1="1290.5156" y2="1310.5156"/><polygon fill="#181818" points="327.5,1300.5156,331.5,1310.5156,335.5,1300.5156,331.5,1304.5156" style="stroke:#181818;stroke-width:1.0;"/><line style="stroke:#181818;stroke-width:1.0;" x1="331.5" x2="331.5" y1="1045.0313" y2="1065.0313"/><polygon fill="#181818" points="327.5,1055.0313,331.5,1065.0313,335.5,1055.0313,331.5,1059.0313" style="stroke:#181818;stroke-width:1.0;"/><line style="stroke:#181818;stroke-width:1.0;" x1="331.5" x2="331.5" y1="1334.5156" y2="1354.5156"/><polygon fill="#181818" points="327.5,1344.5156,331.5,1354.5156,335.5,1344.5156,331.5,1348.5156" style="stroke:#181818;stroke-width:1.0;"/><line style="stroke:#181818;stroke-width:1.0;" x1="105.5" x2="105.5" y1="981.75" y2="1172.3125"/><polygon fill="#181818" points="101.5,1162.3125,105.5,1172.3125,109.5,1162.3125,105.5,1166.3125" style="stroke:#181818;stroke-width:1.0;"/><line style="stroke:#181818;stroke-width:1.0;" x1="331.5" x2="331.5" y1="981.75" y2="1001.75"/><polygon fill="#181818" points="327.5,991.75,331.5,1001.75,335.5,991.75,331.5,995.75" style="stroke:#181818;stroke-width:1.0;"/><line style="stroke:#181818;stroke-width:1.0;" x1="105.5" x2="105.5" y1="1215.5938" y2="1394.5156"/><polygon fill="#181818" points="101.5,1384.5156,105.5,1394.5156,109.5,1384.5156,105.5,1388.5156" style="stroke:#181818;stroke-width:1.0;"/><line style="stroke:#181818;stroke-width:1.0;" x1="287" x2="287" y1="955.75" y2="975.75"/><polygon fill="#181818" points="283,965.75,287,975.75,291,965.75,287,969.75" style="stroke:#181818;stroke-width:1.0;"/><line style="stroke:#181818;stroke-width:1.0;" x1="375" x2="537" y1="1432.5156" y2="1432.5156"/><polygon fill="#181818" points="533,1203.9531,537,1193.9531,541,1203.9531,537,1199.9531" style="stroke:#181818;stroke-width:1.0;"/><line style="stroke:#181818;stroke-width:1.0;" x1="537" x2="537" y1="943.75" y2="1432.5156"/><line style="stroke:#181818;stroke-width:1.0;" x1="537" x2="299" y1="943.75" y2="943.75"/><polygon fill="#181818" points="309,939.75,299,943.75,309,947.75,305,943.75" style="stroke:#181818;stroke-width:1.0;"/><line style="stroke:#181818;stroke-width:1.0;" x1="287" x2="287" y1="1400.5156" y2="1420.5156"/><polygon fill="#181818" points="283,1410.5156,287,1420.5156,291,1410.5156,287,1414.5156" style="stroke:#181818;stroke-width:1.0;"/><line style="stroke:#181818;stroke-width:1.0;" x1="287" x2="287" y1="866.4688" y2="931.75"/><polygon fill="#181818" points="283,921.75,287,931.75,291,921.75,287,925.75" style="stroke:#181818;stroke-width:1.0;"/><line style="stroke:#181818;stroke-width:1.0;" x1="287" x2="287" y1="1597.0781" y2="1617.0781"/><polygon fill="#181818" points="283,1607.0781,287,1617.0781,291,1607.0781,287,1611.0781" style="stroke:#181818;stroke-width:1.0;"/><line style="stroke:#181818;stroke-width:1.0;" x1="287" x2="287" y1="1704.3594" y2="1724.3594"/><polygon fill="#181818" points="283,1714.3594,287,1724.3594,291,1714.3594,287,1718.3594" style="stroke:#181818;stroke-width:1.0;"/><line style="stroke:#181818;stroke-width:1.0;" x1="287" x2="287" y1="1767.6406" y2="1777.6406"/><line style="stroke:#181818;stroke-width:1.0;" x1="287" x2="498" y1="1777.6406" y2="1777.6406"/><polygon fill="#181818" points="494,1744,498,1734,502,1744,498,1740" style="stroke:#181818;stroke-width:1.0;"/><line style="stroke:#181818;stroke-width:1.0;" x1="498" x2="498" y1="1692.3594" y2="1777.6406"/><line style="stroke:#181818;stroke-width:1.0;" x1="498" x2="444.5" y1="1692.3594" y2="1692.3594"/><polygon fill="#181818" points="454.5,1688.3594,444.5,1692.3594,454.5,1696.3594,450.5,1692.3594" style="stroke:#181818;stroke-width:1.0;"/><line style="stroke:#181818;stroke-width:1.0;" x1="129.5" x2="76" y1="1692.3594" y2="1692.3594"/><polygon fill="#181818" points="72,1730,76,1740,80,1730,76,1734" style="stroke:#181818;stroke-width:1.0;"/><line style="stroke:#181818;stroke-width:1.0;" x1="76" x2="76" y1="1692.3594" y2="1789.6406"/><line style="stroke:#181818;stroke-width:1.0;" x1="76" x2="287" y1="1789.6406" y2="1789.6406"/><line style="stroke:#181818;stroke-width:1.0;" x1="287" x2="287" y1="1789.6406" y2="1809.6406"/><polygon fill="#181818" points="283,1799.6406,287,1809.6406,291,1799.6406,287,1803.6406" style="stroke:#181818;stroke-width:1.0;"/><line style="stroke:#181818;stroke-width:1.0;" x1="287" x2="287" y1="1660.3594" y2="1680.3594"/><polygon fill="#181818" points="283,1670.3594,287,1680.3594,291,1670.3594,287,1674.3594" style="stroke:#181818;stroke-width:1.0;"/><line style="stroke:#181818;stroke-width:1.0;" x1="287" x2="287" y1="1877.6406" y2="1897.6406"/><polygon fill="#181818" points="283,1887.6406,287,1897.6406,291,1887.6406,287,1891.6406" style="stroke:#181818;stroke-width:1.0;"/><line style="stroke:#181818;stroke-width:1.0;" x1="287" x2="287" y1="1940.9219" y2="1950.9219"/><line style="stroke:#181818;stroke-width:1.0;" x1="287" x2="486.5" y1="1950.9219" y2="1950.9219"/><polygon fill="#181818" points="482.5,1917.2813,486.5,1907.2813,490.5,1917.2813,486.5,1913.2813" style="stroke:#181818;stroke-width:1.0;"/><line style="stroke:#181818;stroke-width:1.0;" x1="486.5" x2="486.5" y1="1865.6406" y2="1950.9219"/><line style="stroke:#181818;stroke-width:1.0;" x1="486.5" x2="474.5" y1="1865.6406" y2="1865.6406"/><polygon fill="#181818" points="484.5,1861.6406,474.5,1865.6406,484.5,1869.6406,480.5,1865.6406" style="stroke:#181818;stroke-width:1.0;"/><line style="stroke:#181818;stroke-width:1.0;" x1="99.5" x2="87.5" y1="1865.6406" y2="1865.6406"/><polygon fill="#181818" points="83.5,1903.2813,87.5,1913.2813,91.5,1903.2813,87.5,1907.2813" style="stroke:#181818;stroke-width:1.0;"/><line style="stroke:#181818;stroke-width:1.0;" x1="87.5" x2="87.5" y1="1865.6406" y2="1962.9219"/><line style="stroke:#181818;stroke-width:1.0;" x1="87.5" x2="287" y1="1962.9219" y2="1962.9219"/><line style="stroke:#181818;stroke-width:1.0;" x1="287" x2="287" y1="1962.9219" y2="1982.9219"/><polygon fill="#181818" points="283,1972.9219,287,1982.9219,291,1972.9219,287,1976.9219" style="stroke:#181818;stroke-width:1.0;"/><line style="stroke:#181818;stroke-width:1.0;" x1="287" x2="287" y1="2026.2031" y2="2046.2031"/><polygon fill="#181818" points="283,2036.2031,287,2046.2031,291,2036.2031,287,2040.2031" style="stroke:#181818;stroke-width:1.0;"/><line style="stroke:#181818;stroke-width:1.0;" x1="287" x2="287" y1="2133.4844" y2="2163.125"/><polygon fill="#181818" points="283,2153.125,287,2163.125,291,2153.125,287,2157.125" style="stroke:#181818;stroke-width:1.0;"/><line style="stroke:#181818;stroke-width:1.0;" x1="531" x2="543" y1="2121.4844" y2="2121.4844"/><polygon fill="#181818" points="539,2174.7656,543,2184.7656,547,2174.7656,543,2178.7656" style="stroke:#181818;stroke-width:1.0;"/><line style="stroke:#181818;stroke-width:1.0;" x1="543" x2="543" y1="2121.4844" y2="2238.4063"/><line style="stroke:#181818;stroke-width:1.0;" x1="543" x2="299" y1="2238.4063" y2="2238.4063"/><polygon fill="#181818" points="309,2234.4063,299,2238.4063,309,2242.4063,305,2238.4063" style="stroke:#181818;stroke-width:1.0;"/><line style="stroke:#181818;stroke-width:1.0;" x1="287" x2="287" y1="2206.4063" y2="2226.4063"/><polygon fill="#181818" points="283,2216.4063,287,2226.4063,291,2216.4063,287,2220.4063" style="stroke:#181818;stroke-width:1.0;"/><line style="stroke:#181818;stroke-width:1.0;" x1="287" x2="287" y1="2089.4844" y2="2109.4844"/><polygon fill="#181818" points="283,2099.4844,287,2109.4844,291,2099.4844,287,2103.4844" style="stroke:#181818;stroke-width:1.0;"/><line style="stroke:#181818;stroke-width:1.0;" x1="287" x2="287" y1="1833.6406" y2="1853.6406"/><polygon fill="#181818" points="283,1843.6406,287,1853.6406,291,1843.6406,287,1847.6406" style="stroke:#181818;stroke-width:1.0;"/><line style="stroke:#181818;stroke-width:1.0;" x1="444.5" x2="555" y1="2282.4063" y2="2282.4063"/><polygon fill="#181818" points="551,2056.3438,555,2046.3438,559,2056.3438,555,2052.3438" style="stroke:#181818;stroke-width:1.0;"/><line style="stroke:#181818;stroke-width:1.0;" x1="555" x2="555" y1="1821.6406" y2="2282.4063"/><line style="stroke:#181818;stroke-width:1.0;" x1="555" x2="299" y1="1821.6406" y2="1821.6406"/><polygon fill="#181818" points="309,1817.6406,299,1821.6406,309,1825.6406,305,1821.6406" style="stroke:#181818;stroke-width:1.0;"/><line style="stroke:#181818;stroke-width:1.0;" x1="287" x2="287" y1="2250.4063" y2="2270.4063"/><polygon fill="#181818" points="283,2260.4063,287,2270.4063,291,2260.4063,287,2264.4063" style="stroke:#181818;stroke-width:1.0;"/><line style="stroke:#181818;stroke-width:1.0;" x1="287" x2="287" y1="1533.7969" y2="1553.7969"/><polygon fill="#181818" points="283,1543.7969,287,1553.7969,291,1543.7969,287,1547.7969" style="stroke:#181818;stroke-width:1.0;"/><line style="stroke:#181818;stroke-width:1.0;" x1="389.5" x2="578" y1="2326.4063" y2="2326.4063"/><polygon fill="#181818" points="574,1934.9219,578,1924.9219,582,1934.9219,578,1930.9219" style="stroke:#181818;stroke-width:1.0;"/><line style="stroke:#181818;stroke-width:1.0;" x1="578" x2="578" y1="1521.7969" y2="2326.4063"/><line style="stroke:#181818;stroke-width:1.0;" x1="578" x2="299" y1="1521.7969" y2="1521.7969"/><polygon fill="#181818" points="309,1517.7969,299,1521.7969,309,1525.7969,305,1521.7969" style="stroke:#181818;stroke-width:1.0;"/><line style="stroke:#181818;stroke-width:1.0;" x1="287" x2="287" y1="2294.4063" y2="2314.4063"/><polygon fill="#181818" points="283,2304.4063,287,2314.4063,291,2304.4063,287,2308.4063" style="stroke:#181818;stroke-width:1.0;"/><line style="stroke:#181818;stroke-width:1.0;" x1="287" x2="287" y1="1444.5156" y2="1509.7969"/><polygon fill="#181818" points="283,1499.7969,287,1509.7969,291,1499.7969,287,1503.7969" style="stroke:#181818;stroke-width:1.0;"/><line style="stroke:#181818;stroke-width:1.0;" x1="287" x2="287" y1="2338.4063" y2="2370.4063"/><polygon fill="#181818" points="283,2360.4063,287,2370.4063,291,2360.4063,287,2364.4063" style="stroke:#181818;stroke-width:1.0;"/><!--SRC=[XLHDRzim3BthL_1e7mPqEoReeKiGe9UkM0hiE2WsxGXn94EY6xZ3_lie-LEEYrriW-9xv7kax2vArzBAQsMo2-QGOo6RYWv6qr5z87nx488KLGXFTLsfJ98osi51SUIx8VW2JncfTqKjx9KicKW8HzAI44pBI4w7PyrlMQcFW8O_0c0pnX1SwmYlMnzrI4rzLAMMbKlI42gHTaONgcniWFkm-3kdVy6RxsTtHfPWNwt9qBbGfJ3smYzcuMpKjErZ84kfT7UYrz3RS6QnHadXanCpdt4mjY_Nvm2e8kavt1u9Cy8y1JgZXgH5b_PPGTprTsqS9VvZWAG33UfS5KCjLo7MlbNGu30pEezQWjkPiScwSEN0DbehNNQrcLY4PsT7PDqlZiIMpJIFxd53hwD_TmxoQKGp28hSw-NVfEhaXntfO9C5tcHJjv6xIzy2y2VMnb8QL-fDYIKjpHZic1com7lJNw3ky7v-aM6T3vyO5ajSJ7XJAKSxoLFE9Q5xtlSIGrL8tive4PWTiZ47oF3qTPwAbVrfhYUqFug9iQ_3-O7oVeCxVHvCjXtRF3L5WTPVzXGU7-4X7NUGcRoPoNn59-gvN1lcuTMEkPifDX7mLLcMNz7Xs_YwVeLE5kNb_iP40_oVar7oCVnxeZNXUViT-GS0]--></g></svg>