<?xml version="1.0" encoding="UTF-8" standalone="no"?><svg xmlns="http://www.w3.org/2000/svg" xmlns:xlink="http://www.w3.org/1999/xlink" contentStyleType="text/css" height="889px" preserveAspectRatio="none" style="width:546px;height:889px;background:#FFFFFF;" version="1.1" viewBox="0 0 546 889" width="546px" zoomAndPan="magnify"><defs/><g><text fill="#000000" font-family="sans-serif" font-size="14" font-weight="bold" lengthAdjust="spacing" textLength="302" x="120.5" y="32.9951">Applications File Bot - Activity Diagram</text><ellipse cx="268" cy="57.2969" fill="#222222" rx="10" ry="10" style="stroke:#222222;stroke-width:1.0;"/><rect fill="none" height="225.125" style="stroke:#000000;stroke-width:1.5;" width="226" x="155" y="77.2969"/><path d="M290,77.2969 L290,93.5781 L280,103.5781 L155,103.5781 " fill="none" style="stroke:#000000;stroke-width:1.5;"/><text fill="#000000" font-family="sans-serif" font-size="20" lengthAdjust="spacing" textLength="125" x="158" y="96.8613">Initialization</text><rect fill="#F1F1F1" height="43.2813" rx="12.5" ry="12.5" style="stroke:#181818;stroke-width:0.5;" width="183" x="176.5" y="120.5781"/><text fill="#000000" font-family="sans-serif" font-size="20" lengthAdjust="spacing" textLength="163" x="186.5" y="149.1426">Initialize system</text><rect fill="#F1F1F1" height="43.2813" rx="12.5" ry="12.5" style="stroke:#181818;stroke-width:0.5;" width="165" x="185.5" y="183.8594"/><text fill="#000000" font-family="sans-serif" font-size="20" lengthAdjust="spacing" textLength="145" x="195.5" y="212.4238">setupSignals()</text><rect fill="#F1F1F1" height="43.2813" rx="12.5" ry="12.5" style="stroke:#181818;stroke-width:0.5;" width="206" x="165" y="247.1406"/><text fill="#000000" font-family="sans-serif" font-size="20" lengthAdjust="spacing" textLength="186" x="175" y="275.7051">getConfiguration()</text><rect fill="none" height="566.0469" style="stroke:#000000;stroke-width:1.5;" width="524" x="11" y="312.4219"/><path d="M258,312.4219 L258,328.7031 L248,338.7031 L11,338.7031 " fill="none" style="stroke:#000000;stroke-width:1.5;"/><text fill="#000000" font-family="sans-serif" font-size="20" lengthAdjust="spacing" textLength="237" x="14" y="331.9863">NewFileCheckerProcess</text><rect fill="#555555" height="6" rx="2.5" ry="2.5" style="stroke:#555555;stroke-width:1.0;" width="504" x="21" y="355.7031"/><rect fill="#F1F1F1" height="43.2813" rx="12.5" ry="12.5" style="stroke:#181818;stroke-width:0.5;" width="86" x="33" y="594.2656"/><text fill="#000000" font-family="sans-serif" font-size="20" lengthAdjust="spacing" textLength="66" x="43" y="622.8301">parent</text><rect fill="#F1F1F1" height="43.2813" rx="12.5" ry="12.5" style="stroke:#181818;stroke-width:0.5;" width="255" x="185.5" y="381.7031"/><text fill="#000000" font-family="sans-serif" font-size="20" lengthAdjust="spacing" textLength="235" x="195.5" y="410.2676">newFileCheckerProcess</text><rect fill="#F1F1F1" height="43.2813" rx="12.5" ry="12.5" style="stroke:#181818;stroke-width:0.5;" width="201" x="212.5" y="488.9844"/><text fill="#000000" font-family="sans-serif" font-size="20" lengthAdjust="spacing" textLength="181" x="222.5" y="517.5488">checkForNewFiles</text><rect fill="#F1F1F1" height="43.2813" rx="12.5" ry="12.5" style="stroke:#181818;stroke-width:0.5;" width="271" x="177.5" y="605.9063"/><text fill="#000000" font-family="sans-serif" font-size="20" lengthAdjust="spacing" textLength="251" x="187.5" y="634.4707">sem_post(sem_newFiles)</text><polygon fill="#F1F1F1" points="223.5,552.2656,402.5,552.2656,414.5,564.2656,402.5,576.2656,223.5,576.2656,211.5,564.2656,223.5,552.2656" style="stroke:#181818;stroke-width:0.5;"/><text fill="#000000" font-family="sans-serif" font-size="20" lengthAdjust="spacing" textLength="33" x="317" y="594.8301">yes</text><text fill="#000000" font-family="sans-serif" font-size="20" lengthAdjust="spacing" textLength="179" x="223.5" y="571.1895">newFilesDetected</text><polygon fill="#F1F1F1" points="313,669.1875,325,681.1875,313,693.1875,301,681.1875,313,669.1875" style="stroke:#181818;stroke-width:0.5;"/><rect fill="#F1F1F1" height="43.2813" rx="12.5" ry="12.5" style="stroke:#181818;stroke-width:0.5;" width="212" x="207" y="713.1875"/><text fill="#000000" font-family="sans-serif" font-size="20" lengthAdjust="spacing" textLength="192" x="217" y="741.752">sleep for n seconds</text><polygon fill="#F1F1F1" points="313,444.9844,325,456.9844,313,468.9844,301,456.9844,313,444.9844" style="stroke:#181818;stroke-width:0.5;"/><polygon fill="#F1F1F1" points="141,776.4688,485,776.4688,497,788.4688,485,800.4688,141,800.4688,129,788.4688,141,776.4688" style="stroke:#181818;stroke-width:0.5;"/><text fill="#000000" font-family="sans-serif" font-size="20" lengthAdjust="spacing" textLength="344" x="141" y="795.3926">NewFileCheckerProcess is running</text><ellipse cx="313" cy="830.4688" fill="none" rx="10" ry="10" style="stroke:#222222;stroke-width:1.5;"/><line style="stroke:#222222;stroke-width:2.5;" x1="306.8128" x2="319.1872" y1="824.2816" y2="836.6559"/><line style="stroke:#222222;stroke-width:2.5;" x1="319.1872" x2="306.8128" y1="824.2816" y2="836.6559"/><rect fill="#555555" height="6" rx="2.5" ry="2.5" style="stroke:#555555;stroke-width:1.0;" width="504" x="21" y="860.4688"/><line style="stroke:#181818;stroke-width:1.0;" x1="268" x2="268" y1="163.8594" y2="183.8594"/><polygon fill="#181818" points="264,173.8594,268,183.8594,272,173.8594,268,177.8594" style="stroke:#181818;stroke-width:1.0;"/><line style="stroke:#181818;stroke-width:1.0;" x1="268" x2="268" y1="227.1406" y2="247.1406"/><polygon fill="#181818" points="264,237.1406,268,247.1406,272,237.1406,268,241.1406" style="stroke:#181818;stroke-width:1.0;"/><line style="stroke:#181818;stroke-width:1.0;" x1="268" x2="268" y1="67.2969" y2="120.5781"/><polygon fill="#181818" points="264,110.5781,268,120.5781,272,110.5781,268,114.5781" style="stroke:#181818;stroke-width:1.0;"/><line style="stroke:#181818;stroke-width:1.0;" x1="313" x2="313" y1="576.2656" y2="605.9063"/><polygon fill="#181818" points="309,595.9063,313,605.9063,317,595.9063,313,599.9063" style="stroke:#181818;stroke-width:1.0;"/><line style="stroke:#181818;stroke-width:1.0;" x1="414.5" x2="458.5" y1="564.2656" y2="564.2656"/><polygon fill="#181818" points="454.5,617.5469,458.5,627.5469,462.5,617.5469,458.5,621.5469" style="stroke:#181818;stroke-width:1.0;"/><line style="stroke:#181818;stroke-width:1.0;" x1="458.5" x2="458.5" y1="564.2656" y2="681.1875"/><line style="stroke:#181818;stroke-width:1.0;" x1="458.5" x2="325" y1="681.1875" y2="681.1875"/><polygon fill="#181818" points="335,677.1875,325,681.1875,335,685.1875,331,681.1875" style="stroke:#181818;stroke-width:1.0;"/><line style="stroke:#181818;stroke-width:1.0;" x1="313" x2="313" y1="649.1875" y2="669.1875"/><polygon fill="#181818" points="309,659.1875,313,669.1875,317,659.1875,313,663.1875" style="stroke:#181818;stroke-width:1.0;"/><line style="stroke:#181818;stroke-width:1.0;" x1="313" x2="313" y1="532.2656" y2="552.2656"/><polygon fill="#181818" points="309,542.2656,313,552.2656,317,542.2656,313,546.2656" style="stroke:#181818;stroke-width:1.0;"/><line style="stroke:#181818;stroke-width:1.0;" x1="313" x2="313" y1="693.1875" y2="713.1875"/><polygon fill="#181818" points="309,703.1875,313,713.1875,317,703.1875,313,707.1875" style="stroke:#181818;stroke-width:1.0;"/><line style="stroke:#181818;stroke-width:1.0;" x1="313" x2="313" y1="468.9844" y2="488.9844"/><polygon fill="#181818" points="309,478.9844,313,488.9844,317,478.9844,313,482.9844" style="stroke:#181818;stroke-width:1.0;"/><line style="stroke:#181818;stroke-width:1.0;" x1="497" x2="509" y1="788.4688" y2="788.4688"/><polygon fill="#181818" points="505,637.5469,509,627.5469,513,637.5469,509,633.5469" style="stroke:#181818;stroke-width:1.0;"/><line style="stroke:#181818;stroke-width:1.0;" x1="509" x2="509" y1="456.9844" y2="788.4688"/><line style="stroke:#181818;stroke-width:1.0;" x1="509" x2="325" y1="456.9844" y2="456.9844"/><polygon fill="#181818" points="335,452.9844,325,456.9844,335,460.9844,331,456.9844" style="stroke:#181818;stroke-width:1.0;"/><line style="stroke:#181818;stroke-width:1.0;" x1="313" x2="313" y1="756.4688" y2="776.4688"/><polygon fill="#181818" points="309,766.4688,313,776.4688,317,766.4688,313,770.4688" style="stroke:#181818;stroke-width:1.0;"/><line style="stroke:#181818;stroke-width:1.0;" x1="313" x2="313" y1="424.9844" y2="444.9844"/><polygon fill="#181818" points="309,434.9844,313,444.9844,317,434.9844,313,438.9844" style="stroke:#181818;stroke-width:1.0;"/><line style="stroke:#181818;stroke-width:1.0;" x1="313" x2="313" y1="800.4688" y2="820.4688"/><polygon fill="#181818" points="309,810.4688,313,820.4688,317,810.4688,313,814.4688" style="stroke:#181818;stroke-width:1.0;"/><line style="stroke:#181818;stroke-width:1.0;" x1="76" x2="76" y1="361.7031" y2="594.2656"/><polygon fill="#181818" points="72,584.2656,76,594.2656,80,584.2656,76,588.2656" style="stroke:#181818;stroke-width:1.0;"/><line style="stroke:#181818;stroke-width:1.0;" x1="313" x2="313" y1="361.7031" y2="381.7031"/><polygon fill="#181818" points="309,371.7031,313,381.7031,317,371.7031,313,375.7031" style="stroke:#181818;stroke-width:1.0;"/><line style="stroke:#181818;stroke-width:1.0;" x1="76" x2="76" y1="637.5469" y2="860.4688"/><polygon fill="#181818" points="72,850.4688,76,860.4688,80,850.4688,76,854.4688" style="stroke:#181818;stroke-width:1.0;"/><line style="stroke:#181818;stroke-width:1.0;" x1="268" x2="268" y1="290.4219" y2="355.7031"/><polygon fill="#181818" points="264,345.7031,268,355.7031,272,345.7031,268,349.7031" style="stroke:#181818;stroke-width:1.0;"/><!--SRC=[RL3DQiCm3BxxANHC3eEnuthgMWgxb44VO1X7IKLTsLZAIZlwxbFST6pGYoK-VJ-IvK2SVV77cC81E-YmzsFKJMBTqGNXvTav9Oq8ovmZ1Q-KM613XhmbXITO1gKlqZEioGzcv9oeB-gSsPhIwF3ELdsaIrN3jmDu_SKGv2oAnyM42kgOTpImZzAq5HfGLubx6iPIvHFihd_jjtYQzbdjqKue7oK55AafVIe7A-PYR6HTp1ZumHFV9ln8lQYpWXczrjQ8OM9iKfdZPWu0zSti8MjK38fT2xf7XkQCqiwiUjpnCoVHPchkalPkWznHVy-IY9YdLO51C2Jk_gq4fxrfcyU7aq0PcOc7MxOPk_hUlkFgVW00]--></g></svg>