<?xml version="1.0" encoding="UTF-8" standalone="no"?><svg xmlns="http://www.w3.org/2000/svg" xmlns:xlink="http://www.w3.org/1999/xlink" contentStyleType="text/css" height="1288px" preserveAspectRatio="none" style="width:578px;height:1288px;background:#FFFFFF;" version="1.1" viewBox="0 0 578 1288" width="578px" zoomAndPan="magnify"><defs/><g><text fill="#000000" font-family="sans-serif" font-size="14" font-weight="bold" lengthAdjust="spacing" textLength="302" x="136.5" y="32.9951">Applications File Bot - Activity Diagram</text><ellipse cx="265" cy="57.2969" fill="#222222" rx="10" ry="10" style="stroke:#222222;stroke-width:1.0;"/><rect fill="none" height="225.125" style="stroke:#000000;stroke-width:1.5;" width="226" x="152" y="77.2969"/><path d="M287,77.2969 L287,93.5781 L277,103.5781 L152,103.5781 " fill="none" style="stroke:#000000;stroke-width:1.5;"/><text fill="#000000" font-family="sans-serif" font-size="20" lengthAdjust="spacing" textLength="125" x="155" y="96.8613">Initialization</text><rect fill="#F1F1F1" height="43.2813" rx="12.5" ry="12.5" style="stroke:#181818;stroke-width:0.5;" width="183" x="173.5" y="120.5781"/><text fill="#000000" font-family="sans-serif" font-size="20" lengthAdjust="spacing" textLength="163" x="183.5" y="149.1426">Initialize system</text><rect fill="#F1F1F1" height="43.2813" rx="12.5" ry="12.5" style="stroke:#181818;stroke-width:0.5;" width="165" x="182.5" y="183.8594"/><text fill="#000000" font-family="sans-serif" font-size="20" lengthAdjust="spacing" textLength="145" x="192.5" y="212.4238">setupSignals()</text><rect fill="#F1F1F1" height="43.2813" rx="12.5" ry="12.5" style="stroke:#181818;stroke-width:0.5;" width="206" x="162" y="247.1406"/><text fill="#000000" font-family="sans-serif" font-size="20" lengthAdjust="spacing" textLength="186" x="172" y="275.7051">getConfiguration()</text><rect fill="none" height="925.5195" style="stroke:#000000;stroke-width:1.5;" width="556" x="11" y="312.4219"/><path d="M161,312.4219 L161,328.7031 L151,338.7031 L11,338.7031 " fill="none" style="stroke:#000000;stroke-width:1.5;"/><text fill="#000000" font-family="sans-serif" font-size="20" lengthAdjust="spacing" textLength="140" x="14" y="331.9863">ParentProcess</text><rect fill="#F1F1F1" height="43.2813" rx="12.5" ry="12.5" style="stroke:#181818;stroke-width:0.5;" width="271" x="129.5" y="399.7031"/><text fill="#000000" font-family="sans-serif" font-size="20" lengthAdjust="spacing" textLength="251" x="139.5" y="428.2676">sem_wait(sem_newFiles)</text><rect fill="#F1F1F1" height="43.2813" rx="12.5" ry="12.5" style="stroke:#181818;stroke-width:0.5;" width="194" x="168" y="462.9844"/><text fill="#000000" font-family="sans-serif" font-size="20" lengthAdjust="spacing" textLength="174" x="178" y="491.5488">listCandidatesIDs</text><rect fill="#F1F1F1" height="43.2813" rx="12.5" ry="12.5" style="stroke:#181818;stroke-width:0.5;" width="398" x="66" y="590.3301"/><text fill="#000000" font-family="sans-serif" font-size="20" lengthAdjust="spacing" textLength="378" x="76" y="618.8945">sem_post(sem_numberOfCandidates)</text><polygon fill="#F1F1F1" points="169,526.2656,361,526.2656,373,538.2656,361,550.2656,169,550.2656,157,538.2656,169,526.2656" style="stroke:#181818;stroke-width:0.5;"/><text fill="#000000" font-family="sans-serif" font-size="20" lengthAdjust="spacing" textLength="103" x="269" y="568.8301">Candidate</text><text fill="#000000" font-family="sans-serif" font-size="20" lengthAdjust="spacing" textLength="192" x="169" y="545.1895">For each candidate</text><rect fill="#F1F1F1" height="43.2813" rx="12.5" ry="12.5" style="stroke:#181818;stroke-width:0.5;" width="136" x="197" y="783.6758"/><text fill="#000000" font-family="sans-serif" font-size="20" lengthAdjust="spacing" textLength="116" x="207" y="812.2402">sendWork()</text><polygon fill="#F1F1F1" points="89.5,719.6113,440.5,719.6113,452.5,731.6113,440.5,743.6113,89.5,743.6113,77.5,731.6113,89.5,719.6113" style="stroke:#181818;stroke-width:0.5;"/><text fill="#000000" font-family="sans-serif" font-size="20" lengthAdjust="spacing" textLength="33" x="269" y="762.1758">yes</text><text fill="#000000" font-family="sans-serif" font-size="20" lengthAdjust="spacing" textLength="351" x="89.5" y="738.5352">sem_trywait(sem_bufferSize) == 0</text><rect fill="#F1F1F1" height="43.2813" rx="12.5" ry="12.5" style="stroke:#181818;stroke-width:0.5;" width="228" x="151" y="868.957"/><text fill="#000000" font-family="sans-serif" font-size="20" lengthAdjust="spacing" textLength="208" x="161" y="897.5215">sem_wait(reportFile)</text><rect fill="#F1F1F1" height="43.2813" rx="12.5" ry="12.5" style="stroke:#181818;stroke-width:0.5;" width="133" x="198.5" y="933.7383"/><text fill="#000000" font-family="sans-serif" font-size="20" lengthAdjust="spacing" textLength="113" x="208.5" y="962.3027">reportFile()</text><rect fill="#F1F1F1" height="43.2813" rx="12.5" ry="12.5" style="stroke:#181818;stroke-width:0.5;" width="77" x="226.5" y="1050.6602"/><text fill="#000000" font-family="sans-serif" font-size="20" lengthAdjust="spacing" textLength="57" x="236.5" y="1079.2246">break</text><polygon fill="#F1F1F1" points="33,997.0195,497,997.0195,509,1009.0195,497,1021.0195,33,1021.0195,21,1009.0195,33,997.0195" style="stroke:#181818;stroke-width:0.5;"/><text fill="#000000" font-family="sans-serif" font-size="20" lengthAdjust="spacing" textLength="33" x="269" y="1039.584">yes</text><text fill="#000000" font-family="sans-serif" font-size="20" lengthAdjust="spacing" textLength="464" x="33" y="1015.9434">sem_trywait(sem_numberOfCandidates) == 1</text><polygon fill="#F1F1F1" points="265,1113.9414,277,1125.9414,265,1137.9414,253,1125.9414,265,1113.9414" style="stroke:#181818;stroke-width:0.5;"/><polygon fill="#F1F1F1" points="265,675.6113,277,687.6113,265,699.6113,253,687.6113,265,675.6113" style="stroke:#181818;stroke-width:0.5;"/><polygon fill="#F1F1F1" points="119.5,1157.9414,410.5,1157.9414,422.5,1169.9414,410.5,1181.9414,119.5,1181.9414,107.5,1169.9414,119.5,1157.9414" style="stroke:#181818;stroke-width:0.5;"/><text fill="#000000" font-family="sans-serif" font-size="20" lengthAdjust="spacing" textLength="291" x="119.5" y="1176.8652">There are candidates to send</text><polygon fill="#F1F1F1" points="265,355.7031,277,367.7031,265,379.7031,253,367.7031,265,355.7031" style="stroke:#181818;stroke-width:0.5;"/><polygon fill="#F1F1F1" points="174.5,1201.9414,355.5,1201.9414,367.5,1213.9414,355.5,1225.9414,174.5,1225.9414,162.5,1213.9414,174.5,1201.9414" style="stroke:#181818;stroke-width:0.5;"/><text fill="#000000" font-family="sans-serif" font-size="20" lengthAdjust="spacing" textLength="181" x="174.5" y="1220.8652">System is running</text><ellipse cx="265" cy="1267.9414" fill="none" rx="10" ry="10" style="stroke:#222222;stroke-width:1.5;"/><line style="stroke:#222222;stroke-width:2.5;" x1="258.8128" x2="271.1872" y1="1261.7542" y2="1274.1286"/><line style="stroke:#222222;stroke-width:2.5;" x1="271.1872" x2="258.8128" y1="1261.7542" y2="1274.1286"/><line style="stroke:#181818;stroke-width:1.0;" x1="265" x2="265" y1="163.8594" y2="183.8594"/><polygon fill="#181818" points="261,173.8594,265,183.8594,269,173.8594,265,177.8594" style="stroke:#181818;stroke-width:1.0;"/><line style="stroke:#181818;stroke-width:1.0;" x1="265" x2="265" y1="227.1406" y2="247.1406"/><polygon fill="#181818" points="261,237.1406,265,247.1406,269,237.1406,265,241.1406" style="stroke:#181818;stroke-width:1.0;"/><line style="stroke:#181818;stroke-width:1.0;" x1="265" x2="265" y1="67.2969" y2="120.5781"/><polygon fill="#181818" points="261,110.5781,265,120.5781,269,110.5781,265,114.5781" style="stroke:#181818;stroke-width:1.0;"/><line style="stroke:#181818;stroke-width:1.0;" x1="265" x2="265" y1="442.9844" y2="462.9844"/><polygon fill="#181818" points="261,452.9844,265,462.9844,269,452.9844,265,456.9844" style="stroke:#181818;stroke-width:1.0;"/><line style="stroke:#181818;stroke-width:1.0;" x1="265" x2="265" y1="550.2656" y2="590.3301"/><polygon fill="#181818" points="261,580.3301,265,590.3301,269,580.3301,265,584.3301" style="stroke:#181818;stroke-width:1.0;"/><line style="stroke:#181818;stroke-width:1.0;" x1="265" x2="265" y1="633.6113" y2="643.6113"/><line style="stroke:#181818;stroke-width:1.0;" x1="265" x2="476" y1="643.6113" y2="643.6113"/><polygon fill="#181818" points="472,598.3301,476,588.3301,480,598.3301,476,594.3301" style="stroke:#181818;stroke-width:1.0;"/><line style="stroke:#181818;stroke-width:1.0;" x1="476" x2="476" y1="538.2656" y2="643.6113"/><line style="stroke:#181818;stroke-width:1.0;" x1="476" x2="373" y1="538.2656" y2="538.2656"/><polygon fill="#181818" points="383,534.2656,373,538.2656,383,542.2656,379,538.2656" style="stroke:#181818;stroke-width:1.0;"/><line style="stroke:#181818;stroke-width:1.0;" x1="157" x2="54" y1="538.2656" y2="538.2656"/><polygon fill="#181818" points="50,584.3301,54,594.3301,58,584.3301,54,588.3301" style="stroke:#181818;stroke-width:1.0;"/><line style="stroke:#181818;stroke-width:1.0;" x1="54" x2="54" y1="538.2656" y2="655.6113"/><line style="stroke:#181818;stroke-width:1.0;" x1="54" x2="265" y1="655.6113" y2="655.6113"/><line style="stroke:#181818;stroke-width:1.0;" x1="265" x2="265" y1="655.6113" y2="675.6113"/><polygon fill="#181818" points="261,665.6113,265,675.6113,269,665.6113,265,669.6113" style="stroke:#181818;stroke-width:1.0;"/><line style="stroke:#181818;stroke-width:1.0;" x1="265" x2="265" y1="506.2656" y2="526.2656"/><polygon fill="#181818" points="261,516.2656,265,526.2656,269,516.2656,265,520.2656" style="stroke:#181818;stroke-width:1.0;"/><line style="stroke:#181818;stroke-width:1.0;" x1="265" x2="265" y1="743.6113" y2="783.6758"/><polygon fill="#181818" points="261,773.6758,265,783.6758,269,773.6758,265,777.6758" style="stroke:#181818;stroke-width:1.0;"/><line style="stroke:#181818;stroke-width:1.0;" x1="265" x2="265" y1="826.957" y2="836.957"/><line style="stroke:#181818;stroke-width:1.0;" x1="265" x2="464.5" y1="836.957" y2="836.957"/><polygon fill="#181818" points="460.5,791.6758,464.5,781.6758,468.5,791.6758,464.5,787.6758" style="stroke:#181818;stroke-width:1.0;"/><line style="stroke:#181818;stroke-width:1.0;" x1="464.5" x2="464.5" y1="731.6113" y2="836.957"/><line style="stroke:#181818;stroke-width:1.0;" x1="464.5" x2="452.5" y1="731.6113" y2="731.6113"/><polygon fill="#181818" points="462.5,727.6113,452.5,731.6113,462.5,735.6113,458.5,731.6113" style="stroke:#181818;stroke-width:1.0;"/><line style="stroke:#181818;stroke-width:1.0;" x1="77.5" x2="65.5" y1="731.6113" y2="731.6113"/><polygon fill="#181818" points="61.5,777.6758,65.5,787.6758,69.5,777.6758,65.5,781.6758" style="stroke:#181818;stroke-width:1.0;"/><line style="stroke:#181818;stroke-width:1.0;" x1="65.5" x2="65.5" y1="731.6113" y2="848.957"/><line style="stroke:#181818;stroke-width:1.0;" x1="65.5" x2="265" y1="848.957" y2="848.957"/><line style="stroke:#181818;stroke-width:1.0;" x1="265" x2="265" y1="848.957" y2="868.957"/><polygon fill="#181818" points="261,858.957,265,868.957,269,858.957,265,862.957" style="stroke:#181818;stroke-width:1.0;"/><line style="stroke:#181818;stroke-width:1.0;" x1="265" x2="265" y1="912.2383" y2="933.7383"/><polygon fill="#181818" points="261,923.7383,265,933.7383,269,923.7383,265,927.7383" style="stroke:#181818;stroke-width:1.0;"/><line style="stroke:#181818;stroke-width:1.0;" x1="265" x2="265" y1="1021.0195" y2="1050.6602"/><polygon fill="#181818" points="261,1040.6602,265,1050.6602,269,1040.6602,265,1044.6602" style="stroke:#181818;stroke-width:1.0;"/><line style="stroke:#181818;stroke-width:1.0;" x1="509" x2="521" y1="1009.0195" y2="1009.0195"/><polygon fill="#181818" points="517,1062.3008,521,1072.3008,525,1062.3008,521,1066.3008" style="stroke:#181818;stroke-width:1.0;"/><line style="stroke:#181818;stroke-width:1.0;" x1="521" x2="521" y1="1009.0195" y2="1125.9414"/><line style="stroke:#181818;stroke-width:1.0;" x1="521" x2="277" y1="1125.9414" y2="1125.9414"/><polygon fill="#181818" points="287,1121.9414,277,1125.9414,287,1129.9414,283,1125.9414" style="stroke:#181818;stroke-width:1.0;"/><line style="stroke:#181818;stroke-width:1.0;" x1="265" x2="265" y1="1093.9414" y2="1113.9414"/><polygon fill="#181818" points="261,1103.9414,265,1113.9414,269,1103.9414,265,1107.9414" style="stroke:#181818;stroke-width:1.0;"/><line style="stroke:#181818;stroke-width:1.0;" x1="265" x2="265" y1="977.0195" y2="997.0195"/><polygon fill="#181818" points="261,987.0195,265,997.0195,269,987.0195,265,991.0195" style="stroke:#181818;stroke-width:1.0;"/><line style="stroke:#181818;stroke-width:1.0;" x1="265" x2="265" y1="699.6113" y2="719.6113"/><polygon fill="#181818" points="261,709.6113,265,719.6113,269,709.6113,265,713.6113" style="stroke:#181818;stroke-width:1.0;"/><line style="stroke:#181818;stroke-width:1.0;" x1="422.5" x2="533" y1="1169.9414" y2="1169.9414"/><polygon fill="#181818" points="529,932.2383,533,922.2383,537,932.2383,533,928.2383" style="stroke:#181818;stroke-width:1.0;"/><line style="stroke:#181818;stroke-width:1.0;" x1="533" x2="533" y1="687.6113" y2="1169.9414"/><line style="stroke:#181818;stroke-width:1.0;" x1="533" x2="277" y1="687.6113" y2="687.6113"/><polygon fill="#181818" points="287,683.6113,277,687.6113,287,691.6113,283,687.6113" style="stroke:#181818;stroke-width:1.0;"/><line style="stroke:#181818;stroke-width:1.0;" x1="265" x2="265" y1="1137.9414" y2="1157.9414"/><polygon fill="#181818" points="261,1147.9414,265,1157.9414,269,1147.9414,265,1151.9414" style="stroke:#181818;stroke-width:1.0;"/><line style="stroke:#181818;stroke-width:1.0;" x1="265" x2="265" y1="379.7031" y2="399.7031"/><polygon fill="#181818" points="261,389.7031,265,399.7031,269,389.7031,265,393.7031" style="stroke:#181818;stroke-width:1.0;"/><line style="stroke:#181818;stroke-width:1.0;" x1="367.5" x2="551" y1="1213.9414" y2="1213.9414"/><polygon fill="#181818" points="547,797.6758,551,787.6758,555,797.6758,551,793.6758" style="stroke:#181818;stroke-width:1.0;"/><line style="stroke:#181818;stroke-width:1.0;" x1="551" x2="551" y1="367.7031" y2="1213.9414"/><line style="stroke:#181818;stroke-width:1.0;" x1="551" x2="277" y1="367.7031" y2="367.7031"/><polygon fill="#181818" points="287,363.7031,277,367.7031,287,371.7031,283,367.7031" style="stroke:#181818;stroke-width:1.0;"/><line style="stroke:#181818;stroke-width:1.0;" x1="265" x2="265" y1="1181.9414" y2="1201.9414"/><polygon fill="#181818" points="261,1191.9414,265,1201.9414,269,1191.9414,265,1195.9414" style="stroke:#181818;stroke-width:1.0;"/><line style="stroke:#181818;stroke-width:1.0;" x1="265" x2="265" y1="290.4219" y2="355.7031"/><polygon fill="#181818" points="261,345.7031,265,355.7031,269,345.7031,265,349.7031" style="stroke:#181818;stroke-width:1.0;"/><line style="stroke:#181818;stroke-width:1.0;" x1="265" x2="265" y1="1225.9414" y2="1257.9414"/><polygon fill="#181818" points="261,1247.9414,265,1257.9414,269,1247.9414,265,1251.9414" style="stroke:#181818;stroke-width:1.0;"/><!--SRC=[RL8zRuCm4DtzAsw4eLBQCLM6D5MaJ8sKIXqh1mvo0cpaEngHgl-zjaE1ffqmp_U-EBWYqsgdczfc5UQGOw6xMhRMo84k20yBfOIaHbYtRKsP5hA6OKiUUR82Tx3EX3v8UdWcNNeXfLYq4wMyh6VwSTWP_zGrNI8RFXN0SiGGk6V1vZ6WZDAr1ogDhZb98rIYRAmfgEnSf0TOVStbzzgXaRsp6J97TOSjQl67ADcydpL94Wu6po4wHsb_MHFBHfkSSYt8ksU-ukTJw9TihGFKsGcodv4KY24P6UbaqLeUBBhcYEwbc6G7CpHvr8qliuI3NIIBwyUinwueq8KjfB1QmUBgtNkzWUPzJVvcNPKC3ZSUy_BUppe9tSVPvOHD0bJyoV5FeP3dFWKveVcLo8iU7Ufg5eUAMT-XwUi97OBVslHX6SH2w9Egc-53_3j2TzSPGwPC_VRzeFe6]--></g></svg>