<?xml version="1.0" encoding="UTF-8" standalone="no"?><svg xmlns="http://www.w3.org/2000/svg" xmlns:xlink="http://www.w3.org/1999/xlink" contentStyleType="text/css" height="656px" preserveAspectRatio="none" style="width:506px;height:656px;background:#FFFFFF;" version="1.1" viewBox="0 0 506 656" width="506px" zoomAndPan="magnify"><defs/><g><text fill="#000000" font-family="sans-serif" font-size="14" font-weight="bold" lengthAdjust="spacing" textLength="302" x="100.5" y="32.9951">Applications File Bot - Activity Diagram</text><ellipse cx="239" cy="57.2969" fill="#222222" rx="10" ry="10" style="stroke:#222222;stroke-width:1.0;"/><rect fill="none" height="568.0469" style="stroke:#000000;stroke-width:1.5;" width="484" x="11" y="77.2969"/><path d="M168,77.2969 L168,93.5781 L158,103.5781 L11,103.5781 " fill="none" style="stroke:#000000;stroke-width:1.5;"/><text fill="#000000" font-family="sans-serif" font-size="20" lengthAdjust="spacing" textLength="147" x="14" y="96.8613">WorkerProcess</text><rect fill="#555555" height="6" rx="2.5" ry="2.5" style="stroke:#555555;stroke-width:1.0;" width="446" x="21" y="164.5781"/><rect fill="#F1F1F1" height="43.2813" rx="12.5" ry="12.5" style="stroke:#181818;stroke-width:0.5;" width="85" x="33" y="361.1406"/><text fill="#000000" font-family="sans-serif" font-size="20" lengthAdjust="spacing" textLength="65" x="43" y="389.7051">Parent</text><rect fill="#F1F1F1" height="43.2813" rx="12.5" ry="12.5" style="stroke:#181818;stroke-width:0.5;" width="167" x="200" y="190.5781"/><text fill="#000000" font-family="sans-serif" font-size="20" lengthAdjust="spacing" textLength="147" x="210" y="219.1426">WorkerProcess</text><rect fill="#F1F1F1" height="43.2813" rx="12.5" ry="12.5" style="stroke:#181818;stroke-width:0.5;" width="311" x="128" y="297.8594"/><text fill="#000000" font-family="sans-serif" font-size="20" lengthAdjust="spacing" textLength="291" x="138" y="326.4238">sem_wait(sem_startWorkers)</text><rect fill="#F1F1F1" height="43.2813" rx="12.5" ry="12.5" style="stroke:#181818;stroke-width:0.5;" width="113" x="227" y="372.7813"/><text fill="#000000" font-family="sans-serif" font-size="20" lengthAdjust="spacing" textLength="93" x="237" y="401.3457">copyFiles</text><rect fill="#F1F1F1" height="43.2813" rx="12.5" ry="12.5" style="stroke:#181818;stroke-width:0.5;" width="296" x="135.5" y="436.0625"/><text fill="#000000" font-family="sans-serif" font-size="20" lengthAdjust="spacing" textLength="276" x="145.5" y="464.627">sem_post(sem_startReport)</text><polygon fill="#F1F1F1" points="283.5,253.8594,295.5,265.8594,283.5,277.8594,271.5,265.8594,283.5,253.8594" style="stroke:#181818;stroke-width:0.5;"/><polygon fill="#F1F1F1" points="156.5,499.3438,410.5,499.3438,422.5,511.3438,410.5,523.3438,156.5,523.3438,144.5,511.3438,156.5,499.3438" style="stroke:#181818;stroke-width:0.5;"/><text fill="#000000" font-family="sans-serif" font-size="20" lengthAdjust="spacing" textLength="254" x="156.5" y="518.2676">WorkerProcess is running</text><ellipse cx="283.5" cy="553.3438" fill="none" rx="10" ry="10" style="stroke:#222222;stroke-width:1.5;"/><line style="stroke:#222222;stroke-width:2.5;" x1="277.3128" x2="289.6872" y1="547.1566" y2="559.5309"/><line style="stroke:#222222;stroke-width:2.5;" x1="289.6872" x2="277.3128" y1="547.1566" y2="559.5309"/><rect fill="#555555" height="6" rx="2.5" ry="2.5" style="stroke:#555555;stroke-width:1.0;" width="446" x="21" y="583.3438"/><polygon fill="#F1F1F1" points="239,120.5781,251,132.5781,239,144.5781,227,132.5781,239,120.5781" style="stroke:#181818;stroke-width:0.5;"/><polygon fill="#F1F1F1" points="163,609.3438,315,609.3438,327,621.3438,315,633.3438,163,633.3438,151,621.3438,163,609.3438" style="stroke:#181818;stroke-width:0.5;"/><text fill="#000000" font-family="sans-serif" font-size="20" lengthAdjust="spacing" textLength="152" x="163" y="628.2676">for N processes</text><line style="stroke:#181818;stroke-width:1.0;" x1="283.5" x2="283.5" y1="341.1406" y2="372.7813"/><polygon fill="#181818" points="279.5,362.7813,283.5,372.7813,287.5,362.7813,283.5,366.7813" style="stroke:#181818;stroke-width:1.0;"/><line style="stroke:#181818;stroke-width:1.0;" x1="283.5" x2="283.5" y1="416.0625" y2="436.0625"/><polygon fill="#181818" points="279.5,426.0625,283.5,436.0625,287.5,426.0625,283.5,430.0625" style="stroke:#181818;stroke-width:1.0;"/><line style="stroke:#181818;stroke-width:1.0;" x1="283.5" x2="283.5" y1="277.8594" y2="297.8594"/><polygon fill="#181818" points="279.5,287.8594,283.5,297.8594,287.5,287.8594,283.5,291.8594" style="stroke:#181818;stroke-width:1.0;"/><line style="stroke:#181818;stroke-width:1.0;" x1="422.5" x2="451" y1="511.3438" y2="511.3438"/><polygon fill="#181818" points="447,404.4219,451,394.4219,455,404.4219,451,400.4219" style="stroke:#181818;stroke-width:1.0;"/><line style="stroke:#181818;stroke-width:1.0;" x1="451" x2="451" y1="265.8594" y2="511.3438"/><line style="stroke:#181818;stroke-width:1.0;" x1="451" x2="295.5" y1="265.8594" y2="265.8594"/><polygon fill="#181818" points="305.5,261.8594,295.5,265.8594,305.5,269.8594,301.5,265.8594" style="stroke:#181818;stroke-width:1.0;"/><line style="stroke:#181818;stroke-width:1.0;" x1="283.5" x2="283.5" y1="479.3438" y2="499.3438"/><polygon fill="#181818" points="279.5,489.3438,283.5,499.3438,287.5,489.3438,283.5,493.3438" style="stroke:#181818;stroke-width:1.0;"/><line style="stroke:#181818;stroke-width:1.0;" x1="283.5" x2="283.5" y1="233.8594" y2="253.8594"/><polygon fill="#181818" points="279.5,243.8594,283.5,253.8594,287.5,243.8594,283.5,247.8594" style="stroke:#181818;stroke-width:1.0;"/><line style="stroke:#181818;stroke-width:1.0;" x1="283.5" x2="283.5" y1="523.3438" y2="543.3438"/><polygon fill="#181818" points="279.5,533.3438,283.5,543.3438,287.5,533.3438,283.5,537.3438" style="stroke:#181818;stroke-width:1.0;"/><line style="stroke:#181818;stroke-width:1.0;" x1="75.5" x2="75.5" y1="170.5781" y2="361.1406"/><polygon fill="#181818" points="71.5,351.1406,75.5,361.1406,79.5,351.1406,75.5,355.1406" style="stroke:#181818;stroke-width:1.0;"/><line style="stroke:#181818;stroke-width:1.0;" x1="283.5" x2="283.5" y1="170.5781" y2="190.5781"/><polygon fill="#181818" points="279.5,180.5781,283.5,190.5781,287.5,180.5781,283.5,184.5781" style="stroke:#181818;stroke-width:1.0;"/><line style="stroke:#181818;stroke-width:1.0;" x1="75.5" x2="75.5" y1="404.4219" y2="583.3438"/><polygon fill="#181818" points="71.5,573.3438,75.5,583.3438,79.5,573.3438,75.5,577.3438" style="stroke:#181818;stroke-width:1.0;"/><line style="stroke:#181818;stroke-width:1.0;" x1="239" x2="239" y1="144.5781" y2="164.5781"/><polygon fill="#181818" points="235,154.5781,239,164.5781,243,154.5781,239,158.5781" style="stroke:#181818;stroke-width:1.0;"/><line style="stroke:#181818;stroke-width:1.0;" x1="327" x2="479" y1="621.3438" y2="621.3438"/><polygon fill="#181818" points="475,392.7813,479,382.7813,483,392.7813,479,388.7813" style="stroke:#181818;stroke-width:1.0;"/><line style="stroke:#181818;stroke-width:1.0;" x1="479" x2="479" y1="132.5781" y2="621.3438"/><line style="stroke:#181818;stroke-width:1.0;" x1="479" x2="251" y1="132.5781" y2="132.5781"/><polygon fill="#181818" points="261,128.5781,251,132.5781,261,136.5781,257,132.5781" style="stroke:#181818;stroke-width:1.0;"/><line style="stroke:#181818;stroke-width:1.0;" x1="239" x2="239" y1="589.3438" y2="609.3438"/><polygon fill="#181818" points="235,599.3438,239,609.3438,243,599.3438,239,603.3438" style="stroke:#181818;stroke-width:1.0;"/><line style="stroke:#181818;stroke-width:1.0;" x1="239" x2="239" y1="67.2969" y2="120.5781"/><polygon fill="#181818" points="235,110.5781,239,120.5781,243,110.5781,239,114.5781" style="stroke:#181818;stroke-width:1.0;"/><!--SRC=[LOynJyD038Lt_uetDWCIOYHJ4Ug8gZ8mLbRY1YlftUdiKhM8_yurJQ6PxkdvVSzdwpKaphmVOjDBYrPsV1Xy5OE_wrdmz4ZaweDWcTAW3Rl6O5XfSLwYum7BnlLB_OHNvQuK4PbpTg9IMyWInqVClUHrZesOuPk0B4dOYm1sPJWAu7dDMOBNVpwuOmstwQocdjoxfZ5aijyUMNrn4UDFhfXLzN-eYUbqES7gEPYYtO4RIJ5xDT-4usS15_EJr90F8MZegYaieQNflLquuuk7DwGhBrRH3n7z0W00]--></g></svg>