<?xml version="1.0" encoding="UTF-8" standalone="no"?><svg xmlns="http://www.w3.org/2000/svg" xmlns:xlink="http://www.w3.org/1999/xlink" contentStyleType="text/css" height="457px" preserveAspectRatio="none" style="width:978px;height:457px;background:#FFFFFF;" version="1.1" viewBox="0 0 978 457" width="978px" zoomAndPan="magnify"><defs/><g><text fill="#000000" font-family="sans-serif" font-size="14" font-weight="bold" lengthAdjust="spacing" textLength="950" x="10" y="27.9951">System Sequence Diagram (SSD) - Execute the process of verification of requirements of applications for a job opening.</text><rect fill="#FFFFFF" height="224.6875" style="stroke:#181818;stroke-width:1.0;" width="10" x="110.75" y="135.5781"/><rect fill="#FFFFFF" height="37.2813" style="stroke:#181818;stroke-width:1.0;" width="10" x="900.75" y="164.8594"/><rect fill="#FFFFFF" height="37.2813" style="stroke:#181818;stroke-width:1.0;" width="10" x="900.75" y="239.4219"/><rect fill="#FFFFFF" height="37.2813" style="stroke:#181818;stroke-width:1.0;" width="10" x="900.75" y="313.9844"/><line style="stroke:#181818;stroke-width:0.5;stroke-dasharray:5.0,5.0;" x1="115.75" x2="115.75" y1="125.5781" y2="369.2656"/><line style="stroke:#181818;stroke-width:0.5;stroke-dasharray:5.0,5.0;" x1="905.25" x2="905.25" y1="125.5781" y2="369.2656"/><text fill="#000000" font-family="sans-serif" font-size="20" lengthAdjust="spacing" textLength="190" x="17.75" y="120.8613">Customer Manager</text><ellipse cx="115.75" cy="50.7969" fill="#E3E3E3" rx="8" ry="8" style="stroke:#181818;stroke-width:0.5;"/><path d="M115.75,58.7969 L115.75,85.7969 M102.75,66.7969 L128.75,66.7969 M115.75,85.7969 L102.75,100.7969 M115.75,85.7969 L128.75,100.7969 " fill="none" style="stroke:#181818;stroke-width:0.5;"/><text fill="#000000" font-family="sans-serif" font-size="20" lengthAdjust="spacing" textLength="190" x="17.75" y="386.8301">Customer Manager</text><ellipse cx="115.75" cy="400.0469" fill="#E3E3E3" rx="8" ry="8" style="stroke:#181818;stroke-width:0.5;"/><path d="M115.75,408.0469 L115.75,435.0469 M102.75,416.0469 L128.75,416.0469 M115.75,435.0469 L102.75,450.0469 M115.75,435.0469 L128.75,450.0469 " fill="none" style="stroke:#181818;stroke-width:0.5;"/><rect fill="#E3E3E3" height="37.2813" rx="2.5" ry="2.5" style="stroke:#181818;stroke-width:0.5;" width="95" x="858.25" y="87.2969"/><text fill="#000000" font-family="sans-serif" font-size="20" lengthAdjust="spacing" textLength="81" x="865.25" y="112.8613">:System</text><rect fill="#E3E3E3" height="37.2813" rx="2.5" ry="2.5" style="stroke:#181818;stroke-width:0.5;" width="95" x="858.25" y="368.2656"/><text fill="#000000" font-family="sans-serif" font-size="20" lengthAdjust="spacing" textLength="81" x="865.25" y="393.8301">:System</text><rect fill="#FFFFFF" height="224.6875" style="stroke:#181818;stroke-width:1.0;" width="10" x="110.75" y="135.5781"/><rect fill="#FFFFFF" height="37.2813" style="stroke:#181818;stroke-width:1.0;" width="10" x="900.75" y="164.8594"/><rect fill="#FFFFFF" height="37.2813" style="stroke:#181818;stroke-width:1.0;" width="10" x="900.75" y="239.4219"/><rect fill="#FFFFFF" height="37.2813" style="stroke:#181818;stroke-width:1.0;" width="10" x="900.75" y="313.9844"/><polygon fill="#181818" points="888.75,160.8594,898.75,164.8594,888.75,168.8594,892.75,164.8594" style="stroke:#181818;stroke-width:1.0;"/><line style="stroke:#181818;stroke-width:1.0;" x1="120.75" x2="894.75" y1="164.8594" y2="164.8594"/><text fill="#000000" font-family="sans-serif" font-size="20" font-weight="bold" lengthAdjust="spacing" textLength="14" x="127.75" y="158.1426">1</text><text fill="#000000" font-family="sans-serif" font-size="20" lengthAdjust="spacing" textLength="743" x="145.75" y="158.1426">Asks to to upload a text file with the candidate responses for an interview.</text><polygon fill="#181818" points="131.75,198.1406,121.75,202.1406,131.75,206.1406,127.75,202.1406" style="stroke:#181818;stroke-width:1.0;"/><line style="stroke:#181818;stroke-width:1.0;stroke-dasharray:2.0,2.0;" x1="125.75" x2="904.75" y1="202.1406" y2="202.1406"/><text fill="#000000" font-family="sans-serif" font-size="20" font-weight="bold" lengthAdjust="spacing" textLength="14" x="137.75" y="195.4238">2</text><text fill="#000000" font-family="sans-serif" font-size="20" lengthAdjust="spacing" textLength="537" x="155.75" y="195.4238">Provides a list of job openings and asks to choose one</text><polygon fill="#181818" points="888.75,235.4219,898.75,239.4219,888.75,243.4219,892.75,239.4219" style="stroke:#181818;stroke-width:1.0;"/><line style="stroke:#181818;stroke-width:1.0;" x1="120.75" x2="894.75" y1="239.4219" y2="239.4219"/><text fill="#000000" font-family="sans-serif" font-size="20" font-weight="bold" lengthAdjust="spacing" textLength="14" x="127.75" y="232.7051">3</text><text fill="#000000" font-family="sans-serif" font-size="20" lengthAdjust="spacing" textLength="215" x="145.75" y="232.7051">Selects a job opening</text><polygon fill="#181818" points="131.75,272.7031,121.75,276.7031,131.75,280.7031,127.75,276.7031" style="stroke:#181818;stroke-width:1.0;"/><line style="stroke:#181818;stroke-width:1.0;stroke-dasharray:2.0,2.0;" x1="125.75" x2="904.75" y1="276.7031" y2="276.7031"/><text fill="#000000" font-family="sans-serif" font-size="20" font-weight="bold" lengthAdjust="spacing" textLength="14" x="137.75" y="269.9863">4</text><text fill="#000000" font-family="sans-serif" font-size="20" lengthAdjust="spacing" textLength="268" x="155.75" y="269.9863">Asks to upload the text file</text><polygon fill="#181818" points="888.75,309.9844,898.75,313.9844,888.75,317.9844,892.75,313.9844" style="stroke:#181818;stroke-width:1.0;"/><line style="stroke:#181818;stroke-width:1.0;" x1="120.75" x2="894.75" y1="313.9844" y2="313.9844"/><text fill="#000000" font-family="sans-serif" font-size="20" font-weight="bold" lengthAdjust="spacing" textLength="14" x="127.75" y="307.2676">5</text><text fill="#000000" font-family="sans-serif" font-size="20" lengthAdjust="spacing" textLength="202" x="145.75" y="307.2676">Uploads the text file</text><polygon fill="#181818" points="131.75,347.2656,121.75,351.2656,131.75,355.2656,127.75,351.2656" style="stroke:#181818;stroke-width:1.0;"/><line style="stroke:#181818;stroke-width:1.0;stroke-dasharray:2.0,2.0;" x1="125.75" x2="904.75" y1="351.2656" y2="351.2656"/><text fill="#000000" font-family="sans-serif" font-size="20" font-weight="bold" lengthAdjust="spacing" textLength="14" x="137.75" y="344.5488">6</text><text fill="#000000" font-family="sans-serif" font-size="20" lengthAdjust="spacing" textLength="255" x="155.75" y="344.5488">Informs success or failure</text><!--SRC=[bPBFZjGm3CRlVGfhJd2O5U8u1oJ4WiG12QdY0RofEpMJnY5sPdPvUjn_oo3D8ctKGn8xzk_xQZrnobXmZ19Er457FTPeNoHPoxy9thzhT4k1KPA4eSX8OANILIHZEE6HMdkA18M2OJh6wmGTi9CBfoFq69MQnjWyjNrIen5Q-bKf1O9xnkEK_gPjxz_27Zu_KgZcxGQ2N2IGAaWFPohSSq1ZITEv-7ikD5AoEOuvnpMiq4i1X9_o098fES9Tqs0rINLyeEBxO9wn-rJLN5c1RvXSIja1whPlN8Hnu8p9O7TOgEU4PJiNuJCwwVQY0L_h0VOVDgK7-AWd1PFfgpaATWvdz6ZGinjoOHjcjG5JnzrKiP1crq6haWISZCgPwNAtT7dklS70kjQUUs-_aHpWUv4pTruD8RBQPDULDtwTd6Xb38E84aYYfMX7DtlTajbIz37GVvt_Y_OwvisprR39dsVBNY9x2Up7N4Dl5NazsDVa_sHKq1gMsIm-tnnheVzGDSqV]--></g></svg>