<?xml version="1.0" encoding="UTF-8" standalone="no"?><svg xmlns="http://www.w3.org/2000/svg" xmlns:xlink="http://www.w3.org/1999/xlink" contentStyleType="text/css" height="473px" preserveAspectRatio="none" style="width:1376px;height:473px;background:#FFFFFF;" version="1.1" viewBox="0 0 1376 473" width="1376px" zoomAndPan="magnify"><defs/><g><text fill="#000000" font-family="sans-serif" font-size="14" font-weight="bold" lengthAdjust="spacing" textLength="198" x="582" y="22.9951">DOMAIN MODEL - US1005</text><!--cluster <<aggregate>> Application--><g id="cluster_&lt;&lt;aggregate&gt;&gt; Application"><path d="M8.5,44.5137 L288.5,44.5137 A3.75,3.75 0 0 1 291,47.0137 L298,73.7949 L1366.5,73.7949 A2.5,2.5 0 0 1 1369,76.2949 L1369,464.0137 A2.5,2.5 0 0 1 1366.5,466.5137 L8.5,466.5137 A2.5,2.5 0 0 1 6,464.0137 L6,47.0137 A2.5,2.5 0 0 1 8.5,44.5137 " fill="#EBF5FB" style="stroke:#000000;stroke-width:1.5;"/><line style="stroke:#000000;stroke-width:1.5;" x1="6" x2="298" y1="73.7949" y2="73.7949"/><text fill="#000000" font-family="sans-serif" font-size="20" font-weight="bold" lengthAdjust="spacing" textLength="279" x="10" y="65.0781">«aggregate» Application</text></g><!--class Application--><g id="elem_Application"><rect codeLine="21" fill="#FDEBD0" height="79.8438" id="Application" rx="2.5" ry="2.5" style="stroke:#181818;stroke-width:0.5;" width="148" x="531" y="86.5137"/><ellipse cx="547" cy="126.4355" fill="#ADD1B2" rx="12" ry="12" style="stroke:#181818;stroke-width:1.0;"/><path d="M551.7188,133.9355 L542.6406,133.9355 L542.6406,119.3574 L551.7188,119.3574 L551.7188,121.8887 L545.5156,121.8887 L545.5156,125.0449 L551.1406,125.0449 L551.1406,127.5762 L545.5156,127.5762 L545.5156,131.3887 L551.7188,131.3887 L551.7188,133.9355 Z " fill="#000000"/><text fill="#000000" font-family="sans-serif" font-size="20" font-style="italic" lengthAdjust="spacing" textLength="83" x="577.5" y="110.0781">«entity»</text><text fill="#000000" font-family="sans-serif" font-size="20" font-style="italic" lengthAdjust="spacing" textLength="64" x="587" y="133.3594">«root»</text><text fill="#000000" font-family="sans-serif" font-size="20" lengthAdjust="spacing" textLength="114" x="562" y="156.6406">Application</text></g><!--class Result--><g id="elem_Result"><rect codeLine="22" fill="#FEF9E7" height="56.5625" id="Result" rx="2.5" ry="2.5" style="stroke:#181818;stroke-width:0.5;" width="113" x="359.5" y="251.5137"/><ellipse cx="375.5" cy="279.7949" fill="#ADD1B2" rx="12" ry="12" style="stroke:#181818;stroke-width:1.0;"/><path d="M380.2188,287.2949 L371.1406,287.2949 L371.1406,272.7168 L380.2188,272.7168 L380.2188,275.248 L374.0156,275.248 L374.0156,278.4043 L379.6406,278.4043 L379.6406,280.9355 L374.0156,280.9355 L374.0156,284.748 L380.2188,284.748 L380.2188,287.2949 Z " fill="#000000"/><text fill="#000000" font-family="sans-serif" font-size="20" font-style="italic" lengthAdjust="spacing" textLength="83" x="388.5" y="275.0781">«entity»</text><text fill="#000000" font-family="sans-serif" font-size="20" lengthAdjust="spacing" textLength="63" x="398.5" y="298.3594">Result</text></g><!--class ApplicationDate--><g id="elem_ApplicationDate"><rect codeLine="24" fill="#D6EAF8" height="56.5625" id="ApplicationDate" rx="2.5" ry="2.5" style="stroke:#181818;stroke-width:0.5;" width="195" x="507.5" y="251.5137"/><ellipse cx="523.5" cy="279.7949" fill="#FF8B40" rx="12" ry="12" style="stroke:#181818;stroke-width:1.0;"/><path d="M523.5156,285.6387 L526.0781,273.4668 L528.9844,273.4668 L525.5156,288.0449 L521.5313,288.0449 L518.0625,273.4668 L520.9531,273.4668 L523.5156,285.6387 Z " fill="#000000"/><text fill="#000000" font-family="sans-serif" font-size="20" font-style="italic" lengthAdjust="spacing" textLength="145" x="546.5" y="275.0781">«valueObject»</text><text fill="#000000" font-family="sans-serif" font-size="20" lengthAdjust="spacing" textLength="161" x="538.5" y="298.3594">ApplicationDate</text></g><!--class ApplicationNumber--><g id="elem_ApplicationNumber"><rect codeLine="25" fill="#D6EAF8" height="56.5625" id="ApplicationNumber" rx="2.5" ry="2.5" style="stroke:#181818;stroke-width:0.5;" width="229" x="737.5" y="251.5137"/><ellipse cx="753.5" cy="279.7949" fill="#FF8B40" rx="12" ry="12" style="stroke:#181818;stroke-width:1.0;"/><path d="M753.5156,285.6387 L756.0781,273.4668 L758.9844,273.4668 L755.5156,288.0449 L751.5313,288.0449 L748.0625,273.4668 L750.9531,273.4668 L753.5156,285.6387 Z " fill="#000000"/><text fill="#000000" font-family="sans-serif" font-size="20" font-style="italic" lengthAdjust="spacing" textLength="145" x="793.5" y="275.0781">«valueObject»</text><text fill="#000000" font-family="sans-serif" font-size="20" lengthAdjust="spacing" textLength="195" x="768.5" y="298.3594">ApplicationNumber</text></g><!--class Outcome--><g id="elem_Outcome"><rect codeLine="26" fill="#D6EAF8" height="56.5625" id="Outcome" rx="2.5" ry="2.5" style="stroke:#181818;stroke-width:0.5;" width="175" x="22.5" y="393.5137"/><ellipse cx="38.5" cy="421.7949" fill="#FF8B40" rx="12" ry="12" style="stroke:#181818;stroke-width:1.0;"/><path d="M38.5156,427.6387 L41.0781,415.4668 L43.9844,415.4668 L40.5156,430.0449 L36.5313,430.0449 L33.0625,415.4668 L35.9531,415.4668 L38.5156,427.6387 Z " fill="#000000"/><text fill="#000000" font-family="sans-serif" font-size="20" font-style="italic" lengthAdjust="spacing" textLength="145" x="51.5" y="417.0781">«valueObject»</text><text fill="#000000" font-family="sans-serif" font-size="20" lengthAdjust="spacing" textLength="92" x="78" y="440.3594">Outcome</text></g><!--class Justification--><g id="elem_Justification"><rect codeLine="27" fill="#D6EAF8" height="56.5625" id="Justification" rx="2.5" ry="2.5" style="stroke:#181818;stroke-width:0.5;" width="175" x="1177.5" y="393.5137"/><ellipse cx="1193.5" cy="421.7949" fill="#FF8B40" rx="12" ry="12" style="stroke:#181818;stroke-width:1.0;"/><path d="M1193.5156,427.6387 L1196.0781,415.4668 L1198.9844,415.4668 L1195.5156,430.0449 L1191.5313,430.0449 L1188.0625,415.4668 L1190.9531,415.4668 L1193.5156,427.6387 Z " fill="#000000"/><text fill="#000000" font-family="sans-serif" font-size="20" font-style="italic" lengthAdjust="spacing" textLength="145" x="1206.5" y="417.0781">«valueObject»</text><text fill="#000000" font-family="sans-serif" font-size="20" lengthAdjust="spacing" textLength="118" x="1220" y="440.3594">Justification</text></g><g id="elem_GMN9"><path d="M233,405.5137 L233,418.0137 L197.82,422.0137 L233,426.0137 L233,438.7949 A0,0 0 0 0 233,438.7949 L641,438.7949 A0,0 0 0 0 641,438.7949 L641,415.5137 L631,405.5137 L233,405.5137 A0,0 0 0 0 233,405.5137 " fill="#FEFFDD" style="stroke:#181818;stroke-width:0.5;"/><path d="M631,405.5137 L631,415.5137 L641,415.5137 L631,405.5137 " fill="#FEFFDD" style="stroke:#181818;stroke-width:0.5;"/><text fill="#000000" font-family="sans-serif" font-size="20" lengthAdjust="spacing" textLength="387" x="239" y="429.0781">Outcome can be Approved or Rejected</text></g><g id="elem_GMN12"><path d="M676,405.5137 L676,438.7949 A0,0 0 0 0 676,438.7949 L1142,438.7949 A0,0 0 0 0 1142,438.7949 L1142,426.0137 L1177.27,422.0137 L1142,418.0137 L1142,415.5137 L1132,405.5137 L676,405.5137 A0,0 0 0 0 676,405.5137 " fill="#FEFFDD" style="stroke:#181818;stroke-width:0.5;"/><path d="M1132,405.5137 L1132,415.5137 L1142,415.5137 L1132,405.5137 " fill="#FEFFDD" style="stroke:#181818;stroke-width:0.5;"/><text fill="#000000" font-family="sans-serif" font-size="20" lengthAdjust="spacing" textLength="445" x="682" y="429.0781">Rejected outcomes must have a justification</text></g><!--link Result to Outcome--><g id="link_Result_Outcome"><path codeLine="34" d="M359.16,307.0137 C306.88,330.9437 229.4,366.3837 174.75,391.3937 " fill="none" id="Result-to-Outcome" style="stroke:#000000;stroke-width:1.0;"/><polygon fill="#000000" points="170.2,393.4737,180.0484,393.3793,174.7494,391.3993,176.7294,386.1002,170.2,393.4737" style="stroke:#000000;stroke-width:1.0;"/><text fill="#000000" font-family="sans-serif" font-size="20" lengthAdjust="spacing" textLength="35" x="282" y="358.0781">has</text><text fill="#000000" font-family="sans-serif" font-size="20" lengthAdjust="spacing" textLength="13" x="338.4404" y="304.511">1</text><text fill="#000000" font-family="sans-serif" font-size="20" lengthAdjust="spacing" textLength="13" x="168.2756" y="380.854">1</text></g><!--link Result to Justification--><g id="link_Result_Justification"><path codeLine="35" d="M472.55,303.5237 C478.39,305.3937 484.28,307.1037 490,308.5137 C781.49,380.1537 865.3,336.4837 1160,393.5137 C1164.06,394.2937 1168.19,395.1537 1172.35,396.0537 " fill="none" id="Result-to-Justification" style="stroke:#000000;stroke-width:1.0;"/><polygon fill="#000000" points="1177.25,397.1337,1169.332,391.2765,1172.3691,396.049,1167.5966,399.086,1177.25,397.1337" style="stroke:#000000;stroke-width:1.0;"/><text fill="#000000" font-family="sans-serif" font-size="20" lengthAdjust="spacing" textLength="90" x="929" y="358.0781">can have</text><text fill="#000000" font-family="sans-serif" font-size="20" lengthAdjust="spacing" textLength="13" x="480.6283" y="300.673">1</text><text fill="#000000" font-family="sans-serif" font-size="20" lengthAdjust="spacing" textLength="13" x="1156.4449" y="389.7152">1</text></g><!--link Application to ApplicationDate--><g id="link_Application_ApplicationDate"><path codeLine="38" d="M605,166.5337 C605,191.1437 605,222.5837 605,245.9737 " fill="none" id="Application-to-ApplicationDate" style="stroke:#000000;stroke-width:1.0;"/><polygon fill="#000000" points="605,251.1337,609,242.1337,605,246.1337,601,242.1337,605,251.1337" style="stroke:#000000;stroke-width:1.0;"/><text fill="#000000" font-family="sans-serif" font-size="20" lengthAdjust="spacing" textLength="35" x="606" y="216.0781">has</text><text fill="#000000" font-family="sans-serif" font-size="20" lengthAdjust="spacing" textLength="13" x="591.0047" y="193.0206">1</text><text fill="#000000" font-family="sans-serif" font-size="20" lengthAdjust="spacing" textLength="13" x="590.7203" y="238.8191">1</text></g><!--link Application to ApplicationNumber--><g id="link_Application_ApplicationNumber"><path codeLine="39" d="M668.61,166.5337 C710.23,192.0537 763.82,224.9237 802.31,248.5337 " fill="none" id="Application-to-ApplicationNumber" style="stroke:#000000;stroke-width:1.0;"/><polygon fill="#000000" points="806.92,251.3637,801.3439,243.2454,802.6593,248.7472,797.1575,250.0626,806.92,251.3637" style="stroke:#000000;stroke-width:1.0;"/><text fill="#000000" font-family="sans-serif" font-size="20" lengthAdjust="spacing" textLength="35" x="758" y="216.0781">has</text><text fill="#000000" font-family="sans-serif" font-size="20" lengthAdjust="spacing" textLength="13" x="664.355" y="193.0206">1</text><text fill="#000000" font-family="sans-serif" font-size="20" lengthAdjust="spacing" textLength="13" x="783.2816" y="238.7213">1</text></g><!--link Application to Result--><g id="link_Application_Result"><path codeLine="40" d="M556.33,166.5337 C524.74,191.8437 484.14,224.3937 454.75,247.9537 " fill="none" id="Application-to-Result" style="stroke:#000000;stroke-width:1.0;"/><polygon fill="#000000" points="450.49,251.3637,460.0132,248.8521,454.3902,248.235,455.0073,242.6119,450.49,251.3637" style="stroke:#000000;stroke-width:1.0;"/><text fill="#000000" font-family="sans-serif" font-size="20" lengthAdjust="spacing" textLength="35" x="517" y="216.0781">has</text><text fill="#000000" font-family="sans-serif" font-size="20" lengthAdjust="spacing" textLength="13" x="534.8821" y="193.0206">1</text><text fill="#000000" font-family="sans-serif" font-size="20" lengthAdjust="spacing" textLength="38" x="415.6848" y="238.7213">0..1</text></g><!--SRC=[bP9TJwD058RlvrUSr0lNn1fgrbst8KrWWMIDsaIZzrCuXR43GsQ6cchyxmu3jBIILNj3SyxplkThr8eL9PKqvo9UOG89Bcd5TIGAVSzU4CuTGZJJ726OttZ_Rk5c7eJNC8Q7-udZN12IiGG1yr9l8CTyWLAHOzMPmZKhK6zA125r9WZPPM9EbO9N0kRdqtYLIb4LoL_1XNJTDUKLpXTF6ElP38w2Nw4NNGwZKWZBH47e1yumer2kMOpMQXATX_uGPYp2w4_us-OyASLp4_QvuSXRl_VIH6YAmzt3KUX75v5VIux1AqlEOggPAC1BKuafrKWwWv7hqYvekkl1ezOS2xFzpPwDwpP18zYE__hMf-zGcHlsGPEtGBFrdbjWAiFXmbttn-EfsKTqwVzqJdRs7zItLNtnR-hdbOv5_jsgLvNIRBdRmUTQAow4cK-oDDCWbbtfwRQ7c1Qmm7eaATRc-PlptM7jYSbEpd5frNijJBSWYCPCGMu0oEWQWS9J7sxUGdiMYTm6LSPAHThWQ3A2yNXclrrpK-Cr2EplOcgdgCiUFhZzIlrCt-tmDJHblq2tr_yFxvoTcR_j10tt3W00]--></g></svg>