<?xml version="1.0" encoding="UTF-8" standalone="no"?><svg xmlns="http://www.w3.org/2000/svg" xmlns:xlink="http://www.w3.org/1999/xlink" contentStyleType="text/css" height="518px" preserveAspectRatio="none" style="width:552px;height:518px;background:#FFFFFF;" version="1.1" viewBox="0 0 552 518" width="552px" zoomAndPan="magnify"><defs/><g><text fill="#000000" font-family="sans-serif" font-size="14" font-weight="bold" lengthAdjust="spacing" textLength="392" x="79.25" y="27.9951">System Sequence Diagram (SSD) - Register Users</text><rect fill="#FFFFFF" height="286.5313" style="stroke:#181818;stroke-width:1.0;" width="10" x="36" y="135.5781"/><rect fill="#FFFFFF" height="37.2813" style="stroke:#181818;stroke-width:1.0;" width="10" x="494" y="164.8594"/><rect fill="#FFFFFF" height="37.2813" style="stroke:#181818;stroke-width:1.0;" width="10" x="494" y="375.8281"/><line style="stroke:#181818;stroke-width:0.5;stroke-dasharray:5.0,5.0;" x1="41" x2="41" y1="125.5781" y2="431.1094"/><line style="stroke:#181818;stroke-width:0.5;stroke-dasharray:5.0,5.0;" x1="498.5" x2="498.5" y1="125.5781" y2="431.1094"/><text fill="#000000" font-family="sans-serif" font-size="20" lengthAdjust="spacing" textLength="66" x="5" y="120.8613">Admin</text><ellipse cx="41" cy="50.7969" fill="#E3E3E3" rx="8" ry="8" style="stroke:#181818;stroke-width:0.5;"/><path d="M41,58.7969 L41,85.7969 M28,66.7969 L54,66.7969 M41,85.7969 L28,100.7969 M41,85.7969 L54,100.7969 " fill="none" style="stroke:#181818;stroke-width:0.5;"/><text fill="#000000" font-family="sans-serif" font-size="20" lengthAdjust="spacing" textLength="66" x="5" y="448.6738">Admin</text><ellipse cx="41" cy="461.8906" fill="#E3E3E3" rx="8" ry="8" style="stroke:#181818;stroke-width:0.5;"/><path d="M41,469.8906 L41,496.8906 M28,477.8906 L54,477.8906 M41,496.8906 L28,511.8906 M41,496.8906 L54,511.8906 " fill="none" style="stroke:#181818;stroke-width:0.5;"/><rect fill="#E3E3E3" height="37.2813" rx="2.5" ry="2.5" style="stroke:#181818;stroke-width:0.5;" width="95" x="451.5" y="87.2969"/><text fill="#000000" font-family="sans-serif" font-size="20" lengthAdjust="spacing" textLength="81" x="458.5" y="112.8613">:System</text><rect fill="#E3E3E3" height="37.2813" rx="2.5" ry="2.5" style="stroke:#181818;stroke-width:0.5;" width="95" x="451.5" y="430.1094"/><text fill="#000000" font-family="sans-serif" font-size="20" lengthAdjust="spacing" textLength="81" x="458.5" y="455.6738">:System</text><rect fill="#FFFFFF" height="286.5313" style="stroke:#181818;stroke-width:1.0;" width="10" x="36" y="135.5781"/><rect fill="#FFFFFF" height="37.2813" style="stroke:#181818;stroke-width:1.0;" width="10" x="494" y="164.8594"/><rect fill="#FFFFFF" height="37.2813" style="stroke:#181818;stroke-width:1.0;" width="10" x="494" y="375.8281"/><polygon fill="#181818" points="482,160.8594,492,164.8594,482,168.8594,486,164.8594" style="stroke:#181818;stroke-width:1.0;"/><line style="stroke:#181818;stroke-width:1.0;" x1="46" x2="488" y1="164.8594" y2="164.8594"/><text fill="#000000" font-family="sans-serif" font-size="20" font-weight="bold" lengthAdjust="spacing" textLength="14" x="53" y="158.1426">1</text><text fill="#000000" font-family="sans-serif" font-size="20" lengthAdjust="spacing" textLength="411" x="71" y="158.1426">Asks to register an User of the Backoffice</text><polygon fill="#181818" points="57,198.1406,47,202.1406,57,206.1406,53,202.1406" style="stroke:#181818;stroke-width:1.0;"/><line style="stroke:#181818;stroke-width:1.0;stroke-dasharray:2.0,2.0;" x1="51" x2="498" y1="202.1406" y2="202.1406"/><text fill="#000000" font-family="sans-serif" font-size="20" font-weight="bold" lengthAdjust="spacing" textLength="14" x="63" y="195.4238">2</text><text fill="#000000" font-family="sans-serif" font-size="20" lengthAdjust="spacing" textLength="399" x="81" y="195.4238">Asks for information (name, email, role)</text><path d="M128,215.1406 L128,341.1406 L494,341.1406 L494,225.1406 L484,215.1406 L128,215.1406 " fill="#FAFAFA" style="stroke:#181818;stroke-width:0.5;"/><path d="M484,215.1406 L484,225.1406 L494,225.1406 L484,215.1406 " fill="#FAFAFA" style="stroke:#181818;stroke-width:0.5;"/><text fill="#000000" font-family="sans-serif" font-size="20" lengthAdjust="spacing" textLength="257" x="134" y="238.7051">The Admin has to provide</text><text fill="#000000" font-family="sans-serif" font-size="20" lengthAdjust="spacing" textLength="246" x="134" y="261.9863">the name and email and</text><text fill="#000000" font-family="sans-serif" font-size="20" lengthAdjust="spacing" textLength="253" x="134" y="285.2676">must pick a role from the</text><text fill="#000000" font-family="sans-serif" font-size="20" lengthAdjust="spacing" textLength="205" x="134" y="308.5488">list of available roles</text><text fill="#000000" font-family="sans-serif" font-size="20" lengthAdjust="spacing" textLength="345" x="134" y="331.8301">(Customer Manager and Operator)</text><polygon fill="#181818" points="482,371.8281,492,375.8281,482,379.8281,486,375.8281" style="stroke:#181818;stroke-width:1.0;"/><line style="stroke:#181818;stroke-width:1.0;" x1="46" x2="488" y1="375.8281" y2="375.8281"/><text fill="#000000" font-family="sans-serif" font-size="20" font-weight="bold" lengthAdjust="spacing" textLength="14" x="53" y="369.1113">3</text><text fill="#000000" font-family="sans-serif" font-size="20" lengthAdjust="spacing" textLength="207" x="71" y="369.1113">Provides information</text><polygon fill="#181818" points="57,409.1094,47,413.1094,57,417.1094,53,413.1094" style="stroke:#181818;stroke-width:1.0;"/><line style="stroke:#181818;stroke-width:1.0;stroke-dasharray:2.0,2.0;" x1="51" x2="498" y1="413.1094" y2="413.1094"/><text fill="#000000" font-family="sans-serif" font-size="20" font-weight="bold" lengthAdjust="spacing" textLength="14" x="63" y="406.3926">4</text><text fill="#000000" font-family="sans-serif" font-size="20" lengthAdjust="spacing" textLength="255" x="81" y="406.3926">Informs success or failure</text><!--SRC=[bP4nRzmm38Lt_mhYfZiW1nGTCnH86nJeKBI8c-qMHgPimHBbYlG5oQylBVlI0zeErI0GqDFZzqWP0qzOCCNiHkgW8uzprC-PjGsl1E_VDNAHGCgStL1o8j0oqzNBX6x4dbfzYGI5d2BtyLeW0tRvEN0F7gDGqsXGaxOlefIWfPypiIEu3zWlydtRtX_W20_K1rCKU1GgqZGuQ-OvFL6nscakiBlhKk0Te42j6kkdmOK9MM5tkpQepsjP_uKpActw1kpK4euVBa2tS2UZW6OBin4WLmZ87dGW-6Y9i_V1KJLuCxrqWUriXaVpNfjirjxO0zkTK4Dcs3CckW5A6E8Db1pfyER1sOmZUVsDzsFO-670oZcLV0uTmOaNkiNCYBlLhrOdJhCeJC6DWBK1U5jb3NFYQ26NQ7WsFJujMpI5sCl-atspbHVuYcmxBjNjsqG5RVw7DMb7Vnt0dsFzlcBATVR_7k2N-bT0PkT816oKth3dGl-Y-GK0]--></g></svg>