<?xml version="1.0" encoding="UTF-8" standalone="no"?><svg xmlns="http://www.w3.org/2000/svg" xmlns:xlink="http://www.w3.org/1999/xlink" contentStyleType="text/css" height="518px" preserveAspectRatio="none" style="width:701px;height:518px;background:#FFFFFF;" version="1.1" viewBox="0 0 701 518" width="701px" zoomAndPan="magnify"><defs/><g><text fill="#000000" font-family="sans-serif" font-size="14" font-weight="bold" lengthAdjust="spacing" textLength="392" x="153.75" y="27.9951">System Sequence Diagram (SSD) - Register Users</text><rect fill="#FFFFFF" height="286.5313" style="stroke:#181818;stroke-width:1.0;" width="10" x="36" y="135.5781"/><rect fill="#FFFFFF" height="37.2813" style="stroke:#181818;stroke-width:1.0;" width="10" x="643" y="164.8594"/><rect fill="#FFFFFF" height="37.2813" style="stroke:#181818;stroke-width:1.0;" width="10" x="643" y="375.8281"/><line style="stroke:#181818;stroke-width:0.5;stroke-dasharray:5.0,5.0;" x1="41" x2="41" y1="125.5781" y2="431.1094"/><line style="stroke:#181818;stroke-width:0.5;stroke-dasharray:5.0,5.0;" x1="647.5" x2="647.5" y1="125.5781" y2="431.1094"/><text fill="#000000" font-family="sans-serif" font-size="20" lengthAdjust="spacing" textLength="66" x="5" y="120.8613">Admin</text><ellipse cx="41" cy="50.7969" fill="#E3E3E3" rx="8" ry="8" style="stroke:#181818;stroke-width:0.5;"/><path d="M41,58.7969 L41,85.7969 M28,66.7969 L54,66.7969 M41,85.7969 L28,100.7969 M41,85.7969 L54,100.7969 " fill="none" style="stroke:#181818;stroke-width:0.5;"/><text fill="#000000" font-family="sans-serif" font-size="20" lengthAdjust="spacing" textLength="66" x="5" y="448.6738">Admin</text><ellipse cx="41" cy="461.8906" fill="#E3E3E3" rx="8" ry="8" style="stroke:#181818;stroke-width:0.5;"/><path d="M41,469.8906 L41,496.8906 M28,477.8906 L54,477.8906 M41,496.8906 L28,511.8906 M41,496.8906 L54,511.8906 " fill="none" style="stroke:#181818;stroke-width:0.5;"/><rect fill="#E3E3E3" height="37.2813" rx="2.5" ry="2.5" style="stroke:#181818;stroke-width:0.5;" width="95" x="600.5" y="87.2969"/><text fill="#000000" font-family="sans-serif" font-size="20" lengthAdjust="spacing" textLength="81" x="607.5" y="112.8613">:System</text><rect fill="#E3E3E3" height="37.2813" rx="2.5" ry="2.5" style="stroke:#181818;stroke-width:0.5;" width="95" x="600.5" y="430.1094"/><text fill="#000000" font-family="sans-serif" font-size="20" lengthAdjust="spacing" textLength="81" x="607.5" y="455.6738">:System</text><rect fill="#FFFFFF" height="286.5313" style="stroke:#181818;stroke-width:1.0;" width="10" x="36" y="135.5781"/><rect fill="#FFFFFF" height="37.2813" style="stroke:#181818;stroke-width:1.0;" width="10" x="643" y="164.8594"/><rect fill="#FFFFFF" height="37.2813" style="stroke:#181818;stroke-width:1.0;" width="10" x="643" y="375.8281"/><polygon fill="#181818" points="631,160.8594,641,164.8594,631,168.8594,635,164.8594" style="stroke:#181818;stroke-width:1.0;"/><line style="stroke:#181818;stroke-width:1.0;" x1="46" x2="637" y1="164.8594" y2="164.8594"/><text fill="#000000" font-family="sans-serif" font-size="20" font-weight="bold" lengthAdjust="spacing" textLength="14" x="53" y="158.1426">1</text><text fill="#000000" font-family="sans-serif" font-size="20" lengthAdjust="spacing" textLength="411" x="71" y="158.1426">Asks to register an User of the Backoffice</text><polygon fill="#181818" points="57,198.1406,47,202.1406,57,206.1406,53,202.1406" style="stroke:#181818;stroke-width:1.0;"/><line style="stroke:#181818;stroke-width:1.0;stroke-dasharray:2.0,2.0;" x1="51" x2="647" y1="202.1406" y2="202.1406"/><text fill="#000000" font-family="sans-serif" font-size="20" font-weight="bold" lengthAdjust="spacing" textLength="14" x="63" y="195.4238">2</text><text fill="#000000" font-family="sans-serif" font-size="20" lengthAdjust="spacing" textLength="555" x="81" y="195.4238">Asks for information (first name, last name, email, role)</text><path d="M70,215.1406 L70,341.1406 L643,341.1406 L643,225.1406 L633,215.1406 L70,215.1406 " fill="#FAFAFA" style="stroke:#181818;stroke-width:0.5;"/><path d="M633,215.1406 L633,225.1406 L643,225.1406 L633,215.1406 " fill="#FAFAFA" style="stroke:#181818;stroke-width:0.5;"/><text fill="#000000" font-family="sans-serif" font-size="20" lengthAdjust="spacing" textLength="257" x="76" y="238.7051">The Admin has to provide</text><text fill="#000000" font-family="sans-serif" font-size="20" lengthAdjust="spacing" textLength="378" x="76" y="261.9863">the first and last name, the email and</text><text fill="#000000" font-family="sans-serif" font-size="20" lengthAdjust="spacing" textLength="253" x="76" y="285.2676">must pick a role from the</text><text fill="#000000" font-family="sans-serif" font-size="20" lengthAdjust="spacing" textLength="205" x="76" y="308.5488">list of available roles</text><text fill="#000000" font-family="sans-serif" font-size="20" lengthAdjust="spacing" textLength="552" x="76" y="331.8301">(Customer Manager, Operator and Language Engineer)</text><polygon fill="#181818" points="631,371.8281,641,375.8281,631,379.8281,635,375.8281" style="stroke:#181818;stroke-width:1.0;"/><line style="stroke:#181818;stroke-width:1.0;" x1="46" x2="637" y1="375.8281" y2="375.8281"/><text fill="#000000" font-family="sans-serif" font-size="20" font-weight="bold" lengthAdjust="spacing" textLength="14" x="53" y="369.1113">3</text><text fill="#000000" font-family="sans-serif" font-size="20" lengthAdjust="spacing" textLength="207" x="71" y="369.1113">Provides information</text><polygon fill="#181818" points="57,409.1094,47,413.1094,57,417.1094,53,413.1094" style="stroke:#181818;stroke-width:1.0;"/><line style="stroke:#181818;stroke-width:1.0;stroke-dasharray:2.0,2.0;" x1="51" x2="647" y1="413.1094" y2="413.1094"/><text fill="#000000" font-family="sans-serif" font-size="20" font-weight="bold" lengthAdjust="spacing" textLength="14" x="63" y="406.3926">4</text><text fill="#000000" font-family="sans-serif" font-size="20" lengthAdjust="spacing" textLength="255" x="81" y="406.3926">Informs success or failure</text><!--SRC=[bL9DQzj04BthLmm-sM13w367GDeq44XfgTgRBvFLh3HeTrRT3uVqrtUqabr3sqFt80RDc_VUVAIHPSA8tWKpKWSTMImkFmR9BVyaU7VJf3C4V91WXXWyGOw5hZ8JcX5xQlER8uXaCahlhW5fm2wyilHWqILgcinPeUrRokIXfH-5n10yCFOpVDks3pium5VgMH4HlYUAgMcmv235lr3KsEGGONFVUPODO88QDQgNsV24ac5pkmZKz1BMEZvXfXNVWBuQmk7kREWMxjEO80TjPdM0Kar0i907WlVQSR2M3LM22-bP1TQt4XwKUn5PgQrwPz6lnyn1O6ivfWo2dlRWy1AIHtPxYC7Hxa8gGPKSsVpRxxTXRGW6hCQd64xS4HnbjhkmetJNt7EYyjV4KNpHrCHc1Ao2O7NN5NKKfrEOUyUJul5bNhCYacQs7xHCRoB29nGzWhY7pnD5dBSpypxhBHJz3n-bPo6AksKw7VrrQ7-kuilIIRgUrtyF_QdM9aZ564e9r9pLJagaVxdv1G00]--></g></svg>