<?xml version="1.0" encoding="UTF-8" standalone="no"?><svg xmlns="http://www.w3.org/2000/svg" xmlns:xlink="http://www.w3.org/1999/xlink" contentStyleType="text/css" height="906px" preserveAspectRatio="none" style="width:2302px;height:906px;background:#FFFFFF;" version="1.1" viewBox="0 0 2302 906" width="2302px" zoomAndPan="magnify"><defs/><g><text fill="#000000" font-family="sans-serif" font-size="14" font-weight="bold" lengthAdjust="spacing" textLength="188" x="1050.25" y="22.9951">Class Diagram - US1002</text><!--class UI--><g id="elem_UI"><rect codeLine="13" fill="#FEF9E7" height="50" id="UI" rx="2.5" ry="2.5" style="stroke:#181818;stroke-width:0.5;" width="255" x="1313.5" y="44.2969"/><ellipse cx="1329.5" cy="61.2969" fill="#ADD1B2" rx="12" ry="12" style="stroke:#181818;stroke-width:1.0;"/><path d="M1332.5625,68.375 Q1331.875,68.7344 1331.125,68.9063 Q1330.375,69.0781 1329.5469,69.0781 Q1326.5938,69.0781 1325.0313,67.1406 Q1323.4844,65.1875 1323.4844,61.5156 Q1323.4844,57.8438 1325.0313,55.9063 Q1326.5938,53.9531 1329.5469,53.9531 Q1330.375,53.9531 1331.125,54.125 Q1331.8906,54.2969 1332.5625,54.6563 L1332.5625,57.8594 Q1331.8125,57.1719 1331.1094,56.8594 Q1330.4219,56.5469 1329.6719,56.5469 Q1328.0938,56.5469 1327.2813,57.7969 Q1326.4844,59.0469 1326.4844,61.5156 Q1326.4844,63.9844 1327.2813,65.2344 Q1328.0938,66.4844 1329.6719,66.4844 Q1330.4219,66.4844 1331.1094,66.1719 Q1331.8125,65.8594 1332.5625,65.1719 L1332.5625,68.375 Z " fill="#000000"/><text fill="#000000" font-family="sans-serif" font-size="20" lengthAdjust="spacing" textLength="221" x="1344.5" y="68.2207">RegisterJobOpeningUI</text><line style="stroke:#181818;stroke-width:0.5;" x1="1314.5" x2="1567.5" y1="78.2969" y2="78.2969"/><line style="stroke:#181818;stroke-width:0.5;" x1="1314.5" x2="1567.5" y1="86.2969" y2="86.2969"/></g><!--class JobOpeningController--><g id="elem_JobOpeningController"><rect codeLine="15" fill="#FEF9E7" height="73.2813" id="JobOpeningController" rx="2.5" ry="2.5" style="stroke:#181818;stroke-width:0.5;" width="1634" x="624" y="154.2969"/><ellipse cx="1287" cy="171.2969" fill="#ADD1B2" rx="12" ry="12" style="stroke:#181818;stroke-width:1.0;"/><path d="M1290.0625,178.375 Q1289.375,178.7344 1288.625,178.9063 Q1287.875,179.0781 1287.0469,179.0781 Q1284.0938,179.0781 1282.5313,177.1406 Q1280.9844,175.1875 1280.9844,171.5156 Q1280.9844,167.8438 1282.5313,165.9063 Q1284.0938,163.9531 1287.0469,163.9531 Q1287.875,163.9531 1288.625,164.125 Q1289.3906,164.2969 1290.0625,164.6563 L1290.0625,167.8594 Q1289.3125,167.1719 1288.6094,166.8594 Q1287.9219,166.5469 1287.1719,166.5469 Q1285.5938,166.5469 1284.7813,167.7969 Q1283.9844,169.0469 1283.9844,171.5156 Q1283.9844,173.9844 1284.7813,175.2344 Q1285.5938,176.4844 1287.1719,176.4844 Q1287.9219,176.4844 1288.6094,176.1719 Q1289.3125,175.8594 1290.0625,175.1719 L1290.0625,178.375 Z " fill="#000000"/><text fill="#000000" font-family="sans-serif" font-size="20" lengthAdjust="spacing" textLength="299" x="1309" y="178.2207">RegisterJobOpeningController</text><line style="stroke:#181818;stroke-width:0.5;" x1="625" x2="2257" y1="188.2969" y2="188.2969"/><line style="stroke:#181818;stroke-width:0.5;" x1="625" x2="2257" y1="196.2969" y2="196.2969"/><ellipse cx="635" cy="213.4375" fill="#84BE84" rx="3" ry="3" style="stroke:#038048;stroke-width:1.0;"/><text fill="#000000" font-family="sans-serif" font-size="20" lengthAdjust="spacing" textLength="1607" x="645" y="218.8613">addJobOpening(titleOrFunction: String, contractType: String, mode: String, address: String, company: String, numberOfVacancies: int, description: String): void</text></g><!--class JobOpeningService--><g id="elem_JobOpeningService"><rect codeLine="19" fill="#FEF9E7" height="73.2813" id="JobOpeningService" rx="2.5" ry="2.5" style="stroke:#181818;stroke-width:0.5;" width="1709" x="586.5" y="287.2969"/><ellipse cx="1341.5" cy="304.2969" fill="#ADD1B2" rx="12" ry="12" style="stroke:#181818;stroke-width:1.0;"/><path d="M1344.5625,311.375 Q1343.875,311.7344 1343.125,311.9063 Q1342.375,312.0781 1341.5469,312.0781 Q1338.5938,312.0781 1337.0313,310.1406 Q1335.4844,308.1875 1335.4844,304.5156 Q1335.4844,300.8438 1337.0313,298.9063 Q1338.5938,296.9531 1341.5469,296.9531 Q1342.375,296.9531 1343.125,297.125 Q1343.8906,297.2969 1344.5625,297.6563 L1344.5625,300.8594 Q1343.8125,300.1719 1343.1094,299.8594 Q1342.4219,299.5469 1341.6719,299.5469 Q1340.0938,299.5469 1339.2813,300.7969 Q1338.4844,302.0469 1338.4844,304.5156 Q1338.4844,306.9844 1339.2813,308.2344 Q1340.0938,309.4844 1341.6719,309.4844 Q1342.4219,309.4844 1343.1094,309.1719 Q1343.8125,308.8594 1344.5625,308.1719 L1344.5625,311.375 Z " fill="#000000"/><text fill="#000000" font-family="sans-serif" font-size="20" lengthAdjust="spacing" textLength="190" x="1363.5" y="311.2207">JobOpeningService</text><line style="stroke:#181818;stroke-width:0.5;" x1="587.5" x2="2294.5" y1="321.2969" y2="321.2969"/><line style="stroke:#181818;stroke-width:0.5;" x1="587.5" x2="2294.5" y1="329.2969" y2="329.2969"/><ellipse cx="597.5" cy="346.4375" fill="#84BE84" rx="3" ry="3" style="stroke:#038048;stroke-width:1.0;"/><text fill="#000000" font-family="sans-serif" font-size="20" lengthAdjust="spacing" textLength="1682" x="607.5" y="351.8613">addJobOpening(titleOrFunction: String, contractType: String, mode: String, address: String, company: String, numberOfVacancies: int, description: String): JobOpening</text></g><!--class JobOpening--><g id="elem_JobOpening"><rect codeLine="23" fill="#FEF9E7" height="236.25" id="JobOpening" rx="2.5" ry="2.5" style="stroke:#181818;stroke-width:0.5;" width="1734" x="7" y="420.2969"/><ellipse cx="811" cy="437.2969" fill="#ADD1B2" rx="12" ry="12" style="stroke:#181818;stroke-width:1.0;"/><path d="M814.0625,444.375 Q813.375,444.7344 812.625,444.9063 Q811.875,445.0781 811.0469,445.0781 Q808.0938,445.0781 806.5313,443.1406 Q804.9844,441.1875 804.9844,437.5156 Q804.9844,433.8438 806.5313,431.9063 Q808.0938,429.9531 811.0469,429.9531 Q811.875,429.9531 812.625,430.125 Q813.3906,430.2969 814.0625,430.6563 L814.0625,433.8594 Q813.3125,433.1719 812.6094,432.8594 Q811.9219,432.5469 811.1719,432.5469 Q809.5938,432.5469 808.7813,433.7969 Q807.9844,435.0469 807.9844,437.5156 Q807.9844,439.9844 808.7813,441.2344 Q809.5938,442.4844 811.1719,442.4844 Q811.9219,442.4844 812.6094,442.1719 Q813.3125,441.8594 814.0625,441.1719 L814.0625,444.375 Z " fill="#000000"/><text fill="#000000" font-family="sans-serif" font-size="20" lengthAdjust="spacing" textLength="117" x="833" y="444.2207">JobOpening</text><line style="stroke:#181818;stroke-width:0.5;" x1="8" x2="1740" y1="454.2969" y2="454.2969"/><rect fill="none" height="6" style="stroke:#C82930;stroke-width:1.0;" width="6" x="15" y="468.4375"/><text fill="#000000" font-family="sans-serif" font-size="20" lengthAdjust="spacing" textLength="226" x="28" y="476.8613">titleOrFunction: String</text><rect fill="none" height="6" style="stroke:#C82930;stroke-width:1.0;" width="6" x="15" y="491.7188"/><text fill="#000000" font-family="sans-serif" font-size="20" lengthAdjust="spacing" textLength="205" x="28" y="500.1426">contractType: String</text><rect fill="none" height="6" style="stroke:#C82930;stroke-width:1.0;" width="6" x="15" y="515"/><text fill="#000000" font-family="sans-serif" font-size="20" lengthAdjust="spacing" textLength="131" x="28" y="523.4238">mode: String</text><rect fill="none" height="6" style="stroke:#C82930;stroke-width:1.0;" width="6" x="15" y="538.2813"/><text fill="#000000" font-family="sans-serif" font-size="20" lengthAdjust="spacing" textLength="152" x="28" y="546.7051">address: String</text><rect fill="none" height="6" style="stroke:#C82930;stroke-width:1.0;" width="6" x="15" y="561.5625"/><text fill="#000000" font-family="sans-serif" font-size="20" lengthAdjust="spacing" textLength="166" x="28" y="569.9863">company: String</text><rect fill="none" height="6" style="stroke:#C82930;stroke-width:1.0;" width="6" x="15" y="584.8438"/><text fill="#000000" font-family="sans-serif" font-size="20" lengthAdjust="spacing" textLength="243" x="28" y="593.2676">numberOfVacancies: int</text><rect fill="none" height="6" style="stroke:#C82930;stroke-width:1.0;" width="6" x="15" y="608.125"/><text fill="#000000" font-family="sans-serif" font-size="20" lengthAdjust="spacing" textLength="186" x="28" y="616.5488">description: String</text><line style="stroke:#181818;stroke-width:0.5;" x1="8" x2="1740" y1="625.2656" y2="625.2656"/><ellipse cx="18" cy="642.4063" fill="#84BE84" rx="3" ry="3" style="stroke:#038048;stroke-width:1.0;"/><text fill="#000000" font-family="sans-serif" font-size="20" lengthAdjust="spacing" textLength="1707" x="28" y="647.8301">createJobOpening(titleOrFunction: String, contractType: String, mode: String, address: String, company: String, numberOfVacancies: int, description: String): JobOpening</text></g><!--class JobOpeningRepository--><g id="elem_JobOpeningRepository"><rect codeLine="34" fill="#FEF9E7" height="73.2813" id="JobOpeningRepository" rx="2.5" ry="2.5" style="stroke:#181818;stroke-width:0.5;" width="465" x="1776.5" y="501.7969"/><ellipse cx="1893" cy="518.7969" fill="#ADD1B2" rx="12" ry="12" style="stroke:#181818;stroke-width:1.0;"/><path d="M1896.0625,525.875 Q1895.375,526.2344 1894.625,526.4063 Q1893.875,526.5781 1893.0469,526.5781 Q1890.0938,526.5781 1888.5313,524.6406 Q1886.9844,522.6875 1886.9844,519.0156 Q1886.9844,515.3438 1888.5313,513.4063 Q1890.0938,511.4531 1893.0469,511.4531 Q1893.875,511.4531 1894.625,511.625 Q1895.3906,511.7969 1896.0625,512.1563 L1896.0625,515.3594 Q1895.3125,514.6719 1894.6094,514.3594 Q1893.9219,514.0469 1893.1719,514.0469 Q1891.5938,514.0469 1890.7813,515.2969 Q1889.9844,516.5469 1889.9844,519.0156 Q1889.9844,521.4844 1890.7813,522.7344 Q1891.5938,523.9844 1893.1719,523.9844 Q1893.9219,523.9844 1894.6094,523.6719 Q1895.3125,523.3594 1896.0625,522.6719 L1896.0625,525.875 Z " fill="#000000"/><text fill="#000000" font-family="sans-serif" font-size="20" lengthAdjust="spacing" textLength="223" x="1915" y="525.7207">JobOpeningRepository</text><line style="stroke:#181818;stroke-width:0.5;" x1="1777.5" x2="2240.5" y1="535.7969" y2="535.7969"/><line style="stroke:#181818;stroke-width:0.5;" x1="1777.5" x2="2240.5" y1="543.7969" y2="543.7969"/><ellipse cx="1787.5" cy="560.9375" fill="#84BE84" rx="3" ry="3" style="stroke:#038048;stroke-width:1.0;"/><text fill="#000000" font-family="sans-serif" font-size="20" lengthAdjust="spacing" textLength="438" x="1797.5" y="566.3613">save(jobOpening: JobOpening): JobOpening</text></g><!--class JpaJobOpeningRepository--><g id="elem_JpaJobOpeningRepository"><rect codeLine="38" fill="#FEF9E7" height="73.2813" id="JpaJobOpeningRepository" rx="2.5" ry="2.5" style="stroke:#181818;stroke-width:0.5;" width="465" x="1776.5" y="716.2969"/><ellipse cx="1877.5" cy="733.2969" fill="#ADD1B2" rx="12" ry="12" style="stroke:#181818;stroke-width:1.0;"/><path d="M1880.5625,740.375 Q1879.875,740.7344 1879.125,740.9063 Q1878.375,741.0781 1877.5469,741.0781 Q1874.5938,741.0781 1873.0313,739.1406 Q1871.4844,737.1875 1871.4844,733.5156 Q1871.4844,729.8438 1873.0313,727.9063 Q1874.5938,725.9531 1877.5469,725.9531 Q1878.375,725.9531 1879.125,726.125 Q1879.8906,726.2969 1880.5625,726.6563 L1880.5625,729.8594 Q1879.8125,729.1719 1879.1094,728.8594 Q1878.4219,728.5469 1877.6719,728.5469 Q1876.0938,728.5469 1875.2813,729.7969 Q1874.4844,731.0469 1874.4844,733.5156 Q1874.4844,735.9844 1875.2813,737.2344 Q1876.0938,738.4844 1877.6719,738.4844 Q1878.4219,738.4844 1879.1094,738.1719 Q1879.8125,737.8594 1880.5625,737.1719 L1880.5625,740.375 Z " fill="#000000"/><text fill="#000000" font-family="sans-serif" font-size="20" lengthAdjust="spacing" textLength="254" x="1899.5" y="740.2207">JpaJobOpeningRepository</text><line style="stroke:#181818;stroke-width:0.5;" x1="1777.5" x2="2240.5" y1="750.2969" y2="750.2969"/><line style="stroke:#181818;stroke-width:0.5;" x1="1777.5" x2="2240.5" y1="758.2969" y2="758.2969"/><ellipse cx="1787.5" cy="775.4375" fill="#84BE84" rx="3" ry="3" style="stroke:#038048;stroke-width:1.0;"/><text fill="#000000" font-family="sans-serif" font-size="20" lengthAdjust="spacing" textLength="438" x="1797.5" y="780.8613">save(jobOpening: JobOpening): JobOpening</text></g><!--class DB--><g id="elem_DB"><rect codeLine="42" fill="#FEF9E7" height="50" id="DB" rx="2.5" ry="2.5" style="stroke:#181818;stroke-width:0.5;" width="128" x="1945" y="849.2969"/><ellipse cx="1961" cy="866.2969" fill="#8BEBFF" rx="12" ry="12" style="stroke:#181818;stroke-width:1.0;"/><path d="M1961.2188,861.8125 L1961.2188,871.2031 L1962,871.2031 Q1963.7031,871.2031 1964.4219,870.1406 Q1965.1406,869.0625 1965.1406,866.4844 Q1965.1406,863.9375 1964.4219,862.875 Q1963.7031,861.8125 1962,861.8125 L1961.2188,861.8125 Z M1958.3438,859.2188 L1961.4219,859.2188 Q1965,859.2188 1966.5625,860.9219 Q1968.1406,862.625 1968.1406,866.4844 Q1968.1406,870.375 1966.5625,872.0938 Q1965,873.7969 1961.4219,873.7969 L1958.3438,873.7969 L1958.3438,859.2188 Z " fill="#000000"/><text fill="#000000" font-family="sans-serif" font-size="20" lengthAdjust="spacing" textLength="94" x="1976" y="873.2207">Database</text><line style="stroke:#181818;stroke-width:0.5;" x1="1946" x2="2072" y1="883.2969" y2="883.2969"/><line style="stroke:#181818;stroke-width:0.5;" x1="1946" x2="2072" y1="891.2969" y2="891.2969"/></g><!--link UI to JobOpeningController--><g id="link_UI_JobOpeningController"><path codeLine="45" d="M1441,94.4769 C1441,110.0669 1441,130.7269 1441,148.8269 " fill="none" id="UI-to-JobOpeningController" style="stroke:#000000;stroke-width:1.0;"/><polygon fill="#000000" points="1441,153.8569,1445,144.8569,1441,148.8569,1437,144.8569,1441,153.8569" style="stroke:#000000;stroke-width:1.0;"/></g><!--link JobOpeningController to JobOpeningService--><g id="link_JobOpeningController_JobOpeningService"><path codeLine="46" d="M1441,227.5969 C1441,244.3469 1441,264.3869 1441,281.7469 " fill="none" id="JobOpeningController-to-JobOpeningService" style="stroke:#000000;stroke-width:1.0;"/><polygon fill="#000000" points="1441,287.0469,1445,278.0469,1441,282.0469,1437,278.0469,1441,287.0469" style="stroke:#000000;stroke-width:1.0;"/></g><!--link JobOpeningService to JobOpening--><g id="link_JobOpeningService_JobOpening"><path codeLine="47" d="M1346.1,360.3669 C1302.32,376.7669 1247.57,397.2869 1191.02,418.4869 " fill="none" id="JobOpeningService-to-JobOpening" style="stroke:#000000;stroke-width:1.0;"/><polygon fill="#000000" points="1186.25,420.2769,1196.0815,420.8621,1190.9316,418.5213,1193.2725,413.3714,1186.25,420.2769" style="stroke:#000000;stroke-width:1.0;"/></g><!--link JobOpeningService to JobOpeningRepository--><g id="link_JobOpeningService_JobOpeningRepository"><path codeLine="48" d="M1575.13,360.3669 C1632.41,376.7669 1699.63,397.6269 1759,420.2969 C1819.72,443.4769 1886.27,474.9369 1935.43,499.3969 " fill="none" id="JobOpeningService-to-JobOpeningRepository" style="stroke:#000000;stroke-width:1.0;"/><polygon fill="#000000" points="1940.13,501.7369,1933.8593,494.1423,1935.655,499.5065,1930.2907,501.3022,1940.13,501.7369" style="stroke:#000000;stroke-width:1.0;"/></g><!--link JobOpeningRepository to JpaJobOpeningRepository--><g id="link_JobOpeningRepository_JpaJobOpeningRepository"><path codeLine="49" d="M2009,574.8669 C2009,612.4069 2009,671.4869 2009,710.9269 " fill="none" id="JobOpeningRepository-to-JpaJobOpeningRepository" style="stroke:#000000;stroke-width:1.0;"/><polygon fill="#000000" points="2009,716.1169,2013,707.1169,2009,711.1169,2005,707.1169,2009,716.1169" style="stroke:#000000;stroke-width:1.0;"/></g><!--link JpaJobOpeningRepository to DB--><g id="link_JpaJobOpeningRepository_DB"><path codeLine="50" d="M2009,789.3269 C2009,806.6369 2009,827.2069 2009,843.6569 " fill="none" id="JpaJobOpeningRepository-to-DB" style="stroke:#000000;stroke-width:1.0;"/><polygon fill="#000000" points="2009,849.0669,2013,840.0669,2009,844.0669,2005,840.0669,2009,849.0669" style="stroke:#000000;stroke-width:1.0;"/></g><!--SRC=[rPH1Zzem48Nl_XMZtGkhWaJtqdQrGjeG8j4BqgRqFZX3wcBio7POfQl-zveOcf2Qzj3JvfPvppF-NcBRdL0L6jnBpNTKG45RhANBj7Av-45mFsNC2IS9vXAjXLHWwTqmWNN-VZgzPyoUEm1l7QyC_3EeFZbdnAPsjEHQjOsd0rk5V8SbvQxnimnnXwgKD33PRrZe5w5AsAAqGrKAHQwf22ejc-DBgoU-SMbqhOgvbjh0RRR8FYq-jDgJCVebb1FfVUmdOu7YvfbAOHsPptgpgaZvcUlb3Q25zH9U_sQR- -YCbf9CQuy9fupUOL5qygYDUMMoMd4dj7g0t6UcoZ7muqBaxejdwwfxNVJUV2j3rlONxIjKJLTGzNv3PhNzYXmL5-IzGhcn_-AM6r7rHzuzm46BefT6jysSp45m6h2Tgcy0hDjN56_0TGAQN448OWmZA7sKK1dWd1jS88LY72je4RGGF3U4ZjvezizKQIkSDitWAtJ2-GUpUA3Hzz-6VkkhSogyFYgk_SUq51rkq8PpaYRm-3XAnt3xCLaaMNOtc_dMtkplaiba5hqZMFJYk7IVJXtxynnU-lvfw91PD8VM7S-8NSlkk2PDs2y0]--></g></svg>