<?xml version="1.0" encoding="UTF-8" standalone="no"?><svg xmlns="http://www.w3.org/2000/svg" xmlns:xlink="http://www.w3.org/1999/xlink" contentStyleType="text/css" height="1804px" preserveAspectRatio="none" style="width:2148px;height:1804px;background:#FFFFFF;" version="1.1" viewBox="0 0 2148 1804" width="2148px" zoomAndPan="magnify"><defs/><g><text fill="#000000" font-family="sans-serif" font-size="14" font-weight="bold" lengthAdjust="spacing" textLength="225" x="959" y="27.9951">Sequence Diagram - US1002</text><rect fill="#FFFFFF" height="1562.75" style="stroke:#181818;stroke-width:1.0;" width="10" x="98" y="135.5781"/><rect fill="#FFFFFF" height="246.8125" style="stroke:#181818;stroke-width:1.0;" width="10" x="323.5" y="211.4219"/><rect fill="#FFFFFF" height="83.8438" style="stroke:#181818;stroke-width:1.0;" width="10" x="323.5" y="518.7969"/><rect fill="#FFFFFF" height="950.2813" style="stroke:#181818;stroke-width:1.0;" width="10" x="323.5" y="748.0469"/><rect fill="#FFFFFF" height="689.4688" style="stroke:#181818;stroke-width:1.0;" width="10" x="673.5" y="925.0156"/><rect fill="#FFFFFF" height="475.2188" style="stroke:#181818;stroke-width:1.0;" width="10" x="1023.5" y="1101.9844"/><rect fill="#FFFFFF" height="37.2813" style="stroke:#181818;stroke-width:1.0;" width="10" x="1398.5" y="1278.9531"/><rect fill="#FFFFFF" height="186.4063" style="stroke:#181818;stroke-width:1.0;" width="10" x="1592.5" y="1353.5156"/><rect fill="#FFFFFF" height="111.8438" style="stroke:#181818;stroke-width:1.0;" width="10" x="1855" y="1390.7969"/><rect fill="#FFFFFF" height="37.2813" style="stroke:#181818;stroke-width:1.0;" width="10" x="2084" y="1428.0781"/><line style="stroke:#181818;stroke-width:0.5;stroke-dasharray:5.0,5.0;" x1="103" x2="103" y1="125.5781" y2="1716.3281"/><line style="stroke:#181818;stroke-width:0.5;stroke-dasharray:5.0,5.0;" x1="328" x2="328" y1="125.5781" y2="1716.3281"/><line style="stroke:#181818;stroke-width:0.5;stroke-dasharray:5.0,5.0;" x1="678" x2="678" y1="125.5781" y2="1716.3281"/><line style="stroke:#181818;stroke-width:0.5;stroke-dasharray:5.0,5.0;" x1="1028.5" x2="1028.5" y1="125.5781" y2="1716.3281"/><line style="stroke:#181818;stroke-width:0.5;stroke-dasharray:5.0,5.0;" x1="1403" x2="1403" y1="125.5781" y2="1716.3281"/><line style="stroke:#181818;stroke-width:0.5;stroke-dasharray:5.0,5.0;" x1="1597" x2="1597" y1="125.5781" y2="1716.3281"/><line style="stroke:#181818;stroke-width:0.5;stroke-dasharray:5.0,5.0;" x1="1860" x2="1860" y1="125.5781" y2="1716.3281"/><line style="stroke:#181818;stroke-width:0.5;stroke-dasharray:5.0,5.0;" x1="2089" x2="2089" y1="125.5781" y2="1716.3281"/><text fill="#000000" font-family="sans-serif" font-size="20" lengthAdjust="spacing" text-decoration="underline" textLength="190" x="5" y="120.8613">Customer Manager</text><ellipse cx="103" cy="50.7969" fill="#E2E2F0" rx="8" ry="8" style="stroke:#181818;stroke-width:0.5;"/><path d="M103,58.7969 L103,85.7969 M90,66.7969 L116,66.7969 M103,85.7969 L90,100.7969 M103,85.7969 L116,100.7969 " fill="none" style="stroke:#181818;stroke-width:0.5;"/><text fill="#000000" font-family="sans-serif" font-size="20" lengthAdjust="spacing" text-decoration="underline" textLength="190" x="5" y="1733.8926">Customer Manager</text><ellipse cx="103" cy="1747.1094" fill="#E2E2F0" rx="8" ry="8" style="stroke:#181818;stroke-width:0.5;"/><path d="M103,1755.1094 L103,1782.1094 M90,1763.1094 L116,1763.1094 M103,1782.1094 L90,1797.1094 M103,1782.1094 L116,1797.1094 " fill="none" style="stroke:#181818;stroke-width:0.5;"/><rect fill="#E2E2F0" height="37.2813" rx="2.5" ry="2.5" style="stroke:#181818;stroke-width:0.5;" width="235" x="211" y="87.2969"/><text fill="#000000" font-family="sans-serif" font-size="20" lengthAdjust="spacing" text-decoration="underline" textLength="221" x="218" y="112.8613">RegisterJobOpeningUI</text><rect fill="#E2E2F0" height="37.2813" rx="2.5" ry="2.5" style="stroke:#181818;stroke-width:0.5;" width="235" x="211" y="1715.3281"/><text fill="#000000" font-family="sans-serif" font-size="20" lengthAdjust="spacing" text-decoration="underline" textLength="221" x="218" y="1740.8926">RegisterJobOpeningUI</text><rect fill="#E2E2F0" height="37.2813" rx="2.5" ry="2.5" style="stroke:#181818;stroke-width:0.5;" width="313" x="522" y="87.2969"/><text fill="#000000" font-family="sans-serif" font-size="20" lengthAdjust="spacing" text-decoration="underline" textLength="299" x="529" y="112.8613">RegisterJobOpeningController</text><rect fill="#E2E2F0" height="37.2813" rx="2.5" ry="2.5" style="stroke:#181818;stroke-width:0.5;" width="313" x="522" y="1715.3281"/><text fill="#000000" font-family="sans-serif" font-size="20" lengthAdjust="spacing" text-decoration="underline" textLength="299" x="529" y="1740.8926">RegisterJobOpeningController</text><rect fill="#E2E2F0" height="37.2813" rx="2.5" ry="2.5" style="stroke:#181818;stroke-width:0.5;" width="204" x="926.5" y="87.2969"/><text fill="#000000" font-family="sans-serif" font-size="20" lengthAdjust="spacing" text-decoration="underline" textLength="190" x="933.5" y="112.8613">JobOpeningService</text><rect fill="#E2E2F0" height="37.2813" rx="2.5" ry="2.5" style="stroke:#181818;stroke-width:0.5;" width="204" x="926.5" y="1715.3281"/><text fill="#000000" font-family="sans-serif" font-size="20" lengthAdjust="spacing" text-decoration="underline" textLength="190" x="933.5" y="1740.8926">JobOpeningService</text><rect fill="#E2E2F0" height="37.2813" rx="2.5" ry="2.5" style="stroke:#181818;stroke-width:0.5;" width="131" x="1338" y="87.2969"/><text fill="#000000" font-family="sans-serif" font-size="20" lengthAdjust="spacing" text-decoration="underline" textLength="117" x="1345" y="112.8613">JobOpening</text><rect fill="#E2E2F0" height="37.2813" rx="2.5" ry="2.5" style="stroke:#181818;stroke-width:0.5;" width="131" x="1338" y="1715.3281"/><text fill="#000000" font-family="sans-serif" font-size="20" lengthAdjust="spacing" text-decoration="underline" textLength="117" x="1345" y="1740.8926">JobOpening</text><rect fill="#E2E2F0" height="37.2813" rx="2.5" ry="2.5" style="stroke:#181818;stroke-width:0.5;" width="237" x="1479" y="87.2969"/><text fill="#000000" font-family="sans-serif" font-size="20" lengthAdjust="spacing" text-decoration="underline" textLength="223" x="1486" y="112.8613">JobOpeningRepository</text><rect fill="#E2E2F0" height="37.2813" rx="2.5" ry="2.5" style="stroke:#181818;stroke-width:0.5;" width="237" x="1479" y="1715.3281"/><text fill="#000000" font-family="sans-serif" font-size="20" lengthAdjust="spacing" text-decoration="underline" textLength="223" x="1486" y="1740.8926">JobOpeningRepository</text><rect fill="#E2E2F0" height="37.2813" rx="2.5" ry="2.5" style="stroke:#181818;stroke-width:0.5;" width="268" x="1726" y="87.2969"/><text fill="#000000" font-family="sans-serif" font-size="20" lengthAdjust="spacing" text-decoration="underline" textLength="254" x="1733" y="112.8613">JpaJobOpeningRepository</text><rect fill="#E2E2F0" height="37.2813" rx="2.5" ry="2.5" style="stroke:#181818;stroke-width:0.5;" width="268" x="1726" y="1715.3281"/><text fill="#000000" font-family="sans-serif" font-size="20" lengthAdjust="spacing" text-decoration="underline" textLength="254" x="1733" y="1740.8926">JpaJobOpeningRepository</text><text fill="#000000" font-family="sans-serif" font-size="20" lengthAdjust="spacing" text-decoration="underline" textLength="94" x="2039" y="120.8613">Database</text><path d="M2071,66.2969 C2071,56.2969 2089,56.2969 2089,56.2969 C2089,56.2969 2107,56.2969 2107,66.2969 L2107,92.2969 C2107,102.2969 2089,102.2969 2089,102.2969 C2089,102.2969 2071,102.2969 2071,92.2969 L2071,66.2969 " fill="#E2E2F0" style="stroke:#181818;stroke-width:1.5;"/><path d="M2071,66.2969 C2071,76.2969 2089,76.2969 2089,76.2969 C2089,76.2969 2107,76.2969 2107,66.2969 " fill="none" style="stroke:#181818;stroke-width:1.5;"/><text fill="#000000" font-family="sans-serif" font-size="20" lengthAdjust="spacing" text-decoration="underline" textLength="94" x="2039" y="1733.8926">Database</text><path d="M2071,1748.6094 C2071,1738.6094 2089,1738.6094 2089,1738.6094 C2089,1738.6094 2107,1738.6094 2107,1748.6094 L2107,1774.6094 C2107,1784.6094 2089,1784.6094 2089,1784.6094 C2089,1784.6094 2071,1784.6094 2071,1774.6094 L2071,1748.6094 " fill="#E2E2F0" style="stroke:#181818;stroke-width:1.5;"/><path d="M2071,1748.6094 C2071,1758.6094 2089,1758.6094 2089,1758.6094 C2089,1758.6094 2107,1758.6094 2107,1748.6094 " fill="none" style="stroke:#181818;stroke-width:1.5;"/><rect fill="#FFFFFF" height="1562.75" style="stroke:#181818;stroke-width:1.0;" width="10" x="98" y="135.5781"/><rect fill="#FFFFFF" height="246.8125" style="stroke:#181818;stroke-width:1.0;" width="10" x="323.5" y="211.4219"/><rect fill="#FFFFFF" height="83.8438" style="stroke:#181818;stroke-width:1.0;" width="10" x="323.5" y="518.7969"/><rect fill="#FFFFFF" height="950.2813" style="stroke:#181818;stroke-width:1.0;" width="10" x="323.5" y="748.0469"/><rect fill="#FFFFFF" height="689.4688" style="stroke:#181818;stroke-width:1.0;" width="10" x="673.5" y="925.0156"/><rect fill="#FFFFFF" height="475.2188" style="stroke:#181818;stroke-width:1.0;" width="10" x="1023.5" y="1101.9844"/><rect fill="#FFFFFF" height="37.2813" style="stroke:#181818;stroke-width:1.0;" width="10" x="1398.5" y="1278.9531"/><rect fill="#FFFFFF" height="186.4063" style="stroke:#181818;stroke-width:1.0;" width="10" x="1592.5" y="1353.5156"/><rect fill="#FFFFFF" height="111.8438" style="stroke:#181818;stroke-width:1.0;" width="10" x="1855" y="1390.7969"/><rect fill="#FFFFFF" height="37.2813" style="stroke:#181818;stroke-width:1.0;" width="10" x="2084" y="1428.0781"/><polygon fill="#181818" points="311.5,207.4219,321.5,211.4219,311.5,215.4219,315.5,211.4219" style="stroke:#181818;stroke-width:1.0;"/><line style="stroke:#181818;stroke-width:1.0;" x1="108" x2="317.5" y1="211.4219" y2="211.4219"/><text fill="#000000" font-family="sans-serif" font-size="20" lengthAdjust="spacing" textLength="46" x="115" y="158.1426">Asks</text><text fill="#000000" font-family="sans-serif" font-size="20" lengthAdjust="spacing" textLength="6" x="161" y="158.1426"> </text><text fill="#000000" font-family="sans-serif" font-size="20" lengthAdjust="spacing" textLength="20" x="167" y="158.1426">to</text><text fill="#000000" font-family="sans-serif" font-size="20" lengthAdjust="spacing" textLength="77" x="115" y="181.4238">register</text><text fill="#000000" font-family="sans-serif" font-size="20" lengthAdjust="spacing" textLength="6" x="192" y="181.4238"> </text><text fill="#000000" font-family="sans-serif" font-size="20" lengthAdjust="spacing" textLength="12" x="198" y="181.4238">a</text><text fill="#000000" font-family="sans-serif" font-size="20" lengthAdjust="spacing" textLength="6" x="210" y="181.4238"> </text><text fill="#000000" font-family="sans-serif" font-size="20" lengthAdjust="spacing" textLength="31" x="216" y="181.4238">job</text><text fill="#000000" font-family="sans-serif" font-size="20" lengthAdjust="spacing" textLength="82" x="115" y="204.7051">opening</text><polygon fill="#181818" points="119,454.2344,109,458.2344,119,462.2344,115,458.2344" style="stroke:#181818;stroke-width:1.0;"/><line style="stroke:#181818;stroke-width:1.0;stroke-dasharray:2.0,2.0;" x1="113" x2="327.5" y1="458.2344" y2="458.2344"/><text fill="#000000" font-family="sans-serif" font-size="20" lengthAdjust="spacing" textLength="46" x="125" y="241.9863">Asks</text><text fill="#000000" font-family="sans-serif" font-size="20" lengthAdjust="spacing" textLength="6" x="171" y="241.9863"> </text><text fill="#000000" font-family="sans-serif" font-size="20" lengthAdjust="spacing" textLength="27" x="177" y="241.9863">for</text><text fill="#000000" font-family="sans-serif" font-size="20" lengthAdjust="spacing" textLength="169" x="125" y="265.2676">information(Title</text><text fill="#000000" font-family="sans-serif" font-size="20" lengthAdjust="spacing" textLength="20" x="125" y="288.5488">or</text><text fill="#000000" font-family="sans-serif" font-size="20" lengthAdjust="spacing" textLength="6" x="145" y="288.5488"> </text><text fill="#000000" font-family="sans-serif" font-size="20" lengthAdjust="spacing" textLength="89" x="151" y="288.5488">function,</text><text fill="#000000" font-family="sans-serif" font-size="20" lengthAdjust="spacing" textLength="86" x="125" y="311.8301">Contract</text><text fill="#000000" font-family="sans-serif" font-size="20" lengthAdjust="spacing" textLength="6" x="211" y="311.8301"> </text><text fill="#000000" font-family="sans-serif" font-size="20" lengthAdjust="spacing" textLength="54" x="217" y="311.8301">Type,</text><text fill="#000000" font-family="sans-serif" font-size="20" lengthAdjust="spacing" textLength="60" x="125" y="335.1113">Mode,</text><text fill="#000000" font-family="sans-serif" font-size="20" lengthAdjust="spacing" textLength="86" x="125" y="358.3926">Address,</text><text fill="#000000" font-family="sans-serif" font-size="20" lengthAdjust="spacing" textLength="101" x="125" y="381.6738">Company,</text><text fill="#000000" font-family="sans-serif" font-size="20" lengthAdjust="spacing" textLength="81" x="125" y="404.9551">Number</text><text fill="#000000" font-family="sans-serif" font-size="20" lengthAdjust="spacing" textLength="6" x="206" y="404.9551"> </text><text fill="#000000" font-family="sans-serif" font-size="20" lengthAdjust="spacing" textLength="19" x="212" y="404.9551">of</text><text fill="#000000" font-family="sans-serif" font-size="20" lengthAdjust="spacing" textLength="104" x="125" y="428.2363">vacancies,</text><text fill="#000000" font-family="sans-serif" font-size="20" lengthAdjust="spacing" textLength="122" x="125" y="451.5176">Description)</text><polygon fill="#181818" points="311.5,514.7969,321.5,518.7969,311.5,522.7969,315.5,518.7969" style="stroke:#181818;stroke-width:1.0;"/><line style="stroke:#181818;stroke-width:1.0;" x1="108" x2="317.5" y1="518.7969" y2="518.7969"/><text fill="#000000" font-family="sans-serif" font-size="20" lengthAdjust="spacing" textLength="84" x="115" y="488.7988">Provides</text><text fill="#000000" font-family="sans-serif" font-size="20" lengthAdjust="spacing" textLength="117" x="115" y="512.0801">information</text><polygon fill="#181818" points="119,598.6406,109,602.6406,119,606.6406,115,602.6406" style="stroke:#181818;stroke-width:1.0;"/><line style="stroke:#181818;stroke-width:1.0;stroke-dasharray:2.0,2.0;" x1="113" x2="327.5" y1="602.6406" y2="602.6406"/><text fill="#000000" font-family="sans-serif" font-size="20" lengthAdjust="spacing" textLength="46" x="125" y="549.3613">Asks</text><text fill="#000000" font-family="sans-serif" font-size="20" lengthAdjust="spacing" textLength="6" x="171" y="549.3613"> </text><text fill="#000000" font-family="sans-serif" font-size="20" lengthAdjust="spacing" textLength="20" x="177" y="549.3613">to</text><text fill="#000000" font-family="sans-serif" font-size="20" lengthAdjust="spacing" textLength="6" x="197" y="549.3613"> </text><text fill="#000000" font-family="sans-serif" font-size="20" lengthAdjust="spacing" textLength="59" x="203" y="549.3613">select</text><text fill="#000000" font-family="sans-serif" font-size="20" lengthAdjust="spacing" textLength="37" x="125" y="572.6426">one</text><text fill="#000000" font-family="sans-serif" font-size="20" lengthAdjust="spacing" textLength="6" x="162" y="572.6426"> </text><text fill="#000000" font-family="sans-serif" font-size="20" lengthAdjust="spacing" textLength="19" x="168" y="572.6426">of</text><text fill="#000000" font-family="sans-serif" font-size="20" lengthAdjust="spacing" textLength="6" x="187" y="572.6426"> </text><text fill="#000000" font-family="sans-serif" font-size="20" lengthAdjust="spacing" textLength="33" x="193" y="572.6426">the</text><text fill="#000000" font-family="sans-serif" font-size="20" lengthAdjust="spacing" textLength="135" x="125" y="595.9238">requirements</text><rect fill="none" height="56.5625" style="stroke:#000000;stroke-width:1.5;" width="2140" x="2" y="610.6406"/><path d="M2,610.6406 L80,610.6406 L80,625.6406 L70,635.6406 L2,635.6406 L2,610.6406 " fill="#EEEEEE" style="stroke:#000000;stroke-width:2.0;"/><text fill="#000000" font-family="sans-serif" font-size="20" font-weight="bold" lengthAdjust="spacing" textLength="33" x="15" y="631.2051">ref</text><text fill="#000000" font-family="sans-serif" font-size="20" lengthAdjust="spacing" textLength="308" x="918" y="658.2051">US1009 ➡️ Select Requirement</text><polygon fill="#181818" points="311.5,744.0469,321.5,748.0469,311.5,752.0469,315.5,748.0469" style="stroke:#181818;stroke-width:1.0;"/><line style="stroke:#181818;stroke-width:1.0;" x1="108" x2="317.5" y1="748.0469" y2="748.0469"/><text fill="#000000" font-family="sans-serif" font-size="20" lengthAdjust="spacing" textLength="72" x="115" y="694.7676">Selects</text><text fill="#000000" font-family="sans-serif" font-size="20" lengthAdjust="spacing" textLength="6" x="187" y="694.7676"> </text><text fill="#000000" font-family="sans-serif" font-size="20" lengthAdjust="spacing" textLength="37" x="193" y="694.7676">one</text><text fill="#000000" font-family="sans-serif" font-size="20" lengthAdjust="spacing" textLength="6" x="230" y="694.7676"> </text><text fill="#000000" font-family="sans-serif" font-size="20" lengthAdjust="spacing" textLength="19" x="236" y="694.7676">of</text><text fill="#000000" font-family="sans-serif" font-size="20" lengthAdjust="spacing" textLength="33" x="115" y="718.0488">the</text><text fill="#000000" font-family="sans-serif" font-size="20" lengthAdjust="spacing" textLength="135" x="115" y="741.3301">requirements</text><polygon fill="#181818" points="661.5,921.0156,671.5,925.0156,661.5,929.0156,665.5,925.0156" style="stroke:#181818;stroke-width:1.0;"/><line style="stroke:#181818;stroke-width:1.0;" x1="333.5" x2="667.5" y1="925.0156" y2="925.0156"/><text fill="#000000" font-family="sans-serif" font-size="20" lengthAdjust="spacing" textLength="321" x="340.5" y="778.6113">addJobOpening(titleOrFunction,</text><text fill="#000000" font-family="sans-serif" font-size="20" lengthAdjust="spacing" textLength="137" x="340.5" y="801.8926">contractType,</text><text fill="#000000" font-family="sans-serif" font-size="20" lengthAdjust="spacing" textLength="63" x="340.5" y="825.1738">mode,</text><text fill="#000000" font-family="sans-serif" font-size="20" lengthAdjust="spacing" textLength="84" x="340.5" y="848.4551">address,</text><text fill="#000000" font-family="sans-serif" font-size="20" lengthAdjust="spacing" textLength="98" x="340.5" y="871.7363">company,</text><text fill="#000000" font-family="sans-serif" font-size="20" lengthAdjust="spacing" textLength="209" x="340.5" y="895.0176">numberOfVacancies,</text><text fill="#000000" font-family="sans-serif" font-size="20" lengthAdjust="spacing" textLength="120" x="340.5" y="918.2988">description)</text><polygon fill="#181818" points="1011.5,1097.9844,1021.5,1101.9844,1011.5,1105.9844,1015.5,1101.9844" style="stroke:#181818;stroke-width:1.0;"/><line style="stroke:#181818;stroke-width:1.0;" x1="683.5" x2="1017.5" y1="1101.9844" y2="1101.9844"/><text fill="#000000" font-family="sans-serif" font-size="20" lengthAdjust="spacing" textLength="321" x="690.5" y="955.5801">addJobOpening(titleOrFunction,</text><text fill="#000000" font-family="sans-serif" font-size="20" lengthAdjust="spacing" textLength="137" x="690.5" y="978.8613">contractType,</text><text fill="#000000" font-family="sans-serif" font-size="20" lengthAdjust="spacing" textLength="63" x="690.5" y="1002.1426">mode,</text><text fill="#000000" font-family="sans-serif" font-size="20" lengthAdjust="spacing" textLength="84" x="690.5" y="1025.4238">address,</text><text fill="#000000" font-family="sans-serif" font-size="20" lengthAdjust="spacing" textLength="98" x="690.5" y="1048.7051">company,</text><text fill="#000000" font-family="sans-serif" font-size="20" lengthAdjust="spacing" textLength="209" x="690.5" y="1071.9863">numberOfVacancies,</text><text fill="#000000" font-family="sans-serif" font-size="20" lengthAdjust="spacing" textLength="120" x="690.5" y="1095.2676">description)</text><polygon fill="#181818" points="1386.5,1274.9531,1396.5,1278.9531,1386.5,1282.9531,1390.5,1278.9531" style="stroke:#181818;stroke-width:1.0;"/><line style="stroke:#181818;stroke-width:1.0;" x1="1033.5" x2="1392.5" y1="1278.9531" y2="1278.9531"/><text fill="#000000" font-family="sans-serif" font-size="20" lengthAdjust="spacing" textLength="346" x="1040.5" y="1132.5488">createJobOpening(titleOrFunction,</text><text fill="#000000" font-family="sans-serif" font-size="20" lengthAdjust="spacing" textLength="137" x="1040.5" y="1155.8301">contractType,</text><text fill="#000000" font-family="sans-serif" font-size="20" lengthAdjust="spacing" textLength="63" x="1040.5" y="1179.1113">mode,</text><text fill="#000000" font-family="sans-serif" font-size="20" lengthAdjust="spacing" textLength="84" x="1040.5" y="1202.3926">address,</text><text fill="#000000" font-family="sans-serif" font-size="20" lengthAdjust="spacing" textLength="98" x="1040.5" y="1225.6738">company,</text><text fill="#000000" font-family="sans-serif" font-size="20" lengthAdjust="spacing" textLength="209" x="1040.5" y="1248.9551">numberOfVacancies,</text><text fill="#000000" font-family="sans-serif" font-size="20" lengthAdjust="spacing" textLength="120" x="1040.5" y="1272.2363">description)</text><polygon fill="#181818" points="1044.5,1312.2344,1034.5,1316.2344,1044.5,1320.2344,1040.5,1316.2344" style="stroke:#181818;stroke-width:1.0;"/><line style="stroke:#181818;stroke-width:1.0;stroke-dasharray:2.0,2.0;" x1="1038.5" x2="1402.5" y1="1316.2344" y2="1316.2344"/><text fill="#000000" font-family="sans-serif" font-size="20" lengthAdjust="spacing" textLength="117" x="1050.5" y="1309.5176">jobOpening</text><polygon fill="#181818" points="1580.5,1349.5156,1590.5,1353.5156,1580.5,1357.5156,1584.5,1353.5156" style="stroke:#181818;stroke-width:1.0;"/><line style="stroke:#181818;stroke-width:1.0;" x1="1033.5" x2="1586.5" y1="1353.5156" y2="1353.5156"/><text fill="#000000" font-family="sans-serif" font-size="20" lengthAdjust="spacing" textLength="178" x="1040.5" y="1346.7988">save(jobOpening)</text><polygon fill="#181818" points="1843,1386.7969,1853,1390.7969,1843,1394.7969,1847,1390.7969" style="stroke:#181818;stroke-width:1.0;"/><line style="stroke:#181818;stroke-width:1.0;" x1="1602.5" x2="1849" y1="1390.7969" y2="1390.7969"/><text fill="#000000" font-family="sans-serif" font-size="20" lengthAdjust="spacing" textLength="178" x="1609.5" y="1384.0801">save(jobOpening)</text><polygon fill="#181818" points="2072,1424.0781,2082,1428.0781,2072,1432.0781,2076,1428.0781" style="stroke:#181818;stroke-width:1.0;"/><line style="stroke:#181818;stroke-width:1.0;" x1="1865" x2="2078" y1="1428.0781" y2="1428.0781"/><text fill="#000000" font-family="sans-serif" font-size="20" lengthAdjust="spacing" textLength="200" x="1872" y="1421.3613">persist(jobOpening)</text><polygon fill="#181818" points="1876,1461.3594,1866,1465.3594,1876,1469.3594,1872,1465.3594" style="stroke:#181818;stroke-width:1.0;"/><line style="stroke:#181818;stroke-width:1.0;stroke-dasharray:2.0,2.0;" x1="1870" x2="2088" y1="1465.3594" y2="1465.3594"/><text fill="#000000" font-family="sans-serif" font-size="20" lengthAdjust="spacing" textLength="117" x="1882" y="1458.6426">jobOpening</text><polygon fill="#181818" points="1613.5,1498.6406,1603.5,1502.6406,1613.5,1506.6406,1609.5,1502.6406" style="stroke:#181818;stroke-width:1.0;"/><line style="stroke:#181818;stroke-width:1.0;stroke-dasharray:2.0,2.0;" x1="1607.5" x2="1859" y1="1502.6406" y2="1502.6406"/><text fill="#000000" font-family="sans-serif" font-size="20" lengthAdjust="spacing" textLength="117" x="1619.5" y="1495.9238">jobOpening</text><polygon fill="#181818" points="1044.5,1535.9219,1034.5,1539.9219,1044.5,1543.9219,1040.5,1539.9219" style="stroke:#181818;stroke-width:1.0;"/><line style="stroke:#181818;stroke-width:1.0;stroke-dasharray:2.0,2.0;" x1="1038.5" x2="1596.5" y1="1539.9219" y2="1539.9219"/><text fill="#000000" font-family="sans-serif" font-size="20" lengthAdjust="spacing" textLength="117" x="1050.5" y="1533.2051">jobOpening</text><polygon fill="#181818" points="694.5,1573.2031,684.5,1577.2031,694.5,1581.2031,690.5,1577.2031" style="stroke:#181818;stroke-width:1.0;"/><line style="stroke:#181818;stroke-width:1.0;stroke-dasharray:2.0,2.0;" x1="688.5" x2="1027.5" y1="1577.2031" y2="1577.2031"/><text fill="#000000" font-family="sans-serif" font-size="20" lengthAdjust="spacing" textLength="117" x="700.5" y="1570.4863">jobOpening</text><polygon fill="#181818" points="344.5,1610.4844,334.5,1614.4844,344.5,1618.4844,340.5,1614.4844" style="stroke:#181818;stroke-width:1.0;"/><line style="stroke:#181818;stroke-width:1.0;stroke-dasharray:2.0,2.0;" x1="338.5" x2="677.5" y1="1614.4844" y2="1614.4844"/><text fill="#000000" font-family="sans-serif" font-size="20" lengthAdjust="spacing" textLength="117" x="350.5" y="1607.7676">jobOpening</text><polygon fill="#181818" points="114,1694.3281,104,1698.3281,114,1702.3281,110,1698.3281" style="stroke:#181818;stroke-width:1.0;"/><line style="stroke:#181818;stroke-width:1.0;stroke-dasharray:2.0,2.0;" x1="108" x2="327.5" y1="1698.3281" y2="1698.3281"/><text fill="#000000" font-family="sans-serif" font-size="20" lengthAdjust="spacing" textLength="76" x="120" y="1645.0488">Informs</text><text fill="#000000" font-family="sans-serif" font-size="20" lengthAdjust="spacing" textLength="77" x="120" y="1668.3301">success</text><text fill="#000000" font-family="sans-serif" font-size="20" lengthAdjust="spacing" textLength="6" x="197" y="1668.3301"> </text><text fill="#000000" font-family="sans-serif" font-size="20" lengthAdjust="spacing" textLength="20" x="203" y="1668.3301">or</text><text fill="#000000" font-family="sans-serif" font-size="20" lengthAdjust="spacing" textLength="64" x="120" y="1691.6113">failure</text><!--SRC=[nLRDRjf04BxxAKQSg0GIYTH3EKGAGP68b191w7rP3sJ1tdLsrrRfI_GDAlKj-ZnzWRv2nul1nlW7Jja3WfsPRtw-cLdCLiY8QHO6Yc_H1nzNB0xiev9sBduWt0uypmeR8CpnFKR94SQ2hSa0-h2Otmm6jvvd3Y0G28bs5o4eRTzKGH2oxo4QmzPeKjYRpuE2q6JGBqnRmKN4f8LO-gXJECzZt2eDdOVOM1MYXcSc2KTtW1dWsMLsvtbH0QCpmxKm5lMJMauZb4Ak5nDdjfYqAJvG1RGAWinFay8fLAunHvq8Zix-xBREgAHTfpR3I1b1TTcL3791oJHYzTRLCizdbYsPGUYCiszEVJnod8Y4MJmd0EYKBg5_HnKVmhtP6h0AT5PCOB1HIr1Pgixq24mKGNOM4-WJH0br27l05JM7aFGPCYkKxBwwTgNBLInvUjC3nnKXmolrPW-UbK-VzxwlgILJQKWrslNWQnmkAIgrWeHn9hb0aexHS2sY5EYJYyZ7OenD-RvebGWVJJ6yAvE4l6e60wGKbCGqGlk6LCVtM6WCKLfpnD6u0fMGPGc9CXaHcflPB_3tr-z_VtxIK3lCMGvqLOg4jqSmZM6Lq_KE-TurpjKGcE_dWgxRGrFzUAILPxJkMGqTg-p0AZ-mAXshqzMtd5E_pEb9b8sp3eNJf9WcTpRq7vNH-VOffd4cFOrz25mZeNnet3K1kv6fAFFctB3GqwsmbNN85-CG34kmcpjf3BsmKAkzvGhEOVKoliXdpHu_SLkjateUZuOGeJRKqvL-JdpH8m2bG_kbtvJ0fhhi1M9AeBMnrlBImlibzMbtU7MNjRewzblhHhpKPTMSDw-hxCrgTj08KTpiLS_rnBs21apCEIq6zqGp4SGQlTA3K_XP_d_n7m00]--></g></svg>